<svg width="33" height="39" viewBox="0 0 44 52" fill="none" xmlns="http://www.w3.org/2000/svg">
<g clip-path="url(#clip0_1_2198)">
<path d="M21.751 0.200096C28.5267 0.200096 35.0473 1.60014 41.207 4.35021C42.4816 9.54996 43.2882 14.9503 43.3097 18.5001C43.3097 18.6001 43.3097 18.6501 43.3097 18.7C43.3097 22.2 42.7996 25.65 41.8013 28.9003C40.8243 32.0999 39.3803 35.0999 37.4899 37.9001C35.6207 40.6002 33.3268 43.1 30.6718 45.3002C27.8469 47.6499 24.5122 49.8 21.7509 51.0004C19.0112 49.8 15.6763 47.6499 12.8516 45.3002C10.1967 43.1 7.90274 40.6002 6.03336 37.9001C4.14297 35.0999 2.699 32.0999 1.72194 28.9003C0.723694 25.65 0.213547 22.2 0.213547 18.7C0.213547 18.6501 0.213547 18.6001 0.213547 18.5001C0.235425 14.9503 1.04215 9.55013 2.31682 4.35021C8.47644 1.60014 14.9967 0.200096 21.751 0.200096Z" fill="white"/>
<path d="M21.751 20.2004C23.2594 20.2004 24.6612 20.6001 25.893 21.3002H38.4454C38.467 20.4001 38.4454 19.4002 38.4244 18.5001C38.3605 14.65 37.235 8.15027 36.1305 3.6501C31.6913 2.20005 26.9124 1.3501 21.7726 1.3501" fill="#DA140A"/>
<path d="M21.7726 1.4001C16.7175 1.4001 12.0872 2.14987 7.39312 3.6501C6.24624 8.29994 5.29037 14.5 5.14156 17.4503C4.92937 21.8003 5.24765 24.9502 6.11862 28.3506C6.60723 30.3002 7.24448 32.1001 8.07291 33.9502C8.96506 33.5003 9.8994 32.9002 10.8336 32.2005C11.8108 31.4503 12.6606 30.55 13.3614 29.6502C13.3402 29.3004 13.3192 28.9998 13.3192 28.6499C13.3192 28.1504 13.3614 27.6496 13.4463 27.2004C11.7049 27.2501 10.7277 27.2501 9.94194 27.2501C9.00708 27.2501 8.15782 26.6003 7.75411 25.6C7.5414 25.6 7.30821 25.6 7.30821 25.6C6.98976 25.6 6.41606 25.3499 6.41606 24.2499C6.41606 23.2001 6.98958 22.9501 7.30821 22.9501C7.30821 22.9501 7.54158 22.9501 7.75411 22.9501C8.15764 21.9501 9.00708 21.3002 9.94194 21.3002H17.6516C18.8624 20.6001 20.2642 20.2004 21.7724 20.2004" fill="#EE120B"/>
<path d="M14.1259 43.6501C11.7474 41.2999 9.79331 38.7004 8.24255 35.9001C6.67096 33.1002 5.54509 29.9502 4.88666 26.8003C4.20704 23.5501 3.99451 20.2501 4.22822 16.8C4.44093 13.55 5.29037 8.59993 6.35233 4.0001C5.35409 4.35015 4.33432 4.75004 3.33607 5.20011C2.21073 9.7001 1.42467 15.4003 1.40349 18.5002C1.40349 22.0002 1.89193 25.3501 2.84746 28.5004C3.86723 31.8504 5.22629 34.5504 7.0316 37.2005C8.81608 39.8505 11.0461 42.25 13.6159 44.4002C16.0165 46.4001 18.7773 48.1502 21.7509 49.6505C18.9051 47.9004 16.3348 45.9004 14.1259 43.6501Z" fill="#163A76"/>
<path d="M29.3973 43.6501C31.7762 41.2999 33.7305 38.7004 35.2811 35.9001C36.8528 33.1002 37.9785 29.9502 38.6369 26.8003C39.3166 23.5501 39.5291 20.2501 39.2954 16.8C39.0827 13.55 38.2122 8.54993 37.1503 4.0001C38.1697 4.35015 39.1895 4.75004 40.1877 5.20011C41.313 9.7001 42.0991 15.4003 42.0991 18.5002C42.1203 22.0002 41.6317 25.3501 40.6546 28.5004C39.7203 31.6005 38.3185 34.5008 36.492 37.2005C34.6865 39.8505 32.4775 42.25 29.907 44.4002C27.5071 46.4001 24.7461 48.1502 21.751 49.6505C24.5973 47.9004 27.1888 45.9004 29.3973 43.6501Z" fill="#163A76"/>
<path d="M21.751 20.65C17.312 20.65 13.7227 24.2499 13.7227 28.6498C13.7227 33.1002 17.312 36.6998 21.751 36.6998C26.1901 36.6998 29.7799 33.1002 29.7799 28.6498C29.7799 24.25 26.1901 20.65 21.751 20.65Z" fill="#8D6E26"/>
<path d="M21.751 37.1001C19.0324 37.1001 16.6112 35.8002 15.0608 33.7999C13.1704 34.9001 11.1951 35.7498 9.28368 36.3501C10.7917 38.9503 12.6392 41.4005 14.891 43.6502C16.9084 45.7005 19.2024 47.5501 21.7512 49.2002" fill="#EE120B"/>
<path d="M9.94194 26.8502C9.07097 26.8502 8.32745 26.1501 8.03001 25.2001C7.66919 25.2001 7.3082 25.2001 7.3082 25.2001C7.11668 25.2001 6.84094 24.9502 6.84094 24.3001C6.84094 23.6002 7.11668 23.35 7.3082 23.35C7.3082 23.35 7.66919 23.35 8.03001 23.35C8.32745 22.4 9.07097 21.6999 9.94194 21.6999H16.951C15.2516 22.8999 13.9986 24.65 13.5312 26.75C11.9594 26.8003 10.7704 26.8502 9.94194 26.8502Z" fill="#8D6E26"/>
<path d="M41.3769 4.15011C35.4086 1.50006 28.8456 0 21.7511 0C14.6782 0 8.11503 1.50006 2.14693 4.15011C0.766342 9.7501 0.0229996 15.1501 0.0018158 18.5C0.0018158 22.0999 0.490258 25.6001 1.50968 28.9501C2.50793 32.1502 3.9736 35.2 5.864 37.9504C7.7332 40.7003 10.0483 43.25 12.7246 45.4498C15.2309 47.55 18.6507 49.8503 21.7511 51.1998C24.8733 49.8503 28.2721 47.5498 30.7992 45.4498C33.4757 43.25 35.7908 40.7001 37.66 37.9504C39.5504 35.2 41.0159 32.1502 42.0141 28.9501C43.0124 25.6001 43.5222 22.1001 43.501 18.5C43.501 15.1501 42.7575 9.7501 41.3769 4.15011ZM36.4919 37.2005C34.7076 39.8002 32.4774 42.25 29.9069 44.4002C27.5071 46.4001 24.746 48.1502 21.751 49.6003C18.7774 48.1501 16.0168 46.4 13.616 44.4002C11.046 42.25 8.81601 39.8002 7.03171 37.2005C6.88307 37.0008 6.73479 36.7502 6.60716 36.5502C9.21971 36.1 12.1294 35.0001 14.8058 33.4501C14.1474 32.5003 13.6589 31.4005 13.4462 30.2003C12.7668 31.0506 11.9806 31.8503 11.0674 32.5505C9.58053 33.6501 7.79675 34.7504 5.86382 35.35C4.58915 33.2004 3.59108 30.9004 2.84756 28.5004C1.89203 25.35 1.40359 22.0002 1.40359 18.5002C1.42478 15.4003 2.21083 9.70009 3.33618 5.2001C9.15616 2.65006 15.3582 1.40004 21.7511 1.40004C28.1655 1.40004 34.3678 2.65006 40.1878 5.19993C41.3132 9.69992 42.0992 15.4001 42.1204 18.5C42.1204 19.6 42.078 20.65 41.9716 21.7H26.5305C28.4421 23.05 29.8013 25.1002 30.1198 27.5L33.0723 26.8003C33.7307 26.6501 33.9855 26.2002 34.0704 25.8001L41.462 25.2999C41.2493 26.4002 40.9735 27.4502 40.6762 28.5002C39.7202 31.6003 38.3184 34.5006 36.4919 37.2005Z" fill="#8D6E26"/>
<path d="M22.2822 30.9002V35.2C24.2997 35.0505 26.0628 33.9502 27.1673 32.4001L23.4082 30.2505C23.1106 30.55 22.7281 30.8002 22.2822 30.9002Z" fill="white"/>
<path d="M21.2202 22.1001C19.2022 22.3001 17.4396 23.3501 16.3563 24.9502L20.0942 27.1C20.3918 26.7501 20.7738 26.5501 21.2201 26.4502" fill="white"/>
<path d="M21.751 27.5001C21.1143 27.5001 20.583 28.0002 20.583 28.6499C20.583 29.3004 21.1143 29.8503 21.751 29.8503C22.4095 29.8503 22.9194 29.3004 22.9194 28.6499C22.9194 28.0002 22.4095 27.5001 21.751 27.5001Z" fill="white"/>
<path d="M22.2822 22.1001V26.4502C22.7279 26.5501 23.1318 26.7503 23.4291 27.1L27.1671 24.9502C26.063 23.3501 24.2998 22.3001 22.2822 22.1001Z" fill="white"/>
<path d="M21.2202 30.9002C20.8589 30.8002 20.5406 30.6504 20.2642 30.4C20.222 30.3498 20.1583 30.3 20.0942 30.2505L16.3563 32.4001C16.4412 32.5503 16.5263 32.6498 16.6324 32.7503C17.7154 34.1504 19.372 35.0505 21.2202 35.2" fill="white"/>
<path d="M23.9389 29.3005L27.6983 31.4999C28.4201 29.9504 28.6328 27.8001 27.6983 25.8503L23.9599 28.0003C24.0665 28.4003 24.0877 28.8501 23.9389 29.3005Z" fill="white"/>
<path d="M16.9722 24.8003L20.0304 26.55C20.2642 26.4004 20.5189 26.2503 20.7953 26.1001V22.6003C19.2871 22.85 17.928 23.6003 16.9722 24.8003Z" fill="#8D6E26"/>
<path d="M22.7071 22.6003V26.15C22.983 26.2503 23.2379 26.4002 23.4716 26.55L26.5302 24.8003C25.5744 23.6003 24.2148 22.85 22.7071 22.6003Z" fill="#8D6E26"/>
<path d="M27.8683 28.0498C27.8256 27.5001 27.6983 26.9502 27.4858 26.4501L24.4275 28.2002C24.4487 28.3504 24.4697 28.5002 24.4697 28.6499C24.4697 28.7003 24.4697 28.8003 24.4697 28.8499C25.3196 28.6003 26.2328 28.4002 27.1673 28.2002C27.3798 28.1505 27.6347 28.1004 27.8683 28.0498Z" fill="#8D6E26"/>
<path d="M21.751 49.2C24.2999 47.5499 26.615 45.7004 28.633 43.65C31.0118 41.2999 32.9659 38.6501 34.495 35.8506C36.0457 33.0002 37.1503 29.8502 37.8089 26.6997C37.8509 26.45 37.8936 26.2002 37.9358 25.9503L34.3889 26.2002C34.1977 26.6997 33.7732 27.0999 33.1779 27.2005C33.1569 27.2005 31.8611 27.5504 30.1622 27.9503C30.1834 28.1503 30.2044 28.4003 30.2044 28.6498C30.2044 33.3504 26.4238 37.0999 21.7509 37.0999" fill="#DA140A"/>
<path d="M22.4944 28.6501C22.4944 28.25 22.1756 27.9003 21.751 27.9003C21.3475 27.9003 21.0077 28.2502 21.0077 28.6501C21.0077 29.1006 21.3475 29.4 21.751 29.4C22.1756 29.4 22.4944 29.1005 22.4944 28.6501Z" fill="#8D6E26"/>
<path d="M22.7071 34.7503C24.2149 34.5006 25.5745 33.7003 26.5304 32.5503L23.4718 30.75C23.2379 30.9499 22.9832 31.1002 22.7073 31.2002V34.7503" fill="#D40026"/>
<path d="M16.9722 32.5503L20.0304 30.75C20.2642 30.9499 20.5189 31.1002 20.7953 31.2002V34.7503C19.2871 34.5006 17.928 33.7003 16.9722 32.5503Z" fill="#FE000C"/>
<path d="M27.9105 28.65C27.9105 28.6004 27.9105 28.5004 27.8895 28.45C27.6768 28.45 27.443 28.5004 27.231 28.5507C26.2967 28.7506 25.4044 28.9999 24.5973 29.1999L27.4858 30.9004C27.7618 30.2001 27.9105 29.4501 27.9105 28.65Z" fill="#D40026"/>
<path d="M15.8041 25.8503C14.9545 27.7002 14.9969 29.7504 15.8251 31.4999L19.5635 29.3005C19.4361 28.9004 19.4361 28.45 19.5635 28.0003" fill="white"/>
<path d="M16.0378 30.9002L19.0751 29.1004C19.0324 28.8002 19.0324 28.5002 19.0751 28.2001L16.0166 26.4502C15.4643 27.9001 15.4643 29.4501 16.0378 30.9002Z" fill="#8D6E26"/>
<path d="M24.8093 14.9002C24.8093 15.1002 24.7673 15.6499 24.7461 15.8001H27.1888C27.04 15.1502 26.9761 14.2501 26.9549 13.5501C26.9549 13.6002 26.9124 12.1501 26.9124 12.1501C26.9124 12.0501 26.9549 11.9002 27.0183 11.8501C27.1032 11.7502 27.1887 11.7502 27.2948 11.7502C27.4008 11.7004 27.5918 11.7004 27.6136 12.1003L27.6768 13.6003C27.6983 14.3001 27.6983 15.2504 27.6136 15.8003H29.9707C29.9497 15.6005 29.8858 15.1006 29.8648 14.9504C30.1622 15.6003 30.7991 15.9502 31.6489 15.9502C32.1587 15.9502 32.5412 15.7503 32.8381 15.5501C32.8381 15.6003 32.9658 15.8001 32.9658 15.8001H37.3411C37.1499 15.1502 37.0225 14.2501 36.9586 13.5501L36.3428 8.65009L34.0911 8.25003C34.2826 8.90013 34.4097 9.8501 34.4946 10.5002L34.8344 13.6502C34.8983 14.2002 34.9409 14.8002 34.9409 15.4503V15.5001L34.856 15.3004C34.686 14.9002 34.6011 14.3999 34.5374 13.6502L34.4524 12.65C34.3248 11.0499 33.4542 10.3502 31.5423 10.3502C31.2235 10.3502 30.4169 10.4002 29.9283 10.5502L30.0554 12.35L30.5652 12.0497C30.9903 11.8001 31.3091 11.7 31.6909 11.7C31.9885 11.7 32.1795 11.8 32.2646 11.9999C31.9036 12.0497 31.5001 12.1498 31.0537 12.35C30.374 12.65 29.9495 13.0999 29.7583 13.6C29.7583 13.6 29.7583 13.6 29.7583 13.55L29.6946 11.8999C29.6519 10.8499 28.9723 10.15 27.9315 10.15C27.4646 10.15 27.0397 10.3 26.6573 10.5502C26.6361 10.5002 26.6146 10.4502 26.5934 10.4002L26.5085 10.2002L24.5544 10.1001C24.6393 10.4504 24.7671 11.4502 24.7881 11.8004C24.6822 11.3003 24.4061 10.7501 23.896 10.3502C23.4923 10.1001 22.9826 9.95011 22.452 9.95011C21.7298 9.95011 20.9865 10.2502 20.4979 10.7499C19.9881 11.25 19.7334 11.9497 19.7117 12.75C19.5208 12.5502 19.2661 12.35 18.9688 12.2499L18.0767 11.8002H18.0341C17.8218 11.7002 17.8002 11.6502 17.8002 11.6002C17.8218 11.5002 18.0341 11.4002 18.3104 11.4002C18.6922 11.4002 19.2232 11.6002 19.6483 11.8501L19.6905 10.2502C19.3718 10.1001 18.9261 10.0001 18.2889 10.0001C17.9491 10.0001 17.3116 10.0503 16.7596 10.3503C16.611 10.4504 16.4832 10.5504 16.3561 10.6506L16.3773 10.2003C15.8675 10.1003 15.3153 10.1003 14.6357 10.7502C14.614 10.7002 14.572 10.4504 14.5298 10.3503L12.4269 10.4504C12.5755 11.0501 12.5969 11.9002 12.554 12.6502L12.5118 13.4503V13.5501C12.4906 13.9504 12.4691 14.4001 12.4269 14.8002C12.2569 14.2501 12.066 13.5001 11.9171 12.9004L10.8761 8.2002L7.90273 8.65009C7.92392 8.70027 7.96646 8.85029 7.98764 9.00014C8.00883 9.20017 8.00883 9.60006 7.73274 10.4504C7.24413 11.8004 6.56468 13.8504 5.90625 15.3006C5.82134 15.5003 5.651 15.8003 5.651 15.8003H7.96646C8.00883 15.4504 8.15763 14.8503 8.30627 14.4003C8.62489 14.4003 9.45314 14.4003 9.83532 14.3504C9.92023 14.7005 10.0053 15.1504 10.0268 15.4506L10.069 15.8005H14.6998C14.5932 15.0507 14.6359 14.0507 14.6781 13.5005C14.7208 12.8506 14.8481 12.4005 15.1243 12.1505C15.3365 11.9006 15.5702 11.8504 15.7402 11.8504C15.719 12.7505 16.2926 13.1504 16.8022 13.4005L17.7153 13.8507C18.0341 14.0507 18.0341 14.1006 18.0341 14.2008C18.013 14.3506 17.7581 14.4004 17.5243 14.4004C17.0359 14.4004 16.3775 14.1006 15.6551 13.3005L15.6128 15.4008C16.1863 15.7006 16.9081 15.8507 17.5454 15.8507C18.6073 15.8507 19.7334 15.3508 20.0305 14.4004C20.5618 15.4008 21.6026 15.8507 22.622 15.8507C23.5353 15.8501 24.2148 15.5499 24.8093 14.9002ZM8.85843 12.85C8.98606 12.5 9.09215 12.2001 9.2835 11.6502C9.41078 12.2001 9.47467 12.5502 9.5384 12.8002C9.2835 12.85 9.15605 12.85 8.85843 12.85ZM21.8575 12.3C21.8575 11.6002 22.1124 11.3001 22.3673 11.3001C22.4522 11.3001 22.6432 11.25 22.7281 11.6002C22.7708 11.75 22.792 11.8499 22.792 11.9001C22.792 12.1001 22.6859 12.1499 22.5581 12.1499V12.2001C22.5581 12.2001 22.1973 12.3 21.8575 12.45C21.8575 12.4001 21.8575 12.35 21.8575 12.3ZM24.2787 13.7502C23.8328 14.1504 23.5141 14.3999 22.9828 14.3999C22.5581 14.3501 22.3032 14.1001 22.1546 13.7502C22.6006 13.6002 24.3212 12.9502 24.8091 12.75C24.8091 13.1501 24.8308 13.6002 24.8308 13.6002C24.8308 13.9002 24.8308 14.2002 24.8308 14.4501L24.2787 13.7502ZM32.2009 14.4499C31.7977 14.4499 31.7124 14.1502 31.6911 13.9502C31.7123 13.7502 31.776 13.4501 32.4134 13.2501C32.4346 13.5 32.4561 13.7002 32.4561 13.7002V13.9C32.4771 14.0502 32.4771 14.2002 32.4983 14.3501C32.4136 14.3999 32.3075 14.3999 32.2009 14.4499Z" fill="#8D6E26"/>
<path d="M19.3298 10.5002C19.1171 10.4502 18.7985 10.3502 18.289 10.3502C17.8853 10.3502 17.3545 10.4502 16.951 10.6504C16.4836 10.9503 16.1437 11.3502 16.1226 11.8004C16.0798 12.5002 16.4412 12.8004 16.9722 13.0503C17.3335 13.2501 17.6731 13.4503 17.8853 13.5502C18.1618 13.7002 18.4167 13.8504 18.395 14.2003C18.3741 14.5501 18.0553 14.8002 17.5245 14.8002C17.0781 14.8002 16.4414 14.5 15.9949 14.1002L15.9738 15.1502C16.3563 15.3503 16.9722 15.4505 17.5455 15.4505C18.5226 15.4505 19.7335 15.0004 19.7547 13.9002C19.7757 13.0503 19.1812 12.7502 18.8202 12.5504C18.4589 12.4003 18.098 12.2003 17.928 12.1501C17.7581 12.0501 17.4182 11.9501 17.4396 11.5504C17.4818 11.2003 17.8853 11.0501 18.3107 11.0501C18.6716 11.0501 19.0324 11.1501 19.3088 11.3003" fill="white"/>
<path d="M10.6004 8.6499L8.34864 8.95012C8.39136 9.25017 8.30645 9.85008 8.07273 10.5502C7.6053 11.8999 6.84077 14.1502 6.24606 15.4502H7.64784C7.73275 15.0002 7.83901 14.6001 8.05137 14.0502L10.1328 14C10.2177 14.3999 10.3665 15.0502 10.3877 15.4502H12.2779C12.0442 14.9002 11.7471 13.7502 11.5557 12.9502L10.6004 8.6499ZM8.34864 13.1999L9.36841 10.2501L9.98413 13.1501" fill="white"/>
<path d="M15.9949 10.5002L15.9527 11.5002C15.6129 11.4502 15.1882 11.5502 14.8481 11.9001C14.551 12.2003 14.3596 12.65 14.3173 13.4503C14.2745 14.1002 14.2535 14.8503 14.2961 15.4504H12.7028C12.8089 14.8503 12.8516 14.1506 12.8728 13.5003L12.9155 12.7005C12.9577 12.0503 12.9577 11.4005 12.8518 10.8004L14.2535 10.7504C14.3173 10.9504 14.3595 11.3007 14.3384 11.6507C14.9545 10.7001 15.5492 10.5002 15.9949 10.5002Z" fill="white"/>
<path d="M36.0244 8.95013L34.5799 8.7001C34.7287 9.3502 34.7714 9.79992 34.8563 10.4502L35.1961 13.6001C35.26 14.2501 35.3232 14.8502 35.3021 15.4503H36.8738C36.7255 14.8502 36.6616 14.2501 36.5979 13.6001" fill="white"/>
<path d="M29.5461 15.4503C29.4612 14.8502 29.4189 14.2501 29.3973 13.6001L29.3339 11.9499C29.2914 11.0499 28.7816 10.5502 27.9318 10.5502C27.4649 10.5502 26.9126 10.6999 26.445 11.3001C26.4238 11.15 26.3601 10.7499 26.275 10.5502L25.0008 10.5002C25.1067 11.1001 25.1495 11.7002 25.1708 12.35L25.1918 13.6C25.213 14.2499 25.1918 14.85 25.1496 15.4501H26.7426C26.6577 14.85 26.615 14.2499 26.5938 13.6L26.5516 12.1999C26.5304 11.7 26.9126 11.3498 27.2949 11.3498C27.7406 11.3498 27.9534 11.65 27.9745 12.0997L28.0383 13.5998C28.0594 14.2497 28.0594 14.8498 28.0171 15.4499" fill="white"/>
<path d="M34.5163 15.4503C34.3248 14.9502 34.2189 14.3501 34.1762 13.7002L34.0913 12.7002C34.0064 11.5002 33.4967 10.6999 31.5425 10.6999C31.2028 10.6999 30.714 10.7499 30.3105 10.8499L30.3742 11.7501C30.7779 11.5002 31.1815 11.3002 31.6911 11.3002C32.2224 11.3002 32.6681 11.55 32.711 12.3C32.2009 12.35 31.7338 12.45 31.2026 12.7002C30.6079 12.9501 29.9922 13.4502 30.0556 14.2501C30.1193 15.1502 30.7989 15.55 31.6489 15.55C32.3073 15.55 32.7531 15.2501 33.008 14.9502C33.0507 15.1501 33.1144 15.3004 33.1779 15.4503H34.5163ZM32.2009 14.8002C31.734 14.8002 31.3513 14.5501 31.3303 14.0002C31.3303 13.4503 31.6701 13.0003 32.7531 12.8502L32.817 13.7004C32.838 14.0004 32.838 14.2004 32.8807 14.4501C32.7322 14.6502 32.4773 14.7502 32.2009 14.8002Z" fill="white"/>
<path d="M23.6841 10.6502C23.3228 10.4002 22.8981 10.3 22.4522 10.3C21.4112 10.3 20.0306 11.0498 20.0733 12.9501C20.0944 14.9 21.5812 15.5001 22.6222 15.5001C23.5355 15.5001 24.0877 15.15 24.5337 14.7002L24.2149 14.2501C23.9812 14.4499 23.5992 14.7502 22.983 14.7502C22.3246 14.7002 21.9 14.2501 21.6661 13.5502L24.5548 12.5002C24.4697 11.5502 24.1299 11.0001 23.6841 10.6502ZM22.6859 12.5002L21.539 12.9502C21.5175 12.7502 21.4963 12.5502 21.4963 12.3001C21.4963 11.1501 22.1337 10.9503 22.3457 10.9503C22.6861 10.9003 22.9832 11.1003 23.0896 11.5004C23.2167 11.9499 23.1743 12.35 22.6859 12.5002Z" fill="white"/>
</g>
<defs>
<clipPath id="clip0_1_2198">
<rect width="43.6" height="51.2" fill="white"/>
</clipPath>
</defs>
</svg>
