<svg width="28.5" height="39" viewBox="0 0 38 52" fill="none" xmlns="http://www.w3.org/2000/svg">
<g clip-path="url(#clip0_3_69)">
<path d="M2.62964 4.70236V37.7117C2.62964 42.3057 8.58492 43.9608 13.3723 45.2911L13.3955 45.2989C14.4164 45.585 15.3832 45.8557 16.2494 46.1341C16.2572 46.1341 17.2239 46.459 18.0747 47.0236C18.3454 47.2015 18.6161 47.418 18.8326 47.6114C19.0956 47.3793 19.3508 47.186 19.5906 47.0236C20.4104 46.4899 21.3153 46.1728 21.4158 46.1419C22.2821 45.8557 23.2488 45.585 24.2697 45.3066L24.2929 45.2989C29.0804 43.9686 35.0356 42.3135 35.0356 37.7194V4.70236C33.744 4.31565 27.6418 2.62961 18.8326 2.62961C10.0157 2.62961 3.92124 4.31565 2.62964 4.70236Z" fill="#94BEE5"/>
<path d="M18.8326 49.6609L18.0669 48.9416C17.773 48.6709 17.4946 48.4389 17.2548 48.2842C16.5819 47.8434 15.7853 47.5727 15.7776 47.5727C14.95 47.302 13.9987 47.0313 12.9856 46.7529H12.9701C10.4642 46.0568 7.62582 45.2679 5.36745 43.9995C4.06038 43.2648 3.08588 42.4527 2.38208 41.5091C1.54679 40.3954 1.12915 39.127 1.12915 37.7271V3.61958L1.89483 3.36435C2.16552 3.27154 8.66993 1.12919 18.8326 1.12919C28.9952 1.12919 35.4996 3.27154 35.7703 3.36435L36.536 3.61958V37.7117C36.536 39.1115 36.1106 40.3799 35.2831 41.4937C34.5793 42.4295 33.6048 43.2493 32.2977 43.9841C30.0316 45.2525 27.1932 46.0413 24.6873 46.7374H24.6718C23.6664 47.0158 22.7074 47.2788 21.8798 47.5572C21.8721 47.5572 21.0755 47.8357 20.4103 48.2688C20.1706 48.4312 19.8921 48.6555 19.5982 48.9262L18.8326 49.6609ZM1.87936 4.15324V37.7117C1.87936 38.9414 2.2506 40.0628 2.98534 41.0451C3.62727 41.8958 4.52443 42.6461 5.73869 43.3267C7.91971 44.5564 10.7117 45.3298 13.1712 46.0104H13.1867C14.2076 46.2966 15.1666 46.5595 16.0096 46.838C16.0483 46.8534 16.899 47.1396 17.657 47.6346C17.9354 47.8202 18.2525 48.0754 18.5696 48.377L18.8248 48.6168L19.0801 48.377C19.4049 48.0754 19.7143 47.8202 19.9927 47.6346C20.7584 47.1318 21.6323 46.838 21.6401 46.838C22.4908 46.5595 23.4498 46.2888 24.4707 46.0104H24.4862C26.9534 45.3298 29.7377 44.5486 31.9187 43.3267C33.133 42.6461 34.0301 41.8958 34.6721 41.0451C35.4068 40.0628 35.778 38.9414 35.778 37.7117V4.15324L35.5228 4.06816C35.2599 3.98309 28.8715 1.8794 18.8326 1.8794C8.79367 1.8794 2.40528 3.98309 2.13459 4.06816L1.87936 4.15324Z" fill="#F0F0F0"/>
<path d="M18.8326 48.6323L18.5774 48.3925C18.3531 48.1837 18.0128 47.8821 17.6647 47.65C16.8991 47.1473 16.0251 46.8534 16.0174 46.8534C15.1744 46.575 14.2153 46.312 13.2022 46.0259L13.179 46.0181C10.7195 45.3375 7.92748 44.5564 5.74646 43.3344C3.14006 41.8649 1.87939 40.0319 1.87939 37.7117V4.15324L2.13462 4.06816C2.19649 4.04496 8.7937 1.8794 18.8326 1.8794C24.0763 1.8794 28.3301 2.47493 30.9752 2.96992C33.8523 3.51131 35.461 4.04496 35.5306 4.06816L35.7858 4.15324V37.7117C35.7858 40.0319 34.5251 41.8649 31.9265 43.3267C29.7455 44.5564 26.9534 45.3298 24.494 46.0104L24.4708 46.0181C23.4576 46.2966 22.4986 46.5673 21.6478 46.8457C21.6169 46.8534 20.7507 47.155 20.0005 47.6423C19.722 47.8202 19.4127 48.0831 19.0878 48.3848L18.8326 48.6323ZM2.6296 4.70236V37.7117C2.6296 42.3057 8.58488 43.9608 13.3723 45.2911L13.3955 45.2989C14.4164 45.585 15.3832 45.8557 16.2494 46.1341C16.2571 46.1341 17.2239 46.459 18.0747 47.0236C18.3453 47.2015 18.616 47.418 18.8326 47.6114C19.0956 47.3793 19.3508 47.186 19.5905 47.0236C20.4104 46.4899 21.3153 46.1728 21.4158 46.1419C22.282 45.8557 23.2488 45.585 24.2697 45.3066L24.2929 45.2989C29.0803 43.9686 35.0356 42.3135 35.0356 37.7194V4.70236C33.744 4.31566 27.6418 2.62961 18.8326 2.62961C10.0157 2.62961 3.9212 4.31566 2.6296 4.70236Z" fill="#480024"/>
<path d="M6.96842 8.05124L7.96612 7.51759L8.95609 8.05124L8.76274 6.92979L9.56708 6.13318L8.46111 5.97076L7.96612 4.94985L7.4634 5.97076L6.35742 6.13318L7.16177 6.92979L6.96842 8.05124Z" fill="white"/>
<path d="M13.3645 16.3732C13.8131 16.3732 14.0915 16.1412 14.3313 15.8163C14.2462 15.8009 14.1689 15.7931 14.0915 15.7776C13.7435 16.234 13.264 16.3732 13.3645 16.3732Z" fill="#7DA3C9"/>
<path d="M15.244 20.8822C13.759 20.9441 11.9492 21.6015 11.2068 22.3362C10.5648 22.9781 11.0521 23.7747 10.4333 24.3857C10.3328 24.5868 10.3405 24.8653 10.3405 25.0509C10.6422 24.9426 10.7736 24.6874 10.7736 24.6874C10.7736 24.6874 10.8046 25.1205 11.2377 25.1669C11.3305 25.5536 11.578 25.8784 11.6553 25.8784C11.7095 25.8784 11.6012 25.3525 11.7636 25.0199C11.8719 24.9117 11.9415 24.8034 11.9956 24.6796C11.926 24.4863 11.9415 24.3007 11.9647 24.2311C11.9724 24.2156 11.9879 24.2079 11.9956 24.2233C12.0188 24.2465 12.0575 24.2697 12.1039 24.3007C12.1735 23.8521 12.1271 23.3803 12.537 22.9704C13.1558 22.3517 14.5402 21.7871 15.8472 21.586C15.6384 21.3385 15.4296 21.091 15.244 20.8822Z" fill="#7DA3C9"/>
<path d="M16.4118 12.0034C16.2107 12.0653 15.4218 12.6608 15.1202 12.9624C15.0042 13.0784 15.2207 13.3878 15.1743 13.4342C15.1743 13.4342 15.1666 13.4419 15.1511 13.4419C15.0738 13.4419 15.0042 13.4187 14.9346 13.3801C15.0042 13.6894 15.3135 14.022 15.561 14.2231C15.8859 13.9601 16.2107 13.7668 16.4737 13.5579C16.5433 13.4883 16.6283 13.4187 16.7289 13.3337C16.9145 13.1326 17.0383 12.9083 17.0383 12.5834C17.046 12.1735 16.8294 11.8719 16.4118 12.0034Z" fill="#7DA3C9"/>
<path d="M9.8146 25.7392C9.89194 25.7392 9.79913 25.337 9.96928 25.0818C10.0079 25.0896 10.0466 25.0973 10.0853 25.0973C10.1085 25.0973 10.1394 25.0973 10.1626 25.0896C10.0698 24.9581 9.96154 24.757 9.91514 24.5404C9.63671 24.5095 9.52843 24.3239 9.48203 24.1924C9.45883 24.3316 9.48203 24.5095 9.55164 24.6642C9.32735 25.1128 9.71405 25.7392 9.8146 25.7392Z" fill="#7DA3C9"/>
<path d="M14.517 11.841C14.9888 11.6399 15.1512 11.0598 15.1512 10.7118C15.1512 10.5416 15.0274 10.4488 14.7799 10.4488C14.6175 10.4488 14.1999 10.4643 13.8828 10.5416C13.7977 10.6576 13.7668 10.7969 13.7668 10.967C13.759 11.2686 14.1999 11.6399 14.517 11.841Z" fill="#7DA3C9"/>
<path d="M18.4459 27.6109C18.4459 26.3038 19.2425 25.8243 19.2425 24.9967C19.2425 24.8111 19.1188 24.4708 19.0492 24.3857C19.0414 24.3857 19.0492 24.3935 19.0492 24.3935C19.2889 25.1746 18.6702 25.4299 18.2216 26.6828C17.6647 26.8375 17.0692 27.317 17.0692 28.1677C17.0692 29.0649 17.7653 29.7146 18.3995 29.7146C18.5 29.7146 18.5774 29.6836 18.6238 29.6682C18.6315 29.6682 18.6315 29.6682 18.6392 29.6682C18.4846 29.4207 18.3918 29.1268 18.3918 28.7942C18.3918 28.5622 18.4382 28.3534 18.5155 28.1755C18.4691 28.0208 18.4459 27.8352 18.4459 27.6109Z" fill="#7DA3C9"/>
<path d="M12.3127 17.7963C12.537 18.1288 12.7149 18.4846 12.7923 18.8404C13.0088 18.678 13.1403 18.5697 13.1403 18.5697C12.8155 18.2448 12.5912 18.036 12.3127 17.7963Z" fill="#7DA3C9"/>
<path d="M20.6656 29.9621C20.8125 30.14 20.9208 30.3488 20.9208 30.6504C20.9208 31.0448 20.7739 31.2691 20.712 31.3465C20.7043 31.3619 20.712 31.3774 20.7275 31.3774C20.8667 31.4006 21.4081 31.4161 21.9263 30.5576C22.6146 30.9134 22.429 31.5089 22.3748 31.6481C22.3671 31.6636 22.3826 31.679 22.398 31.679C23.2952 31.6481 23.5814 30.4338 23.5814 30.4338C23.6046 30.4338 23.6355 30.4261 23.6587 30.4261C23.6664 30.3952 23.6664 30.3565 23.6664 30.3256C23.6664 29.993 23.04 29.7223 22.2511 29.8074C22.2511 29.8074 21.9649 31.0216 21.0678 31.0526C21.0523 31.0526 21.0446 31.0371 21.0446 31.0216C21.0987 30.8824 21.2766 30.3178 20.6656 29.9621Z" fill="#7DA3C9"/>
<path d="M19.3895 31.3155C19.3972 31.3001 19.3895 31.2846 19.374 31.2846C18.7089 31.2923 18.4304 30.9752 18.3763 30.7819C19.0646 31.0603 19.4745 30.9288 19.7066 30.7277C19.5596 30.7664 19.4513 30.7587 19.3972 30.7509C19.3817 30.7509 19.374 30.7277 19.3817 30.72C19.4204 30.6659 19.5055 30.5421 19.5596 30.3333C19.2116 30.2792 18.8713 30.0471 18.647 29.6991C18.647 29.6991 18.647 29.6991 18.647 29.7068C18.5774 29.9002 18.2294 30.6504 17.0383 30.1631C17.0924 30.3565 17.3709 30.6736 18.036 30.6659C18.0515 30.6659 18.0592 30.6813 18.0515 30.6968C17.8659 31.0758 17.541 31.1608 17.2781 31.1608C16.8759 31.1608 16.4814 30.9288 16.0406 30.9288C15.1744 30.9288 14.7645 32.0116 13.3491 32.0116C13.5425 31.8028 13.5347 31.3078 13.0088 31.3078C12.0653 31.3078 11.2686 32.4524 10.0234 32.4757C10.0157 32.4757 10.0002 32.4757 9.99251 32.4757C9.97704 32.4757 9.96931 32.4757 9.95384 32.4757C9.94611 32.5453 9.94611 32.6226 9.94611 32.6999C9.94611 33.0634 10.0621 33.5507 10.1317 33.5507C10.2013 33.5507 10.2477 32.9861 10.4875 32.7695C10.588 32.8701 10.7118 32.9474 10.851 33.0093C10.9825 33.0712 11.1372 33.1021 11.315 33.1021C11.3228 33.1021 11.3382 33.1021 11.346 33.1021C12.5989 33.0789 13.3955 31.9343 14.3314 31.9343C14.8573 31.9343 14.865 32.4292 14.6717 32.6381C16.0947 32.6381 16.4969 31.5553 17.3631 31.5553C17.804 31.5553 18.1984 31.7873 18.6006 31.7873C18.879 31.7796 19.2039 31.6945 19.3895 31.3155Z" fill="#7DA3C9"/>
<path d="M29.3123 28.7478C28.9256 29.0572 28.1986 28.9876 28.1986 28.9876C28.5389 28.7169 28.7864 27.9434 28.4384 27.2164C28.4306 27.201 28.4074 27.201 28.3997 27.2164C28.0981 27.928 27.5258 28.2141 26.9612 28.276C26.9302 28.3069 26.8993 28.3379 26.8684 28.3611C26.8684 28.3611 27.5876 28.4307 27.9821 28.1213C27.9975 28.1136 28.013 28.1213 28.013 28.1368C27.9743 29.2118 26.528 29.9311 26.528 29.9311C26.7059 30.109 27.1081 30.0781 27.2628 29.9775C27.2783 29.9698 27.2937 29.9775 27.2937 30.0007C27.2628 30.2173 27.0076 30.4106 26.791 30.6272C25.0044 32.4138 25.4066 33.5584 24.463 33.5584C24.4708 33.5198 24.5481 33.1872 24.1769 33.1872C23.5968 33.1872 23.125 34.2854 22.4367 34.9738C21.9649 35.4456 21.3849 35.7472 20.7275 35.7472C20.5032 35.7472 20.2711 35.6466 20.0933 35.5306C20.0623 35.5538 20.0391 35.577 20.0082 35.6002C20.1861 35.9019 20.5341 35.9792 20.7584 35.9792C20.7275 36.2654 20.7352 36.7526 20.8048 36.8222C20.8589 36.8764 21.0832 36.4123 21.4235 36.1648C21.6014 36.2731 21.8257 36.3814 22.0577 36.3814C22.7074 36.3814 23.2952 36.072 23.767 35.608C24.4553 34.9196 24.9271 33.8214 25.5071 33.8214C25.8706 33.8214 25.801 34.154 25.7933 34.1926C26.7291 34.1926 26.3347 33.048 28.1213 31.2614C28.3378 31.0448 28.5931 30.8515 28.624 30.6349C28.624 30.6195 28.6085 30.604 28.5931 30.6117C28.4384 30.7123 28.0362 30.7432 27.8583 30.5653C27.8583 30.5653 29.3046 29.846 29.3433 28.771C29.3433 28.7478 29.3278 28.7401 29.3123 28.7478Z" fill="#7DA3C9"/>
<path d="M7.54077 16.3964C7.59491 16.6516 7.80373 17.1389 8.26005 17.1389C8.46887 17.1389 8.61582 17.0847 8.70863 17.0074C8.75503 17.0151 8.80917 17.0228 8.87104 17.0228C9.4743 17.0228 9.61352 16.2958 10.3637 16.2958H10.3715C9.90741 15.9091 9.38923 15.6694 9.03346 15.6694C8.28325 15.6694 8.14403 16.3964 7.54077 16.3964Z" fill="#7DA3C9"/>
<path d="M8.4147 11.346C8.4147 12.7845 9.14171 13.4187 9.19585 13.4729C9.21905 13.4961 9.23452 13.527 9.24225 13.5657C9.64443 13.6198 9.99246 13.7204 10.3018 13.8441C10.0698 13.5347 9.74497 12.9315 9.74497 11.9724C9.74497 11.6863 9.55162 11.462 9.24999 11.462C9.15718 11.2609 8.90969 10.851 8.3915 10.851C8.28322 10.851 8.19815 10.8587 8.12854 10.8819C8.30642 10.9593 8.4147 11.1372 8.4147 11.346Z" fill="#7DA3C9"/>
<path d="M32.7463 13.8441C32.5607 13.8441 32.4601 13.8751 32.4601 13.8751C32.4601 13.8751 33.7053 12.6531 33.7053 10.7505C33.7053 9.88423 33.4965 9.55167 33.4655 9.55167C33.4037 9.55167 33.3959 10.0699 33.0015 10.4643C32.8081 10.6576 32.5452 10.735 32.3209 10.8355C32.0734 12.3282 31.1376 13.2486 31.1376 13.2486C31.1376 13.2486 31.2381 13.2176 31.4237 13.2176C31.8336 13.2176 32.1275 13.5038 32.0657 13.5657C32.0115 13.6198 31.4547 13.5425 30.9288 14.0607C30.9288 14.0607 30.2481 14.8882 29.119 14.8882C27.9898 14.8882 26.9998 14.3391 26.9998 14.3391C26.559 14.7335 26.2341 15.3445 26.2341 15.9246C26.2341 16.4969 26.4043 17.0306 26.7601 17.5874C27.1004 18.1134 27.5644 18.6006 28.0207 19.0724C28.9333 20.0237 29.8846 21.0137 29.8846 22.4058C29.8846 23.0787 29.6604 23.7129 29.2504 24.1847C29.0262 24.4476 28.7477 24.6564 28.4306 24.8034C28.0981 24.9581 27.7191 25.0354 27.3169 25.0354C26.7137 25.0354 26.2032 24.9117 25.7469 24.7415C25.8552 24.7957 25.9712 24.8498 26.0872 24.9117C26.7833 25.2674 27.5721 25.6696 28.6549 25.6696C29.0571 25.6696 29.4283 25.5923 29.7686 25.4376C30.0857 25.2906 30.3564 25.0818 30.5885 24.8189C30.9984 24.3393 31.2226 23.7051 31.2226 23.04C31.2226 21.6479 30.2791 20.6656 29.3587 19.7066C28.9024 19.2348 28.4384 18.7476 28.0981 18.2216C27.7346 17.657 27.5721 17.1311 27.5721 16.5588C27.5721 15.9787 27.897 15.3677 28.3378 14.9733C28.3378 14.9733 29.3201 15.5224 30.457 15.5224C31.5862 15.5224 32.2668 14.6949 32.2668 14.6949C32.7849 14.1767 33.3418 14.254 33.4037 14.1999C33.4501 14.1303 33.1562 13.8441 32.7463 13.8441Z" fill="#7DA3C9"/>
<path d="M21.671 5.29789C21.6788 5.29015 21.6788 5.27469 21.6633 5.26695C21.5164 5.21281 21.1993 5.08907 20.4723 5.08907C20.2866 5.08907 20.1087 5.11227 19.9386 5.15867C20.6347 5.05039 21.1993 5.12 21.671 5.29789Z" fill="#7DA3C9"/>
<path d="M25.4685 27.6573C25.2442 27.3711 25.105 26.9999 25.105 26.59C25.105 25.7547 25.3757 25.3835 25.484 24.641C25.221 24.5327 24.9812 24.4089 24.7492 24.2929C24.5404 24.1847 24.347 24.0841 24.1537 24.0068C24.0454 24.757 23.7747 25.1282 23.7747 25.9712C23.7747 26.9535 24.5327 27.665 25.4221 27.665C25.4453 27.6573 25.4608 27.6573 25.4685 27.6573Z" fill="#7DA3C9"/>
<path d="M24.9348 7.83469C24.9503 7.83469 24.958 7.85015 24.9503 7.86562C24.8343 8.07444 24.5172 8.29873 24.2542 8.29873C24.1305 8.29873 24.0531 8.28327 24.0531 8.28327C24.8111 8.95614 24.7028 10.7891 25.5071 10.851C25.5226 10.851 25.5303 10.8742 25.5226 10.8897C25.4066 10.9902 25.221 11.0676 24.9039 11.0676C24.6177 11.0676 24.378 10.9206 24.378 10.9206C24.378 10.9206 24.5481 11.1836 24.5481 11.5471C24.5481 11.9106 24.4012 12.0034 24.4012 12.5216C24.4012 12.9702 24.8343 13.2641 24.9426 13.3337C24.958 13.3414 24.958 13.3569 24.9426 13.3646C24.8807 13.411 24.7724 13.4419 24.5791 13.4419C24.3548 13.4419 23.9062 13.2873 23.651 13.032C23.7128 13.0939 24.0222 13.4265 24.0222 13.9911C24.0222 14.5557 23.8134 14.9888 23.8134 15.5534C23.8134 16.0483 24.1459 16.319 24.231 16.3809C24.2387 16.3886 24.2387 16.4041 24.231 16.4118C24.1846 16.4505 24.0918 16.5047 23.9371 16.5047C23.767 16.5047 23.2488 16.3964 22.9471 16.1025C23.1018 16.7599 22.6842 17.2781 22.6842 18.2139C22.6842 19.9309 24.0067 21.0369 24.1923 22.8776C24.5481 23.0168 24.8807 23.1947 25.2133 23.3648C25.3138 23.419 25.4143 23.4654 25.5149 23.5118C25.3061 21.7097 24.0145 20.5341 24.0145 18.8404C24.0145 17.9045 24.4321 17.3863 24.2774 16.7289C24.5791 17.0306 25.0972 17.1311 25.2674 17.1311C25.3138 17.1311 25.3525 17.1234 25.3911 17.1157C25.3447 16.9764 25.3061 16.8372 25.2751 16.698C25.1978 16.5665 25.1359 16.3964 25.1359 16.1798C25.1359 15.9014 25.19 15.6539 25.2365 15.4141C25.2519 15.3445 25.2674 15.2672 25.2829 15.1976C25.3215 15.012 25.3447 14.8263 25.3447 14.6175C25.3447 14.0529 25.0354 13.7204 24.9735 13.6585C25.2055 13.8905 25.6077 14.0375 25.8397 14.0607C25.9093 13.9756 25.9867 13.8905 26.064 13.8054C25.9016 13.6662 25.716 13.4342 25.716 13.1403C25.716 12.6221 25.8629 12.5293 25.8629 12.1658C25.8629 11.8023 25.6928 11.5393 25.6928 11.5393C25.6928 11.5393 25.9325 11.6863 26.2187 11.6863C26.5358 11.6863 26.7214 11.6089 26.8374 11.5084C26.8529 11.4929 26.8452 11.4775 26.8219 11.4697C26.0176 11.4079 26.1259 9.57487 25.3679 8.902C25.3679 8.902 25.4453 8.91747 25.569 8.91747C25.832 8.91747 26.1491 8.69318 26.2651 8.48435C26.2728 8.46889 26.2651 8.45342 26.2496 8.45342C25.0431 8.39154 24.5172 6.17185 22.514 5.7774C23.5349 6.58176 24.0531 7.79602 24.9348 7.83469Z" fill="#7DA3C9"/>
<path d="M6.96073 41.1688C6.64363 40.9909 6.38841 40.8363 6.38841 40.8363C6.46575 40.8363 6.58176 40.8285 6.6591 40.7048C6.72098 40.5965 6.76738 40.3954 6.82925 40.1557C6.84472 40.1015 6.86019 40.0396 6.87566 39.9855C6.59723 39.8153 6.32653 39.6375 6.04811 39.4518C6.0017 39.4905 5.9553 39.5215 5.90889 39.5601C5.71554 39.7148 5.54539 39.8385 5.47578 39.9391C5.39071 40.0628 5.42938 40.1711 5.46805 40.2407C5.46805 40.2407 5.28243 40.1015 5.004 39.9082C4.71784 39.7071 4.55542 39.5911 4.55542 39.5911C4.79518 39.5911 5.01173 39.4441 5.49898 39.1038C5.9785 38.7635 6.45028 38.4077 6.91433 38.052C6.953 38.021 6.99167 37.9901 7.02261 37.9437C7.05354 37.8973 7.04581 37.8663 7.04581 37.8586C7.40931 38.1061 7.77282 38.3381 8.14405 38.5624C8.14405 38.5624 8.10538 38.5702 8.07445 38.6243C8.05125 38.6707 8.02804 38.7171 8.02031 38.7635C7.87336 39.3281 7.74188 39.8927 7.61813 40.465C7.49439 41.0451 7.45572 41.3003 7.54853 41.5091C7.53306 41.5014 7.30877 41.3699 6.96073 41.1688ZM7.2701 38.6011C7.32424 38.4309 7.35517 38.3381 7.37064 38.3149C7.35517 38.3304 7.30103 38.3923 7.15409 38.5237C6.89886 38.748 6.64363 38.9646 6.38067 39.1889C6.58176 39.3281 6.79058 39.4596 6.99167 39.5833C7.07675 39.2508 7.16955 38.9259 7.2701 38.6011Z" fill="#480024"/>
<path d="M8.51532 42.0273C7.943 41.7489 7.72644 41.4859 7.72644 41.4937C7.72644 41.4937 7.78058 41.4163 7.88112 41.223C7.99713 41.0064 8.05901 40.8749 8.05901 40.8749C8.11315 41.1302 8.22916 41.4163 8.65454 41.6251C8.94843 41.7644 9.21139 41.8185 9.31967 41.5865C9.40475 41.4009 9.29647 41.2771 9.13405 41.0838C9.04124 40.9755 8.95617 40.8595 8.87109 40.7512C8.6236 40.4341 8.46892 40.1092 8.66227 39.7457C8.9175 39.2662 9.38928 39.2198 10.0389 39.5292C10.503 39.7457 10.7118 39.9546 10.7118 39.9546C10.7118 39.9546 10.6654 40.0396 10.5803 40.2485C10.4875 40.465 10.4489 40.5888 10.4489 40.5888C10.3715 40.3026 10.2323 40.0706 9.92293 39.9236C9.65997 39.7999 9.46662 39.7844 9.37381 39.97C9.28873 40.1402 9.39701 40.2639 9.5749 40.4805C9.65224 40.5733 9.72958 40.6661 9.80692 40.7589C10.0931 41.0915 10.2555 41.3854 10.0931 41.7953C9.81465 42.4063 9.19592 42.3599 8.51532 42.0273Z" fill="#480024"/>
<path d="M13.1558 41.3467C13.1558 41.339 13.1403 41.2926 13.0397 41.1998C12.9547 41.1147 12.8077 41.0296 12.6066 40.9677C12.5293 40.9445 12.4597 40.9213 12.3823 40.8981C12.2741 41.2307 12.1658 41.5633 12.0652 41.9036C11.7095 43.0173 11.7249 43.0405 11.7713 43.2261C11.7791 43.2493 11.7868 43.2802 11.7945 43.3034C11.7945 43.3034 11.6321 43.2493 11.2377 43.1101C10.8432 42.9786 10.6731 42.9167 10.6731 42.9167C10.6963 42.9013 10.7195 42.8858 10.735 42.8703C10.8819 42.7621 10.9129 42.7389 11.315 41.6097C11.431 41.2926 11.5393 40.9755 11.6553 40.6584C11.578 40.6352 11.5084 40.6042 11.431 40.581C11.2377 40.5114 11.0675 40.4882 10.9438 40.5037C10.8123 40.5192 10.7659 40.5424 10.7582 40.5501C10.7582 40.5501 10.8123 40.4418 10.8897 40.2485C10.967 40.0628 10.9902 39.9855 10.9902 39.9855C11.7481 40.2949 12.5216 40.5501 13.3027 40.7667C13.3027 40.7667 13.2718 40.8517 13.2254 41.0373C13.179 41.2307 13.1635 41.339 13.1558 41.3467Z" fill="#480024"/>
<path d="M14.2695 43.9686C13.2022 43.752 12.8078 43.0869 13.0475 42.2129C13.2563 41.4627 13.8209 40.8672 14.8264 41.0683C15.7545 41.2462 16.1644 41.8108 16.0561 42.7156C15.971 43.4891 15.4451 44.1929 14.2695 43.9686ZM14.7568 41.4782C14.3314 41.3931 14.0607 41.6638 13.8983 42.3908C13.7359 43.1101 13.8751 43.4659 14.3391 43.5587C14.8109 43.6515 15.0816 43.3576 15.2053 42.6306C15.3214 41.9036 15.1821 41.5633 14.7568 41.4782Z" fill="#480024"/>
<path d="M19.3431 41.5633C19.2657 41.7025 19.2425 41.7489 19.258 42.9477C19.2657 43.4195 19.2735 43.8912 19.2812 44.363C19.2812 44.363 19.1497 44.3553 18.8481 44.3553C18.5233 44.3553 18.2758 44.3553 18.2758 44.3553C17.92 43.7056 17.6029 43.0482 17.309 42.3908C17.2471 42.2439 17.2085 42.0892 17.2085 42.0737C17.1853 42.3444 17.1698 42.6151 17.1466 42.8858C17.0538 44.0537 17.077 44.0691 17.1621 44.2393C17.1775 44.2625 17.1853 44.2857 17.2007 44.3089C17.2007 44.3089 17.0538 44.2934 16.7367 44.2625C16.3964 44.2316 16.2649 44.2238 16.2649 44.2238C16.2804 44.2006 16.2958 44.1851 16.319 44.1619C16.4196 44.0305 16.4582 43.9918 16.582 42.793C16.698 41.6329 16.6825 41.6097 16.6129 41.4473C16.6052 41.4241 16.5897 41.4009 16.582 41.3777C16.582 41.3777 16.7367 41.4086 17.1234 41.4395C17.4482 41.4627 17.6106 41.4627 17.6106 41.4627C17.8968 42.1201 18.2139 42.7698 18.5542 43.4117C18.6393 43.5664 18.6702 43.6979 18.6779 43.7211C18.6779 43.4504 18.6857 43.1797 18.6857 42.909C18.6934 41.7412 18.6779 41.7257 18.5929 41.5633C18.5774 41.5401 18.5697 41.5169 18.5542 41.4937C18.5542 41.4937 18.6779 41.5014 18.9641 41.5014C19.258 41.5014 19.3817 41.4859 19.3817 41.4859C19.3663 41.5169 19.3508 41.5401 19.3431 41.5633Z" fill="#480024"/>
<path d="M23.1947 42.0196C23.1173 42.6847 23.0245 43.3576 22.9085 44.0227C22.9085 44.0227 22.6997 44.0537 22.3284 44.1078C21.9727 44.1619 21.7329 44.1929 21.7329 44.1929C21.439 43.5819 21.1606 42.9709 20.8976 42.3521C20.6733 41.8108 20.5728 41.571 20.4026 41.4395C20.4026 41.4395 20.5573 41.4395 20.9672 41.4008C21.3926 41.3544 21.555 41.3235 21.555 41.3235C21.5086 41.3699 21.4313 41.4473 21.4545 41.5942C21.47 41.7334 21.5705 41.9577 21.6942 42.2361C21.8876 42.6692 22.0887 43.1101 22.2898 43.5432C22.3362 43.6437 22.3749 43.7598 22.3826 43.7752C22.3826 43.7598 22.3903 43.6437 22.4058 43.5277C22.4754 43.056 22.5373 42.5764 22.5991 42.1047C22.6301 41.7953 22.661 41.5555 22.6301 41.4163C22.6069 41.2694 22.5141 41.2152 22.4522 41.192C22.4522 41.192 22.6146 41.1766 22.9626 41.107C23.2875 41.0451 23.419 40.9987 23.419 40.9987C23.2952 41.1766 23.2643 41.4318 23.1947 42.0196Z" fill="#480024"/>
<path d="M24.7492 43.6206C24.3471 43.7211 24.1769 43.7675 24.1769 43.7675C24.1847 43.7443 24.1924 43.7134 24.2079 43.6902C24.2697 43.52 24.2852 43.4891 24.0068 42.3135C23.7361 41.1766 23.7206 41.1611 23.5969 41.0296C23.5814 41.0141 23.5582 40.9909 23.5427 40.9755C23.5427 40.9755 23.6897 40.9523 24.0454 40.8595C24.4244 40.7589 24.5482 40.7125 24.5482 40.7203C24.5404 40.7435 24.5327 40.7744 24.5327 40.7976C24.494 40.9677 24.4786 40.9987 24.7957 42.1588C25.105 43.288 25.1282 43.2957 25.2674 43.4272C25.2906 43.4427 25.3061 43.4659 25.3293 43.4813C25.3216 43.4736 25.1514 43.52 24.7492 43.6206Z" fill="#480024"/>
<path d="M27.7501 42.4836C27.7655 42.53 27.781 42.5842 27.7965 42.6306C27.2473 42.8549 26.6827 43.056 26.1259 43.2338C25.8784 43.3112 25.7701 43.3499 25.7701 43.3499C25.7779 43.3267 25.7856 43.2957 25.7933 43.2725C25.8397 43.1024 25.8552 43.0637 25.4994 41.9113C25.1514 40.7976 25.1282 40.7821 24.9967 40.6584C24.9812 40.6429 24.958 40.6197 24.9426 40.6042C24.9426 40.6042 25.0818 40.5733 25.4608 40.4496C25.832 40.3258 25.948 40.2717 25.948 40.2717C25.9403 40.3026 25.9403 40.3258 25.9325 40.3567C25.8939 40.5346 25.9016 40.612 26.2032 41.4782C26.3424 41.8649 26.4739 42.2593 26.6131 42.646C26.7137 42.6074 26.8142 42.5764 26.9148 42.5378C27.4716 42.3289 27.5026 42.1897 27.5876 41.919C27.5799 41.919 27.6186 42.0737 27.7501 42.4836Z" fill="#480024"/>
<path d="M30.0471 41.4008C30.0703 41.4473 30.0857 41.4937 30.1089 41.5401C29.5753 41.8262 29.0416 42.0892 28.4925 42.3289C28.2528 42.4372 28.1445 42.4836 28.1445 42.4836C28.1522 42.4604 28.1522 42.4295 28.1599 42.4063C28.1909 42.2284 28.1986 42.1897 27.7268 41.0838C27.2628 40.0087 27.2396 40.001 27.0926 39.8927C27.0694 39.8772 27.054 39.8618 27.0308 39.8463C27.0308 39.8463 27.17 39.7999 27.5335 39.6375C27.8892 39.475 28.0053 39.4054 28.0053 39.4054C28.0053 39.4364 27.9975 39.4596 27.9975 39.4905C27.9743 39.6684 27.9898 39.7535 28.3842 40.5733C28.5621 40.9445 28.74 41.3235 28.9179 41.6947C29.0184 41.6483 29.1112 41.6019 29.2118 41.5555C29.7532 41.2848 29.7686 41.1379 29.8228 40.8672C29.815 40.8595 29.8692 41.0141 30.0471 41.4008Z" fill="#480024"/>
<path d="M32.6226 39.9778C32.3209 40.1943 32.0735 40.3645 32.0735 40.3645C32.1044 40.2949 32.1508 40.1866 32.0657 40.0628C31.9961 39.9623 31.8337 39.8308 31.6403 39.6761C31.5939 39.6375 31.5475 39.5988 31.5011 39.5679C31.2304 39.7457 30.952 39.9236 30.6736 40.0938C30.689 40.1479 30.7045 40.2098 30.7123 40.2639C30.7741 40.5037 30.8128 40.7125 30.8747 40.8131C30.952 40.9445 31.068 40.9523 31.1376 40.9523C31.1376 40.9523 30.9365 41.0683 30.6504 41.2307C30.3487 41.4009 30.1863 41.5014 30.1863 41.5014C30.2791 41.2848 30.2405 41.0219 30.1322 40.4418C30.0239 39.8618 29.9002 39.2894 29.761 38.7171C29.7455 38.6707 29.7378 38.6243 29.7068 38.5779C29.6836 38.5315 29.6449 38.5238 29.6372 38.5238C30.0084 38.2995 30.372 38.0674 30.7355 37.8199C30.7355 37.8199 30.7277 37.8586 30.7587 37.905C30.7896 37.9514 30.8205 37.9824 30.8592 38.0133C31.3078 38.3845 31.7718 38.7403 32.2359 39.0883C32.7077 39.4364 32.9242 39.5833 33.164 39.5833C33.1717 39.5911 32.9551 39.7457 32.6226 39.9778ZM30.4106 38.632C30.2791 38.516 30.2095 38.4464 30.1941 38.4232C30.2018 38.4464 30.2327 38.5238 30.2869 38.7094C30.3797 39.0342 30.4725 39.359 30.5653 39.6916C30.7741 39.5679 30.9752 39.4364 31.1763 39.3049C30.9211 39.0806 30.6658 38.8563 30.4106 38.632Z" fill="#480024"/>
<path d="M15.7003 38.5856V38.284C15.9942 38.284 16.1412 38.1757 16.1489 37.9592H16.466V39.7767H16.0793V38.5083C16.0174 38.5547 15.8859 38.5856 15.7003 38.5856Z" fill="white"/>
<path d="M17.4173 39.7457C17.309 39.7071 17.2162 39.6375 17.1543 39.5601C17.0925 39.475 17.0615 39.3745 17.0615 39.2585C17.0615 39.0574 17.1775 38.9027 17.4018 38.8022V38.7944C17.2317 38.7016 17.1466 38.5779 17.1466 38.4077C17.1466 38.3072 17.1775 38.2221 17.2317 38.1448C17.2858 38.0674 17.3632 38.0133 17.4637 37.9746C17.5642 37.936 17.6725 37.9205 17.7963 37.9205C17.92 37.9205 18.0283 37.936 18.1288 37.9746C18.2294 38.0133 18.3067 38.0674 18.3609 38.1448C18.415 38.2221 18.4459 38.3072 18.4459 38.4077C18.4459 38.5702 18.3609 38.7016 18.1907 38.7944V38.8022C18.415 38.9027 18.531 39.0574 18.531 39.2585C18.531 39.3745 18.5001 39.4828 18.4382 39.5601C18.3763 39.6452 18.2835 39.7071 18.1752 39.7457C18.067 39.7844 17.9432 39.8076 17.804 39.8076C17.6571 39.8076 17.5333 39.7921 17.4173 39.7457ZM17.5488 39.4364C17.6106 39.4905 17.688 39.5215 17.7963 39.5215C17.8968 39.5215 17.9819 39.4905 18.0438 39.4364C18.1056 39.3822 18.1366 39.3126 18.1366 39.2276C18.1366 39.1425 18.1056 39.0729 18.0438 39.0187C17.9819 38.9646 17.9045 38.9414 17.7963 38.9414C17.688 38.9414 17.6106 38.9646 17.5488 39.0187C17.4869 39.0729 17.456 39.1425 17.456 39.2276C17.456 39.3049 17.4869 39.3822 17.5488 39.4364ZM17.5797 38.6166C17.6261 38.663 17.7035 38.6784 17.7963 38.6784C17.8891 38.6784 17.9587 38.6552 18.0128 38.6166C18.0592 38.5702 18.0902 38.516 18.0902 38.4387C18.0902 38.3613 18.067 38.3072 18.0128 38.2608C17.9664 38.2144 17.8891 38.1989 17.7963 38.1989C17.7035 38.1989 17.6338 38.2221 17.5797 38.2608C17.5333 38.3072 17.5024 38.3613 17.5024 38.4387C17.5101 38.5083 17.5333 38.5702 17.5797 38.6166Z" fill="white"/>
<path d="M19.3276 39.1966C19.3817 39.0033 19.4591 38.8254 19.5519 38.663C19.6447 38.5005 19.7452 38.3768 19.8535 38.284V38.2763H18.9564V37.9592H20.2634V38.253C20.0623 38.4155 19.9154 38.632 19.8071 38.9105C19.6988 39.1889 19.6447 39.475 19.6447 39.7767H19.2348C19.2425 39.5833 19.2657 39.39 19.3276 39.1966Z" fill="white"/>
<path d="M21.3772 39.3745H20.5419V39.0033L21.3772 37.9592H21.7639V39.0651H22.0268V39.3822H21.7639V39.7767H21.3772V39.3745ZM21.3772 39.0574V38.3923L20.8435 39.0574H21.3772Z" fill="white"/>
<path d="M15.2981 8.30648C15.1125 8.4921 15.1357 8.72412 14.9733 8.88654C14.9036 8.95614 14.8108 9.00255 14.6871 9.00255C14.4473 9.00255 14.2849 8.80146 14.2849 8.60037C14.2849 8.39155 14.5247 8.20593 15.1743 8.20593C15.2517 8.20593 15.3445 8.20593 15.4296 8.21367C15.3832 8.22913 15.3368 8.26007 15.2981 8.30648Z" fill="#7496BD"/>
<path d="M31.416 13.2176C31.2304 13.2176 31.1299 13.2486 31.1299 13.2486C31.1299 13.2486 32.375 12.0266 32.375 10.124C32.375 9.25776 32.1662 8.9252 32.1353 8.9252C32.0734 8.9252 32.0657 9.44338 31.6712 9.83782C31.3851 10.124 30.9288 10.1549 30.6735 10.4102C30.921 9.88423 30.7431 9.18042 30.7045 9.18042C30.6735 9.18042 30.689 9.55166 30.2172 10.0234C29.9156 10.3251 29.2273 10.5416 28.6549 11.1062C28.8947 10.5494 28.6859 9.96931 28.6317 9.96931C28.5776 9.96931 28.6317 10.3019 28.3069 10.6267C28.0053 10.9283 27.4252 11.0753 26.9921 11.5161C26.3888 12.1194 26.4971 13.032 26.4971 13.3646C26.4971 13.3955 26.4971 13.4265 26.4971 13.4574C26.412 13.5193 26.327 13.5889 26.2419 13.6585C25.5613 14.254 25.1978 15.0429 25.1978 15.9323C25.1978 17.6338 26.296 18.7785 27.2705 19.7994C27.7036 20.248 28.1058 20.6734 28.3997 21.1142C28.7013 21.5705 28.8405 21.9882 28.8405 22.4213C28.8405 22.8389 28.7013 23.2488 28.4538 23.535C28.1754 23.8598 27.7964 24.0222 27.3092 24.0222C26.4739 24.0222 25.8629 23.7129 25.2132 23.3803C24.8807 23.2102 24.5481 23.0323 24.1923 22.8931C24.0067 21.0601 22.6842 19.9463 22.6842 18.2294C22.6842 17.2935 23.1018 16.7753 22.9471 16.1179C23.2488 16.4196 23.767 16.5201 23.9371 16.5201C24.0841 16.5201 24.1769 16.466 24.231 16.4273C24.2387 16.4196 24.2387 16.4041 24.231 16.3964C24.1459 16.3345 23.8134 16.0638 23.8134 15.5688C23.8134 15.0042 24.0222 14.5711 24.0222 14.0065C24.0222 13.4419 23.7128 13.1094 23.6509 13.0475C23.9062 13.3027 24.3548 13.4574 24.579 13.4574C24.7724 13.4574 24.8807 13.4265 24.9425 13.3801C24.9503 13.3723 24.9503 13.3569 24.9425 13.3491C24.8343 13.2795 24.4012 12.9856 24.4012 12.537C24.4012 12.0189 24.5481 11.926 24.5481 11.5625C24.5481 11.199 24.378 10.9361 24.378 10.9361C24.378 10.9361 24.6177 11.083 24.9039 11.083C25.221 11.083 25.4066 11.0057 25.5226 10.9051C25.5381 10.8897 25.5303 10.8742 25.5071 10.8665C24.7028 10.8046 24.8111 8.9716 24.0531 8.29873C24.0531 8.29873 24.1305 8.3142 24.2542 8.3142C24.5172 8.3142 24.8343 8.08991 24.9503 7.88109C24.958 7.86562 24.9503 7.85015 24.9348 7.85015C23.4808 7.77281 23.0167 4.55541 19.7375 5.20508C19.9076 4.96532 20.2247 4.76423 20.333 4.69462C20.3485 4.68689 20.3485 4.66369 20.333 4.65595C20.1861 4.60181 19.869 4.47807 19.142 4.47807C18.3917 4.47807 17.7034 4.88024 17.309 5.39069C17.4868 5.03492 17.2703 4.58634 17.0692 4.36205C17.0615 4.34659 17.0383 4.35432 17.0305 4.36979C17.0073 4.4626 16.93 4.65595 16.8062 4.7797C16.2185 5.36749 15.1589 5.74646 15.1589 6.97619C15.1589 6.97619 14.8108 7.20048 14.3468 7.51758C13.875 7.83468 13.6275 8.3374 13.6275 8.49982C13.4496 8.59263 12.7072 9.14175 12.1116 9.73728C12.0962 9.75275 12.0962 9.77595 12.1039 9.79142C12.1658 9.89196 12.2122 10.0157 12.2354 10.0853C12.2431 10.1163 12.2818 10.124 12.305 10.1008C12.3823 10.0234 12.5447 9.88423 12.6221 9.86103C12.4906 9.99251 12.4442 10.1549 12.4442 10.356C12.4442 10.8046 13.4342 11.4311 13.496 11.3692C13.5424 11.3228 13.38 10.8665 13.527 10.7195C13.7513 10.4952 14.5401 10.472 14.7799 10.472C15.0274 10.472 15.1511 10.5648 15.1511 10.735C15.1511 11.1526 14.9114 11.9338 14.1534 11.9338C13.8441 11.9338 13.6507 11.6399 13.5966 11.6863C13.5502 11.7327 13.5888 12.1735 13.6894 12.3205C13.6894 12.3205 13.6043 12.421 13.6043 12.6298C13.6043 13.1712 14.5015 13.8673 14.5943 13.7745C14.6562 13.7126 14.4087 13.1016 14.5633 13.1016C14.6484 13.1016 14.8882 13.4497 15.1666 13.4497C15.1821 13.4497 15.1821 13.4419 15.1898 13.4419C15.2362 13.3955 15.0119 13.0862 15.1357 12.9702C15.4373 12.6685 16.2262 12.073 16.4273 12.0111C16.8449 11.8796 17.0615 12.1813 17.0615 12.5912C17.0615 13.5038 16.0947 13.6894 15.3058 14.4706C14.5169 15.2595 14.3623 16.3809 13.3723 16.3809C13.2408 16.3809 14.107 16.1411 14.3545 15.2827C11.7636 15.3059 11.3228 13.8596 9.25 13.5811C9.24227 13.5502 9.2268 13.5193 9.2036 13.4883C9.14946 13.4342 8.42245 12.7923 8.42245 11.3615C8.42245 11.0753 8.2291 10.851 7.92747 10.851C7.83466 10.6499 7.58717 10.24 7.06898 10.24C6.574 10.24 6.45025 10.472 6.48119 10.4952C6.51212 10.5262 6.72094 10.4488 6.97617 10.704C7.12312 10.851 7.18499 11.0211 7.20819 11.1372C7.14632 11.2145 7.10765 11.2996 7.10765 11.4001C7.10765 11.4001 6.85242 11.3537 6.60493 11.5857C6.49665 11.5239 6.31877 11.4543 6.04807 11.4543C5.33653 11.4543 5.18959 12.0962 5.22052 12.1271C5.25146 12.1581 5.37521 12.0111 5.59176 12.0111C5.83925 12.0111 6.10221 12.2122 6.24143 12.3282C6.22596 12.4906 6.2569 12.6453 6.36517 12.7536C6.36517 12.7536 6.02487 12.8541 5.963 13.3337C5.94753 13.3337 5.93206 13.3414 5.91659 13.3491C4.97303 13.6121 5.15092 14.3468 5.18959 14.3468C5.22826 14.3468 5.27466 14.0297 5.70777 14.0297C5.85472 14.0297 5.97847 14.0452 6.07128 14.0684C6.24143 14.3932 6.54306 14.4706 6.75962 14.4706C6.95297 14.4706 7.13859 14.4242 7.301 14.4242C7.51756 14.4242 7.64904 14.5556 7.64904 14.8573C7.64904 15.2981 7.22366 15.1666 7.03031 15.36C6.89883 15.4915 6.88336 15.6075 6.88336 15.7854C6.88336 15.7931 6.88336 15.8008 6.88336 15.8086C6.82149 15.824 6.75961 15.8395 6.69774 15.8395C6.40385 15.8395 6.23369 15.5766 6.19502 15.6152C6.14088 15.6694 6.31877 16.5124 6.9143 16.5124C7.12312 16.5124 7.27007 16.4582 7.36288 16.3809C7.40928 16.3886 7.46342 16.3964 7.52529 16.3964C8.12856 16.3964 8.26777 15.6694 9.01798 15.6694C9.76046 15.6694 11.2067 16.7057 11.4156 17.9973C11.4156 18.0128 11.4388 18.0205 11.4465 18.0128C11.7713 17.7421 11.7559 17.3399 11.7559 17.3399C12.3669 17.8349 12.6221 18.0669 13.1325 18.5697C13.1325 18.5697 10.1549 20.859 10.0002 20.9518C9.86873 21.0291 9.79913 21.0678 9.63671 21.0678C9.21907 21.0678 9.08759 20.364 8.41472 20.364C8.28324 20.364 8.19043 20.4027 8.11309 20.4645C8.04348 20.4491 7.9584 20.4413 7.85013 20.4413C7.06125 20.4413 6.92203 21.5009 6.99164 21.5009C7.06898 21.5009 7.12312 21.2302 7.49436 21.2302C7.54076 21.2302 7.5949 21.2379 7.64131 21.2457C7.64131 21.4468 7.71865 21.6401 7.85013 21.7407C7.85013 21.7407 7.63357 21.818 7.50983 22.0732C6.574 22.1042 6.58946 23.2102 6.68227 23.2102C6.74415 23.2102 6.78282 22.7461 7.32421 22.7461C7.36288 22.7461 7.41702 22.7616 7.46342 22.7848C7.55623 23.1947 7.84239 23.419 8.17496 23.419C8.08988 23.5737 8.10535 23.8211 8.19816 24.0377C7.98161 24.494 8.36831 25.1128 8.46886 25.1128C8.5462 25.1128 8.45339 24.7106 8.62354 24.4553C8.66221 24.4631 8.70088 24.4708 8.73955 24.4708C9.2268 24.4708 9.43562 24.0609 9.43562 24.0609C9.43562 24.0609 9.46656 24.494 9.89967 24.5404C9.99248 24.9271 10.24 25.252 10.3173 25.252C10.3715 25.252 10.2632 24.726 10.4256 24.3935C11.0443 23.7747 10.5571 22.9781 11.199 22.3439C11.9337 21.6092 13.7435 20.9518 15.2362 20.8899C15.7776 21.4932 16.5201 22.4135 16.8604 22.6456C16.8604 22.6456 16.8449 22.661 16.8217 22.6842C15.9014 23.6046 14.1998 22.8002 13.3027 23.6974C12.9469 24.0532 12.9005 24.378 12.3978 24.378C12.2276 24.378 12.0652 24.2929 11.9956 24.2233C11.9879 24.2156 11.9647 24.2156 11.9647 24.2311C11.9337 24.3393 11.9105 24.6951 12.1812 24.9658C12.4906 25.2752 12.8773 25.221 12.9779 25.1669C12.7304 25.4995 12.189 25.484 11.8719 25.2984C11.8564 25.2906 11.8332 25.3061 11.8409 25.3216C12.0884 26.2806 13.0784 26.095 13.0784 26.095C13.2872 27.1236 14.3004 27.549 14.3004 28.2373C14.3004 28.4307 14.223 28.6473 14.0606 28.8097C13.6739 29.1964 12.8232 29.4516 11.8951 29.4516C10.4024 29.4516 10.3792 28.392 9.5671 28.392C9.45882 28.392 9.35828 28.4075 9.25774 28.4307C9.14173 28.2992 8.8865 28.1445 8.56167 28.1445C8.06668 28.1445 7.77279 28.7091 7.84239 28.7787C7.88106 28.8174 8.02801 28.6395 8.2523 28.6395C8.36058 28.6395 8.49979 28.7323 8.55393 28.887C8.51526 28.9334 8.47659 28.9876 8.44565 29.0494C8.36058 29.0262 8.26004 29.0108 8.12856 29.0108C7.19273 29.0108 7.20819 30.0935 7.30874 30.0935C7.36288 30.0935 7.48662 29.6914 7.94294 29.7455C7.85013 29.9157 7.80372 30.1013 7.80372 30.3101C7.80372 30.341 7.80372 30.372 7.80372 30.4029C7.58717 30.5266 7.42475 30.7587 7.42475 31.0294C7.42475 31.4238 7.50209 31.6172 7.55623 31.6172C7.62584 31.6172 7.68771 31.1608 8.02801 31.0139C8.18269 31.2227 8.40698 31.3851 8.66994 31.4547C8.63901 31.5862 8.60807 31.795 8.60807 32.0889C8.60807 32.4524 8.72408 32.9397 8.79369 32.9397C8.8633 32.9397 8.9097 32.3751 9.14946 32.1586C9.25 32.2591 9.37375 32.3364 9.51296 32.3983C9.64444 32.4602 9.79913 32.4911 9.97701 32.4911C9.98475 32.4911 10.0002 32.4911 10.0079 32.4911C11.2609 32.4679 12.0575 31.3233 12.9933 31.3233C13.5192 31.3233 13.527 31.8182 13.3336 32.0271C14.7567 32.0271 15.1589 30.9443 16.0251 30.9443C16.4659 30.9443 16.8604 31.1763 17.2626 31.1763C17.5255 31.1763 17.8504 31.0912 18.036 30.7123C18.0437 30.6968 18.036 30.6813 18.0205 30.6813C17.3554 30.6891 17.0769 30.372 17.0228 30.1786C18.2139 30.6581 18.5619 29.9157 18.6315 29.7223C18.6392 29.7068 18.6238 29.6914 18.6006 29.6991C18.5542 29.7223 18.4691 29.7455 18.3763 29.7455C17.7343 29.7455 17.046 29.0958 17.046 28.1987C17.046 27.3479 17.6338 26.8684 18.1984 26.7137C18.6392 25.4608 19.2657 25.2056 19.0259 24.4244V24.4167C19.0955 24.5018 19.2193 24.8421 19.2193 25.0277C19.2193 25.8552 18.4227 26.327 18.4227 27.6418C18.4227 29.119 19.5751 29.0649 19.5751 30.0549C19.5751 30.4493 19.4281 30.6736 19.3662 30.7509C19.3585 30.7664 19.3662 30.7819 19.3817 30.7819C19.5209 30.8051 20.0623 30.8205 20.5805 29.9621C21.2688 30.3178 21.0832 30.9134 21.0291 31.0526C21.0213 31.068 21.0368 31.0835 21.0523 31.0835C21.9494 31.0526 22.2356 29.8383 22.2356 29.8383C23.0245 29.7532 23.6509 30.0239 23.6509 30.3565C23.6509 31.215 22.05 32.816 20.8821 32.816C20.449 32.816 20.2943 32.3596 19.9154 32.3596C19.6369 32.3596 19.5055 32.4911 19.4204 32.6613C19.2657 32.5917 19.111 32.5607 18.9641 32.5607C18.5928 32.5607 18.268 32.7695 18.152 33.2259C17.6493 33.3883 17.5487 34.1694 17.5951 34.2236C17.6338 34.2622 17.8813 33.8523 18.2912 33.9451C18.3608 34.0612 18.4459 34.154 18.5155 34.2236C18.4304 34.27 18.3453 34.3241 18.2448 34.4247C17.7498 34.9196 17.8736 35.4688 17.92 35.5152C17.9741 35.5693 18.0592 35.3218 18.1984 35.1826C18.3067 35.0743 18.4613 34.9583 18.6702 34.9738C18.8403 35.2909 19.2038 35.376 19.4358 35.376C19.4049 35.6621 19.4126 36.1494 19.4823 36.219C19.5364 36.2731 19.7607 35.8091 20.101 35.5616C20.2789 35.6699 20.5032 35.7781 20.7352 35.7781C21.3848 35.7781 21.9726 35.4688 22.4444 35.0047C23.1328 34.3164 23.6045 33.2181 24.1846 33.2181C24.5481 33.2181 24.4785 33.5507 24.4708 33.5894C25.4066 33.5894 25.0122 32.4447 26.7987 30.6581C27.0153 30.4416 27.2705 30.2482 27.3015 30.0317C27.3015 30.0162 27.286 30.0007 27.2705 30.0085C27.1158 30.109 26.7137 30.1399 26.5358 29.9621C26.5358 29.9621 27.9821 29.2428 28.0207 28.1677C28.0207 28.1523 27.9975 28.1368 27.9898 28.1523C27.6031 28.4616 26.8761 28.392 26.8761 28.392C27.2164 28.1213 27.4639 27.3479 27.1158 26.6209C27.1081 26.6054 27.0849 26.6054 27.0772 26.6209C26.7446 27.4175 26.0563 27.6882 25.4375 27.6882C24.5481 27.6882 23.7902 26.9689 23.7902 25.9944C23.7902 25.1592 24.0609 24.7802 24.1691 24.03C24.3625 24.115 24.5558 24.2079 24.7647 24.3161C25.4607 24.6719 26.2496 25.0741 27.3324 25.0741C27.7346 25.0741 28.1058 24.9967 28.4461 24.8421C28.7632 24.6951 29.0339 24.4863 29.2659 24.2233C29.6758 23.7438 29.9001 23.1096 29.9001 22.4445C29.9001 21.0523 28.9566 20.0701 28.0362 19.1111C27.5799 18.6393 27.1158 18.152 26.7755 17.6261C26.412 17.0615 26.2496 16.5356 26.2496 15.9633C26.2496 15.3832 26.5744 14.7722 27.0153 14.3778C27.0153 14.3778 27.9975 14.9269 29.1344 14.9269C30.2636 14.9269 30.9442 14.0993 30.9442 14.0993C31.4624 13.5811 32.0193 13.6585 32.0811 13.6044C32.1198 13.5038 31.8259 13.2176 31.416 13.2176ZM15.2981 8.30647C15.1125 8.49208 15.1357 8.72411 14.9733 8.88653C14.9037 8.95613 14.8108 9.00254 14.6871 9.00254C14.4473 9.00254 14.2849 8.80145 14.2849 8.60036C14.2849 8.39154 14.5247 8.20592 15.1743 8.20592C15.2517 8.20592 15.3445 8.20592 15.4296 8.21365C15.3832 8.22912 15.3368 8.26006 15.2981 8.30647Z" fill="#FFE505"/>
<path d="M36.1261 2.28931C35.8477 2.1965 29.1731 0 18.8326 0C8.49207 0 1.81752 2.1965 1.53909 2.28931L0 2.80749V37.7117C0 39.359 0.494984 40.8595 1.47722 42.1665C2.27383 43.2338 3.36435 44.1465 4.81063 44.9586C7.19274 46.2966 10.1008 47.1086 12.6608 47.8202L12.6762 47.8279C13.6739 48.1063 14.6098 48.3616 15.4064 48.6245C15.4141 48.6245 16.0793 48.8566 16.6206 49.2123C16.8063 49.3361 17.046 49.5294 17.2858 49.7537L18.8249 51.2L20.364 49.7537C20.6037 49.5294 20.8435 49.3361 21.0214 49.2123C21.5241 48.8798 22.166 48.6477 22.2356 48.6245C23.04 48.3616 23.9758 48.0986 24.9658 47.8279L24.9812 47.8202C27.549 47.1086 30.457 46.2966 32.8314 44.9586C34.2777 44.1465 35.3682 43.2338 36.1648 42.1665C37.147 40.8517 37.642 39.3513 37.642 37.7117V2.80749L36.1261 2.28931ZM36.536 37.7117C36.536 39.1115 36.1106 40.3799 35.2831 41.4937C34.5793 42.4295 33.6048 43.2493 32.2977 43.9841C30.0316 45.2524 27.1932 46.0413 24.6873 46.7374H24.6719C23.6664 47.0158 22.7074 47.2788 21.8798 47.5572C21.8721 47.5572 21.0755 47.8356 20.4104 48.2688C20.1706 48.4312 19.8922 48.6555 19.5983 48.9262L18.8249 49.6454L18.0592 48.9262C17.7653 48.6555 17.4869 48.4234 17.2471 48.2688C16.5742 47.8279 15.7776 47.5572 15.7699 47.5572C14.9423 47.2865 13.991 47.0158 12.9779 46.7374H12.9624C10.4565 46.0413 7.61812 45.2524 5.35975 43.9841C4.05268 43.2493 3.07818 42.4372 2.37438 41.4937C1.53909 40.3799 1.12145 39.1115 1.12145 37.7117V3.61958L1.88713 3.36435C2.15782 3.27154 8.66222 1.12918 18.8249 1.12918C28.9875 1.12918 35.4919 3.27154 35.7626 3.36435L36.5283 3.61958V37.7117H36.536Z" fill="#480024"/>
</g>
<defs>
<clipPath id="clip0_3_69">
<rect width="37.642" height="51.2" fill="white"/>
</clipPath>
</defs>
</svg>
