<svg width="30" height="37.5" viewBox="0 0 40 50" fill="none" xmlns="http://www.w3.org/2000/svg">
<g clip-path="url(#clip0_1_3074)">
<mask id="mask0_1_3074" style="mask-type:luminance" maskUnits="userSpaceOnUse" x="1" y="4" width="37" height="45">
<path d="M1.92798 4.05061V16.917C4.66428 39.3156 19.7814 48.0397 19.7814 48.0397C19.7814 48.0397 36.2691 36.7944 37.4232 16.917V4.05061H1.92798Z" fill="white"/>
</mask>
<g mask="url(#mask0_1_3074)">
<path d="M32.8384 59.9444L-12.8254 42.358L6.51264 -7.85396L52.1767 9.7325L32.8384 59.9444Z" fill="url(#paint0_linear_1_3074)"/>
</g>
<mask id="mask1_1_3074" style="mask-type:luminance" maskUnits="userSpaceOnUse" x="0" y="-2" width="40" height="52">
<path d="M39.2081 -1.81364H0.158081V49.3865H39.2081V-1.81364Z" fill="white"/>
</mask>
<g mask="url(#mask1_1_3074)">
<path d="M23.3486 22.335C23.5981 22.3577 23.8507 22.3713 24.1054 22.3744C23.8505 22.3713 23.5981 22.3577 23.3486 22.335Z" fill="white"/>
</g>
<mask id="mask2_1_3074" style="mask-type:luminance" maskUnits="userSpaceOnUse" x="0" y="-2" width="40" height="52">
<path d="M39.2081 -1.81364H0.158081V49.3865H39.2081V-1.81364Z" fill="white"/>
</mask>
<g mask="url(#mask2_1_3074)">
<path d="M22.7863 22.2718V22.274L22.7876 22.2718H22.7863Z" fill="white"/>
</g>
<mask id="mask3_1_3074" style="mask-type:luminance" maskUnits="userSpaceOnUse" x="0" y="-2" width="40" height="52">
<path d="M39.2081 -1.81364H0.158081V49.3865H39.2081V-1.81364Z" fill="white"/>
</mask>
<g mask="url(#mask3_1_3074)">
<path d="M15.68 20.8247L11.6928 20.719L11.6212 22.3017C11.6212 22.3017 11.0355 22.2679 10.4178 22.3017C9.79937 22.339 9.76451 23.1969 9.76451 23.1969C9.76451 23.1969 9.28239 23.1627 8.76768 23.2995C8.25249 23.4377 8.32123 24.2294 8.32123 24.2294C8.32123 24.2294 6.9791 24.2643 6.53231 24.7795C6.08505 25.2974 6.01745 26.3607 6.46536 26.9803C6.91101 27.5999 9.45504 31.2434 10.1085 32.688C10.762 34.1342 10.8662 39.018 10.8662 39.018L10.9048 39.1345L10.9066 39.1357C13.187 41.9504 16.0598 44.6608 19.6876 47.0934C20.9164 46.2706 22.0586 45.4115 23.1193 44.5292L16.5056 36.8953L16.9108 36.5441L17.0392 36.5372C17.0821 36.5344 17.1241 36.5325 17.1684 36.5325C17.4067 36.5347 17.6395 36.5623 17.9061 36.5613C18.3307 36.5613 18.8308 36.5012 19.4775 36.1603C19.743 36.0173 19.917 35.8184 20.0337 35.576C20.1511 35.3323 20.2046 35.0498 20.2013 34.7769C20.2046 34.4842 20.1352 34.2032 20.0572 34.0508C19.9325 33.7958 19.6498 33.5963 19.3384 33.4718C19.0291 33.3445 18.7148 33.2941 18.6019 33.2815C18.569 33.2756 18.558 33.2756 18.558 33.2756H18.5382L18.1621 33.2088L16.9202 31.825L17.5088 31.3168L18.5624 32.4884L18.6439 32.5023C18.7243 32.5113 19.0213 32.5466 19.3773 32.6619L17.9116 30.9681L18.5 30.457L27.2519 40.5618C27.356 40.4454 27.4565 40.3299 27.5573 40.2139L18.8465 30.1593L19.4344 29.6498L28.0708 39.6165C28.1695 39.4983 28.2685 39.3771 28.3655 39.2597L19.7802 29.3506L19.9839 29.1742C19.9839 29.1742 20.2811 29.2586 20.7478 29.2761L28.8604 38.6414C28.956 38.518 29.053 38.3959 29.1475 38.2719L21.3437 29.2646C21.6162 29.244 21.9165 29.1938 22.2331 29.1019L29.6249 37.6335C29.7164 37.5063 29.807 37.3808 29.8986 37.2519L22.6935 28.9367C22.9546 28.8047 23.1409 28.6225 23.2711 28.4153L30.3575 36.5939C30.4455 36.4639 30.5362 36.3298 30.6213 36.1987L23.475 27.9502C23.6067 27.4887 23.5678 27.0244 23.5431 26.8396L31.0604 35.5165C31.1457 35.3813 31.2305 35.2455 31.3138 35.1093L23.1608 25.6993V24.5108L31.7347 34.407C31.8272 34.2465 31.9201 34.0868 32.0101 33.9249L21.7784 22.0696C21.6746 22.043 21.5738 22.0117 21.4716 21.983C21.0558 21.8608 20.6517 21.7116 20.2594 21.5387C20.1849 21.5053 20.1115 21.4677 20.0382 21.4312C19.7896 21.3129 19.5459 21.1858 19.3081 21.0471C19.2254 20.9987 19.1435 20.9483 19.062 20.8972C18.832 20.7532 18.6097 20.6015 18.393 20.4389C18.3252 20.389 18.2568 20.3397 18.1898 20.2862C17.9332 20.0842 17.6878 19.8705 17.453 19.6449C17.4396 19.6324 17.4242 19.6214 17.4109 19.6082C16.464 19.7632 15.68 20.8247 15.68 20.8247Z" fill="white"/>
</g>
<mask id="mask4_1_3074" style="mask-type:luminance" maskUnits="userSpaceOnUse" x="0" y="-2" width="40" height="52">
<path d="M39.2081 -1.81348H0.158081V49.3865H39.2081V-1.81348Z" fill="white"/>
</mask>
<g mask="url(#mask4_1_3074)">
<path d="M2.96118 21.7625C3.3804 23.9744 4.02675 26.4323 5.0252 28.9934C5.10172 29.1873 5.18634 29.3833 5.26561 29.5786C5.18634 29.3833 5.10155 29.1873 5.0252 28.9923C4.02675 26.4322 3.3804 23.9742 2.96118 21.7625Z" fill="white"/>
</g>
<mask id="mask5_1_3074" style="mask-type:luminance" maskUnits="userSpaceOnUse" x="0" y="-2" width="40" height="52">
<path d="M39.2081 -1.81348H0.158081V49.3865H39.2081V-1.81348Z" fill="white"/>
</mask>
<g mask="url(#mask5_1_3074)">
<path d="M0.164566 0.964828V6.35702H0.158081L0.169105 13.8105C0.165862 13.9791 0.164566 14.1574 0.164566 14.3464C0.164566 14.5298 0.167159 14.7279 0.170402 14.9297V14.9611H0.17105C0.183857 15.715 0.221791 16.5881 0.300416 17.5661C0.561579 20.7771 1.27974 25.0943 3.09329 29.7477C5.61268 36.2183 10.2754 43.3474 18.7245 48.9475L19.6759 49.5545L20.6444 48.9495C21.4373 48.4234 22.1968 47.8852 22.9232 47.3378C29.4585 42.3899 33.4134 36.5091 35.7723 30.9916L35.7822 30.968L35.8011 30.9198C35.9691 30.5278 36.1284 30.1363 36.2815 29.7463C36.4405 29.3335 36.5927 28.9255 36.7359 28.5189C38.8514 22.5433 39.2074 17.2555 39.2089 14.3459C39.2089 14.2367 39.2071 14.1381 39.2061 14.0358L39.2089 14.0345V7.55827V6.35718V0.96499C26.4574 -2.73961 12.915 -2.73961 0.164566 0.964828ZM32.0085 32.8316L29.1767 29.6639V20.3C30.6151 18.7523 31.3098 16.6479 31.2756 14.3367C31.2448 12.1773 30.6069 10.1399 29.1767 8.54229V5.43881C29.9943 5.55115 31.1968 5.76433 32.0111 5.90521L32.0087 32.8316H32.0085ZM26.2107 26.2148L25.9512 25.942L23.3329 22.9072C23.4433 22.9056 23.5538 22.9056 23.6638 22.9004C24.4648 22.8554 25.4904 22.5323 26.2107 22.2739V26.2148ZM23.7158 44.0278L17.9203 37.34C18.0941 37.34 18.2878 37.3283 18.4959 37.2965L24.0585 43.7252C23.9447 43.823 23.8296 43.9264 23.7158 44.0278ZM24.6376 43.2032L19.3345 37.0801C19.4772 37.0251 19.622 36.9598 19.7724 36.8844L24.9727 42.8941C24.8632 42.9975 24.7507 43.1 24.6376 43.2032ZM25.535 42.3531L20.3975 36.4172C20.5035 36.2979 20.5924 36.1716 20.6695 36.0379L25.8601 42.0302C25.7513 42.1377 25.6453 42.2437 25.535 42.3531ZM26.4061 41.4712L20.9518 35.1767C20.9704 35.0415 20.98 34.9099 20.98 34.7766C20.98 34.682 20.975 34.5863 20.9656 34.4929L26.7233 41.137C26.6194 41.2496 26.5116 41.3623 26.4061 41.4712ZM31.7345 34.407L23.1606 24.511V25.6995L31.3135 35.1095C31.2297 35.2456 31.1456 35.3815 31.0601 35.5167L23.5425 26.8398C23.5676 27.0246 23.6064 27.4889 23.4747 27.9504L30.621 36.1989C30.536 36.33 30.4456 36.4641 30.3572 36.5941L23.2708 28.4155C23.1405 28.6224 22.9545 28.8046 22.6932 28.9369L29.8983 37.2521C29.807 37.381 29.7166 37.5063 29.6246 37.6337L22.2326 29.1021C21.916 29.194 21.6155 29.2442 21.3434 29.2648L29.1472 38.2721C29.053 38.3965 28.9558 38.5185 28.8601 38.6416L20.7475 29.2763C20.2808 29.2588 19.9835 29.1744 19.9835 29.1744L19.7799 29.3507L28.3657 39.2594C28.2681 39.3771 28.1694 39.4982 28.0708 39.6162L19.4344 29.6495L18.8466 30.159L27.5575 40.2136C27.4565 40.3296 27.3559 40.4451 27.2518 40.5615L18.5 30.4567L17.9117 30.9678L19.3773 32.6616C19.0213 32.5463 18.7243 32.5105 18.6439 32.502L18.5624 32.4881L17.5088 31.3165L16.9202 31.8247L18.1621 33.2085L18.5382 33.2752H18.5579C18.5579 33.2752 18.5689 33.2752 18.6018 33.2812C18.7146 33.2938 19.029 33.3442 19.3383 33.4715C19.6497 33.5963 19.9324 33.7954 20.0569 34.0505C20.1347 34.2029 20.2041 34.484 20.201 34.7766C20.2044 35.0495 20.1505 35.332 20.0336 35.5757C19.9167 35.8179 19.7429 36.0171 19.4772 36.1599C18.8307 36.5009 18.3307 36.561 17.906 36.561C17.6393 36.562 17.4065 36.5344 17.1682 36.5322C17.1243 36.5322 17.082 36.5344 17.0389 36.5369L16.9105 36.5438L16.5054 36.895L23.1191 44.5288C22.0584 45.4112 20.9159 46.2703 19.6873 47.0931C16.0591 44.6608 13.1867 41.9504 10.9061 39.1363L10.9045 39.1345C8.35109 35.9883 6.54969 32.7175 5.26528 29.5787C5.18633 29.3836 5.10138 29.1873 5.02519 28.9938C4.02657 26.4324 3.38023 23.9748 2.96101 21.7629C2.49299 19.2879 2.31434 17.1321 2.26117 15.4908V6.98974C10.0174 4.99511 18.2884 4.3961 26.2104 5.10794V6.38036C25.241 5.9908 23.9463 5.616 22.8812 5.6087C18.2158 5.56818 14.5908 9.49535 14.6612 14.2264C14.7299 18.7517 18.1268 22.493 22.47 22.8724L32.0098 33.9254C31.9193 34.0872 31.8269 34.2465 31.7345 34.407ZM34.8487 27.6306C34.8487 27.6315 34.8909 27.6322 34.8905 27.633V6.44877C35.6452 6.61607 36.3547 6.79504 37.105 6.98763V15.4911L37.1131 15.4854C37.0217 18.3297 36.5514 22.7427 34.8487 27.6306Z" fill="black"/>
</g>
<mask id="mask6_1_3074" style="mask-type:luminance" maskUnits="userSpaceOnUse" x="0" y="-2" width="40" height="52">
<path d="M39.2081 -1.81364H0.158081V49.3865H39.2081V-1.81364Z" fill="white"/>
</mask>
<g mask="url(#mask6_1_3074)">
<path d="M16.6234 18.1311L19.6148 18.9916L21.4078 21.692C21.9468 21.8211 22.5056 21.8947 23.0777 21.8997C23.6425 21.9026 24.1897 21.8386 24.7156 21.7215L26.3818 19.0948L29.4099 18.2407C29.9584 17.2907 30.3036 16.2021 30.3897 15.0326L28.4341 12.5458L28.5152 9.31912C28.3983 9.18214 28.2773 9.04726 28.1517 8.92016C27.4817 8.2414 26.693 7.68827 25.8197 7.30033L22.9388 8.38503L19.9572 7.23549C19.0726 7.61467 18.2812 8.16747 17.6167 8.85208C17.5033 8.97026 17.3954 9.09265 17.2869 9.21861L17.4746 12.3774L15.558 14.9065C15.6768 16.0732 16.049 17.1696 16.6234 18.1311ZM22.9798 11.062L26.1992 13.4532L25.0406 17.2722L21.1019 17.2464L19.8339 13.41L22.9798 11.062Z" fill="white"/>
</g>
<mask id="mask7_1_3074" style="mask-type:luminance" maskUnits="userSpaceOnUse" x="0" y="-2" width="40" height="52">
<path d="M39.2081 -1.81364H0.158081V49.3865H39.2081V-1.81364Z" fill="white"/>
</mask>
<g mask="url(#mask7_1_3074)">
<path d="M26.1993 13.4102L22.9799 11.019L19.8342 13.3669L21.1019 17.2033L25.0406 17.2291L26.1993 13.4102Z" fill="black"/>
</g>
<mask id="mask8_1_3074" style="mask-type:luminance" maskUnits="userSpaceOnUse" x="0" y="-2" width="40" height="52">
<path d="M39.2081 -1.81364H0.158081V49.3865H39.2081V-1.81364Z" fill="white"/>
</mask>
<g mask="url(#mask8_1_3074)">
<path d="M17.9203 37.3401L23.7158 44.0279C23.8296 43.9266 23.9447 43.823 24.0584 43.7255L18.4959 37.2968C18.2878 37.3283 18.0941 37.3401 17.9203 37.3401Z" fill="white"/>
</g>
<mask id="mask9_1_3074" style="mask-type:luminance" maskUnits="userSpaceOnUse" x="0" y="-2" width="40" height="52">
<path d="M39.2081 -1.81364H0.158081V49.3865H39.2081V-1.81364Z" fill="white"/>
</mask>
<g mask="url(#mask9_1_3074)">
<path d="M19.3346 37.0801L24.6376 43.2032C24.7506 43.1 24.8636 42.9973 24.9725 42.8941L19.7723 36.8842C19.622 36.9596 19.4773 37.025 19.3346 37.0801Z" fill="white"/>
</g>
<mask id="mask10_1_3074" style="mask-type:luminance" maskUnits="userSpaceOnUse" x="0" y="-2" width="40" height="52">
<path d="M39.2081 -1.81364H0.158081V49.3865H39.2081V-1.81364Z" fill="white"/>
</mask>
<g mask="url(#mask10_1_3074)">
<path d="M20.3973 36.4172L25.5348 42.3531C25.6454 42.2439 25.7511 42.1375 25.8597 42.03L20.669 36.0377C20.5922 36.1716 20.5034 36.2977 20.3973 36.4172Z" fill="white"/>
</g>
<mask id="mask11_1_3074" style="mask-type:luminance" maskUnits="userSpaceOnUse" x="0" y="-2" width="40" height="52">
<path d="M39.2081 -1.81364H0.158081V49.3865H39.2081V-1.81364Z" fill="white"/>
</mask>
<g mask="url(#mask11_1_3074)">
<path d="M20.9655 34.4931C20.9752 34.5865 20.9801 34.6821 20.9801 34.7768C20.9801 34.9096 20.9704 35.0417 20.9519 35.1767L26.4063 41.4714C26.5116 41.3623 26.6195 41.2498 26.7236 41.1373L20.9655 34.4931Z" fill="white"/>
</g>
<mask id="mask12_1_3074" style="mask-type:luminance" maskUnits="userSpaceOnUse" x="2" y="1" width="3" height="4">
<path d="M3.35885 2.51217C3.36679 2.47423 3.37717 2.45348 3.40894 2.44602C3.44234 2.43921 3.44899 2.45543 3.45628 2.49093C3.52923 2.80916 3.60218 3.12657 3.67578 3.44512C3.4973 3.48419 3.31881 3.52521 3.14049 3.56444C3.2136 3.21427 3.28606 2.86395 3.35885 2.51217ZM3.40894 1.93051C3.16091 1.98546 2.89602 2.10137 2.81318 2.46921C2.63534 3.2621 2.45718 4.05564 2.27918 4.84918C2.28015 4.85712 2.27416 4.86604 2.27545 4.86912C2.27416 4.90478 2.30155 4.92116 2.33673 4.91289C2.50419 4.87301 2.67117 4.83264 2.83879 4.79471C2.87478 4.78579 2.90267 4.74964 2.91077 4.71171C2.95389 4.50356 2.99621 4.29411 3.03981 4.08579C3.28541 4.02889 3.53069 3.97377 3.77662 3.92092C3.81941 4.11027 3.8627 4.29994 3.90566 4.48848C3.91311 4.5235 3.94132 4.54635 3.97845 4.53825C4.14558 4.50226 4.31369 4.46757 4.48213 4.43223C4.51812 4.42461 4.5426 4.39753 4.5426 4.36138C4.54325 4.35847 4.53936 4.35166 4.53936 4.34371C4.36022 3.62896 4.18141 2.91599 4.0039 2.2035C3.94537 1.97006 3.79639 1.9023 3.62666 1.9023C3.55614 1.9023 3.48173 1.91413 3.40894 1.93051Z" fill="white"/>
</mask>
<g mask="url(#mask12_1_3074)">
<path d="M0.826294 3.83873L3.08776 0.814194L5.99088 2.98472L3.72957 6.00941L0.826294 3.83873Z" fill="url(#paint1_linear_1_3074)"/>
</g>
<mask id="mask13_1_3074" style="mask-type:luminance" maskUnits="userSpaceOnUse" x="4" y="1" width="3" height="4">
<path d="M6.42895 1.37122C6.30186 1.37608 6.1211 1.37916 5.73057 1.45308C5.26482 1.54176 4.85046 1.74327 4.85046 2.40436V4.28325C4.85046 4.32394 4.88321 4.34971 4.92325 4.34177C5.07904 4.31064 5.23548 4.27919 5.39176 4.24807C5.43131 4.24029 5.46438 4.20203 5.46438 4.16199V3.10047C5.77532 3.04033 6.08738 2.98148 6.39945 2.92507C6.43803 2.9181 6.47224 2.87919 6.47127 2.8398V2.49401C6.47127 2.45348 6.43965 2.42657 6.39945 2.43435C6.08738 2.48996 5.77532 2.54961 5.46438 2.60976V2.28261C5.46438 2.09278 5.5255 2.02259 5.69507 1.99049C5.93986 1.94412 6.18368 1.89889 6.42879 1.85415C6.46851 1.84767 6.50109 1.80827 6.50109 1.76937V1.43088C6.50158 1.38662 6.48115 1.37106 6.4369 1.37106C6.4343 1.37106 6.43171 1.37106 6.42895 1.37122Z" fill="white"/>
</mask>
<g mask="url(#mask13_1_3074)">
<path d="M3.42188 3.28171L5.44261 0.579132L7.93006 2.43905L5.90949 5.14163L3.42188 3.28171Z" fill="url(#paint2_linear_1_3074)"/>
</g>
<mask id="mask14_1_3074" style="mask-type:luminance" maskUnits="userSpaceOnUse" x="6" y="1" width="3" height="3">
<path d="M7.96984 1.0585C7.41849 1.1454 6.89714 1.52393 6.89746 2.38993V2.84774C6.89714 3.7131 7.4193 3.91185 7.96984 3.82463C8.22338 3.78378 8.43396 3.71569 8.51 3.67857C8.56155 3.65749 8.5904 3.63496 8.5904 3.58324V3.23081C8.5904 3.18818 8.56754 3.16062 8.52086 3.16726C8.51761 3.1684 8.51291 3.16953 8.51 3.16953C8.37155 3.20179 8.17296 3.25172 7.97292 3.28269C7.72294 3.32338 7.52305 3.224 7.52305 2.74123V2.28375C7.52305 1.79936 7.72294 1.63611 7.97292 1.59591C8.1728 1.56478 8.37155 1.55116 8.51 1.54176C8.51291 1.54079 8.51842 1.53965 8.52086 1.53884C8.56819 1.53285 8.5904 1.50075 8.5904 1.45698V1.10422C8.58878 1.05251 8.56155 1.04327 8.51 1.03678C8.47855 1.03062 8.42359 1.02641 8.35177 1.02641C8.25143 1.02641 8.11817 1.035 7.96984 1.0585Z" fill="white"/>
</mask>
<g mask="url(#mask14_1_3074)">
<path d="M5.51331 2.87725L7.50437 0.214066L9.97481 2.06101L7.98358 4.7242L5.51331 2.87725Z" fill="url(#paint3_linear_1_3074)"/>
</g>
<mask id="mask15_1_3074" style="mask-type:luminance" maskUnits="userSpaceOnUse" x="9" y="0" width="3" height="4">
<path d="M10.5499 2.26786C10.6856 2.25116 10.8221 2.23495 10.9579 2.21809C11.2494 2.1847 11.3439 2.32346 11.3439 2.49806V2.53778C11.3439 2.74204 11.2231 2.87124 10.8478 2.91534C10.7971 2.92101 10.6076 2.93982 10.5499 2.9476C10.5499 2.72064 10.5499 2.49514 10.5499 2.26786ZM10.5499 1.20764C10.6004 1.19694 10.7677 1.17571 10.8258 1.1689C11.2011 1.12383 11.3295 1.20181 11.3295 1.40121V1.456C11.3295 1.61276 11.2447 1.75267 10.9577 1.78606C10.8219 1.80227 10.6854 1.81897 10.5497 1.83583C10.5497 1.62541 10.5497 1.41612 10.5499 1.20764ZM10.7789 0.66635C10.5461 0.693422 10.2514 0.75308 10.1274 0.787448C9.98523 0.827814 9.93481 0.885526 9.93481 1.04812V3.25853C9.93481 3.42259 9.98993 3.46263 10.1349 3.46928C10.2764 3.47625 10.5611 3.4589 10.8005 3.4294C11.4305 3.35466 11.9492 3.12657 11.9486 2.48704V2.43257C11.9486 2.18275 11.8174 2.00183 11.6244 1.92937C11.8168 1.81297 11.9294 1.59898 11.9303 1.36133V1.29583C11.9303 0.819222 11.6137 0.644302 11.116 0.644302C11.0112 0.644302 10.8984 0.652084 10.7789 0.66635Z" fill="white"/>
</mask>
<g mask="url(#mask15_1_3074)">
<path d="M8.57678 2.46078L10.6572 -0.321724L13.3072 1.65978L11.2268 4.44228L8.57678 2.46078Z" fill="url(#paint4_linear_1_3074)"/>
</g>
<mask id="mask16_1_3074" style="mask-type:luminance" maskUnits="userSpaceOnUse" x="12" y="0" width="3" height="4">
<path d="M12.9379 2.03831V1.60482C12.9379 1.1689 13.0803 0.970313 13.3872 0.943564C13.6947 0.918599 13.839 1.09238 13.8396 1.52879V1.96098C13.8396 2.39788 13.6937 2.59452 13.3872 2.61965C13.3672 2.62143 13.3479 2.6224 13.3293 2.6224C13.0623 2.62208 12.9379 2.44586 12.9379 2.03831ZM13.387 0.39838C12.7851 0.449121 12.307 0.82198 12.307 1.66448V2.09797C12.307 2.94176 12.7841 3.21606 13.387 3.16434C13.9896 3.11377 14.4676 2.7576 14.4685 1.91478V1.48145C14.4685 0.698775 14.0562 0.392868 13.5156 0.392868C13.4736 0.392868 13.4306 0.394651 13.387 0.39838Z" fill="white"/>
</mask>
<g mask="url(#mask16_1_3074)">
<path d="M10.953 2.20383L13.082 -0.643677L15.8224 1.40526L13.6934 4.25261L10.953 2.20383Z" fill="url(#paint5_linear_1_3074)"/>
</g>
<mask id="mask17_1_3074" style="mask-type:luminance" maskUnits="userSpaceOnUse" x="14" y="0" width="4" height="3">
<path d="M16.9381 0.215523C16.7794 0.221521 16.6208 0.227357 16.4618 0.234814C16.4218 0.235787 16.3885 0.267237 16.3888 0.306144V1.92451C16.3888 2.29559 16.2872 2.45543 15.9573 2.47132C15.6289 2.48802 15.53 2.3392 15.53 1.96699V0.350076C15.53 0.310196 15.4972 0.282962 15.4562 0.284583C15.2967 0.293661 15.137 0.303226 14.977 0.314087C14.9368 0.316033 14.9041 0.348131 14.9041 0.386552V2.00492C14.9039 2.83478 15.3761 3.02072 15.9573 2.99154C16.5385 2.96301 17.0154 2.72843 17.0149 1.90003V0.281989C17.0149 0.242271 16.9786 0.215523 16.9399 0.215523C16.9399 0.215523 16.9382 0.215523 16.9381 0.215523Z" fill="white"/>
</mask>
<g mask="url(#mask17_1_3074)">
<path d="M13.5585 2.01481L15.6609 -0.797028L18.3606 1.22144L16.2581 4.03328L13.5585 2.01481Z" fill="url(#paint6_linear_1_3074)"/>
</g>
<mask id="mask18_1_3074" style="mask-type:luminance" maskUnits="userSpaceOnUse" x="17" y="0" width="3" height="3">
<path d="M18.1353 1.385V0.687106C18.1789 0.68127 18.3693 0.671381 18.4208 0.669274C18.7282 0.664248 18.8997 0.765893 18.8997 0.986853V1.035C18.8997 1.2806 18.7794 1.38014 18.3942 1.38711C18.3803 1.38743 18.3495 1.38759 18.3137 1.38759C18.2464 1.38759 18.1613 1.38695 18.1353 1.385ZM18.4208 0.142084C18.1572 0.146299 17.846 0.176614 17.6777 0.206767C17.5657 0.227355 17.5125 0.261399 17.5128 0.385739V2.82521C17.5128 2.86493 17.5467 2.89605 17.5859 2.89492C17.7445 2.89086 17.9033 2.88714 18.0614 2.88324C18.1019 2.88195 18.1345 2.84969 18.1353 2.80916V1.88674C18.1725 1.8856 18.2222 1.88658 18.2725 1.88739C18.3154 1.88836 18.3587 1.88901 18.3942 1.88836C18.4078 1.88674 18.4218 1.8856 18.4349 1.88447C18.5986 2.18713 18.7622 2.49207 18.9264 2.797C18.9444 2.83396 18.9576 2.86882 18.9981 2.86882C19.1852 2.86687 19.3722 2.86687 19.5598 2.8659C19.5999 2.8659 19.6146 2.84774 19.6146 2.82229C19.6146 2.81127 19.6102 2.797 19.6036 2.78225C19.4183 2.44019 19.2343 2.10008 19.0503 1.75948C19.3176 1.65168 19.5233 1.41515 19.5225 1.02981V0.983124C19.5225 0.353641 19.0639 0.141922 18.4599 0.141922C18.4469 0.141922 18.4339 0.142084 18.4208 0.142084Z" fill="white"/>
</mask>
<g mask="url(#mask18_1_3074)">
<path d="M16.1918 1.90862L18.2663 -0.866096L20.9353 1.12951L18.861 3.90407L16.1918 1.90862Z" fill="url(#paint7_linear_1_3074)"/>
</g>
<mask id="mask19_1_3074" style="mask-type:luminance" maskUnits="userSpaceOnUse" x="20" y="0" width="3" height="3">
<path d="M20.1371 0.165749C20.0621 0.165749 20.0005 0.228 20.0005 0.30322V2.79294C20.0005 2.83396 20.0332 2.86687 20.0738 2.86687C20.2176 2.86784 20.3615 2.86881 20.5056 2.86995C20.5455 2.87027 20.5797 2.83882 20.5791 2.79878V1.32664C20.5791 1.30378 20.586 1.29681 20.5967 1.29681C20.6073 1.29681 20.6157 1.30378 20.6293 1.32664C20.9083 1.80698 21.1863 2.2904 21.464 2.7743C21.5227 2.87335 21.5782 2.89005 21.6544 2.89216C21.7732 2.89491 21.8936 2.89799 22.0126 2.90188C22.0896 2.90496 22.1551 2.84579 22.1559 2.7683C22.1559 1.93731 22.1559 1.10519 22.1559 0.275175C22.1559 0.234809 22.1225 0.203683 22.083 0.202872C21.9389 0.19882 21.7949 0.193956 21.6508 0.191038C21.6112 0.188931 21.5777 0.217625 21.5777 0.257504V1.79498C21.5795 1.82108 21.5667 1.82708 21.5592 1.82708C21.549 1.82708 21.5438 1.82011 21.5308 1.79741C21.241 1.29146 20.9518 0.78745 20.6629 0.284091C20.6189 0.206763 20.583 0.169802 20.5092 0.169802C20.3857 0.167856 20.2623 0.166721 20.1391 0.165749C20.1389 0.165749 20.1375 0.165749 20.1371 0.165749Z" fill="white"/>
</mask>
<g mask="url(#mask19_1_3074)">
<path d="M18.6869 1.92273L20.7734 -0.868042L23.4699 1.14799L21.3833 3.93876L18.6869 1.92273Z" fill="url(#paint8_linear_1_3074)"/>
</g>
<mask id="mask20_1_3074" style="mask-type:luminance" maskUnits="userSpaceOnUse" x="22" y="0" width="3" height="4">
<path d="M22.6543 0.969341V2.17578C22.6543 2.83785 23.0706 2.97386 23.5436 2.9985C23.9386 3.01763 24.125 3.00142 24.2532 2.9904C24.3043 2.98667 24.3247 2.96673 24.3247 2.9181V2.58058C24.3247 2.54086 24.2931 2.50536 24.2532 2.50325C24.0053 2.48915 23.7583 2.47423 23.5107 2.46143C23.3378 2.45348 23.2758 2.39301 23.2773 2.20221V1.81816C23.5924 1.83291 23.9086 1.85026 24.2239 1.8689C24.2638 1.87182 24.2967 1.84167 24.2967 1.8013V1.456C24.2967 1.41612 24.2638 1.38111 24.2239 1.37819C23.9086 1.35841 23.5924 1.3422 23.2773 1.32745V0.996414C23.2773 0.807877 23.3389 0.751948 23.5107 0.760865C23.7583 0.773672 24.0053 0.787451 24.2532 0.802852C24.2924 0.804797 24.326 0.774806 24.3247 0.734927V0.395463C24.3247 0.349099 24.3043 0.329807 24.2532 0.318946C24.126 0.292359 23.9416 0.25248 23.5474 0.232378C23.5054 0.230108 23.4642 0.228973 23.4234 0.228973C23.0041 0.228973 22.6543 0.365796 22.6543 0.969341Z" fill="white"/>
</mask>
<g mask="url(#mask20_1_3074)">
<path d="M21.317 2.01773L23.2539 -0.57283L25.6637 1.22889L23.7267 3.81945L21.317 2.01773Z" fill="url(#paint9_linear_1_3074)"/>
</g>
<mask id="mask21_1_3074" style="mask-type:luminance" maskUnits="userSpaceOnUse" x="24" y="0" width="4" height="4">
<path d="M24.7846 0.462903V2.98959C24.783 3.0285 24.8185 3.04228 24.847 3.04406C25.0078 3.05524 25.1678 3.06724 25.3291 3.07924C25.3617 3.08232 25.3875 3.05119 25.3875 3.00985V1.49491C25.3875 1.46978 25.3985 1.46687 25.4053 1.46687C25.4159 1.468 25.4248 1.47675 25.435 1.49491C25.5446 1.70323 25.654 1.91284 25.7633 2.12099C25.7894 2.16573 25.8254 2.18713 25.8732 2.192C25.9703 2.19978 26.0677 2.20723 26.1651 2.21615C26.2131 2.22101 26.2496 2.20513 26.2757 2.16492C26.3843 1.97363 26.4936 1.78412 26.6032 1.59445C26.6144 1.57759 26.6221 1.57078 26.6324 1.57078C26.6406 1.57191 26.6513 1.57759 26.6513 1.60174V3.11766C26.6513 3.15916 26.6766 3.19304 26.7092 3.19709C26.8702 3.21136 27.03 3.22692 27.1902 3.24378C27.2199 3.2467 27.2537 3.23989 27.2526 3.19888V0.676081C27.2542 0.599888 27.1978 0.543635 27.1221 0.536178C27.0075 0.524344 26.8925 0.512509 26.7786 0.50181C26.7009 0.495001 26.6515 0.526451 26.6178 0.586108C26.432 0.913738 26.2454 1.24218 26.059 1.57078C26.045 1.59899 26.0343 1.61666 26.0201 1.61471C26.0058 1.61471 25.9944 1.59445 25.9802 1.56478C25.7931 1.20376 25.6078 0.843219 25.4214 0.483653C25.3881 0.417998 25.3369 0.379091 25.2599 0.373255C25.1459 0.364825 25.0313 0.355909 24.9169 0.348127C24.9127 0.347803 24.908 0.347641 24.9034 0.347641C24.8331 0.347641 24.784 0.391249 24.7846 0.462903Z" fill="white"/>
</mask>
<g mask="url(#mask21_1_3074)">
<path d="M23.3933 2.20723L25.6692 -0.836754L28.6435 1.38711L26.3676 4.43109L23.3933 2.20723Z" fill="url(#paint10_linear_1_3074)"/>
</g>
<mask id="mask22_1_3074" style="mask-type:luminance" maskUnits="userSpaceOnUse" x="27" y="0" width="3" height="4">
<path d="M28.7763 2.90837C28.4701 2.87027 28.3276 2.66893 28.3276 2.23382V1.80049C28.3292 1.36441 28.4704 1.19484 28.7763 1.23342C29.0819 1.27022 29.2273 1.47481 29.2273 1.91073V2.34422C29.2273 2.74058 29.1063 2.9134 28.8551 2.9134C28.8304 2.9134 28.8038 2.91161 28.7763 2.90837ZM27.6978 1.72981V2.16281C27.6978 3.00629 28.1758 3.37963 28.776 3.45404C29.3759 3.52813 29.853 3.27085 29.853 2.42738V1.99454C29.853 1.15123 29.3768 0.760866 28.776 0.687591C28.7139 0.679971 28.6532 0.675919 28.5944 0.675919C28.0816 0.675919 27.6978 0.973719 27.6978 1.72981Z" fill="white"/>
</mask>
<g mask="url(#mask22_1_3074)">
<path d="M26.3293 2.50552L28.4702 -0.358032L31.2209 1.69869L29.0802 4.56208L26.3293 2.50552Z" fill="url(#paint11_linear_1_3074)"/>
</g>
<mask id="mask23_1_3074" style="mask-type:luminance" maskUnits="userSpaceOnUse" x="30" y="0" width="3" height="4">
<path d="M30.286 0.989923V2.60781C30.2876 3.4375 30.756 3.72071 31.3316 3.81214C31.9078 3.9039 32.3792 3.76756 32.3792 2.93884V1.32063C32.3792 1.28059 32.3422 1.24557 32.3027 1.23925C32.1463 1.21169 31.9892 1.18559 31.8327 1.15998C31.7924 1.15204 31.7599 1.17668 31.7599 1.21672V2.83476C31.7599 3.20584 31.6589 3.34461 31.3318 3.29241C31.0058 3.24086 30.9079 3.07047 30.9079 2.6994V1.08216C30.9079 1.04212 30.8753 1.0084 30.8352 1.00143C30.677 0.978251 30.5177 0.954582 30.359 0.9314C30.3552 0.930752 30.351 0.930428 30.3475 0.930428C30.3128 0.930428 30.286 0.95442 30.286 0.989923Z" fill="white"/>
</mask>
<g mask="url(#mask23_1_3074)">
<path d="M28.8601 2.83768L31.0366 -0.0733795L33.8053 1.99664L31.6287 4.90769L28.8601 2.83768Z" fill="url(#paint12_linear_1_3074)"/>
</g>
<mask id="mask24_1_3074" style="mask-type:luminance" maskUnits="userSpaceOnUse" x="32" y="1" width="3" height="4">
<path d="M32.7089 1.37819V1.75267C32.7105 1.79304 32.741 1.82805 32.7826 1.83486C32.9783 1.87085 33.1746 1.90587 33.3713 1.94332V4.05759C33.3713 4.09844 33.4038 4.13638 33.4437 4.14416C33.6018 4.17447 33.759 4.20495 33.9161 4.23478C33.9563 4.24223 33.9891 4.21678 33.9883 4.17528V2.06052C34.1826 2.09878 34.3783 2.13785 34.573 2.17676C34.6122 2.18568 34.6494 2.16411 34.6484 2.12326V1.74765C34.6484 1.70906 34.6127 1.67226 34.573 1.66448C33.9776 1.54257 33.3803 1.42991 32.7821 1.32259C32.7768 1.32161 32.7718 1.32113 32.7669 1.32113C32.7343 1.32113 32.71 1.3435 32.7089 1.37819Z" fill="white"/>
</mask>
<g mask="url(#mask24_1_3074)">
<path d="M31.3079 3.19482L33.4046 0.390434L36.0503 2.36853L33.9537 5.17292L31.3079 3.19482Z" fill="url(#paint13_linear_1_3074)"/>
</g>
<mask id="mask25_1_3074" style="mask-type:luminance" maskUnits="userSpaceOnUse" x="34" y="1" width="4" height="4">
<path d="M34.9893 1.81896V4.37888C34.9893 4.41909 35.0207 4.45799 35.0606 4.46659C35.2185 4.49933 35.3756 4.53354 35.532 4.56774C35.5709 4.5752 35.6042 4.55007 35.6042 4.51019V3.45987C35.9007 3.52406 36.1955 3.59004 36.4917 3.65845V4.70878C36.4917 4.74963 36.5246 4.78951 36.5632 4.7994C36.72 4.83539 36.8767 4.87284 37.0333 4.9098C37.0719 4.9192 37.1043 4.89408 37.1043 4.8542V2.29444C37.1043 2.25505 37.0719 2.21808 37.0333 2.2082C36.8766 2.17172 36.7196 2.13492 36.5632 2.09877C36.5233 2.08921 36.4911 2.11125 36.4917 2.15032V3.11667C36.1957 3.04924 35.9007 2.98261 35.6042 2.91809V1.9506C35.6042 1.91072 35.5725 1.87473 35.532 1.86598C35.3756 1.83193 35.2182 1.7974 35.0606 1.7653C35.0546 1.76401 35.0492 1.76336 35.0437 1.76336C35.0123 1.76336 34.9893 1.78492 34.9893 1.81896Z" fill="white"/>
</mask>
<g mask="url(#mask25_1_3074)">
<path d="M33.4756 3.78765L35.7478 0.748688L38.6186 2.8949L36.3463 5.93386L33.4756 3.78765Z" fill="url(#paint14_linear_1_3074)"/>
</g>
</g>
<defs>
<linearGradient id="paint0_linear_1_3074" x1="12.3567" y1="45.1767" x2="29.3818" y2="0.970337" gradientUnits="userSpaceOnUse">
<stop stop-color="#8B0304"/>
<stop offset="1" stop-color="#ED1C24"/>
</linearGradient>
<linearGradient id="paint1_linear_1_3074" x1="4.29652" y1="4.08363" x2="23.7329" y2="18.6155" gradientUnits="userSpaceOnUse">
<stop stop-color="#A8996E"/>
<stop offset="0.4417" stop-color="#FFE5C7"/>
<stop offset="1" stop-color="#A8996E"/>
</linearGradient>
<linearGradient id="paint2_linear_1_3074" x1="5.39193" y1="2.62975" x2="24.8256" y2="17.1596" gradientUnits="userSpaceOnUse">
<stop stop-color="#A8996E"/>
<stop offset="0.4417" stop-color="#FFE5C7"/>
<stop offset="1" stop-color="#A8996E"/>
</linearGradient>
<linearGradient id="paint3_linear_1_3074" x1="6.31667" y1="1.38371" x2="25.819" y2="15.9649" gradientUnits="userSpaceOnUse">
<stop stop-color="#A8996E"/>
<stop offset="0.4417" stop-color="#FFE5C7"/>
<stop offset="1" stop-color="#A8996E"/>
</linearGradient>
<linearGradient id="paint4_linear_1_3074" x1="7.66473" y1="-0.400128" x2="27.0306" y2="14.079" gradientUnits="userSpaceOnUse">
<stop stop-color="#A8996E"/>
<stop offset="0.4417" stop-color="#FFE5C7"/>
<stop offset="1" stop-color="#A8996E"/>
</linearGradient>
<linearGradient id="paint5_linear_1_3074" x1="8.64526" y1="-1.73891" x2="28.0756" y2="12.7885" gradientUnits="userSpaceOnUse">
<stop stop-color="#A8996E"/>
<stop offset="0.4417" stop-color="#FFE5C7"/>
<stop offset="1" stop-color="#A8996E"/>
</linearGradient>
<linearGradient id="paint6_linear_1_3074" x1="9.69342" y1="-3.0823" x2="29.049" y2="11.3891" gradientUnits="userSpaceOnUse">
<stop stop-color="#A8996E"/>
<stop offset="0.4417" stop-color="#FFE5C7"/>
<stop offset="1" stop-color="#A8996E"/>
</linearGradient>
<linearGradient id="paint7_linear_1_3074" x1="10.6425" y1="-4.41268" x2="30.0679" y2="10.1109" gradientUnits="userSpaceOnUse">
<stop stop-color="#A8996E"/>
<stop offset="0.4417" stop-color="#FFE5C7"/>
<stop offset="1" stop-color="#A8996E"/>
</linearGradient>
<linearGradient id="paint8_linear_1_3074" x1="11.5042" y1="-5.6274" x2="31.0086" y2="8.95528" gradientUnits="userSpaceOnUse">
<stop stop-color="#A8996E"/>
<stop offset="0.4417" stop-color="#FFE5C7"/>
<stop offset="1" stop-color="#A8996E"/>
</linearGradient>
<linearGradient id="paint9_linear_1_3074" x1="12.3626" y1="-6.69221" x2="31.7915" y2="7.83399" gradientUnits="userSpaceOnUse">
<stop stop-color="#A8996E"/>
<stop offset="0.4417" stop-color="#FFE5C7"/>
<stop offset="1" stop-color="#A8996E"/>
</linearGradient>
<linearGradient id="paint10_linear_1_3074" x1="13.1363" y1="-7.842" x2="32.6354" y2="6.7367" gradientUnits="userSpaceOnUse">
<stop stop-color="#A8996E"/>
<stop offset="0.4417" stop-color="#FFE5C7"/>
<stop offset="1" stop-color="#A8996E"/>
</linearGradient>
<linearGradient id="paint11_linear_1_3074" x1="14.0218" y1="-8.92633" x2="33.4541" y2="5.60249" gradientUnits="userSpaceOnUse">
<stop stop-color="#A8996E"/>
<stop offset="0.4417" stop-color="#FFE5C7"/>
<stop offset="1" stop-color="#A8996E"/>
</linearGradient>
<linearGradient id="paint12_linear_1_3074" x1="14.7431" y1="-9.99807" x2="34.2394" y2="4.57851" gradientUnits="userSpaceOnUse">
<stop stop-color="#A8996E"/>
<stop offset="0.4417" stop-color="#FFE5C7"/>
<stop offset="1" stop-color="#A8996E"/>
</linearGradient>
<linearGradient id="paint13_linear_1_3074" x1="15.5035" y1="-10.8025" x2="34.8679" y2="3.67561" gradientUnits="userSpaceOnUse">
<stop stop-color="#A8996E"/>
<stop offset="0.4417" stop-color="#FFE5C7"/>
<stop offset="1" stop-color="#A8996E"/>
</linearGradient>
<linearGradient id="paint14_linear_1_3074" x1="16.1101" y1="-11.5771" x2="35.4748" y2="2.90114" gradientUnits="userSpaceOnUse">
<stop stop-color="#A8996E"/>
<stop offset="0.4417" stop-color="#FFE5C7"/>
<stop offset="1" stop-color="#A8996E"/>
</linearGradient>
<clipPath id="clip0_1_3074">
<rect width="39.05" height="51.2" fill="white" transform="translate(0.158081 -1.81348)"/>
</clipPath>
</defs>
</svg>
