<svg width="39" height="39" viewBox="0 0 51 52" fill="none" xmlns="http://www.w3.org/2000/svg">
<g clip-path="url(#clip0_1_3280)">
<path d="M25.6873 50.0565C39.1848 50.0565 50.1266 39.1146 50.1266 25.6171C50.1266 12.1195 39.1848 1.1776 25.6873 1.1776C12.1899 1.1776 1.24805 12.1195 1.24805 25.6171C1.24805 39.1146 12.1899 50.0565 25.6873 50.0565Z" fill="white"/>
<path d="M29.9369 21.1115L38.7432 17.5445L37.2243 19.9851L29.954 21.6747L29.9369 21.1115ZM29.9369 22.0672V22.4597H40.5523L37.1219 20.5824L29.9369 22.0672ZM41.5763 18.3979C41.5251 18.3296 41.4227 18.2784 41.0643 18.176L39.2382 17.6981C39.2382 17.6811 37.651 20.2923 37.651 20.2923L40.6376 21.8795L41.4739 18.944C41.6104 18.5685 41.6445 18.4832 41.5763 18.3979ZM9.81546 18.944L10.6517 21.8795L13.6384 20.2923C13.6384 20.2923 12.0512 17.6811 12.0512 17.6981L10.2251 18.176C9.86666 18.2784 9.76426 18.3296 9.71306 18.3979C9.67892 18.4832 9.71306 18.5685 9.81546 18.944ZM14.2016 20.5653L10.7712 22.4256H21.3866V22.0501L14.2016 20.5653ZM29.9369 22.8523L29.9198 23.2277L34.3401 23.9445L37.1048 22.8352H29.9369V22.8523ZM29.9369 23.5861V23.9787C29.9369 23.9957 33.2649 25.7877 33.2649 25.7877C33.2649 25.7877 33.7598 26.0608 33.9305 26.112C34.1865 26.1632 34.579 26.1461 34.579 26.1461L35.8931 26.0779C35.8931 26.0779 34.0841 24.4224 34.1182 24.4395C34.1523 24.4395 29.9369 23.5861 29.9369 23.5861ZM38.3848 23.3643L37.8046 23.0741L34.8009 24.3371L36.4051 25.8731L38.3848 23.9104C38.5214 23.7568 38.6238 23.6715 38.6067 23.5861C38.5896 23.5179 38.5384 23.4496 38.3848 23.3643ZM12.7509 23.5691C12.7509 23.6544 12.8362 23.7397 12.9728 23.8933L14.9525 25.856L16.5567 24.32L13.553 23.0571L12.9728 23.3472C12.8192 23.4496 12.7509 23.5179 12.7509 23.5691ZM21.4207 21.1115L12.6144 17.5445L14.1333 19.9851L21.4036 21.6747L21.4207 21.1115ZM14.2528 22.8523L17.0175 23.9616L21.4378 23.2448L21.4207 22.8693H14.2528V22.8523ZM17.2565 24.4224C17.3077 24.4053 15.4815 26.0608 15.4815 26.0608L16.7957 26.1291C16.7957 26.1291 17.1882 26.1632 17.4442 26.0949C17.5978 26.0608 18.1098 25.7707 18.1098 25.7707C18.1098 25.7707 21.4378 23.9787 21.4378 23.9616V23.5691C21.4207 23.5861 17.2053 24.4395 17.2565 24.4224ZM29.8345 20.4971L32.6505 17.4592L34.4595 15.2576L34.5619 14.6603L34.3742 14.4896L34.1523 15.1723L29.4249 19.456C29.442 19.4901 29.8345 20.4971 29.8345 20.4971ZM33.4526 30.6176C33.4014 30.5493 31.8654 26.4875 31.8654 26.4875C31.6094 25.8389 31.3876 25.7195 30.9268 25.4635L29.8686 24.7979L29.8174 24.8661L31.0292 26.5045V28.8939L34.9545 33.8773C35.4835 34.5429 35.5177 34.7648 36.2856 34.7648L36.7635 34.5429L35.859 34.3893C35.876 34.4064 33.5209 30.6859 33.4526 30.6176ZM17.9221 30.6176C17.8709 30.6859 15.5157 34.4064 15.5157 34.4064L14.6112 34.56L15.089 34.7819C15.8741 34.7819 15.8911 34.56 16.4202 33.8944L20.3455 28.9109L20.3626 26.5216L21.5743 24.8832L21.5231 24.8149L20.465 25.4805C20.0042 25.7365 19.7823 25.856 19.5263 26.5045C19.5092 26.4875 17.9903 30.5493 17.9221 30.6176ZM18.7242 17.4421L21.5402 20.48C21.5402 20.48 21.9327 19.4731 21.9498 19.4389L17.2394 15.1723L17.0175 14.4896L16.8298 14.6603L16.9322 15.2576L18.7242 17.4421ZM30.4318 26.7264V31.6928L28.7934 34.4747L26.5577 36.1813L25.7044 37.2736L24.834 36.1813L22.5812 34.4747L20.9428 31.6928V26.7264L22.4106 24.6613L21.9156 24.3371V21.0773L22.6154 19.0293L23.1956 18.688C23.1956 18.688 23.2297 17.7323 23.4345 17.4763C23.5881 17.2715 24.3391 17.0325 24.3391 17.0325L24.7145 16.5205L23.3833 14.6091L22.0692 13.8923L21.6426 13.3973L22.2911 13.6021L23.6735 14.3872L25.0047 16.2816L25.6873 16.1109L26.3529 16.2816L27.7012 14.3872L29.0836 13.6021L29.7321 13.3973L29.3054 13.8923L27.9913 14.6091L26.6772 16.5376L27.0356 17.0325C27.0356 17.0325 27.7865 17.2885 27.9401 17.4763C28.1278 17.7323 28.179 18.688 28.179 18.688L28.7593 19.0293L29.459 21.0773V24.3371L28.9982 24.6443L30.4318 26.7264ZM27.4964 22.5109V24.0981L28.4009 22.0672L25.6703 20.8725L23.0761 21.7771L23.0932 21.8624L25.6703 21.5723L27.4964 22.5109ZM26.8308 18.1248L27.7182 18.4832L27.0185 17.2032L26.8308 18.1248ZM23.6393 18.5003L24.5439 18.1589L24.3391 17.2203L23.6393 18.5003ZM22.3935 21.0091L24.2537 20.0192H27.1209L28.9812 21.0091L28.7764 20.4288L27.4452 19.3195L28.6398 19.7291L28.5033 19.3195C28.5033 19.3195 27.2233 18.688 27.2063 18.6368H24.1855C24.1684 18.688 22.8884 19.3195 22.8884 19.3195L22.7519 19.7291L23.9465 19.3195L22.6154 20.4288L22.3935 21.0091ZM29.442 32.4096L27.2233 33.1947H24.1343L21.9498 32.4096L22.7178 33.7579L24.5439 34.4235L23.2639 34.3893L25.0047 35.7205H26.3529L28.0937 34.3893L26.8137 34.4235L28.6398 33.7579L29.442 32.4096ZM23.9807 31.3856H27.3769L28.9641 30.1739L28.947 30.1227L27.2063 30.7541H24.1684L22.4276 30.1227L22.4106 30.1739L23.9807 31.3856ZM29.8857 26.8629L27.2745 27.1701L29.2542 26.0779L28.4692 24.9856L27.3428 25.7365H24.0319L22.9396 25.0027L22.1546 26.0779L24.1001 27.1701L21.489 26.8459V28.2453L23.1786 28.8768H28.1961L29.8857 28.2453V26.8629ZM50.2461 25.6C50.2461 12.0491 39.2211 1.00694 25.6532 1.00694C12.0853 1.00694 1.07739 12.0491 1.07739 25.6C1.07739 39.1509 12.1024 50.1931 25.6703 50.1931C39.2382 50.1931 50.2461 39.1509 50.2461 25.6ZM49.6658 25.6C49.6658 38.8267 38.8968 49.5957 25.6703 49.5957C12.4437 49.5957 1.65765 38.8267 1.65765 25.6C1.65765 12.3733 12.4266 1.60427 25.6703 1.60427C38.9139 1.60427 49.6658 12.3733 49.6658 25.6ZM13.5018 17.3739C16.1471 13.4827 20.6015 10.9397 25.6361 10.9397C30.7049 10.9397 35.1934 13.5339 37.8216 17.4592L38.3848 17.2203C35.6542 13.1072 30.9268 10.3424 25.6361 10.3424C20.3455 10.3424 15.6863 13.0389 12.9386 17.152L13.5018 17.3739ZM10.6346 22.8523C10.464 23.7397 10.3957 24.6784 10.3957 25.6C10.3957 34.0139 17.2394 40.8576 25.6532 40.8576C34.067 40.8576 40.9107 34.0139 40.9107 25.6C40.9107 24.6613 40.8253 23.7227 40.6547 22.8352H40.0573C40.228 23.7227 40.3133 24.6613 40.3133 25.6C40.3133 33.6896 33.7257 40.2603 25.6532 40.2603C17.5807 40.2603 10.9589 33.6896 10.9589 25.6C10.9589 24.6613 11.0442 23.7397 11.2149 22.8523H10.6346Z" fill="#0F0F0F"/>
<path d="M22.5983 20.4458L23.9295 19.3365L22.7349 19.7461L22.8714 19.3365C22.8714 19.3365 24.1514 18.705 24.1685 18.6538H27.1892C27.2063 18.705 28.4863 19.3365 28.4863 19.3365L28.6228 19.7461L27.4282 19.3365L28.7594 20.4458L28.9642 21.0261L27.1039 20.0362H24.2367L22.3765 21.0261L22.5983 20.4458ZM29.442 32.4096L27.2234 33.1946H24.1343L21.9498 32.4096L22.7178 33.7578L24.5439 34.4234L23.2639 34.3893L25.0047 35.7205H26.353L28.0938 34.3893L26.8138 34.4234L28.6399 33.7578L29.442 32.4096ZM29.8857 26.8629L27.2746 27.1701L29.2543 26.0778L28.4692 24.9856L27.3428 25.7365H24.0319L22.9397 25.0026L22.1546 26.0778L24.1002 27.1701L21.489 26.8458V28.2453L23.1786 28.8768H28.1962L29.8857 28.2453V26.8629Z" fill="#FFB400"/>
<path d="M32.1044 16.5376V12.7488L32.3775 12.9024V16.2816L32.1044 16.5376ZM32.1044 30.8907V38.2976L32.3775 38.144V31.3344L32.1044 30.8907ZM32.3775 19.6779V18.3125L32.1044 18.6368V19.7973L32.3775 19.6779ZM32.3775 26.6581V25.7195L32.1044 25.5488V26.112L32.3775 26.6581ZM28.0597 13.7557V11.5541L27.7866 11.5029V13.9093L28.0597 13.7557ZM27.7866 35.8741V39.6971L28.0597 39.6459V35.6352L27.7866 35.8741ZM27.7866 15.5307V16.9131L28.0597 17.0496V15.1211L27.7866 15.5307ZM36.7295 17.92V16.4864L36.4564 16.2475V18.0395L36.7295 17.92ZM36.4393 26.3509V34.0309L36.7124 34.0821V26.3339L36.4393 26.3509ZM19.3557 16.5376V12.7488L19.0827 12.9024V16.2816L19.3557 16.5376ZM19.0827 31.3344V38.144L19.3557 38.2976V30.8907L19.0827 31.3344ZM19.3557 19.7973V18.6368L19.0827 18.3125V19.6779L19.3557 19.7973ZM19.3557 26.112V25.5488L19.0827 25.7195V26.6581L19.3557 26.112ZM23.6736 13.9093V11.5029L23.4005 11.5541V13.7557L23.6736 13.9093ZM23.4176 35.6523V39.6629L23.6906 39.7141V35.8912L23.4176 35.6523ZM23.4176 15.1211V17.0496L23.6906 16.9131V15.5307L23.4176 15.1211ZM15.0038 18.0224V16.2304L14.7307 16.4693V17.9029L15.0038 18.0224ZM14.7648 26.3339V34.0821L15.0379 34.0309V26.3509L14.7648 26.3339Z" fill="#E5E5E5"/>
<path d="M11.6758 13.1584C11.4368 12.9536 11.1638 13.056 10.959 13.2949L10.6006 13.7216L11.3344 14.336L11.6758 13.9264C11.8806 13.6704 11.9147 13.3632 11.6758 13.1584Z" fill="#D20000"/>
<path d="M23.5027 45.5338L24.1341 45.6021L23.9123 44.7146L23.5027 45.5338Z" fill="#D20000"/>
<path d="M21.0451 43.9808L20.6526 43.8784L20.4819 44.4757L20.8574 44.5781C21.0451 44.6293 21.2329 44.544 21.2841 44.3562C21.3353 44.1344 21.1987 44.0149 21.0451 43.9808Z" fill="#D20000"/>
<path d="M9.83254 12.3904L9.49121 12.8L10.1227 13.329L10.4469 12.9365C10.6176 12.7317 10.6176 12.4757 10.4128 12.305C10.208 12.1173 9.96907 12.2368 9.83254 12.3904Z" fill="#D20000"/>
<path d="M6.67514 25.2416C6.86287 25.2416 6.98234 25.1051 6.98234 24.9344C6.98234 24.7637 6.86287 24.6272 6.67514 24.6272C6.50448 24.6272 6.38501 24.7637 6.38501 24.9344C6.38501 25.1051 6.50448 25.2416 6.67514 25.2416Z" fill="#D20000"/>
<path d="M15.1742 41.3013C14.7817 41.0453 14.2526 41.1477 13.9625 41.6256C13.6553 42.1035 13.7918 42.5984 14.1844 42.8544C14.5769 43.1104 15.1059 43.008 15.3961 42.5472C15.7033 42.0693 15.5838 41.5573 15.1742 41.3013Z" fill="#D20000"/>
<path d="M20.7721 45.0219L20.3625 44.9024L20.1748 45.5851L20.5673 45.6875C20.8063 45.7557 21.0281 45.6704 21.0964 45.4485C21.1476 45.2437 20.994 45.0901 20.7721 45.0219Z" fill="#D20000"/>
<path d="M6.67513 25.6C6.385 25.6 6.19727 25.8048 6.19727 26.0608C6.19727 26.3168 6.385 26.5216 6.67513 26.5216C6.96526 26.5216 7.15299 26.3168 7.15299 26.0608C7.15299 25.8219 6.96526 25.6 6.67513 25.6Z" fill="#D20000"/>
<path d="M13.7236 9.35251C13.5529 9.14771 13.2799 9.11358 13.0409 9.30131L12.6313 9.64264L13.2287 10.3765L13.6212 10.0693C13.8601 9.86451 13.8943 9.57438 13.7236 9.35251Z" fill="#D20000"/>
<path d="M41.1837 13.7387C41.6445 13.2949 41.7811 12.6293 41.252 12.1173L40.8595 11.7248L39.1528 13.3973L39.5283 13.7728C40.0574 14.3019 40.723 14.1824 41.1837 13.7387Z" fill="#D20000"/>
<path d="M44.1021 25.2245C44.2899 25.2245 44.4093 25.088 44.4093 24.9173C44.4093 24.7467 44.2899 24.6101 44.1021 24.6101C43.9315 24.6101 43.812 24.7467 43.812 24.9173C43.812 25.1051 43.9315 25.2245 44.1021 25.2245Z" fill="#D20000"/>
<path d="M44.1021 25.6C43.812 25.6 43.6243 25.8048 43.6243 26.0608C43.6243 26.3168 43.812 26.5216 44.1021 26.5216C44.3923 26.5216 44.58 26.3168 44.58 26.0608C44.58 25.8048 44.3923 25.6 44.1021 25.6Z" fill="#D20000"/>
<path d="M46.4742 24.6272C46.1841 24.6272 46.0134 24.8491 46.0134 25.1051C46.0134 25.3611 46.2012 25.5829 46.4742 25.5829C46.7644 25.5829 46.935 25.3611 46.935 25.1051C46.935 24.832 46.7473 24.6272 46.4742 24.6272Z" fill="#D20000"/>
<path d="M38.0263 9.77917C38.1799 9.57437 38.1628 9.30131 37.9069 9.11357L37.4802 8.78931L36.917 9.55731L37.3266 9.86451C37.5655 10.0522 37.8557 10.001 38.0263 9.77917Z" fill="#D20000"/>
<path d="M32.821 8.94292C33.4013 9.18185 34.0498 8.94292 34.34 8.26025C34.6301 7.57759 34.34 6.92905 33.7597 6.69012C33.1794 6.45119 32.5309 6.69012 32.2408 7.38985C31.9506 8.05545 32.2408 8.70399 32.821 8.94292Z" fill="#D20000"/>
<path d="M25.6873 2.2016C12.785 2.2016 2.30615 12.6976 2.30615 25.5829C2.30615 38.4853 12.8021 48.9643 25.6873 48.9643C38.5896 48.9643 49.0685 38.4683 49.0685 25.5829C49.0685 12.6976 38.5725 2.2016 25.6873 2.2016ZM41.6957 11.6736C42.532 12.5269 42.3613 13.6021 41.7128 14.2336C41.0813 14.8651 39.9549 15.0869 39.0333 14.1653L38.18 13.312L40.7741 10.752L41.6957 11.6736ZM38.3507 8.66987C38.9309 9.1136 38.9821 9.74507 38.6408 10.2059C38.4189 10.5131 37.9923 10.7179 37.5144 10.5813L37.2925 12.4245L36.5928 11.8955L36.8317 10.2741L36.5587 10.0693L35.6883 11.2128L35.108 10.7691L37.2925 7.86773L38.3507 8.66987ZM31.5753 7.09973C32.0019 6.0928 33.06 5.64907 34.0328 6.05867C35.0056 6.46827 35.4494 7.5264 35.0227 8.53333C34.596 9.54027 33.5379 9.96693 32.5651 9.55733C31.5923 9.1648 31.1486 8.10667 31.5753 7.09973ZM28.8787 4.59093L31.0462 5.00053L30.9267 5.61493L29.4761 5.34187L29.3054 6.21227L30.4659 6.43413L30.3465 7.04853L29.1859 6.82667L28.8958 8.2944L28.179 8.15787L28.8787 4.59093ZM24.1854 4.36907L27.1892 4.38613V5.0176H26.0457L26.0286 8.02133H25.2948L25.3118 5.0176H24.1684L24.1854 4.36907ZM20.2601 5.08587L22.4447 6.94613L21.9327 4.69333L22.6495 4.52267L23.4687 8.07253L22.8031 8.22613L20.6356 6.38293L21.1476 8.61867L20.4308 8.78933L19.6116 5.23947L20.2601 5.08587ZM17.5466 5.95627L17.8196 6.51947L16.4884 7.15093L16.8639 7.95307L17.922 7.44107L18.1951 8.00427L17.137 8.51627L17.5124 9.30133L18.8778 8.6528L19.1508 9.216L17.1199 10.1888L15.5498 6.912L17.5466 5.95627ZM12.7167 8.77227C13.2799 8.31147 13.9114 8.41387 14.2698 8.87467C14.5087 9.1648 14.6111 9.6256 14.3551 10.0693L16.0788 10.7349L15.3962 11.2981L13.8773 10.6667L13.6213 10.8715L14.5258 11.9979L13.9626 12.4587L11.6586 9.60853L12.7167 8.77227ZM9.40583 11.9467C9.88369 11.3835 10.4298 11.3323 10.8053 11.6395C11.0783 11.8784 11.1807 12.2539 11.0442 12.5952C11.3685 12.3392 11.7951 12.3051 12.1535 12.5952C12.5631 12.9365 12.7509 13.6363 12.2218 14.2507L11.3514 15.2917L8.5525 12.9536L9.40583 11.9467ZM4.9344 26.88H4.5248V24.5077L4.9344 24.2517V26.88ZM6.67518 26.9141C6.18025 26.9141 5.78773 26.5557 5.78773 26.0779C5.78773 25.7707 5.94132 25.5317 6.18026 25.3952C6.06079 25.2928 5.99252 25.1221 5.99252 24.9344C5.99252 24.5589 6.28265 24.2517 6.67518 24.2517C7.06771 24.2517 7.35785 24.5589 7.35785 24.9344C7.35785 25.1221 7.28958 25.2757 7.17011 25.3952C7.40905 25.5317 7.56264 25.7877 7.56264 26.0779C7.56264 26.5557 7.18718 26.9141 6.67518 26.9141ZM10.4128 37.888L10.0373 38.1611L9.50823 37.4443L8.6037 38.1099L8.27944 37.6661L10.481 36.0448L11.4709 37.376L11.0954 37.6491L10.4298 36.7616L9.90076 37.1541L10.4128 37.888ZM10.8394 40.8405C10.2933 40.2773 10.2933 39.4069 10.8906 38.8267C11.4879 38.2464 12.3413 38.2635 12.9045 38.8437C13.4506 39.4069 13.4506 40.2773 12.8533 40.8576C12.2559 41.4379 11.3855 41.4208 10.8394 40.8405ZM15.874 42.8373C15.4303 43.52 14.5941 43.7077 13.9114 43.2811C13.2458 42.8544 13.0581 42.0011 13.4847 41.3184C13.9285 40.6187 14.7818 40.4309 15.4474 40.8576C16.113 41.3013 16.3178 42.1547 15.874 42.8373ZM19.0314 43.3835L18.2463 43.0251L17.3076 45.0901L16.8127 44.8683L17.7514 42.8032L16.9663 42.4448L17.154 42.0181L19.2191 42.9568L19.0314 43.3835ZM21.8473 44.3904C21.7791 44.6464 21.5401 44.8341 21.2671 44.8512C21.5401 45.0048 21.7108 45.2779 21.6084 45.6021C21.506 45.9947 21.0793 46.336 20.4991 46.1653L19.5092 45.8923L20.2431 43.264L21.1988 43.5371C21.7449 43.6907 21.9497 44.0491 21.8473 44.3904ZM24.4414 46.7627L24.2708 46.1312L23.2639 46.0288L22.9737 46.6261L22.3764 46.5579L23.7076 43.9467L24.2366 43.9979L25.0217 46.8309L24.4414 46.7627ZM25.6532 41.4549C16.9151 41.4549 9.79836 34.3381 9.79836 25.6C9.79836 24.6443 9.90076 23.6203 10.0544 22.8011C10.1056 22.5451 10.1909 22.2549 10.1909 22.2549L9.2693 19.1147C9.08157 18.4491 8.99623 18.2613 9.09863 18.0907C9.13277 18.0224 9.2181 17.9029 9.5253 17.8347L12.2389 17.152L12.2901 17.0496C15.1061 12.6635 20.0383 9.74507 25.6361 9.74507C31.1998 9.74507 36.115 12.6293 38.9309 16.9813L39.0163 17.1349L41.7298 17.8176C42.037 17.9029 42.1224 18.0053 42.1565 18.0736C42.2589 18.2443 42.1906 18.432 41.9858 19.0976L41.0813 22.2379C41.0813 22.2379 41.1666 22.5451 41.2178 22.8181C41.3885 23.7227 41.4568 24.6443 41.4568 25.6C41.508 34.3381 34.3912 41.4549 25.6532 41.4549ZM26.3017 46.7968L26.1481 44.0661L26.6942 44.032L26.8308 46.3019L27.923 46.2336L27.9572 46.6944L26.3017 46.7968ZM29.203 46.4896L28.6739 43.8101L29.2201 43.7077L29.6638 45.9264L30.739 45.7045L30.8243 46.1653L29.203 46.4896ZM34.5278 44.8171C33.8622 45.1072 33.0771 44.8853 32.7187 44.0661C32.3262 43.1957 32.787 42.4448 33.4355 42.1547C33.7768 42.0011 34.2206 41.9669 34.6302 42.1888L34.4254 42.6837C34.1523 42.5131 33.8622 42.5301 33.6403 42.6325C33.2136 42.8203 32.9747 43.2469 33.2307 43.8101C33.4696 44.3392 33.9304 44.5099 34.3571 44.3221C34.6814 44.1856 34.8691 43.8784 34.852 43.4688L35.364 43.5029C35.347 44.1344 35.0227 44.6123 34.5278 44.8171ZM36.8488 43.5541L35.3299 41.2843L35.7907 40.9771L37.0536 42.8544L37.9581 42.24L38.2141 42.6325L36.8488 43.5541ZM40.0403 41.2501C39.6307 41.6085 38.9821 41.7109 38.5213 41.1989L37.3608 39.8677L37.7704 39.5093L38.8968 40.7893C39.1699 41.0965 39.46 41.0624 39.6989 40.8576C39.9208 40.6528 40.0061 40.3627 39.7331 40.0555L38.6067 38.7755L39.0163 38.4171L40.1768 39.7483C40.6547 40.2603 40.4669 40.8917 40.0403 41.2501ZM42.549 38.5195L41.8493 39.2704L39.8525 37.3931L40.5352 36.6763C40.9106 36.2667 41.3373 36.2667 41.5933 36.5056C41.7981 36.6933 41.8493 36.9835 41.7298 37.2395C41.9858 37.0688 42.3101 37.0517 42.5661 37.2907C42.8562 37.5467 42.9586 38.0757 42.549 38.5195ZM44.1021 26.9141C43.6072 26.9141 43.2146 26.5557 43.2146 26.0779C43.2146 25.7707 43.3682 25.5317 43.6072 25.3952C43.4877 25.2928 43.4194 25.1221 43.4194 24.9344C43.4194 24.5589 43.7096 24.2517 44.1021 24.2517C44.4946 24.2517 44.7848 24.5589 44.7848 24.9344C44.7848 25.1221 44.7165 25.2757 44.597 25.3952C44.836 25.5317 44.9895 25.7877 44.9895 26.0779C44.9895 26.5387 44.6141 26.9141 44.1021 26.9141ZM46.4402 26.88H45.9965L46.5426 25.9413C46.5085 25.9413 46.4743 25.9584 46.4402 25.9584C46.0135 25.9584 45.6039 25.6171 45.6039 25.1051C45.6039 24.6272 45.9794 24.2517 46.4743 24.2517C46.9693 24.2517 47.3447 24.6272 47.3447 25.1051C47.3447 25.2928 47.2765 25.4464 47.1911 25.6L46.4402 26.88Z" fill="#D20000"/>
<path d="M41.2861 36.9834C41.1325 36.8298 40.9448 36.9152 40.8424 37.0346L40.5693 37.3248L41.0301 37.7514L41.2861 37.4613C41.4056 37.3077 41.4227 37.12 41.2861 36.9834Z" fill="#D20000"/>
<path d="M11.2662 39.2363C10.8737 39.6288 10.8737 40.1579 11.1979 40.4992C11.5222 40.8406 12.0512 40.8576 12.4608 40.4822C12.8704 40.0896 12.8534 39.5606 12.5291 39.2192C12.2048 38.8608 11.6758 38.8438 11.2662 39.2363Z" fill="#D20000"/>
<path d="M41.6446 37.7514L41.3545 38.0586L41.8836 38.5536L42.1566 38.2634C42.3273 38.0928 42.3614 37.8368 42.1908 37.6832C42.003 37.5125 41.7982 37.5808 41.6446 37.7514Z" fill="#D20000"/>
</g>
<defs>
<clipPath id="clip0_1_3280">
<rect width="50.534" height="51.2" fill="white" transform="translate(0.394775)"/>
</clipPath>
</defs>
</svg>
