<svg width="39" height="39" viewBox="0 0 52 52" fill="none" xmlns="http://www.w3.org/2000/svg">
<g clip-path="url(#clip0_1_3045)">
<mask id="mask0_1_3045" style="mask-type:luminance" maskUnits="userSpaceOnUse" x="0" y="0" width="52" height="52">
<path d="M0 0H51.2V51.2H0V0Z" fill="white"/>
</mask>
<g mask="url(#mask0_1_3045)">
<path d="M51.2 25.5998C51.2 39.7384 39.7384 51.2 25.6002 51.2C11.4616 51.2 0 39.7384 0 25.5998C0 11.4612 11.4616 -0.000358582 25.6002 -0.000358582C39.7384 -0.000358582 51.2 11.4612 51.2 25.5998Z" fill="#0059AA"/>
</g>
<path d="M50.2249 25.5998C50.2249 39.2 39.2 50.2253 25.6002 50.2253C12 50.2253 0.975098 39.2 0.975098 25.5998C0.975098 11.9997 12 0.974724 25.6002 0.974724C39.2 0.974724 50.2249 11.9997 50.2249 25.5998ZM7.24198 25.7574C7.32641 35.8243 15.5134 43.9588 25.6002 43.9588C35.7392 43.9588 43.9588 35.7395 43.9588 25.5998C43.9588 24.4765 43.858 23.3768 43.6645 22.3089L43.6595 22.2477C44.0693 22.3357 44.5197 22.435 44.9904 22.5416C46.8137 22.9546 48.395 23.2681 48.8223 23.1967C49.2498 23.1257 49.0074 22.8691 48.395 22.5557C47.7823 22.2423 46.4152 21.6581 44.8762 21.2168C44.3157 21.0559 43.7656 20.8958 43.3174 20.765L43.2964 20.6957C41.1513 12.9374 34.0408 7.24124 25.6002 7.24124C16.1453 7.24124 8.35947 14.3883 7.35177 23.575L7.33402 23.6808C6.77563 23.771 6.04839 23.8743 5.17476 23.966C2.73903 24.2225 2.09295 24.1747 2.02664 24.308C1.927 24.5073 2.20746 24.9903 3.1945 25.3194C3.82464 25.5295 5.37659 25.7074 7.23691 25.6393L7.24198 25.7574Z" fill="white"/>
<path d="M38.864 28.7892C37.1128 29.0273 34.9923 29.8285 33.3592 30.2981C31.6496 30.7894 29.7907 31.4091 27.7818 31.3239C25.7733 31.238 23.4441 30.6398 21.4784 30.2767C19.5126 29.9133 18.4444 29.6571 16.8631 30.0415C15.2818 30.4264 14.6629 30.8931 13.6791 30.8749C12.504 30.8536 11.0937 30.405 10.0037 29.2936C8.91415 28.1827 8.63623 27.1358 9.02105 26.6655C9.4055 26.1955 10.427 26.4289 12.4826 26.6727C15.0038 26.9717 17.0696 26.8151 18.323 26.5017C19.5767 26.1883 21.5566 25.6611 21.5566 25.6611C22.1407 26.1741 22.4114 26.0459 22.4114 26.0459C22.4114 26.0459 21.9556 25.5614 20.7022 24.9349C19.4485 24.308 17.3544 24.4791 15.3314 24.6497C13.3088 24.8208 10.7908 25.2117 8.18039 25.3762C6.04324 25.5397 4.01153 25.344 3.26907 25.0965C2.75743 24.9258 2.45378 24.7034 2.32188 24.561C2.27659 24.5117 2.27949 24.4591 2.36681 24.4497C2.50922 24.4338 2.71467 24.4186 2.94875 24.4008C3.42705 24.3649 4.15067 24.316 5.19932 24.1997C9.10656 23.7667 11.3571 23.1398 13.7646 22.4133C16.7786 21.5038 20.1608 20.3479 21.8845 20.2196C23.3662 20.1095 23.7789 20.2765 25.5882 21.3592C27.4898 22.497 28.9214 23.5815 29.9476 24.2504C30.3553 24.5175 30.864 24.8374 31.3709 25.1204C32.0116 25.4773 32.2351 25.3016 32.2351 25.3016C31.2593 24.849 30.0313 24.0312 29.5001 23.6663C29.5001 23.6663 30.8589 22.9474 32.0449 22.3492C33.2309 21.7509 35.3354 20.8215 36.8526 20.4475C37.6697 20.2461 38.3458 20.099 39.3633 20.1482C40.3355 20.2124 41.4574 20.4559 42.5846 20.7508C43.0586 20.8747 43.9293 21.1451 44.8233 21.4016C45.8172 21.6868 46.7089 22.0212 47.372 22.2999C47.7804 22.4713 48.104 22.6184 48.3073 22.7271C48.5874 22.8764 48.774 22.9503 48.7696 23.0094C48.7653 23.0684 48.658 23.0496 48.0388 22.9557C47.3985 22.859 46.3933 22.6622 45.0327 22.3539C43.2275 21.9451 41.6951 21.6437 41.6795 21.6404C40.8656 21.4875 39.9185 21.8792 38.968 22.3173C37.4617 23.0115 36.1369 23.8236 35.5601 24.2084C34.9832 24.5928 34.5343 24.7853 34.5343 24.7853C35.9018 24.7639 37.0983 25.6824 37.7606 26.1955C38.4234 26.7083 38.8292 27.0289 39.1927 27.1141C39.214 27.1192 39.2361 27.1239 39.2593 27.1282L39.2677 27.1851C39.2767 27.3304 39.2514 27.5261 39.0785 27.6413C38.7792 27.8406 38.1668 27.983 37.6541 27.983C37.141 27.983 36.7566 28.2109 36.7566 28.2109C36.7566 28.2109 37.4686 28.1827 37.9817 28.3109C38.3643 28.4066 38.652 28.5262 38.8205 28.711L38.864 28.7892ZM36.1866 27.2424C36.5439 27.2127 36.6142 26.9434 36.6142 26.9434C36.6142 26.9434 36.4573 26.6727 36.1725 26.6583C35.9021 26.6448 35.7166 26.9434 35.7166 26.9434C35.7166 26.9434 35.8449 27.271 36.1866 27.2424Z" fill="white"/>
<path d="M39.2677 27.1851C39.2768 27.3304 39.2514 27.5261 39.0785 27.6413C38.7792 27.8406 38.1669 27.983 37.6541 27.983C37.141 27.983 36.7566 28.2109 36.7566 28.2109C36.7566 28.2109 37.4686 28.1827 37.9817 28.3109C38.3643 28.4066 38.6521 28.5262 38.8205 28.711L38.864 28.7892C38.9459 28.778 39.0271 28.7682 39.1072 28.7595C40.9019 28.5671 42.0556 28.9519 42.0556 28.9519C42.0556 28.9519 42.1201 28.1613 41.1371 27.6699C40.212 27.2072 39.6279 27.1989 39.2594 27.1282L39.2677 27.1851Z" fill="#FBAB1E"/>
<path d="M17.5719 47.3598L17.6107 46.7648L16.5591 46.3369L16.167 46.788L15.5645 46.5427L17.8455 44.0214L18.298 44.2059L18.1748 47.6047L17.5719 47.3598ZM17.731 44.9925L16.9189 45.9165L17.6545 46.2158L17.731 44.9925Z" fill="#0059AA"/>
<path d="M19.3611 47.9439L20.0956 44.8345L20.7025 44.978L20.0959 47.546L21.5066 47.879L21.3787 48.4207L19.3611 47.9439Z" fill="#0059AA"/>
<path d="M24.0465 48.7251L22.7134 48.6233L22.9565 45.4375L24.2363 45.5354C24.8581 45.5828 25.194 45.9597 25.1524 46.5054C25.1252 46.859 24.8752 47.0695 24.7081 47.133C24.8937 47.2373 25.1245 47.4573 25.0919 47.8823C25.0466 48.4776 24.615 48.7686 24.0465 48.7251ZM24.0863 47.3826L23.4374 47.333L23.3776 48.116L24.0265 48.1657C24.3085 48.187 24.4563 48.0185 24.4726 47.8037C24.4889 47.5888 24.3679 47.404 24.0863 47.3826ZM24.1447 46.0865L23.5363 46.0401L23.4801 46.7739L24.0889 46.8203C24.3527 46.8405 24.5114 46.7039 24.5284 46.4847C24.5451 46.2655 24.4085 46.1068 24.1447 46.0865Z" fill="#0059AA"/>
<path d="M26.4271 48.7628L26.2727 45.5716L26.8956 45.5415L27.0503 48.7324L26.4271 48.7628Z" fill="#0059AA"/>
<path d="M30.4177 47.9595C30.2355 48.2193 29.9876 48.3903 29.6296 48.453C29.2716 48.5157 28.9756 48.44 28.7161 48.2577C28.3418 47.9954 28.282 47.6004 28.1867 47.0569C28.0914 46.5133 28.0135 46.1213 28.2759 45.7473C28.4581 45.4875 28.7107 45.3158 29.0687 45.2531C29.4267 45.1904 29.718 45.2668 29.9775 45.4491C30.3518 45.7114 30.4163 46.1057 30.5116 46.6496C30.6069 47.1931 30.6801 47.5855 30.4177 47.9595ZM29.5876 45.9002C29.4811 45.814 29.3329 45.7716 29.1647 45.8009C28.9966 45.8307 28.8669 45.9216 28.7962 46.0386C28.7002 46.1923 28.6948 46.3437 28.8009 46.9492C28.9071 47.5547 28.9636 47.6953 29.1064 47.8066C29.2126 47.8928 29.3655 47.9345 29.5336 47.9048C29.7014 47.8758 29.8268 47.7852 29.8974 47.6681C29.9934 47.5145 30.0032 47.3627 29.897 46.7568C29.7909 46.1513 29.73 46.0118 29.5876 45.9002Z" fill="#0059AA"/>
<path d="M34.0262 47.2051L32.175 45.7843L32.8348 47.6312L32.2475 47.841L31.1724 44.8324L31.6963 44.6451L33.5465 46.0615L32.8877 44.2193L33.4751 44.0095L34.5502 47.0181L34.0262 47.2051Z" fill="#0059AA"/>
<path d="M9.10156 14.4941L8.36708 15.6116L5.69727 13.856L6.4024 12.7838C6.74519 12.2627 7.23726 12.1511 7.69455 12.4519C7.99095 12.6468 8.054 12.9675 8.029 13.1443C8.20982 13.0324 8.51419 12.9374 8.87038 13.1715C9.36898 13.4994 9.41464 14.018 9.10156 14.4941ZM6.84012 13.1309L6.50495 13.6407L7.11986 14.0451L7.45504 13.5349C7.6007 13.3139 7.55831 13.1088 7.37459 12.9882C7.19088 12.8671 6.98579 12.9095 6.84012 13.1309ZM7.94602 13.8096L7.58838 14.3531L8.2446 14.7847L8.60224 14.2408C8.75733 14.0049 8.6816 13.7937 8.50151 13.6752C8.32142 13.557 8.10147 13.5734 7.94602 13.8096Z" fill="#0059AA"/>
<path d="M11.3504 11.7181L9.98978 11.3163L9.68649 11.6467L10.6253 12.5084L10.2036 12.9679L7.84937 10.8079L8.69582 9.88569C9.13572 9.40594 9.72381 9.42188 10.1173 9.78314C10.4482 10.0864 10.4681 10.4763 10.3413 10.78L11.8385 11.1858L11.3504 11.7181ZM9.07846 10.2915L8.68096 10.7245L9.30276 11.2949L9.6999 10.8619C9.88506 10.66 9.87745 10.4093 9.69555 10.2426C9.51401 10.0759 9.26363 10.0897 9.07846 10.2915Z" fill="#0059AA"/>
<path d="M12.4638 10.6684L10.3904 8.23772L10.8651 7.83297L12.9384 10.2633L12.4638 10.6684Z" fill="#0059AA"/>
<path d="M15.2019 8.22938C15.1348 8.57542 14.95 8.83233 14.6511 9.0309C14.3667 9.21932 14.063 9.28056 13.7394 9.21498C13.5467 9.1762 13.3865 9.08851 13.2571 8.95879C13.1281 8.82907 12.9669 8.61818 12.7734 8.32649C12.5803 8.03479 12.4487 7.80434 12.3795 7.63476C12.3078 7.46155 12.2922 7.28364 12.331 7.09087C12.3965 6.76729 12.5716 6.51147 12.856 6.32304C13.4615 5.92119 14.0449 6.09476 14.4235 6.5111L13.8999 6.85824C13.6651 6.64264 13.4213 6.61582 13.1633 6.78685C13.0249 6.87853 12.9448 7.00137 12.9245 7.14957C12.9093 7.33763 12.9437 7.45467 13.2934 7.98189C13.6405 8.50549 13.7322 8.59535 13.9188 8.64934C14.0594 8.69065 14.2014 8.6613 14.3435 8.56709C14.4967 8.46527 14.5881 8.33482 14.6145 8.17176C14.6337 8.03008 14.5953 7.88333 14.4986 7.7373L14.4319 7.63621L13.942 7.96124L13.6543 7.52714L14.6602 6.86041L14.9182 7.24921C15.1762 7.63838 15.2562 7.91341 15.2019 8.22938Z" fill="#0059AA"/>
<path d="M17.9448 7.234L17.3962 6.01469L16.4103 6.45821L16.9585 7.67752L16.39 7.9337L15.0793 5.01967L15.6482 4.76385L16.1838 5.9549L17.1701 5.51102L16.6342 4.32033L17.2031 4.06451L18.5137 6.97818L17.9448 7.234Z" fill="#0059AA"/>
<path d="M19.9594 3.78731L20.654 6.33247L20.0522 6.49661L19.3579 3.95145L18.5528 4.17104L18.406 3.63403L20.6182 3.03072L20.7646 3.56736L19.9594 3.78731Z" fill="#0059AA"/>
<path d="M24.0288 5.43383C23.8327 5.68349 23.5758 5.84076 23.2149 5.88388C22.854 5.92699 22.563 5.83532 22.3134 5.63929C21.9543 5.35665 21.9159 4.95915 21.8503 4.41128C21.7847 3.86304 21.7282 3.46771 22.0104 3.10862C22.2068 2.85896 22.4681 2.70134 22.829 2.65822C23.1899 2.61473 23.4765 2.70713 23.7258 2.90317C24.0853 3.18544 24.128 3.58258 24.1936 4.13082C24.2592 4.67869 24.311 5.07474 24.0288 5.43383ZM23.3117 3.33219C23.2106 3.24052 23.0642 3.19015 22.895 3.21044C22.7257 3.23073 22.5909 3.3148 22.5141 3.42785C22.4101 3.57605 22.3964 3.72679 22.4695 4.33699C22.5424 4.94756 22.5913 5.09069 22.7275 5.2099C22.829 5.30194 22.9797 5.35158 23.149 5.33129C23.3182 5.311 23.4483 5.22766 23.5251 5.1146C23.6294 4.9664 23.6476 4.8153 23.5744 4.20473C23.5015 3.59453 23.4483 3.45177 23.3117 3.33219Z" fill="#0059AA"/>
<path d="M27.1733 5.76539L25.9971 3.74962L25.909 5.7085L25.2861 5.6806L25.4293 2.489L25.9855 2.514L27.1617 4.52506L27.2494 2.57053L27.8722 2.59843L27.7291 5.79039L27.1733 5.76539Z" fill="#0059AA"/>
<path d="M32.0084 6.75497L31.8642 6.4216C31.6892 6.49117 31.4247 6.6093 30.9859 6.47885C30.3104 6.27811 30.08 5.82553 30.251 5.24939C30.3673 4.85805 30.7268 4.68847 31.046 4.59136C30.9634 4.41236 30.8467 4.14386 30.9337 3.85108C31.0576 3.43401 31.4515 3.22783 31.9631 3.38002C32.4447 3.52315 32.6552 3.91811 32.5313 4.33554C32.4606 4.57179 32.2885 4.69391 32.0584 4.77544C32.0584 4.77544 31.8849 4.84066 31.7921 4.86929L32.1265 5.63349C32.265 5.52949 32.3675 5.35882 32.4411 5.14177L32.9701 5.29904C32.831 5.68856 32.6472 5.97555 32.3606 6.15274L32.7183 6.96586L32.0084 6.75497ZM31.2446 5.0251C31.0214 5.09902 30.8608 5.18236 30.7956 5.40194C30.7203 5.65559 30.8743 5.89329 31.1322 5.97011C31.3131 6.02374 31.4631 6.00743 31.6421 5.92482L31.2446 5.0251ZM31.8211 3.8576C31.6533 3.80759 31.5355 3.88949 31.4932 4.03153C31.4598 4.14349 31.5229 4.27901 31.5932 4.43555C31.6439 4.42287 31.7475 4.38808 31.7475 4.38808C31.8671 4.34859 31.9689 4.28988 32.0008 4.18263C32.0428 4.04059 31.9802 3.9047 31.8211 3.8576Z" fill="#0059AA"/>
<path d="M36.1214 8.71493L36.7987 7.56193L35.8663 7.01441L35.1891 8.16742L34.6514 7.85144L36.2693 5.09648L36.807 5.41245L36.1457 6.53828L37.0784 7.08616L37.7397 5.96033L38.2774 6.27594L36.6595 9.0309L36.1214 8.71493Z" fill="#0059AA"/>
<path d="M39.176 10.6068C38.86 10.6361 38.5694 10.5575 38.2896 10.3252C38.0103 10.0926 37.8769 9.8183 37.8479 9.50233C37.8059 9.04721 38.0682 8.7461 38.4212 8.32178C38.7741 7.89711 39.0227 7.5844 39.4774 7.54273C39.7934 7.51374 40.0876 7.5949 40.3674 7.82717C40.6467 8.0598 40.7768 8.33157 40.8058 8.64717C40.8478 9.10229 40.5888 9.40666 40.2358 9.83098C39.8829 10.2553 39.6311 10.5651 39.176 10.6068ZM40.2094 8.64174C40.2065 8.50477 40.1423 8.36418 40.0115 8.25511C39.8804 8.14604 39.7267 8.10618 39.5916 8.12792C39.4126 8.15401 39.2937 8.24786 38.9006 8.72037C38.5074 9.19324 38.4371 9.32695 38.444 9.50776C38.4469 9.64473 38.5143 9.78822 38.6455 9.89729C38.7766 10.0064 38.9267 10.0437 39.0614 10.0216C39.2408 9.99549 39.3633 9.90454 39.7564 9.43203C40.1496 8.95952 40.2166 8.82255 40.2094 8.64174Z" fill="#0059AA"/>
<path d="M40.6013 12.545L40.2908 12.1964L41.9739 9.28346L42.4036 9.76575L41.2764 11.6301L43.2577 10.7235L43.6907 11.2094L40.6013 12.545Z" fill="#0059AA"/>
<path d="M41.6943 13.8781L44.3649 12.1247L45.5197 13.8842L45.0548 14.1893L44.242 12.9516L43.6155 13.3628L44.3076 14.4169L43.8424 14.7224L43.1506 13.6683L42.5017 14.094L43.3141 15.3322L42.8492 15.6373L41.6943 13.8781Z" fill="#0059AA"/>
</g>
<defs>
<clipPath id="clip0_1_3045">
<rect width="51.2" height="51.2" fill="white"/>
</clipPath>
</defs>
</svg>
