<svg width="39" height="39" viewBox="0 0 52 52" fill="none" xmlns="http://www.w3.org/2000/svg">
<g clip-path="url(#clip0_1_2403)">
<path d="M51.2 25.5999C51.2 39.7395 39.7379 51.2 25.5999 51.2C11.4612 51.2 0 39.7395 0 25.5999C0 11.4618 11.4612 0 25.5999 0C39.7379 0 51.2 11.4618 51.2 25.5999Z" fill="#DBA111"/>
<path d="M50.3459 25.6C50.3459 39.2672 39.2671 50.346 25.5998 50.346C11.9324 50.346 0.853493 39.2673 0.853493 25.6C0.853493 11.9326 11.9324 0.853638 25.5998 0.853638C39.2669 0.853638 50.3459 11.9326 50.3459 25.6Z" fill="#034694"/>
<path d="M43.2347 25.6C43.2347 35.3395 35.3393 43.2337 25.5998 43.2337C15.8598 43.2337 7.96417 35.3395 7.96417 25.6C7.96417 15.8595 15.8598 7.96429 25.5998 7.96429C35.3395 7.96419 43.2347 15.8595 43.2347 25.6Z" fill="#DBA111"/>
<path d="M42.7013 25.6C42.7013 35.0448 35.0435 42.7012 25.5999 42.7012C16.1551 42.7012 8.49863 35.0447 8.49863 25.6C8.49863 16.1552 16.1551 8.49854 25.5999 8.49854C35.0437 8.49854 42.7013 16.1551 42.7013 25.6Z" fill="white"/>
<path d="M10.9467 40.3536C11.1359 40.5342 11.6014 40.9776 11.6014 40.9776L12.0477 40.5077L10.7166 39.2387L10.5453 39.4184L8.7581 41.292L9.43667 41.9378C9.43667 41.9378 10.0098 41.3368 10.2195 41.1178C10.3948 41.2842 10.8153 41.6851 10.8153 41.6851L11.2618 41.2163C11.2618 41.2163 10.842 40.8157 10.6669 40.6481C10.778 40.531 10.8344 40.4718 10.9467 40.3536Z" fill="#DBA111"/>
<path d="M14.1567 42.4934C14.0965 42.1341 13.8948 41.8167 13.5895 41.5997C13.2857 41.3839 12.921 41.2987 12.5617 41.3576C12.1747 41.4234 11.827 41.649 11.582 41.9917C11.338 42.3367 11.2394 42.7388 11.3051 43.1273C11.3655 43.4855 11.5659 43.8009 11.8702 44.0178C12.1747 44.2343 12.5421 44.3209 12.9008 44.2606C13.2876 44.1954 13.6355 43.9695 13.8796 43.6256C14.075 43.353 14.1769 43.0408 14.1769 42.7286C14.177 42.6509 14.1704 42.571 14.1567 42.4934ZM12.2453 43.4886C11.9343 43.2686 12.191 42.8086 12.3722 42.5557C12.5529 42.3007 12.9033 41.9065 13.2144 42.1263C13.539 42.3585 13.2357 42.8603 13.0901 43.0639C12.944 43.2699 12.5706 43.7208 12.2453 43.4886Z" fill="#DBA111"/>
<path d="M16.2489 43.2038C15.5326 42.8414 14.7041 43.1384 14.3236 43.8926C14.1329 44.2696 14.0957 44.6834 14.2185 45.0558C14.3319 45.4018 14.5778 45.6842 14.9111 45.8519C15.2445 46.0216 15.6197 46.0511 15.9664 45.9373C16.3385 45.8159 16.6489 45.5409 16.8384 45.1641C17.2206 44.4085 16.9666 43.5663 16.2489 43.2038ZM15.4567 45.2997C15.3727 45.3273 15.293 45.3187 15.2025 45.2737C15.0604 45.2013 15.0105 45.0719 15.0105 44.9274C15.0105 44.7274 15.1066 44.4917 15.1882 44.331C15.3295 44.0516 15.6164 43.6103 15.9569 43.7821C16.0467 43.828 16.1005 43.8875 16.1277 43.9706C16.1847 44.1425 16.1275 44.4248 15.9739 44.727C15.8212 45.0294 15.628 45.2431 15.4567 45.2997Z" fill="#DBA111"/>
<path d="M17.7282 44.241L17.5964 44.6188C17.5964 44.6188 17.9335 44.7371 18.0358 44.7709C17.9068 45.1399 17.312 46.8377 17.312 46.8377L18.1951 47.1473C18.1951 47.1473 18.7909 45.4511 18.9196 45.0821C19.0225 45.1181 19.3598 45.2353 19.3598 45.2353L19.5738 44.6254L17.8103 44.0067L17.7282 44.241Z" fill="#DBA111"/>
<path d="M21.3948 45.0603L20.2014 44.8083L20.1504 45.0511L19.617 47.584L20.8315 47.8415C21.2197 47.9216 21.4753 47.8263 21.621 47.7321C21.8061 47.6113 21.9358 47.4134 21.9856 47.1767C21.9993 47.1123 22.0059 47.0498 22.0059 46.9887C22.0059 46.8176 21.9517 46.6634 21.8537 46.5309C21.9905 46.4223 22.0881 46.2689 22.1287 46.0775C22.139 46.0281 22.1452 45.9723 22.1452 45.914C22.1452 45.5898 21.96 45.1782 21.3948 45.0603ZM21.0663 46.994C21.0536 47.0519 21.0304 47.1285 20.9865 47.1571C20.946 47.1834 20.8682 47.1867 20.7673 47.1649C20.7673 47.1649 20.7215 47.1547 20.6672 47.1441C20.7059 46.9613 20.7319 46.8397 20.7697 46.6567C20.8216 46.6688 20.888 46.6819 20.888 46.6819C21.0446 46.7149 21.0746 46.8308 21.0746 46.915C21.0747 46.9488 21.0704 46.9775 21.0663 46.994ZM20.9848 45.6384C21.0896 45.6622 21.1666 45.7007 21.1962 45.7455C21.2098 45.7661 21.2165 45.7949 21.2165 45.8289C21.2165 45.8495 21.2137 45.8733 21.2083 45.902C21.1922 45.9762 21.1705 46.0792 20.964 46.0368C20.964 46.0368 20.9383 46.03 20.9028 46.0225C20.9358 45.8692 20.9514 45.7926 20.9848 45.6384Z" fill="#DBA111"/>
<path d="M23.5981 45.4729L22.3018 48.1274L23.0421 48.1841C23.0421 48.1841 23.2424 47.7613 23.3224 47.5928C23.479 47.6058 23.636 47.6168 23.7895 47.6292C23.8469 47.8065 23.9915 48.2565 23.9915 48.2565L24.9764 48.3331L23.8759 44.9219L23.5981 45.4729Z" fill="#DBA111"/>
<path d="M26.521 47.5917C26.5046 47.2038 26.4301 45.4377 26.4301 45.4377L25.4947 45.4771L25.613 48.3113L27.4875 48.2335L27.4593 47.5534C27.4593 47.5535 26.7898 47.582 26.521 47.5917Z" fill="#DBA111"/>
<path d="M29.0866 47.3202C29.0263 46.9366 28.7526 45.1907 28.7526 45.1907L28.5075 45.23L27.827 45.336L28.2662 48.1393L30.1204 47.8482L30.0142 47.1757C30.0142 47.1757 29.3528 47.28 29.0866 47.3202Z" fill="#DBA111"/>
<path d="M34.4545 45.4346C34.4469 45.6776 34.3037 45.8869 34.0802 45.9753C33.9563 46.0246 33.838 46.0246 33.7195 45.9744C33.5377 45.8965 33.3693 45.6996 33.2681 45.4466C33.1491 45.1481 33.1249 44.8946 33.203 44.7164C33.2566 44.5917 33.3618 44.4985 33.5225 44.4341C33.6967 44.3648 33.862 44.4286 34.0887 44.5621L34.2965 44.6847L34.6418 44.1403L34.4369 44.0056C34.0603 43.7582 33.5942 43.7077 33.1909 43.8688C32.8166 44.018 32.5264 44.2972 32.3731 44.6541C32.2174 45.0162 32.2174 45.4304 32.3753 45.8233C32.6732 46.568 33.515 46.9349 34.2511 46.6402C34.7831 46.4277 35.0842 46.0236 35.1225 45.4716L35.14 45.2252L34.4624 45.1749L34.4545 45.4346Z" fill="#DBA111"/>
<path d="M36.6379 44.6604C36.4463 44.3198 35.5855 42.7757 35.5855 42.7757L35.3699 42.8973L34.7676 43.2337L36.1519 45.7104L37.7885 44.7961L37.4572 44.2016C37.4573 44.2016 36.8715 44.5281 36.6379 44.6604Z" fill="#DBA111"/>
<path d="M38.4582 40.8407L38.2576 40.9875L37.906 41.2459L39.0548 42.8118C39.1074 42.8827 39.1074 42.9301 39.1028 42.9576C39.0918 43.0384 39.0077 43.126 38.9332 43.1796C38.8981 43.2046 38.8169 43.2388 38.7338 43.2257C38.6744 43.2171 38.6276 43.1849 38.5859 43.1286L37.4505 41.5802L36.6938 42.1342L37.8237 43.6748C37.9914 43.9028 38.1996 44.0376 38.4426 44.0747C38.7152 44.1172 39.0251 44.0244 39.3131 43.8116C39.9055 43.3785 39.8958 42.8033 39.6373 42.4509L38.4582 40.8407Z" fill="#DBA111"/>
<path d="M41.9054 40.2714C41.7312 40.0907 41.5165 40.0095 41.2909 40.0218C41.2777 39.8465 41.2097 39.679 41.0742 39.5388C40.8376 39.2945 40.3085 39.1042 39.8214 39.5783L38.9452 40.4257L40.9195 42.464L41.8108 41.5999C42.0957 41.324 42.1584 41.0567 42.1611 40.884C42.1658 40.6623 42.0747 40.4454 41.9054 40.2714ZM40.4138 40.2027C40.4432 40.2341 40.4792 40.2707 40.4792 40.3216C40.4792 40.3634 40.4565 40.415 40.3881 40.4804C40.3881 40.4804 40.3696 40.4991 40.3446 40.5242C40.234 40.4095 40.1815 40.3557 40.0694 40.2404C40.267 40.0591 40.3491 40.1366 40.4138 40.2027ZM40.8813 40.9044C41.0413 40.75 41.1954 40.8857 41.2393 40.9318C41.2819 40.9744 41.3302 41.0347 41.3302 41.0868C41.3302 41.0868 41.3302 41.0868 41.3302 41.0885C41.3292 41.1366 41.2885 41.2033 41.2152 41.2745C41.2152 41.2745 41.1812 41.3076 41.1408 41.3456C41.0116 41.212 40.9243 41.1224 40.7949 40.9896C40.8331 40.9516 40.8813 40.9044 40.8813 40.9044Z" fill="#DBA111"/>
<path d="M10.9405 40.0907C11.0177 40.165 11.5942 40.7149 11.5942 40.7149L11.7843 40.5144L10.7222 39.5015L10.6794 39.5463L9.02156 41.2854L9.43 41.6752C9.43 41.6752 10.1364 40.9349 10.2124 40.8539C10.2896 40.9274 10.8093 41.4223 10.8093 41.4223L10.9998 41.2225C10.9998 41.2225 10.4801 40.7279 10.4028 40.6545C10.4718 40.5823 10.8722 40.1621 10.9405 40.0907Z" fill="white"/>
<path d="M13.4811 41.7511C13.2178 41.5637 12.9028 41.4888 12.5935 41.5405C12.254 41.5988 11.9495 41.797 11.734 42.1003C11.5178 42.4045 11.4311 42.7573 11.4888 43.0955C11.5406 43.4056 11.7148 43.6793 11.9783 43.8661C12.2432 44.0546 12.5595 44.1282 12.8701 44.0762C13.2078 44.0194 13.5127 43.8204 13.7279 43.5191C13.9 43.2761 13.9909 43.0009 13.9909 42.7283C13.9909 42.6604 13.985 42.5915 13.9739 42.5237C13.9212 42.214 13.7466 41.9396 13.4811 41.7511ZM13.2414 43.1725C13.0633 43.4216 12.5996 43.9691 12.138 43.6408C11.6781 43.3144 12.0433 42.6971 12.2207 42.4463C12.3986 42.1956 12.8625 41.6491 13.3218 41.9755C13.7834 42.3049 13.4194 42.9225 13.2414 43.1725Z" fill="white"/>
<path d="M16.165 43.3707C15.5435 43.0564 14.8235 43.3179 14.4896 43.9783C14.3214 44.3102 14.2883 44.6715 14.395 44.999C14.493 45.2965 14.7061 45.5398 14.995 45.6852C15.2847 45.8333 15.6094 45.8596 15.9085 45.7612C16.2339 45.6537 16.5056 45.4126 16.6737 45.0809C17.0066 44.4206 16.7882 43.6847 16.165 43.3707ZM15.1187 45.4388C14.6155 45.1857 14.8832 44.5199 15.0223 44.2465C15.1609 43.9717 15.5376 43.3614 16.04 43.6168C16.1738 43.6837 16.2631 43.7832 16.3057 43.9134C16.4043 44.2149 16.2443 44.6045 16.1398 44.8115C16.0358 45.017 15.8163 45.3774 15.5145 45.4763C15.3854 45.52 15.2518 45.5068 15.1187 45.4388Z" fill="white"/>
<path d="M17.9045 44.3019L17.8332 44.5037C17.8332 44.5037 18.1849 44.6273 18.273 44.6584C18.234 44.7688 17.5485 46.7234 17.5485 46.7234L18.0813 46.9106C18.0813 46.9106 18.7673 44.9561 18.8056 44.8453C18.8937 44.876 19.2454 44.9989 19.2454 44.9989L19.3373 44.7394L17.9241 44.2433L17.9045 44.3019Z" fill="white"/>
<path d="M21.3573 45.2417L20.3458 45.0282L20.3322 45.0896L19.8378 47.4418L20.8699 47.6585C21.1323 47.7134 21.3506 47.686 21.5195 47.5754C21.6655 47.4801 21.7635 47.328 21.8036 47.1387C21.8139 47.087 21.82 47.0376 21.82 46.9895C21.82 46.7838 21.718 46.6096 21.5358 46.4848C21.7467 46.4241 21.8978 46.2689 21.9463 46.0385C21.9546 46.0025 21.9596 45.96 21.9596 45.9118C21.9595 45.6765 21.8357 45.3426 21.3573 45.2417ZM21.0037 45.4499C21.1737 45.4859 21.2915 45.5509 21.3513 45.6434C21.3858 45.696 21.4028 45.7575 21.4028 45.829C21.4028 45.8639 21.3983 45.9001 21.3901 45.9394C21.3244 46.2526 21.0714 46.2493 20.9259 46.2175C20.9259 46.2175 20.7719 46.1858 20.6826 46.167C20.7033 46.0705 20.8208 45.5121 20.841 45.416C20.9056 45.4291 21.0037 45.4499 21.0037 45.4499ZM20.9259 46.4998C21.2133 46.5603 21.2586 46.787 21.2586 46.9248C21.2586 46.9839 21.2493 47.0261 21.2482 47.0331C21.2192 47.169 21.1674 47.2609 21.0878 47.3123C21.0037 47.3684 20.8825 47.3792 20.7292 47.3474C20.7292 47.3474 20.5452 47.3081 20.4467 47.2885C20.4679 47.1873 20.6055 46.5358 20.6262 46.4365C20.7105 46.4541 20.9259 46.4998 20.9259 46.4998Z" fill="white"/>
<path d="M23.7658 45.5545L22.5892 47.9628L22.9281 47.988C22.9281 47.988 23.1771 47.4646 23.2101 47.3977C23.2817 47.4032 23.8576 47.448 23.9283 47.4537C23.9508 47.5228 24.1305 48.081 24.1305 48.081L24.714 48.126L23.8402 45.4169L23.7658 45.5545ZM23.6366 46.5228C23.6935 46.7047 23.8029 47.0554 23.8391 47.1699C23.7229 47.1613 23.4552 47.1405 23.3402 47.1318C23.393 47.0235 23.5534 46.6938 23.6366 46.5228Z" fill="white"/>
<path d="M26.3423 47.7857C26.3376 47.6683 26.2512 45.6317 26.2512 45.6317L26.1911 45.6339L25.6874 45.6545L25.7909 48.1184L27.294 48.0546L27.2808 47.7471C27.281 47.7472 26.451 47.7821 26.3423 47.7857Z" fill="white"/>
<path d="M28.9322 47.5349C28.9134 47.4188 28.5972 45.4028 28.5972 45.4028L28.5369 45.4125L28.0399 45.4912L28.4219 47.9268L29.908 47.6922L29.8601 47.3878C29.86 47.388 29.0385 47.5171 28.9322 47.5349Z" fill="white"/>
<path d="M34.6396 45.4388C34.6308 45.7597 34.4425 46.0314 34.149 46.1497C33.9782 46.2177 33.8095 46.2153 33.6464 46.1453C33.4167 46.0481 33.216 45.8179 33.0944 45.5158C32.9575 45.1708 32.9354 44.8687 33.0311 44.6428C33.1055 44.472 33.2469 44.3441 33.4537 44.2621C33.7243 44.1537 33.9727 44.2772 34.1829 44.402L34.2355 44.4327L34.3867 44.1952L34.3361 44.161C34.0098 43.9473 33.6069 43.9027 33.2601 44.0416C32.9314 44.1733 32.6763 44.4163 32.5438 44.7274C32.4079 45.0425 32.4092 45.4083 32.5482 45.7531C32.8076 46.4038 33.5399 46.7233 34.183 46.4671C34.6494 46.2799 34.9025 45.9416 34.9364 45.4586L34.9408 45.3964L34.6431 45.3758L34.6396 45.4388Z" fill="white"/>
<path d="M36.5658 44.9133C36.5077 44.8115 35.5134 43.0299 35.5134 43.0299L35.4586 43.0604L35.0207 43.3056L36.2219 45.4567L37.535 44.7235L37.3856 44.4543C37.3858 44.4545 36.6587 44.8595 36.5658 44.9133Z" fill="white"/>
<path d="M38.4176 41.1003L38.3669 41.1375L38.1656 41.2854L39.2048 42.7013C39.2744 42.7966 39.3017 42.8917 39.2869 42.9849C39.2621 43.1536 39.1085 43.283 39.0441 43.329C38.9704 43.3846 38.8355 43.4306 38.7064 43.4096C38.5968 43.3934 38.5069 43.3355 38.4349 43.239L37.4089 41.8396L36.9545 42.1747L37.9738 43.5641C38.1109 43.7516 38.2784 43.8621 38.4708 43.8906C38.7744 43.9365 39.0593 43.7675 39.2025 43.663C39.6943 43.3014 39.7009 42.8491 39.4884 42.5613L38.4176 41.1003Z" fill="white"/>
<path d="M41.7716 40.4008C41.5809 40.2035 41.3368 40.1585 41.0837 40.2558C41.1037 40.1968 41.1157 40.1366 41.1157 40.0764C41.1157 39.93 41.0574 39.7872 40.9402 39.6666C40.7815 39.5035 40.3707 39.3018 39.9506 39.7104L39.2079 40.4299L40.9224 42.1999L41.6817 41.4638C41.8731 41.2799 41.973 41.0817 41.9754 40.8813C41.9784 40.7063 41.9073 40.5407 41.7716 40.4008ZM40.6645 40.3239C40.6645 40.4479 40.5837 40.5496 40.5186 40.6132C40.5186 40.6132 40.4048 40.7238 40.3405 40.7872C40.2712 40.7161 39.8739 40.3067 39.8059 40.2341C39.852 40.1895 39.9246 40.1203 39.9246 40.1203C40.1566 39.8943 40.3603 39.8794 40.5473 40.0731C40.6329 40.1621 40.6645 40.2461 40.6645 40.3239ZM41.1367 41.6083C41.0664 41.536 40.6032 41.0565 40.5321 40.9842C40.5933 40.9252 40.7519 40.7709 40.7519 40.7709C41.0545 40.4793 41.3611 40.7883 41.3742 40.8027C41.4695 40.9011 41.5163 40.9943 41.5163 41.0869C41.5163 41.0886 41.5163 41.0896 41.5163 41.0905C41.5151 41.1922 41.4561 41.2988 41.3442 41.4094C41.3445 41.4094 41.1967 41.5515 41.1367 41.6083Z" fill="white"/>
<path d="M14.2263 8.7354L13.1916 9.01448L13.3104 9.38511C13.4533 9.83448 13.3239 10.305 12.9737 10.6121C12.7788 10.783 12.5538 10.8614 12.3056 10.8444C11.9285 10.8191 11.5029 10.575 11.1675 10.1911C10.7722 9.73829 10.575 9.30239 10.6 8.93294C10.6175 8.66356 10.7485 8.42692 10.9998 8.20676C11.2773 7.96366 11.6293 7.97314 12.1068 8.06782L12.461 8.13783L12.6899 7.14679L12.3334 7.05987C11.5669 6.87019 10.7674 7.05652 10.1971 7.55576C9.08016 8.53312 8.98903 10.1293 9.98524 11.2685C10.911 12.3269 12.5173 12.4422 13.5642 11.5265C14.3183 10.8678 14.581 10.0251 14.3249 9.09203L14.2263 8.7354Z" fill="#DBA111"/>
<path d="M17.0363 3.54527L15.9793 4.04299C15.9793 4.04299 16.5693 5.2934 16.7721 5.72435C16.4707 5.86609 16.1787 6.00407 15.8769 6.14657C15.6733 5.71594 15.0829 4.465 15.0829 4.465L13.6912 5.12203L15.8107 9.61784L17.2036 8.96114C17.2036 8.96114 16.5469 7.5706 16.3357 7.11973C16.6374 6.97852 16.9292 6.84065 17.2315 6.69826C17.4434 7.14784 18.0992 8.53859 18.0992 8.53859L19.4918 7.88145L17.373 3.38672L17.0363 3.54527Z" fill="#DBA111"/>
<path d="M21.7486 6.33057C21.6807 5.99581 21.6118 5.65523 21.5448 5.3209C21.9748 5.2344 23.1173 5.00369 23.1173 5.00369L22.9164 4.00511C22.9164 4.00511 21.7732 4.23615 21.3429 4.32307C21.281 4.01696 21.2297 3.75986 21.1674 3.45418C21.6139 3.36413 22.8366 3.11704 22.8366 3.11704L22.6351 2.1189L22.2693 2.19235L19.4567 2.76117L20.44 7.63364L23.6441 6.98588L23.4428 5.98827C23.4428 5.98827 22.1981 6.23912 21.7486 6.33057Z" fill="#DBA111"/>
<path d="M26.2933 2.0033L24.7524 1.97131L24.7447 2.34291L24.6484 6.94062L27.883 7.00847L27.9061 5.93191C27.9061 5.93191 26.6643 5.9052 26.2105 5.89594C26.2235 5.28738 26.2933 2.0033 26.2933 2.0033Z" fill="#DBA111"/>
<path d="M31.2865 4.51005C30.8868 4.21643 30.7698 4.0987 30.8102 3.93832C30.83 3.85517 30.9206 3.58967 31.2078 3.66075C31.3805 3.70513 31.5524 3.79615 31.629 4.16796L31.7131 4.5807L32.7306 4.23689L32.6672 3.91656C32.5421 3.28743 32.01 2.7519 31.3421 2.58506C30.8637 2.46625 30.3842 2.5298 29.9906 2.76622C29.6294 2.98261 29.3753 3.32416 29.2748 3.72839C29.0194 4.74733 29.7063 5.23795 30.1604 5.56302C30.626 5.89595 30.7444 6.02628 30.6733 6.30438C30.651 6.39131 30.5998 6.45992 30.5197 6.50849C30.4265 6.56332 30.3096 6.58314 30.2144 6.55836C29.9698 6.49816 29.864 6.38258 29.7609 6.06624L29.6359 5.68699L28.6151 6.10448L28.7139 6.42857C28.9053 7.05835 29.3622 7.45526 30.11 7.64257C30.9503 7.85282 31.9698 7.46636 32.2238 6.45733C32.4887 5.39413 31.7651 4.86139 31.2865 4.51005Z" fill="#DBA111"/>
<path d="M34.9625 7.161C35.3547 7.35918 36.3941 7.88481 36.3941 7.88481L36.8538 6.97595C36.8538 6.97595 35.8135 6.45032 35.4227 6.25279C35.5626 5.97403 35.6812 5.73966 35.8209 5.46144C36.2265 5.66631 37.3414 6.22974 37.3414 6.22974L37.7998 5.32088L34.9066 3.85883L34.7393 4.19003L32.664 8.29475L35.5814 9.76822L36.0414 8.8599C36.0414 8.8599 34.9078 8.28721 34.4982 8.08095C34.6516 7.77591 34.8091 7.46614 34.9625 7.161Z" fill="#DBA111"/>
<path d="M40.7246 7.62522L36.0886 10.024L36.9755 10.7953C36.9755 10.7953 37.7407 10.3885 38.0188 10.2425C38.2256 10.4226 38.5304 10.6877 38.7339 10.8645C38.6341 11.1603 38.3507 11.9919 38.3507 11.9919L39.5726 13.055L41.5547 7.21033L40.7246 7.62522Z" fill="#DBA111"/>
<path d="M14.0526 9.03784L13.5062 9.18637L13.5462 9.31002C13.7199 9.85547 13.5632 10.426 13.1362 10.7994C12.8909 11.0146 12.605 11.1132 12.289 11.0928C11.8412 11.0628 11.3649 10.7939 10.9805 10.3543C10.5409 9.85105 10.323 9.35354 10.3519 8.91537C10.3745 8.58266 10.5376 8.28129 10.8366 8.01977C11.2292 7.67649 11.7235 7.73929 12.1551 7.8247L12.2736 7.84765L12.3932 7.32968L12.2744 7.30006C11.5855 7.13095 10.8706 7.29629 10.3603 7.74307C9.35061 8.62737 9.26951 10.0716 10.1723 11.1048C11.0079 12.0602 12.4562 12.1649 13.4017 11.3392C14.0873 10.7379 14.3177 10.0049 14.0854 9.15795L14.0526 9.03784Z" fill="white"/>
<path d="M17.1418 3.76856L16.3103 4.1617C16.3103 4.1617 17.0103 5.64713 17.1024 5.84241C16.9245 5.92674 15.9368 6.3928 15.7575 6.4765C15.6656 6.28089 14.9661 4.79558 14.9661 4.79558L14.0209 5.24085L15.929 9.28697L16.8735 8.84234C16.8735 8.84234 16.0989 7.20031 16.0056 7.00158C16.1847 6.91724 17.1712 6.45237 17.3503 6.36771C17.4434 6.56589 18.2183 8.2089 18.2183 8.2089L19.1616 7.7632L17.2536 3.71643L17.1418 3.76856Z" fill="white"/>
<path d="M21.5538 6.62278C21.5151 6.42837 21.2914 5.32132 21.2527 5.12691C21.4596 5.08533 22.825 4.80938 22.825 4.80938L22.7217 4.29819C22.7217 4.29819 21.3567 4.57296 21.1486 4.61507C21.1108 4.42442 20.9138 3.4504 20.876 3.25997C21.0845 3.21721 22.5443 2.92327 22.5443 2.92327L22.4408 2.41187L19.7491 2.95504L20.6345 7.34056L23.3519 6.79199L23.2486 6.28059C23.2484 6.2807 21.7641 6.58024 21.5538 6.62278Z" fill="white"/>
<path d="M26.0396 2.24661L24.9961 2.224L24.9939 2.34722L24.9015 6.6973L27.6409 6.75535L27.6531 6.17469C27.6531 6.17469 26.1701 6.14335 25.9577 6.13882C25.9631 5.90671 26.0396 2.24661 26.0396 2.24661Z" fill="white"/>
<path d="M31.268 3.42077C31.5997 3.50382 31.7913 3.72548 31.8725 4.11808L31.9008 4.25531L32.445 4.07134L32.4244 3.96395C32.3169 3.42788 31.8583 2.9699 31.2823 2.82503C30.8681 2.72174 30.4556 2.77591 30.1192 2.97787C29.815 3.16076 29.6004 3.44888 29.5158 3.78871C29.3015 4.64339 29.8586 5.04148 30.3054 5.36084C30.7576 5.68429 31.0302 5.9051 30.9141 6.36384C30.868 6.5548 30.7433 6.66392 30.6471 6.72133C30.498 6.81062 30.3152 6.83851 30.1545 6.79909C29.8245 6.71637 29.6547 6.53897 29.5259 6.14325L29.4839 6.0168L28.919 6.24719L28.9519 6.35565C29.116 6.89539 29.5151 7.23758 30.1718 7.40194C30.8932 7.58214 31.7675 7.25567 31.9829 6.39626C32.2074 5.49548 31.6161 5.05958 31.1375 4.70974C30.7313 4.40987 30.486 4.20942 30.5695 3.87811C30.6426 3.58191 30.8879 3.32556 31.268 3.42077Z" fill="white"/>
<path d="M35.7116 5.12869C35.9021 5.22445 37.2306 5.8958 37.2306 5.8958L37.467 5.42974L35.0166 4.19183L34.9605 4.30234L32.9983 8.18539L35.4717 9.43536L35.7073 8.96952C35.7073 8.96952 34.357 8.28675 34.1657 8.1897C34.2549 8.01241 34.7644 7.00565 34.853 6.82825C35.0415 6.92346 36.2841 7.55141 36.2841 7.55141L36.521 7.08535C36.521 7.08535 35.277 6.45794 35.0885 6.36219C35.1762 6.1892 35.6242 5.30167 35.7116 5.12869Z" fill="white"/>
<path d="M40.8386 7.84602L36.5275 10.0771L37.0093 10.496C37.0093 10.496 37.9236 10.0113 38.0529 9.94281C38.1602 10.0365 38.9179 10.6957 39.023 10.7871C38.9773 10.9234 38.6387 11.9135 38.6387 11.9135L39.4568 12.6248L41.1226 7.71289L40.8386 7.84602ZM38.5521 9.68614C38.756 9.58069 39.2769 9.31001 39.5947 9.14468C39.4764 9.48246 39.2815 10.0387 39.2067 10.2552C39.0414 10.1104 38.7176 9.82907 38.5521 9.68614Z" fill="white"/>
<path d="M37.8303 24.9283C37.4767 23.9919 36.2592 23.585 35.1084 24.0194C34.6285 24.2 34.2355 24.5018 33.9675 24.8581C34.7274 22.6892 37.8228 22.229 37.8228 20.2112C37.8228 16.8293 33.02 17.7766 33.7188 20.2117C33.7188 19.1068 35.4773 18.9043 35.4773 20.2117C35.4773 21.5193 32.4111 22.3768 32.4111 24.5858C32.4111 27.021 34.8467 27.2464 34.6002 29.4736C34.5583 29.8576 34.1453 30.3622 33.5475 30.3622C29.817 30.3622 31.1487 25.7699 29.8452 24.3725L29.9134 23.4289C30.6669 23.891 32.6661 22.8085 31.35 21.1584C31.35 21.9699 29.6603 21.925 29.6603 20.3918C29.6603 18.3173 31.5997 19.3998 31.694 19.8579C31.601 19.1024 31.5659 18.623 31.6906 18.1876C30.6451 18.5248 30.5473 17.9204 30.6795 17.6866C30.831 17.4161 31.0336 17.1002 31.4409 17.1002C31.6611 17.1002 31.7933 17.1309 31.8711 17.1845C32.0014 17.2736 32.0966 17.0702 32.0779 17.2594C32.1898 17.0891 32.145 17.3017 32.253 17.1309C32.3629 16.9613 32.511 16.7694 32.7713 16.5138L32.7601 16.1311L33.0647 16.2428L33.3571 15.7699C33.0415 15.1155 32.6133 15.4307 32.2979 14.6194C32.0341 14.5509 27.9259 14.9977 28.0451 13.3589C27.7101 13.3589 26.9166 13.5424 27.4076 14.2097C27.0258 14.2557 26.7506 13.8221 26.175 14.9949C26.896 14.8597 26.5228 15.6657 26.5228 15.895C26.5228 17.381 24.5446 17.3559 24.5446 16.6599C24.0679 17.1231 24.3383 18.1362 25.0593 18.3857C25.0593 18.3857 24.7851 19.4693 24.1083 20.1563C23.1036 20.1162 21.4917 19.9416 20.5644 19.065C20.1645 18.6873 19.8469 18.4815 19.5765 18.3757V17.8845C19.9724 17.6908 20.4066 17.3478 20.8578 16.7747C21.2098 16.3448 21.4003 15.7936 21.3491 15.2082C21.3424 15.1383 21.3321 15.0692 21.3198 15.0019C21.316 14.9805 21.3107 14.9597 21.3058 14.9384C21.2959 14.8912 21.2844 14.8459 21.2708 14.7993C21.2642 14.7768 21.258 14.7537 21.2509 14.7314C21.2356 14.6847 21.2188 14.64 21.2006 14.5956C21.193 14.577 21.1876 14.5572 21.1787 14.5397C21.1536 14.4799 21.1256 14.4237 21.0953 14.3671C21.0824 14.3441 21.0687 14.3227 21.0561 14.3016C21.0353 14.2675 21.0156 14.2331 20.9937 14.2002C20.9761 14.1742 20.9575 14.1478 20.9389 14.1215C20.9197 14.0964 20.8995 14.0706 20.8798 14.0454C20.8579 14.0185 20.8364 13.99 20.813 13.9633C20.7975 13.9456 20.7807 13.9286 20.7643 13.9123C20.7057 13.8476 20.6422 13.7874 20.5758 13.7299C20.5703 13.7251 20.5637 13.719 20.5573 13.714C20.5202 13.6823 20.4807 13.6521 20.4418 13.6232C20.4319 13.6157 20.4216 13.6084 20.4105 13.6006C20.3689 13.5713 20.3264 13.5427 20.282 13.5153C20.2793 13.5136 20.2768 13.5125 20.2749 13.5106C19.8526 13.2521 19.3424 13.1168 18.8035 13.1595C17.5061 13.2628 16.5416 14.3469 16.65 15.5811C16.7343 16.5426 17.4435 17.3106 18.3655 17.5555C18.042 17.736 17.7688 17.8402 17.7071 17.8402C17.7173 17.8467 17.7306 17.8544 17.7452 17.8638C17.749 17.8655 17.7534 17.8682 17.7579 17.8704C17.7704 17.8785 17.7853 17.8868 17.8004 17.895C17.8042 17.8972 17.8089 17.8993 17.8125 17.9016C17.8333 17.912 17.8547 17.9229 17.8789 17.9344C17.8826 17.9361 17.8872 17.9375 17.8909 17.9394C17.9123 17.9493 17.934 17.9596 17.9571 17.9685C17.9637 17.9715 17.9708 17.9742 17.9779 17.9765C18.0343 18.0001 18.0978 18.0214 18.1673 18.0412C18.1772 18.0439 18.1877 18.0461 18.1962 18.0488C18.2243 18.0559 18.2528 18.0625 18.2824 18.0696C18.2921 18.0713 18.302 18.0734 18.3124 18.0755C18.3497 18.0822 18.3887 18.0888 18.4278 18.0935C18.4311 18.0935 18.4344 18.0952 18.4377 18.0952V18.3745C18.423 18.3777 18.4098 18.3792 18.3961 18.3814C17.9741 18.4509 17.6998 18.5808 17.5759 18.9565C17.4527 19.3336 17.5792 19.4698 17.7769 19.7343C17.6099 20.0328 17.1724 20.1444 17.7434 20.8038C17.7018 21.0528 17.7545 21.4494 18.1169 21.5697C18.2352 21.6098 18.3337 21.6311 18.4377 21.6491L18.4372 26.5926C18.0757 26.7841 17.8973 27.023 17.7987 27.2456C17.7987 27.2456 17.5085 26.6014 17.5277 27.8775C17.8574 27.6217 17.7276 28.1737 17.7276 28.1737C17.2786 28.7554 17.8489 28.7238 17.8489 28.7238C18.2355 28.3376 18.1567 28.8988 18.1567 28.8988C18.1567 29.5833 18.4347 29.8512 18.4371 29.8523V33.6184L18.1087 33.6193L18.1118 34.6585L18.6861 34.6575C18.3638 34.7913 18.1512 35.1096 18.1822 35.4614C18.2212 35.9048 18.6308 36.2343 19.0973 36.1983C19.5634 36.1609 19.9098 35.7721 19.87 35.3276C19.8437 35.0209 19.6404 34.7705 19.364 34.6555L19.894 34.654L19.8918 33.6148L19.5757 33.6163L19.5762 30.2749C19.6414 30.3107 19.7118 30.3355 19.7883 30.3522C19.8188 30.3579 19.849 30.3621 19.8802 30.3641C19.8939 30.3663 19.9081 30.3663 19.9218 30.3667C19.8368 29.9275 20.0992 29.6363 20.0992 29.6363C20.2339 29.4335 20.4287 29.2754 20.6505 29.1638C21.3137 28.8311 22.2187 28.9152 22.4891 29.4569C24.2029 29.0052 25.6756 27.2825 25.6756 27.2825L26.5192 28.7183C24.7307 29.3163 20.835 32.7029 23.5392 33.8759C23.5382 34.2173 23.4924 36.7513 21.8675 36.55C19.5274 36.2618 18.9439 37.23 19.3932 38.3184C19.182 39.2362 19.8888 39.5548 19.8888 39.5548C19.7827 39.0246 20.0376 38.5854 21.0048 38.591C20.9998 39.5581 21.6244 39.7325 21.6244 39.7325C21.6289 38.9043 22.2043 38.5976 22.7156 38.5998C22.7119 39.2823 23.5047 39.5417 23.5047 39.5417C23.5047 39.5417 23.3037 38.7552 24.2 38.5998C26.4688 38.2045 24.338 35.8711 27.7882 35.2281C27.7882 35.2281 26.0702 34.969 26.0702 34.0298C26.0702 33.1749 27.6254 32.5904 28.1608 32.5904C29.2589 34.6885 30.4519 34.7051 30.7646 34.72C31.2509 35.2632 31.0879 37.0941 30.3859 37.0581C27.8158 36.9201 27.9098 38.4834 28.1979 38.8032C28.165 39.41 28.6371 39.7605 28.6371 39.7605C28.6371 39.1101 29.256 38.9272 30.0497 38.9701C30.008 39.7647 30.5143 39.8834 30.5143 39.8834C30.5281 39.0838 31.1197 38.9482 31.54 38.9701C31.5093 39.5306 32.0655 39.6956 32.0655 39.6956C32.0655 39.6956 32.0108 38.9843 32.7596 38.9843C34.1801 38.9833 32.1171 35.9391 34.8894 32.9284C32.4541 34.0557 31.1585 31.2378 31.1585 30.6969C32.4102 32.1617 36.4685 32.4541 36.4685 29.952C36.4685 27.5617 33.8413 26.6711 35.0705 25.7568C35.7854 25.2253 37.1912 26.2992 36.3868 27.4085C37.5403 26.9811 38.1832 25.8642 37.8303 24.9283ZM22.2638 25.0036C21.3457 25.5435 20.7301 26.2265 19.8931 26.5252C19.766 26.5698 19.6646 26.5825 19.5765 26.5768V21.9113C19.7983 21.932 20.3738 22.0108 21.0467 22.289C21.7131 22.6526 21.7131 23.4042 20.8721 23.5824C21.4036 24.6001 23.2449 24.1019 23.6463 23.2729C23.8428 23.2555 24.0166 23.6064 24.18 23.9382C23.9216 24.0724 23.3928 24.3391 22.2638 25.0036ZM32.5403 17.2693C32.4393 17.4063 32.3397 17.5426 32.2525 17.6593C32.4854 18.0463 32.9234 18.2882 33.4034 18.2439C34.0666 18.1811 34.5549 17.5923 34.4939 16.9284C34.4904 16.9043 34.487 16.8825 34.4838 16.8589C34.4127 17.2027 34.0075 17.4939 33.4921 17.5415C33.1019 17.5781 32.7486 17.4661 32.5403 17.2693Z" fill="#D1D3D4"/>
<path d="M31.5099 16.9163C31.741 17.3033 32.1802 17.5452 32.66 17.5005C33.3244 17.4384 33.8113 16.8494 33.7506 16.1847C33.7481 16.1612 33.7438 16.1386 33.7407 16.1151C33.6702 16.4585 33.2631 16.7504 32.7488 16.7981C32.3575 16.8347 32.0047 16.7225 31.7964 16.5259C31.696 16.6634 31.5953 16.7995 31.5099 16.9163Z" fill="#ED1C24"/>
<path d="M27.9554 11.8466C27.9363 11.8466 27.917 11.854 27.8943 11.8619C27.4773 11.9499 26.1973 12.8308 26.6645 13.4659C26.281 13.5112 25.3905 13.2484 24.8161 14.4207C25.5378 14.2848 25.7785 14.9243 25.7785 15.1539C25.7785 16.0238 25.1027 16.3727 24.5412 16.376C24.1652 16.377 23.8428 16.2239 23.8079 15.9635C23.8095 15.9559 23.8061 15.9484 23.8079 15.9406C23.8074 15.9399 23.8003 15.9416 23.8003 15.9406H23.785C23.3371 16.4132 23.6092 17.398 24.3196 17.6439C24.3196 17.6439 24.0417 18.7289 23.3649 19.416C22.6911 19.3898 21.7503 19.2981 20.9207 18.9806C20.6885 18.8923 20.4687 18.7814 20.2638 18.6521C20.1057 18.5541 19.9541 18.4492 19.8208 18.3237C19.4211 17.946 19.1055 17.7409 18.8355 17.6363V17.1398C19.2314 16.9456 19.6675 16.6054 20.1187 16.0323C20.4712 15.6028 20.659 15.0523 20.6075 14.4665C20.602 14.3965 20.5909 14.3288 20.577 14.2603C20.5739 14.2389 20.5662 14.2205 20.5617 14.1991C20.5514 14.152 20.5447 14.0994 20.5312 14.054C20.525 14.0309 20.5163 14.0082 20.5082 13.9853C20.4934 13.9385 20.4722 13.8998 20.4548 13.8554C20.447 13.8366 20.4472 13.813 20.4395 13.7943C20.4138 13.7357 20.3852 13.6815 20.3555 13.6263C20.3436 13.6027 20.3297 13.5801 20.3173 13.5575C20.2965 13.5237 20.2702 13.4911 20.2485 13.4583C20.2306 13.432 20.2144 13.408 20.1951 13.3819C20.176 13.3568 20.1543 13.3296 20.134 13.3055C20.1122 13.2769 20.0965 13.2482 20.0729 13.2215C20.0576 13.2038 20.0359 13.1848 20.0194 13.168C19.9602 13.1039 19.9022 13.0411 19.8361 12.9847C19.8294 12.9793 19.8198 12.9742 19.8132 12.9694C19.776 12.9382 19.7386 12.9062 19.6986 12.8778C19.688 12.8709 19.6784 12.862 19.6681 12.8548C19.6258 12.8248 19.5828 12.7985 19.5382 12.7708C19.5356 12.7696 19.533 12.7718 19.5306 12.7708C19.1086 12.511 18.6027 12.3774 18.0641 12.4195C17.9481 12.4287 17.8307 12.4494 17.7203 12.4729C16.5989 12.7214 15.8111 13.7173 15.9101 14.8407C15.994 15.7924 16.6831 16.5507 17.5905 16.8037C17.5998 16.8063 17.6113 16.809 17.621 16.8114C17.297 16.9919 17.0262 17.094 16.9642 17.094C16.9747 17.1007 16.9876 17.1146 17.0024 17.1245C17.0061 17.1262 17.0133 17.1222 17.0176 17.1245C17.0307 17.1321 17.0395 17.1464 17.0558 17.1551C17.0598 17.1573 17.0666 17.1536 17.0711 17.1551C17.0905 17.1654 17.1087 17.1817 17.1322 17.1933C17.1365 17.1945 17.1441 17.1985 17.1475 17.2009C17.1681 17.2106 17.1922 17.2139 17.2162 17.2238C17.2228 17.2266 17.2244 17.2288 17.2315 17.2315C17.2891 17.2542 17.3522 17.2806 17.4225 17.3002C17.4322 17.3024 17.4431 17.3051 17.453 17.3078C17.4803 17.315 17.5075 17.317 17.537 17.3231C17.5469 17.3258 17.5571 17.3285 17.5676 17.3308C17.6047 17.3379 17.642 17.3488 17.6822 17.3537C17.685 17.3537 17.6946 17.3517 17.6974 17.3537V17.6286C17.6843 17.6306 17.6658 17.6336 17.6516 17.6363C17.2306 17.7052 16.958 17.8404 16.8343 18.2168C16.7111 18.5939 16.8354 18.7313 17.0329 18.9959C16.8648 19.2932 16.4325 19.4054 17.0024 20.0652C16.9619 20.3137 17.0146 20.7085 17.3766 20.829C17.4952 20.8691 17.5939 20.8869 17.6974 20.9054V25.8472C17.3355 26.039 17.1537 26.2812 17.0558 26.5041C17.0558 26.5041 16.364 26.4112 16.3837 27.688C16.7132 27.4309 16.9871 27.4283 16.9871 27.4283C16.5387 28.0094 16.8572 28.5435 16.8572 28.5435C17.2438 28.1562 17.4148 28.1539 17.4148 28.1539C17.4148 28.8412 17.6974 29.1087 17.6974 29.1087V32.8743H17.369V33.3555V33.913H17.9418C17.8717 33.9423 17.8085 33.9817 17.7509 34.0276C17.5525 34.1786 17.4305 34.4119 17.4377 34.6692V34.715C17.4772 35.1595 17.8873 35.4943 18.3543 35.4559C18.8199 35.4195 19.1642 35.0286 19.1258 34.5852C19.0985 34.2797 18.898 34.0281 18.6216 33.913H19.1487V32.8743H18.8355V29.5288C18.9012 29.5628 18.9669 29.5904 19.0417 29.6052C19.0738 29.6125 19.1099 29.6169 19.141 29.6204C19.1547 29.6206 19.1655 29.6199 19.1792 29.6204C19.0942 29.1814 19.3549 28.8948 19.3549 28.8948C19.4907 28.6916 19.684 28.5331 19.9048 28.4213C20.5689 28.0883 21.4752 28.17 21.7456 28.7115C23.4595 28.2604 24.9307 26.5423 24.9307 26.5423L25.7785 27.9706C23.9896 28.5694 20.0956 31.96 22.7997 33.1339C22.7984 33.4743 22.751 36.0064 21.1269 35.8073C18.7874 35.5178 18.2031 36.4833 18.6522 37.5717C18.4402 38.4905 19.1487 38.809 19.1487 38.809C19.043 38.2795 19.2969 37.842 20.2638 37.8466C20.2586 38.8136 20.8825 38.9924 20.8825 38.9924C20.8859 38.1631 21.4628 37.8513 21.9748 37.8543C21.9714 38.5367 22.7615 38.8014 22.7615 38.8014C22.7615 38.8014 22.5593 38.0096 23.4565 37.8543C25.7246 37.459 23.596 35.1299 27.0464 34.4859C27.0464 34.4859 25.3279 34.2269 25.3279 33.2867C25.3279 32.4332 26.8785 31.8508 27.4131 31.8508C27.4136 31.852 27.4201 31.8495 27.4207 31.8508C28.5187 33.9395 29.7135 33.9581 30.0253 33.9741C30.5113 34.5162 30.3454 36.3482 29.6434 36.3114C27.0733 36.1745 27.1633 37.7407 27.4512 38.0605C27.4193 38.6683 27.8943 39.0153 27.8943 39.0153C27.8943 38.3644 28.5136 38.1867 29.3073 38.2285C29.2646 39.0224 29.7732 39.1375 29.7732 39.1375C29.7851 38.3377 30.3758 38.2064 30.7967 38.2285C30.7673 38.7903 31.3238 38.9542 31.3238 38.9542C31.3238 38.9542 31.2705 38.2447 32.0188 38.2438C33.4398 38.2438 31.3759 35.1974 34.1498 32.1868C31.7146 33.3147 30.4148 30.4974 30.4148 29.9565C31.6667 31.4218 35.7309 31.7094 35.7309 29.208C35.7309 27.1897 33.8573 26.2392 34.0124 25.4424C34.0408 25.296 34.135 25.1571 34.3255 25.0147C35.0414 24.4826 36.4472 25.5569 35.6469 26.6645C36.7993 26.237 37.4421 25.1178 37.0905 24.1821C36.7358 23.2457 35.5137 22.839 34.3637 23.2732C33.8819 23.455 33.4933 23.7564 33.2256 24.1134C33.9842 21.9446 37.0829 21.488 37.0829 19.4694C37.0829 16.0874 32.2748 17.0342 32.9736 19.4694C32.9736 19.4328 32.9767 19.3977 32.9812 19.3625C32.988 19.2994 33.0014 19.2431 33.0194 19.1868C33.2895 18.3427 34.738 18.2831 34.738 19.4694C34.738 20.777 31.6675 21.6361 31.6675 23.846C31.6675 26.2813 34.1059 26.5004 33.8596 28.7268C33.8179 29.1122 33.4033 29.6204 32.8055 29.6204C31.5237 29.6204 30.8361 29.0755 30.4377 28.3067C29.6776 26.8383 29.9569 24.5487 29.1011 23.6322L29.1698 22.6851C29.9238 23.1477 31.927 22.0667 30.6134 20.4165C30.6134 21.2289 28.9177 21.1776 28.9177 19.6451C28.9177 17.5706 30.8552 18.6604 30.9495 19.1181C30.8564 18.363 30.8221 17.8791 30.9495 17.4453C29.9029 17.7815 29.8034 17.1757 29.9336 16.9412C30.0868 16.6702 30.2908 16.3531 30.6974 16.3531C31.2852 16.3531 31.2477 16.5685 31.2168 16.8725C31.4413 16.533 31.5041 16.2835 32.0264 15.7726L32.0188 15.3907L32.3244 15.4976L32.6146 15.0241C32.2994 14.3697 31.8696 14.6903 31.5529 13.8783C31.2903 13.8094 27.8358 13.486 27.9554 11.8466ZM18.2092 14.0922C18.5311 14.0665 18.8157 14.2963 18.8431 14.604C18.8699 14.9101 18.631 15.1818 18.3085 15.2074C17.9853 15.2333 17.7003 15.0029 17.6745 14.6956C17.6674 14.6141 17.6776 14.5391 17.7051 14.4665C17.7051 14.4648 17.7043 14.4595 17.7051 14.4588C17.7082 14.4479 17.7168 14.4391 17.7203 14.4283C17.8047 14.2477 17.9875 14.1101 18.2092 14.0922ZM23.785 16.3378C23.805 16.4565 23.8485 16.5619 23.9072 16.6586C23.8486 16.5618 23.8048 16.4566 23.785 16.3378ZM33.6381 18.423C33.4987 18.4977 33.3676 18.5967 33.2638 18.7133C33.3684 18.5948 33.4969 18.4985 33.6381 18.423ZM18.8355 21.1651C19.0573 21.1864 19.6302 21.2698 20.302 21.547C20.3098 21.5507 20.3183 21.5502 20.3249 21.5546C20.971 21.923 20.9581 22.6631 20.1263 22.8378C20.6569 23.8564 22.5054 23.3612 22.9066 22.5323C23.1022 22.5148 23.2699 22.8656 23.4336 23.1968C23.1757 23.3312 22.6526 23.5938 21.5241 24.2585C20.6059 24.799 19.9859 25.4802 19.1487 25.7785C19.0211 25.8247 18.923 25.8368 18.8355 25.8319V21.1651ZM17.3537 26.5576C17.3303 26.5745 17.3094 26.5993 17.2926 26.6187C17.3113 26.596 17.3262 26.5769 17.3537 26.5576ZM16.6816 27.0999C16.597 27.195 16.5203 27.2946 16.4677 27.3978C16.5194 27.2962 16.5986 27.1939 16.6816 27.0999ZM34.738 28.6198C34.7421 28.6839 34.7456 28.7513 34.7456 28.8184C34.7456 28.8516 34.7372 28.8993 34.7303 28.9559C34.7372 28.8993 34.738 28.8516 34.738 28.8184C34.738 28.7488 34.7424 28.6863 34.738 28.6198ZM34.4783 29.6204C34.4487 29.6617 34.4154 29.703 34.379 29.7426C34.4139 29.7043 34.4497 29.6603 34.4783 29.6204ZM17.9342 33.9894C17.9702 33.9894 18.0072 33.9977 18.0411 34.0047C18.0072 33.9977 17.9702 33.9971 17.9342 33.9971C17.902 33.9971 17.8728 33.9988 17.8426 34.0047C17.8728 33.9987 17.9021 33.9894 17.9342 33.9894Z" fill="#034694"/>
<path d="M29.8969 14.6762L30.3141 14.6982L30.1053 14.9845C30.1053 14.9845 29.8267 15.0726 29.8969 14.6762ZM28.9018 14.6762H29.5028C29.5028 14.6762 29.4812 15.1612 29.92 15.2046L29.8268 15.3591C29.8268 15.3591 28.6474 15.0508 28.9018 14.6762Z" fill="white"/>
<path d="M18.5791 18.8198C18.5999 18.7416 17.8708 18.3151 17.4742 18.2112C17.3071 18.1679 17.1784 18.3688 17.1576 18.4472C17.1374 18.526 17.1511 18.7642 17.3176 18.808C17.7145 18.9119 18.5588 18.8982 18.5791 18.8198ZM18.5193 19.5475C18.5255 19.4736 17.7983 19.2121 17.4232 19.184C17.2661 19.1724 17.1834 19.3756 17.1784 19.4488C17.1732 19.5235 17.225 19.7359 17.3822 19.747C17.7567 19.7748 18.5146 19.6226 18.5193 19.5475ZM17.6937 17.3532V17.632C17.8004 17.7387 18.1892 17.864 18.2336 17.864V17.312C18.2337 17.3121 17.9412 17.3734 17.6937 17.3532ZM17.5415 20.0726C17.4277 20.0771 17.3849 20.2281 17.3877 20.2824C17.3887 20.336 17.443 20.4844 17.5569 20.4799C17.8278 20.4702 18.3589 20.2997 18.3568 20.2466C18.3546 20.1933 17.8125 20.0632 17.5415 20.0726ZM16.9836 27.4312C16.5352 28.0123 16.8581 28.5423 16.8581 28.5423C16.8581 28.1377 17.3198 27.6168 17.4227 27.5151C17.4227 27.5152 17.2646 27.4312 16.9836 27.4312ZM18.4142 28.6641C18.3453 29.0225 18.5236 29.3716 18.8324 29.5321C18.8981 29.5661 18.9694 29.5931 19.0443 29.6078C19.0764 29.6151 19.1064 29.619 19.1376 29.6226C19.1513 29.6228 19.165 29.6231 19.1787 29.6236C19.1787 29.6236 18.7246 29.1984 18.9072 28.7966C18.7887 28.7152 18.6119 28.6641 18.4142 28.6641ZM17.5935 16.804C16.9136 16.4722 16.4301 15.6405 16.4301 14.6654C16.4301 13.6307 16.9737 12.7562 17.7206 12.4699C16.5992 12.7184 15.808 13.715 15.907 14.8384C15.9909 15.79 16.6862 16.551 17.5935 16.804ZM24.8127 14.4173C25.5344 14.2815 25.7792 14.9231 25.7792 15.1527C25.7792 16.0226 25.1017 16.3731 24.5401 16.3764V16.3769C27.1452 16.3769 26.2271 13.0032 24.8127 14.4173ZM23.0715 21.9035C24.3165 21.9035 24.2328 20.2774 23.9635 20.008C24.363 19.6088 25.185 17.7774 25.185 17.4391C25.185 17.4391 23.5418 17.0847 23.8042 15.9444C23.8037 15.9437 23.8037 15.9432 23.8037 15.9422L23.7817 15.9382C23.3339 16.4107 23.6062 17.3963 24.3166 17.6422C24.3166 17.6422 24.0424 18.7257 23.3656 19.4128C22.6917 19.3866 21.7472 19.298 20.9176 18.9805C22.2 19.6611 23.5205 20.6897 23.0715 21.9035ZM18.2078 14.096C18.5298 14.0702 18.8133 14.2985 18.8407 14.6061C18.8674 14.9122 18.6277 15.1828 18.3052 15.2083C17.9821 15.2343 17.698 15.006 17.6723 14.6987C17.6723 15.175 18.059 15.5621 18.5362 15.5621C18.5433 15.5621 18.5505 15.5616 18.5577 15.5616C18.6004 15.7729 18.6151 15.9973 18.5461 16.1617C19.0122 15.7564 19.3999 15.2494 19.3999 14.6987C19.3999 14.2212 19.0122 13.8342 18.5362 13.8342C18.1388 13.8342 17.806 14.1018 17.7042 14.4655C17.7797 14.2656 17.9707 14.1151 18.2078 14.096ZM27.3829 13.4674C26.8199 12.9034 27.6519 11.8494 27.9576 11.8494C27.6233 11.8494 26.1736 12.7985 26.6657 13.4674C26.9373 13.4674 27.3829 13.4674 27.3829 13.4674ZM20.1291 22.8387C20.5757 22.9758 21.0248 22.8086 21.1293 22.4655C21.2339 22.1217 20.9553 21.7334 20.5079 21.5958C20.4461 21.5774 20.3838 21.5641 20.3224 21.5566C20.9684 21.925 20.9609 22.664 20.1291 22.8387ZM18.8336 18.0934C18.8336 18.0934 19.4736 18.2959 20.261 18.6557C20.1029 18.5576 19.9546 18.4471 19.8213 18.3217C19.4216 17.9439 19.1036 17.7381 18.8336 17.6335V18.0934ZM19.0764 26.3254C20.4145 26.3254 25.0409 23.3715 25.0409 23.3715C23.8982 23.3715 23.4367 23.1948 23.4367 23.1948C23.1787 23.3292 22.6493 23.5948 21.5209 24.2595C20.6026 24.8 19.9872 25.4834 19.15 25.7816C19.0224 25.8278 18.9211 25.8386 18.8336 25.8338C18.6409 25.8172 18.4289 25.791 18.2336 25.7794V21.5312C18.2336 21.0857 17.9083 20.9066 17.6937 20.9066V25.8504C17.3318 26.0422 17.1538 26.2805 17.0559 26.5034C17.0559 26.5034 16.366 26.4114 16.3857 27.6882C16.3857 27.3496 16.8882 26.7574 17.2366 26.7574C17.2366 26.3254 18.5047 26.3254 19.0764 26.3254ZM30.6166 33.1644C30.2778 33.1644 28.7227 33.2302 28.583 31.8756C28.2393 31.8019 27.8381 31.787 27.4167 31.8469C28.5161 33.9451 29.7095 33.9619 30.0218 33.9779C30.5077 34.52 30.3449 36.3507 29.6428 36.3138C27.0728 36.1769 27.167 37.7406 27.4549 38.0603C27.4549 36.8814 28.2564 36.6018 30.281 36.6018C30.2811 36.6018 31.936 34.4838 30.6166 33.1644ZM31.1452 38.2271H30.7973C30.7679 38.7888 31.3239 38.9541 31.3239 38.9541C31.1452 38.7755 31.015 38.3585 31.1452 38.2271ZM27.893 39.0179C27.7451 38.8698 27.6233 38.2763 27.8381 38.0603H27.4549C27.4229 38.6682 27.893 39.0179 27.893 39.0179ZM35.5648 19.4973C35.5648 17.7024 33.1032 17.9844 32.9817 19.3627C33.0903 18.3525 34.7349 18.2034 34.7349 19.4688C34.7349 20.7764 31.6677 21.633 31.6677 23.843C31.6677 26.2782 34.1027 26.5035 33.8563 28.7299C33.8147 29.1153 33.4017 29.6189 32.8039 29.6189C31.5221 29.6189 30.8359 29.0749 30.4375 28.306C30.845 29.3944 31.5621 30.2288 33.0545 30.2288C34.6009 30.2288 34.7413 29.0857 34.7413 28.8202C34.7413 26.5912 32.4132 26.0613 32.4132 23.9428C32.4135 21.8801 35.5648 21.0303 35.5648 19.4973ZM17.4134 28.1569C17.4134 28.8442 17.6937 29.1107 17.6937 29.1107C17.6937 28.6964 17.864 28.3461 17.9614 28.2495C17.8175 28.1046 17.4134 28.1569 17.4134 28.1569ZM35.2 24.358C34.5752 24.358 34.0636 24.8362 34.0097 25.4461C34.0382 25.2997 34.1357 25.1575 34.3263 25.0151C35.0421 24.483 36.4451 25.5547 35.6449 26.6623C36.0847 26.4856 36.3938 26.0564 36.3938 25.5534C36.394 24.8938 35.8595 24.358 35.2 24.358ZM29.7241 38.2271H29.3067C29.264 39.0209 29.772 39.1404 29.772 39.1404C29.5565 38.9255 29.5205 38.4304 29.7241 38.2271ZM17.9335 33.9933C17.869 33.9933 17.8088 34.0066 17.7513 34.0284C17.5529 34.1795 17.432 34.414 17.4392 34.6714C17.5053 34.883 17.7003 35.036 17.9335 35.036C18.2215 35.036 18.4547 34.8027 18.4547 34.5149C18.4547 34.2266 18.2215 33.9933 17.9335 33.9933ZM20.8655 37.8482H20.2622C20.257 38.8151 20.8824 38.9904 20.8824 38.9904C20.706 38.8129 20.4822 38.2312 20.8655 37.8482ZM22.7363 31.7336C22.7363 29.522 28.033 29.2624 28.033 27.4404C28.033 26.6984 27.3925 26.3633 26.9371 26.3633C27.066 26.4924 27.7549 27.9739 25.7766 27.9739C23.9876 28.5726 20.092 31.9589 22.796 33.1328C22.7948 33.4732 22.749 36.0074 21.1249 35.8082C18.7854 35.5187 18.2017 36.4858 18.6507 37.5743C18.6507 35.9228 19.8104 36.2296 21.3249 36.2296C22.272 36.2296 23.6566 35.0319 23.6566 33.0153C23.6566 33.0153 22.7363 32.6621 22.7363 31.7336ZM18.2337 33.089V28.6481C17.9335 28.6481 17.6937 29.1107 17.6937 29.1107L17.6938 32.8998V32.8755L17.3657 32.8765L17.3686 33.3548C17.6209 33.3547 18.2337 33.2246 18.2337 33.089ZM19.1453 38.8114C19.1453 38.8114 18.6771 38.0758 19.1788 37.5743H18.6507C18.4387 38.4931 19.1453 38.8114 19.1453 38.8114ZM22.4105 37.8577C22.4105 37.8577 22.1584 37.8577 21.9727 37.8577C21.9694 38.5402 22.7622 38.7986 22.7622 38.7986C22.4828 38.5205 22.2914 37.9751 22.4105 37.8577Z" fill="#6A7AB5"/>
<path d="M7.6823 30.4849L7.65312 30.3953L7.64063 30.302C7.59787 29.9827 7.52064 29.3878 7.06136 29.2814C6.93857 29.2528 6.81169 29.2675 6.6763 29.3231C6.71314 29.1818 6.70883 29.0539 6.66445 28.9366C6.49513 28.4963 5.89572 28.5019 5.57367 28.5061H5.47899L5.38571 28.4888C5.06937 28.4306 4.47923 28.3204 4.2371 28.7245C4.17204 28.8324 4.14619 28.9574 4.15728 29.1029C4.03471 29.0238 3.91117 28.9884 3.78655 28.9944C3.31521 29.0195 3.13501 29.5915 3.03861 29.8993L3.00921 29.9887L2.96547 30.0717C2.81102 30.3553 2.52462 30.8811 2.83396 31.2372C2.91657 31.3323 3.02773 31.396 3.16969 31.4296C3.05746 31.5226 2.98497 31.6289 2.9533 31.7505C2.83019 32.2053 3.31898 32.553 3.58071 32.7394L3.65751 32.796L3.72364 32.8629C3.94542 33.0976 4.35752 33.5319 4.79148 33.3481C4.9063 33.2986 5.00151 33.213 5.07777 33.0886C5.13206 33.2243 5.21015 33.3249 5.31538 33.3943C5.71068 33.6503 6.19203 33.2936 6.45097 33.1031L6.52755 33.047L6.61253 33.0053C6.90335 32.8661 7.44513 32.6089 7.4042 32.1392C7.39332 32.0132 7.34065 31.8975 7.2464 31.7867C7.39149 31.7781 7.51148 31.7341 7.60885 31.6552C7.97592 31.3587 7.78484 30.7905 7.6823 30.4849Z" fill="white"/>
<path d="M5.6175 30.8659C8.25445 32.4245 7.44232 30.7106 7.38437 30.4571C7.326 30.2046 7.30381 28.3087 5.6175 30.8659Z" fill="#ED1C24"/>
<path d="M5.45174 31.256C4.78437 34.2443 6.16337 32.9434 6.3858 32.8109C6.60811 32.6773 8.40428 32.0698 5.45174 31.256Z" fill="#ED1C24"/>
<path d="M5.02833 31.2198C1.97885 31.5076 3.64329 32.4177 3.83878 32.5877C4.03481 32.7571 5.16652 34.2785 5.02833 31.2198Z" fill="#ED1C24"/>
<path d="M4.93268 30.8048C3.71556 27.9941 3.36453 29.8579 3.26318 30.0973C3.16183 30.3347 2.06458 31.8822 4.93268 30.8048Z" fill="#ED1C24"/>
<path d="M48.4896 30.072L48.4461 29.9889L48.4162 29.8995C48.3198 29.5916 48.1396 29.0198 47.6696 28.9946C47.5436 28.9886 47.4207 29.0237 47.2981 29.102C47.3093 28.9575 47.282 28.8326 47.2186 28.7246C46.9754 28.3203 46.3861 28.4306 46.0698 28.4889L45.9755 28.5061H45.8813C45.5604 28.5019 44.9605 28.4964 44.7918 28.9367C44.7459 29.0539 44.7426 29.182 44.7786 29.3232C44.6452 29.2676 44.5181 29.2532 44.3945 29.2815C43.9356 29.3877 43.8568 29.9827 43.8162 30.302L43.8021 30.3954L43.7736 30.485C43.6706 30.7905 43.4801 31.3587 43.8471 31.6555C43.9445 31.7344 44.0636 31.7784 44.2095 31.787C44.1153 31.8979 44.0627 32.0137 44.0517 32.1396C44.0111 32.6093 44.552 32.8664 44.8434 33.0057L44.9275 33.0474L45.0041 33.1035C45.2639 33.2941 45.7457 33.6506 46.1397 33.3946C46.2463 33.3252 46.3238 33.2246 46.3774 33.0889C46.4542 33.2133 46.5485 33.299 46.6643 33.3485C47.0981 33.5323 47.5106 33.098 47.7322 32.8633L47.7989 32.7965L47.8746 32.7397C48.1372 32.5535 48.6256 32.2056 48.503 31.751C48.4701 31.629 48.399 31.5229 48.286 31.43C48.4275 31.3963 48.5389 31.3326 48.6211 31.2375C48.931 30.8813 48.645 30.3557 48.4896 30.072Z" fill="white"/>
<path d="M46.1584 30.5868C43.8621 28.5609 45.7423 28.8027 46.0008 28.78C46.2582 28.7583 48.0691 28.1929 46.1584 30.5868Z" fill="#ED1C24"/>
<path d="M45.8387 30.8659C43.2018 32.4245 44.0123 30.7106 44.0714 30.4571C44.1293 30.2046 44.1511 28.3087 45.8387 30.8659Z" fill="#ED1C24"/>
<path d="M46.0039 31.256C46.6715 34.2443 45.2924 32.9434 45.0696 32.8109C44.8475 32.6773 43.052 32.0698 46.0039 31.256Z" fill="#ED1C24"/>
<path d="M46.4267 31.2198C49.4763 31.5076 47.8131 32.4177 47.6168 32.5877C47.422 32.7571 46.2886 34.2785 46.4267 31.2198Z" fill="#ED1C24"/>
<path d="M46.5217 30.8048C47.7396 27.9941 48.0899 29.8579 48.1917 30.0973C48.2925 30.3347 49.3897 31.8822 46.5217 30.8048Z" fill="#ED1C24"/>
<path d="M47.1141 30.8925C47.1112 30.868 47.1034 30.8462 47.1 30.8225C47.3449 30.6426 47.6094 30.4499 47.6094 30.4499L47.584 30.3929C47.584 30.3929 47.2754 30.4468 46.9794 30.4984C46.8309 30.2549 46.5776 30.0898 46.2877 30.0616C46.1956 29.7848 46.1036 29.5028 46.1036 29.5028L46.0416 29.5081C46.0416 29.5081 45.9999 29.8019 45.9579 30.0897C45.7797 30.1379 45.6198 30.2387 45.4982 30.383C45.4333 30.4608 45.3865 30.5488 45.3492 30.6407C45.0511 30.6407 44.736 30.6416 44.736 30.6416L44.7228 30.703C44.7228 30.703 45.0165 30.8462 45.2878 30.979C45.2888 31.0038 45.2856 31.0282 45.2878 31.0532C45.3086 31.2922 45.4205 31.5068 45.601 31.6633C45.5057 31.9612 45.3984 32.2941 45.3984 32.2941L45.451 32.3259C45.451 32.3259 45.6984 32.0697 45.9187 31.8435C46.0337 31.8813 46.1562 31.8961 46.2799 31.8851C46.4047 31.8757 46.5229 31.8383 46.6302 31.7826C46.8856 31.9665 47.1736 32.1748 47.1736 32.1748L47.2208 32.1342C47.2208 32.1342 47.0575 31.8256 46.912 31.5493C47.0629 31.363 47.1339 31.1309 47.1141 30.8925Z" fill="white"/>
<path d="M46.1538 30.4336C46.0092 30.4448 45.879 30.5131 45.7861 30.6248C45.6931 30.7355 45.6481 30.8754 45.6613 31.0192C45.6866 31.317 45.9502 31.5383 46.2471 31.512C46.3927 31.4988 46.5218 31.4308 46.6161 31.3205C46.7082 31.2088 46.753 31.0698 46.7408 30.925C46.7149 30.6272 46.4509 30.4067 46.1538 30.4336Z" fill="#ED1C24"/>
<path d="M5.29717 30.5868C7.5943 28.5609 5.71293 28.8027 5.45518 28.78C5.19657 28.7583 3.38597 28.1929 5.29717 30.5868Z" fill="#ED1C24"/>
<path d="M6.16682 30.979C6.44008 30.8463 6.73241 30.7029 6.73241 30.7029L6.71872 30.6415C6.71872 30.6415 6.40431 30.6405 6.10542 30.6405C6.06923 30.5488 6.02216 30.4607 5.95699 30.383C5.8355 30.2387 5.67566 30.138 5.49707 30.0896C5.45614 29.8016 5.41446 29.5081 5.41446 29.5081L5.35134 29.5028C5.35134 29.5028 5.2599 29.7846 5.1692 30.0616C4.87742 30.0898 4.62387 30.2549 4.47555 30.4984C4.18075 30.4468 3.87033 30.3929 3.87033 30.3929L3.84643 30.4499C3.84643 30.4499 4.11032 30.6426 4.35504 30.8225C4.35105 30.8463 4.34394 30.8681 4.34135 30.8924C4.32111 31.1321 4.3938 31.363 4.54449 31.5493C4.39779 31.8254 4.2345 32.1342 4.2345 32.1342L4.28286 32.1748C4.28286 32.1748 4.57034 31.9665 4.82551 31.7826C4.93278 31.8386 5.05094 31.8746 5.17535 31.8851C5.30007 31.8963 5.42222 31.8812 5.53725 31.8434C5.75687 32.0697 6.00396 32.3259 6.00396 32.3259L6.05814 32.2941C6.05814 32.2941 5.95064 31.961 5.85478 31.6641C6.03498 31.5065 6.14678 31.292 6.168 31.053C6.17059 31.0282 6.16682 31.0038 6.16682 30.979Z" fill="white"/>
<path d="M5.66974 30.6249C5.57646 30.5132 5.44689 30.4447 5.30169 30.4337C5.00495 30.4068 4.74096 30.6273 4.71511 30.9252C4.70284 31.07 4.74753 31.209 4.83962 31.3207C4.93268 31.431 5.06355 31.499 5.20799 31.5122C5.50473 31.5385 5.76862 31.3171 5.79436 31.0195C5.80653 30.8756 5.76215 30.7357 5.66974 30.6249Z" fill="#ED1C24"/>
<path d="M5.63291 17.8432C4.34911 17.6165 3.11982 18.4783 2.89298 19.7621C2.66647 21.0467 3.52729 22.2759 4.81119 22.5026C6.09617 22.7293 7.326 21.8679 7.55208 20.5835C7.77935 19.2995 6.918 18.0703 5.63291 17.8432Z" fill="white"/>
<path d="M6.16843 19.6325C6.14766 19.6198 6.11146 19.5963 6.06762 19.5673C5.87363 19.4387 5.49331 19.1872 5.48286 19.1797C5.43019 19.1435 5.37892 19.109 5.3284 19.075C5.1593 18.9617 5.00808 18.8631 4.8659 18.781C4.81108 18.7499 4.75808 18.7208 4.70477 18.6948C4.47868 18.5807 4.26197 18.5118 4.00616 18.4893C3.80894 18.6317 3.63779 18.808 3.49917 19.0118C4.08737 19.2242 4.66168 19.5643 5.85748 20.3071C5.92587 20.149 6.15475 19.6621 6.16843 19.6325Z" fill="#ED1C24"/>
<path d="M5.61707 20.9005C5.64098 20.8409 5.74611 20.5749 5.78908 20.4724C4.56367 19.7112 3.99464 19.3744 3.40514 19.166C3.3137 19.3302 3.24519 19.5093 3.20049 19.6999C3.53698 20.1619 4.43872 20.6158 5.61707 20.9005Z" fill="#ED1C24"/>
<path d="M5.48437 18.9661C5.94322 18.6946 6.46453 18.7685 6.86694 18.9059C6.7169 18.7121 6.53519 18.5428 6.32386 18.4109C5.94376 18.3353 5.41878 18.3235 5.00086 18.6557C5.15284 18.7449 5.30978 18.8491 5.48437 18.9661Z" fill="#ED1C24"/>
<path d="M3.65352 21.1584C3.71491 21.2006 3.77781 21.2406 3.8447 21.2782C3.97977 21.3529 4.12604 21.4174 4.27716 21.4726C4.34124 21.4969 4.40641 21.5194 4.47211 21.5406C4.70196 21.6162 5.22942 21.7532 5.26873 21.7624C5.27682 21.7421 5.47446 21.2533 5.54942 21.0676C4.63583 20.841 3.63542 20.4444 3.1601 19.9287C3.13156 20.1669 3.14264 20.4024 3.19295 20.6258C3.29323 20.8442 3.45425 21.0183 3.65352 21.1584Z" fill="#ED1C24"/>
<path d="M5.29954 21.9533L5.1089 21.9042C4.93215 21.8593 4.74053 21.809 4.54568 21.7492C4.64068 21.9517 4.79019 22.1095 4.9496 22.2316C5.16318 22.26 5.37397 22.2546 5.57658 22.2196C5.4302 22.1057 5.29954 21.9533 5.29954 21.9533Z" fill="#ED1C24"/>
<path d="M7.21031 19.5697C7.16691 19.4278 7.10993 19.2904 7.0383 19.1623C6.67812 19.0017 6.12955 18.8448 5.65046 19.0792L6.31126 19.5155C6.44902 19.5032 6.57579 19.4995 6.6918 19.5023C6.75513 19.5032 6.81394 19.5067 6.87017 19.5122C6.99953 19.5236 7.10993 19.5444 7.21031 19.5697Z" fill="#ED1C24"/>
<path d="M6.87199 19.6906C6.85271 20.7765 6.34077 21.614 5.89959 22.138C6.59012 21.8981 7.1347 21.303 7.27052 20.5342C7.31705 20.2715 7.30887 20.0131 7.26018 19.7672C7.1529 19.7339 7.02462 19.706 6.87199 19.6906Z" fill="#ED1C24"/>
<path d="M4.83585 18.5637C5.14508 18.2911 5.51033 18.199 5.84714 18.1915C5.76161 18.1641 5.67448 18.1405 5.58368 18.1251C5.1034 18.0404 4.63357 18.1296 4.2345 18.3458C4.44702 18.3874 4.63906 18.4619 4.83585 18.5637Z" fill="#ED1C24"/>
<path d="M6.33646 19.6916C6.17932 20.0189 6.0869 20.2194 6.01021 20.4017C5.98662 20.457 5.96368 20.5106 5.94052 20.5664C5.9039 20.6579 5.79102 20.9421 5.79102 20.9421L5.7237 21.109L5.43192 21.8318C5.51238 21.9386 5.60985 22.0256 5.70572 22.0935C6.13925 21.5991 6.67877 20.768 6.69525 19.6801C6.58614 19.6762 6.46615 19.6802 6.33646 19.6916Z" fill="#ED1C24"/>
<path d="M4.32703 21.6774C4.18152 21.6273 4.03622 21.5702 3.89899 21.5033C3.95026 21.6616 4.02415 21.8022 4.09858 21.9228C4.25422 22.0227 4.42505 22.1014 4.6074 22.1576C4.48924 22.0245 4.38724 21.867 4.32703 21.6774Z" fill="#ED1C24"/>
<path d="M3.68486 21.3864C3.5862 21.3272 3.49443 21.2614 3.40945 21.1891C3.50563 21.3612 3.62681 21.5188 3.76737 21.6571C3.73398 21.5709 3.70468 21.4816 3.68486 21.3864Z" fill="#ED1C24"/>
<path d="M43.6471 20.5836C43.874 21.868 45.1029 22.7294 46.3871 22.5028C47.6716 22.2761 48.5322 21.0468 48.3067 19.7622C48.08 18.4784 46.8505 17.6166 45.5658 17.8433C44.2814 18.0703 43.4206 19.2995 43.6471 20.5836Z" fill="white"/>
<path d="M45.0305 19.6325C45.0508 19.6198 45.0873 19.5963 45.1321 19.5673C45.3263 19.4387 45.7059 19.1872 45.7156 19.1797C45.7695 19.1435 45.8209 19.109 45.8713 19.075C46.0385 18.9617 46.1911 18.8631 46.3335 18.781C46.3882 18.7499 46.4418 18.7208 46.4942 18.6948C46.7197 18.5807 46.9376 18.5118 47.193 18.4893C47.3901 18.6317 47.562 18.808 47.6987 19.0118C47.1109 19.2242 46.5383 19.5643 45.341 20.3071C45.2724 20.149 45.0446 19.6621 45.0305 19.6325Z" fill="#ED1C24"/>
<path d="M45.5823 20.9005C45.558 20.8409 45.4521 20.5749 45.4115 20.4724C46.6345 19.7112 47.2053 19.3744 47.7943 19.166C47.8852 19.3302 47.9542 19.5093 47.999 19.6999C47.6619 20.1619 46.7603 20.6158 45.5823 20.9005Z" fill="#ED1C24"/>
<path d="M45.715 18.9661C45.2557 18.6946 44.7348 18.7685 44.3318 18.9059C44.482 18.7121 44.6648 18.5428 44.876 18.4109C45.2557 18.3353 45.7804 18.3235 46.1977 18.6557C46.0469 18.7449 45.8889 18.8491 45.715 18.9661Z" fill="#ED1C24"/>
<path d="M47.5447 21.1584C47.4847 21.2006 47.422 21.2406 47.3539 21.2782C47.2195 21.3529 47.0734 21.4174 46.9226 21.4726C46.858 21.4969 46.7924 21.5194 46.7268 21.5406C46.4981 21.6162 45.9702 21.7532 45.9305 21.7624C45.9217 21.7421 45.7235 21.2533 45.65 21.0676C46.5633 20.841 47.563 20.4444 48.0397 19.9287C48.0681 20.1669 48.0558 20.4024 48.0064 20.6258C47.9058 20.8442 47.7451 21.0183 47.5447 21.1584Z" fill="#ED1C24"/>
<path d="M45.9001 21.9533L46.0895 21.9042C46.2668 21.8593 46.4596 21.809 46.6545 21.7492C46.5581 21.9517 46.4093 22.1095 46.2502 22.2316C46.0369 22.26 45.8255 22.2546 45.624 22.2196C45.7686 22.1057 45.9001 21.9533 45.9001 21.9533Z" fill="#ED1C24"/>
<path d="M43.9889 19.5697C44.0327 19.4278 44.0887 19.2904 44.162 19.1623C44.5211 19.0017 45.0685 18.8448 45.5479 19.0792L44.8878 19.5155C44.7498 19.5032 44.6231 19.4995 44.5068 19.5023C44.4443 19.5032 44.3852 19.5067 44.3282 19.5122C44.1991 19.5236 44.0898 19.5444 43.9889 19.5697Z" fill="#ED1C24"/>
<path d="M44.3274 19.6906C44.3461 20.7765 44.8593 21.614 45.301 22.138C44.6086 21.8981 44.0634 21.303 43.9289 20.5342C43.8828 20.2715 43.8894 20.0131 43.9397 19.7672C44.0461 19.7339 44.1753 19.706 44.3274 19.6906Z" fill="#ED1C24"/>
<path d="M46.364 18.5637C46.0546 18.2911 45.6886 18.199 45.3523 18.1915C45.4375 18.1641 45.5242 18.1405 45.6159 18.1251C46.0957 18.0404 46.5655 18.1296 46.9644 18.3458C46.7528 18.3874 46.5603 18.4619 46.364 18.5637Z" fill="#ED1C24"/>
<path d="M44.863 19.6916C45.0206 20.0189 45.1113 20.2194 45.1905 20.4017C45.2133 20.457 45.2351 20.5106 45.2583 20.5664C45.2956 20.6579 45.4083 20.9421 45.4083 20.9421L45.4752 21.109L45.7676 21.8318C45.6866 21.9386 45.5899 22.0256 45.4937 22.0935C45.0604 21.5991 44.5199 20.768 44.5047 19.6801C44.6133 19.6762 44.7338 19.6802 44.863 19.6916Z" fill="#ED1C24"/>
<path d="M46.8724 21.6774C47.0181 21.6273 47.1623 21.5702 47.3008 21.5033C47.248 21.6616 47.1756 21.8022 47.1001 21.9228C46.9447 22.0227 46.7739 22.1014 46.5923 22.1576C46.7102 22.0245 46.8121 21.867 46.8724 21.6774Z" fill="#ED1C24"/>
<path d="M47.5151 21.3864C47.6125 21.3272 47.7045 21.2614 47.7899 21.1891C47.6935 21.3612 47.5732 21.5188 47.4321 21.6571C47.4648 21.5709 47.4944 21.4816 47.5151 21.3864Z" fill="#ED1C24"/>
</g>
<defs>
<clipPath id="clip0_1_2403">
<rect width="51.2" height="51.2" fill="white"/>
</clipPath>
</defs>
</svg>
