<svg width="31.5" height="39" viewBox="0 0 42 52" fill="none" xmlns="http://www.w3.org/2000/svg">
<g clip-path="url(#clip0_1_2827)">
<path d="M13.6308 40.543C13.6308 40.543 7.90101 37.6692 5.10958 33.261C5.12442 37.0489 4.93744 41.774 4.93744 41.774L13.7072 43.4969L13.6308 40.543Z" fill="white"/>
<path d="M28.7721 40.621C28.7721 40.621 34.5019 37.9735 37.2933 33.566C37.2785 37.3532 37.4662 41.7733 37.4662 41.7733L28.6957 43.4969L28.7721 40.621Z" fill="white"/>
<path d="M28.8339 46.1493H13.5916V39.193H28.8339V46.1493Z" fill="white"/>
<path d="M25.7478 39.7078C25.7478 42.1727 23.7229 44.1732 21.2253 44.1732C18.7284 44.1732 16.7035 42.1727 16.7035 39.7078C16.7035 37.2414 18.7284 35.2417 21.2253 35.2417C23.7229 35.2417 25.7478 37.2414 25.7478 39.7078Z" fill="white"/>
<path d="M3.00283 42.0388V35.5136L2.61328 35.3674V34.4852L3.00283 34.3123V33.6972L2.61328 33.5518V32.4996L3.89324 31.2857V30.9985C3.89324 30.9985 3.93628 30.7463 4.26425 30.7463H4.64193C4.64193 30.7463 4.93725 30.7893 4.93725 30.9985V31.2664L6.24985 32.5033L6.23724 33.5555L5.84695 33.6935V34.3071L6.2454 34.4778V35.4491V41.411L3.00283 42.0388Z" fill="white"/>
<path d="M39.5529 42.0388V35.5136L39.9424 35.3674V34.4852L39.5529 34.3123V33.6972L39.9424 33.5518V32.4996L38.6625 31.2857V30.9985C38.6625 30.9985 38.6194 30.7463 38.2915 30.7463H37.913C37.913 30.7463 37.6185 30.7893 37.6185 30.9985V31.2664L36.3058 32.5033L36.3177 33.5555L36.708 33.6935V34.3071L36.3103 34.4778V35.4491V41.411L39.5529 42.0388Z" fill="white"/>
<path d="M20.8287 51.2001C17.6596 51.2001 15.634 50.1138 13.5 48.9689C12.3691 48.3634 11.2005 47.7364 9.82702 47.2756C5.94187 45.9712 3.38344 47.5695 3.27659 47.6385L2.75867 46.8401C2.88036 46.7607 5.78828 44.9161 10.1298 46.3734C11.5789 46.8601 12.7832 47.5064 13.9489 48.1312C16.1526 49.3124 18.231 50.4291 21.6531 50.2236C24.8541 50.0314 27.0542 48.9437 29.1815 47.8915C30.0882 47.4426 30.9453 47.0189 31.8535 46.6776C31.9121 46.6553 31.9818 46.6279 32.062 46.5967C33.2002 46.1463 36.6661 44.7795 39.6586 47.0582L39.0821 47.8151C36.5162 45.8606 33.5341 47.0382 32.4107 47.4812C32.3261 47.5146 32.2519 47.5442 32.1881 47.568C31.3252 47.893 30.4882 48.3063 29.603 48.7441C27.4935 49.7866 25.1027 50.9693 21.711 51.1734C21.4075 51.1912 21.1137 51.2001 20.8287 51.2001Z" fill="white"/>
<path d="M37.8026 49.4809L37.1296 49.0476C36.979 48.9504 36.582 48.8888 36.1791 48.9533C36.1079 48.9645 36.0329 48.9815 35.9587 48.9979C35.6211 49.0728 35.2004 49.1641 34.8739 48.9021C34.7403 48.7945 34.5793 48.5868 34.5793 48.2054C34.5786 47.9153 34.704 47.6571 34.9318 47.4797C35.6753 46.9017 37.4999 47.3054 38.0415 47.4426C38.4014 47.5413 38.7991 47.5376 38.877 47.4664C39.0618 45.4125 39.8965 43.927 40.3662 43.237C36.9931 41.198 31.8309 42.3058 29.8958 43.5412C27.0116 45.3836 24.6068 46.5263 21.5356 46.5396C18.9185 46.5418 16.6977 45.4637 14.3537 44.3166C13.0411 43.674 11.6847 43.0099 10.1933 42.5091C7.05757 41.4562 3.49075 42.6411 2.13584 43.1821C2.63966 43.8751 3.40764 45.2352 3.49075 47.1822C3.56421 47.2727 3.95969 47.2957 4.31512 47.2171C4.87236 47.1035 6.71402 46.7882 7.42857 47.4011C7.64747 47.5895 7.76099 47.8522 7.7469 48.1416C7.72835 48.5222 7.55842 48.7233 7.41893 48.8242C7.08057 49.0706 6.66505 48.9585 6.3304 48.8673C6.2562 48.848 6.18349 48.8279 6.11374 48.8138C5.7138 48.7293 5.3146 48.7715 5.15878 48.8621L4.46723 49.2613L4.44051 48.1601C4.16746 48.2128 3.39355 48.3197 2.91569 47.9546C2.68493 47.778 2.55582 47.525 2.5432 47.2222C2.43635 44.7328 1.05029 43.3505 1.03619 43.3371L0.554626 42.8667L1.16011 42.5714C1.36267 42.4727 6.18571 40.1636 10.4945 41.6098C12.0453 42.1306 13.4314 42.8096 14.77 43.4655C17.0027 44.5585 19.1115 45.5906 21.5 45.5906H21.5319C24.3738 45.5787 26.6443 44.4924 29.3853 42.7413C31.6514 41.2959 37.5785 40.0553 41.3219 42.7309L41.7456 43.0344L41.405 43.4277C41.3917 43.4425 40.0472 45.0341 39.8201 47.5346C39.7934 47.8366 39.6524 48.0837 39.4135 48.2484C38.9238 48.5868 38.1647 48.4488 37.8805 48.3805L37.8026 49.4809Z" fill="white"/>
<path d="M7.37478 47.4027C7.37478 47.4027 6.90138 46.9278 6.704 46.579C6.31445 45.8882 3.26703 47.2513 3.26703 47.2513L4.09808 47.4301" fill="white"/>
<path d="M34.8201 47.5842C34.8201 47.5842 35.3047 47.1205 35.5095 46.7769C35.9176 46.0958 38.9301 47.53 38.9301 47.53L38.0953 47.6896" fill="white"/>
<path d="M2.91269 47.4298C2.91269 47.4298 2.84665 45.5555 2.42668 44.7245C2.00596 43.8927 1.83752 43.0557 1.83752 43.0557C1.83752 43.0557 4.39225 41.7698 6.05731 41.7387C7.72163 41.7075 11.865 42.4273 13.1553 43.1388C14.4464 43.8512 17.9257 45.7596 19.7303 46.1491C21.5356 46.5387 24.5169 46.0749 26.3816 45.3077C28.2463 44.5405 29.4936 43.219 30.2489 42.8836C31.0043 42.5482 33.4418 41.6667 35.0809 41.5198C36.72 41.3714 38.6937 42.0429 39.806 42.2529C40.9183 42.4629 40.7543 42.8836 40.7543 42.8836L39.4164 47.1412C39.4164 47.1412 37.2772 46.414 35.8429 46.3725C34.4086 46.3302 31.9689 47.409 31.2128 47.6888C30.4582 47.9693 27.1347 49.3561 26.0648 49.7768C24.9948 50.1967 21.3805 51.1628 19.3207 50.7013C17.2616 50.239 13.2607 48.2082 12.2145 47.6888C11.1675 47.1701 7.38254 45.9228 6.88094 46.161C6.37935 46.3984 2.91269 47.4298 2.91269 47.4298Z" fill="white"/>
<path d="M23.7959 31.647C23.8041 31.6522 23.813 31.6552 23.8204 31.6589L23.6943 31.6797L23.7959 31.647ZM38.5915 6.80489C38.5159 6.57338 38.1218 6.39456 36.5258 6.39456C35.904 6.39456 35.3245 6.41979 35.3185 6.41979C35.2933 6.42053 35.2696 6.42573 35.2458 6.4324C34.2582 6.50438 33.3151 6.73217 32.4633 7.10243C33.5934 5.73938 35.3534 4.88756 36.4175 4.46759C36.4724 4.44533 36.6297 4.37335 36.6631 4.32215C36.7143 4.24053 36.8018 4.16633 36.7298 4.03352C36.6059 3.80721 36.1221 3.74859 35.7986 3.74859C35.4514 3.74859 34.9579 3.79608 34.3406 3.88883C34.0467 3.92222 33.7566 3.9697 33.4791 4.03055C33.4665 4.03277 33.4539 4.03574 33.442 4.04019C32.2162 4.31548 31.0565 4.86455 30.0881 5.62807C29.9524 5.73566 29.8218 5.84696 29.6934 5.96049L30.4732 4.63305C30.8954 3.94373 31.3518 3.30636 31.8341 2.73947C31.8667 2.70163 31.8883 2.65562 31.8979 2.60739C31.9172 2.51093 32.027 2.35956 31.9647 2.28314C31.9246 2.23565 31.8356 2.15552 31.6768 2.15552C31.5358 2.15552 31.0698 2.203 29.2823 3.56086C27.6002 4.73619 26.1585 6.25877 25.1063 7.97205C24.6841 8.72889 23.9458 10.1335 23.7002 11.1226C23.6861 11.0224 23.672 10.923 23.6616 10.8265C23.6171 10.4296 23.5934 10.0177 23.5867 9.52951C23.5785 8.94555 23.6045 8.42244 23.6282 8.08706C23.6386 7.94608 23.6119 7.61367 23.4754 7.58102C23.3381 7.54689 23.1296 7.82068 23.074 7.95053C22.1999 9.95171 21.9699 11.616 21.9224 12.6088L21.6026 15.5286C21.5662 15.7304 21.4141 16.7054 21.4141 16.7054C21.1715 16.2832 21.0008 15.9701 20.8153 15.5123C20.8086 15.4967 20.8012 15.4826 20.7923 15.4677L20.517 15.0277C20.5103 15.0159 20.5022 15.004 20.4933 14.9943C20.0763 14.4987 19.6548 14.2427 19.1673 13.9481C18.4824 13.5326 17.6306 13.0169 16.3647 11.5522C15.6665 10.7434 14.857 9.11028 14.5958 7.98615C14.0779 5.75941 14.1261 3.09711 14.7212 0.705645C14.7754 0.546115 14.8132 0.254509 14.742 0.155081C14.6878 0.0793969 14.5861 0.0274591 14.4919 0.0274591C14.3057 0.0274591 14.1372 0.191441 12.9693 2.04718C12.9663 2.05238 12.9634 2.05683 12.9604 2.06202C12.1939 3.28335 11.6523 4.6798 11.3963 6.10444C11.3391 6.41459 11.2968 6.72401 11.2672 7.0312C10.9963 6.35746 10.7722 5.65998 10.5971 4.9484C10.2231 3.42359 10.0992 1.87578 10.2402 0.474141C10.2491 0.386585 10.2684 0.152856 10.2061 0.0905284C10.146 0.0333944 10.0629 3.17662e-06 9.97606 3.17662e-06C9.71858 3.17662e-06 9.32309 0.331677 8.50021 2.53022C7.71739 4.62266 7.46511 6.54073 7.70997 8.63837C6.82105 7.48159 6.42037 5.85364 6.05975 4.38819C5.96997 4.02461 5.88241 3.66771 5.78966 3.32639C5.74366 3.15499 5.61974 2.74021 5.46392 2.81886C5.45279 2.82331 5.4424 2.82999 5.43201 2.83741C5.43127 2.83815 5.42979 2.8389 5.4283 2.83964C5.42237 2.84335 5.41717 2.8478 5.41198 2.85299C5.40456 2.85893 5.39714 2.86412 5.3912 2.87006C5.3593 2.90048 5.24651 3.26258 5.22722 3.3019C5.17751 3.3954 5.14486 3.53192 5.12556 3.73078C5.12482 3.74043 5.12408 3.74933 5.12408 3.75898C5.12408 3.82724 5.11963 3.89551 5.11592 3.96377C5.11147 4.03945 5.10627 4.11439 5.10627 4.19008C5.00017 5.28972 4.91632 8.13455 6.37659 11.1077L6.40998 11.1849C6.42927 11.2294 6.4493 11.2747 6.46934 11.32C6.62813 11.6546 6.80769 11.9625 6.97984 12.2586C7.03697 12.3565 7.09262 12.453 7.14753 12.5494C7.34936 12.9034 7.52596 13.1193 7.70775 13.3248C6.88338 13.1564 5.665 12.9138 5.07734 12.8255C4.94155 12.8077 4.81244 12.8819 4.76347 13.0087C4.71524 13.1364 4.76124 13.2803 4.87625 13.3545C5.36672 13.6765 6.26158 14.4831 7.20096 15.3572L7.1876 15.3609L8.85415 16.9109L9.00626 17.0534C9.55015 17.5654 10.1148 18.0944 10.6543 18.5849L9.51157 18.4714C9.38542 18.4565 9.26299 18.5307 9.21476 18.6494C9.16579 18.7682 9.20066 18.9047 9.30084 18.9856L11.9602 21.1381L11.958 21.1388L13.1214 22.0649C13.1296 22.073 13.1363 22.0834 13.1459 22.0908L15.1427 23.6973C15.1916 23.7366 15.2532 23.7588 15.3163 23.7611L15.8283 23.7744C14.7442 24.2248 13.7529 24.2397 12.5924 23.8509C11.6983 23.5511 10.842 23.0844 10.117 22.5004C10.0139 22.4173 9.75049 22.263 9.64438 22.3416C9.53828 22.421 9.61693 22.7134 9.66664 22.8365C9.89296 23.3908 10.31 23.879 10.7314 24.3183C9.35574 24.1365 8.10027 23.7574 6.67042 23.1029C6.55244 23.0488 6.33726 22.9093 6.25267 23.0065C6.16883 23.1044 6.23635 23.4146 6.3061 23.5236C6.95313 24.5276 7.47179 25.2161 7.98674 25.7526C8.52841 26.3158 9.24296 26.8923 9.59467 27.103C9.66145 27.1446 9.84176 27.2514 10.698 27.2514C11.0215 27.2514 11.3814 27.2351 11.6834 27.2062C11.7213 27.2025 11.7584 27.1988 11.794 27.1958C10.9399 27.4978 10.1519 27.6098 9.47298 27.5245C9.32606 27.503 8.99142 27.5178 8.95654 27.661C8.92241 27.8057 9.19918 28.0357 9.33868 28.0854C10.3575 28.449 11.354 28.6976 12.3082 28.823C12.6221 28.9113 13.5162 29.145 14.4793 29.2296C14.5446 29.2355 14.6054 29.2355 14.6641 29.2341C14.7435 29.2422 14.8228 29.2482 14.8993 29.2563C15.2688 29.2897 15.6183 29.3231 15.9908 29.3231C16.2972 29.3231 16.6 29.3001 16.9146 29.2511C16.9175 29.289 16.9272 29.3261 16.945 29.3609L17.1127 29.6904C17.0518 29.7008 16.9925 29.7305 16.9487 29.7787C16.8641 29.8692 16.8463 30.0043 16.9049 30.1133L17.2663 30.7886C17.2744 30.8041 17.2841 30.8197 17.2952 30.8331C17.2982 30.8353 17.3063 30.8464 17.3219 30.865C17.3063 30.8717 17.2915 30.8813 17.2767 30.8909C17.1787 30.9592 17.1335 31.0824 17.1624 31.1981C17.3494 31.9505 17.713 32.2147 17.9793 32.4083C18.1611 32.5397 18.2709 32.6191 18.3281 32.8253C18.3667 32.9619 18.429 33.1147 18.4943 33.2787C18.6323 33.623 18.8401 34.1431 18.7102 34.3494C18.5358 34.6277 18.4164 34.7078 18.2168 34.8399C18.0929 34.923 17.9385 35.0269 17.7501 35.1953C17.2982 35.6019 17.2663 36.1413 17.6566 36.8002L17.6803 36.8388C17.7397 36.9434 17.8591 36.9991 17.9786 36.9805C18.0981 36.9605 18.1923 36.8692 18.216 36.7498C18.3066 36.2853 19.0701 35.9173 19.2192 35.9076C19.4819 35.8898 19.7305 35.8727 19.9011 35.7021C20.1794 35.4246 21.6879 35.4075 21.6879 35.4075C21.6879 35.4075 21.8645 35.4134 22.1427 35.4706C22.1962 35.4973 22.2511 35.521 22.3 35.5522C22.3483 35.5834 22.3995 35.5997 22.4566 35.596C22.4893 35.596 22.9953 35.8 23.0369 35.8483C23.1118 35.9365 23.9673 36.4099 24.0668 36.4634C24.1246 36.4938 24.6225 37.1579 24.6945 37.1579C24.8103 37.3285 24.854 37.2811 24.857 37.1067C25.1813 36.9152 25.4729 36.4886 25.5849 36.0338C25.6969 35.5804 25.6294 35.1493 25.392 34.7864C25.3786 34.7657 25.363 34.7471 25.3445 34.7308C25.294 34.6848 25.1627 34.5802 25.0084 34.4585C24.7976 34.293 24.4459 34.0163 24.3747 33.9346C24.161 33.6905 24.0571 33.4249 23.954 33.1229C24.0356 33.1177 24.112 33.0784 24.164 33.0131C24.2181 32.9448 24.2382 32.8535 24.2189 32.7682L24.1803 32.6013C24.1209 32.346 24.0534 32.0574 23.9992 31.7405L23.9955 31.7242C24.0081 31.7257 24.02 31.7264 24.0319 31.7264C24.0326 31.7264 24.0341 31.7257 24.0363 31.7264C24.1966 31.7264 24.3265 31.5966 24.3265 31.4363C24.3265 31.3822 24.3116 31.3317 24.2864 31.2887L23.9658 30.4213C23.9955 30.4547 24.017 30.4791 24.0267 30.4895C24.1061 30.5726 24.2975 30.7144 24.4066 30.675C24.5142 30.6379 24.5179 30.4272 24.5268 30.3129C24.5721 29.7342 25.0143 29.148 25.4914 28.8044C25.5181 28.8831 25.5441 28.9358 25.5508 28.9484C25.6005 29.0456 25.6049 29.2571 25.714 29.2571C25.7155 29.2571 25.7177 29.2571 25.72 29.2563C25.8298 29.2548 25.9129 29.102 26.0709 28.9387C26.2705 28.731 26.4382 28.5514 26.6482 28.4898L27.6492 28.8927C27.7085 29.0716 27.8324 29.3624 28.0506 29.539C28.2383 29.6904 28.4209 29.8054 28.7518 30.0154C28.7867 30.0376 28.8238 30.0607 28.8631 30.0859C28.8327 30.1007 28.8 30.1156 28.7622 30.1289C28.6479 30.1697 28.3192 30.2781 28.3185 30.3997C28.3185 30.5207 28.6449 30.6305 28.7592 30.6728C28.9811 30.7559 29.2259 30.8004 29.4656 30.8004C29.9583 30.8004 30.3894 30.6238 30.6498 30.3174C30.8643 30.0644 30.9466 29.7438 30.888 29.3921C30.8442 29.1287 30.7404 28.4787 30.707 28.2695L30.9778 27.3828C30.986 27.3553 30.9904 27.3256 30.9904 27.2967C30.9882 26.8767 30.868 26.4078 30.6343 25.9025L30.6231 25.8691C30.6127 25.8342 30.5949 25.8031 30.5734 25.7763C30.5608 25.7496 30.5482 25.7266 30.5371 25.7051C30.474 25.5671 30.3968 25.4291 30.2981 25.2777C29.5806 24.095 28.5596 23.1311 28.5166 23.0903C28.4298 23.0094 28.2591 22.8677 28.1515 22.9174C28.0439 22.9679 28.0217 23.2001 28.0283 23.3188L28.032 23.3819C27.9623 23.2157 27.6952 22.9374 27.6358 22.8484C27.5067 22.6555 27.411 22.4581 27.3761 22.3164C28.2376 18.3311 30.8739 15.6777 30.8999 15.651C30.9474 15.6035 30.9778 15.5412 30.9837 15.4737C31.5551 9.7714 38.0677 7.26122 38.1337 7.23673C38.1582 7.22783 38.3266 7.17514 38.3474 7.1603C38.5737 6.99335 38.6101 6.86202 38.5915 6.80489Z" fill="white"/>
<path d="M20.8331 50.8906C17.7263 50.8906 15.7303 49.8199 13.6268 48.692C12.4856 48.0806 11.3072 47.4492 9.91153 46.9802C5.87799 45.6253 3.15556 47.3549 3.12811 47.372L2.90625 47.0314C3.02349 46.9557 5.82159 45.1786 10.0414 46.5951C11.469 47.0745 12.6629 47.7148 13.8189 48.3336C16.0576 49.5342 18.1715 50.6687 21.6686 50.4587C24.9238 50.2628 27.1483 49.1632 29.3002 48.0984C30.201 47.6525 31.052 47.2318 31.9484 46.8949C32.0085 46.8719 32.0797 46.8444 32.1606 46.8125C33.3812 46.331 36.6223 45.0533 39.4916 47.2377L39.2453 47.5612C36.5585 45.5148 33.4717 46.7317 32.3097 47.191C32.2266 47.2229 32.1532 47.2525 32.0908 47.2755C31.2145 47.605 30.3716 48.0213 29.4805 48.4635C27.3947 49.4949 25.0307 50.6635 21.6931 50.8639C21.397 50.8817 21.1106 50.8906 20.8331 50.8906Z" fill="#292D6B"/>
<path d="M20.4109 47.685L20.3189 47.682L20.2966 48.3587L20.3805 48.3617C20.629 48.3691 20.7678 48.2645 20.776 48.0271C20.7841 47.8074 20.6587 47.6932 20.4109 47.685Z" fill="#1B458F"/>
<path d="M22.4587 48.5817L22.9195 48.5187L22.5864 47.7596L22.4587 48.5817Z" fill="#1B458F"/>
<path d="M15.6672 47.3796L15.823 46.5657L15.2524 47.1711L15.6672 47.3796Z" fill="#1B458F"/>
<path d="M7.40041 43.2737L7.25053 43.2648L7.20972 43.94L7.36331 43.9497C7.60446 43.9638 7.74322 43.8473 7.75658 43.6247C7.76919 43.4132 7.64156 43.2878 7.40041 43.2737Z" fill="#1B458F"/>
<path d="M26.9297 47.3121L27.3534 47.1207L26.8184 46.487L26.9297 47.3121Z" fill="#1B458F"/>
<path d="M38.0678 45.5702C37.8719 45.5858 37.7013 45.4403 37.6842 45.2452C37.6686 45.0493 37.814 44.8779 38.0107 44.8616C38.2058 44.8453 38.3772 44.9914 38.3928 45.1866C38.4099 45.3825 38.263 45.5539 38.0678 45.5702ZM37.5113 43.5609C37.3881 43.4407 37.2405 43.3442 37.0438 43.3227C36.6988 43.2856 36.4458 43.5193 36.3998 43.9482C36.3523 44.3852 36.569 44.662 36.9177 44.6998C37.0928 44.7184 37.2553 44.6739 37.4445 44.5915L37.4742 45.2051C37.2598 45.2845 37.0379 45.3268 36.7433 45.2949C35.9761 45.2118 35.571 44.6716 35.657 43.8718C35.7409 43.0941 36.2811 42.6259 37.0594 42.7105C37.3139 42.738 37.5157 42.8114 37.6834 42.9213L37.5113 43.5609ZM35.1584 45.2148C34.9632 45.2304 34.7918 45.0849 34.7755 44.8898C34.7599 44.6939 34.9046 44.5225 35.1013 44.5062C35.2964 44.4906 35.4678 44.636 35.4841 44.8319C35.4997 45.0271 35.355 45.1992 35.1584 45.2148ZM34.1114 45.3751L33.385 45.5272L32.8663 43.0585L34.4268 42.7313L34.5537 43.3323L33.7196 43.5067L33.8027 43.9044L34.4038 43.779L34.6293 44.3548L33.9282 44.5017L34.1114 45.3751ZM30.8689 46.5111L29.9154 44.1752L31.4558 43.5468L31.6784 44.0914L30.8147 44.4431L30.9512 44.7785L31.6049 44.5128L31.9092 45.0159L31.1709 45.3172L31.3237 45.6897L32.2171 45.3253L32.4397 45.87L30.8689 46.5111ZM29.9703 46.9941C29.2765 47.3324 28.6458 47.0898 28.2941 46.3664C27.9513 45.6622 28.1598 44.9781 28.864 44.6368C29.094 44.5247 29.304 44.4795 29.505 44.4832L29.6987 45.1161C29.531 45.0805 29.3544 45.0768 29.1778 45.1636C28.8647 45.3157 28.7749 45.6488 28.9634 46.0369C29.1548 46.4317 29.4865 46.5504 29.8019 46.3968C29.9599 46.3204 30.0742 46.1957 30.1907 46.025L30.5416 46.5296C30.4021 46.7114 30.2374 46.865 29.9703 46.9941ZM28.0581 47.9179L27.7398 47.5677L27.0164 47.8949L27.0772 48.3319L26.4176 48.6302L26.1682 45.9627L26.931 45.6177L28.6992 47.4994L28.0581 47.9179ZM24.6241 49.1934L23.8792 46.7834L24.5952 46.5615L25.1532 48.3638L25.8343 48.1531L26.12 48.7311L24.6241 49.1934ZM23.3687 49.4835L23.1631 49.0576L22.3766 49.1659L22.3113 49.603L21.593 49.7017L22.1124 47.0713L22.942 46.9577L24.1032 49.2654L23.3687 49.4835ZM20.4021 48.907L20.2849 48.9033L20.2596 49.6601L19.5147 49.6349L19.5993 47.1121L20.4726 47.141C21.1233 47.1633 21.5129 47.4586 21.4929 48.0403C21.4728 48.6354 21.038 48.9285 20.4021 48.907ZM18.1034 49.387L16.6157 48.9055L17.3903 46.5066L18.1034 46.7366L17.5231 48.5315L18.2021 48.7504L18.1034 49.387ZM16.2202 48.6651L15.4915 48.4291L15.5627 47.9617L14.8541 47.6048L14.5521 47.9283L13.9051 47.6025L15.821 45.7305L16.5697 46.1067L16.2202 48.6651ZM12.8047 46.9934L13.687 45.309L13.0874 44.9944L13.3768 44.4446L15.1747 45.3862L14.9766 45.9842L14.3511 45.657L13.4688 47.3414L12.8047 46.9934ZM12.0315 44.8505C12.4842 45.2504 12.6237 45.5294 12.4612 45.9085C12.2267 46.4561 11.7377 46.4932 11.2673 46.2914C10.9274 46.146 10.6818 45.9575 10.4659 45.7305L10.8072 45.2118C11.0217 45.4626 11.2702 45.6726 11.5017 45.772C11.636 45.8299 11.7429 45.8195 11.7867 45.7193C11.8282 45.6221 11.7919 45.5509 11.5233 45.3038C11.1211 44.9336 10.9727 44.6865 11.1471 44.2799C11.3511 43.8035 11.826 43.7248 12.2831 43.9207C12.6192 44.0639 12.7988 44.2094 12.982 44.4149L12.6422 44.9284C12.4567 44.6946 12.2467 44.5247 12.0716 44.4498C11.9343 44.3912 11.8468 44.409 11.8126 44.4898C11.7733 44.5804 11.8067 44.6501 12.0315 44.8505ZM9.75284 45.6897L9.03012 45.493L9.26163 44.6397L8.83943 42.9034L9.63412 43.0162L9.83891 44.0758L10.5342 43.2871L11.2858 43.4919L9.9888 44.8215L9.75284 45.6897ZM7.71454 45.3009L7.29976 44.4661L7.18624 44.4594L7.13949 45.24L6.39823 45.1955L6.54959 42.6764L7.51346 42.7343C8.16346 42.7736 8.51814 43.0845 8.48623 43.6247C8.46545 43.9645 8.29776 44.196 8.00393 44.3251L8.51072 45.2274L7.71454 45.3009ZM5.38464 45.3773C4.62631 45.522 4.08168 45.1235 3.93105 44.3325C3.78414 43.5638 4.16404 42.9584 4.93351 42.8114C5.18505 42.764 5.39874 42.7751 5.59241 42.8315L5.61467 43.4941C5.46181 43.4154 5.2919 43.3657 5.09749 43.4021C4.75617 43.4681 4.58179 43.7657 4.66267 44.1893C4.74503 44.6204 5.03368 44.823 5.37871 44.757C5.55085 44.7243 5.69406 44.6338 5.85063 44.4995L6.05839 45.0783C5.87585 45.2177 5.67551 45.3224 5.38464 45.3773ZM29.6408 43.1416C26.7834 44.9655 24.4579 46.0532 21.5337 46.0651C17.5803 46.08 14.5165 43.4607 10.3442 42.0591C6.17043 40.6582 1.36816 42.9977 1.36816 42.9977C1.36816 42.9977 2.90115 44.495 3.0169 47.2026C3.0169 47.2026 5.80239 45.3862 9.97618 46.7871C14.1492 48.1887 16.3114 50.9846 21.6806 50.6611C26.3567 50.3806 29.0161 48.2154 32.0197 47.0854C32.9517 46.7351 36.3872 45.1376 39.3589 47.3925C39.6297 44.754 41.047 43.1171 41.047 43.1171C37.4905 40.5758 31.74 41.8016 29.6408 43.1416Z" fill="#1B458F"/>
<path d="M5.66639 48.0967C5.87712 48.0967 6.08191 48.1212 6.25109 48.156C6.33271 48.1739 6.41953 48.1969 6.5056 48.2199C6.69184 48.2696 6.94561 48.3401 7.02426 48.2822C7.0532 48.2607 7.07249 48.1976 7.07694 48.11C7.08065 48.0255 7.05468 47.9639 6.99161 47.9104C6.70446 47.6634 5.8415 47.6789 5.10247 47.7687L5.11211 48.1635C5.28648 48.1152 5.47866 48.0967 5.66639 48.0967ZM36.1191 47.8496C35.7792 47.8496 35.4921 47.8934 35.3444 48.0091C35.2791 48.0596 35.2494 48.1204 35.2494 48.205C35.2502 48.2933 35.2665 48.3571 35.2947 48.3794C35.3697 48.4402 35.6271 48.3846 35.8141 48.3423C35.9017 48.3237 35.9892 48.3044 36.0731 48.2911C36.3944 48.2392 36.8448 48.234 37.2098 48.3527L37.2373 47.9587C36.8678 47.8949 36.4656 47.8496 36.1191 47.8496ZM37.5593 48.9945L37.2796 48.8142C37.0503 48.6665 36.5687 48.6102 36.1347 48.6799C36.059 48.6918 35.9796 48.7103 35.8994 48.7274C35.5893 48.7949 35.2702 48.8654 35.0476 48.6873C34.9207 48.5849 34.8569 48.4232 34.8569 48.205C34.8562 47.9995 34.9408 47.8244 35.1025 47.699C35.7755 47.1736 37.75 47.6552 37.9734 47.7116C38.1685 47.7658 38.7732 47.8763 39.0322 47.696C39.1049 47.6463 39.1428 47.5758 39.1524 47.4741C39.3587 45.2059 40.3856 43.6573 40.7611 43.1594C37.3367 40.8755 31.8837 42.0056 29.7423 43.31C27.304 44.797 24.6603 46.2484 21.5342 46.2617H21.4986C18.9557 46.2617 16.7794 45.1955 14.4755 44.0676C13.1555 43.4206 11.7902 42.7528 10.2817 42.246C6.75417 41.0625 2.71172 42.6267 1.69517 43.0659C2.12108 43.5742 3.11908 44.9892 3.21406 47.1937C3.21777 47.2953 3.25339 47.3673 3.32313 47.4207C3.57542 47.6129 4.18238 47.5313 4.37604 47.4875C4.60458 47.4408 6.59909 47.0542 7.24761 47.6114C7.40343 47.7442 7.47985 47.9231 7.47021 48.1286C7.45908 48.346 7.3871 48.5048 7.25651 48.5998C7.025 48.7689 6.70891 48.6829 6.40246 48.5998C6.32381 48.579 6.24516 48.5575 6.17095 48.5419C5.73985 48.4514 5.2568 48.4848 5.0201 48.6205L4.73295 48.7875L4.71069 47.8259C4.62165 47.8407 4.53706 47.8563 4.4584 47.8726C4.36862 47.8926 3.52719 48.0722 3.08495 47.7346C2.92097 47.6092 2.8297 47.4289 2.8208 47.2107C2.70875 44.6123 1.24477 43.1535 1.22993 43.1386L1.03033 42.9428L1.28113 42.8211C1.47999 42.7231 6.20435 40.4622 10.4071 41.872C11.9401 42.3877 13.3165 43.0622 14.6484 43.7137C16.91 44.8215 19.047 45.8677 21.4993 45.8677H21.5327C24.2618 45.8566 26.6199 44.7518 29.5382 42.9739C31.7939 41.5983 37.6083 40.417 41.161 42.9569L41.3361 43.083L41.1944 43.2455C41.1818 43.2626 39.7801 44.912 39.5449 47.5105C39.5241 47.7272 39.4255 47.903 39.2555 48.0195C38.7977 48.3364 37.9652 48.1175 37.8717 48.0915C37.796 48.0729 37.7137 48.0529 37.6268 48.0344L37.5593 48.9945Z" fill="#C4122E"/>
<path d="M20.8352 50.921C17.7292 50.921 15.7339 49.8511 13.6311 48.7232C12.4906 48.1118 11.3101 47.4796 9.91511 47.0107C5.89047 45.6595 3.15247 47.3861 3.12576 47.4039L2.91132 47.0745C3.02781 46.9973 5.82666 45.2225 10.0405 46.6382C11.4681 47.1175 12.662 47.7579 13.8173 48.3767C16.0567 49.5773 18.1714 50.711 21.6707 50.5018C24.9266 50.3066 27.1527 49.2055 29.3052 48.1415C30.2053 47.6955 31.0564 47.2748 31.952 46.9387C32.0121 46.9157 32.0833 46.8875 32.1642 46.8556C33.384 46.3748 36.6229 45.0963 39.4893 47.2808L39.2511 47.5932C36.5598 45.5445 33.4708 46.7636 32.3089 47.2222C32.225 47.2541 32.1523 47.2837 32.0907 47.3075C31.2137 47.6362 30.3707 48.0532 29.4796 48.4939C27.3938 49.5261 25.0298 50.6947 21.6937 50.8951C21.3984 50.9129 21.112 50.921 20.8352 50.921Z" fill="#C4122E"/>
<path d="M7.06289 47.9717C6.11906 47.2 5.75325 46.4513 5.73767 46.4187L6.09161 46.248C6.09606 46.2562 6.44035 46.9544 7.31221 47.6675L7.06289 47.9717Z" fill="#C4122E"/>
<path d="M35.2962 48.0534L35.0647 47.7351C36.0805 46.9968 36.2015 46.2103 36.2022 46.2021L36.5925 46.257C36.5866 46.2956 36.4456 47.2179 35.2962 48.0534Z" fill="#C4122E"/>
<path d="M25.6491 27.2244C25.6795 27.254 25.707 27.2815 25.7322 27.3045C25.7322 27.3045 25.7196 27.2704 25.6491 27.2244Z" fill="#27409B"/>
<path d="M23.5455 11.9175C23.4847 11.6259 23.4209 11.2631 23.3726 10.8587C23.4105 11.1933 23.4654 11.5428 23.5455 11.9175Z" fill="#27409B"/>
<mask id="mask0_1_2827" style="mask-type:luminance" maskUnits="userSpaceOnUse" x="23" y="10" width="1" height="2">
<path d="M23.3727 11.9178H23.5456V10.859H23.3727V11.9178Z" fill="white"/>
</mask>
<g mask="url(#mask0_1_2827)">
<path d="M23.5455 11.9175C23.4847 11.6259 23.4209 11.2631 23.3726 10.8587C23.4105 11.1933 23.4654 11.5428 23.5455 11.9175Z" fill="white"/>
</g>
<mask id="mask1_1_2827" style="mask-type:luminance" maskUnits="userSpaceOnUse" x="0" y="-1" width="146" height="53">
<path d="M0.554565 51.4768H145.106V-0.193868H0.554565V51.4768Z" fill="white"/>
</mask>
<g mask="url(#mask1_1_2827)">
<path d="M30.279 29.9134C30.1729 30.0477 30.0037 30.1657 29.8234 30.2443C29.6245 30.3319 29.4116 30.372 29.2513 30.3319C29.255 30.3304 29.2587 30.3282 29.2632 30.326C29.2802 30.3178 29.2951 30.3096 29.3106 30.3007C29.3218 30.2941 29.3351 30.2881 29.3463 30.2814C29.7499 30.0314 29.5318 29.5602 29.1125 29.0794L29.1051 29.0779L28.145 28.2432L28.0938 28.1979L28.0789 28.1853L28.0886 28.1823L28.1182 28.1727L28.1257 28.1712L28.1613 28.1593L28.306 28.2402L28.795 28.5162L28.8313 28.5355L29.048 28.6579L29.2832 28.7908C29.2839 28.7908 29.2847 28.79 29.2854 28.79C29.2869 28.7893 29.2884 28.7893 29.2906 28.7885C29.511 28.7373 29.7588 28.6758 29.7959 28.6654C29.9606 28.6223 30.0534 28.5756 30.1039 28.537C30.1076 28.5711 30.5223 29.604 30.279 29.9134ZM29.2008 29.7086L28.8536 29.4259L28.6043 29.2233L28.5419 29.0312L28.5263 28.9807L28.4395 28.718L28.438 28.7099C28.7178 28.8754 28.9389 29.1736 29.0836 29.4118C29.114 29.463 29.2691 29.7643 29.2691 29.7643L29.2008 29.7086ZM27.3918 27.335L26.9474 26.5351L25.8121 25.963L26.7396 27.0389C26.2514 26.7599 25.4188 26.3169 24.5165 26.1492C24.5165 26.1492 25.2838 26.866 25.6496 27.2244C25.7193 27.2697 25.732 27.3053 25.732 27.3053C25.7075 27.2815 25.6793 27.2541 25.6496 27.2244C25.5413 27.1547 25.2964 27.0612 24.7354 27.0293C24.2153 26.9766 23.5987 26.84 23.0385 26.5247C23.0385 26.5247 23.1498 26.6887 23.379 26.886C23.382 26.889 23.3857 26.8912 23.3887 26.8935C23.3894 26.8942 23.3902 26.8957 23.3917 26.8964C23.6061 27.079 23.9215 27.2867 24.3466 27.4247C24.3793 27.4359 24.8052 27.6117 24.8393 27.6214C24.5329 27.7438 24.2761 27.89 24.0617 28.0562C23.6469 28.376 23.3902 28.7611 23.2366 29.1529C22.9717 29.8303 22.7291 31.0539 22.916 31.7513C22.3284 30.9619 21.8097 29.9446 22.0983 28.793C21.2035 29.2968 20.6269 29.1321 20.0066 29.0408C19.7202 29.4267 19.3418 30.3534 19.2936 31.1481C19.2409 31.0642 19.1919 30.973 19.1466 30.878C18.9151 30.3846 18.7972 29.8207 18.7682 29.279C18.7541 29.0631 18.7556 28.8546 18.7727 28.6639V28.6624L20.8176 27.2118L17.8429 26.9625C17.8437 26.961 17.8444 26.961 17.8444 26.961C17.8934 26.9246 17.9446 26.889 17.9943 26.8527C19.1392 26.0468 20.552 25.4911 21.97 25.5542C22.0798 25.5579 22.1896 25.5668 22.2994 25.5794C21.386 25.0681 19.7825 25.0926 18.832 25.3902C17.5417 25.7931 17.0297 25.8176 15.6488 25.5727C17.0987 25.2796 17.046 25.2403 17.906 24.8337C18.6124 24.4382 19.9539 23.7081 21.6457 24.0197C21.2309 23.8379 20.877 23.6673 20.3732 23.547C19.8812 23.4343 19.0791 23.3244 18.2206 23.5085C18.2206 23.5085 18.8046 22.8837 19.8961 22.7301C18.4069 21.3871 14.0068 19.2798 14.0068 19.2798C20.2545 20.7549 22.9101 23.6873 23.3063 24.1614C23.333 24.1822 23.3583 24.203 23.3835 24.223C23.1483 23.6873 21.763 20.4566 17.9654 18.0911C17.4393 17.7632 16.8583 17.5317 16.3218 17.2208C15.4648 16.7221 14.6723 16.1701 13.9519 15.5654L13.9556 15.5772C6.89018 9.96622 9.51985 2.24497 9.51985 2.24497C9.29131 4.03616 9.59479 5.79025 10.1135 7.35216C10.4429 8.34347 10.8592 9.25539 11.2821 10.0493C11.7577 10.9412 12.2408 11.6832 12.6192 12.2174C13.4985 13.2919 14.5425 14.2105 15.752 14.8738C15.752 14.8738 10.4199 11.2425 13.4488 3.50117C13.3308 3.83211 11.2339 10.036 19.1125 15.4392C19.2646 15.5416 19.3752 15.5379 19.4204 15.6485C20.4682 18.172 24.5054 22.1899 25.2578 24.1228C25.2237 23.7274 25.1903 23.3319 25.1562 22.9371C25.608 23.4231 25.962 24.0249 26.1475 24.6623C26.1816 24.272 26.2165 23.6791 26.2499 23.2888C26.9021 23.6472 27.8697 24.3959 28.6681 25.2574C28.6681 25.2574 28.6592 25.2485 28.6466 25.2344C28.6176 25.2032 28.5916 25.175 28.5672 25.149C28.579 25.1616 28.5909 25.1743 28.6013 25.1854C28.6087 25.1935 28.6139 25.1995 28.6198 25.2062C28.631 25.2173 28.6391 25.2262 28.6466 25.2344C28.654 25.2433 28.6599 25.2485 28.6681 25.2574L28.6332 24.6838L28.6161 24.4167C28.6161 24.4167 29.8226 25.8999 30.233 27.0471C30.256 27.1124 30.2775 27.1769 30.2945 27.2392C30.2871 27.562 30.2411 27.7787 30.1877 27.9219C30.1417 28.0436 29.9584 28.2439 29.9184 28.2736C29.8894 28.2958 29.8709 28.3025 29.8709 28.3025C29.9273 28.2595 29.9391 28.1556 29.9399 28.0591C29.9406 27.9375 29.9146 27.8106 29.8694 27.6659C29.8271 27.5301 29.7759 27.4003 29.7336 27.3008C29.6876 27.1918 29.652 27.1198 29.652 27.1198C29.6772 27.3862 29.6638 27.5813 29.6327 27.7223C29.6327 27.726 29.6319 27.7304 29.6305 27.7349C29.5696 28.0005 29.4472 28.0703 29.4145 28.0844C29.4101 28.0866 29.4064 28.0881 29.4064 28.0881C29.3975 28.0451 29.3878 28.0042 29.3774 27.9671C29.344 27.8699 29.3062 27.775 29.2691 27.6815C29.1326 27.3402 28.6339 26.3971 28.4707 26.0684C28.3297 26.2694 28.5182 26.7376 28.5182 26.7376C28.582 26.8616 28.7304 27.1769 28.7304 27.1769C28.5924 27.4915 28.7964 27.8395 29.0732 27.9723C28.9953 28.0072 28.7363 27.9701 28.5545 27.8647C28.6221 28.002 28.8654 28.3292 28.9871 28.4227C28.6369 28.3359 27.8326 27.7 27.3918 27.335ZM30.3636 26.009C30.3532 25.9764 30.3472 25.9578 30.3472 25.9578C30.3472 25.9578 30.3502 25.9712 30.3554 25.9912C30.3287 25.9363 30.302 25.8814 30.2738 25.825C30.21 25.6847 30.1328 25.5549 30.0504 25.4288C29.3448 24.266 28.3178 23.3029 28.3178 23.3029L28.3342 23.5856C28.3349 23.5856 28.3379 23.5871 28.3379 23.5871L28.3698 24.0286C28.3698 24.0286 25.0597 22.1061 23.6477 20.3342C22.5532 18.96 21.2933 17.4619 20.5468 15.6217L20.2708 15.181C19.3173 14.048 18.323 14.2617 16.1452 11.7418C15.3988 10.8774 14.5744 9.17673 14.3132 8.05186C13.7604 5.67598 13.8591 2.97139 14.4468 0.611829C14.4468 0.611829 14.7228 -0.193985 13.215 2.20193L13.2158 2.20045C12.4612 3.39878 11.9329 4.76332 11.6806 6.15531C11.5522 6.86689 11.4943 7.58366 11.5173 8.2893C11.0061 7.27054 10.5965 6.16199 10.316 5.01783C9.94576 3.51083 9.80107 1.94446 9.9517 0.445622C9.9517 0.445622 9.6868 0.187404 8.77191 2.63229C7.85627 5.07867 7.71158 7.16592 8.1323 9.50396C6.45017 8.07858 6.06952 5.46748 5.51005 3.40101C5.51005 3.40101 5.50931 3.40101 5.50931 3.40249C5.50857 3.40249 5.50708 3.40397 5.5056 3.40472C5.50114 3.40917 5.49298 3.41881 5.48408 3.43662C5.46256 3.47669 5.43362 3.56721 5.41507 3.75865C5.41507 3.90779 5.39578 4.05619 5.39578 4.20459C5.29413 5.23968 5.19841 8.05112 6.64087 10.9894C6.67203 11.0577 6.70023 11.1289 6.73213 11.1957C6.93693 11.6283 7.17956 12.0186 7.39994 12.4052C7.76501 13.0492 8.0492 13.2065 8.45878 13.7742C8.41575 13.7675 5.94041 13.2481 5.03442 13.1123C5.58277 13.4714 6.58596 14.3826 7.72642 15.4511C7.72642 15.4511 11.1419 15.7256 13.8227 17.709C13.8227 17.709 11.5018 16.573 8.71255 16.3793C8.87653 16.5337 9.04052 16.688 9.20524 16.8431C9.99993 17.5903 10.7976 18.3345 11.5077 18.9607L11.4973 18.96L9.48275 18.7604L12.3788 21.1029L12.8989 21.1207C12.8989 21.1207 13.8717 21.0866 14.8348 21.304C15.8618 21.537 16.4072 21.8701 16.4072 21.8701C15.8336 21.6757 14.8794 21.646 14.3036 21.6831C13.8932 21.7091 13.6254 21.8241 13.3271 21.8657L13.497 22.0015L15.3238 23.4706L16.951 23.5137C15.5776 24.3684 14.2294 24.7053 12.5005 24.1258C11.5819 23.8179 10.6915 23.3356 9.93538 22.7271C10.2411 23.4773 10.9512 24.1221 11.5032 24.6905C9.68161 24.5502 8.21392 24.1288 6.5496 23.3667C7.18624 24.3543 7.69229 25.0259 8.19685 25.5519C8.70068 26.0773 9.39594 26.6464 9.74394 26.8549C9.96506 26.9877 10.9831 26.9825 11.6561 26.9172C11.7822 26.9053 11.898 26.892 11.9922 26.8757C12.1466 26.8504 12.3395 26.8089 12.545 26.7614C13.2373 26.6019 14.0706 26.3689 14.0246 26.3993C13.7241 26.5944 13.3961 26.7859 13.0503 26.9632C12.8463 27.0678 12.6363 27.168 12.4218 27.26C11.4535 27.6755 10.3984 27.9338 9.43675 27.8121C10.5119 28.1964 11.6375 28.4776 12.7773 28.5852C13.169 28.6231 13.3115 28.6171 13.6528 28.4583C14.1618 28.2231 14.5818 28.0295 14.9862 27.8366C15.191 27.7379 15.3943 27.6384 15.5999 27.5331C15.884 27.3891 16.1764 27.2363 16.5036 27.0537C16.3151 27.2311 16.1252 27.3965 15.9308 27.5613C15.8217 27.6518 15.7104 27.7438 15.5976 27.8373C15.2044 28.1593 14.7836 28.4932 14.3036 28.9147C15.5902 29.0045 16.3352 29.2174 18.044 28.6832C18.044 28.6832 17.6923 28.9458 17.2033 29.2293L17.7101 30.2236L17.1603 29.9765L17.5216 30.6517C17.5216 30.6517 17.7784 30.97 18.1442 31.2357L18.2681 31.6341C17.9854 31.5503 17.6233 31.2483 17.4437 31.1288C17.7294 32.2759 18.4113 32.0511 18.6079 32.7464C18.74 33.216 19.2372 34.0575 18.9559 34.5042C18.6258 35.0302 18.4091 34.9931 17.9439 35.4124C17.4044 35.8962 17.8199 36.5016 17.9312 36.6945C18.0425 36.1284 18.4647 35.7596 18.7044 35.6877C19.0806 35.5771 19.5317 35.6617 19.6965 35.497C20.2908 34.9041 21.5693 34.7535 22.4538 35.307C22.0442 34.6451 21.8334 34.6652 21.0187 34.43C22.4582 34.5249 22.5532 34.8403 23.2574 35.6595C23.3152 35.1927 22.9279 34.5991 22.597 34.315C22.4938 34.2274 21.3497 34.0664 20.2381 33.9699C19.8478 33.9358 19.6898 33.4342 19.6334 33.1641C19.7017 33.2034 20.0163 33.3689 20.3227 33.3652C20.2448 32.9734 20.1372 32.529 20.0727 32.2618C20.1825 32.3116 20.2945 32.3813 20.5409 32.3895L20.3799 31.7321C20.3042 31.2067 20.1335 30.8268 20.6381 30.024C20.9163 30.2191 21.0395 30.3037 21.1656 30.4454C21.1656 30.4454 21.2703 30.947 21.3853 31.2149C21.4075 31.2653 21.9032 31.689 21.921 31.7402L21.0677 31.4931C21.0677 31.4931 21.3526 32.1409 21.9158 32.5141C22.2497 32.6321 22.5465 32.7664 22.6437 32.8962C22.7439 33.0313 22.9123 33.3949 22.8329 33.59C22.7691 33.7473 22.3158 33.0751 21.3615 33.8764C22.013 33.8868 22.7943 34.0649 22.9628 34.2638C23.1809 34.522 23.3375 34.7564 23.4948 34.8507C24.1878 35.2662 24.2361 35.4843 24.1804 36.2998C24.6093 35.9689 24.4891 35.1059 24.4245 34.8974C24.9929 35.5793 24.8683 36.5053 24.6946 36.8674C25.1205 36.6307 25.637 35.6891 25.1495 34.9449C25.0174 34.8254 24.2969 34.286 24.1567 34.1257C23.7953 33.7124 23.7048 33.248 23.5275 32.7768C23.6528 32.7842 23.8102 32.8347 23.9363 32.8332C23.8725 32.5542 23.7827 32.1906 23.713 31.7892C23.707 31.7528 23.7003 31.7157 23.6944 31.6794C23.6922 31.6645 23.6899 31.6489 23.6877 31.6341C23.6788 31.5747 23.6699 31.5146 23.6618 31.4531C23.6603 31.439 23.6588 31.4234 23.6573 31.4093C23.6491 31.3477 23.6425 31.2854 23.6365 31.2223C23.8703 31.3722 24.0313 31.436 24.0313 31.436L23.6306 30.3497V30.3467C23.638 30.2651 23.6484 30.1828 23.6618 30.1004C23.6618 30.0959 23.6632 30.0893 23.664 30.0848C23.6758 30.0106 23.6914 29.9357 23.7085 29.8622C23.7115 29.8503 23.7144 29.8377 23.7174 29.8259C23.733 29.7583 23.7538 29.6916 23.776 29.6248C23.7812 29.6084 23.7849 29.5929 23.7909 29.5765C23.8191 29.4971 23.851 29.417 23.8866 29.3398C23.7055 29.7287 24.2383 30.2903 24.2383 30.2903C24.3051 29.4296 25.0745 28.626 25.7201 28.3359C25.6845 28.5748 25.8084 28.8152 25.8084 28.8152C25.9991 28.4086 26.3886 28.2491 26.6676 28.1853L27.19 28.3953L27.7435 28.6179L27.889 28.6765C27.889 28.6765 27.9884 29.1165 28.2333 29.3131C28.4692 29.5038 28.7141 29.6441 29.3025 30.0225C29.2587 30.1687 29.1259 30.3059 28.861 30.4016C29.6972 30.7148 30.7516 30.3386 30.6025 29.44C30.5498 29.1232 30.4103 28.2484 30.4103 28.2484V28.2454L30.6084 27.5999L30.667 27.4069L30.673 27.3869L30.7004 27.2979C30.6982 26.8816 30.5654 26.4408 30.3636 26.009Z" fill="#1B458F"/>
<path d="M35.3315 6.7092L35.3797 6.71366C34.0345 6.79528 32.7018 7.18483 31.5918 7.88973C32.5059 6.10967 34.5249 4.90392 36.3102 4.19753C36.3102 4.19753 36.5306 3.85473 34.3736 4.1775C34.0931 4.20941 33.8148 4.25393 33.5395 4.31477C33.5351 4.31551 33.5314 4.31625 33.5269 4.317H33.5306C32.3449 4.57966 31.2186 5.10574 30.2673 5.8559C29.7308 6.28033 29.2478 6.77376 28.8434 7.331C27.0247 9.74918 26.4104 11.8646 26.4104 11.8646C26.4104 11.8646 26.1477 8.74303 30.136 4.62418C30.5752 3.89035 31.0687 3.19064 31.6133 2.55178C31.6133 2.55178 31.7053 2.08506 29.4474 3.79834C27.8142 4.93953 26.3881 6.43912 25.3597 8.11381C24.9902 8.77567 24.1992 10.2604 23.9699 11.2428C23.9721 11.2718 23.9736 11.3022 23.9758 11.3311C23.9758 11.3311 24.0003 11.9195 24.1086 12.7023C24.24 13.6491 24.6281 14.9565 24.6281 14.9565C24.3639 14.4171 23.892 13.2277 23.7354 12.6801C23.659 12.4122 23.5981 12.1599 23.5455 11.9173C23.5128 11.7659 23.4876 11.6212 23.4631 11.478C23.4497 11.4016 23.4371 11.3222 23.4245 11.2406C23.406 11.1115 23.3867 10.9831 23.3726 10.8577C23.3221 10.4007 23.3028 9.96807 23.2962 9.53326C23.288 8.95969 23.3132 8.44103 23.3392 8.06632C22.3026 10.4429 22.2047 12.2735 22.2024 13.0066C22.1512 13.474 22.123 13.8228 22.1037 14.1151C22.3724 14.8786 22.8495 15.8974 23.7043 17.1892C23.7043 17.1892 22.9355 16.7611 22.031 15.1784C21.9947 15.5271 21.9309 15.9241 21.7928 16.5422C22.8183 18.2844 23.8467 19.6252 24.7765 20.6484V18.5753C25.1089 18.9084 25.3382 19.1674 25.4955 19.3677C25.6439 18.6925 25.8524 17.8822 26.1425 17.02C27.95 11.6405 30.0929 10.0015 30.0929 10.0015C28.1207 13.083 26.3109 19.3143 26.3866 22.2237C26.7687 22.5494 27.1101 22.8106 27.3935 23.0095C27.2414 22.7794 27.1123 22.5183 27.0796 22.3142C27.9574 18.1575 30.6954 15.4448 30.6954 15.4448C31.292 9.48948 38.0317 6.96594 38.0317 6.96594C38.58 6.56451 35.3315 6.7092 35.3315 6.7092Z" fill="#1B458F"/>
<path d="M36.3423 41.0143V37.9409V37.6464C35.9891 37.9172 35.6574 38.1591 35.3443 38.3787V38.7134V39.1541V39.3715H34.8338V38.726C32.6441 40.1736 31.5608 40.325 31.5608 40.325C33.0366 39.5704 34.0918 38.8306 34.8338 38.2029V37.3741V36.9177C32.1433 39.2291 29.7273 40.4192 28.8339 40.8177C28.8339 40.8815 28.8339 41.0781 28.8347 41.3527H32.8014H33.4477C34.3685 41.1998 35.3532 41.1264 36.3415 41.1686" fill="#D3D2D2"/>
<path d="M32.1774 41.6216C31.4555 41.8086 30.8003 42.0393 30.2497 42.2916V41.6216H32.1774Z" fill="#A7A5A6"/>
<path d="M26.3814 44.4461C26.2018 44.5262 25.8805 44.6672 25.7455 44.7243L25.7477 44.0402V42.6363H26.3814V44.0402V44.4461Z" fill="#A7A5A6"/>
<path d="M26.3809 42.3843H25.7479V40.7942H26.3809V42.3843Z" fill="#A7A5A6"/>
<path d="M28.5788 43.1338V42.6366H28.0134V43.1338V43.5931C28.2012 43.4847 28.3904 43.372 28.5811 43.2555L28.5788 43.1338Z" fill="#A7A5A6"/>
<path d="M28.5786 42.3843H28.0132V40.7942H28.5786V42.3843Z" fill="#A7A5A6"/>
<path d="M27.0691 43.6945V42.6364H26.6335V43.6945L26.6328 44.3304C26.7774 44.2606 26.9229 44.1864 27.0691 44.1122V43.6945Z" fill="#A7A5A6"/>
<path d="M27.0687 42.3843H26.6331V40.7942H27.0687V42.3843Z" fill="#A7A5A6"/>
<path d="M27.755 42.3843H27.3195V40.7942H27.755V42.3843Z" fill="#A7A5A6"/>
<path d="M27.7546 43.5832V42.6364H27.3183V43.5832V43.9794C27.4637 43.9023 27.6092 43.8229 27.7546 43.7405V43.5832Z" fill="#A7A5A6"/>
<path d="M28.5809 39.4452H25.7479V40.5427H28.5809V39.4452Z" fill="#A7A5A6"/>
<path d="M14.467 43.3067C14.2607 43.2058 14.0529 43.1041 13.8437 43.004L13.843 42.8815V42.6359H14.467V42.8815V43.3067Z" fill="#A7A5A6"/>
<path d="M14.4768 42.3843H13.8439V40.7942H14.4768V42.3843Z" fill="#A7A5A6"/>
<path d="M16.0935 44.0943C16.2849 44.184 16.4771 44.2723 16.6678 44.3577L16.6738 43.1252V42.6362H16.0935V43.1252V44.0943Z" fill="#A7A5A6"/>
<path d="M16.6739 42.3843H16.107V40.7942H16.6739V42.3843Z" fill="#A7A5A6"/>
<path d="M15.1536 42.3843H14.7188V40.7942H15.1536V42.3843Z" fill="#A7A5A6"/>
<path d="M15.8421 42.3843H15.414V40.7942H15.8421V42.3843Z" fill="#A7A5A6"/>
<path d="M16.6761 39.4452H13.8431V40.5427H16.6761V39.4452Z" fill="#A7A5A6"/>
<path d="M15.4082 43.7661C15.5403 43.8306 15.705 43.9175 15.843 43.985V43.6659V42.6368H15.4067V43.6659L15.4082 43.7661Z" fill="#A7A5A6"/>
<path d="M13.1561 42.68C13.3023 42.7475 13.4469 42.815 13.5916 42.884V42.4641V41.6219H13.1553V42.4641L13.1561 42.68Z" fill="#A7A5A6"/>
<path d="M14.7185 43.4298L14.7912 43.4646C14.9122 43.524 15.0324 43.5833 15.1533 43.642V43.3103V42.6366H14.7185V43.3103V43.4298Z" fill="#A7A5A6"/>
<path d="M6.20361 39.825V37.6458C6.55607 37.9173 6.88774 38.1592 7.20087 38.3789V39.3717H7.71137V38.7269C9.90103 40.1738 10.9844 40.3244 10.9844 40.3244C9.50851 39.5698 8.45412 38.8307 7.71137 38.2023V37.2948V36.9179C10.2891 39.132 12.6145 40.3177 13.591 40.7629V41.3535C13.591 41.3535 9.66878 41.3728 9.57084 41.3521C8.42815 41.1072 7.27433 41.0909 6.20361 41.1962" fill="#D3D2D2"/>
<path d="M12.2142 42.2729C11.6651 42.0458 10.9268 41.7476 10.5157 41.6103H12.2142V42.2729Z" fill="#A7A5A6"/>
<path d="M12.4675 42.2355V41.6211H12.9038V42.2355L12.9023 42.5635C12.8593 42.5434 12.6945 42.4737 12.466 42.378L12.4675 42.2355Z" fill="#A7A5A6"/>
<path d="M29.3112 42.6364V41.6213H28.8334V42.6364V43.1024C28.9907 43.0044 29.1502 42.9042 29.3105 42.8026L29.3112 42.6364Z" fill="#A7A5A6"/>
<path d="M29.9993 42.2904V41.6218H29.563V42.2904L29.5674 42.6428C29.701 42.5642 29.8457 42.4863 29.9993 42.4106V42.2904Z" fill="#A7A5A6"/>
<path d="M25.5002 40.543V39.7661C25.5002 37.3977 23.5813 35.4781 21.2128 35.4781C18.8444 35.4781 16.9255 37.3977 16.9255 39.7661V40.543L17.6557 40.5423C17.6089 40.3122 17.5844 40.0733 17.5844 39.8285C17.5844 37.8384 19.1976 36.226 21.1869 36.226C23.1769 36.226 24.7893 37.8384 24.7893 39.8285C24.7893 40.0733 24.7648 40.3137 24.7188 40.5452L25.5002 40.543Z" fill="#A7A5A6"/>
<path d="M7.20124 37.4209V36.4578L6.20398 35.4487V36.3391V36.5803C6.34051 36.7925 6.64176 37.2058 7.20124 37.7437V37.4209Z" fill="#D3D2D2"/>
<path d="M36.3423 36.5803C36.205 36.7925 35.9038 37.2058 35.3443 37.7437V37.2473V36.4578L36.3423 35.4494V36.2234V36.5803Z" fill="#D3D2D2"/>
<path d="M20.4926 43.9487C20.3775 43.9487 20.2989 44.0244 20.2989 44.1557C20.2989 44.2811 20.3612 44.3508 20.4926 44.3508C20.5727 44.3508 20.6447 44.3249 20.7137 44.2722V44.2655C20.7137 44.0607 20.6239 43.9487 20.4926 43.9487Z" fill="#A7A5A6"/>
<path d="M21.5767 43.9539C21.4268 43.9539 21.3445 44.0979 21.3445 44.3598C21.3445 44.6225 21.4268 44.7672 21.5767 44.7672C21.7259 44.7672 21.806 44.6225 21.806 44.3598C21.806 44.0979 21.7259 43.9539 21.5767 43.9539Z" fill="#A7A5A6"/>
<path d="M22.5706 44.9355C22.4325 44.9355 22.3242 44.9029 22.2359 44.8554L22.2671 44.6721C22.3509 44.7218 22.4541 44.7589 22.572 44.7589C22.7004 44.7589 22.7961 44.6944 22.7961 44.5653C22.7961 44.4554 22.7242 44.3879 22.5936 44.3879C22.5194 44.3879 22.4667 44.402 22.4207 44.4206L22.2804 44.3894L22.3198 43.8062H22.9379L22.966 43.9835H22.4852L22.4652 44.2425C22.5067 44.2306 22.5587 44.2195 22.6321 44.2195C22.8525 44.2195 22.9965 44.3456 22.9965 44.5549C22.9965 44.8012 22.8162 44.9355 22.5706 44.9355ZM21.577 44.9355C21.3114 44.9355 21.1348 44.73 21.1348 44.3605C21.1348 43.9924 21.3114 43.7847 21.577 43.7847C21.8404 43.7847 22.0178 43.9924 22.0178 44.3605C22.0178 44.73 21.8404 44.9355 21.577 44.9355ZM20.2733 44.937L20.2466 44.7619C20.4677 44.7174 20.6399 44.6194 20.6977 44.4295C20.6191 44.4799 20.5323 44.5111 20.4321 44.5111C20.2325 44.5111 20.0989 44.3916 20.0989 44.1675C20.0989 43.9375 20.2681 43.7847 20.4944 43.7847C20.7371 43.7847 20.9077 43.9472 20.9077 44.2544C20.9077 44.6432 20.6428 44.8643 20.2733 44.937ZM19.8326 44.914H19.6233V44.0095L19.397 44.0963L19.374 43.9308L19.6471 43.8047H19.8326V44.914ZM24.6571 40.8011C24.2319 42.3185 22.8399 43.4307 21.1875 43.4307C19.5343 43.4307 18.1408 42.317 17.7171 40.7989L16.9254 40.7944V43.7565L16.9239 44.4695C18.4116 45.1166 19.9016 45.5907 21.5206 45.5907H21.5525C22.9653 45.5855 24.2364 45.3139 25.4941 44.8279L25.5 40.7929L24.6571 40.8011Z" fill="#A7A5A6"/>
<path d="M5.22754 34.9809C5.37742 35.0091 5.52137 35.0455 5.65716 35.087V37.0118C5.52063 36.9695 5.37742 36.9339 5.22754 36.9057V34.9809Z" fill="#A7A5A6"/>
<path d="M4.97851 36.8672C4.83901 36.8501 4.69506 36.8382 4.54889 36.8345L4.54963 34.9098C4.61938 34.912 4.68913 34.915 4.75888 34.9202C4.83308 34.9261 4.90654 34.9335 4.97851 34.9424V36.8672Z" fill="#A7A5A6"/>
<path d="M3.86908 36.8672C4.00858 36.8501 4.15253 36.8382 4.29944 36.8345V34.9098C4.15253 34.9135 4.00858 34.9246 3.86908 34.9424V36.8672Z" fill="#A7A5A6"/>
<path d="M3.19147 37.0128C3.328 36.969 3.47046 36.9341 3.62035 36.9059V34.9812C3.47046 35.0094 3.328 35.0457 3.19147 35.0873V37.0128Z" fill="#A7A5A6"/>
<path d="M2.80292 33.4173C2.89567 33.375 2.99287 33.3357 3.09527 33.3008V33.5323L2.80292 33.4173Z" fill="#A7A5A6"/>
<path d="M4.29926 34.0926C4.15234 34.0963 4.00839 34.1074 3.8689 34.1252V33.1235C4.00839 33.1065 4.15234 33.0953 4.29926 33.0902V34.0926Z" fill="#A7A5A6"/>
<path d="M4.97851 33.1237C4.83901 33.1066 4.69506 33.0947 4.54889 33.091V34.0927C4.69506 34.0964 4.83901 34.1068 4.97851 34.1254V33.1237Z" fill="#A7A5A6"/>
<path d="M5.22754 33.1622C5.37742 33.1904 5.52063 33.2268 5.65716 33.2683V34.2693C5.52137 34.2277 5.37742 34.1914 5.22754 34.1647V33.1622Z" fill="#A7A5A6"/>
<path d="M3.62004 34.1642C3.4709 34.1917 3.32695 34.228 3.19116 34.2696V33.2686C3.32769 33.2271 3.4709 33.1907 3.62004 33.1618V34.1642Z" fill="#A7A5A6"/>
<path d="M5.75348 33.3007C5.85736 33.3363 5.95605 33.3757 6.04954 33.4194L5.75348 33.533V33.3007Z" fill="#A7A5A6"/>
<path d="M2.80292 35.2361C2.89567 35.193 2.99287 35.1544 3.09527 35.1196V35.3511L2.80292 35.2361Z" fill="#A7A5A6"/>
<path d="M5.75348 35.1194C5.85736 35.1551 5.95605 35.1944 6.04954 35.2382L5.75348 35.3517V35.1194Z" fill="#A7A5A6"/>
<path d="M6.04963 32.768C5.60369 32.5617 5.03828 32.4385 4.42464 32.4385C3.81174 32.4385 3.24856 32.5617 2.80261 32.7665V33.1842C3.24856 32.9787 3.81174 32.857 4.42464 32.857C5.03828 32.857 5.60369 32.9802 6.04963 33.1857V32.768Z" fill="#A7A5A6"/>
<path d="M6.04963 34.6023C5.60369 34.3967 5.03828 34.2728 4.42464 34.2728C3.81174 34.2728 3.24856 34.3953 2.80261 34.6008V35.0185C3.24856 34.8137 3.81174 34.6906 4.42464 34.6906C5.03828 34.6906 5.60369 34.8145 6.04963 35.02V34.6023Z" fill="#A7A5A6"/>
<path d="M6.04963 32.5842C5.60369 32.378 5.03828 32.254 4.42464 32.254C3.81174 32.254 3.24856 32.3772 2.80261 32.582L4.09074 31.3555C4.19981 31.3466 4.31111 31.3429 4.42464 31.3429C4.53817 31.3429 4.64872 31.3466 4.75854 31.3547L6.04963 32.5842Z" fill="#A7A5A6"/>
<path d="M4.09045 31.0123V31.2149C4.19953 31.2067 4.31157 31.203 4.42436 31.203C4.53788 31.203 4.64918 31.2067 4.75826 31.2149V31.0123C4.75826 30.9359 4.59205 30.9329 4.54901 30.9315C4.5082 30.9315 4.46591 30.9307 4.42436 30.9307C4.38206 30.9307 4.34051 30.9315 4.29896 30.9315C4.25444 30.9329 4.09045 30.9315 4.09045 31.0123Z" fill="#A7A5A6"/>
<path d="M5.65716 39.0997C5.52063 39.056 5.37742 39.0211 5.22754 38.9929V37.1208C5.37742 37.1483 5.52063 37.1839 5.65716 37.2262V39.0997Z" fill="#A7A5A6"/>
<path d="M4.97851 38.9542C4.83976 38.9364 4.69506 38.926 4.54889 38.9215V37.0487C4.69506 37.0524 4.83976 37.0643 4.97851 37.0814V38.9542Z" fill="#A7A5A6"/>
<path d="M4.29926 38.922C4.15234 38.9257 4.00839 38.9361 3.8689 38.9539V37.0811C4.00839 37.0626 4.15234 37.0529 4.29926 37.0477V38.922Z" fill="#A7A5A6"/>
<path d="M3.62004 38.9933C3.4709 39.0208 3.32769 39.0571 3.19116 39.0994V37.2259C3.32769 37.1836 3.4709 37.1487 3.62004 37.1205V38.9933Z" fill="#A7A5A6"/>
<path d="M38.9278 34.9809C39.0777 35.0091 39.2209 35.0455 39.3567 35.087V37.0118C39.2209 36.9695 39.0777 36.9339 38.9278 36.9057V34.9809Z" fill="#A7A5A6"/>
<path d="M38.6785 36.8672C38.539 36.8501 38.3958 36.8382 38.2489 36.8345V34.9098C38.3201 34.912 38.3891 34.915 38.4589 34.9202C38.5331 34.9261 38.6065 34.9335 38.6785 34.9424V36.8672Z" fill="#A7A5A6"/>
<path d="M37.5693 36.8672C37.7088 36.8501 37.852 36.8382 37.9997 36.8345V34.9098C37.852 34.9135 37.7088 34.9246 37.5693 34.9424V36.8672Z" fill="#A7A5A6"/>
<path d="M36.8914 37.0128C37.0279 36.969 37.1711 36.9341 37.3202 36.9059V34.9812C37.1711 35.0094 37.0279 35.0457 36.8914 35.0873V37.0128Z" fill="#A7A5A6"/>
<path d="M36.5031 33.4173C36.5959 33.375 36.6931 33.3357 36.7955 33.3008V33.5323L36.5031 33.4173Z" fill="#A7A5A6"/>
<path d="M37.9995 34.0926C37.8525 34.0963 37.7086 34.1074 37.5691 34.1252V33.1235C37.7086 33.1065 37.8525 33.0953 37.9995 33.0902V34.0926Z" fill="#A7A5A6"/>
<path d="M38.6785 33.1237C38.539 33.1066 38.3958 33.0947 38.2489 33.091V34.0927C38.3958 34.0964 38.539 34.1068 38.6785 34.1254V33.1237Z" fill="#A7A5A6"/>
<path d="M38.9278 33.1622C39.0777 33.1904 39.2209 33.2268 39.3567 33.2683V34.2693C39.2209 34.2277 39.0777 34.1914 38.9278 34.1647V33.1622Z" fill="#A7A5A6"/>
<path d="M37.32 34.1642C37.1708 34.1917 37.0269 34.228 36.8911 34.2696V33.2686C37.0276 33.2271 37.1708 33.1907 37.3207 33.1618L37.32 34.1642Z" fill="#A7A5A6"/>
<path d="M39.4538 33.3007C39.5569 33.3363 39.6564 33.3757 39.7499 33.4194L39.4538 33.533V33.3007Z" fill="#A7A5A6"/>
<path d="M36.5031 35.2361C36.5959 35.193 36.6931 35.1544 36.7955 35.1196V35.3511L36.5031 35.2361Z" fill="#A7A5A6"/>
<path d="M39.4538 35.1194C39.5569 35.1551 39.6564 35.1944 39.7499 35.2382L39.4538 35.3517V35.1194Z" fill="#A7A5A6"/>
<path d="M39.7499 32.768C39.3032 32.5617 38.7385 32.4385 38.1249 32.4385C37.512 32.4385 36.9488 32.5617 36.5029 32.7665V33.1842C36.9488 32.9787 37.512 32.857 38.1249 32.857C38.7385 32.857 39.3039 32.9802 39.7499 33.1857V32.768Z" fill="#A7A5A6"/>
<path d="M39.7499 34.6023C39.3032 34.3967 38.7385 34.2728 38.1249 34.2728C37.512 34.2728 36.9488 34.3953 36.5029 34.6008V35.0185C36.9488 34.8137 37.512 34.6906 38.1249 34.6906C38.7385 34.6906 39.3039 34.8145 39.7499 35.02V34.6023Z" fill="#A7A5A6"/>
<path d="M39.7499 32.5842C39.3032 32.378 38.7385 32.254 38.1249 32.254C37.512 32.254 36.9488 32.3772 36.5029 32.582L37.7902 31.3555C37.9001 31.3466 38.0114 31.3429 38.1249 31.3429C38.2384 31.3429 38.349 31.3466 38.4588 31.3547L39.7499 32.5842Z" fill="#A7A5A6"/>
<path d="M37.7905 31.0123V31.2149C37.9003 31.2067 38.0109 31.203 38.1244 31.203C38.2372 31.203 38.3493 31.2067 38.4583 31.2149V31.0123C38.4583 30.9359 38.2921 30.9329 38.2491 30.9315C38.2075 30.9315 38.166 30.9307 38.1244 30.9307C38.0829 30.9307 38.0406 30.9315 37.999 30.9315C37.9545 30.9329 37.7905 30.9315 37.7905 31.0123Z" fill="#A7A5A6"/>
<path d="M39.3571 39.0997C39.2206 39.056 39.0774 39.0211 38.9282 38.9929V37.1208C39.0774 37.1483 39.2206 37.1839 39.3571 37.2262V39.0997Z" fill="#A7A5A6"/>
<path d="M38.6785 38.9542C38.539 38.9364 38.3958 38.926 38.2489 38.9215V37.0487C38.3958 37.0524 38.539 37.0643 38.6785 37.0814V38.9542Z" fill="#A7A5A6"/>
<path d="M37.9995 38.922C37.8525 38.9257 37.7086 38.9361 37.5691 38.9539V37.0811C37.7086 37.0626 37.8525 37.0529 37.9995 37.0477V38.922Z" fill="#A7A5A6"/>
<path d="M37.32 38.9933C37.1708 39.0208 37.0276 39.0571 36.8911 39.0994V37.2259C37.0276 37.1836 37.1708 37.1487 37.32 37.1205V38.9933Z" fill="#A7A5A6"/>
<path d="M3.61707 41.6703C3.47016 41.7119 3.32769 41.7534 3.1919 41.7957C3.1919 41.5457 3.19116 40.8534 3.19116 40.8534V39.3286C3.19116 39.3286 3.4709 39.2499 3.62004 39.2217V40.6849L3.61707 41.6703ZM4.30343 41.4937C4.15354 41.5286 4.00737 41.565 3.86565 41.6021C3.86565 41.4989 3.86936 40.6278 3.86936 40.6278V39.1831C3.86936 39.1831 4.15206 39.1542 4.29898 39.1505L4.30417 40.6278L4.30343 41.4937ZM4.97866 39.1831C4.83916 39.1646 4.54903 39.1505 4.54903 39.1505V40.6278C4.54903 40.6278 4.54681 41.3179 4.54681 41.4381C4.68779 41.4076 4.831 41.3787 4.97643 41.3513L4.97866 39.1831ZM5.65759 40.5655V39.3286C5.52106 39.2855 5.22797 39.2217 5.22797 39.2217V40.5655L5.22426 41.3067C5.22426 41.3067 5.50919 41.26 5.65462 41.24L5.65759 40.5655ZM37.3197 40.8207V39.2217C37.1713 39.2499 36.8916 39.3286 36.8916 39.3286V40.9899C36.8916 40.9899 36.8953 41.0218 36.8953 41.2132C37.037 41.2251 37.1788 41.2407 37.3205 41.2585M38.0039 40.7384L37.9994 39.1505C37.8525 39.1542 37.5698 39.1831 37.5698 39.1831V40.7384C37.5698 40.7384 37.5639 41.1479 37.5639 41.2919C37.7123 41.3142 37.8592 41.3386 38.0054 41.3661M38.6798 41.5204C38.5366 41.4818 38.3927 41.447 38.2473 41.4151C38.2473 41.306 38.2487 40.7384 38.2487 40.7384V39.1505C38.2487 39.1505 38.5396 39.1646 38.6791 39.1831V40.7384L38.6798 41.5204ZM39.3573 41.7304C39.2141 41.6785 39.0701 41.6325 38.924 41.5887C38.924 41.4752 38.9277 40.6634 38.9277 40.6634V39.2217C38.9277 39.2217 39.2208 39.2855 39.3573 39.3286V40.6634V41.7304Z" fill="#A7A5A6"/>
<path d="M19.8031 41.0582C20.3826 41.375 20.9384 41.5234 21.3019 41.5902C21.3101 41.5917 21.3168 41.5931 21.3235 41.5931C21.3494 41.5931 21.3747 41.585 21.3947 41.5679C21.4214 41.5471 21.437 41.5167 21.4385 41.4833C21.463 40.866 21.3257 40.3176 21.2656 40.1106C21.2567 40.0795 21.2352 40.0535 21.2062 40.0394C20.4679 39.6817 19.8699 39.29 19.4291 38.873C19.1078 38.5687 18.8741 38.2578 18.7368 37.9484C18.7198 37.9106 18.6841 37.8854 18.6433 37.8809C18.6018 37.8765 18.5617 37.8958 18.538 37.9291C18.2946 38.2786 18.1158 38.6852 18.0223 39.1037C18.0171 39.1275 18.0201 39.1527 18.0304 39.1757C18.3955 39.9808 18.9921 40.6144 19.8031 41.0582Z" fill="#C4122E"/>
<path d="M19.5818 38.6936C19.6033 38.7136 19.6315 38.7247 19.6612 38.7247H19.6708C19.7035 38.7225 19.7339 38.7054 19.7532 38.6787C20.6147 37.516 21.5585 37.0842 22.1988 36.9261C22.2485 36.915 22.2842 36.8705 22.2864 36.8193C22.2879 36.7681 22.256 36.7221 22.207 36.7065C21.882 36.6004 21.5429 36.547 21.1979 36.547C20.7601 36.547 20.3319 36.6338 19.9253 36.8067C19.538 36.9721 19.1922 37.2059 18.8954 37.5027C18.868 37.5301 18.8568 37.5717 18.8657 37.6095C18.9132 37.8032 19.0676 38.2016 19.5818 38.6936Z" fill="#C4122E"/>
<path d="M19.9186 38.844C19.8822 38.8937 19.8919 38.9642 19.9408 39.0013C20.2955 39.2781 20.7289 39.5444 21.2312 39.7937C21.2475 39.8012 21.2646 39.8049 21.2817 39.8049C21.3143 39.8049 21.3462 39.7915 21.3685 39.7648C21.669 39.4168 22.5215 38.5858 23.9477 38.3654C23.9848 38.3602 24.0174 38.3365 24.0345 38.3031C24.0508 38.2697 24.0501 38.2296 24.0308 38.197C23.7792 37.7532 23.4223 37.3696 22.9987 37.0892C22.9808 37.0773 22.9593 37.0706 22.9378 37.0699C22.8094 37.0661 22.3257 37.0743 21.7098 37.3444C21.0338 37.6405 20.4298 38.145 19.9186 38.844Z" fill="#C4122E"/>
<path d="M24.242 38.6488C24.2234 38.5991 24.1737 38.5687 24.121 38.5754C23.868 38.6065 23.6194 38.6592 23.382 38.7342C23.353 38.7431 23.3278 38.7638 23.3145 38.7905C23.3011 38.818 23.2981 38.8492 23.3078 38.8788C23.3916 39.1378 23.5371 39.6654 23.563 40.2857C23.5794 40.6782 23.5452 41.0544 23.4621 41.4002C23.4065 41.6302 23.3286 41.852 23.2306 42.0576C23.2069 42.1073 23.2217 42.1674 23.2655 42.1993C23.2863 42.2149 23.3093 42.2216 23.3338 42.2216C23.362 42.2216 23.3894 42.2119 23.4117 42.1919C23.7656 41.8661 24.0372 41.4721 24.219 41.0225C24.5262 40.2605 24.5343 39.4161 24.242 38.6488Z" fill="#C4122E"/>
<path d="M21.3662 41.872C21.3491 41.8467 21.3224 41.8289 21.292 41.8237C20.9358 41.7584 20.3889 41.6182 19.8079 41.3199C19.1156 40.9645 18.5606 40.4792 18.1585 39.8782C18.1295 39.8352 18.0754 39.8166 18.0264 39.8322C17.9782 39.8485 17.9462 39.8953 17.9485 39.9465C17.9633 40.336 18.0494 40.7167 18.2022 41.0773C18.4308 41.6137 18.7981 42.079 19.2655 42.424C19.7144 42.7534 20.2442 42.9642 20.7985 43.0332C20.8037 43.0347 20.8074 43.0347 20.8126 43.0347C20.8453 43.0347 20.8764 43.0198 20.8987 42.9946C21.1406 42.7156 21.3046 42.3661 21.384 41.9588C21.3899 41.9283 21.3832 41.8972 21.3662 41.872Z" fill="#C4122E"/>
<path d="M23.0943 38.9708C23.0839 38.9397 23.0617 38.9144 23.032 38.9011C23.0023 38.8877 22.9675 38.8877 22.9385 38.9018C22.1616 39.2491 21.6845 39.7522 21.5153 39.9518C21.4901 39.9822 21.4812 40.0215 21.4923 40.0586C21.5569 40.2738 21.6652 40.7123 21.6778 41.2354C21.6853 41.5634 21.6534 41.8713 21.5829 42.1518C21.5153 42.4182 21.4107 42.6645 21.2727 42.8797C21.2497 42.9168 21.249 42.9613 21.2705 42.9999C21.292 43.034 21.3284 43.0555 21.3692 43.0555H21.3758C21.7023 43.0377 22.0288 42.9665 22.3464 42.847C22.3605 42.8426 22.3738 42.8344 22.385 42.8233C22.7211 42.5072 22.9726 42.128 23.1314 41.6977C23.2643 41.3371 23.3333 40.9356 23.337 40.506C23.3414 39.8375 23.1871 39.2572 23.0943 38.9708Z" fill="#C4122E"/>
</g>
</g>
<defs>
<clipPath id="clip0_1_2827">
<rect width="41.191" height="51.2" fill="white" transform="translate(0.554688)"/>
</clipPath>
</defs>
</svg>
