<svg width="39" height="39" viewBox="0 0 51 52" fill="none" xmlns="http://www.w3.org/2000/svg">
<g clip-path="url(#clip0_1_3227)">
<path d="M50.7794 32.8874C50.7697 32.8585 50.7505 32.8393 50.7216 32.8393L47.6221 31.6457C47.6799 31.4243 47.7954 31.1259 48.0071 30.8179L49.605 31.5205C49.6628 31.5494 49.7109 31.559 49.7687 31.559C49.913 31.559 50.0478 31.482 50.1248 31.3569C50.1633 31.2895 50.2884 31.0874 50.3943 30.8275C50.5483 30.4136 50.5868 30.0382 50.4906 29.7301C50.3943 29.4029 50.1633 29.1526 49.8168 28.9986L45.5526 27.0445C45.5526 27.0445 45.5333 27.0349 45.5237 27.0253C45.36 26.9579 45.052 26.8713 44.6766 26.9964C44.6766 26.8616 44.6766 26.7269 44.6766 26.5921C44.6766 26.2648 44.667 25.9183 44.6477 25.5718C44.6285 25.2156 44.5996 24.8498 44.5611 24.4744C44.3108 22.3182 43.8103 20.7299 43.6082 20.1524L43.5311 19.9599C42.6937 17.6304 42.0391 15.7822 42.0584 13.5779C42.068 11.9126 44.1472 9.58319 44.9461 8.82274L45.6969 8.11043L37.8134 0.919905L37.1878 1.33381C35.7439 2.28678 33.8765 2.80658 31.9224 2.80658C29.8818 2.80658 27.9374 2.23865 26.4742 1.20868L25.9256 0.823644L25.3769 1.20868C23.9042 2.23865 21.9694 2.80658 19.9287 2.80658C17.9747 2.80658 16.1073 2.28678 14.6634 1.33381L14.0377 0.919905L6.91465 7.41737L6.15421 8.11043L6.8954 8.82274C7.69434 9.58319 9.77351 11.9126 9.79276 13.5779C9.80239 15.7822 9.14783 17.6304 8.31039 19.9599L8.24301 20.1524C8.04086 20.7299 7.5307 22.3182 7.29005 24.4744C7.25155 24.8498 7.22267 25.2156 7.20342 25.5718C7.18417 25.9183 7.16492 26.2648 7.16492 26.5921C7.16492 26.7269 7.16492 26.8616 7.17454 26.9964C6.79914 26.8713 6.49111 26.9579 6.3371 27.0253C6.32747 27.0349 6.30823 27.0445 6.2986 27.0445L2.03437 28.9986C1.68784 29.1526 1.45683 29.4029 1.36057 29.7301C1.26431 30.0382 1.30281 30.4136 1.45683 30.8275C1.56271 31.0874 1.68785 31.2895 1.73598 31.3569C1.80336 31.482 1.93812 31.559 2.0825 31.559C2.14026 31.559 2.18839 31.5494 2.24614 31.5205L3.84402 30.8179C4.05579 31.1259 4.16167 31.4243 4.22905 31.6457L1.12955 32.8393C1.10067 32.8393 1.08142 32.8585 1.07179 32.8874C1.06217 32.9163 1.06217 32.9355 1.07179 32.9644L1.25469 33.4361C3.18947 38.2683 6.48149 42.417 10.765 45.401C14.75 48.1733 19.4185 49.8001 24.2603 50.0985L25.8582 51.6771C25.8775 51.6964 25.8967 51.706 25.9256 51.706C25.9448 51.706 25.9737 51.6964 25.993 51.6771L27.5908 50.0985C32.4326 49.8001 37.1011 48.1733 41.0766 45.401C45.3697 42.417 48.6617 38.2683 50.5965 33.4361L50.7794 32.9644C50.789 32.9355 50.789 32.9163 50.7794 32.8874Z" fill="white"/>
<path d="M5.97322 29.2325C5.81921 28.8282 5.77108 28.4143 5.82884 28.0485C5.83846 28.0293 5.83846 28.0004 5.84809 27.9715L5.88659 27.779L2.23842 29.4539C2.02665 29.5501 1.89189 29.6849 1.84376 29.8678C1.72825 30.2528 1.96889 30.7534 2.07478 30.9555L2.12291 31.0325L6.01173 29.3191L5.97322 29.2325Z" fill="#274488"/>
<path d="M45.8788 29.2325C46.0328 28.8282 46.081 28.4143 46.0232 28.0485C46.0136 28.0293 46.0136 28.0004 46.004 27.9715L45.9558 27.779L49.6136 29.4539C49.8254 29.5501 49.9602 29.6849 50.0083 29.8678C50.1238 30.2528 49.8832 30.7534 49.7773 30.9555L49.7292 31.0325L45.8403 29.3191L45.8788 29.2325Z" fill="#274488"/>
<path d="M13.3283 43.0379L12.7604 43.4903L13.2513 43.808L13.4438 43.1149C13.4631 43.0283 13.4823 42.9609 13.5016 42.9032C13.4438 42.9417 13.3861 42.9898 13.3283 43.0379Z" fill="#274488"/>
<path d="M33.1333 45.197C32.8446 45.2932 32.7291 45.6205 32.9023 46.1114C33.0756 46.6409 33.3355 46.8045 33.6531 46.6986C33.9515 46.6024 34.0671 46.304 33.8842 45.7842C33.7109 45.2451 33.451 45.0911 33.1333 45.197Z" fill="#274488"/>
<path d="M35.3781 44.3249L35.2241 44.4019L35.5418 45.0853C35.5899 45.0757 35.6958 45.0276 35.7247 45.0083C35.9557 44.9024 36.0327 44.7292 35.9268 44.4981C35.8113 44.2479 35.6188 44.2094 35.3781 44.3249Z" fill="#274488"/>
<path d="M30.1137 24.304C30.1137 24.2944 29.6613 24.1693 29.3341 24.1115C28.9298 24.0441 28.6891 24.0345 28.6121 24.0249C28.5255 24.0056 28.3041 24.0056 28.3137 23.8805C28.3137 23.7939 28.41 23.7746 28.5062 23.765C28.6506 23.7554 29.026 23.7939 29.2474 23.8227C29.7768 23.8998 30.1137 24.0056 30.1137 23.9864V23.3222C30.1137 23.303 29.3726 23.0527 28.5736 22.966C28.0346 22.9179 27.7843 22.9275 27.4667 22.9179C27.4089 22.9179 27.2838 22.9372 27.2838 22.8313C27.2838 22.7254 27.3993 22.7158 27.4378 22.7061C27.8421 22.6676 28.3619 22.658 28.9009 22.6965C29.4977 22.735 30.1041 22.9468 30.1041 22.9275V22.2152C29.8731 22.1093 29.5362 22.0035 29.2571 21.9553C28.9009 21.8976 28.4292 21.8687 28.3619 21.8687C28.2945 21.8687 28.2656 21.8302 28.256 21.8013C28.2463 21.7532 28.2752 21.7147 28.3426 21.6954C28.4485 21.6762 28.7084 21.6666 29.026 21.6762C29.2571 21.6858 29.8153 21.7436 30.0945 21.7821L30.0849 21.2334C29.5555 20.9542 28.7373 20.8195 28.2078 20.7425C27.4089 20.6173 26.6773 20.5981 26.5522 20.5981C26.4848 20.5885 26.4174 20.5885 26.4078 20.5211C26.4078 20.4633 26.4463 20.4152 26.5522 20.4152C26.6485 20.4152 27.2741 20.3959 28.256 20.4826C28.7276 20.5211 29.6613 20.704 30.0849 20.7906L30.0752 20.2516C29.6036 20.0205 28.8624 19.8473 27.7939 19.6933C26.4848 19.5007 23.9821 19.5874 23.8474 19.6066C23.6645 19.6162 23.6356 19.5777 23.626 19.5104C23.6163 19.443 23.6837 19.4045 23.8185 19.3756C23.9532 19.3563 25.6666 19.1927 27.0527 19.2601C28.102 19.3082 29.6132 19.6066 30.0752 19.6933L30.0656 19.2697C29.2763 18.7307 27.9768 18.6729 27.8902 18.6729C27.8036 18.6633 27.7458 18.6248 27.7362 18.5766C27.7266 18.5285 27.7843 18.49 27.8517 18.4804C27.9191 18.4708 28.1116 18.4515 28.5159 18.4804C28.8431 18.4996 29.7191 18.6825 30.0656 18.7595L30.056 18.336C29.4688 17.9895 28.1116 17.7873 27.0624 17.6911C27.0624 17.6911 26.9372 17.6814 26.7062 17.6718L26.687 17.951C26.687 18.0376 26.6196 18.0954 26.533 18.0954C25.9169 18.0665 25.6955 18.0665 25.0795 18.0954C25.0025 18.0954 24.9254 18.0376 24.9254 17.951L24.9062 17.6718C24.3479 17.6911 23.6933 17.7392 22.9618 17.8162C22.8559 17.8258 22.75 17.8547 22.7404 17.7777C22.7211 17.7296 22.75 17.6911 22.8848 17.6526C22.9907 17.6333 24.4442 17.4312 24.8099 17.3927C24.8292 17.3927 24.8581 17.3927 24.8869 17.3927L24.7907 15.6023C24.7907 15.5638 24.8099 15.5252 24.8292 15.4867C24.8581 15.4579 24.8966 15.4386 24.9351 15.4386C25.6859 15.4097 25.9458 15.4097 26.6773 15.4386C26.7158 15.4386 26.7543 15.4579 26.7832 15.4867C26.8025 15.5156 26.8217 15.5541 26.8217 15.583C27.1586 15.5926 27.4955 15.6119 27.7651 15.6311C28.333 15.66 29.671 15.8525 30.0271 15.9007V15.4867C29.9597 15.4386 29.8635 15.4097 29.7865 15.3712C29.4111 15.2268 27.9576 14.9766 25.888 14.9766C23.8089 14.9766 22.5671 15.2461 22.3746 15.2942C22.1628 15.352 21.9318 15.429 21.9415 15.5638L21.9703 20.2516C21.9415 20.5692 21.98 21.8302 21.9896 22.1286C21.9992 22.6195 22.7693 22.9275 24.4538 23.5147C26.2153 24.1597 28.4389 24.8527 30.1137 25.3148V24.304Z" fill="#274488"/>
<path d="M28.6361 25.2762C28.2992 25.18 28.126 25.1222 27.7891 25.0163C27.7506 25.0067 27.7217 25.026 27.7217 25.0645C27.7217 25.6613 27.7217 25.9597 27.7217 26.5276C27.7217 26.5661 27.7506 26.595 27.7794 26.6142C28.1163 26.7297 28.2896 26.7875 28.6361 26.903C28.665 26.9223 28.6939 26.8934 28.6939 26.8645C28.6939 26.2966 28.6939 25.9789 28.6939 25.3629C28.6939 25.3244 28.665 25.2859 28.6361 25.2762Z" fill="#274488"/>
<path d="M27.2145 24.8421C26.868 24.7362 26.7043 24.6881 26.3578 24.5726C26.3289 24.563 26.3 24.5822 26.3 24.6111C26.3 25.179 26.3 25.4678 26.3 26.0357C26.3 26.0646 26.3289 26.1031 26.3578 26.1127C26.6947 26.2282 26.868 26.2956 27.2145 26.4111C27.2434 26.4208 27.2723 26.4111 27.2723 26.3726C27.2723 25.8047 27.2723 25.5063 27.2723 24.9191C27.2723 24.8903 27.2434 24.8517 27.2145 24.8421Z" fill="#274488"/>
<path d="M24.3604 23.9007C24.0138 23.7852 23.8502 23.7274 23.5037 23.5926C23.4748 23.583 23.4459 23.6023 23.4459 23.6311V25.0269C23.4459 25.0558 23.4748 25.0943 23.5037 25.1039C23.8406 25.2194 24.0138 25.2868 24.3604 25.4119C24.3893 25.4216 24.4181 25.4023 24.4181 25.3734C24.4181 24.8055 24.4181 24.5263 24.4181 23.9777C24.4181 23.9488 24.3893 23.9199 24.3604 23.9007Z" fill="#274488"/>
<path d="M29.2484 13.5866C29.2195 13.5385 29.2003 13.4807 29.1617 13.4037C28.8248 13.2786 27.9778 13.0668 27.3714 13.009C27.2558 12.9994 27.0826 12.9898 27.0826 12.9031C27.0826 12.8261 27.15 12.7973 27.3425 12.7973C27.8334 12.8069 28.6227 12.932 28.9692 12.9994C28.873 12.7876 28.7575 12.5374 28.6323 12.2678C27.9778 12.0176 26.736 11.9406 26.5147 11.9213C26.274 11.8924 26.197 11.8636 26.2163 11.7865C26.2259 11.7095 26.3799 11.7192 26.7553 11.7095C27.1885 11.6999 28.1414 11.7769 28.4109 11.8058C28.3243 11.6133 28.228 11.4111 28.1318 11.1897C27.766 10.9395 27.073 10.8913 26.8804 10.8817C26.6975 10.8721 26.6302 10.8047 26.6398 10.747C26.6494 10.6796 26.7457 10.6603 26.8227 10.6507C26.8901 10.6507 27.689 10.6411 27.7564 10.6314C27.8045 10.6314 27.8526 10.6026 27.8141 10.5352C27.7371 10.3619 27.689 10.256 27.6024 10.0828C27.4772 10.025 27.3136 9.97688 27.1788 9.95763C27.0633 9.93838 26.6879 9.91913 26.4954 9.89988C26.3895 9.871 26.3703 9.85175 26.3703 9.81324C26.3703 9.76511 26.3991 9.73624 26.4954 9.72661C26.736 9.70736 27.1788 9.72661 27.2751 9.71698C27.3425 9.71698 27.4195 9.68811 27.3906 9.63035C27.3425 9.51484 27.2943 9.41858 27.2462 9.3127C27.1403 9.26457 26.9767 9.23569 26.8419 9.20681C26.6687 9.16831 26.3414 9.13943 26.0719 9.12981C26.0045 9.12981 25.9467 9.0913 25.9467 9.0528C25.9467 9.0143 25.9756 8.97579 26.0526 8.96617C26.2355 8.93729 26.6205 8.93729 26.7746 8.92766C26.8997 8.91804 27.0537 8.89878 27.0056 8.7929C26.9189 8.61963 26.8708 8.4945 26.7842 8.33086C26.6687 8.33086 26.4665 8.32123 26.3221 8.30198C26.2644 8.29235 26.1874 8.28273 26.1874 8.2346C26.1778 8.18647 26.2548 8.15759 26.3221 8.12872C26.3703 8.10946 26.5339 8.06133 26.6494 8.03246C26.5917 7.92657 26.5532 7.83031 26.505 7.72443C26.3414 7.7148 26.043 7.69555 25.812 7.69555C25.7157 7.69555 25.6676 7.64742 25.6676 7.60892C25.6676 7.57041 25.6868 7.54154 25.7927 7.52229C25.966 7.47416 26.2355 7.4549 26.3703 7.44528C26.2163 7.118 26.0719 6.80035 25.9371 6.51157C24.8783 8.77365 22.9339 12.9416 22.6162 13.6058C23.7136 13.3459 25.1959 13.2497 25.889 13.2497C26.582 13.2497 28.1414 13.3556 29.2484 13.5866Z" fill="#274488"/>
<path d="M22.9309 23.3886C22.594 23.2635 22.4208 23.2057 22.0742 23.0709C22.0454 23.0613 22.0165 23.0709 22.0165 23.1094V24.5245C22.0165 24.563 22.0454 24.6015 22.0742 24.6015C22.4208 24.7266 22.594 24.7843 22.9309 24.9095C22.9694 24.9095 22.9887 24.8999 22.9887 24.8614V23.4656C22.9887 23.4367 22.9694 23.4078 22.9309 23.3886Z" fill="#274488"/>
<path d="M25.7888 24.3868C25.4423 24.2809 25.2787 24.2135 24.9321 24.098C24.9033 24.0884 24.8744 24.1076 24.8744 24.1365V25.5322C24.8744 25.5611 24.9033 25.5996 24.9321 25.6093C25.269 25.7344 25.4423 25.7921 25.7888 25.9077C25.8177 25.9269 25.8466 25.9077 25.8466 25.8788C25.8466 25.3109 25.8466 25.0221 25.8466 24.4638C25.8466 24.4349 25.8177 24.3964 25.7888 24.3868Z" fill="#274488"/>
<path d="M23.0243 31.4887C23.0243 31.123 22.7548 30.8534 22.3986 30.8534C21.8981 30.8534 21.6863 31.2288 21.6478 31.8738L22.5527 31.8449C22.8896 31.8449 23.0243 31.739 23.0243 31.4887Z" fill="#274488"/>
<path d="M32.2497 30.8351C31.5951 30.8351 31.3448 31.432 31.3448 32.3657C31.3448 33.4726 31.6721 34.0598 32.2786 34.0598C32.885 34.0598 33.2123 33.54 33.2123 32.5293C33.2123 31.432 32.8657 30.8351 32.2497 30.8351Z" fill="#274488"/>
<path d="M28.1116 16.5224C28.1886 16.5128 28.5351 16.5128 28.9875 16.5706C29.3244 16.6187 29.8153 16.7246 30.0367 16.7727V16.3877C29.5747 16.1951 28.5159 16.0026 27.9479 15.9352C27.6014 15.8871 27.1971 15.8486 26.8025 15.8197L26.7255 17.331C26.9276 17.3406 27.0624 17.3406 27.0624 17.3406C27.3223 17.3599 27.5822 17.3695 27.8421 17.3984C28.8431 17.4946 29.6806 17.6872 30.0464 17.7642V17.2251C29.4784 16.7534 28.1693 16.7149 28.0923 16.7149C28.0153 16.7149 27.9383 16.6957 27.9383 16.6187C27.9383 16.5417 28.0346 16.532 28.1116 16.5224Z" fill="#274488"/>
<path d="M21.9617 14.9544C22.1349 14.9159 23.4633 14.4347 25.889 14.4347C28.305 14.4347 29.7489 14.9641 29.9222 15.0411C30.1147 15.1277 30.288 15.1855 30.3746 15.0411C30.4516 14.8967 30.3553 14.7138 30.2206 14.6272C29.6912 14.2903 27.8334 13.8667 25.889 13.8956C23.9349 13.9052 21.9809 14.3384 21.7114 14.4539C21.4322 14.5598 21.3167 14.7234 21.4034 14.8774C21.5477 15.1373 21.7884 15.0026 21.9617 14.9544Z" fill="#274488"/>
<path d="M30.0561 25.6978C29.7191 25.5919 29.5459 25.5438 29.209 25.4476C29.1705 25.4379 29.1512 25.4572 29.1512 25.4957C29.1416 26.131 29.1416 26.4486 29.1416 27.0166C29.1416 27.0551 29.1705 27.084 29.1994 27.1032C29.5459 27.2187 29.7191 27.2765 30.0561 27.4016C30.0849 27.4112 30.1138 27.392 30.1138 27.3631V25.7845C30.1138 25.746 30.0849 25.7075 30.0561 25.6978Z" fill="#274488"/>
<path d="M25.3914 17.7854C25.8342 17.7758 26.3925 17.7854 26.3925 17.7854L26.4984 15.8313C26.0363 15.8025 25.2759 15.841 25.2759 15.841L25.3914 17.7854Z" fill="#274488"/>
<path d="M36.4263 44.2334C36.667 44.7436 36.3975 45.1767 35.9065 45.3981C35.868 45.4174 35.7622 45.4655 35.7237 45.4751L36.0317 46.1297C36.0606 46.1875 36.0509 46.226 35.9739 46.2645L35.6563 46.4089C35.5985 46.4377 35.5504 46.4281 35.5215 46.3607L34.5686 44.3393C34.5301 44.2623 34.5493 44.2334 34.6167 44.1949L35.1269 43.9639C35.4926 43.7906 35.7814 43.7425 36.0317 43.8387C36.2049 43.9158 36.3493 44.0601 36.4263 44.2334ZM45.2532 34.9637C45.2243 34.9059 45.2147 34.8578 45.2532 34.7904L45.3879 34.5787C45.4168 34.5209 45.4553 34.5113 45.5131 34.5498L47.496 35.6375C47.5634 35.676 47.573 35.7241 47.5345 35.7723L47.342 36.0707C47.3035 36.1477 47.2457 36.1477 47.1687 36.0995L46.1099 35.4931L46.9088 36.6193C46.9569 36.6771 46.9377 36.7252 46.9088 36.7637L46.8414 36.8696C46.8126 36.9274 46.7741 36.9563 46.6971 36.9466L45.2917 36.7926L45.2821 36.8022L46.3313 37.476C46.4179 37.5242 46.4083 37.5723 46.3601 37.6301L46.2061 37.8803C46.1676 37.9477 46.1195 37.967 46.0521 37.9188L44.204 36.6675C44.1366 36.6097 44.1366 36.5712 44.1655 36.5135L44.3002 36.3017C44.3484 36.2247 44.3869 36.2151 44.4639 36.2247L46.235 36.4076L46.2446 36.3979L45.2532 34.9637ZM44.358 38.4098L43.405 37.6397C43.3569 37.5916 43.3665 37.5434 43.405 37.4953L43.6264 37.2258C43.6746 37.1776 43.7131 37.1584 43.7708 37.2065L44.743 38.0055C45.3494 38.5156 45.3687 39.0547 44.9259 39.5649C44.4639 40.1232 43.9441 40.1232 43.3665 39.6515L42.3943 38.8525C42.3366 38.8044 42.3558 38.7467 42.3943 38.6985L42.6157 38.4386C42.6638 38.3809 42.6927 38.3713 42.7505 38.4194L43.6938 39.1895C44.127 39.5456 44.3676 39.4975 44.5794 39.2472C44.7815 39.0066 44.7815 38.7563 44.358 38.4098ZM41.5858 39.6611C41.5665 39.6034 41.5761 39.5456 41.6339 39.4879L41.8072 39.3242C41.8649 39.2761 41.9034 39.2857 41.9419 39.3242L43.5687 40.8932C43.5687 40.9029 43.5783 40.9029 43.5783 40.9029C43.6168 40.951 43.6168 40.9991 43.5687 41.0376L43.3088 41.2783C43.2414 41.3456 43.1933 41.3264 43.1259 41.2494L42.2692 40.3927L42.7409 41.6922C42.7697 41.7596 42.7409 41.7981 42.712 41.8269L42.6157 41.9136C42.558 41.9617 42.5291 41.981 42.4521 41.9521L41.1333 41.4323L41.1237 41.4419L41.9612 42.366C42.0285 42.443 41.9997 42.4719 41.9419 42.5296L41.7301 42.7221C41.6724 42.7799 41.6243 42.7895 41.5761 42.7318L41.5665 42.7221L40.1226 41.028C40.0649 40.9606 40.0745 40.9221 40.1226 40.874L40.3152 40.7007C40.3729 40.643 40.421 40.643 40.4884 40.6718L42.1441 41.3168L42.1537 41.3071L41.5858 39.6611ZM40.5365 43.1649L40.6809 43.0687C40.7291 43.0302 40.7772 43.0494 40.8061 43.0879L40.912 43.2419C40.9408 43.2708 40.9408 43.3189 40.9023 43.3478L40.1708 43.8869C40.1226 43.9158 40.0745 43.9061 40.0456 43.8773L39.9398 43.7232C39.9012 43.6751 39.9109 43.627 39.9494 43.5981L40.0841 43.5018L39.0542 42.1157L38.9002 42.2312C38.852 42.2601 38.8039 42.2409 38.775 42.2023L38.6691 42.058C38.6403 42.0195 38.6403 41.9713 38.6788 41.9425L39.4488 41.3842C39.4873 41.3553 39.5355 41.3553 39.5643 41.3938L39.6799 41.5478C39.7087 41.5959 39.7087 41.6344 39.6606 41.6729L39.5066 41.7788L40.5365 43.1649ZM38.7269 44.7147C38.775 44.7917 38.7654 44.8013 38.7076 44.8398L38.3611 45.042C38.3034 45.0805 38.2937 45.0709 38.2456 45.0131L37.2638 43.3767L36.7055 43.704C36.6477 43.7425 36.5996 43.7329 36.5707 43.6655L36.436 43.4441C36.3975 43.3863 36.4167 43.3478 36.4745 43.319L37.9568 42.443L38.1109 42.3467C38.1686 42.3179 38.1975 42.3275 38.2264 42.366L38.3515 42.6355C38.3804 42.6933 38.3515 42.7318 38.2841 42.7703L37.7451 43.0879L38.7269 44.7147ZM32.9899 44.7436C33.7022 44.5126 34.2317 44.9072 34.453 45.581C34.7129 46.3318 34.4242 46.9479 33.7889 47.1597C33.1151 47.3811 32.576 47.0345 32.3354 46.3126C32.0851 45.6003 32.3258 44.965 32.9899 44.7436ZM30.3525 47.6217L30.5257 47.5928C30.5835 47.5928 30.622 47.6217 30.6316 47.6698L30.6605 47.8527C30.6701 47.9009 30.6412 47.9394 30.5931 47.949L29.6979 48.103C29.6498 48.1126 29.6017 48.0838 29.6017 48.0453L29.5632 47.8527C29.5535 47.795 29.5824 47.7565 29.6305 47.7468L29.7942 47.718L29.5054 46.0238L29.3129 46.0527C29.2551 46.0623 29.2262 46.0238 29.2166 45.9757L29.1781 45.7928C29.1781 45.7543 29.1974 45.7158 29.2455 45.7062L30.1888 45.5425C30.237 45.5329 30.2755 45.5714 30.2851 45.6003L30.314 45.7928C30.3236 45.8506 30.2947 45.8891 30.2466 45.8987L30.0541 45.9276L30.3525 47.6217ZM27.484 46.5436C27.5032 46.6591 27.6476 46.7073 27.7343 46.7458L28.1578 46.8998C28.4466 46.996 28.6391 47.1693 28.668 47.4966C28.7065 47.9971 28.3214 48.3244 27.8401 48.3629C27.6091 48.3822 27.33 48.3533 27.0893 48.2955C27.0316 48.2859 27.0123 48.257 27.0123 48.2281C27.0123 48.2089 27.0123 48.1896 27.0219 48.1704L27.0989 47.872C27.0989 47.8431 27.1182 47.8046 27.1663 47.8046C27.176 47.8046 27.2048 47.8046 27.2241 47.8142C27.407 47.872 27.6091 47.8912 27.7824 47.8816C27.9364 47.872 28.1097 47.7757 28.1 47.6025C28.0904 47.4677 27.9749 47.4196 27.8594 47.3714L27.3781 47.1885C27.0989 47.0923 26.9161 46.8901 26.8872 46.5917C26.8487 46.149 27.2818 45.8506 27.6957 45.8217C27.9556 45.8024 28.177 45.8313 28.4081 45.9083C28.4658 45.9276 28.4851 45.9468 28.4947 45.9853C28.4947 45.9949 28.4851 46.0142 28.4851 46.0431L28.3888 46.3222C28.3792 46.3704 28.3599 46.38 28.331 46.3896C28.3118 46.3896 28.2925 46.38 28.2637 46.38C28.1097 46.3318 27.9171 46.2837 27.7728 46.303C27.6284 46.3126 27.4744 46.38 27.484 46.5436ZM5.87409 35.4546L4.69974 36.1766C4.63236 36.2151 4.59386 36.1958 4.55535 36.1381L4.38209 35.8589C4.33396 35.7915 4.33396 35.753 4.40134 35.7049L6.31687 34.5402C6.40351 34.492 6.43238 34.5209 6.48051 34.5787L6.63452 34.8289C6.6634 34.8963 6.67303 34.9348 6.64415 34.9926L5.9896 36.629L7.17357 35.907C7.24095 35.8685 7.28908 35.8878 7.31796 35.9455L7.50084 36.2439C7.54897 36.3209 7.51047 36.3498 7.46234 36.3787L5.54681 37.5434C5.4698 37.5916 5.44093 37.5723 5.40242 37.5146L5.24841 37.2547C5.20991 37.2065 5.20991 37.1488 5.22916 37.091L5.87409 35.4642V35.4546ZM6.91367 38.9199C6.94255 38.9681 6.9233 39.0162 6.88479 39.0451L6.74041 39.1606C6.71153 39.1798 6.65378 39.1798 6.6249 39.1509L6.07623 38.429C6.03772 38.3809 6.05698 38.3328 6.07623 38.3135L6.23024 38.198C6.27837 38.1595 6.3265 38.1691 6.35538 38.2076L6.46126 38.3424L7.83775 37.2835L7.72224 37.1391C7.68373 37.091 7.70299 37.0429 7.74149 37.014L7.8955 36.9081C7.92438 36.8792 7.97251 36.8792 8.00139 36.9177L8.57893 37.6686C8.61744 37.7071 8.60781 37.7552 8.57893 37.7841L8.42492 37.89C8.37679 37.9381 8.32866 37.9188 8.29979 37.8803L8.17465 37.7359L6.79816 38.7755L6.91367 38.9199ZM8.66556 40.7296C8.71369 40.7777 8.70407 40.8258 8.65594 40.874L8.46342 41.0569C8.40567 41.105 8.35754 41.0954 8.30941 41.0472L7.39496 40.0654C7.34683 40.0077 7.33721 39.9691 7.40459 39.9114L9.06022 38.3905C9.10835 38.352 9.15648 38.352 9.20461 38.4001L9.44525 38.66C9.49338 38.7178 9.50301 38.7563 9.44525 38.8044L8.05914 40.075L8.66556 40.7296ZM11.1009 42.2697L10.8699 41.7981C10.7351 41.5382 10.7447 41.2686 10.9276 41.0376C11.2164 40.6815 11.7266 40.7681 12.0538 41.028C12.2464 41.1916 12.3907 41.3649 12.5063 41.5767C12.5351 41.6344 12.5351 41.6633 12.5159 41.6826C12.5063 41.7018 12.487 41.7114 12.4678 41.7211L12.2079 41.8654C12.1694 41.8847 12.1405 41.8847 12.1116 41.8654C12.102 41.8558 12.0923 41.8366 12.0731 41.8173C12.0057 41.6729 11.8902 41.5189 11.7747 41.4323C11.6688 41.336 11.5052 41.2783 11.3993 41.4034C11.3319 41.4997 11.3993 41.6344 11.4378 41.7307L11.6399 42.1253C11.7747 42.3949 11.7939 42.6548 11.5918 42.905C11.2742 43.2997 10.7736 43.2708 10.3886 42.9724C10.2153 42.828 10.0228 42.6163 9.89767 42.4141C9.85916 42.3564 9.85916 42.3275 9.88804 42.3082C9.89767 42.289 9.91692 42.2794 9.93617 42.2697L10.1864 42.1061C10.2249 42.0868 10.2538 42.0676 10.2923 42.0965C10.302 42.1157 10.3116 42.1253 10.3212 42.1446C10.4175 42.3082 10.5522 42.4622 10.687 42.5778C10.8025 42.674 10.995 42.7318 11.1105 42.597C11.1875 42.4911 11.149 42.3756 11.1009 42.2697ZM13.0357 44.1757L12.5159 43.8387L12.41 43.7714L12.0635 44.0505C12.025 44.0794 11.9768 44.0986 11.9191 44.0601L11.5822 43.8387C11.5533 43.8195 11.5533 43.7906 11.5629 43.7617C11.5726 43.7521 11.5822 43.7425 11.5918 43.7329L13.5458 42.2986C13.594 42.2697 13.6421 42.2601 13.6902 42.289L13.9983 42.4911C14.0656 42.5296 14.0753 42.5778 14.0656 42.6259L13.5555 44.965C13.5458 44.9939 13.5458 45.0035 13.5362 45.0131C13.5073 45.0516 13.4785 45.0709 13.4303 45.042L13.1031 44.8206C13.026 44.7725 13.026 44.7243 13.0357 44.6666L13.1416 44.2527L13.0357 44.1757ZM14.6432 43.4345C14.5854 43.396 14.5758 43.3575 14.6047 43.2997L14.7298 43.0591C14.7587 43.0109 14.7972 42.9917 14.8549 43.0302L16.3854 43.8195L16.5491 43.9061C16.6068 43.935 16.6165 43.9735 16.5876 44.012L16.4336 44.2623C16.3854 44.32 16.3373 44.3104 16.2796 44.2719L15.7213 43.9928L14.8357 45.6677C14.7972 45.735 14.7876 45.7447 14.7202 45.7158L14.364 45.5233C14.2967 45.4944 14.2966 45.4848 14.3352 45.4174L15.2207 43.7329L14.6432 43.4345ZM17.2806 46.457C17.3288 46.4762 17.3384 46.5244 17.3288 46.5725L17.2518 46.7458C17.2421 46.7843 17.194 46.8131 17.1459 46.7843L16.3084 46.457C16.2603 46.4281 16.2411 46.38 16.2507 46.3511L16.3277 46.1682C16.3469 46.1105 16.3854 46.1008 16.4432 46.1201L16.5876 46.1778L17.2421 44.5799L17.0689 44.5126C17.0111 44.4837 17.0015 44.4356 17.0207 44.397L17.0978 44.2238C17.1074 44.1853 17.1459 44.1564 17.194 44.1757L18.0796 44.5318C18.1277 44.5511 18.147 44.5896 18.1373 44.6377L18.0603 44.811C18.0315 44.8687 17.993 44.8783 17.9448 44.8591L17.7619 44.7917L17.117 46.3896L17.2806 46.457ZM19.2732 45.8409L19.6197 46.1297C19.8507 46.3318 19.9662 46.5725 19.87 46.8805C19.7256 47.3618 19.2443 47.5255 18.7823 47.3907C18.5609 47.3233 18.3106 47.1982 18.1085 47.0538C18.0603 47.0249 18.0507 46.996 18.0603 46.9672C18.0603 46.9479 18.0796 46.9287 18.0892 46.9094L18.2625 46.6688C18.2817 46.6302 18.3106 46.611 18.3587 46.6206C18.3684 46.6302 18.3876 46.6302 18.4069 46.6591C18.5609 46.765 18.7341 46.8613 18.9074 46.919C19.0518 46.9575 19.2539 46.9383 19.3021 46.7746C19.3406 46.6399 19.2636 46.5532 19.1673 46.4762L18.7726 46.1297C18.5609 45.9372 18.455 45.6773 18.5416 45.3981C18.6764 44.965 19.1866 44.8495 19.5812 44.9746C19.8219 45.042 20.024 45.1479 20.2069 45.3019C20.255 45.35 20.2646 45.3789 20.255 45.4078C20.255 45.4174 20.2454 45.4366 20.2261 45.4463L20.0432 45.6773C20.0144 45.7254 19.9951 45.735 19.9566 45.7254C19.947 45.7158 19.9277 45.7062 19.8989 45.6869C19.7833 45.5907 19.6101 45.4848 19.4753 45.4463C19.3406 45.3981 19.1673 45.4078 19.1192 45.5714C19.0903 45.6773 19.2058 45.7832 19.2732 45.8409ZM24.2786 46.0238L23.9994 48.2281C23.9898 48.3148 23.9417 48.334 23.8839 48.3244L23.5855 48.2859C23.5182 48.2763 23.47 48.2474 23.4412 48.1896L22.5652 46.6784L22.3823 48.0356C22.3727 48.1126 22.3342 48.1319 22.2668 48.1223L21.9395 48.0838C21.8625 48.0741 21.824 48.0549 21.8433 47.9682L22.1128 45.7543C22.1224 45.6677 22.1705 45.6484 22.2476 45.6677L22.5363 45.6965C22.6133 45.7062 22.6422 45.735 22.6711 45.7928L23.547 47.3137L23.7299 45.9468C23.7395 45.8698 23.7781 45.8506 23.8454 45.8602L24.192 45.8987C24.2786 45.9083 24.2786 45.9661 24.2786 46.0238ZM50.403 33.3562C48.4874 38.1595 45.2243 42.2697 40.9697 45.2345C37.0039 47.9971 32.3643 49.6143 27.5417 49.903C27.5129 49.903 27.4936 49.9127 27.4744 49.9319L25.9246 51.4721L24.3749 49.9319C24.3556 49.9127 24.3363 49.903 24.3075 49.903C19.4946 49.6143 14.8453 47.9971 10.8795 45.2345C6.63452 42.2697 3.36176 38.1595 1.44622 33.3562L1.29221 32.9808L7.16394 30.7283C7.31796 30.6609 7.48159 30.7187 7.56823 30.8534L7.57785 30.8631C7.61635 30.9208 7.69336 31.0363 7.80887 31.1422C7.857 31.2962 7.90513 31.4503 7.96288 31.5946C7.65486 31.4791 7.43347 31.1904 7.34683 31.0652L7.32758 31.0267C7.31796 31.0171 7.2987 31.0075 7.27945 31.0075C7.27945 31.0075 7.26983 31.0075 7.2602 31.0075L6.84629 31.1711L6.6634 31.2481L6.69228 31.3251C6.71153 31.3636 6.72116 31.4021 6.73078 31.4214C6.90405 31.8545 7.09656 32.2685 7.28908 32.6824C7.32758 32.7401 7.35646 32.8075 7.38534 32.8653L7.56823 32.7979L8.33829 32.5187C8.38642 32.615 8.43455 32.7016 8.47305 32.7882L7.71261 33.0674L7.5201 33.1348C7.54897 33.1925 7.57785 33.2503 7.61635 33.308C9.16611 36.2343 11.38 38.7467 14.1234 40.6718C17.2421 42.8377 20.8518 44.0794 24.6444 44.32L24.9716 44.6377C20.9962 44.4644 17.194 43.1842 13.9501 40.9125C10.5522 38.5445 7.94363 35.2717 6.41313 31.4406L6.37463 31.354L1.69649 33.154L1.735 33.2407C3.63128 37.9958 6.85592 42.058 11.0624 44.9939C15.0186 47.7468 19.6582 49.3447 24.4807 49.6046L25.8572 50.9715L25.9246 51.0389L27.3685 49.6046C32.191 49.3447 36.8306 47.7468 40.7868 44.9939C44.9933 42.058 48.2276 37.9958 50.1238 33.2407L50.1527 33.154L45.4746 31.354L45.4457 31.4406C43.9056 35.2717 41.297 38.5445 37.8991 40.9125C34.6456 43.1842 30.853 44.4644 26.8776 44.6377L27.2048 44.32C30.9974 44.0794 34.6071 42.8377 37.7258 40.6718C40.4692 38.7467 42.6927 36.2343 44.2329 33.308C44.2714 33.2503 44.3002 33.1925 44.3291 33.1348L44.1366 33.0674L43.3762 32.7882C43.4147 32.7016 43.4628 32.615 43.5013 32.5187L44.281 32.7979L44.4639 32.8653C44.4927 32.8075 44.5313 32.7401 44.5601 32.6824C44.7526 32.2685 44.9452 31.8545 45.1184 31.4214C45.1281 31.4021 45.1473 31.3636 45.1569 31.3251L45.1954 31.2481L45.0029 31.1711L44.589 31.0075C44.5794 31.0075 44.5794 31.0075 44.5601 31.0075C44.5505 31.0075 44.5312 31.0171 44.5216 31.0267L44.5024 31.0652C44.4157 31.1904 44.1943 31.4791 43.8863 31.6043C43.9345 31.4503 43.9922 31.2962 44.0403 31.1422C44.1462 31.046 44.2328 30.9208 44.2714 30.8631L44.281 30.8534C44.3676 30.7187 44.5313 30.6609 44.6853 30.7283L50.557 32.9808L50.403 33.3562ZM3.95856 30.6417L3.91043 30.5647L2.16816 31.3444C2.06227 31.3829 1.95639 31.3444 1.90826 31.2481C1.86976 31.2 1.74462 31.0075 1.64837 30.7572C1.55211 30.4973 1.45585 30.1219 1.55211 29.785C1.62912 29.5155 1.82163 29.3037 2.1104 29.1785L6.38425 27.2245C6.39388 27.2245 6.40351 27.2149 6.41313 27.2149C6.49014 27.1764 6.63452 27.1282 6.79816 27.1282C6.91367 27.1282 7.03881 27.1571 7.17357 27.2052C7.18319 27.3304 7.18319 27.4363 7.19282 27.5518C7.05806 27.4748 6.9233 27.4266 6.78854 27.4266C6.7019 27.4266 6.61527 27.4459 6.53827 27.4844L6.50939 27.494C6.31687 27.5903 6.18211 27.8117 6.12436 28.1101C6.0666 28.447 6.12436 28.8416 6.29762 29.2267L6.3265 29.3037C6.365 29.3999 6.31687 29.5058 6.22062 29.554L4.18957 30.4492L4.25695 30.5454C4.4976 30.8823 4.62273 31.2096 4.69974 31.4599L4.41097 31.5754C4.34359 31.3251 4.20883 30.9786 3.95856 30.6417ZM24.4326 44.1083C20.7556 43.8387 17.2614 42.6066 14.2389 40.4986C11.534 38.6119 9.33937 36.1284 7.79924 33.2407L8.56931 32.9711C8.58856 33.0193 8.61744 33.0578 8.63669 33.1059C8.80995 33.4139 8.99284 33.722 9.19498 34.0107C9.21424 34.0396 9.24311 34.0781 9.28162 34.1262L9.29124 34.1551C12.7276 39.2953 17.7716 42.5008 23.5182 43.1842L24.4326 44.1083ZM26.0401 48.0356C26.0979 48.0356 26.1267 48.0741 26.1267 48.1223V48.3148C26.1267 48.3533 26.0979 48.3918 26.0497 48.3918L25.1353 48.3822C25.0775 48.3822 25.0487 48.3437 25.0487 48.3051V48.1126C25.0487 48.0453 25.0872 48.026 25.1353 48.026H25.3086L25.3278 46.303L25.1449 46.2933C25.0872 46.2933 25.0583 46.2548 25.0583 46.2067V46.0238C25.0583 45.9757 25.0872 45.9372 25.1353 45.9372L26.0882 45.9564C26.146 45.9564 26.1749 45.9949 26.1749 46.0334V46.226C26.1749 46.2837 26.1364 46.3126 26.0882 46.3126H25.8957L25.8668 48.0356H26.0401ZM43.2799 32.9711L44.05 33.2407C42.5195 36.1284 40.3248 38.6119 37.6103 40.4986C34.5878 42.6066 31.0937 43.8387 27.4166 44.1083L28.331 43.1842C34.0776 42.5008 39.1216 39.2953 42.5483 34.1551L42.5676 34.1262C42.5965 34.0781 42.6253 34.0396 42.6542 34.0011C42.8467 33.722 43.0393 33.4139 43.2029 33.1059C43.2318 33.0578 43.2606 33.0193 43.2799 32.9711ZM7.50084 25.5881C7.5201 25.2319 7.54898 24.8758 7.5971 24.51C7.82812 22.3731 8.32866 20.8233 8.5308 20.2554L8.59818 20.0629C9.44525 17.7045 10.1094 15.8371 10.0902 13.575C10.0806 11.8135 7.93401 9.38776 7.10619 8.59844L6.59602 8.11715L7.11581 7.64548L14.0656 1.30203L14.4892 1.58118C15.9908 2.56302 17.9159 3.1117 19.9277 3.1117C22.0262 3.1117 24.0283 2.51489 25.5492 1.45605L25.9246 1.19615L26.3 1.45605C27.8209 2.51489 29.8134 3.1117 31.9215 3.1117C33.9236 3.1117 35.8584 2.56302 37.3504 1.58118L37.7739 1.30203L45.2532 8.11715L44.743 8.60807C43.9152 9.38776 41.7687 11.8135 41.759 13.575C41.7398 15.8371 42.404 17.7045 43.251 20.0629L43.3184 20.2554C43.5205 20.8233 44.0211 22.3731 44.2521 24.51C44.2906 24.8758 44.3291 25.2319 44.3484 25.5881C44.358 25.925 44.3772 26.2715 44.3772 26.5988C44.3869 29.063 43.9056 31.2096 42.943 32.9615C42.7794 33.2599 42.5965 33.5583 42.404 33.8278C42.3847 33.8663 42.3558 33.9048 42.3173 33.9626L42.2981 33.9819C38.9098 39.0643 33.9236 42.2312 28.2444 42.8954H28.1963L25.9246 45.1671L23.6529 42.8954H23.6048C17.9256 42.2312 12.9298 39.0643 9.54151 33.9819L9.53189 33.9626C9.49338 33.9048 9.46451 33.8663 9.44525 33.8375C9.25274 33.5583 9.06985 33.2599 8.90621 32.9615C7.94363 31.2096 7.46234 29.063 7.47197 26.5988C7.47197 26.2715 7.48159 25.925 7.50084 25.5881ZM44.666 27.2149C44.8104 27.1571 44.9452 27.1282 45.051 27.1282C45.2147 27.1282 45.3494 27.1764 45.4361 27.2149C45.4457 27.2149 45.4553 27.2245 45.465 27.2245L49.7388 29.1785C50.0276 29.3037 50.2201 29.5155 50.2971 29.785C50.403 30.1219 50.2971 30.4973 50.2008 30.7572C50.1046 31.0075 49.9794 31.2 49.9409 31.2481C49.8928 31.3444 49.7773 31.3829 49.6907 31.3444L47.9388 30.5647L47.8906 30.6417C47.6404 30.9786 47.5056 31.3251 47.4382 31.5754L47.1591 31.4599C47.2265 31.2096 47.3516 30.8823 47.5923 30.5454L47.6596 30.4492L45.6286 29.554C45.5323 29.5058 45.4842 29.3999 45.5227 29.3037L45.5516 29.2267C45.7248 28.8416 45.7826 28.447 45.7248 28.1101C45.6767 27.8117 45.5323 27.5903 45.3398 27.494L45.3206 27.4844C45.2339 27.4459 45.1473 27.4266 45.0607 27.4266C44.9259 27.4266 44.7911 27.4748 44.6564 27.5614C44.666 27.4363 44.666 27.3304 44.666 27.2149ZM50.7784 32.8845C50.7688 32.8653 50.7495 32.846 50.7303 32.8364L47.6308 31.6428C47.6885 31.431 47.7944 31.123 48.0062 30.8149L49.604 31.5273C49.6618 31.5465 49.7099 31.5561 49.7677 31.5561C49.9121 31.5561 50.0468 31.4791 50.1238 31.354C50.1623 31.2866 50.2875 31.0941 50.3934 30.8246C50.5474 30.4107 50.5859 30.0449 50.4896 29.7272C50.3934 29.3999 50.1623 29.1497 49.8158 28.9957L45.5516 27.0512C45.5516 27.0416 45.542 27.032 45.5227 27.032C45.3591 26.955 45.051 26.8683 44.6756 26.9935V26.5988C44.6756 26.2619 44.666 25.9154 44.6468 25.5688C44.6275 25.2127 44.5986 24.8469 44.5601 24.4811C44.3099 22.3153 43.8093 20.7367 43.5976 20.1591L43.5302 19.9666C42.7023 17.6275 42.0382 15.7793 42.0574 13.5846C42.067 11.9194 44.1462 9.58028 44.9452 8.81984L45.696 8.10752L37.8124 0.926624L37.1868 1.33091C35.7429 2.28387 33.8755 2.80367 31.9215 2.80367C29.8808 2.80367 27.9364 2.23574 26.4733 1.20578L25.9246 0.820737L25.3759 1.20578C23.9032 2.23574 21.9684 2.80367 19.9277 2.80367C17.9737 2.80367 16.1063 2.28387 14.6624 1.33091L14.0368 0.926624L6.91367 7.41446L6.15324 8.10752L6.89442 8.81984C7.69336 9.58028 9.77253 11.9194 9.79178 13.5846C9.80141 15.7793 9.14685 17.6275 8.30941 19.9666L8.24203 20.1591C8.03989 20.7367 7.52972 22.3153 7.28908 24.4811C7.25058 24.8469 7.2217 25.2127 7.20245 25.5688C7.18319 25.9154 7.16394 26.2619 7.16394 26.5988C7.16394 26.7336 7.16394 26.8587 7.17357 26.9935C6.79816 26.8683 6.49014 26.955 6.33613 27.032H6.3265C6.31687 27.032 6.30725 27.0416 6.29762 27.0512L2.0334 28.9957C1.68687 29.1497 1.45585 29.3999 1.35959 29.7272C1.26334 30.0449 1.30184 30.4107 1.45585 30.8246C1.56174 31.0941 1.68687 31.2866 1.735 31.354C1.80238 31.4791 1.93714 31.5561 2.08153 31.5561C2.13928 31.5561 2.18741 31.5465 2.24516 31.5273L3.84305 30.8149C4.05481 31.123 4.1607 31.431 4.22808 31.6428L1.12857 32.8364C1.0997 32.846 1.08044 32.8653 1.07082 32.8845C1.06119 32.9134 1.06119 32.9423 1.07082 32.9615L1.25371 33.4332C3.18849 38.275 6.48051 42.4141 10.764 45.3981C14.7491 48.18 19.4176 49.8068 24.2593 50.0956L25.8572 51.6838C25.8765 51.6935 25.8957 51.7127 25.9246 51.7127C25.9535 51.7127 25.9824 51.6935 25.992 51.6838L27.5899 50.0956C32.4316 49.8068 37.1001 48.18 41.0852 45.3981C45.3687 42.4141 48.6607 38.275 50.5955 33.4332L50.7784 32.9615C50.788 32.9423 50.788 32.9134 50.7784 32.8845Z" fill="#274488"/>
<path d="M24.5991 37.8977C24.8108 37.7726 25.0322 37.6186 25.0322 37.3202C25.0322 37.0603 24.8397 36.8581 24.5702 36.8581C24.3103 36.8581 24.1082 37.0506 24.1082 37.3105C24.1082 37.5897 24.3295 37.7437 24.5991 37.8977Z" fill="#274488"/>
<path d="M39.111 10.8461C38.8607 11.0001 38.6008 11.0578 38.4179 11.0193C38.4756 10.8172 38.6489 10.5958 38.8992 10.4322C39.1398 10.2782 39.4093 10.2204 39.5922 10.2589C39.5345 10.4707 39.3612 10.6921 39.111 10.8461ZM38.62 11.7509C38.3794 11.9145 38.1195 11.9723 37.927 11.9242C37.9847 11.722 38.158 11.5006 38.4083 11.3466C38.6585 11.183 38.9184 11.1252 39.111 11.1734C39.0436 11.3755 38.8703 11.5969 38.62 11.7509ZM38.1484 12.5499C37.8692 12.6076 37.5997 12.5595 37.4361 12.444C37.5516 12.2803 37.7922 12.1359 38.0714 12.0782C38.3505 12.0204 38.6104 12.0686 38.774 12.1841C38.6585 12.3477 38.4275 12.4921 38.1484 12.5499ZM37.927 34.3621C37.6671 34.3621 37.4072 34.3717 37.2628 34.3717C37.3398 33.9385 37.3687 33.438 37.3687 32.8508V32.1481C37.3687 31.6861 37.3302 31.1374 36.666 31.1374C36.435 31.1374 36.204 31.2337 36.0211 31.4069C35.8189 31.6091 35.7612 31.7823 35.7612 32.2829V32.8508C35.7612 33.592 35.8093 34.0348 35.9248 34.3717C35.7997 34.3717 35.5398 34.3621 35.2895 34.3621C35.02 34.3621 34.7697 34.3717 34.635 34.3717C34.7023 33.9385 34.7312 33.438 34.7312 32.8508V31.869C34.7312 31.4743 34.6927 30.8871 34.558 30.4636C34.9141 30.4636 35.405 30.4636 35.7516 30.4347L35.7227 31.1278L36.0499 30.8486C36.4446 30.5214 36.7623 30.377 37.1665 30.377C38.0906 30.377 38.4083 30.9064 38.4083 31.8112V32.8508C38.4083 33.592 38.4564 34.0348 38.5719 34.3717C38.4371 34.3717 38.1772 34.3621 37.927 34.3621ZM32.19 34.4968C30.9483 34.4968 30.2167 33.7749 30.2167 32.5235C30.2167 31.2914 30.9675 30.3866 32.3729 30.3866C33.6243 30.3866 34.3366 31.0989 34.3366 32.3214C34.3366 33.6594 33.4991 34.4968 32.19 34.4968ZM30.1301 30.531C30.1012 30.6465 30.0146 30.9738 29.9665 31.1085C29.6584 31.0797 29.4755 31.07 29.2638 31.07H28.9076C28.898 31.3396 28.8884 31.6572 28.8884 31.8882V32.7931C28.8884 33.3995 28.9557 33.8519 29.4852 33.8519C29.6488 33.8519 29.7836 33.8134 29.9953 33.7075C30.0338 33.6883 30.1108 33.6883 30.082 33.8038C30.0338 33.977 29.9857 34.1407 29.9376 34.3428C29.4563 34.468 29.2541 34.4968 29.0039 34.4968C28.3108 34.4968 27.868 34.2081 27.868 33.2262V32.0037C27.868 31.6187 27.868 31.3299 27.8584 31.0604C27.6466 31.0604 27.4156 31.0893 27.3097 31.1085C27.2905 31.1085 27.2327 31.1085 27.2616 31.0219C27.2616 30.993 27.3675 30.6272 27.406 30.5021C27.5023 30.5117 27.6948 30.5214 27.8873 30.5214C27.8873 30.2037 27.868 30.0401 27.8584 29.7994C28.1376 29.7128 28.6477 29.4818 28.8691 29.347C28.9557 29.2892 28.9942 29.3663 28.9846 29.4529C28.975 29.5491 28.9172 29.809 28.9076 30.5214H29.4659C29.6584 30.5214 29.8702 30.5117 30.0723 30.4636C30.1108 30.454 30.1493 30.4732 30.1301 30.531ZM28.5611 39.8103C28.0317 39.8103 27.6659 39.4927 27.6659 39.0306C27.6659 38.636 27.9065 38.4146 28.3108 38.1835C28.0605 38.0295 27.8103 37.8274 27.8103 37.452C27.8103 37.0188 28.1857 36.6723 28.667 36.6723C29.129 36.6723 29.4755 36.9707 29.4755 37.375C29.4755 37.7504 29.2156 37.9429 28.9365 38.0969C29.2734 38.2894 29.5718 38.5205 29.5718 38.9344C29.5718 39.4445 29.1483 39.8103 28.5611 39.8103ZM26.376 39.7044L26.3664 39.7237H26.3472C26.3472 39.7237 26.0006 39.7237 25.7985 39.7429L25.7504 39.6659L27.2327 37.1343H26.299C26.1546 37.1343 25.9717 37.1536 25.8177 37.2691L25.7985 37.2787L25.7311 37.2402L25.7407 37.221C25.7889 37.0862 25.8274 36.8552 25.8466 36.7685V36.7493H25.8659C25.9717 36.7493 26.0873 36.7493 26.2124 36.7493H27.2809C27.4156 36.7493 27.483 36.7493 27.6081 36.7493L27.637 36.7397V36.7685C27.637 36.807 27.6659 36.9996 27.6755 37.0381L27.6851 37.0477L27.6755 37.0573C27.4445 37.3172 27.175 37.7985 26.9343 38.2221C26.5493 38.9247 26.4049 39.3098 26.376 39.7044ZM25.7119 34.3717C25.5867 34.3717 25.3268 34.3621 25.0862 34.3621C24.8359 34.3621 24.5856 34.3717 24.4316 34.3717C24.5086 33.9193 24.5279 33.5246 24.5279 32.9567V31.9941C24.5279 31.6187 24.499 30.9256 24.3642 30.5021C24.6626 30.5021 25.1343 30.4925 25.452 30.4732L25.4423 31.3877L25.7311 31.0123C26.0873 30.531 26.3375 30.3866 26.7129 30.3866C26.8477 30.3866 26.9151 30.3962 27.0595 30.4636C26.944 30.8679 26.8284 31.2914 26.7611 31.5417C26.7418 31.5898 26.6937 31.6668 26.6263 31.5802C26.4723 31.4166 26.4434 31.3492 26.2605 31.3492C26.0295 31.3492 25.8466 31.4743 25.7119 31.6957C25.5963 31.8786 25.5578 32.0326 25.5578 32.408V33.053C25.5578 33.746 25.5963 34.0348 25.7119 34.3717ZM24.4701 39.7526C23.9407 39.7526 23.5749 39.4253 23.5749 38.9729C23.5749 38.5782 23.8252 38.3568 24.2199 38.1162C23.9696 37.9718 23.7193 37.76 23.7193 37.3942C23.7193 36.9514 24.0947 36.6145 24.5856 36.6145C25.0477 36.6145 25.3846 36.9129 25.3846 37.3172C25.3846 37.6926 25.1247 37.8851 24.8455 38.0392C25.1824 38.2221 25.4808 38.4531 25.4808 38.867C25.4808 39.3772 25.0573 39.7526 24.4701 39.7526ZM23.161 39.6756C23.1129 39.6659 23.0166 39.6563 22.9204 39.6563C22.8434 39.6563 22.7664 39.6659 22.6701 39.6756H22.6316L22.6412 39.6467C22.6797 39.406 22.6894 39.1654 22.6894 38.8959V37.529C22.6894 37.144 22.6605 37.1054 22.5353 37.1054C22.5065 37.1054 22.4487 37.1151 22.3813 37.1247L22.1696 37.1728C22.1022 37.1921 22.0637 37.2017 22.0156 37.2306L21.9482 37.1825L21.9578 37.1632C21.9867 37.1054 22.0252 37.0092 22.0444 36.9226L22.0541 36.9033C22.1696 36.8937 22.2562 36.8841 22.3813 36.8552L22.8337 36.7589C22.9204 36.7397 23.0166 36.7204 23.0936 36.6915H23.1033L23.161 36.7397L23.1514 36.7493C23.1129 37.0092 23.1033 37.298 23.1033 37.4616V38.944C23.1033 39.2424 23.1321 39.483 23.1803 39.6371L23.1899 39.6756H23.161ZM20.5524 32.4754C20.5524 31.2433 21.3321 30.3962 22.4583 30.3962C23.4402 30.3962 24.0466 30.9738 24.0466 31.9171C24.0466 31.9941 24.0466 32.3406 23.9022 32.3406H22.9011C22.4872 32.3406 21.9097 32.3503 21.6498 32.3599C21.669 33.3032 22.1696 33.8423 23.0166 33.8423C23.3535 33.8423 23.5557 33.7653 23.8348 33.5824C23.9022 33.5343 23.9792 33.5728 23.9407 33.6979C23.8637 33.977 23.8445 34.0444 23.7771 34.2754C23.4209 34.4006 22.9589 34.5161 22.545 34.5161C21.3225 34.5161 20.5524 33.6883 20.5524 32.4754ZM19.3685 33.5631C19.2529 33.8423 19.1952 34.054 19.1278 34.3717C19.0412 34.3621 18.8583 34.3621 18.6754 34.3621C18.5214 34.3621 18.3192 34.3717 18.1749 34.3717C18.1171 34.0252 18.0497 33.8134 17.9342 33.4572L17.4144 31.869C17.2508 31.3877 17.0679 30.8679 16.7214 30.4636C17.2412 30.4829 17.6454 30.4636 18.146 30.4251C18.1845 30.8101 18.2615 31.1855 18.377 31.5513L18.6658 32.5524C18.7428 32.7931 18.8968 33.3225 18.8968 33.3225C18.9449 33.1492 19.0123 32.976 19.0701 32.8316L19.5225 31.6476C19.5995 31.4358 19.7054 31.1182 19.7342 30.8005C19.7342 30.6946 19.7439 30.5887 19.7342 30.454C19.8497 30.4636 20.0519 30.4636 20.2252 30.4636C20.3792 30.4636 20.6391 30.4443 20.7546 30.4251C20.8701 30.4155 20.8508 30.4829 20.8123 30.5214C20.5428 30.8679 20.3214 31.3396 20.1193 31.8208L19.3685 33.5631ZM17.0005 33.5535C16.9428 33.746 16.7791 34.3525 16.7599 34.4102C15.8743 34.3717 15.2871 34.3717 14.7673 34.3717C14.1128 34.3717 13.6892 34.3717 13.3331 34.3717C13.3908 33.9578 13.439 33.4765 13.439 32.8797V30.4058C13.439 30.0016 13.4197 29.2411 13.285 28.885C13.5449 28.9042 13.7374 28.9042 13.9299 28.9042H15.4123C15.9417 28.9042 16.1534 28.885 16.731 28.885C16.6251 29.2604 16.5192 29.655 16.4711 29.809C16.4326 29.9631 16.346 29.8475 16.3363 29.8283C16.0957 29.4721 15.6144 29.4336 15.1716 29.4336C15.0272 29.4336 14.8636 29.4433 14.6615 29.4433C14.6518 29.578 14.6326 29.9534 14.6326 30.3V31.0989H15.2871C15.7684 31.0989 16.2497 31.0604 16.4422 31.0315C16.5192 31.0315 16.5 31.0893 16.5 31.0893C16.4422 31.3107 16.3652 31.5898 16.3171 31.7727C15.8069 31.7246 15.5374 31.715 15.1812 31.715H14.6229V32.8316C14.6229 33.5535 14.7 33.7942 15.5663 33.7942C16.0476 33.7942 16.3171 33.7941 16.8465 33.3995C16.9331 33.3225 17.0486 33.361 17.0005 33.5535ZM13.0732 12.1841C13.2368 12.0686 13.5064 12.0204 13.7855 12.0782C14.0647 12.1359 14.2957 12.2803 14.4208 12.444C14.2475 12.5595 13.9876 12.6076 13.7085 12.5499C13.4293 12.4921 13.1983 12.3477 13.0732 12.1841ZM12.7459 11.1734C12.9384 11.1252 13.1983 11.183 13.439 11.3466C13.6892 11.5006 13.8625 11.722 13.9203 11.9242C13.7374 11.9723 13.4775 11.9145 13.2272 11.7509C12.9866 11.5969 12.8037 11.3755 12.7459 11.1734ZM12.255 10.2589C12.4475 10.2204 12.7074 10.2782 12.9577 10.4322C13.208 10.5958 13.3812 10.8172 13.439 11.0193C13.2465 11.0578 12.9866 11.0001 12.7363 10.8461C12.4956 10.6921 12.3224 10.4707 12.255 10.2589ZM12.3705 8.09308C12.5534 8.17009 12.7459 8.37223 12.8807 8.65138C13.0154 8.93053 13.0636 9.2193 13.0154 9.43107C12.8326 9.35407 12.64 9.15192 12.5053 8.87277C12.3705 8.59362 12.3224 8.30485 12.3705 8.09308ZM12.9192 7.35189C13.0636 7.48665 13.1983 7.74655 13.2465 8.05458C13.2946 8.37223 13.2465 8.66101 13.1502 8.8439C12.9962 8.70913 12.8711 8.44924 12.8229 8.14121C12.7748 7.82355 12.8133 7.53478 12.9192 7.35189ZM13.208 7.17862C13.2176 6.85134 13.3235 6.58182 13.4582 6.4278C13.5737 6.60107 13.6507 6.88022 13.6315 7.2075C13.6122 7.51553 13.516 7.78505 13.3812 7.93906C13.2657 7.77542 13.1887 7.48665 13.208 7.17862ZM13.5256 9.69097C13.67 9.82574 13.7951 10.0856 13.8433 10.3937C13.8914 10.7113 13.8529 11.0001 13.747 11.183C13.593 11.0482 13.4679 10.7883 13.4197 10.4707C13.3812 10.1626 13.4197 9.87387 13.5256 9.69097ZM13.2368 10.4418C13.0443 10.4033 12.8133 10.2493 12.6304 10.0086C12.4475 9.75835 12.3513 9.48883 12.3609 9.27706C12.5534 9.30594 12.7844 9.45995 12.9577 9.7006C13.1406 9.95087 13.2368 10.2204 13.2368 10.4418ZM13.1117 9.7006C13.0828 9.50808 13.1309 9.25781 13.2657 9.01716C13.4005 8.77651 13.5834 8.60325 13.747 8.54549C13.7855 8.73801 13.7277 8.99791 13.593 9.23856C13.4679 9.4792 13.2753 9.65247 13.1117 9.7006ZM13.7181 7.88131C13.9106 7.70804 14.132 7.61178 14.3053 7.62141C14.2764 7.81393 14.1513 8.03532 13.9491 8.21821C13.7566 8.39148 13.5352 8.48774 13.362 8.47811C13.3908 8.2856 13.516 8.0642 13.7181 7.88131ZM13.978 6.86097C14.1417 6.60107 14.3534 6.4278 14.5363 6.37005C14.5652 6.59144 14.4882 6.88022 14.3245 7.13049C14.1705 7.40002 13.9491 7.57328 13.7663 7.62141C13.747 7.40964 13.8144 7.12087 13.978 6.86097ZM14.5363 12.3092C14.3534 12.2322 14.1705 12.0301 14.0358 11.7509C13.901 11.4718 13.8721 11.1734 13.9203 10.9712C14.0935 11.0482 14.286 11.2504 14.4208 11.5295C14.5459 11.8183 14.5844 12.1071 14.5363 12.3092ZM15.1524 12.8001C15.0176 12.9638 14.777 13.0889 14.4978 13.1274C14.209 13.1659 13.9491 13.0985 13.7951 12.9734C13.9203 12.8194 14.1705 12.6942 14.4497 12.6557C14.7288 12.6172 14.9887 12.675 15.1524 12.8001ZM15.4026 12.2803C15.6337 12.4632 15.7973 12.6942 15.8454 12.8964C15.6529 12.9349 15.4026 12.8579 15.162 12.675C14.9213 12.5114 14.7577 12.2707 14.7096 12.0589C14.9021 12.0301 15.1524 12.1071 15.4026 12.2803ZM15.9513 13.0408C15.9609 13.0408 15.9609 13.0504 15.9609 13.0504C16.0379 13.0889 16.1149 13.1178 16.1919 13.1563C16.1919 13.1563 16.2786 13.0985 16.4422 13.0408C16.6059 12.9734 16.8273 12.9541 17.0583 13.0215C17.3374 13.0889 17.5588 13.2429 17.6743 13.4162C17.5107 13.5221 17.2508 13.5509 16.962 13.4836C16.7021 13.4162 16.4807 13.2718 16.3652 13.1082C16.3267 13.137 16.2978 13.1659 16.2593 13.1948C16.5577 13.3777 16.7984 13.6087 17.039 13.9167C16.9428 14.0611 16.9043 14.1381 16.808 14.2825C16.6251 13.8782 16.4422 13.5509 16.1919 13.2718C15.9321 13.5509 15.7107 13.8879 15.5374 14.2825C15.4411 14.1381 15.393 14.0707 15.3064 13.9264C15.5374 13.6183 15.8069 13.3777 16.1149 13.1948C16.0861 13.1659 16.0476 13.137 16.0187 13.0985C15.8936 13.2718 15.6818 13.4162 15.4123 13.4836C15.1331 13.5509 14.8636 13.5221 14.7 13.4162C14.8058 13.2429 15.0369 13.0889 15.316 13.0215C15.5566 12.9541 15.778 12.9734 15.9417 13.0408H15.9513ZM16.962 12.2803C17.2027 12.1071 17.4529 12.0301 17.6454 12.0589C17.5973 12.2707 17.4337 12.5114 17.2027 12.675C16.962 12.8579 16.7021 12.9349 16.5192 12.8964C16.5577 12.6942 16.7214 12.4632 16.962 12.2803ZM17.915 12.6557C18.1941 12.6942 18.4348 12.8194 18.5695 12.9734C18.4059 13.0985 18.146 13.1659 17.8572 13.1274C17.5781 13.0889 17.3374 12.9638 17.2123 12.8001C17.3663 12.675 17.6262 12.6172 17.915 12.6557ZM17.9438 11.5295C18.0786 11.2504 18.2615 11.0482 18.4444 10.9712C18.4925 11.1734 18.454 11.4718 18.3192 11.7509C18.1941 12.0301 18.0016 12.2322 17.8187 12.3092C17.7802 12.1071 17.8091 11.8183 17.9438 11.5295ZM17.8187 6.37005C18.0112 6.4278 18.223 6.60107 18.3866 6.86097C18.5406 7.12087 18.6176 7.40964 18.5888 7.62141C18.4059 7.57328 18.1941 7.40002 18.0305 7.13049C17.8668 6.88022 17.7995 6.59144 17.8187 6.37005ZM19.0027 8.47811C18.8294 8.48774 18.608 8.39148 18.4059 8.21821C18.2037 8.03532 18.0786 7.81393 18.0497 7.62141C18.223 7.61178 18.4444 7.70804 18.6465 7.88131C18.8487 8.0642 18.9738 8.2856 19.0027 8.47811ZM18.8968 6.4278C19.0412 6.58182 19.1374 6.85134 19.1471 7.17862C19.1759 7.48665 19.0989 7.77542 18.9834 7.93906C18.8487 7.78505 18.7428 7.51553 18.7235 7.2075C18.7139 6.88022 18.7813 6.60107 18.8968 6.4278ZM19.4455 7.35189C19.5513 7.53478 19.5899 7.82355 19.5417 8.14121C19.4936 8.44924 19.3588 8.70913 19.2144 8.8439C19.1086 8.66101 19.0701 8.37223 19.1182 8.05458C19.1663 7.74655 19.2915 7.48665 19.4455 7.35189ZM19.9845 8.09308C20.0326 8.30485 19.9941 8.59362 19.8594 8.87277C19.7246 9.15192 19.5225 9.35407 19.3492 9.43107C19.3011 9.2193 19.3396 8.93053 19.4743 8.65138C19.6091 8.37223 19.8016 8.17009 19.9845 8.09308ZM18.9257 11.0193C18.9834 10.8172 19.1567 10.5958 19.407 10.4322C19.6572 10.2782 19.9075 10.2204 20.1 10.2589C20.0423 10.4707 19.869 10.6921 19.6187 10.8461C19.3685 11.0001 19.1086 11.0578 18.9257 11.0193ZM18.839 9.69097C18.9353 9.87387 18.9834 10.1626 18.9353 10.4707C18.8872 10.7883 18.762 11.0482 18.608 11.183C18.5118 11.0001 18.4636 10.7113 18.5118 10.3937C18.5599 10.0856 18.685 9.82574 18.839 9.69097ZM19.3973 9.7006C19.5802 9.45995 19.8016 9.30594 19.9941 9.27706C20.0038 9.48883 19.9075 9.75835 19.7246 10.0086C19.5417 10.2493 19.3203 10.4033 19.1278 10.4418C19.1278 10.2204 19.2144 9.95087 19.3973 9.7006ZM19.253 9.7006C19.0797 9.65247 18.8968 9.4792 18.762 9.23856C18.6273 8.99791 18.5791 8.73801 18.608 8.54549C18.7717 8.60325 18.9546 8.77651 19.0893 9.01716C19.2241 9.25781 19.2818 9.50808 19.253 9.7006ZM19.2818 12.1841C19.1663 12.3477 18.9353 12.4921 18.6465 12.5499C18.3674 12.6076 18.1075 12.5595 17.9438 12.444C18.0594 12.2803 18.2904 12.1359 18.5791 12.0782C18.8583 12.0204 19.1182 12.0686 19.2818 12.1841ZM19.1278 11.7509C18.8872 11.9145 18.6176 11.9723 18.4348 11.9242C18.4925 11.722 18.6658 11.5006 18.916 11.3466C19.1663 11.183 19.4262 11.1252 19.6091 11.1734C19.5513 11.3755 19.3781 11.5969 19.1278 11.7509ZM21.5246 13.9841L25.4712 5.59998C25.3268 5.28233 25.5675 4.88766 25.8755 4.88766C26.1835 4.88766 26.4723 5.28232 26.3279 5.59035L30.3034 13.9264C30.9772 14.2536 31.2756 14.6675 31.2371 14.9467C31.2082 15.2451 30.9964 15.428 30.7461 15.5243C30.7654 17.0355 30.698 22.3971 30.7173 25.4581C31.0542 25.5352 31.0542 25.8913 31.0253 27.0464C31.006 28.1534 31.1023 28.5288 30.3707 28.5288C30.2745 28.5288 30.082 28.5192 30.082 28.5192V28.1438C30.0723 27.9512 30.0723 27.8935 29.9665 27.855C29.6584 27.7299 29.3312 27.624 28.975 27.4796C28.7247 27.3929 21.1974 24.6977 21.1974 24.6977C21.1974 24.6977 20.8508 24.6014 20.8508 24.2645C20.8508 24.2357 20.8412 23.9469 20.8412 23.8506V22.7725C20.8412 22.4934 21.0241 22.3971 21.1877 22.4164C21.1974 22.4164 21.1974 22.3875 21.1974 22.3682C21.1877 21.3768 21.1781 16.1884 21.1781 15.6398C20.8316 15.5339 20.7353 15.2932 20.7353 15.2932C20.5717 14.9371 20.7449 14.398 21.5246 13.9841ZM32.4499 10.4322C32.6906 10.5958 32.8734 10.8172 32.9312 11.0193C32.7387 11.0578 32.4788 11.0001 32.2381 10.8461C31.9879 10.6921 31.805 10.4707 31.7472 10.2589C31.9397 10.2204 32.1996 10.2782 32.4499 10.4322ZM31.8627 8.09308C32.0456 8.17009 32.2381 8.37223 32.3729 8.65138C32.5077 8.93053 32.5558 9.2193 32.5077 9.43107C32.3248 9.35407 32.1323 9.15192 31.9975 8.87277C31.8627 8.59362 31.8146 8.30485 31.8627 8.09308ZM32.4114 7.35189C32.5654 7.48665 32.6906 7.74655 32.7387 8.05458C32.7868 8.37223 32.7483 8.66101 32.6424 8.8439C32.4884 8.70913 32.3633 8.44924 32.3151 8.14121C32.267 7.82355 32.3055 7.53478 32.4114 7.35189ZM32.7002 7.17862C32.7194 6.85134 32.8157 6.58182 32.9504 6.4278C33.0756 6.60107 33.143 6.88022 33.1237 7.2075C33.1045 7.51553 33.0082 7.78505 32.8734 7.93906C32.7483 7.77542 32.6809 7.48665 32.7002 7.17862ZM33.2007 7.88131C33.4029 7.70804 33.6243 7.61178 33.8071 7.62141C33.7686 7.81393 33.6435 8.03532 33.451 8.21821C33.2488 8.39148 33.0178 8.48774 32.8446 8.47811C32.8734 8.2856 33.0082 8.0642 33.2007 7.88131ZM33.4702 6.86097C33.6339 6.60107 33.8456 6.4278 34.0285 6.37005C34.0574 6.59144 33.9804 6.88022 33.8264 7.13049C33.6531 7.40002 33.451 7.57328 33.2585 7.62141C33.2392 7.40964 33.3066 7.12087 33.4702 6.86097ZM34.0285 12.3092C33.8456 12.2322 33.6531 12.0301 33.528 11.7509C33.3932 11.4718 33.3547 11.1734 33.4029 10.9712C33.5857 11.0482 33.7783 11.2504 33.9034 11.5295C34.0382 11.8183 34.0767 12.1071 34.0285 12.3092ZM33.2777 12.0782C33.5569 12.1359 33.7879 12.2803 33.9034 12.444C33.7398 12.5595 33.4799 12.6076 33.2007 12.5499C32.9216 12.4921 32.6905 12.3477 32.5654 12.1841C32.7387 12.0686 32.9986 12.0204 33.2777 12.0782ZM33.4221 11.9242C33.2296 11.9723 32.9697 11.9145 32.7194 11.7509C32.4692 11.5969 32.2959 11.3755 32.2381 11.1734C32.4307 11.1252 32.6906 11.183 32.9312 11.3466C33.1815 11.5006 33.3547 11.722 33.4221 11.9242ZM33.0178 9.69097C33.1718 9.82574 33.297 10.0856 33.3355 10.3937C33.3836 10.7113 33.3451 11.0001 33.2392 11.183C33.0852 11.0482 32.9601 10.7883 32.9216 10.4707C32.8734 10.1626 32.9119 9.87387 33.0178 9.69097ZM32.7194 10.4418C32.5365 10.4033 32.3055 10.2493 32.1226 10.0086C31.9397 9.75835 31.8435 9.48883 31.8531 9.27706C32.0456 9.30594 32.267 9.45995 32.4499 9.7006C32.6328 9.95087 32.7291 10.2204 32.7194 10.4418ZM32.6039 9.7006C32.575 9.50808 32.6232 9.25781 32.7579 9.01716C32.8927 8.77651 33.0756 8.60325 33.2488 8.54549C33.2777 8.73801 33.22 8.99791 33.0852 9.23856C32.9504 9.4792 32.7676 9.65247 32.6039 9.7006ZM34.635 12.8001C34.5098 12.9638 34.2692 13.0889 33.99 13.1274C33.7013 13.1659 33.451 13.0985 33.2873 12.9734C33.4221 12.8194 33.6531 12.6942 33.9419 12.6557C34.2211 12.6172 34.4809 12.675 34.635 12.8001ZM34.8949 12.2803C35.1259 12.4632 35.2895 12.6942 35.3376 12.8964C35.1451 12.9349 34.8949 12.8579 34.6542 12.675C34.4136 12.5114 34.2499 12.2707 34.2018 12.0589C34.3943 12.0301 34.6542 12.1071 34.8949 12.2803ZM35.6649 13.1563C35.7323 13.1178 35.8093 13.0889 35.8863 13.0504C35.8959 13.0504 35.8959 13.0408 35.9056 13.0408C36.0788 12.9734 36.3002 12.9541 36.5312 13.0215C36.8104 13.0889 37.0414 13.2429 37.1569 13.4162C36.9837 13.5221 36.7141 13.5509 36.4446 13.4836C36.1751 13.4162 35.9537 13.2718 35.8382 13.0985C35.7997 13.137 35.7708 13.1659 35.7323 13.1948C36.0499 13.3777 36.3195 13.6183 36.5505 13.9264C36.4542 14.0707 36.4157 14.1381 36.3195 14.2825C36.1462 13.8879 35.9248 13.5509 35.6649 13.2718C35.4146 13.5509 35.2221 13.8782 35.0392 14.2825C34.9526 14.1381 34.9045 14.0611 34.8178 13.9167C35.0489 13.6087 35.2895 13.3777 35.5879 13.1948C35.559 13.1659 35.5205 13.137 35.4917 13.1082C35.3665 13.2718 35.1548 13.4162 34.8852 13.4836C34.6061 13.5509 34.3462 13.5221 34.1729 13.4162C34.2884 13.2429 34.5098 13.0889 34.789 13.0215C35.02 12.9541 35.2414 12.9734 35.4146 13.0408C35.5687 13.0985 35.6649 13.1563 35.6649 13.1563ZM36.4542 12.2803C36.6949 12.1071 36.9451 12.0301 37.1377 12.0589C37.0895 12.2707 36.9259 12.5114 36.6949 12.675C36.4542 12.8579 36.1943 12.9349 36.0018 12.8964C36.05 12.6942 36.2136 12.4632 36.4542 12.2803ZM37.4072 12.6557C37.6863 12.6942 37.927 12.8194 38.0521 12.9734C37.8981 13.0985 37.6382 13.1659 37.3591 13.1274C37.0703 13.0889 36.8296 12.9638 36.7045 12.8001C36.8585 12.675 37.1184 12.6172 37.4072 12.6557ZM37.4361 11.5295C37.5708 11.2504 37.7537 11.0482 37.9366 10.9712C37.9847 11.1734 37.9462 11.4718 37.8211 11.7509C37.6863 12.0301 37.4938 12.2322 37.3206 12.3092C37.2628 12.1071 37.3013 11.8183 37.4361 11.5295ZM37.3109 6.37005C37.5034 6.4278 37.7152 6.60107 37.8788 6.86097C38.0425 7.12087 38.1099 7.40964 38.0906 7.62141C37.8981 7.57328 37.6863 7.40002 37.5227 7.13049C37.3591 6.88022 37.2917 6.59144 37.3109 6.37005ZM38.4949 8.47811C38.3216 8.48774 38.1002 8.39148 37.8981 8.21821C37.696 8.03532 37.5708 7.81393 37.5419 7.62141C37.7152 7.61178 37.9366 7.70804 38.1387 7.88131C38.3409 8.0642 38.466 8.2856 38.4949 8.47811ZM38.3986 6.4278C38.5334 6.58182 38.6297 6.85134 38.6489 7.17862C38.6585 7.48665 38.5912 7.77542 38.4756 7.93906C38.3313 7.78505 38.235 7.51553 38.2254 7.2075C38.2061 6.88022 38.2735 6.60107 38.3986 6.4278ZM38.9377 7.35189C39.0339 7.53478 39.0821 7.82355 39.0339 8.14121C38.9858 8.44924 38.8511 8.70913 38.7067 8.8439C38.6008 8.66101 38.5623 8.37223 38.6104 8.05458C38.6585 7.74655 38.7837 7.48665 38.9377 7.35189ZM38.8896 9.7006C39.0724 9.45995 39.2938 9.30594 39.4864 9.27706C39.496 9.48883 39.3997 9.75835 39.2168 10.0086C39.0339 10.2493 38.8126 10.4033 38.62 10.4418C38.6104 10.2204 38.7067 9.95087 38.8896 9.7006ZM38.4275 10.4707C38.3794 10.7883 38.2543 11.0482 38.1002 11.183C38.004 11.0001 37.9559 10.7113 38.004 10.3937C38.0521 10.0856 38.1772 9.82574 38.3313 9.69097C38.4275 9.87387 38.4756 10.1626 38.4275 10.4707ZM38.2543 9.23856C38.1195 8.99791 38.0714 8.73801 38.1002 8.54549C38.2639 8.60325 38.4468 8.77651 38.5815 9.01716C38.7163 9.25781 38.774 9.50808 38.7355 9.7006C38.5719 9.65247 38.389 9.4792 38.2543 9.23856ZM39.4767 8.09308C39.5249 8.30485 39.4864 8.59362 39.342 8.87277C39.2072 9.15192 39.0147 9.35407 38.8414 9.43107C38.7933 9.2193 38.8318 8.93053 38.9666 8.65138C39.1013 8.37223 39.2938 8.17009 39.4767 8.09308ZM44.2896 8.12196L37.7152 2.13467C36.1655 3.14538 34.144 3.76144 31.9205 3.76144C29.6007 3.76144 27.4926 3.08763 25.9236 1.99028C24.3546 3.08763 22.2466 3.76144 19.9268 3.76144C17.7032 3.76144 15.6818 3.14538 14.1417 2.13467L7.55762 8.12196C7.55762 8.12196 10.7341 11.1349 10.7534 13.5702C10.763 16.0152 10.0411 17.9885 9.14587 20.4816C8.8186 21.4153 8.43356 22.888 8.25067 24.5918C8.21217 24.9191 8.17367 25.2753 8.15442 25.6314C8.13516 25.9491 8.13516 26.2763 8.12554 26.6036C8.11591 28.6251 8.46244 30.7813 9.48278 32.6487C9.63679 32.9278 9.80043 33.1973 9.98332 33.4572C10.5127 34.2177 14.8155 41.3408 23.9503 42.2745L23.9888 42.3034L25.9236 44.2382L27.868 42.3034L27.8969 42.2745C37.0318 41.3408 41.3345 34.2177 41.8639 33.4572C42.0468 33.1973 42.2201 32.9278 42.3645 32.6487C43.3848 30.7813 43.7313 28.6251 43.7217 26.6036C43.7217 26.2763 43.7121 25.9491 43.6928 25.6314C43.6736 25.2753 43.6351 24.9191 43.6062 24.5918C43.4137 22.888 43.0383 21.4153 42.7014 20.4816C41.8158 17.9885 41.0842 16.0152 41.1035 13.5702C41.1131 11.1349 44.2896 8.12196 44.2896 8.12196Z" fill="#274488"/>
<path d="M28.6872 37.9583C28.899 37.8332 29.1204 37.6792 29.1204 37.3808C29.1204 37.1209 28.9279 36.9187 28.6583 36.9187C28.3984 36.9187 28.2059 37.1112 28.2059 37.3711C28.2059 37.6503 28.4177 37.8043 28.6872 37.9583Z" fill="#274488"/>
<path d="M28.5612 38.327C28.205 38.5003 28.0317 38.7313 28.0317 39.0105C28.0317 39.3185 28.2628 39.5495 28.59 39.5495C28.9173 39.5495 29.1676 39.3185 29.1676 39.0105C29.1676 38.712 28.9654 38.5484 28.5612 38.327Z" fill="#274488"/>
<path d="M24.472 38.2673C24.1159 38.4406 23.9426 38.6716 23.9426 38.9508C23.9426 39.2588 24.1736 39.4898 24.5009 39.4898C24.8282 39.4898 25.0785 39.2492 25.0785 38.9508C25.0785 38.6524 24.8763 38.4887 24.472 38.2673Z" fill="#274488"/>
</g>
<defs>
<clipPath id="clip0_1_3227">
<rect width="50.031" height="51.2" fill="white" transform="translate(0.909668 0.666687)"/>
</clipPath>
</defs>
</svg>
