<svg width="29.25" height="39" viewBox="0 0 39 52" fill="none" xmlns="http://www.w3.org/2000/svg">
<g clip-path="url(#clip0_1_3211)">
<path d="M37.7311 2.41063C37.6712 2.39616 29.2622 0.00373145 19.4283 0C19.3995 0 19.3711 0.00113074 19.3421 0.00113074C19.3132 0.00113074 19.2849 0 19.2561 0C9.42222 0.00373145 1.01331 2.39616 0.953381 2.41063C0.452693 2.55242 0.106689 3.01015 0.106689 3.53165V30.3821L0.12806 30.5988C0.151127 30.7753 2.74243 44.0233 18.8721 51.1026C19.0208 51.1673 19.1807 51.2 19.3407 51.2C19.3412 51.2 19.3417 51.1996 19.3422 51.1996C19.3428 51.1996 19.3433 51.2 19.3438 51.2C19.5038 51.2 19.6637 51.1673 19.8124 51.1026C35.9421 44.0233 38.5334 30.7753 38.5564 30.5988L38.5778 30.3821V3.53165C38.5777 3.01015 38.2317 2.55242 37.7311 2.41063Z" fill="white"/>
<path d="M37.5445 3.05992C37.5194 3.05347 29.0344 0.692143 19.3423 0.676086C9.6501 0.692143 1.16521 3.05358 1.1401 3.05992C0.927752 3.11826 0.782227 3.31026 0.782227 3.53064V30.3821L0.790255 30.4736C0.799866 30.5464 3.29709 43.5312 19.1454 50.4844C19.208 50.5116 19.2753 50.5255 19.3423 50.5255C19.4092 50.5255 19.4765 50.5116 19.5391 50.4844C35.3875 43.5312 37.8847 30.5464 37.8943 30.4736L37.9023 30.3821V3.53064C37.9022 3.31026 37.7567 3.11826 37.5445 3.05992Z" fill="black"/>
<path d="M19.3423 1.65594C15.3513 1.66069 11.5698 2.07262 8.5105 2.54867V42.0331C11.0757 44.7057 14.5763 47.3784 19.3423 49.5002C24.1084 47.3784 27.609 44.7057 30.1742 42.0331V2.54855C27.1148 2.07251 23.3334 1.66069 19.3423 1.65594Z" fill="white"/>
<path d="M14.043 38.2066C12.5496 36.7144 11.8635 34.9393 11.8645 33.1613C11.8645 31.0411 12.8331 28.922 14.52 27.2362C15.8428 25.914 17.4281 25.0346 19.0743 24.7143L16.7728 22.4138C16.1567 23.0294 13.7803 25.4004 12.8945 26.2862H12.9052L12.5438 26.6436L12.4164 26.7672C12.3319 26.8388 12.2025 26.9051 12.0549 26.903C11.888 26.9137 11.7121 26.8232 11.5993 26.6943L10.338 25.4193C10.2129 25.3096 10.1166 25.1384 10.1273 24.9668C10.1246 24.8181 10.1925 24.6886 10.2781 24.5887L19.0155 15.8549L17.0911 13.9332C16.4761 14.5478 14.0986 16.9199 13.2124 17.8067H13.2209L12.8615 18.1624L12.7332 18.287C12.6507 18.356 12.5224 18.4267 12.371 18.424C12.2036 18.4347 12.0309 18.3432 11.9169 18.2148L10.6541 16.9392C10.5316 16.8295 10.4343 16.6606 10.4439 16.4872C10.4412 16.338 10.5091 16.2086 10.5957 16.1086L20.3585 6.35059C20.5585 6.14355 20.8404 6.01521 21.15 6.01521C21.457 6.01363 21.7314 6.13982 21.9255 6.342L28.4219 12.839C28.4936 12.9245 28.5605 13.054 28.5579 13.2016C28.5685 13.3674 28.4793 13.5434 28.352 13.6563L28.2904 13.7173H28.2878C28.2509 13.7515 28.2007 13.8018 28.1402 13.8611C28.0166 13.9836 27.8524 14.1467 27.6882 14.3109C27.3598 14.6377 27.0335 14.9639 27.0325 14.9639L26.8838 15.1104L21.3987 9.62375L18.9058 12.1188L28.1032 21.3173C28.176 21.4035 28.2428 21.534 28.2401 21.6804C28.2509 21.8467 28.1615 22.0217 28.0331 22.1361L26.5687 23.5915L21.0821 18.1049L18.5881 20.5978L23.1167 25.1264C23.9542 25.4848 24.757 26.024 25.4904 26.7589C26.9039 28.1891 27.7057 29.9108 27.7069 31.6261C27.7069 32.8685 27.2833 34.1015 26.3853 35.1936L26.2387 35.3722L24.0983 33.2301L24.1807 33.0911C24.5803 32.414 24.8134 31.7191 24.8123 31.0323C24.8113 30.2113 24.4887 29.3881 23.6757 28.5731C22.8012 27.7007 21.8497 27.3498 20.88 27.3477C19.4101 27.3451 17.8826 28.1863 16.6787 29.393C15.4721 30.596 14.6318 32.1251 14.6345 33.5955C14.6356 34.5652 14.9876 35.5172 15.8588 36.3895C16.5974 37.1271 17.4185 37.4411 18.2588 37.4422C19.2151 37.4422 20.204 37.025 21.0812 36.3013L21.2272 36.1826L23.3356 38.291L23.1704 38.4381C21.8236 39.633 20.2565 40.2459 18.692 40.2459C17.0414 40.2462 15.4003 39.5641 14.043 38.2066Z" fill="black"/>
<path d="M19.954 25.0025L19.5363 25.0587C17.8493 25.2903 16.1891 26.1558 14.8151 27.5309C13.1934 29.1504 12.2805 31.1695 12.2805 33.1613C12.2821 34.8322 12.9174 36.4892 14.3365 37.9114C15.6276 39.1999 17.1558 39.8284 18.6919 39.8294C20.0836 39.8294 21.487 39.31 22.7269 38.2708L21.1982 36.7411C20.2996 37.4402 19.2813 37.8578 18.2587 37.8589C17.3115 37.8601 16.369 37.4926 15.5646 36.6844C14.6222 35.7458 14.2156 34.6691 14.2178 33.5957C14.2199 31.9644 15.1271 30.356 16.3845 29.0991C17.642 27.8416 19.2496 26.9341 20.8799 26.9313C21.9529 26.9303 23.03 27.3363 23.9698 28.2782C24.8454 29.1516 25.231 30.0967 25.2288 31.0327C25.2288 31.7638 24.9978 32.4806 24.6202 33.162L26.2066 34.7488C26.9479 33.7728 27.2897 32.7063 27.2897 31.6263C27.2907 30.0431 26.5468 28.4209 25.1953 27.0527C24.4876 26.3435 23.7164 25.8306 22.9168 25.493L22.8767 25.476L17.9983 20.5981L21.0822 17.5162L26.5688 23.0022L27.7395 21.8411C27.839 21.7255 27.8128 21.7721 27.8235 21.6806C27.8214 21.6389 27.8192 21.633 27.7951 21.5982L18.3159 12.119L21.3988 9.03497L26.8858 14.5231C27.2035 14.206 27.9341 13.4758 28.0583 13.3604C28.1566 13.2476 28.131 13.293 28.1411 13.2015C28.139 13.1598 28.138 13.1539 28.1129 13.117L21.6282 6.63339C21.5021 6.50505 21.3448 6.4328 21.1501 6.43121C20.9559 6.43121 20.7821 6.51093 20.6558 6.64187L10.9038 16.3881C10.8648 16.4394 10.8627 16.4474 10.8599 16.487C10.8696 16.571 10.8455 16.5272 10.9493 16.6449L12.2131 17.9216C12.327 18.0227 12.2832 17.997 12.3708 18.0076C12.4094 18.005 12.4201 18.0029 12.457 17.9767L12.5522 17.8825L12.5592 17.8739L12.5651 17.8669L12.5769 17.8551C12.5865 17.8455 12.5982 17.8326 12.6148 17.8155C12.6475 17.7834 12.695 17.7358 12.7545 17.6764C12.8742 17.5561 13.0449 17.3839 13.2503 17.1791C13.6611 16.7689 14.2082 16.2212 14.7559 15.6751C15.8492 14.583 16.9441 13.4918 16.9441 13.4918L17.0901 13.3457L19.6044 15.8547L10.5868 24.8666C10.5498 24.9169 10.5462 24.9265 10.5435 24.9667C10.5541 25.0523 10.528 25.0073 10.6328 25.1261L11.8956 26.4017C12.0084 26.5006 11.9646 26.4767 12.055 26.4863C12.095 26.4841 12.1036 26.4815 12.1395 26.4569L12.2422 26.3548L12.2475 26.3483L12.2592 26.3356C12.2688 26.327 12.2806 26.3142 12.2972 26.297C12.3299 26.2649 12.3774 26.2173 12.4368 26.1569C12.5566 26.0366 12.7271 25.8654 12.9326 25.6595C13.3434 25.2492 13.8905 24.7026 14.4381 24.1555C15.5315 23.0633 16.6262 21.9711 16.6262 21.9711L16.7723 21.8246L19.6557 24.7054L19.954 25.0025Z" fill="#E53138"/>
</g>
<defs>
<clipPath id="clip0_1_3211">
<rect width="38.471" height="51.2" fill="white" transform="translate(0.106689)"/>
</clipPath>
</defs>
</svg>
