<svg width="34.5" height="39" viewBox="0 0 46 52" fill="none" xmlns="http://www.w3.org/2000/svg">
<path d="M2.83252 0.475896C4.88382 0.467691 6.93512 0.459486 8.97822 0.475896C9.00284 1.10769 8.97822 1.73949 8.99463 2.36308C9.7331 2.37128 10.4716 2.36308 11.21 2.37128C11.2264 1.73949 11.2182 1.10769 11.21 0.484101C13.3024 0.467691 15.3947 0.443076 17.487 0.492307C17.4788 1.1159 17.4706 1.73949 17.487 2.37128C18.2255 2.36308 18.964 2.37128 19.7024 2.36308C19.6942 1.73128 19.6942 1.10769 19.7106 0.475896C21.803 0.459486 23.9035 0.467691 25.9958 0.475896C25.9794 1.09949 25.9958 1.73128 25.9876 2.36308C26.7671 2.36308 27.5384 2.37128 28.3179 2.35487C28.3097 1.73949 28.3097 1.1159 28.3179 0.500512C30.3856 0.434871 32.4779 0.467691 34.5538 0.484101C34.5538 1.1159 34.5456 1.73949 34.5621 2.36308C35.3498 2.36308 36.1375 2.37128 36.9334 2.36308C36.9087 1.73128 36.9169 1.10769 36.9252 0.475896C38.9436 0.467691 40.9539 0.467691 42.9724 0.475896C42.9806 3.98769 42.9806 7.49949 42.9642 11.0113C42.2667 11.0277 41.5365 10.9949 40.8883 11.3067C40.1908 11.6185 39.7067 12.3569 39.7231 13.1282C39.7313 23.2697 39.7149 33.4195 39.7231 43.561C39.4031 43.7087 39.0913 43.8892 38.7467 43.9631C38.7057 43.9877 38.6318 44.0287 38.599 44.0451C38.4759 44.1354 38.3282 44.1928 38.1723 44.2092C38.1395 44.2338 38.0657 44.2749 38.0247 44.2913C37.9016 44.3815 37.7539 44.4472 37.598 44.4636C37.5652 44.48 37.4913 44.521 37.4503 44.5374C37.0728 44.7262 36.6872 44.9231 36.2851 45.0297C36.2441 45.0544 36.1703 45.0954 36.1375 45.1118C36.0144 45.2021 35.8667 45.2595 35.7108 45.2759C35.678 45.3005 35.6041 45.3415 35.5631 45.3579C35.44 45.4482 35.2923 45.5138 35.1364 45.5303C35.1036 45.5467 35.0298 45.5877 34.9887 45.6041C34.6195 45.801 34.2256 45.9815 33.8236 46.0964C33.7826 46.121 33.7087 46.1621 33.6759 46.1785C33.5528 46.2687 33.4051 46.3262 33.2492 46.3426C33.2164 46.3672 33.1426 46.4 33.1015 46.4246C31.7148 47.0482 30.32 47.6882 28.9005 48.2297C28.8594 48.2544 28.7856 48.2954 28.7528 48.3118C28.6297 48.4021 28.482 48.4595 28.3261 48.4759C28.2933 48.5005 28.2194 48.5415 28.1784 48.5579C28.0553 48.6482 27.9076 48.7138 27.7517 48.7303C27.7189 48.7467 27.6451 48.7877 27.604 48.8041C27.4235 48.919 27.2266 49.0092 27.0133 49.0503C26.9722 49.0749 26.8984 49.1159 26.8656 49.1323C26.7343 49.2144 26.5866 49.28 26.4389 49.2964C26.3979 49.321 26.324 49.3621 26.2912 49.3785C25.9712 49.5426 25.643 49.7067 25.2902 49.7969C25.2573 49.8133 25.1835 49.8544 25.1425 49.8708C24.962 49.9856 24.765 50.0759 24.5517 50.1169C24.5107 50.1415 24.445 50.1826 24.404 50.199C24.2727 50.281 24.125 50.3467 23.9773 50.3631C23.9363 50.3877 23.8625 50.4287 23.8296 50.4451C23.5096 50.6092 23.1896 50.7651 22.845 50.8554C22.443 50.7405 22.0655 50.5436 21.6963 50.3631C21.6553 50.3467 21.5814 50.3056 21.5486 50.2892C21.3927 50.2728 21.245 50.2072 21.1219 50.1169C21.0809 50.1005 21.0071 50.0595 20.9742 50.0349C20.3835 49.8379 19.8009 49.5672 19.2347 49.2964C19.2019 49.28 19.1281 49.239 19.087 49.2144C18.685 49.0995 18.2993 48.9108 17.9219 48.7221C17.8809 48.7056 17.807 48.6646 17.7742 48.64C17.6183 48.6318 17.4788 48.5579 17.3475 48.4759C17.3147 48.4595 17.2409 48.4185 17.1998 48.3938C16.166 48 15.1567 47.5323 14.1475 47.081C14.1147 47.0564 14.0408 47.0154 13.9998 46.999C13.7865 46.9579 13.5895 46.8595 13.409 46.7528C13.368 46.7364 13.2942 46.6954 13.2613 46.6708C13.1054 46.6544 12.9659 46.5887 12.8347 46.5067C12.7936 46.4903 12.728 46.4492 12.687 46.4246C12.2849 46.3097 11.8993 46.1128 11.5218 45.9323C11.4808 45.9159 11.407 45.8749 11.3741 45.8585C11.2182 45.8338 11.0705 45.7682 10.9475 45.6862C10.9146 45.6697 10.8408 45.6287 10.7998 45.6041C9.76592 45.2185 8.75668 44.7344 7.74744 44.2913C7.70641 44.2749 7.64077 44.2338 7.59974 44.2092C7.19769 44.0862 6.81204 43.9056 6.43461 43.7169C6.40178 43.7005 6.32794 43.6595 6.28691 43.6349C6.22948 43.6185 6.1146 43.5774 6.05717 43.5528C6.1064 39.7867 6.06537 36.0123 6.07358 32.2462C6.06537 31.4421 6.1064 30.638 6.05717 29.8421C6.03255 24.3282 6.04076 18.8062 6.04896 13.2923C6.14742 12.4062 5.56485 11.5938 4.79356 11.2164C4.76074 11.2 4.67869 11.1672 4.64587 11.1426C4.04689 11.0031 3.4397 11.0195 2.84072 11.0113C2.84072 7.49949 2.84072 3.98769 2.83252 0.475896ZM3.5874 1.17333C3.60381 4.19282 3.60381 7.22051 3.5874 10.24C4.28484 10.3138 5.0151 10.4123 5.58947 10.8554C6.2623 11.3477 6.82846 12.1026 6.85307 12.9641C6.86128 22.999 6.86948 33.0338 6.86948 43.0605C12.1947 45.3744 17.5116 47.7046 22.845 49.9692C28.2358 47.7046 33.5856 45.3169 38.9765 43.0441C38.9765 32.9354 38.9765 22.8267 38.9765 12.7179C39.1488 11.1836 40.7406 10.2154 42.1929 10.2564C42.1847 7.22872 42.1929 4.20102 42.1929 1.17333C40.6749 1.18154 39.157 1.18154 37.639 1.17333C37.639 1.82154 37.6472 2.46974 37.6308 3.11795C36.3426 3.11795 35.0544 3.13436 33.7661 3.10974C33.7661 2.46154 33.7908 1.81333 33.7579 1.16513C32.1907 1.18154 30.6318 1.18154 29.0728 1.16513C29.0317 1.81333 29.0482 2.46154 29.0564 3.10974C27.7846 3.13436 26.5045 3.12615 25.2245 3.10974C25.2081 2.46154 25.2327 1.81333 25.2081 1.17333C23.6409 1.18154 22.0655 1.17333 20.4901 1.17333C20.4983 1.82154 20.4983 2.46974 20.4901 3.11795C19.2265 3.12615 17.9629 3.13436 16.6993 3.10974C16.6911 2.46154 16.7157 1.81333 16.6747 1.17333C15.1157 1.17333 13.5567 1.18154 11.9977 1.16513C11.9649 1.81333 11.9813 2.46154 11.9895 3.10154C10.7095 3.14256 9.42951 3.11795 8.14949 3.11795C8.13308 2.46974 8.14949 1.82154 8.14129 1.17333C6.62333 1.18154 5.10536 1.17333 3.5874 1.17333Z" fill="#DE2C37" stroke="#DE2C37" stroke-width="0.0769231"/>
<path d="M25.9958 0.475891C26.0286 1.09948 26.004 1.72307 26.0122 2.35487C26.767 2.36307 27.5301 2.37128 28.285 2.34666C28.3096 1.73128 28.244 1.10769 28.3178 0.500506C28.3096 1.11589 28.3096 1.73948 28.3178 2.35487C27.5383 2.37128 26.767 2.36307 25.9875 2.36307C25.9958 1.73128 25.9793 1.09948 25.9958 0.475891Z" fill="#FEFEFE" stroke="#FEFEFE" stroke-width="0.0769231"/>
<path d="M3.5874 1.17337C5.10537 1.17337 6.62333 1.18157 8.14129 1.17337C8.1495 1.82157 8.13309 2.46978 8.1495 3.11798C9.42951 3.11798 10.7095 3.1426 11.9895 3.10157C11.9813 2.46157 11.9649 1.81337 11.9977 1.16516C13.5567 1.18157 15.1157 1.17337 16.6747 1.17337C16.7157 1.81337 16.6911 2.46157 16.6993 3.10978C17.9629 3.13439 19.2265 3.12619 20.4901 3.11798C20.4983 2.46978 20.4983 1.82157 20.4901 1.17337C22.0655 1.17337 23.6409 1.18157 25.2081 1.17337C25.2327 1.81337 25.2081 2.46157 25.2245 3.10978C26.5045 3.12619 27.7846 3.13439 29.0564 3.10978C29.0482 2.46157 29.0318 1.81337 29.0728 1.16516C30.6318 1.18157 32.1908 1.18157 33.758 1.16516C33.7908 1.81337 33.7662 2.46157 33.7662 3.10978C35.0544 3.13439 36.3426 3.11798 37.6308 3.11798C37.6472 2.46978 37.639 1.82157 37.639 1.17337C39.157 1.18157 40.6749 1.18157 42.1929 1.17337C42.1929 4.20106 42.1847 7.22875 42.1929 10.2564C40.7406 10.2154 39.1488 11.1836 38.9765 12.718C38.9765 22.8267 38.9765 32.9354 38.9765 43.0441C33.5856 45.317 28.2358 47.7046 22.845 49.9693C17.5116 47.7046 12.1947 45.3744 6.86949 43.0605C6.86949 33.0339 6.86128 22.999 6.85307 12.9641C6.82846 12.1026 6.2623 11.3477 5.58947 10.8554C5.01511 10.4123 4.28484 10.3139 3.5874 10.24C3.60381 7.22055 3.60381 4.19285 3.5874 1.17337ZM4.07151 1.65747C4.0551 4.38157 4.0633 7.10567 4.0633 9.82157C5.57306 9.92003 7.14026 11.0031 7.39462 12.5539C7.40282 22.5641 7.39462 32.5744 7.40282 42.5846C7.38641 42.7077 7.42744 42.8308 7.55872 42.8554C12.6624 45.0708 17.7414 47.319 22.845 49.5262C28.0471 47.2862 33.2328 45.0052 38.4267 42.7488C38.4595 32.8205 38.4267 22.8923 38.4431 12.9559C38.5006 11.2575 40.0513 9.90362 41.7088 9.81337C41.7334 7.09747 41.7252 4.38157 41.7088 1.65747C40.5108 1.67388 39.3211 1.66567 38.1231 1.65747C38.1231 2.30567 38.1559 2.94567 38.1067 3.58567C36.4985 3.56926 34.8903 3.57747 33.2821 3.58567C33.2738 2.94567 33.2985 2.30567 33.2656 1.65747C32.0349 1.66567 30.7959 1.66567 29.5651 1.65747C29.5323 2.29747 29.5487 2.94567 29.5487 3.58567C27.9487 3.57747 26.3486 3.56926 24.7486 3.58567C24.724 2.94567 24.7568 2.30567 24.724 1.65747C23.4768 1.66567 22.2214 1.66567 20.9742 1.65747C20.9578 2.30567 20.9989 2.94567 20.9496 3.58567C19.366 3.57747 17.7906 3.56926 16.207 3.58567C16.1578 2.94567 16.1988 2.30567 16.1824 1.65747C14.9352 1.66567 13.688 1.66567 12.4408 1.65747C12.4244 2.30567 12.4654 2.94567 12.4162 3.58567C10.8408 3.56926 9.2572 3.56926 7.6736 3.58567C7.63257 2.94567 7.66539 2.30567 7.64898 1.65747C6.45923 1.66567 5.26126 1.66567 4.07151 1.65747Z" fill="#FEFEFE" stroke="#FEFEFE" stroke-width="0.0769231"/>
<path d="M4.07154 1.65747C5.26129 1.66568 6.45925 1.66568 7.64901 1.65747C7.66542 2.30568 7.6326 2.94568 7.67362 3.58568C9.25723 3.56927 10.8408 3.56927 12.4162 3.58568C12.4655 2.94568 12.4244 2.30568 12.4408 1.65747C13.688 1.66568 14.9352 1.66568 16.1824 1.65747C16.1988 2.30568 16.1578 2.94568 16.207 3.58568C17.7906 3.56927 19.366 3.57747 20.9496 3.58568C20.9989 2.94568 20.9579 2.30568 20.9743 1.65747C22.2215 1.66568 23.4769 1.66568 24.724 1.65747C24.7569 2.30568 24.724 2.94568 24.7487 3.58568C26.3487 3.56927 27.9487 3.57747 29.5487 3.58568C29.5487 2.94568 29.5323 2.29747 29.5651 1.65747C30.7959 1.66568 32.0349 1.66568 33.2657 1.65747C33.2985 2.30568 33.2739 2.94568 33.2821 3.58568C34.8903 3.57747 36.4985 3.56927 38.1067 3.58568C38.156 2.94568 38.1231 2.30568 38.1231 1.65747C39.3211 1.66568 40.5109 1.67388 41.7088 1.65747C41.7252 4.38157 41.7334 7.09747 41.7088 9.81337C40.0514 9.90362 38.5006 11.2575 38.4431 12.9559C38.4267 22.8923 38.4596 32.8205 38.4267 42.7488C33.2328 45.0052 28.0472 47.2862 22.8451 49.5262C17.7414 47.319 12.6624 45.0708 7.55875 42.8554C7.42747 42.8308 7.38644 42.7077 7.40285 42.5847C7.39464 32.5744 7.40285 22.5641 7.39464 12.5539C7.14028 11.0031 5.57309 9.92004 4.06333 9.82157C4.06333 7.10568 4.05513 4.38157 4.07154 1.65747ZM6.8531 4.67696C6.86131 6.28516 6.8531 7.89337 6.86131 9.49337C17.5691 9.48516 28.2769 9.49337 38.9847 9.49337C38.9683 7.89337 38.9683 6.29337 38.9847 4.68516C38.7467 4.67696 38.5088 4.66875 38.2708 4.66875C27.801 4.67696 17.3229 4.66055 6.8531 4.67696ZM8.83056 10.519C8.83876 17.797 8.83876 25.0667 8.83056 32.3364C18.1845 32.3693 27.5384 32.3529 36.9006 32.3447C36.9088 25.0667 36.917 17.7888 36.8924 10.519C27.5384 10.5272 18.1845 10.519 8.83056 10.519ZM8.78132 32.9682C8.78132 34.4534 8.75671 35.9549 8.79774 37.44V37.3744C18.1763 37.4072 27.5548 37.3744 36.9334 37.3908C36.9334 36.9641 36.9252 36.5293 36.9498 36.0944C36.9334 35.0523 36.9826 34.0021 36.917 32.96V33.0175C27.5384 33.0011 18.1681 32.9929 8.79774 33.0257L8.78132 32.9682ZM8.83056 38.4C8.83876 39.7867 8.83876 41.1816 8.83056 42.5682C18.1845 42.5846 27.5384 42.5682 36.8924 42.5764C36.917 41.1816 36.9088 39.7867 36.8924 38.3918C27.5384 38.3836 18.1845 38.3754 8.83056 38.4ZM11.9239 43.6021C15.4686 45.1611 19.0625 46.6216 22.6235 48.1477C22.8533 48.2954 23.0912 48.1313 23.3045 48.0493C26.841 46.5559 30.4103 45.1282 33.9303 43.6021C26.5948 43.5857 19.2594 43.5857 11.9239 43.6021Z" fill="#DE2C37" stroke="#DE2C37" stroke-width="0.0769231"/>
<path d="M6.85303 4.67691C17.3229 4.6605 27.8009 4.67691 38.2708 4.6687C38.5087 4.6687 38.7467 4.67691 38.9846 4.68511C38.9682 6.29332 38.9682 7.89332 38.9846 9.49332C28.2768 9.49332 17.569 9.48511 6.86123 9.49332C6.85303 7.89332 6.86123 6.28511 6.85303 4.67691ZM7.36175 5.17742C7.36996 6.45742 7.36996 7.73742 7.35355 9.01742C17.7249 9.04203 28.0881 9.02562 38.4513 9.02562C38.4677 7.73742 38.4677 6.44921 38.4513 5.16101C28.3014 5.1446 18.1434 5.16101 7.99355 5.1528C7.78022 5.1528 7.56688 5.16101 7.36175 5.17742Z" fill="#FEFEFE" stroke="#FEFEFE" stroke-width="0.0769231"/>
<path d="M7.36172 5.17745C7.56685 5.16104 7.78019 5.15283 7.99352 5.15283C18.1434 5.16104 28.3014 5.14463 38.4512 5.16104C38.4677 6.44924 38.4677 7.73745 38.4512 9.02565C28.0881 9.02565 17.7249 9.04206 7.35352 9.01745C7.36993 7.73745 7.36993 6.45745 7.36172 5.17745ZM12.2438 6.30155C11.9648 6.50668 11.9977 6.94155 12.2356 7.16309C12.4982 7.40924 12.892 7.40924 13.1792 7.61437C13.2859 7.69642 13.1874 7.86052 13.0725 7.87693C12.7279 7.9754 12.3915 7.78668 12.0961 7.63899C12.0879 7.80309 12.0879 7.96719 12.0797 8.13129C12.531 8.31181 13.0807 8.43488 13.5238 8.15591C13.8438 7.99181 13.8931 7.48309 13.6305 7.24514C13.3269 6.95796 12.851 6.97437 12.5638 6.66258C12.9166 6.40001 13.3515 6.58052 13.7043 6.72001C13.7043 6.56411 13.7043 6.41642 13.7043 6.26052C13.2449 6.09642 12.6623 5.96514 12.2438 6.30155ZM19.407 6.49027C19.0049 6.85129 18.9721 7.54052 19.3659 7.90976C19.8747 8.43488 20.7198 8.41027 21.3434 8.10668C21.3434 7.95078 21.3434 7.78668 21.3434 7.63078C20.9331 7.79488 20.4408 7.9836 20.0224 7.74565C19.6777 7.57335 19.5793 7.05642 19.8829 6.80206C20.2685 6.44924 20.8757 6.5477 21.2942 6.79386C21.3024 6.61335 21.3024 6.43283 21.286 6.25232C20.6706 6.02258 19.8993 6.00617 19.407 6.49027ZM28.7855 6.11283C28.1291 6.19488 27.5383 6.8595 27.7845 7.54052C28.1783 8.6236 30.0491 8.56617 30.3527 7.43386C30.5414 6.57232 29.5568 5.94052 28.7855 6.11283ZM8.83045 6.14565C8.83866 6.8677 8.83866 7.58155 8.83045 8.3036C9.04379 8.31181 9.24892 8.31181 9.45405 8.3036C9.45405 7.58155 9.45405 6.8677 9.45405 6.14565C9.24892 6.13745 9.04379 6.13745 8.83045 6.14565ZM9.95457 6.14565C9.94636 6.8595 9.93816 7.57335 9.95457 8.28719C10.1515 8.28719 10.3484 8.28719 10.5453 8.28719C10.5618 7.99181 10.5618 7.70463 10.5618 7.40924C10.9064 7.41745 11.3248 7.49129 11.5792 7.19591C11.9156 6.88411 11.7187 6.25232 11.2674 6.17027C10.8325 6.09642 10.3894 6.14565 9.95457 6.14565ZM13.9095 6.15386C14.2459 6.83488 14.5413 7.53232 14.8777 8.21334C14.9187 8.36104 15.1649 8.36104 15.2223 8.22155C15.4521 7.81129 15.6244 7.38463 15.8705 6.99078C16.1495 7.41745 16.3382 7.89334 16.5926 8.32822C16.6582 8.32001 16.7895 8.3036 16.8551 8.2954C17.1587 7.57334 17.5116 6.8677 17.8316 6.15386C17.6264 6.15386 17.4049 6.08822 17.208 6.17847C17.011 6.52309 16.8798 6.90873 16.691 7.25335C16.4695 6.90052 16.3054 6.51488 16.1167 6.13745C15.9526 6.13745 15.7885 6.13745 15.6244 6.14565C15.4438 6.51488 15.2715 6.90052 15.0582 7.25335C14.8613 6.90052 14.73 6.52309 14.5331 6.17027C14.3361 6.09642 14.1146 6.14565 13.9095 6.15386ZM18.0859 6.13745C18.0859 6.8595 18.0859 7.58976 18.0859 8.31181C18.2993 8.32001 18.5126 8.31181 18.7177 8.2954C18.7095 7.58155 18.7095 6.8677 18.7177 6.15386C18.5126 6.13745 18.2993 6.13745 18.0859 6.13745ZM21.7701 6.13745C21.7619 6.8595 21.7537 7.57335 21.7701 8.28719C21.967 8.2954 22.1557 8.2954 22.3444 8.2954C22.3526 8.00001 22.3608 7.70463 22.369 7.40924C22.7383 7.41745 23.1075 7.41745 23.4767 7.40924C23.4685 7.70463 23.4767 8.00001 23.485 8.28719C23.6737 8.28719 23.8706 8.28719 24.0593 8.27899C24.0593 7.56514 24.0511 6.8595 24.0593 6.14565C23.8706 6.13745 23.6737 6.13745 23.485 6.13745C23.4767 6.41642 23.4767 6.6954 23.485 6.97437C23.1075 7.00719 22.7301 6.99899 22.3608 6.98258C22.3608 6.7036 22.3608 6.41642 22.3526 6.13745C22.1557 6.13745 21.967 6.13745 21.7701 6.13745ZM25.3229 6.15386C25.3229 6.28514 25.3311 6.41642 25.3311 6.5477C25.6019 6.5477 25.8727 6.5477 26.1434 6.55591C26.1599 7.13027 26.1516 7.70463 26.1434 8.27899C26.3486 8.28719 26.5537 8.27899 26.7588 8.27899C26.7424 7.70463 26.7424 7.13027 26.7588 6.55591C27.0296 6.5477 27.3086 6.5477 27.5794 6.5395C27.5794 6.41642 27.5794 6.28514 27.5794 6.16206C26.8327 6.11283 26.0778 6.12924 25.3229 6.15386ZM30.4512 6.14565C30.7548 6.88411 31.1076 7.59796 31.444 8.32001C31.5096 8.31181 31.6409 8.3036 31.7066 8.3036C31.9281 7.85232 32.1496 7.40104 32.3876 6.96617C32.6502 7.40104 32.8471 7.86873 33.085 8.31181C33.1507 8.31181 33.282 8.3036 33.3476 8.3036C33.6922 7.58976 34.0286 6.87591 34.3486 6.15386C34.1353 6.15386 33.9056 6.08001 33.7168 6.18668C33.5363 6.5395 33.4133 6.91693 33.1999 7.25335C32.9948 6.90873 32.8553 6.53129 32.6584 6.18668C32.4861 6.10463 32.1661 6.0636 32.084 6.29334C31.9117 6.61334 31.7886 6.95796 31.5671 7.25335C31.3948 6.88411 31.2307 6.50668 31.0502 6.13745C30.8532 6.13745 30.6563 6.13745 30.4512 6.14565ZM34.5948 6.15386C34.6112 6.8595 34.603 7.56514 34.603 8.27899C34.7917 8.27899 34.9804 8.28719 35.1692 8.2954C35.1856 7.85232 35.1856 7.41745 35.1774 6.98258C35.5712 7.36822 35.9405 7.77847 36.3261 8.17232C36.4738 8.35283 36.7364 8.27078 36.9333 8.27899C36.9169 7.56514 36.9169 6.8595 36.9333 6.15386C36.7446 6.14565 36.5558 6.13745 36.3589 6.13745C36.3507 6.5477 36.3507 6.96617 36.3589 7.37642C35.9897 7.0154 35.6369 6.64617 35.284 6.27693C35.1199 6.0554 34.8245 6.15386 34.5948 6.15386Z" fill="#3A64A3" stroke="#3A64A3" stroke-width="0.0769231"/>
<path d="M12.244 6.30155C12.6624 5.96514 13.245 6.09642 13.7045 6.26053C13.7045 6.41642 13.7045 6.56412 13.7045 6.72001C13.3517 6.58053 12.9168 6.40001 12.564 6.66258C12.8511 6.97437 13.327 6.95796 13.6306 7.24514C13.8932 7.48309 13.844 7.99181 13.524 8.15591C13.0809 8.43488 12.5311 8.31181 12.0799 8.13129C12.0881 7.96719 12.0881 7.80309 12.0963 7.63899C12.3917 7.78668 12.7281 7.9754 13.0727 7.87694C13.1876 7.86053 13.286 7.69642 13.1794 7.61437C12.8922 7.40924 12.4983 7.40924 12.2358 7.16309C11.9978 6.94155 11.965 6.50668 12.244 6.30155Z" fill="#FEFEFE" stroke="#FEFEFE" stroke-width="0.0769231"/>
<path d="M19.407 6.49024C19.8993 6.00614 20.6706 6.02255 21.286 6.25229C21.3024 6.4328 21.3024 6.61332 21.2942 6.79383C20.8758 6.54767 20.2686 6.44921 19.8829 6.80203C19.5793 7.05639 19.6778 7.57332 20.0224 7.74562C20.4409 7.98357 20.9332 7.79485 21.3434 7.63075C21.3434 7.78665 21.3434 7.95075 21.3434 8.10665C20.7199 8.41024 19.8747 8.43485 19.366 7.90973C18.9721 7.54049 19.005 6.85126 19.407 6.49024Z" fill="#FEFEFE" stroke="#FEFEFE" stroke-width="0.0769231"/>
<path d="M28.7856 6.11279C29.5569 5.94049 30.5415 6.57228 30.3528 7.43382C30.0492 8.56613 28.1784 8.62356 27.7846 7.54049C27.5384 6.85946 28.1292 6.19484 28.7856 6.11279ZM28.8595 6.5969C28.4164 6.63792 28.2113 7.18767 28.4246 7.54869C28.6297 7.89331 29.122 7.95074 29.4502 7.76202C29.7867 7.57331 29.8687 7.05638 29.5979 6.78561C29.4092 6.58869 29.1138 6.55587 28.8595 6.5969Z" fill="#FEFEFE" stroke="#FEFEFE" stroke-width="0.0769231"/>
<path d="M8.83057 6.14562C9.0439 6.13741 9.24903 6.13741 9.45416 6.14562C9.45416 6.86767 9.45416 7.58152 9.45416 8.30357C9.24903 8.31177 9.0439 8.31177 8.83057 8.30357C8.83877 7.58152 8.83877 6.86767 8.83057 6.14562Z" fill="#FEFEFE" stroke="#FEFEFE" stroke-width="0.0769231"/>
<path d="M9.95479 6.14565C10.3897 6.14565 10.8327 6.09642 11.2676 6.17027C11.7189 6.25232 11.9158 6.88411 11.5794 7.19591C11.3251 7.49129 10.9066 7.41745 10.562 7.40924C10.562 7.70463 10.562 7.99181 10.5456 8.28719C10.3486 8.28719 10.1517 8.28719 9.95479 8.28719C9.93838 7.57335 9.94658 6.8595 9.95479 6.14565ZM10.5538 6.5477C10.5538 6.71181 10.562 6.87591 10.562 7.04822C10.8409 7.04822 11.2184 7.0154 11.1527 6.63796C10.9558 6.55591 10.7589 6.53129 10.5538 6.5477Z" fill="#FEFEFE" stroke="#FEFEFE" stroke-width="0.0769231"/>
<path d="M13.9097 6.15385C14.1148 6.14565 14.3363 6.09642 14.5333 6.17026C14.7302 6.52309 14.8615 6.90052 15.0584 7.25334C15.2717 6.90052 15.444 6.51488 15.6246 6.14565C15.7887 6.13744 15.9528 6.13744 16.1169 6.13744C16.3056 6.51488 16.4697 6.90052 16.6912 7.25334C16.88 6.90873 17.0112 6.52309 17.2082 6.17847C17.4051 6.08821 17.6266 6.15385 17.8318 6.15385C17.5118 6.8677 17.1589 7.57334 16.8553 8.29539C16.7897 8.3036 16.6584 8.32001 16.5928 8.32821C16.3384 7.89334 16.1497 7.41744 15.8707 6.99078C15.6246 7.38462 15.4522 7.81129 15.2225 8.22155C15.1651 8.36103 14.9189 8.36103 14.8779 8.21334C14.5415 7.53232 14.2461 6.83488 13.9097 6.15385Z" fill="#FEFEFE" stroke="#FEFEFE" stroke-width="0.0769231"/>
<path d="M18.0859 6.13745C18.2993 6.13745 18.5126 6.13745 18.7177 6.15386C18.7095 6.86771 18.7095 7.58155 18.7177 8.2954C18.5126 8.31181 18.2993 8.32002 18.0859 8.31181C18.0859 7.58976 18.0859 6.8595 18.0859 6.13745Z" fill="#FEFEFE" stroke="#FEFEFE" stroke-width="0.0769231"/>
<path d="M21.7702 6.13745C21.9671 6.13745 22.1559 6.13745 22.3528 6.13745C22.361 6.41643 22.361 6.7036 22.361 6.98258C22.7302 6.99899 23.1077 7.00719 23.4851 6.97437C23.4769 6.6954 23.4769 6.41643 23.4851 6.13745C23.6738 6.13745 23.8707 6.13745 24.0595 6.14566C24.0513 6.8595 24.0595 7.56514 24.0595 8.27899C23.8707 8.28719 23.6738 8.28719 23.4851 8.28719C23.4769 8.00002 23.4687 7.70463 23.4769 7.40925C23.1077 7.41745 22.7384 7.41745 22.3692 7.40925C22.361 7.70463 22.3528 8.00001 22.3446 8.2954C22.1559 8.2954 21.9671 8.2954 21.7702 8.28719C21.7538 7.57335 21.762 6.8595 21.7702 6.13745Z" fill="#FEFEFE" stroke="#FEFEFE" stroke-width="0.0769231"/>
<path d="M25.323 6.15386C26.0779 6.12925 26.8328 6.11284 27.5794 6.16207C27.5794 6.28514 27.5794 6.41643 27.5794 6.5395C27.3087 6.54771 27.0297 6.54771 26.7589 6.55591C26.7425 7.13027 26.7425 7.70463 26.7589 8.27899C26.5538 8.27899 26.3486 8.2872 26.1435 8.27899C26.1517 7.70463 26.1599 7.13027 26.1435 6.55591C25.8727 6.54771 25.602 6.54771 25.3312 6.54771C25.3312 6.41643 25.323 6.28514 25.323 6.15386Z" fill="#FEFEFE" stroke="#FEFEFE" stroke-width="0.0769231"/>
<path d="M30.4512 6.14566C30.6563 6.13746 30.8532 6.13746 31.0502 6.13746C31.2307 6.50669 31.3948 6.88412 31.5671 7.25335C31.7886 6.95797 31.9117 6.61335 32.084 6.29335C32.1661 6.06361 32.4861 6.10463 32.6584 6.18669C32.8553 6.5313 32.9948 6.90874 33.1999 7.25335C33.4133 6.91694 33.5363 6.53951 33.7168 6.18669C33.9056 6.08002 34.1353 6.15387 34.3486 6.15387C34.0286 6.87592 33.6922 7.58976 33.3476 8.30361C33.282 8.30361 33.1507 8.31181 33.085 8.31181C32.8471 7.86874 32.6502 7.40105 32.3876 6.96617C32.1496 7.40105 31.9281 7.85233 31.7066 8.30361C31.6409 8.30361 31.5096 8.31181 31.444 8.32002C31.1076 7.59797 30.7548 6.88412 30.4512 6.14566Z" fill="#FEFEFE" stroke="#FEFEFE" stroke-width="0.0769231"/>
<path d="M34.595 6.15382C34.8247 6.15382 35.1201 6.05536 35.2842 6.2769C35.637 6.64613 35.9899 7.01536 36.3591 7.37639C36.3509 6.96613 36.3509 6.54767 36.3591 6.13741C36.556 6.13741 36.7447 6.14562 36.9335 6.15382C36.917 6.85946 36.917 7.56511 36.9335 8.27895C36.7365 8.27075 36.474 8.3528 36.3263 8.17229C35.9406 7.77844 35.5714 7.36818 35.1775 6.98254C35.1857 7.41741 35.1857 7.85229 35.1693 8.29536C34.9806 8.28716 34.7919 8.27895 34.6032 8.27895C34.6032 7.56511 34.6114 6.85946 34.595 6.15382Z" fill="#FEFEFE" stroke="#FEFEFE" stroke-width="0.0769231"/>
<path d="M10.5537 6.54771C10.7588 6.5313 10.9558 6.55591 11.1527 6.63796C11.2183 7.0154 10.8409 7.04822 10.5619 7.04822C10.5619 6.87591 10.5537 6.71181 10.5537 6.54771Z" fill="#3A64A3" stroke="#3A64A3" stroke-width="0.0769231"/>
<path d="M28.8596 6.59695C29.1139 6.55593 29.4093 6.58875 29.598 6.78567C29.8688 7.05644 29.7867 7.57336 29.4503 7.76208C29.1221 7.9508 28.6298 7.89336 28.4247 7.54875C28.2113 7.18772 28.4165 6.63798 28.8596 6.59695Z" fill="#3A64A3" stroke="#3A64A3" stroke-width="0.0769231"/>
<path d="M8.83057 10.519C18.1845 10.519 27.5384 10.5272 36.8924 10.519C36.917 17.7887 36.9088 25.0667 36.9006 32.3446C27.5384 32.3528 18.1845 32.3692 8.83057 32.3364C8.83877 25.0667 8.83877 17.7969 8.83057 10.519ZM9.46237 11.0769C9.44596 17.7231 9.46237 24.3692 9.45416 31.0154C9.44596 31.278 9.45416 31.5487 9.47878 31.8113C18.4225 31.8031 27.3661 31.8031 36.3016 31.8113C36.318 31.6308 36.3344 31.4421 36.3344 31.2615C36.318 24.5333 36.3426 17.8051 36.318 11.0769C27.3661 11.0769 18.4142 11.0769 9.46237 11.0769Z" fill="#FEFEFE" stroke="#FEFEFE" stroke-width="0.0769231"/>
<path d="M9.46245 11.0769C18.4143 11.0769 27.3662 11.0769 36.3181 11.0769C36.3427 17.8051 36.3181 24.5333 36.3345 31.2615C36.3345 31.442 36.3181 31.6308 36.3017 31.8113C27.3662 31.8031 18.4225 31.8031 9.47886 31.8113C9.45425 31.5487 9.44604 31.2779 9.45425 31.0154C9.46245 24.3692 9.44604 17.7231 9.46245 11.0769ZM13.4584 11.4872C13.4338 11.7825 13.4666 12.1272 13.7538 12.2831C14.0902 12.0943 13.9835 11.7087 13.9097 11.4051C13.762 11.4379 13.5733 11.3723 13.4584 11.4872ZM14.9025 11.3969C14.8533 11.7251 14.804 12.1025 15.1076 12.3241C15.4194 12.1108 15.4112 11.7497 15.3702 11.4133C15.2143 11.4133 15.0584 11.4051 14.9025 11.3969ZM12.0061 11.7251C11.9815 12.1764 12.3671 12.4143 12.5148 12.7836C12.2112 12.9477 11.8912 13.1528 11.5466 13.1938C11.2102 12.7343 10.6522 12.5784 10.1189 12.48C10.2666 12.8738 10.3896 13.2759 10.5866 13.6533C10.7096 13.9405 10.4225 14.1784 10.3896 14.4492C10.2173 15.4749 10.5045 16.4841 10.5948 17.5015C10.6686 18.3877 10.7179 19.2902 10.9886 20.1436C11.3497 20.5374 11.924 20.7097 12.4491 20.6933C12.5394 20.3979 12.3507 19.9877 12.6133 19.7908C12.9989 19.7743 12.9004 20.2995 12.9907 20.5538C13.2204 20.5128 13.4502 20.3815 13.5404 20.1518C13.6061 19.881 13.1958 19.6759 13.3681 19.4051C14.0738 18.9292 14.0245 17.8625 14.7958 17.4441C14.9517 18.002 15.1569 18.5518 15.4194 19.0687C15.8215 19.9713 15.2061 20.8984 15.3292 21.8256C15.444 22.9251 16.4123 23.721 17.3805 24.0902C17.602 24.8615 18.1846 25.4359 18.5374 26.1415C18.7507 26.5354 18.7261 27.0195 19.0133 27.3723C19.3333 27.799 19.76 28.1682 19.8995 28.7097C20.2605 29.6287 19.9159 30.6297 19.3908 31.4092C19.8256 31.4666 20.2687 31.4584 20.7118 31.4502C21.0154 31.4338 21.3436 31.2861 21.4092 30.9661C21.4667 30.6379 21.7867 30.4656 21.9098 30.1784C21.9836 29.3743 21.3026 28.8082 20.9415 28.16C20.5969 27.7908 20.8595 27.2492 20.6133 26.8472C20.039 26.0266 20.6462 25.0092 20.3918 24.1066C21.4421 24.4841 22.6072 24.7384 23.7149 24.4102C25.0031 24.0984 26.16 23.4338 27.4154 23.0236C27.358 22.6543 26.6606 22.802 26.6688 22.3836C27.0708 22.441 27.4565 22.6297 27.7519 22.9087C28.3098 23.4338 28.9252 23.8933 29.6062 24.2461C30.0165 24.4677 30.5088 24.5579 30.8616 24.8861C31.2391 25.2143 31.6575 25.4851 32.1088 25.6902C32.6586 25.961 32.634 26.6831 32.4698 27.1918C32.2237 27.8974 32.1334 28.6523 31.8463 29.3497C31.6165 29.8913 30.9437 30.1128 30.7878 30.6872C31.4114 30.9661 32.1663 30.9087 32.7981 30.7118C32.8473 30.2359 33.2165 29.9159 33.6596 29.7682C33.717 29.202 33.4381 28.6523 33.5529 28.0943C33.7909 26.9374 34.275 25.8461 34.5622 24.6974C33.6596 24.2379 32.4781 23.6636 32.5027 22.482C31.7642 22.4492 30.9437 22.3754 30.3775 21.842C29.836 21.3908 29.7868 20.4308 30.3283 19.9549C31.2473 19.0195 32.5601 18.6831 33.6678 18.0266C33.4709 17.6574 33.0524 17.4359 32.9375 17.0174C33.3314 16.8615 33.8647 16.7631 34.1765 17.1405C34.4801 17.4277 34.2504 17.8872 33.9632 18.0923C32.8719 18.8472 31.4606 19.0851 30.517 20.0615C30.115 20.4554 30.0001 21.2102 30.435 21.6205C31.0421 22.2277 31.9775 22.2851 32.7899 22.2523C32.5437 21.7682 32.4698 21.1692 32.7981 20.7015C33.5693 19.602 34.9971 19.1836 35.6781 18.002C35.9653 17.5918 35.875 16.9682 35.4647 16.6728C34.7755 16.1313 33.8155 16.1641 33.0196 16.4266C32.757 16.5251 32.4452 16.7056 32.1745 16.5169C31.4196 16.0328 30.5662 15.6472 29.6555 15.639C27.4729 15.5651 25.52 16.8533 23.3375 16.7959C22.4267 16.8041 21.3272 16.5661 20.8595 15.6882C20.5477 15.1713 19.8913 14.9415 19.6369 14.3918C19.2513 14.4082 18.9805 14.0636 18.6851 13.8666C18.9559 13.5549 19.3415 13.3497 19.4154 12.8984C19.2759 12.841 19.1446 12.7836 19.0051 12.7343C18.7836 13.0215 18.5866 13.3579 18.7754 13.7272C18.3323 13.8749 17.9713 13.4564 17.602 13.2759C17.7415 12.8738 18.2174 12.7015 18.2502 12.2338C18.1189 12.1764 17.9795 12.119 17.8482 12.0697C17.6512 12.3323 17.4871 12.6277 17.6348 12.9559C17.602 13.0461 17.5446 13.1282 17.4954 13.2102C17.1015 13.1364 16.7405 12.9805 16.3794 12.8082C16.4861 12.4225 16.921 12.1846 16.8061 11.7169C16.2974 11.5036 16.0512 12.2338 16.3548 12.562C16.3302 12.6359 16.2974 12.7179 16.2646 12.7918C15.8707 12.7015 15.3292 12.7918 15.0912 12.3979C15.0584 12.439 14.9928 12.5292 14.9599 12.5784C14.5907 12.5456 14.0984 12.7261 13.8276 12.3979C13.6717 12.7508 13.1876 12.6605 12.8758 12.759C12.6789 12.8574 12.4738 12.6277 12.5722 12.439C12.7117 12.1846 12.5558 11.9138 12.482 11.6595C12.3261 11.6841 12.1702 11.7005 12.0061 11.7251ZM9.6922 13.0543C9.73323 13.4646 9.99579 13.8502 10.3568 14.039C10.5045 13.6041 10.1599 13.079 9.6922 13.0543ZM20.0636 13.3825C19.8338 13.6205 19.5713 13.9159 19.7108 14.2769C20.0718 14.2195 20.2933 13.9405 20.4492 13.6369C20.3261 13.5549 20.1949 13.4646 20.0636 13.3825ZM32.8555 21.8666C33.3724 21.3333 33.8073 20.6605 33.9304 19.9138C33.2576 20.2831 32.4781 21.0297 32.8555 21.8666ZM10.7179 22.4164C10.5702 22.5723 10.6358 22.802 10.6932 22.9825C10.9722 23.9261 11.5466 24.7549 11.8009 25.7149C11.965 26.3384 11.4317 26.9702 11.7599 27.5692C12.2604 27.3969 12.7281 27.1343 13.1712 26.8472C13.2533 26.5108 13.3189 26.1743 13.5815 25.92C12.9989 25.2882 12.6789 24.3938 12.7363 23.5405C13.3353 23.5733 13.844 23.9343 14.3938 24.1231C15.2717 24.4677 16.2646 24.6154 17.1836 24.3364C16.322 23.8113 15.4112 23.1795 15.1323 22.1538C14.123 22.0225 13.1056 21.9569 12.0963 21.9651C11.6122 21.9815 11.0625 22.0308 10.7179 22.4164ZM27.038 23.4749C27.2267 24.3282 27.7108 25.0666 28.1211 25.8215C28.277 26.1005 28.318 26.4943 28.1129 26.7651C27.6534 27.3969 27.1036 27.9549 26.677 28.6195C26.3242 29.1774 25.6103 29.399 25.2985 30.0061C25.8318 30.0636 26.3652 30.0554 26.8903 30.08C27.276 30.1128 27.3088 29.5959 27.6042 29.4564C27.7929 29.3825 27.998 29.3579 28.1949 29.3005C28.2852 28.0451 29.1796 27.0687 30.0657 26.2564C30.1888 26.1333 30.435 25.9856 30.3119 25.7805C30.0903 25.4441 29.9591 25.0584 29.836 24.6728C29.0647 24.2872 28.359 23.7784 27.678 23.2533C27.4483 23.2861 27.2431 23.3928 27.038 23.4749ZM13.2943 27.3723C13.0235 27.5692 12.6625 27.7005 12.5722 28.0615C12.9004 28.2502 13.0892 27.881 13.3107 27.7169C13.7128 27.3805 14.2215 27.241 14.6728 27.0031C14.1722 26.7979 13.6963 27.1097 13.2943 27.3723ZM12.5066 27.6513C12.7445 27.52 12.9661 27.3559 13.1548 27.1672C12.9168 27.282 12.5968 27.3723 12.5066 27.6513ZM15.001 27.1918C14.2789 27.3313 13.5569 27.6431 13.0809 28.2174C13.2615 28.3733 13.4994 28.4143 13.7045 28.2749C14.3035 27.9466 15.0092 27.6923 15.5753 27.4215C15.3948 27.3313 15.2225 27.1425 15.001 27.1918ZM15.5179 27.7087C14.8205 27.9466 14.0984 28.1846 13.5158 28.6359C13.7045 28.9149 14.0574 28.9395 14.3692 28.9313C14.681 28.8164 14.8287 28.3569 15.2143 28.4225C15.5589 28.4636 15.8133 28.1846 16.1333 28.1354C16.0594 27.8646 15.8215 27.5692 15.5179 27.7087ZM12.1209 28.439C12.5968 29.3251 13.5404 29.8666 14.4758 30.1374C14.7466 29.8092 14.4184 29.4482 14.3117 29.1364C13.9917 29.0543 13.4912 29.161 13.3599 28.7754C13.2368 28.4225 12.843 28.3077 12.5066 28.2913C12.4491 28.1518 12.3835 28.0041 12.3261 27.8646C12.1784 28.0041 11.9815 28.2256 12.1209 28.439ZM15.5917 28.5456C15.6492 29.1856 15.6164 29.8256 15.5261 30.4656C15.6574 30.4492 15.7887 30.4328 15.9282 30.4164C16.1087 29.7682 16.002 29.0954 15.9446 28.439C15.8297 28.48 15.7148 28.5128 15.5917 28.5456ZM16.2153 28.4554C16.1743 29.0133 16.2564 29.5631 16.24 30.121C16.4943 29.6287 16.5764 28.9231 16.2153 28.4554ZM11.883 28.6195C11.7353 29.0297 11.8748 29.4564 12.1866 29.7436C12.2932 29.5877 12.3671 29.399 12.3999 29.2102C12.285 28.9723 12.0881 28.7754 11.883 28.6195ZM14.5415 29.1282C14.6399 29.4154 14.7548 29.6779 14.8533 29.9569C14.5169 30.2359 14.3774 30.6543 14.361 31.081C14.164 31.1877 13.8522 31.2287 13.8604 31.5159C14.1558 31.5159 14.5169 31.6061 14.763 31.3846C15.3784 30.6133 15.5015 29.5713 15.3784 28.6113C14.9928 28.521 14.7794 28.8902 14.5415 29.1282ZM12.4574 29.9979C12.9415 30.4328 13.6061 30.5969 14.2461 30.6051C14.2625 30.4984 14.2871 30.3918 14.3035 30.2933C13.6799 30.0964 13.122 29.76 12.5804 29.399C12.523 29.5959 12.3999 29.7928 12.4574 29.9979ZM11.924 29.7764C11.9486 30.1128 12.0799 30.4902 12.4163 30.6051C12.7692 30.7364 13.1384 30.8349 13.442 31.0564C13.7045 31.2697 14.0656 31.081 14.2215 30.8349C13.3599 30.761 12.5066 30.4492 11.924 29.7764ZM15.403 30.6297C15.3046 30.8349 15.2061 31.0482 15.1323 31.2697C15.4523 31.1713 15.7476 30.9579 15.8871 30.6297C15.723 30.6297 15.5589 30.6215 15.403 30.6297ZM12.7445 30.9415C12.8594 31.3354 13.3435 31.3764 13.6717 31.4831C13.442 31.2041 13.0645 31.0974 12.7445 30.9415Z" fill="#3A64A3" stroke="#3A64A3" stroke-width="0.0769231"/>
<path d="M4.646 11.1426C4.67882 11.1672 4.76087 11.2 4.79369 11.2164" stroke="#3A64A3" stroke-width="0.0769231"/>
<path d="M13.4583 11.4872C13.5731 11.3723 13.7619 11.438 13.9096 11.4052C13.9834 11.7087 14.0901 12.0944 13.7537 12.2831C13.4665 12.1272 13.4337 11.7826 13.4583 11.4872Z" fill="#FEFEFE" stroke="#FEFEFE" stroke-width="0.0769231"/>
<path d="M14.9025 11.3969C15.0584 11.4051 15.2143 11.4133 15.3702 11.4133C15.4112 11.7497 15.4194 12.1108 15.1076 12.3241C14.804 12.1026 14.8533 11.7251 14.9025 11.3969Z" fill="#FEFEFE" stroke="#FEFEFE" stroke-width="0.0769231"/>
<path d="M12.0061 11.7251C12.1702 11.7005 12.3261 11.6841 12.482 11.6595C12.5558 11.9138 12.7117 12.1846 12.5723 12.439C12.4738 12.6277 12.6789 12.8574 12.8758 12.759C13.1876 12.6605 13.6718 12.7508 13.8277 12.3979C14.0984 12.7262 14.5907 12.5456 14.96 12.5785C14.9928 12.5292 15.0584 12.439 15.0913 12.3979C15.3292 12.7918 15.8707 12.7015 16.2646 12.7918C16.2974 12.7179 16.3302 12.6359 16.3549 12.562C16.0513 12.2338 16.2974 11.5036 16.8061 11.7169C16.921 12.1846 16.4861 12.4226 16.3795 12.8082C16.7405 12.9805 17.1015 13.1364 17.4954 13.2103C17.5446 13.1282 17.602 13.0462 17.6349 12.9559C17.4872 12.6277 17.6513 12.3323 17.8482 12.0697C17.9795 12.119 18.119 12.1764 18.2503 12.2338C18.2174 12.7015 17.7415 12.8738 17.602 13.2759C17.9713 13.4564 18.3323 13.8749 18.7754 13.7272C18.5867 13.3579 18.7836 13.0215 19.0051 12.7344C19.1446 12.7836 19.2759 12.841 19.4154 12.8985C19.3415 13.3497 18.9559 13.5549 18.6851 13.8667C18.9805 14.0636 19.2513 14.4082 19.6369 14.3918C19.8913 14.9415 20.5477 15.1713 20.8595 15.6882C21.3272 16.5662 22.4267 16.8041 23.3375 16.7959C25.5201 16.8533 27.4729 15.5651 29.6555 15.639C30.5663 15.6472 31.4196 16.0328 32.1745 16.5169C32.4453 16.7056 32.7571 16.5251 33.0196 16.4267C33.8155 16.1641 34.7755 16.1313 35.4648 16.6728C35.875 16.9682 35.9653 17.5918 35.6781 18.002C34.9971 19.1836 33.5694 19.602 32.7981 20.7015C32.4699 21.1692 32.5437 21.7682 32.7899 22.2523C31.9776 22.2851 31.0422 22.2277 30.435 21.6205C30.0001 21.2103 30.115 20.4554 30.517 20.0615C31.4606 19.0851 32.8719 18.8472 33.9632 18.0923C34.2504 17.8872 34.4802 17.4277 34.1766 17.1405C33.8648 16.7631 33.3314 16.8615 32.9376 17.0174C33.0524 17.4359 33.4709 17.6574 33.6678 18.0267C32.5601 18.6831 31.2473 19.0195 30.3283 19.9549C29.7868 20.4308 29.836 21.3908 30.3776 21.8421C30.9437 22.3754 31.7642 22.4492 32.5027 22.482C32.4781 23.6636 33.6596 24.2379 34.5622 24.6974C34.275 25.8462 33.7909 26.9374 33.553 28.0944C33.4381 28.6523 33.7171 29.202 33.6596 29.7682C33.2166 29.9159 32.8473 30.2359 32.7981 30.7118C32.1663 30.9087 31.4114 30.9662 30.7878 30.6872C30.9437 30.1128 31.6165 29.8913 31.8463 29.3497C32.1335 28.6523 32.2237 27.8974 32.4699 27.1918C32.634 26.6831 32.6586 25.961 32.1089 25.6903C31.6576 25.4851 31.2391 25.2144 30.8617 24.8862C30.5088 24.5579 30.0165 24.4677 29.6063 24.2462C28.9252 23.8933 28.3098 23.4338 27.7519 22.9087C27.4565 22.6297 27.0709 22.441 26.6688 22.3836C26.6606 22.802 27.358 22.6544 27.4155 23.0236C26.1601 23.4338 25.0031 24.0985 23.7149 24.4103C22.6072 24.7385 21.4421 24.4841 20.3918 24.1067C20.6462 25.0092 20.039 26.0267 20.6134 26.8472C20.8595 27.2492 20.5969 27.7908 20.9416 28.16C21.3026 28.8082 21.9836 29.3744 21.9098 30.1785C21.7867 30.4656 21.4667 30.6379 21.4093 30.9662C21.3436 31.2862 21.0154 31.4338 20.7118 31.4503C20.2687 31.4585 19.8257 31.4667 19.3908 31.4092C19.9159 30.6297 20.2605 29.6287 19.8995 28.7097C19.76 28.1682 19.3333 27.799 19.0133 27.3723C18.7262 27.0195 18.7508 26.5354 18.5374 26.1415C18.1846 25.4359 17.602 24.8615 17.3805 24.0903C16.4123 23.721 15.4441 22.9251 15.3292 21.8256C15.2061 20.8985 15.8215 19.9713 15.4195 19.0687C15.1569 18.5518 14.9518 18.002 14.7959 17.4441C14.0246 17.8626 14.0738 18.9292 13.3682 19.4051C13.1958 19.6759 13.6061 19.881 13.5405 20.1518C13.4502 20.3815 13.2205 20.5128 12.9907 20.5538C12.9005 20.2995 12.9989 19.7744 12.6133 19.7908C12.3507 19.9877 12.5394 20.3979 12.4492 20.6933C11.924 20.7097 11.3497 20.5374 10.9886 20.1436C10.7179 19.2903 10.6686 18.3877 10.5948 17.5015C10.5045 16.4841 10.2174 15.4749 10.3897 14.4492C10.4225 14.1785 10.7097 13.9405 10.5866 13.6533C10.3897 13.2759 10.2666 12.8738 10.1189 12.48C10.6522 12.5785 11.2102 12.7344 11.5466 13.1938C11.8912 13.1528 12.2112 12.9477 12.5148 12.7836C12.3671 12.4144 11.9815 12.1764 12.0061 11.7251ZM10.8574 15.6882C10.7671 15.9426 10.9066 16.1969 11.0215 16.4267C11.1856 16.2133 11.4646 15.9836 11.3661 15.68C11.3087 15.4503 10.923 15.4585 10.8574 15.6882ZM11.1117 19.7497C11.1281 19.8482 11.1445 19.9467 11.1692 20.0451C11.3169 20.1846 11.5056 20.2585 11.6861 20.3405C11.6779 20.0369 11.3907 19.8236 11.1117 19.7497Z" fill="#FEFEFE" stroke="#FEFEFE" stroke-width="0.0769231"/>
<path d="M9.69214 13.0544C10.1598 13.079 10.5045 13.6041 10.3568 14.039C9.99573 13.8503 9.73316 13.4646 9.69214 13.0544Z" fill="#FEFEFE" stroke="#FEFEFE" stroke-width="0.0769231"/>
<path d="M20.0634 13.3826C20.1947 13.4646 20.326 13.5549 20.4491 13.6369C20.2932 13.9405 20.0716 14.2195 19.7106 14.2769C19.5711 13.9159 19.8337 13.6205 20.0634 13.3826Z" fill="#FEFEFE" stroke="#FEFEFE" stroke-width="0.0769231"/>
<path d="M10.8573 15.6882C10.9229 15.4584 11.3086 15.4502 11.366 15.68C11.4645 15.9836 11.1855 16.2133 11.0214 16.4266C10.9065 16.1969 10.767 15.9425 10.8573 15.6882Z" fill="#3A64A3" stroke="#3A64A3" stroke-width="0.0769231"/>
<path d="M11.1116 19.7498C11.3905 19.8236 11.6777 20.0369 11.6859 20.3405C11.5054 20.2585 11.3167 20.1846 11.169 20.0451C11.1444 19.9467 11.128 19.8482 11.1116 19.7498Z" fill="#3A64A3" stroke="#3A64A3" stroke-width="0.0769231"/>
<path d="M32.8553 21.8666C32.4779 21.0297 33.2574 20.283 33.9302 19.9138C33.8071 20.6605 33.3723 21.3333 32.8553 21.8666Z" fill="#FEFEFE" stroke="#FEFEFE" stroke-width="0.0769231"/>
<path d="M10.7177 22.4164C11.0623 22.0308 11.612 21.9816 12.0961 21.9652C13.1054 21.957 14.1228 22.0226 15.1321 22.1539C15.411 23.1795 16.3218 23.8113 17.1834 24.3364C16.2644 24.6154 15.2716 24.4677 14.3936 24.1231C13.8438 23.9344 13.3351 23.5734 12.7361 23.5405C12.6787 24.3939 12.9987 25.2882 13.5813 25.92C13.3187 26.1744 13.2531 26.5108 13.171 26.8472C12.7279 27.1344 12.2602 27.397 11.7597 27.5693C11.4315 26.9703 11.9649 26.3385 11.8007 25.7149C11.5464 24.7549 10.972 23.9262 10.693 22.9826C10.6356 22.8021 10.57 22.5723 10.7177 22.4164Z" fill="#FEFEFE" stroke="#FEFEFE" stroke-width="0.0769231"/>
<path d="M27.0378 23.4749C27.243 23.3928 27.4481 23.2862 27.6779 23.2534C28.3589 23.7785 29.0645 24.2872 29.8358 24.6728C29.9589 25.0585 30.0902 25.4441 30.3117 25.7805C30.4348 25.9857 30.1886 26.1334 30.0656 26.2564C29.1794 27.0687 28.285 28.0452 28.1948 29.3005C27.9979 29.358 27.7927 29.3826 27.604 29.4564C27.3086 29.5959 27.2758 30.1128 26.8901 30.08C26.365 30.0554 25.8317 30.0636 25.2983 30.0062C25.6101 29.399 26.324 29.1775 26.6768 28.6195C27.1035 27.9549 27.6532 27.3969 28.1127 26.7652C28.3179 26.4944 28.2768 26.1005 28.1209 25.8216C27.7107 25.0667 27.2266 24.3282 27.0378 23.4749Z" fill="#FEFEFE" stroke="#FEFEFE" stroke-width="0.0769231"/>
<path d="M13.2943 27.3723C13.6964 27.1097 14.1723 26.7979 14.6728 27.0031C14.2215 27.241 13.7128 27.3805 13.3107 27.7169C13.0892 27.881 12.9005 28.2502 12.5723 28.0615C12.6625 27.7005 13.0236 27.5692 13.2943 27.3723Z" fill="#FEFEFE" stroke="#FEFEFE" stroke-width="0.0769231"/>
<path d="M12.5066 27.6513C12.5968 27.3723 12.9169 27.282 13.1548 27.1672C12.9661 27.3559 12.7445 27.52 12.5066 27.6513Z" fill="#FEFEFE" stroke="#FEFEFE" stroke-width="0.0769231"/>
<path d="M15.0008 27.1918C15.2224 27.1425 15.3947 27.3313 15.5752 27.4215C15.009 27.6923 14.3034 27.9466 13.7044 28.2749C13.4993 28.4143 13.2613 28.3733 13.0808 28.2174C13.5567 27.6431 14.2788 27.3313 15.0008 27.1918Z" fill="#FEFEFE" stroke="#FEFEFE" stroke-width="0.0769231"/>
<path d="M15.5179 27.7087C15.8215 27.5692 16.0595 27.8646 16.1333 28.1354C15.8133 28.1846 15.559 28.4636 15.2143 28.4226C14.8287 28.3569 14.681 28.8164 14.3692 28.9313C14.0574 28.9395 13.7046 28.9149 13.5159 28.6359C14.0984 28.1846 14.8205 27.9467 15.5179 27.7087Z" fill="#FEFEFE" stroke="#FEFEFE" stroke-width="0.0769231"/>
<path d="M12.1209 28.439C11.9814 28.2256 12.1783 28.0041 12.326 27.8646C12.3834 28.0041 12.4491 28.1518 12.5065 28.2913C12.8429 28.3077 13.2368 28.4226 13.3599 28.7754C13.4911 29.161 13.9917 29.0544 14.3117 29.1364C14.4183 29.4482 14.7465 29.8092 14.4758 30.1374C13.5404 29.8667 12.5968 29.3251 12.1209 28.439Z" fill="#FEFEFE" stroke="#FEFEFE" stroke-width="0.0769231"/>
<path d="M15.5918 28.5456C15.7148 28.5128 15.8297 28.48 15.9446 28.439C16.002 29.0954 16.1087 29.7682 15.9282 30.4164C15.7887 30.4328 15.6574 30.4492 15.5261 30.4656C15.6164 29.8256 15.6492 29.1856 15.5918 28.5456Z" fill="#FEFEFE" stroke="#FEFEFE" stroke-width="0.0769231"/>
<path d="M16.2152 28.4554C16.5763 28.9231 16.4942 29.6287 16.2399 30.121C16.2563 29.5631 16.1742 29.0133 16.2152 28.4554Z" fill="#FEFEFE" stroke="#FEFEFE" stroke-width="0.0769231"/>
<path d="M11.8828 28.6195C12.0879 28.7754 12.2849 28.9723 12.3997 29.2103C12.3669 29.399 12.2931 29.5877 12.1864 29.7436C11.8746 29.4564 11.7351 29.0298 11.8828 28.6195Z" fill="#FEFEFE" stroke="#FEFEFE" stroke-width="0.0769231"/>
<path d="M14.5413 29.1282C14.7792 28.8902 14.9926 28.521 15.3782 28.6113C15.5013 29.5713 15.3782 30.6133 14.7628 31.3846C14.5167 31.6061 14.1557 31.5159 13.8603 31.5159C13.8521 31.2287 14.1639 31.1877 14.3608 31.081C14.3772 30.6543 14.5167 30.2359 14.8531 29.9569C14.7546 29.6779 14.6398 29.4154 14.5413 29.1282Z" fill="#FEFEFE" stroke="#FEFEFE" stroke-width="0.0769231"/>
<path d="M12.4573 29.998C12.3999 29.7928 12.5229 29.5959 12.5804 29.399C13.1219 29.76 13.6799 30.0964 14.3035 30.2933C14.287 30.3918 14.2624 30.4985 14.246 30.6051C13.606 30.5969 12.9414 30.4328 12.4573 29.998Z" fill="#FEFEFE" stroke="#FEFEFE" stroke-width="0.0769231"/>
<path d="M11.9238 29.7764C12.5064 30.4492 13.3597 30.761 14.2213 30.8349C14.0654 31.081 13.7044 31.2698 13.4418 31.0564C13.1382 30.8349 12.769 30.7364 12.4161 30.6051C12.0797 30.4903 11.9484 30.1128 11.9238 29.7764Z" fill="#FEFEFE" stroke="#FEFEFE" stroke-width="0.0769231"/>
<path d="M6.05734 29.842C6.10657 30.6379 6.06554 31.442 6.07375 32.2461C6.06554 36.0123 6.10657 39.7867 6.05734 43.5528L6.06554 43.6102C6.02452 39.0236 6.04093 34.4287 6.05734 29.842Z" fill="#3A64A3" stroke="#3A64A3" stroke-width="0.0769231"/>
<path d="M15.4029 30.6297C15.5588 30.6215 15.7229 30.6297 15.887 30.6297C15.7475 30.958 15.4521 31.1713 15.1321 31.2697C15.2059 31.0482 15.3044 30.8349 15.4029 30.6297Z" fill="#FEFEFE" stroke="#FEFEFE" stroke-width="0.0769231"/>
<path d="M12.7444 30.9415C13.0644 31.0974 13.4418 31.2041 13.6716 31.4831C13.3434 31.3764 12.8593 31.3354 12.7444 30.9415Z" fill="#FEFEFE" stroke="#FEFEFE" stroke-width="0.0769231"/>
<path d="M8.78125 32.9682L8.79766 33.0257C8.81407 33.1487 8.82228 33.28 8.84689 33.4031C9.67562 33.4031 10.5372 33.4195 11.3085 33.7723C11.7187 33.961 12.1044 34.2893 12.5885 34.24C13.4336 34.1744 14.1557 33.641 14.9844 33.5098C16.0347 33.3293 17.1013 33.5508 18.1024 33.8708C18.4962 33.9939 18.8819 34.199 19.3167 34.1908C20.0716 34.24 20.7691 33.8872 21.4829 33.6821C22.2132 33.4441 23.0173 33.3539 23.764 33.5426C24.6911 33.7477 25.5691 34.2318 26.5373 34.1908C27.0625 34.199 27.5137 33.92 28.006 33.7969C28.7035 33.6 29.4173 33.4359 30.1476 33.4441C31.083 33.4605 31.9281 33.92 32.8143 34.1744C33.3394 34.3385 33.8892 34.1498 34.3569 33.9036C35.1364 33.5016 36.0225 33.4031 36.8923 33.4113C36.9005 33.28 36.9087 33.1487 36.9169 33.0175V32.96C36.9825 34.0021 36.9333 35.0523 36.9497 36.0944C36.2769 36.0369 35.5959 36.1108 34.9641 36.3241C34.4471 36.4964 34.0041 36.9067 33.4297 36.8821C32.2071 36.9559 31.2061 35.9959 29.9835 36.0698C28.8922 36.1026 27.8994 36.5949 26.8491 36.8246C25.2819 37.079 23.887 35.799 22.3116 36.1436C21.0644 36.4308 19.7762 37.1693 18.4716 36.7016C17.1834 36.1764 15.6654 35.758 14.3362 36.3734C13.5813 36.759 12.7033 36.9477 11.8664 36.7508C11.4315 36.6523 11.0787 36.3487 10.652 36.2257C10.0613 36.0534 9.43767 36.0534 8.83048 36.0862C8.82228 36.5128 8.87151 36.9477 8.79766 37.3744V37.44C8.75663 35.9549 8.78125 34.4534 8.78125 32.9682ZM8.83048 34.2975C8.83048 34.5846 8.83048 34.88 8.83048 35.1754C9.3392 35.1672 9.85613 35.1918 10.3566 35.2328C11.1526 35.2985 11.7761 35.9713 12.5885 35.9467C13.45 35.9139 14.1803 35.3887 15.0172 35.2493C16.0511 35.0523 17.0931 35.3149 18.0777 35.6267C18.488 35.7416 18.8819 35.9385 19.3085 35.9467C20.5721 35.9877 21.6716 35.159 22.927 35.2082C23.9363 35.2082 24.8635 35.6595 25.8235 35.9057C26.6768 36.1108 27.4973 35.7416 28.285 35.4708C28.9825 35.2246 29.7291 35.1672 30.4594 35.2328C31.3127 35.3395 32.1004 35.7169 32.9292 35.9467C33.3969 36.0862 33.8892 35.8893 34.3076 35.6677C35.0953 35.2328 36.0143 35.1836 36.8923 35.1836C36.9087 34.9046 36.9087 34.6339 36.9005 34.3549C36.2113 34.3385 35.4646 34.2893 34.8492 34.6421C34.3815 34.8964 33.881 35.118 33.3476 35.1344C32.642 35.1344 31.9856 34.839 31.3456 34.5764C30.3363 34.1908 29.2204 34.3549 28.2112 34.6585C27.6532 34.8062 27.1363 35.1262 26.5455 35.1016C25.2245 35.1672 24.084 34.2646 22.7711 34.3467C21.8111 34.3959 20.9578 34.8964 20.0224 35.0687C18.7588 35.2493 17.6183 34.5518 16.4121 34.3385C15.2798 34.1908 14.2131 34.6831 13.171 35.0523C12.5228 35.2082 11.8254 35.0523 11.2428 34.7405C10.5125 34.3385 9.651 34.2482 8.83048 34.2975Z" fill="#FEFEFE" stroke="#FEFEFE" stroke-width="0.0769231"/>
<path d="M8.79785 33.0256C18.1682 32.9928 27.5385 33.001 36.9171 33.0174C36.9089 33.1487 36.9007 33.28 36.8925 33.4113C36.0227 33.4031 35.1366 33.5015 34.3571 33.9036C33.8894 34.1497 33.3396 34.3384 32.8145 34.1743C31.9283 33.92 31.0832 33.4605 30.1478 33.4441C29.4175 33.4359 28.7037 33.6 28.0062 33.7969C27.5139 33.92 27.0626 34.199 26.5375 34.1907C25.5693 34.2318 24.6913 33.7477 23.7641 33.5425C23.0175 33.3538 22.2134 33.4441 21.4831 33.682C20.7692 33.8872 20.0718 34.24 19.3169 34.1907C18.8821 34.199 18.4964 33.9938 18.1026 33.8707C17.1015 33.5507 16.0348 33.3292 14.9846 33.5097C14.1559 33.641 13.4338 34.1743 12.5887 34.24C12.1045 34.2892 11.7189 33.961 11.3086 33.7723C10.5374 33.4195 9.67581 33.4031 8.84708 33.4031C8.82247 33.28 8.81426 33.1487 8.79785 33.0256Z" fill="#3A64A3" stroke="#3A64A3" stroke-width="0.0769231"/>
<path d="M8.83057 34.2974C9.65109 34.2482 10.5126 34.3385 11.2429 34.7405C11.8255 35.0523 12.5229 35.2082 13.1711 35.0523C14.2132 34.6831 15.2799 34.1908 16.4122 34.3385C17.6183 34.5518 18.7589 35.2492 20.0225 35.0687C20.9579 34.8964 21.8112 34.3959 22.7712 34.3467C24.084 34.2646 25.2246 35.1672 26.5456 35.1015C27.1364 35.1261 27.6533 34.8061 28.2113 34.6585C29.2205 34.3549 30.3364 34.1908 31.3457 34.5764C31.9857 34.839 32.6421 35.1344 33.3477 35.1344C33.8811 35.1179 34.3816 34.8964 34.8493 34.642C35.4647 34.2892 36.2113 34.3385 36.9006 34.3549C36.9088 34.6338 36.9088 34.9046 36.8924 35.1836C36.0144 35.1836 35.0954 35.2328 34.3077 35.6677C33.8893 35.8892 33.397 36.0861 32.9293 35.9467C32.1005 35.7169 31.3128 35.3395 30.4595 35.2328C29.7292 35.1672 28.9826 35.2246 28.2851 35.4708C27.4974 35.7415 26.6769 36.1108 25.8236 35.9056C24.8635 35.6595 23.9364 35.2082 22.9271 35.2082C21.6717 35.159 20.5722 35.9877 19.3086 35.9467C18.8819 35.9385 18.4881 35.7415 18.0778 35.6267C17.0932 35.3149 16.0511 35.0523 15.0173 35.2492C14.1804 35.3887 13.4501 35.9138 12.5886 35.9467C11.7762 35.9713 11.1526 35.2985 10.3567 35.2328C9.85622 35.1918 9.33929 35.1672 8.83057 35.1754C8.83057 34.88 8.83057 34.5846 8.83057 34.2974Z" fill="#3A64A3" stroke="#3A64A3" stroke-width="0.0769231"/>
<path d="M8.83067 36.0861C9.43786 36.0533 10.0615 36.0533 10.6522 36.2256C11.0789 36.3487 11.4317 36.6523 11.8666 36.7508C12.7035 36.9477 13.5815 36.759 14.3364 36.3733C15.6656 35.7579 17.1836 36.1764 18.4718 36.7015C19.7764 37.1692 21.0646 36.4308 22.3118 36.1436C23.8872 35.799 25.2821 37.079 26.8493 36.8246C27.8996 36.5949 28.8924 36.1026 29.9837 36.0697C31.2063 35.9959 32.2073 36.9559 33.4299 36.882C34.0042 36.9067 34.4473 36.4964 34.9643 36.3241C35.5961 36.1108 36.2771 36.0369 36.9499 36.0943C36.9253 36.5292 36.9335 36.9641 36.9335 37.3908C27.555 37.3743 18.1764 37.4072 8.79785 37.3743C8.8717 36.9477 8.82247 36.5128 8.83067 36.0861Z" fill="#3A64A3" stroke="#3A64A3" stroke-width="0.0769231"/>
<path d="M8.83057 38.4C18.1845 38.3754 27.5384 38.3836 36.8924 38.3918C36.9088 39.7867 36.917 41.1816 36.8924 42.5764C27.5384 42.5682 18.1845 42.5846 8.83057 42.5682C8.83877 41.1816 8.83877 39.7867 8.83057 38.4ZM9.46237 38.8759C9.45416 39.959 9.44596 41.0339 9.46237 42.1087C18.4142 42.1251 27.3661 42.1251 36.318 42.1087C36.3344 41.0339 36.3344 39.9508 36.318 38.8759C27.3661 38.8595 18.4142 38.8595 9.46237 38.8759Z" fill="#FEFEFE" stroke="#FEFEFE" stroke-width="0.0769231"/>
<path d="M9.46236 38.8759C18.4142 38.8595 27.3661 38.8595 36.318 38.8759C36.3344 39.9508 36.3344 41.0338 36.318 42.1087C27.3661 42.1251 18.4142 42.1251 9.46236 42.1087C9.44595 41.0338 9.45415 39.959 9.46236 38.8759ZM10.6931 39.639C10.6767 40.1887 10.6767 40.7385 10.6931 41.2882C10.849 41.2882 11.0131 41.2882 11.1772 41.28C11.169 41.0585 11.1772 40.8451 11.1772 40.6236C11.448 40.6318 11.727 40.6236 11.9978 40.6072C11.9978 40.5087 11.9978 40.402 11.9978 40.3036C11.7188 40.2954 11.448 40.2954 11.1772 40.2872C11.1772 40.1805 11.1854 40.0738 11.1854 39.9754C11.4562 39.9754 11.727 39.9754 11.9978 39.959C11.9978 39.8523 11.9978 39.7456 11.9978 39.6472C11.5629 39.6308 11.128 39.639 10.6931 39.639ZM12.9496 39.6718C12.4983 39.7785 12.1373 40.2626 12.3178 40.7303C12.6296 41.4031 13.6224 41.4769 14.1639 41.0421C14.4757 40.8205 14.566 40.3364 14.3116 40.041C14.008 39.6226 13.4173 39.5323 12.9496 39.6718ZM15.4029 39.6636C14.9845 39.7538 14.607 40.1641 14.7055 40.6154C14.9598 41.5836 16.7076 41.5426 16.8717 40.5333C16.9127 39.7949 16.0019 39.4667 15.4029 39.6636ZM16.9455 39.639C16.9455 39.7374 16.9455 39.8441 16.9455 39.9508C17.167 39.9508 17.3886 39.9508 17.6101 39.959C17.6265 40.3938 17.6265 40.8369 17.6183 41.2718C17.7824 41.28 17.9465 41.2882 18.1106 41.2964C18.1271 40.8533 18.1271 40.4103 18.1106 39.9754C18.3404 39.959 18.5701 39.9426 18.7999 39.9426C18.7999 39.8441 18.8081 39.7456 18.8081 39.6472C18.1845 39.6308 17.5609 39.639 16.9455 39.639ZM19.0707 39.639C19.0624 40.1887 19.0624 40.7385 19.0707 41.2882C19.5301 41.2718 20.0307 41.3785 20.4655 41.1897C20.7937 41.001 20.6871 40.5251 20.3835 40.3692C20.5722 40.1805 20.5722 39.8441 20.3014 39.7128C19.9158 39.5651 19.4809 39.6636 19.0707 39.639ZM21.5486 39.6472C21.3025 40.1887 21.0399 40.7303 20.7937 41.28C20.9661 41.2882 21.1302 41.2882 21.3025 41.2964C21.3517 41.1815 21.4009 41.0749 21.4584 40.9682C21.7209 40.9682 21.9917 40.9682 22.2625 40.9682C22.3199 41.0667 22.3774 41.1733 22.4512 41.2718C22.6153 41.3128 22.7794 41.28 22.9435 41.28C22.6891 40.7138 22.3856 40.1887 22.1148 39.639C21.9261 39.639 21.7373 39.639 21.5486 39.6472ZM23.1651 39.6308C23.1486 40.1887 23.1568 40.7385 23.1651 41.2882C23.6492 41.2882 24.1415 41.321 24.6256 41.2636C24.6256 41.1651 24.6256 41.0667 24.6256 40.9682C24.2974 40.9764 23.9774 40.9764 23.6574 40.96C23.641 40.5251 23.641 40.082 23.6492 39.639C23.4851 39.639 23.3292 39.639 23.1651 39.6308ZM24.8717 39.639C24.8553 40.1887 24.8553 40.7385 24.8717 41.2882C25.3558 41.2964 25.8317 41.3046 26.3158 41.28C26.2994 41.1733 26.2912 41.0667 26.2912 40.96C25.9712 40.9764 25.6512 40.9764 25.3312 40.9518C25.3394 40.5087 25.3394 40.0738 25.3312 39.639C25.1753 39.639 25.0276 39.639 24.8717 39.639ZM27.4482 39.9672C27.1282 40.2708 27.202 40.8369 27.5548 41.0831C27.9979 41.4031 28.5969 41.3292 29.0892 41.1815C29.081 41.042 29.0974 40.9108 29.0974 40.7795C28.7364 40.9108 28.3097 41.0667 27.9651 40.8369C27.7189 40.7056 27.6779 40.3364 27.8912 40.1641C28.2113 39.8523 28.7118 39.9836 29.0728 40.1313C29.0728 39.9918 29.0646 39.8605 29.0646 39.721C28.5313 39.5651 27.8584 39.5241 27.4482 39.9672ZM29.4667 39.6308C29.4502 40.1805 29.4502 40.7303 29.4667 41.2882C29.9508 41.2964 30.4349 41.3046 30.919 41.28C30.9026 41.1733 30.8944 41.0667 30.8944 40.9682C30.5826 40.9764 30.2708 40.9764 29.959 40.96C29.9508 40.5251 29.9508 40.082 29.959 39.6472C29.7949 39.639 29.6308 39.639 29.4667 39.6308ZM31.1405 39.639C31.1569 40.0656 31.0585 40.5333 31.2226 40.9436C31.6082 41.4523 32.5436 41.4441 32.9539 40.96C33.1262 40.5497 33.0277 40.0738 33.0359 39.6308C32.8718 39.639 32.7077 39.639 32.5436 39.6472C32.5436 39.9918 32.5846 40.3446 32.5272 40.6892C32.4123 41.0749 31.7559 41.0585 31.6574 40.6728C31.6082 40.3282 31.641 39.9836 31.6246 39.639C31.4605 39.639 31.2964 39.639 31.1405 39.639ZM33.438 39.639C33.4298 40.1887 33.438 40.7385 33.438 41.2882C33.8975 41.2718 34.3898 41.3785 34.8246 41.1897C35.1529 41.001 35.0544 40.5251 34.7426 40.3774C34.8821 40.2051 34.9805 39.9262 34.759 39.7785C34.3734 39.5159 33.8728 39.68 33.438 39.639Z" fill="#3A64A3" stroke="#3A64A3" stroke-width="0.0769231"/>
<path d="M10.6932 39.639C11.1281 39.639 11.563 39.6307 11.9978 39.6472C11.9978 39.7456 11.9978 39.8523 11.9978 39.959C11.7271 39.9754 11.4563 39.9754 11.1855 39.9754C11.1855 40.0738 11.1773 40.1805 11.1773 40.2872C11.4481 40.2954 11.7189 40.2954 11.9978 40.3036C11.9978 40.402 11.9978 40.5087 11.9978 40.6072C11.7271 40.6236 11.4481 40.6318 11.1773 40.6236C11.1773 40.8451 11.1691 41.0584 11.1773 41.28C11.0132 41.2882 10.8491 41.2882 10.6932 41.2882C10.6768 40.7384 10.6768 40.1887 10.6932 39.639Z" fill="#FEFEFE" stroke="#FEFEFE" stroke-width="0.0769231"/>
<path d="M12.9495 39.6718C13.4172 39.5323 14.008 39.6225 14.3116 40.041C14.566 40.3364 14.4757 40.8205 14.1639 41.042C13.6224 41.4769 12.6295 41.4031 12.3177 40.7302C12.1372 40.2625 12.4982 39.7784 12.9495 39.6718ZM13.1957 39.9918C12.9003 40.0328 12.6952 40.361 12.8018 40.64C13.0152 41.1241 13.8767 41.0502 13.9506 40.5087C13.9916 40.1149 13.5321 39.9015 13.1957 39.9918Z" fill="#FEFEFE" stroke="#FEFEFE" stroke-width="0.0769231"/>
<path d="M15.4029 39.6636C16.0019 39.4667 16.9127 39.7949 16.8717 40.5333C16.7076 41.5426 14.9599 41.5836 14.7055 40.6154C14.607 40.1641 14.9845 39.7538 15.4029 39.6636ZM15.5752 40C15.2881 40.0574 15.1076 40.4021 15.2388 40.6728C15.4604 41.1487 16.3876 41.0174 16.3629 40.4513C16.3629 40.0656 15.8952 39.9015 15.5752 40Z" fill="#FEFEFE" stroke="#FEFEFE" stroke-width="0.0769231"/>
<path d="M16.9456 39.639C17.5609 39.639 18.1845 39.6307 18.8081 39.6472C18.8081 39.7456 18.7999 39.8441 18.7999 39.9425C18.5702 39.9425 18.3404 39.959 18.1107 39.9754C18.1271 40.4102 18.1271 40.8533 18.1107 41.2964C17.9466 41.2882 17.7825 41.28 17.6184 41.2718C17.6266 40.8369 17.6266 40.3938 17.6102 39.959C17.3886 39.9507 17.1671 39.9507 16.9456 39.9507C16.9456 39.8441 16.9456 39.7374 16.9456 39.639Z" fill="#FEFEFE" stroke="#FEFEFE" stroke-width="0.0769231"/>
<path d="M19.0706 39.639C19.4809 39.6636 19.9157 39.5651 20.3014 39.7128C20.5722 39.8441 20.5722 40.1805 20.3834 40.3692C20.687 40.5251 20.7937 41.001 20.4655 41.1898C20.0306 41.3785 19.5301 41.2718 19.0706 41.2882C19.0624 40.7385 19.0624 40.1887 19.0706 39.639ZM19.5629 39.9344C19.5629 40.0492 19.5629 40.1723 19.5711 40.2872C19.727 40.2626 20.0798 40.3282 20.0388 40.0657C19.9322 39.9016 19.7188 39.959 19.5629 39.9344ZM19.5629 40.5908C19.5629 40.7139 19.5629 40.8451 19.5629 40.9682C19.7598 40.9682 19.9486 40.96 20.1455 40.9354C20.1373 40.8369 20.1373 40.7385 20.1455 40.6318C19.9486 40.6154 19.7516 40.599 19.5629 40.5908Z" fill="#FEFEFE" stroke="#FEFEFE" stroke-width="0.0769231"/>
<path d="M21.5486 39.6472C21.7373 39.639 21.926 39.639 22.1147 39.639C22.3855 40.1887 22.6891 40.7138 22.9435 41.28C22.7794 41.28 22.6153 41.3128 22.4512 41.2718C22.3773 41.1733 22.3199 41.0667 22.2624 40.9682C21.9917 40.9682 21.7209 40.9682 21.4583 40.9682C21.4009 41.0749 21.3517 41.1815 21.3024 41.2964C21.1301 41.2882 20.966 41.2882 20.7937 41.28C21.0399 40.7303 21.3024 40.1887 21.5486 39.6472ZM21.6142 40.6646C21.7783 40.6646 21.9424 40.6646 22.1065 40.6646C22.0409 40.4677 21.9506 40.279 21.844 40.1067C21.7373 40.279 21.6552 40.4677 21.6142 40.6646Z" fill="#FEFEFE" stroke="#FEFEFE" stroke-width="0.0769231"/>
<path d="M23.165 39.6307C23.3291 39.6389 23.485 39.6389 23.6491 39.6389C23.6409 40.082 23.6409 40.5251 23.6573 40.96C23.9773 40.9764 24.2973 40.9764 24.6255 40.9682C24.6255 41.0666 24.6255 41.1651 24.6255 41.2636C24.1414 41.321 23.6491 41.2882 23.165 41.2882C23.1568 40.7384 23.1486 40.1887 23.165 39.6307Z" fill="#FEFEFE" stroke="#FEFEFE" stroke-width="0.0769231"/>
<path d="M24.8717 39.639C25.0276 39.639 25.1753 39.639 25.3312 39.639C25.3394 40.0738 25.3394 40.5087 25.3312 40.9518C25.6512 40.9764 25.9712 40.9764 26.2912 40.96C26.2912 41.0667 26.2994 41.1733 26.3158 41.28C25.8317 41.3046 25.3558 41.2964 24.8717 41.2882C24.8553 40.7385 24.8553 40.1887 24.8717 39.639Z" fill="#FEFEFE" stroke="#FEFEFE" stroke-width="0.0769231"/>
<path d="M27.4481 39.9672C27.8584 39.5241 28.5312 39.5652 29.0645 39.721C29.0645 39.8605 29.0727 39.9918 29.0727 40.1313C28.7117 39.9836 28.2112 39.8523 27.8912 40.1641C27.6779 40.3364 27.7189 40.7057 27.965 40.8369C28.3097 41.0667 28.7363 40.9108 29.0974 40.7795C29.0974 40.9108 29.0809 41.0421 29.0892 41.1816C28.5968 41.3293 27.9979 41.4031 27.5548 41.0831C27.202 40.8369 27.1281 40.2708 27.4481 39.9672Z" fill="#FEFEFE" stroke="#FEFEFE" stroke-width="0.0769231"/>
<path d="M29.4667 39.6307C29.6308 39.6389 29.7949 39.6389 29.959 39.6471C29.9508 40.082 29.9508 40.5251 29.959 40.96C30.2708 40.9764 30.5826 40.9764 30.8944 40.9682C30.8944 41.0666 30.9026 41.1733 30.919 41.28C30.4349 41.3046 29.9508 41.2964 29.4667 41.2882C29.4502 40.7302 29.4502 40.1805 29.4667 39.6307Z" fill="#FEFEFE" stroke="#FEFEFE" stroke-width="0.0769231"/>
<path d="M31.1405 39.6389C31.2964 39.6389 31.4605 39.6389 31.6246 39.6389C31.641 39.9836 31.6082 40.3282 31.6574 40.6728C31.7559 41.0584 32.4123 41.0748 32.5272 40.6892C32.5846 40.3446 32.5436 39.9918 32.5436 39.6471C32.7077 39.6389 32.8718 39.6389 33.0359 39.6307C33.0277 40.0738 33.1262 40.5497 32.9539 40.96C32.5436 41.4441 31.6082 41.4523 31.2226 40.9436C31.0584 40.5333 31.1569 40.0656 31.1405 39.6389Z" fill="#FEFEFE" stroke="#FEFEFE" stroke-width="0.0769231"/>
<path d="M33.438 39.6389C33.8728 39.68 34.3734 39.5159 34.759 39.7784C34.9806 39.9261 34.8821 40.2051 34.7426 40.3774C35.0544 40.5251 35.1529 41.001 34.8247 41.1897C34.3898 41.3784 33.8975 41.2718 33.438 41.2882C33.438 40.7384 33.4298 40.1887 33.438 39.6389ZM33.9221 39.9343C33.9303 40.0492 33.9303 40.1723 33.9303 40.2871C34.0944 40.2625 34.4308 40.3282 34.398 40.0656C34.2995 39.9015 34.0862 39.9589 33.9221 39.9343ZM33.9221 40.5907C33.9221 40.722 33.9221 40.8451 33.9303 40.9682C34.119 40.9682 34.3159 40.96 34.5046 40.9354C34.4964 40.8369 34.4964 40.7302 34.5046 40.6318C34.3077 40.6154 34.119 40.5989 33.9221 40.5907Z" fill="#FEFEFE" stroke="#FEFEFE" stroke-width="0.0769231"/>
<path d="M13.1956 39.9918C13.532 39.9015 13.9915 40.1149 13.9505 40.5087C13.8767 41.0503 13.0151 41.1241 12.8018 40.64C12.6951 40.361 12.9002 40.0328 13.1956 39.9918Z" fill="#3A64A3" stroke="#3A64A3" stroke-width="0.0769231"/>
<path d="M15.5753 40C15.8953 39.9016 16.363 40.0657 16.363 40.4513C16.3876 41.0175 15.4605 41.1487 15.2389 40.6728C15.1076 40.4021 15.2881 40.0575 15.5753 40Z" fill="#3A64A3" stroke="#3A64A3" stroke-width="0.0769231"/>
<path d="M19.563 39.9343C19.7189 39.9589 19.9322 39.9015 20.0389 40.0656C20.0799 40.3282 19.7271 40.2625 19.5712 40.2871C19.563 40.1723 19.563 40.0492 19.563 39.9343Z" fill="#3A64A3" stroke="#3A64A3" stroke-width="0.0769231"/>
<path d="M33.9221 39.9343C34.0862 39.9589 34.2996 39.9015 34.398 40.0656C34.4308 40.3282 34.0944 40.2625 33.9303 40.2871C33.9303 40.1723 33.9303 40.0492 33.9221 39.9343Z" fill="#3A64A3" stroke="#3A64A3" stroke-width="0.0769231"/>
<path d="M21.6143 40.6646C21.6553 40.4677 21.7373 40.279 21.844 40.1067C21.9507 40.279 22.0409 40.4677 22.1066 40.6646C21.9425 40.6646 21.7784 40.6646 21.6143 40.6646Z" fill="#3A64A3" stroke="#3A64A3" stroke-width="0.0769231"/>
<path d="M19.563 40.5908C19.7517 40.599 19.9486 40.6154 20.1456 40.6318C20.1374 40.7385 20.1374 40.8369 20.1456 40.9354C19.9486 40.96 19.7599 40.9682 19.563 40.9682C19.563 40.8451 19.563 40.7138 19.563 40.5908Z" fill="#3A64A3" stroke="#3A64A3" stroke-width="0.0769231"/>
<path d="M33.9221 40.5908C34.119 40.599 34.3078 40.6154 34.5047 40.6318C34.4965 40.7302 34.4965 40.8369 34.5047 40.9354C34.316 40.96 34.119 40.9682 33.9303 40.9682C33.9221 40.8451 33.9221 40.722 33.9221 40.5908Z" fill="#3A64A3" stroke="#3A64A3" stroke-width="0.0769231"/>
<path d="M11.9238 43.602C19.2593 43.5856 26.5947 43.5856 33.9302 43.602C30.4102 45.1282 26.8409 46.5559 23.3045 48.0492C23.0911 48.1313 22.8532 48.2954 22.6234 48.1477C19.0624 46.6215 15.4685 45.161 11.9238 43.602Z" fill="#3A64A3" stroke="#3A64A3" stroke-width="0.0769231"/>
<path d="M6.28687 43.6349C6.32789 43.6595 6.40174 43.7005 6.43456 43.7169" stroke="#3A64A3" stroke-width="0.0769231"/>
<path d="M38.5991 44.0451C38.6319 44.0287 38.7058 43.9877 38.7468 43.9631" stroke="#3A64A3" stroke-width="0.0769231"/>
<path d="M7.59985 44.2092C7.64088 44.2338 7.70652 44.2749 7.74755 44.2913" stroke="#3A64A3" stroke-width="0.0769231"/>
<path d="M38.0247 44.2913C38.0657 44.2749 38.1395 44.2338 38.1724 44.2092" stroke="#3A64A3" stroke-width="0.0769231"/>
<path d="M37.4504 44.5375C37.4915 44.5211 37.5653 44.48 37.5981 44.4636" stroke="#3A64A3" stroke-width="0.0769231"/>
<path d="M36.1375 45.1118C36.1703 45.0954 36.2441 45.0543 36.2851 45.0297" stroke="#3A64A3" stroke-width="0.0769231"/>
<path d="M35.5632 45.3579C35.6043 45.3415 35.6781 45.3005 35.7109 45.2759" stroke="#3A64A3" stroke-width="0.0769231"/>
<path d="M34.9888 45.6041C35.0298 45.5877 35.1036 45.5467 35.1365 45.5303" stroke="#3A64A3" stroke-width="0.0769231"/>
<path d="M10.7998 45.6041C10.8408 45.6287 10.9147 45.6698 10.9475 45.6862" stroke="#3A64A3" stroke-width="0.0769231"/>
<path d="M11.3743 45.8585C11.4071 45.8749 11.4809 45.9159 11.522 45.9323" stroke="#3A64A3" stroke-width="0.0769231"/>
<path d="M33.676 46.1785C33.7088 46.1621 33.7827 46.1211 33.8237 46.0964" stroke="#3A64A3" stroke-width="0.0769231"/>
<path d="M33.1016 46.4246C33.1426 46.4 33.2164 46.3671 33.2493 46.3425" stroke="#3A64A3" stroke-width="0.0769231"/>
<path d="M12.687 46.4246C12.728 46.4492 12.7937 46.4903 12.8347 46.5067" stroke="#3A64A3" stroke-width="0.0769231"/>
<path d="M13.2615 46.6708C13.2943 46.6954 13.3681 46.7364 13.4092 46.7528" stroke="#3A64A3" stroke-width="0.0769231"/>
<path d="M13.9998 46.999C14.0408 47.0154 14.1146 47.0564 14.1474 47.081" stroke="#3A64A3" stroke-width="0.0769231"/>
<path d="M28.7529 48.3118C28.7858 48.2954 28.8596 48.2544 28.9006 48.2297" stroke="#3A64A3" stroke-width="0.0769231"/>
<path d="M17.2 48.3939C17.241 48.4185 17.3148 48.4595 17.3476 48.4759" stroke="#3A64A3" stroke-width="0.0769231"/>
<path d="M28.1785 48.5579C28.2195 48.5415 28.2933 48.5005 28.3262 48.4759" stroke="#3A64A3" stroke-width="0.0769231"/>
<path d="M17.7742 48.64C17.807 48.6646 17.8808 48.7057 17.9219 48.7221" stroke="#3A64A3" stroke-width="0.0769231"/>
<path d="M27.604 48.8041C27.645 48.7877 27.7189 48.7466 27.7517 48.7302" stroke="#3A64A3" stroke-width="0.0769231"/>
<path d="M26.8657 49.1323C26.8985 49.1159 26.9724 49.0748 27.0134 49.0502" stroke="#3A64A3" stroke-width="0.0769231"/>
<path d="M19.0872 49.2144C19.1282 49.239 19.202 49.28 19.2349 49.2964" stroke="#3A64A3" stroke-width="0.0769231"/>
<path d="M26.2913 49.3784C26.3241 49.362 26.3979 49.321 26.439 49.2964" stroke="#3A64A3" stroke-width="0.0769231"/>
<path d="M25.1426 49.8708C25.1836 49.8544 25.2575 49.8133 25.2903 49.7969" stroke="#3A64A3" stroke-width="0.0769231"/>
<path d="M20.9744 50.0349C21.0072 50.0595 21.081 50.1005 21.1221 50.1169" stroke="#3A64A3" stroke-width="0.0769231"/>
<path d="M24.4041 50.199C24.4451 50.1826 24.5107 50.1416 24.5517 50.1169" stroke="#3A64A3" stroke-width="0.0769231"/>
<path d="M21.5486 50.2892C21.5814 50.3057 21.6553 50.3467 21.6963 50.3631" stroke="#3A64A3" stroke-width="0.0769231"/>
<path d="M23.8296 50.4451C23.8624 50.4287 23.9363 50.3877 23.9773 50.3631" stroke="#3A64A3" stroke-width="0.0769231"/>
</svg>
