<svg width="39" height="39" viewBox="0 0 52 52" fill="none" xmlns="http://www.w3.org/2000/svg">
<g clip-path="url(#clip0_1_3309)">
<path d="M51.2 25.7025C51.2 39.8984 39.7388 51.4056 25.6003 51.4056C11.4618 51.4056 0 39.8984 0 25.7025C0 11.5072 11.4618 2.31273e-09 25.6003 2.31273e-09C39.7388 -0.000188373 51.2 11.5072 51.2 25.7025Z" fill="white" stroke="#0053A0" stroke-width="13.2129"/>
<path fill-rule="evenodd" clip-rule="evenodd" d="M1.92742 26.0064C1.762 12.8829 12.2278 2.10537 25.2994 1.93897C38.3704 1.77282 49.1048 12.2814 49.2706 25.4048C49.4357 38.5283 38.9695 49.3058 25.8986 49.4716C12.8276 49.638 2.09316 39.1298 1.92742 26.0064ZM25.2957 1.64259C12.0615 1.81081 1.46462 12.7228 1.63223 26.0101C1.7999 39.2975 12.6681 49.9363 25.9023 49.7686C39.1365 49.6003 49.7327 38.6884 49.5657 25.4011C49.3981 12.1137 38.5299 1.47431 25.2957 1.64259Z" fill="#0053A0"/>
<path fill-rule="evenodd" clip-rule="evenodd" d="M24.731 9.90787C21.8247 9.90096 18.4482 11.0576 16.1786 12.9438C16.1711 12.9489 16.1711 12.969 16.1867 12.9771C17.4844 13.4939 18.3744 14.1796 19.7615 14.9595C19.8116 14.9871 19.8291 14.9752 19.8397 14.9299C20.5108 11.5078 24.6716 12.4572 25.0599 9.96187C25.0431 9.94491 25.0456 9.91415 25.0099 9.91226C24.918 9.90975 24.8242 9.9085 24.731 9.90787ZM26.4615 9.91226C26.4327 9.91226 26.4233 9.92419 26.4246 9.97003C26.2501 10.4096 26.7629 10.8673 27.0619 11.1637C27.0906 11.1907 27.1382 11.2221 27.1738 11.2378C29.0313 11.9969 31.087 12.5577 31.5373 14.7026C31.5466 14.7359 31.5529 14.7573 31.5873 14.7278C32.5773 14.0684 33.5592 13.3997 34.5611 12.7655C34.6124 12.7442 34.5936 12.7203 34.5611 12.6996C32.2971 11.0833 29.4684 10.0316 26.4615 9.91226ZM14.8784 14.0301C13.0671 15.6426 11.513 17.7518 10.7036 20.1216C10.6945 20.1448 10.7083 20.1555 10.7406 20.1586C12.513 20.3193 13.0921 17.9986 14.4506 17.1358C14.4687 17.1251 14.485 17.1157 14.4837 17.0937C14.3874 16.0363 14.3411 15.1453 14.8784 14.0301ZM36.7419 14.5375C36.8419 15.3582 36.7656 16.1368 36.5486 16.8953C36.5392 16.9311 36.5405 16.9587 36.5811 16.9864C37.8907 17.6896 38.6006 19.7435 40.1141 19.8239C40.1328 19.8321 40.1616 19.8333 40.151 19.8082C39.6256 17.9753 38.1146 15.8065 36.7419 14.5375ZM40.6369 21.0094C38.7794 22.8794 41.7939 26.0127 37.7044 27.7614C37.3435 27.8682 36.997 27.995 36.6706 27.9963C35.7612 28.0006 34.4673 27.3043 34.4754 28.6901C34.4754 28.7152 34.4979 28.7328 34.5279 28.7447C35.7913 29.2879 37.4986 30.4652 37.5261 32.2799C37.5881 34.4431 35.3203 35.8998 35.6799 37.9544C40.5262 33.7467 42.5194 27.5341 40.6369 21.0094ZM10.341 21.3184C10.3254 21.3228 10.314 21.3397 10.2998 21.373C8.46459 26.4083 10.2679 34.2359 15.8977 38.3707C15.899 38.2639 15.9609 38.0417 16.0253 37.8922C16.0491 37.8344 16.0453 37.7604 16.0253 37.69C15.8189 36.7795 15.2779 35.8615 14.7632 34.968C12.9876 32.0086 13.9733 29.9792 16.8402 28.6625C16.8771 28.6505 16.8852 28.6298 16.8652 28.5915C16.8208 28.4936 16.777 28.3969 16.7339 28.2977C16.7207 28.2713 16.7339 28.2185 16.6682 28.228C16.0253 28.3083 15.3017 28.3655 14.6475 28.336C13.6631 28.1156 12.723 27.7219 12.0151 26.6751C10.7478 24.8987 12.4834 22.5095 10.3904 21.3315C10.3731 21.3215 10.3567 21.3146 10.341 21.3184ZM36.8813 28.5965C36.9289 28.5965 36.9777 28.6034 37.0252 28.6166C37.6606 28.7328 38.6218 29.1083 39.1928 29.8178C39.2297 29.8637 39.2129 29.902 39.1559 29.897C38.2385 29.8693 37.2078 29.7676 36.4942 29.2031C36.3929 29.1227 36.2997 29.043 36.371 28.8515C36.4235 28.7303 36.5918 28.6374 36.7325 28.6122C36.7838 28.6034 36.8326 28.5953 36.8813 28.5965ZM14.1873 28.972C14.2386 28.9708 14.2886 28.972 14.3399 28.9758C14.3824 28.9808 14.4256 28.9808 14.4543 29.0091C14.6307 29.2201 14.5957 29.5152 14.2661 29.7437C13.57 30.1914 12.7631 30.2166 12.0199 30.2486C11.9908 30.2498 11.9399 30.2178 11.9911 30.1695C12.6683 29.5466 13.4174 28.9796 14.1873 28.972ZM26.7711 37.459C26.7617 37.4577 26.751 37.4602 26.7423 37.4671C26.1719 37.739 25.2757 37.8715 24.7716 37.587C24.711 37.5569 24.6753 37.5795 24.6516 37.6147C23.746 39.1543 21.594 39.1179 20.0661 38.7267C18.931 38.4699 17.8203 38.1446 16.9028 39.057C21.6796 42.5156 29.0431 42.6236 34.5698 38.8178C33.5273 38.3236 32.5811 38.679 31.4347 38.9459C30.137 39.2485 28.3152 39.5223 26.8449 37.4922C26.8198 37.4853 26.7973 37.4602 26.7711 37.459ZM25.8167 37.8056C25.8298 37.8068 25.8442 37.8081 25.8617 37.8093C26.0274 37.8288 26.1219 37.9136 26.2232 38.0285C26.272 38.0931 26.2895 38.1685 26.2814 38.2482C26.2538 38.959 26.1325 39.678 25.8942 40.3003C25.8892 40.3298 25.868 40.3361 25.8573 40.3003C25.5809 39.4243 25.1087 38.5377 25.7047 37.8476C25.7429 37.8144 25.7748 37.8037 25.8167 37.8056Z" fill="#0053A0"/>
<path fill-rule="evenodd" clip-rule="evenodd" d="M27.3464 3.28357C27.4884 3.47176 27.6304 3.68123 27.5803 3.90709C27.3977 4.94033 27.2013 5.97143 26.9925 7.00058C26.9556 7.2304 26.7892 7.32898 26.6222 7.48345C27.7479 7.68878 29.8537 8.08813 30.9832 8.30163C30.9531 7.85392 31.294 7.59208 31.431 7.18645C31.0557 7.45017 30.5767 7.54687 30.1314 7.4508C29.6679 7.36289 28.5203 7.1337 28.0581 7.03763C28.1332 6.67783 28.1807 6.31113 28.2639 5.95133C28.7142 6.03108 29.439 6.2025 29.8881 6.25713C30.2708 6.34818 30.5604 5.81445 30.7687 5.56328C30.6223 5.59656 30.3471 5.61352 30.1977 5.57961C29.7261 5.48774 28.8787 5.30854 28.4071 5.21228C28.449 4.86925 28.5216 4.53093 28.5929 4.19625C29.4009 4.40955 31.0901 4.48911 31.6899 5.17096C31.7099 4.79452 31.4979 4.32685 31.7111 4.07656C30.5948 3.85899 28.4628 3.49267 27.3464 3.28357ZM26.808 3.30008C25.7323 3.30511 23.6709 3.41876 22.5959 3.43226C22.826 3.81234 22.4839 4.14607 22.4758 4.52666C22.8404 4.19455 23.7504 4.09515 24.2238 4.10959C24.2225 5.15137 24.3295 6.19748 24.3439 7.23605C24.3501 7.43259 24.1975 7.55754 24.0724 7.63666C24.5402 7.63164 25.2795 7.57387 25.7179 7.56634C25.5021 7.36729 25.3927 7.35096 25.3889 7.07091C25.3126 6.11208 25.2745 4.99426 25.2482 4.03927C25.7323 4.00385 26.6222 4.09107 27.0175 4.3325C27.0156 3.91306 26.6116 3.49587 26.808 3.30008ZM22.1024 3.58095C21.4151 3.73146 19.8841 3.83959 19.2919 4.29131C18.5839 4.78479 18.4207 5.87975 19.3381 6.36011C19.916 6.59746 21.0123 6.33939 21.5833 6.38522C21.9761 6.40155 22.1418 6.94784 21.8835 7.21533C21.3257 7.71327 19.8103 7.71327 19.1486 7.51233C19.3106 7.89348 19.492 8.22251 19.6633 8.59863C19.8885 8.45672 20.2881 8.42156 20.5427 8.37572C21.0849 8.2966 22.3695 7.94748 22.7316 7.50857C23.1644 6.99807 23.1856 6.25839 22.7641 5.79059C22.3851 5.37365 21.2112 5.44731 20.7121 5.48071C20.4276 5.48071 20.1924 5.58149 19.9223 5.44768C19.6921 5.28869 19.7052 4.89179 19.9629 4.75792C20.4582 4.49444 21.5808 4.45369 22.098 4.66699C22.068 4.30318 22.1143 3.94477 22.1024 3.58095ZM33.1746 4.51014C33.2671 4.74021 33.3209 4.95747 33.2115 5.17504C32.8037 6.05745 32.3403 6.9334 31.9088 7.82253C31.7874 8.08185 31.6323 8.24637 31.3453 8.355C31.728 8.55154 32.3853 8.88119 32.7718 9.07773C32.6098 8.48372 33.0114 7.95062 33.2409 7.47152C33.4616 7.59271 34.0539 7.87025 34.199 8.11137C34.3935 8.44165 34.441 8.78073 34.4829 9.12294C34.5017 9.4325 34.5267 9.66609 34.2084 9.77597C34.6555 9.9587 35.3585 10.3348 35.7744 10.5358C35.4442 9.85258 35.6481 8.92326 35.2072 8.25202C35.4942 8.26458 35.9758 8.31293 36.281 8.12393C36.8326 7.79929 36.967 7.28566 36.7788 6.60813C36.675 6.25148 36.326 6.04803 36.0296 5.90612C35.3216 5.55449 33.8832 4.85732 33.1746 4.51014ZM17.046 4.96438C16.0591 5.52077 14.1623 6.47251 13.1883 7.04579C13.4424 7.11298 13.6188 7.20842 13.7395 7.43008C14.2267 8.30853 14.7126 9.18636 15.1955 10.0648C15.3205 10.2827 15.2824 10.5452 15.1836 10.7875C16.1961 10.223 18.0917 9.23345 19.1074 8.67335C18.7903 8.49251 18.9917 7.88908 18.8641 7.49224C18.764 7.83885 18.4075 8.15406 18.1167 8.36756C17.6452 8.68528 16.5382 9.25166 16.0473 9.53234C15.8684 9.21399 15.6864 8.8881 15.5169 8.56158C15.8997 8.32297 16.7871 7.92864 17.1624 7.6781C17.3819 7.40182 17.253 7.00309 17.3018 6.67846C17.2055 6.79525 17.0804 6.90074 16.9435 6.9717C16.5319 7.20152 15.6289 7.70385 15.2117 7.9299C15.0535 7.6285 14.864 7.3428 14.727 7.02947C15.4894 6.68223 16.8565 5.75291 17.7252 5.80252C17.5082 5.48492 17.1592 5.34087 17.046 4.96438ZM34.067 5.76547C34.4435 5.95447 34.9964 6.20125 35.3385 6.38899C36.2459 6.86244 35.6005 7.85266 34.9439 7.47968C34.5686 7.3541 33.9119 6.98175 33.5461 6.83105C33.7037 6.46309 33.9051 6.13343 34.067 5.76547ZM12.2961 7.71076C12.1918 7.86146 12.0553 7.99897 11.8929 8.08688C11.3502 8.34056 10.378 9.22089 10.1447 9.77597C9.81972 10.4114 9.82316 10.996 10.2063 11.7376C10.6431 12.6123 11.2623 13.0179 12.2096 13.0179C13.1506 12.9595 13.9981 12.1319 14.3852 11.622C14.5984 11.3753 14.8054 11.1034 15.1182 10.9652C14.8555 10.6726 14.5791 10.3951 14.3114 10.1063C14.2157 10.4573 14.0468 10.7593 13.8179 11.0519C13.4796 11.4374 12.9545 12.0434 12.3577 12.0145C11.7607 11.985 11.5708 11.6993 11.3046 11.4073C11.0385 11.1153 10.8554 10.7744 10.9016 10.2507C10.9478 9.727 11.9817 8.76 12.7281 8.73112C12.5569 8.4046 12.4674 8.04104 12.2961 7.71076ZM8.66391 11.2334C8.39155 11.5863 7.90755 12.1997 7.61905 12.5394C7.88691 12.4999 8.13082 12.5225 8.33483 12.6832C9.11814 13.2954 9.9004 13.9139 10.6794 14.5299C10.8795 14.6819 10.9699 14.9092 10.9961 15.1691C11.2844 14.8244 11.7485 14.2204 12.0286 13.8844C11.786 13.9165 11.5497 13.9296 11.3623 13.7777C10.5666 13.1617 9.78433 12.5357 8.993 11.9153C8.77655 11.7501 8.65585 11.5266 8.66391 11.2334ZM6.80465 13.6044C6.30826 14.6285 5.28116 16.5317 4.79322 17.5559C5.06396 17.4479 5.26734 17.4673 5.513 17.5929C6.39595 18.0368 7.28327 18.4682 8.16609 18.9065C8.38273 19.0164 8.57242 19.2343 8.65966 19.4603C9.15185 18.4192 10.0599 16.5769 10.626 15.5446C10.5094 15.5446 10.3925 15.4467 10.3093 15.3638C10.076 15.1415 9.95831 14.8878 9.72103 14.67C9.78708 15.0831 9.7276 15.5779 9.54817 15.9792C9.33966 16.4262 8.78606 17.51 8.57755 17.9577C8.23176 17.8403 7.96459 17.6406 7.63143 17.4899C7.79829 17.0893 8.29123 16.1813 8.46222 15.7851C8.4641 15.5528 8.18898 15.1604 7.99342 14.8797C7.98497 15.0304 7.92031 15.1836 7.84939 15.3224C7.63669 15.7575 7.15725 16.7207 6.94036 17.1515C6.63629 16.997 6.24072 16.8476 5.93671 16.6969C6.14941 16.2623 6.68645 15.1748 6.90746 14.744C7.07843 14.4056 7.35551 14.1224 7.69723 13.951C7.34314 13.8078 7.10858 13.8518 6.80465 13.6044ZM7.44212 19.299C7.58389 19.5294 7.6148 19.9193 7.62324 20.195C7.66064 20.7149 7.35683 21.7007 7.27759 22.2068C6.32366 22.0191 5.36466 21.788 4.41467 21.5789C4.15231 21.5287 4.04649 21.3171 3.89233 21.091C3.79233 21.5224 3.62197 22.3374 3.53041 22.7726C3.72203 22.6307 3.86488 22.5202 4.08984 22.5704C5.10624 22.7845 6.11727 23.0087 7.12968 23.2391C7.36289 23.2894 7.59692 23.4677 7.71775 23.6893C7.93445 22.7023 8.34034 20.8983 8.55279 19.9061C8.44872 19.9149 8.34009 19.9325 8.24846 19.8741C7.95258 19.7102 7.74213 19.454 7.44212 19.299Z" fill="#0053A0"/>
<path fill-rule="evenodd" clip-rule="evenodd" d="M7.45398 27.7577C7.31102 27.9636 7.10608 28.1326 6.86164 28.179C5.93179 28.4434 4.94015 28.6456 3.87946 28.9018C3.66658 28.9784 3.53774 28.8886 3.33649 28.7328C3.43055 29.1649 3.57552 29.8694 3.6779 30.3014C4.05558 29.7702 4.75872 29.7903 5.31495 29.6038C5.4471 30.0515 5.60258 30.9902 5.75105 31.4285C5.98445 31.6721 6.37195 31.706 6.67652 31.8134C6.59743 31.6941 6.44869 31.4404 6.42565 31.2966C6.3176 30.8232 6.11385 29.9196 6.00603 29.4506C6.36182 29.3708 6.71048 29.2653 7.0714 29.2151C7.26242 29.9642 7.70982 31.3588 7.36351 32.0734C7.7267 31.9572 8.02625 31.5553 8.35071 31.6401C8.13682 30.6342 7.65142 28.7724 7.45398 27.7577ZM7.50333 32.3377C7.38461 32.3339 7.26495 32.3446 7.14543 32.3578C6.34016 32.5311 5.59199 32.9298 5.24921 33.7744C4.79748 34.9524 5.68974 36.7639 6.88639 37.2066C7.65589 37.4829 8.417 37.2756 8.98825 36.8474C9.51884 36.4826 9.8787 35.8729 9.8645 35.0553C9.83123 34.1329 9.31759 33.2181 8.56873 32.6975C8.21256 32.4463 7.85975 32.3471 7.50333 32.3377ZM7.47042 33.3662C7.91454 33.3637 8.36563 33.4774 8.67151 33.9358C9.05182 34.4105 9.16721 35.0773 8.89778 35.4767C8.51504 35.9815 7.89808 36.2829 7.24834 36.2565C6.54189 36.2314 5.82611 35.3235 6.03487 34.4525C6.23337 33.743 7.03514 33.402 7.47042 33.3662ZM10.2553 36.7984C10.0817 36.8035 9.91263 36.838 9.74508 36.9014C8.9415 37.199 8.35181 37.7196 8.11634 38.6112C7.78619 39.8313 9.11511 41.4331 10.3703 41.6591C11.1761 41.7954 11.8896 41.5034 12.3774 40.981C12.8368 40.5289 13.1224 39.8526 12.9658 39.0489C12.7723 38.1466 12.0458 37.373 11.2177 36.9925C10.8525 36.8562 10.5445 36.7878 10.2553 36.7984ZM10.6542 37.7855C11.0056 37.7868 11.325 37.928 11.5633 38.178C12.0033 38.5861 12.2107 39.0872 12.0075 39.6184C11.7278 40.2425 11.208 40.6457 10.5637 40.7342C9.86366 40.8315 8.95889 39.9016 9.05401 39.1349C9.16802 38.4316 9.62488 38.1447 10.0002 37.9456C10.2225 37.837 10.4433 37.7843 10.6542 37.7855ZM13.7808 39.6065C13.7739 40.0083 13.3636 39.8897 13.0395 40.3958C13.5262 40.3468 14.3424 40.7826 14.7232 41.0683C14.1572 41.931 13.5687 42.7743 12.9947 43.6283C12.8881 43.8079 12.7012 43.8279 12.5051 43.8436C12.8631 44.0923 13.5131 44.5281 13.8714 44.7767C13.8001 44.4898 13.8264 44.2518 13.9821 44.017C14.4887 43.2647 15.0022 42.5143 15.5075 41.7583C15.5363 41.7276 15.56 41.6566 15.6157 41.6748C16.0303 41.9009 16.6776 42.4666 16.824 42.9225C16.9978 42.5866 16.9647 42.0503 17.2843 41.9191C16.4037 41.31 14.6651 40.2024 13.7808 39.6065ZM17.5032 42.1043C17.632 42.3398 17.5988 42.6092 17.5238 42.8566C17.2361 43.8236 16.8696 44.6932 16.5813 45.6571C16.5169 45.8907 16.3712 46.0294 16.076 46.0985C16.9897 46.3892 18.0504 46.7773 19.0166 47.0736C20.0173 47.3989 20.916 47.1565 21.0242 46.1023C21.0874 45.497 20.4451 45.2169 20.1937 45.0819C20.8553 45.1642 21.3006 44.8094 21.3363 44.1859C21.3926 43.7419 20.9898 43.2565 20.078 42.9595C19.4238 42.7454 18.1623 42.2896 17.5032 42.1043ZM31.349 42.8641C30.925 42.974 30.2158 43.2716 29.7986 43.4142C30.0313 43.5146 30.192 43.5831 30.2708 43.8185C30.5685 44.7265 30.9281 45.5736 31.237 46.479C31.3215 46.7641 31.4253 47.0868 31.2702 47.3669C32.2308 47.0699 33.8975 46.4658 34.8494 46.1487C34.795 46.069 34.7124 46.0043 34.7174 45.9038C34.6937 45.5629 34.7793 45.2866 34.7506 44.9419C34.5304 45.4015 34.0464 45.637 33.5535 45.8297C33.2759 45.9195 32.4954 46.2687 32.2202 46.2963C31.9162 45.3776 31.5541 44.4107 31.2464 43.492C31.162 43.254 31.2239 43.0876 31.349 42.8641ZM18.4087 43.1655C18.7602 43.2898 19.7615 43.5196 20.103 43.6628C20.5789 43.8606 20.27 44.7171 19.7734 44.6072C19.425 44.5507 18.4469 44.2757 18.1204 44.1526C18.2124 43.8236 18.3074 43.492 18.4087 43.1655ZM23.068 43.6628C23.0987 43.7262 23.0799 43.8807 23.0274 43.9504L21.2387 46.9901C21.0792 47.2507 20.9291 47.3694 20.7071 47.5402C21.1149 47.6036 21.8203 47.8071 22.23 47.8862C22.098 47.598 22.1099 47.2413 22.3232 46.9663C22.9548 47.0222 24.1356 47.1082 24.7635 47.1848C24.8911 47.4843 25.0543 47.8441 24.7635 48.1179C25.1794 48.1147 25.9048 48.099 26.3101 48.1267C26.1275 47.9088 25.9499 47.6896 25.8736 47.4077C25.6835 46.8451 24.9767 44.7554 24.7547 44.108C24.7166 43.9906 24.7679 43.8449 24.7716 43.8317L23.068 43.6628ZM27.7948 43.686C27.3383 43.7614 26.5615 43.8518 26.125 43.9058C26.3326 44.0521 26.4865 44.1425 26.5159 44.3893C26.6234 45.3381 26.8142 46.2473 26.9355 47.1967C26.9605 47.4937 26.9655 47.8755 26.7579 48.1179C27.7585 48.0224 29.5997 47.7223 30.596 47.6061C30.5579 47.5176 30.4934 47.4341 30.5185 47.338C30.5635 46.9983 30.6898 46.7063 30.7317 46.3628C30.4015 46.7421 29.9237 46.9456 29.4034 47.0366C29.105 47.0868 28.2345 47.2281 27.9637 47.2218C27.8505 46.2592 27.6848 45.2433 27.5684 44.2813C27.5359 44.0301 27.6278 43.8794 27.7948 43.686ZM23.8004 44.3931L24.5296 46.3873C24.0737 46.361 23.2025 46.307 22.7472 46.2555L23.8004 44.3931ZM17.9597 44.7861C18.3781 44.95 19.0723 45.1861 19.4444 45.3306C20.2593 45.6156 20.0448 46.7126 19.0573 46.3716C18.6139 46.2304 18.0229 46.0451 17.602 45.8844C17.7033 45.5246 17.8584 45.1491 17.9597 44.7861Z" fill="#0053A0"/>
<path fill-rule="evenodd" clip-rule="evenodd" d="M39.822 9.09409C39.1772 9.06646 38.7507 9.24479 38.3004 9.62719C37.7963 10.0875 37.453 10.6218 37.4567 11.4237C37.4736 12.0553 38.1609 13.0481 38.9877 13.5718C39.2204 13.7444 39.5894 13.9598 39.6244 14.248C39.8983 13.9667 40.1841 13.6892 40.4643 13.4261C39.7932 13.2239 38.6569 12.5696 38.4936 11.8161C38.3898 11.2164 38.5362 11.0205 38.7901 10.6928C39.2641 10.1182 39.7445 9.91038 40.4643 10.1101C41.1078 10.3675 41.6845 11.1769 41.7345 11.7665C42.0691 11.5907 42.3862 11.4507 42.7258 11.2792C42.4562 11.1116 42.3374 10.9107 42.1548 10.6676C41.7595 10.0893 41.0159 9.26363 40.1141 9.11921C40.0128 9.10727 39.9139 9.09848 39.822 9.09409ZM43.3718 12.1797C43.3587 12.6029 43.1367 12.7335 42.834 12.9595C42.0991 13.4644 41.403 13.9786 40.6701 14.4678C40.4618 14.6009 40.1922 14.7717 39.8958 14.6285C40.1341 15.0003 40.605 15.6282 40.8464 15.9955C40.8714 15.6163 41.0741 15.4442 41.303 15.2935C42.0953 14.7623 42.8402 14.189 43.6351 13.6628C43.8646 13.5071 43.996 13.4393 44.3012 13.5422C44.0647 13.1793 43.6101 12.5432 43.3718 12.1797ZM44.779 14.1702C44.5594 14.503 44.0723 14.3008 43.7264 14.4345C44.1473 14.6725 44.612 15.436 44.7871 15.8844C43.8459 16.3271 43.0679 16.7245 42.1254 17.1729C41.9465 17.2639 41.6638 17.2061 41.4806 17.1358C41.6751 17.532 42.0003 18.229 42.1954 18.6227C42.2992 18.3176 42.6032 18.0582 42.8865 17.9326C43.7289 17.5484 44.4225 17.1766 45.273 16.8137C45.4888 17.24 45.8509 18.0425 45.7296 18.5235C46.0548 18.3263 46.2143 17.8968 46.5851 17.937C46.1348 16.9575 45.2336 15.1485 44.779 14.1702ZM46.8234 18.4073C46.734 18.818 46.3625 19.0547 46.1323 19.3611C45.6714 19.9018 45.1173 20.5109 44.5776 21.0584C44.4488 21.1796 44.1292 21.2179 43.9353 21.2618C43.5338 21.3202 43.3468 21.3673 43.0391 21.1086C43.1354 21.5432 43.293 22.318 43.3799 22.7525C43.5513 22.4919 43.7339 22.3387 44.071 22.2527C44.3712 22.1987 44.637 22.0825 44.8528 22.1774C45.8378 22.7155 47.6858 23.4822 47.9172 23.7227L47.5802 22.0995C47.4707 22.2584 47.3419 22.335 47.2105 22.2847C46.6195 22.0549 45.9178 21.7271 45.4162 21.5344C45.7834 21.1061 46.2124 20.6923 46.6008 20.2867C46.7696 20.0801 47.001 19.9985 47.2062 20.1994L46.8234 18.4073Z" fill="#0053A0"/>
<path fill-rule="evenodd" clip-rule="evenodd" d="M44.4869 27.9849C44.2999 27.99 44.0879 28.0571 43.8615 28.2078C43.5394 28.4923 43.4206 28.9375 43.3143 29.3356C43.1692 30.0081 42.8089 31.3901 42.677 32.0645C42.8996 31.8849 43.0916 31.8648 43.343 31.9201C44.3262 32.1329 45.3056 32.3565 46.2849 32.5693C46.522 32.6152 46.6971 32.8017 46.8315 33.0108C46.976 32.0752 47.5551 30.1732 47.5395 29.2188C47.5207 28.4364 46.7984 27.9372 46.1073 28.0998C45.7152 28.2103 45.4951 28.665 45.4081 28.9839C45.4069 28.5092 45.0479 27.9699 44.4869 27.9849ZM44.4907 29.1196C44.779 29.1215 45.0454 29.3883 44.9685 29.7236C44.8922 30.0727 44.7539 30.8074 44.6689 31.1528C44.3343 31.0849 43.9866 31.0096 43.6564 30.933C43.7514 30.5726 43.8409 30.0608 43.9353 29.6947C44.0304 29.2797 44.2674 29.1196 44.4907 29.1196ZM46.2931 29.1817C46.5933 29.1924 46.8684 29.4951 46.8022 29.8637C46.709 30.307 46.5389 31.1245 46.4576 31.5609C46.0929 31.4868 45.7152 31.3983 45.3468 31.3254C45.44 30.8815 45.5832 30.2417 45.7008 29.7977C45.8096 29.3431 46.0585 29.1742 46.2931 29.1817ZM42.6076 32.2585C42.3311 32.7571 42.0785 33.2324 41.7889 33.7373C42.0084 33.6318 42.2254 33.6198 42.4062 33.7165C43.0485 34.0575 43.5957 34.3771 44.2317 34.7325C44.4775 34.8751 44.7439 35.1407 44.7715 35.4923C44.7608 35.9632 44.4369 36.5327 44.0053 36.7243C43.6933 36.8712 43.338 36.7205 43.101 36.583C42.5181 36.2313 42.0585 35.9814 41.4756 35.6248C41.2742 35.5086 41.0947 35.4226 41.0766 35.0471C40.7976 35.5218 40.5462 36.0411 40.2535 36.5302C40.6419 36.3557 40.9096 36.4718 41.1885 36.6451C41.707 36.9447 42.1385 37.1958 42.652 37.496C43.0441 37.7195 43.4368 37.8671 43.9722 37.7471C44.4344 37.6398 44.8265 37.1908 45.1086 36.728C45.4069 36.2433 45.6689 35.6788 45.6389 35.1425C45.6126 34.5887 45.2768 34.2107 44.9028 33.9608C44.2924 33.5897 43.8077 33.3341 43.1917 32.9737C42.9547 32.8306 42.6151 32.6152 42.6076 32.2585ZM42.944 37.9663C42.9309 38.4328 42.6707 38.9816 42.3399 39.3621C42.1729 39.5869 41.6357 40.1985 41.4187 40.4327C40.6832 39.8061 40.014 39.2378 39.276 38.6156C39.0809 38.4542 38.9271 38.2294 38.9177 37.9744C38.6125 38.2903 38.2003 38.7593 37.9177 39.0978C38.1703 39.062 38.4073 39.1851 38.5968 39.3464C39.3204 39.9662 40.0221 40.6016 40.7564 41.212C40.9765 41.4129 41.0897 41.6076 41.1016 41.9272C41.7676 41.1724 43.0034 39.7464 43.6526 38.9791C43.5644 38.9408 43.4469 38.927 43.3968 38.8215C43.2048 38.4699 43.1473 38.2451 42.944 37.9663ZM37.8476 39.1851C37.6412 39.457 37.2278 39.6146 36.9301 39.7464C36.2866 40.0547 35.3835 40.7919 35.1953 41.6553C35.0452 42.3994 35.2084 43.0003 35.618 43.5422C36.0233 44.0922 36.5343 44.4118 37.2397 44.4301C38.029 44.4225 38.8701 43.9133 39.493 43.2778C39.6982 43.0719 39.9496 42.7887 40.2498 42.7654C39.9996 42.4666 39.7907 42.1294 39.5181 41.8443C39.3417 42.39 38.4924 43.286 37.9177 43.443C37.4104 43.5579 37.0709 43.4204 36.7 43.0995C36.2878 42.6713 36.0314 42.1438 36.2022 41.5266C36.4561 40.731 37.508 40.1483 38.1691 40.2632C38.049 39.9078 37.9583 39.5273 37.8476 39.1851Z" fill="#0053A0"/>
<path fill-rule="evenodd" clip-rule="evenodd" d="M25.7179 10.0485C25.6341 10.2908 25.5772 10.6104 25.5209 10.8911C25.509 10.9527 25.4784 10.9947 25.4415 11.0393C23.5696 12.9306 21.2569 12.3799 20.3951 15.1534C20.2975 15.3876 20.4213 15.6357 20.8385 15.8674C20.8804 15.8925 20.9173 15.8818 20.9173 15.8378C20.8122 12.8264 24.8648 13.0298 25.751 10.9401C25.7604 10.9188 25.7904 10.9244 25.7998 10.9401C26.5447 12.3353 27.7755 12.5181 28.9006 13.1711C29.743 13.659 30.3503 14.1017 30.5222 15.4875C30.5279 15.5528 30.546 15.5408 30.5792 15.5076C30.7067 15.3663 31.0163 15.2934 31.0069 15.0818C30.7343 13.0373 28.4916 12.5959 26.6923 11.7539C26.6172 11.6961 26.5409 11.6383 26.4659 11.5806C26.0894 11.1335 25.8023 10.6293 25.7179 10.0485ZM25.6854 12.6053C25.6653 12.6066 25.6485 12.611 25.6309 12.621C25.6116 12.6305 25.5928 12.6505 25.5822 12.6713C25.5722 12.6901 25.5759 12.7498 25.5822 12.7906C25.589 12.8169 25.6128 12.8314 25.6272 12.8483C25.6572 12.8854 25.6835 12.9067 25.7223 12.9356C25.7704 12.9676 25.8298 12.9281 25.8405 12.8898C25.8548 12.8232 25.8548 12.7498 25.8405 12.6914C25.8367 12.67 25.8204 12.6568 25.8073 12.6374C25.7892 12.6173 25.7692 12.6066 25.7379 12.6053C25.7248 12.6041 25.7035 12.6028 25.6854 12.6053ZM26.297 13.1749C26.2908 13.1761 26.2882 13.1774 26.2814 13.183C26.2695 13.1924 26.2601 13.2081 26.2601 13.2238C26.2589 13.3061 26.222 13.426 26.297 13.4687C26.3339 13.4857 26.3802 13.492 26.409 13.4593C26.4233 13.4354 26.4515 13.4273 26.4496 13.3852C26.4496 13.3651 26.4221 13.3588 26.4133 13.3362C26.4014 13.303 26.4077 13.2439 26.3958 13.2201C26.3852 13.2025 26.3746 13.1855 26.3552 13.183C26.3352 13.1793 26.317 13.1698 26.297 13.1749ZM25.1707 13.1868C25.1162 13.2056 25.0587 13.2452 25.0387 13.3149C25.0149 13.3563 25.0162 13.389 25.0387 13.4141C25.0675 13.4568 25.1031 13.507 25.1531 13.5303C25.1957 13.5504 25.2507 13.5504 25.2695 13.4593C25.2901 13.384 25.2914 13.2778 25.2576 13.249C25.2138 13.2176 25.2244 13.1736 25.1707 13.1868ZM25.7667 14.182C25.5271 14.906 25.4652 15.2708 25.2945 15.8473C25.6072 15.8498 25.7798 15.851 26.0049 15.8554C25.8217 15.1986 25.8129 14.938 25.7667 14.182Z" fill="#0053A0"/>
<path fill-rule="evenodd" clip-rule="evenodd" d="M14.7101 17.7593C14.6995 17.7593 14.6864 17.765 14.6732 17.7756C13.0053 18.9567 12.5525 21.0502 10.4075 20.7042C11.93 21.4188 11.8933 23.1757 12.0486 24.8052C12.1797 26.1778 13.2251 28.027 16.0435 27.6421C16.0748 27.6396 16.096 27.6144 16.076 27.5843C15.8959 27.3262 15.2918 27.411 15.1417 27.3859C12.9105 26.9658 12.5327 24.9056 12.0693 22.5742C11.9615 21.9004 11.5261 21.4747 11.2588 20.9686C11.2395 20.9171 11.2221 20.9008 11.2877 20.8888C12.7091 20.6157 13.7808 19.3774 14.9203 18.0607C14.944 18.0463 14.9484 18.0136 14.9203 17.9897C14.8558 17.9251 14.7971 17.8535 14.7389 17.7756C14.7283 17.765 14.722 17.758 14.7101 17.7593ZM14.4969 20.4688C14.4769 20.47 14.4556 20.4744 14.4387 20.4845C14.4187 20.4939 14.4006 20.514 14.3887 20.5347C14.3793 20.5535 14.3837 20.6132 14.3887 20.654C14.3968 20.6804 14.4243 20.6948 14.4387 20.7118C14.4687 20.7488 14.4956 20.7702 14.5338 20.799C14.5819 20.8311 14.6376 20.7915 14.6482 20.7532C14.6626 20.6866 14.6626 20.6132 14.6482 20.5548C14.6438 20.5334 14.6282 20.5203 14.6151 20.5008C14.5969 20.4807 14.5769 20.47 14.5456 20.4688C14.5319 20.4675 14.515 20.4662 14.4969 20.4688ZM15.1379 21.054C15.131 21.0559 15.1248 21.0584 15.1179 21.0634C15.106 21.0716 15.0966 21.0873 15.0966 21.1042C15.0929 21.1852 15.051 21.3039 15.126 21.3478C15.1617 21.3673 15.2073 21.3717 15.2361 21.3397C15.2524 21.3158 15.2811 21.3108 15.2811 21.27C15.2824 21.2486 15.2574 21.243 15.2499 21.2197C15.2392 21.1865 15.2442 21.1268 15.2323 21.1042C15.223 21.086 15.2117 21.0659 15.1917 21.0634C15.1717 21.0584 15.1573 21.0502 15.1379 21.054ZM14.0028 21.1413C13.949 21.1601 13.8908 21.2034 13.8715 21.2737C13.8477 21.3146 13.8489 21.3434 13.8715 21.3686C13.899 21.4113 13.9396 21.4615 13.9897 21.4841C14.0322 21.5048 14.0872 21.5092 14.106 21.4175C14.1266 21.3422 14.1241 21.2329 14.0885 21.2034C14.0453 21.172 14.0572 21.1281 14.0028 21.1413ZM14.6613 22.1246C14.5732 22.8555 14.3074 23.6906 14.0478 24.2394C14.3505 24.1986 14.5926 24.3832 14.6113 24.6187C14.6876 24.3518 14.8915 24.1465 15.1335 24.218C14.9747 23.555 14.7783 22.8423 14.6613 22.1246Z" fill="#0053A0"/>
<path fill-rule="evenodd" clip-rule="evenodd" d="M17.0423 29.2439C17.0304 29.2471 17.0172 29.2509 17.0016 29.2571C14.4187 30.2593 13.9027 32.5876 15.3468 34.6377C16.4319 36.4681 16.9122 37.2223 16.3962 38.6935C18.415 36.2804 21.9917 40.1841 24.0437 37.1739C24.0712 37.1369 24.028 37.1117 23.9855 37.0703C23.8854 37.0006 23.7804 36.9541 23.6778 36.9133C23.6015 36.8844 23.5596 36.9014 23.5133 36.9673C22.6734 37.8558 19.9498 37.6587 17.8903 37.6649C17.8271 37.6649 17.6389 37.6982 17.577 37.7315C17.3794 37.8332 17.1792 37.923 16.9685 37.9042C16.9122 37.9042 16.8265 37.874 16.8409 37.7566C16.9434 36.2527 16.0522 35.2971 15.4875 34.0563C15.3111 33.6331 14.0028 31.2596 17.1492 29.8179C17.1636 29.7902 17.1936 29.7739 17.1899 29.7318C17.1805 29.5849 17.1505 29.4399 17.1079 29.2892C17.1004 29.2521 17.0792 29.2389 17.0423 29.2439ZM19.3788 32.1104C19.3588 32.1135 19.3381 32.1173 19.3206 32.1267C19.3012 32.1374 19.2825 32.1568 19.2725 32.1769C19.2631 32.1964 19.2656 32.2561 19.2725 32.2969C19.2787 32.3232 19.3062 32.3364 19.3206 32.354C19.3525 32.3911 19.3775 32.4118 19.4157 32.4413C19.4645 32.4727 19.5251 32.4331 19.5351 32.3948C19.5483 32.3289 19.5501 32.2548 19.5351 32.1964C19.5301 32.1757 19.5101 32.1638 19.4989 32.1437C19.4788 32.1223 19.4632 32.1135 19.4326 32.1104C19.4182 32.1091 19.3988 32.1079 19.3788 32.1104ZM20.0292 32.6642C20.0223 32.6655 20.0148 32.6667 20.0079 32.6724C19.9973 32.6818 19.9867 32.6975 19.9879 32.7132C19.9842 32.7954 19.9423 32.9129 20.0161 32.9581C20.053 32.9763 20.0936 32.98 20.1236 32.9487C20.138 32.9248 20.1724 32.921 20.1724 32.8783C20.1737 32.8589 20.1449 32.8532 20.1355 32.8293C20.1249 32.7967 20.1343 32.737 20.1236 32.7132C20.113 32.695 20.103 32.6749 20.0817 32.6724C20.063 32.6667 20.0486 32.6604 20.0292 32.6642ZM18.8691 32.7345C18.8153 32.7527 18.7577 32.7967 18.7377 32.8664C18.7127 32.906 18.7152 32.9367 18.7377 32.9618C18.7653 33.0039 18.8022 33.0529 18.8522 33.0767C18.8941 33.0981 18.9497 33.1019 18.9666 33.0108C18.9879 32.9355 18.9904 32.8256 18.9547 32.7967C18.9116 32.7647 18.9235 32.7213 18.8691 32.7345ZM19.462 33.6751C19.3738 34.406 19.1073 35.2412 18.8484 35.79C19.1511 35.7492 19.3932 35.93 19.4119 36.1667C19.4882 35.8999 19.6921 35.6977 19.9341 35.7699C19.7747 35.1068 19.5777 34.3941 19.462 33.6751Z" fill="#0053A0"/>
<path fill-rule="evenodd" clip-rule="evenodd" d="M34.1333 29.2401C34.1202 29.2414 34.1052 29.2546 34.1002 29.269C34.0433 29.3908 33.9857 29.507 33.9276 29.6288C33.8763 29.7663 33.8738 29.8837 34.0802 29.9497C37.7807 31.4686 35.9589 34.3426 34.9939 36.0292C34.8938 36.2025 34.6543 36.7136 34.6361 36.9384C34.5992 37.1776 34.6361 37.3861 34.6305 37.636C34.6305 37.6944 34.5492 37.7101 34.5042 37.7019C32.1351 37.2448 30.0857 39.3464 28.1438 37.0784C27.965 36.8844 27.7504 36.8655 27.6716 36.9265C27.586 36.9911 27.5228 37.0627 27.4621 37.1575C27.4215 37.2147 27.4227 37.2473 27.4703 37.3057C29.4891 40.1483 32.4735 36.7915 35.0345 38.2055C34.4348 36.7601 35.6168 35.3579 36.2853 34.0971C37.7713 31.5622 36.0327 30.0043 34.1465 29.2401C34.1408 29.2376 34.1383 29.2401 34.1333 29.2401ZM32.172 32.0563C32.152 32.0588 32.1351 32.0632 32.1176 32.0733C32.0983 32.0827 32.0795 32.1028 32.0689 32.1223C32.0601 32.1424 32.0626 32.2058 32.0689 32.2466C32.0757 32.273 32.0995 32.2836 32.1139 32.3006C32.1439 32.3364 32.1702 32.359 32.2083 32.3866C32.2571 32.4199 32.3165 32.3803 32.3271 32.342C32.3415 32.2761 32.3415 32.2008 32.3271 32.1436C32.3234 32.121 32.3071 32.1091 32.2953 32.0896C32.2759 32.0695 32.2559 32.0588 32.2246 32.0563C32.2114 32.0551 32.1902 32.0538 32.172 32.0563ZM32.7931 32.6271C32.7862 32.6271 32.7787 32.6302 32.7718 32.6353C32.7599 32.6434 32.7512 32.6604 32.7512 32.6761C32.748 32.7571 32.7061 32.8758 32.7799 32.9191C32.8168 32.9392 32.8612 32.943 32.8919 32.9116C32.9063 32.8877 32.9363 32.8839 32.9363 32.8412C32.9363 32.8218 32.9132 32.8149 32.9038 32.791C32.8931 32.7583 32.8981 32.6999 32.8881 32.6761C32.8775 32.6579 32.8706 32.6378 32.8494 32.6353C32.8312 32.6302 32.8112 32.6233 32.7931 32.6271ZM31.6455 32.7131C31.591 32.732 31.5373 32.7766 31.5179 32.8456C31.4941 32.8864 31.4954 32.9153 31.5179 32.9404C31.5466 32.9831 31.5823 33.0327 31.6323 33.0553C31.6742 33.0767 31.7293 33.0805 31.748 32.9894C31.7693 32.9141 31.7662 32.8042 31.7305 32.7753C31.6886 32.7439 31.6992 32.7 31.6455 32.7131ZM32.2746 33.6556C32.1877 34.3865 31.9206 35.2217 31.6611 35.7698C31.965 35.729 32.2071 35.9143 32.2246 36.1491C32.3009 35.8822 32.5048 35.6775 32.7468 35.7491C32.5879 35.0854 32.3916 34.3733 32.2746 33.6556Z" fill="#0053A0"/>
<path fill-rule="evenodd" clip-rule="evenodd" d="M36.3798 17.721C36.3723 17.7242 36.3654 17.7305 36.3591 17.7386C36.331 17.7713 36.3079 17.9527 36.301 18.0727C36.2997 18.0978 36.2997 18.1179 36.326 18.1348C36.8563 18.4588 38.4455 20.2679 39.8301 20.5837C39.8908 20.5969 39.8983 20.6484 39.8683 20.6792C38.2216 22.6219 40.1854 25.656 36.9395 26.8126C36.3366 26.979 35.73 26.8999 35.618 27.303C35.6149 27.3175 35.6349 27.3357 35.6468 27.3357C37.5987 27.46 38.8164 26.7995 39.181 25.3998C39.6506 23.8401 38.7663 21.6242 40.4318 20.4148C40.4737 20.3828 40.4512 20.3275 40.4143 20.3313C38.7307 20.5033 37.6544 18.71 36.4035 17.7254C36.3973 17.721 36.3867 17.7198 36.3798 17.721ZM36.9145 20.3313C36.8945 20.3357 36.8738 20.342 36.8563 20.3526C36.8369 20.3621 36.8182 20.3815 36.8076 20.4029C36.7988 20.4211 36.8013 20.4807 36.8076 20.5215C36.8144 20.5479 36.8382 20.563 36.8526 20.5799C36.8826 20.617 36.9089 20.6339 36.947 20.6616C36.9958 20.6949 37.0552 20.6591 37.0658 20.6208C37.0802 20.5548 37.0802 20.4807 37.0658 20.4223C37.0621 20.4016 37.0458 20.384 37.0339 20.3646C37.0146 20.3445 36.9945 20.3338 36.9633 20.3313C36.9501 20.3313 36.9326 20.3288 36.9145 20.3313ZM37.4855 20.9686C37.4792 20.9699 37.4724 20.9711 37.4661 20.9762C37.4542 20.9856 37.4486 21.0013 37.4486 21.0176C37.4448 21.0992 37.4042 21.2167 37.478 21.2619C37.513 21.2801 37.5555 21.2845 37.5843 21.2524C37.5999 21.2286 37.6306 21.2248 37.6306 21.1827C37.6306 21.1627 37.6056 21.1576 37.5974 21.1338C37.5868 21.1005 37.5924 21.0408 37.5806 21.0176C37.5712 20.9988 37.563 20.9793 37.5437 20.9762C37.5236 20.9711 37.5055 20.9642 37.4855 20.9686ZM36.3104 20.9762C36.2559 20.995 36.2022 21.0383 36.1828 21.1087C36.159 21.1495 36.1603 21.1784 36.1828 21.2035C36.2103 21.2462 36.2472 21.2964 36.2972 21.3184C36.3391 21.3397 36.3942 21.3435 36.4129 21.2524C36.4323 21.1771 36.4311 21.0716 36.396 21.0427C36.3523 21.0107 36.3641 20.963 36.3104 20.9762ZM36.9433 21.9092C36.8563 22.6401 36.5893 23.4753 36.3297 24.0241C36.6324 23.9833 36.8763 24.1679 36.8932 24.4046C36.9695 24.1377 37.1734 23.9311 37.4161 24.0027C37.2566 23.3409 37.0602 22.627 36.9433 21.9092Z" fill="#0053A0"/>
<path fill-rule="evenodd" clip-rule="evenodd" d="M35.2609 13.195C35.2547 13.1963 35.2478 13.1963 35.2403 13.2C33.7449 13.6245 31.7255 15.3569 30.0619 16.8752C30.0132 16.9311 29.9462 16.943 29.8918 16.9242C28.7861 16.5594 27.5003 16.5123 26.429 16.4828C24.9005 16.3415 23.063 16.5293 21.4188 17.0642C21.3482 17.0894 21.295 17.0247 21.2425 16.9613C19.941 15.5076 18.1073 14.3171 16.1285 13.4883C16.0735 13.4619 16.0272 13.438 15.9641 13.4964C14.9484 14.437 15.1717 17.2231 16.0435 18.7339C16.1461 18.953 16.1686 19.3373 16.1711 19.4685C16.233 20.2811 16.3906 20.9831 16.6026 21.7403C16.6551 22.2106 16.8346 22.6891 17.1042 23.0947C17.1567 23.1594 17.1342 23.2178 17.0961 23.2599C16.7515 23.6065 16.4369 23.9343 16.0923 24.2803C16.0673 24.3041 16.0197 24.3211 15.9734 24.3292C15.6876 24.3625 15.5982 24.4561 15.4631 24.7876C15.4431 24.8353 15.4456 24.8686 15.4706 24.9082C15.5194 24.9992 15.8509 25.5756 16.1248 25.8821C16.3893 26.1452 16.2905 26.3951 16.0673 26.6343C16.4894 26.9514 17.2449 27.558 17.2899 27.6503C17.3375 27.8945 17.7665 27.9768 17.5107 28.3272C17.5782 28.3429 17.6189 28.368 17.6714 28.4101C17.7096 28.4515 17.7177 28.4911 17.7215 28.5344C17.7559 28.9149 17.8271 29.2603 18.0373 29.6244C18.8928 31.0812 19.8516 30.8564 20.9911 32.0984C21.6728 32.8425 22.3457 32.872 22.8091 34.1844C22.7666 34.6823 22.7403 34.9875 22.9448 35.4182C23.1869 35.9444 23.7829 35.9645 24.549 36.3143C24.6516 36.3545 24.7085 36.3858 24.7835 36.4637C24.9837 36.6596 25.2138 36.7852 25.4746 36.9095C25.6854 36.9993 25.9349 36.9993 26.1288 36.9014C26.4971 36.6898 26.5747 36.843 27.2557 36.3513C27.898 36.1611 28.9468 35.3667 28.8349 34.0148C28.8386 33.9753 28.848 33.9489 28.8599 33.9144C28.8799 33.8522 28.9375 33.79 28.9919 33.7298C29.2508 33.4189 29.5472 33.1439 29.7286 32.7672C29.7655 32.6761 29.7974 32.5876 29.8799 32.5191C32.4441 30.4175 31.5373 31.3412 32.4641 30.6279C34.3647 29.1767 33.117 27.4826 35.3429 26.5351C35.0414 25.894 35.144 25.8356 36.1246 24.4705C35.6061 24.1955 35.2453 23.8796 34.8857 23.6272C33.7581 22.7393 34.7819 21.9858 34.8744 21.5501C34.9388 21.3027 35.0358 20.9906 35.0595 20.6748C35.1796 19.947 35.1121 19.0893 35.4823 18.7087C35.755 18.4444 35.8338 16.997 35.8769 16.8796C36.1759 15.9346 36.0664 15.8078 36.1209 15.2144C36.1296 15.1353 36.1578 15.0719 36.1209 14.9846C35.9126 14.4082 35.6574 13.8506 35.3635 13.298C35.3372 13.2503 35.3178 13.2044 35.2809 13.195C35.2753 13.1938 35.2678 13.195 35.2609 13.195ZM34.3729 15.4178C34.2528 16.6033 33.8225 17.3882 33.957 18.3822C33.4554 19.0007 33.6236 20.1542 33.1627 20.8443C33.1327 20.8839 33.092 20.9065 33.0432 20.9021C32.431 20.8003 32.0019 20.0261 31.481 19.5885C31.4278 19.5464 31.4016 19.5068 31.4191 19.4648C31.6311 18.9913 32.1176 18.5166 31.7399 18.0356C31.7587 16.6573 33.3985 16.4357 34.3729 15.4178ZM16.7383 15.6451C17.7002 16.1858 18.3137 17.0937 18.7865 17.1069C18.8603 17.2218 18.9654 17.3405 19.0536 17.4335C19.7615 18.2422 19.1999 18.5436 19.8222 19.5809C19.8897 19.726 19.9198 19.8673 19.8222 19.9558C19.4063 20.3194 19.0367 20.6879 18.6915 21.0873C18.2349 21.6436 18.0123 21.4389 17.8772 21.0873C17.7928 20.8267 17.7033 20.5322 17.8203 20.2321C17.8928 20.0669 17.849 19.9313 17.7252 19.7737C17.5595 19.5401 17.4244 19.2927 17.2937 19.0466C17.2474 18.9543 17.2174 18.8751 17.1992 18.759C17.0348 17.7361 17.0648 16.2065 16.7383 15.6451ZM28.6873 25.7709C28.7573 25.7634 28.8193 25.8117 28.8274 25.8821C28.8349 25.9536 28.7824 26.0196 28.7123 26.0271C28.6416 26.034 28.5797 25.9825 28.5716 25.911C28.5653 25.8413 28.6179 25.7791 28.6873 25.7709ZM22.118 25.7829C22.1893 25.7766 22.2506 25.8237 22.2575 25.8953C22.2656 25.9656 22.2125 26.0271 22.1431 26.0353C22.073 26.0434 22.0099 25.9945 22.0036 25.9241C21.9955 25.8532 22.048 25.791 22.118 25.7829ZM32.7024 28.6537C32.8062 28.6549 32.8381 28.7523 32.8262 28.8515C32.7155 30.2524 32.0651 29.8668 30.5791 31.1936C30.1908 31.5051 30.3184 31.8077 29.7943 32.251C29.3552 32.6629 28.9456 33.0937 28.5716 33.6268C28.5109 33.7178 28.4665 33.6211 28.4609 33.5803C28.4428 33.4692 28.3771 33.3436 28.2845 33.2419C28.0388 32.9643 28.4309 32.9989 27.9887 32.3339C27.8055 32.0645 27.5935 32.4118 27.4659 31.9747C27.3871 31.6928 27.4621 31.8316 27.3633 31.1773L27.6229 30.9619C27.7448 31.311 27.9162 31.603 28.1032 31.846C28.1307 31.8793 28.0794 32.1738 28.1939 32.4331C28.2176 32.0237 28.5822 31.7882 28.0625 31.0536C27.995 30.9581 27.96 30.8646 27.9349 30.7522C27.9318 30.7403 27.9293 30.7308 27.9268 30.7189C28.9112 30.0765 30.0132 29.5522 31.0532 29.1196C31 29.1793 30.9488 29.2389 30.8962 29.3023C30.8725 29.3312 30.9187 29.3419 30.9331 29.3356C30.9963 29.318 31.0263 29.3262 31.0763 29.3356C31.1095 29.3551 31.1057 29.3896 31.1057 29.421C31.1132 29.5428 31.0163 29.5497 31.0451 29.6854C31.2164 29.465 31.3797 29.2508 31.5542 29.0499C31.5954 28.9984 31.6492 28.9375 31.7305 28.9469L31.9206 28.972C31.9851 28.9746 32.047 28.9626 32.1176 28.9425C32.2853 28.8766 32.4103 28.795 32.5704 28.6863C32.623 28.6612 32.6667 28.6537 32.7024 28.6537ZM18.7246 28.8766C18.7309 28.8766 18.7415 28.881 18.7496 28.8848C19.2431 29.1334 19.916 29.2891 20.2593 29.4342C20.4395 29.519 20.6333 29.6445 20.7728 29.6659C20.8303 29.6697 20.8303 29.6383 20.8016 29.6037C20.7647 29.5453 20.7278 29.4901 20.6909 29.4386C21.5389 29.8335 22.3244 30.2919 23.155 30.8432C23.1525 30.8501 23.1487 30.8564 23.1475 30.8633C23.1237 30.9343 23.0999 30.999 23.0762 31.0574C23.063 31.0906 23.0487 31.1277 23.0355 31.1566C23.0249 31.1817 23.013 31.2081 23.0024 31.2307C22.983 31.2727 22.963 31.3192 22.9448 31.355C22.9211 31.4008 22.8948 31.4548 22.8748 31.495C22.8685 31.5107 22.8617 31.5251 22.8548 31.5408C22.8416 31.5704 22.8273 31.5992 22.8185 31.6269C22.8116 31.647 22.8066 31.6652 22.801 31.6853C22.7985 31.6941 22.7947 31.7035 22.7935 31.7142C22.7879 31.7405 22.7866 31.7669 22.7841 31.7958C22.7829 31.8228 22.7829 31.8504 22.7841 31.8793C22.7866 31.9101 22.7879 31.9402 22.7935 31.9747C22.8035 32.0576 22.8273 32.0896 22.8548 32.1028C22.8629 32.1066 22.8748 32.1079 22.8842 32.1104C22.9036 32.1148 22.9417 32.121 22.9536 32.0896C22.963 32.0601 22.9774 32.0312 22.9905 32.0036C23.0036 31.9747 23.0155 31.9484 23.0318 31.9201C23.0618 31.8649 23.0974 31.8096 23.1343 31.755C23.1418 31.743 23.15 31.7298 23.1593 31.7179C23.2263 31.6231 23.3001 31.5321 23.3682 31.4379C23.3751 31.4285 23.3789 31.4209 23.3857 31.4128C23.4133 31.3719 23.4383 31.3299 23.4633 31.2884C23.4727 31.274 23.4827 31.2583 23.4921 31.2438C23.5158 31.2024 23.5396 31.1616 23.5577 31.1195L24.0887 31.5157C24.0005 31.7324 23.8873 32.0262 23.8542 32.2347C23.7923 32.7037 23.5052 32.5983 23.2907 32.4199C23.3038 32.9034 23.3407 33.1113 23.0724 33.5351C23.0368 33.596 23.0036 33.5747 22.9817 33.5351C22.3326 32.2786 21.7059 32.5782 20.8848 31.2394C20.811 31.0454 20.6715 30.8602 20.4026 30.7597C19.3907 30.3597 18.6677 30.0847 18.6915 28.9174C18.6927 28.8967 18.7033 28.8766 18.7246 28.8766ZM27.6504 33.073C27.6923 33.0755 27.7292 33.1113 27.7448 33.1558C27.9493 33.6186 28.2032 34.4324 28.1201 34.6955C27.8199 35.8509 27.0093 36.0424 26.2564 35.9432C25.6916 35.8691 25.6891 35.736 25.6797 35.3567C25.681 35.3153 25.7379 35.2996 25.7835 35.2864C26.4659 35.071 26.8761 34.698 26.8936 33.986C26.8974 33.8893 26.9093 33.7875 26.8605 33.7003C27.0512 33.5778 27.2276 33.451 27.4002 33.2921C27.4052 33.2871 27.4121 33.2814 27.4159 33.2751C27.4684 33.1916 27.5278 33.1245 27.6097 33.0805C27.6241 33.0755 27.6372 33.0717 27.6504 33.073ZM23.8579 33.1602C23.8804 33.1533 23.9005 33.1653 23.9242 33.1929C23.9411 33.2117 23.9649 33.2708 24.0187 33.2708C24.1106 33.3875 24.2388 33.488 24.3595 33.5766C24.3226 33.613 24.3001 33.6557 24.2857 33.7003C24.2476 33.8101 24.2544 33.9966 24.2857 34.1668C24.2988 34.2673 24.3332 34.3558 24.3845 34.4431C24.6309 34.828 24.806 35.0007 25.0837 35.1909C25.1994 35.2612 25.327 35.3222 25.4746 35.3077C25.5152 35.3021 25.539 35.3297 25.5321 35.3642C25.4877 35.9312 25.2307 35.9695 24.5821 35.8892C23.145 35.601 23.018 34.661 23.796 33.2419C23.8135 33.1916 23.8373 33.1665 23.8579 33.1602ZM25.7223 36.2276C25.9205 36.2232 26.1313 36.2301 26.3383 36.2565C26.3695 36.2628 26.3721 36.2891 26.3633 36.3105C26.3339 36.3884 26.247 36.4876 26.2026 36.5259C26.175 36.5472 26.1325 36.5554 26.0956 36.5667C25.9405 36.6081 25.6985 36.6263 25.656 36.6201C25.6178 36.6119 25.5797 36.5975 25.544 36.5749C25.4089 36.4982 25.2826 36.4097 25.1494 36.3281C25.1206 36.3055 25.1194 36.2709 25.1531 36.2659C25.3326 36.2483 25.5221 36.2326 25.7223 36.2276Z" fill="#0053A0"/>
<path fill-rule="evenodd" clip-rule="evenodd" d="M35.1008 14.2443C35.0927 14.2443 35.0846 14.2455 35.0758 14.248C33.4423 14.8446 31.4159 16.0313 30.3621 17.6061C29.9369 17.9502 29.501 18.2855 29.0494 18.58C29.9881 17.3273 28.1151 17.2444 25.8573 16.9983C24.3057 16.8652 22.4539 17.3524 21.851 17.6846C21.7966 17.716 21.7628 17.7782 21.806 17.8334C21.9742 18.0739 22.0261 18.3571 22.1256 18.6227C22.1393 18.6516 22.1112 18.6541 22.0893 18.6347C20.1249 16.869 17.1899 14.4873 16.2117 14.2524C16.1654 14.2443 16.1235 14.26 16.0998 14.3027C16.0304 14.449 16.0141 14.4917 15.9603 14.6367C15.9222 14.7648 15.8521 14.8446 15.8171 14.8797C15.2574 15.431 16.238 16.4646 16.3843 18.3546C16.4819 19.1527 16.6739 19.5106 16.8565 20.0594C16.8847 20.1335 16.9028 20.1969 16.9147 20.2704C17.1686 21.1507 17.3343 22.048 17.6714 22.8637C18.0729 24.1735 16.4988 23.9581 16.4344 25.0444C16.3975 25.7816 17.2593 26.186 17.1123 26.7254C17.1029 26.7593 17.0398 26.7963 17.0754 26.8403C17.739 27.5316 17.9954 27.3702 18.2637 27.9435C18.8866 29.0392 19.5633 27.8405 20.6909 29.4386C21.5389 29.8335 22.3244 30.2919 23.155 30.8432C23.2144 30.6567 23.2694 30.4257 23.3195 30.1243C23.4183 29.5284 23.3989 28.9268 23.0236 28.0955C22.9548 27.9743 22.9961 27.769 23.1181 27.6716C23.18 27.6252 23.2063 27.6069 23.2131 27.703C23.3182 28.8082 24.22 29.5535 23.6647 30.599C23.6447 30.6373 23.6209 30.6687 23.6278 30.7308C23.6397 30.8721 23.6109 30.999 23.5577 31.1195L24.0887 31.5157C24.1237 31.4297 24.1556 31.3575 24.1756 31.306C24.412 30.0778 24.5978 28.0955 24.7754 27.8487C24.7917 27.8248 24.811 27.7878 24.7754 27.7614C24.569 27.5473 24.337 27.1919 24.4427 27.0845C24.5559 26.9985 25.2151 27.266 25.2113 27.7457C25.1838 28.1752 24.7666 32.1518 24.2451 32.7132C24.22 32.742 24.2294 32.7621 24.2451 32.7835C24.4727 33.1056 24.4239 33.1854 24.3439 33.2262C24.2713 33.2538 24.12 33.2419 24.0518 33.267C24.0399 33.2708 24.028 33.2708 24.0187 33.2708C24.1106 33.3875 24.2388 33.488 24.3595 33.5766C24.432 33.505 24.5546 33.4522 24.7429 33.424C25.4783 33.2959 26.1801 33.3172 26.7173 33.5722C26.7892 33.6092 26.8342 33.6532 26.8605 33.7002C27.0512 33.5778 27.2276 33.451 27.4002 33.2921C27.3502 33.3291 27.2439 33.2934 27.2276 33.2086C26.933 31.5967 26.6185 31.3481 26.4327 30.1324C26.3577 29.7199 26.322 29.2879 26.3996 28.8923C26.4246 28.7642 26.4327 28.648 26.3996 28.5093C26.2933 28.1118 26.2995 27.6967 26.3883 27.303C26.4484 27.1705 26.6028 26.9935 26.7129 26.844C26.8042 26.7241 26.8686 26.5841 26.9187 26.4321C26.9699 26.2745 27.479 25.511 27.9137 25.3904C27.9506 25.381 27.9556 25.359 27.96 25.3245C27.9637 25.2862 27.8924 25.2849 27.898 25.2265C27.9137 24.9226 29.8168 25.0865 30.8187 25.1801C31.2002 25.1461 31.581 25.0865 31.9413 25.0193C32.0044 25.0074 32.0088 25.0294 31.9707 25.0695C31.6717 25.3998 31.2415 25.5807 30.8518 25.6309C30.778 25.6416 30.758 25.6824 30.7436 25.7383C30.521 26.8597 28.9049 27.4016 28.202 27.2698C28.157 27.2616 28.1557 27.2936 28.157 27.3162C28.2082 27.8908 27.9625 27.9492 27.7492 29.6288C27.7361 29.7224 27.7398 29.8059 27.7542 29.9007C27.7873 30.1732 27.8661 30.4319 27.9268 30.7189C28.9112 30.0765 30.0132 29.5522 31.0532 29.1196C31.2633 28.881 31.4716 28.665 31.6899 28.422C31.7505 28.3416 31.8675 28.2926 31.9782 28.2531C32.8062 27.904 33.6449 27.3608 34.274 26.6751C34.2922 26.6525 34.3303 26.6155 34.3184 26.5721C34.1264 25.6705 34.7187 25.4036 35.0914 24.7349C35.1477 24.6476 35.0871 24.625 35.0258 24.5936C34.6161 24.3342 34.2434 23.9763 33.957 23.6404C33.8894 23.5399 33.8606 23.4131 33.8369 23.3007C33.5404 21.9004 34.154 21.7981 34.2647 20.9881C34.2565 20.585 34.3647 20.1109 34.4911 19.6921C34.6399 19.2042 34.7068 18.808 34.8782 18.5354C34.9626 16.096 35.7168 16.6467 35.5111 15.3463C35.4573 15.0863 35.3203 14.6141 35.1571 14.2895C35.144 14.2587 35.124 14.2455 35.1008 14.2443ZM34.6361 14.7202C34.6493 14.7171 34.6637 14.719 34.6768 14.7202C34.7637 14.7265 34.8319 14.7912 34.8413 14.8722C34.8569 15.0304 34.8913 15.1761 34.9226 15.3224C34.361 16.6705 34.6874 18.521 33.9526 19.655C33.9157 20.6484 33.7919 21.2819 33.204 21.6782C33.1802 21.6964 33.1539 21.6939 33.1258 21.6782C32.1877 21.2179 31.349 20.2584 30.5304 19.5056C31.8043 18.673 30.6504 17.7983 31.5585 16.8426C32.6155 15.7217 33.5461 15.6106 34.5123 14.7767C34.553 14.7422 34.5949 14.724 34.6361 14.7202ZM16.3725 14.7899C16.4882 14.7912 16.6214 14.8533 16.7171 14.9463C17.6583 15.3594 17.5739 15.7374 18.3087 16.1079C18.4651 16.1895 18.7327 16.3365 18.9391 16.3836C19.0342 16.7145 19.1893 16.7051 19.5351 17.2972C19.6183 17.4422 19.9223 17.6802 19.9498 17.8786C19.971 18.003 19.9685 18.111 19.9592 18.2303C19.9498 18.5668 19.8116 18.8883 19.9961 19.039C20.1474 19.1169 20.0473 19.1935 20.3213 19.3323C20.4595 19.3995 20.5308 19.4685 20.457 19.6136C20.2381 19.9985 19.9698 20.3156 19.7253 20.6672C19.6615 20.7488 19.5683 20.8135 19.4738 20.8694C18.9429 21.189 18.502 21.6386 18.0254 22.0624C17.9954 22.0851 17.981 22.0624 17.9597 22.0549C17.5032 21.7943 17.3819 21.3397 17.3212 20.72C17.1636 19.0654 16.8328 20.4964 16.2774 15.5698C16.2023 15.3475 16.121 14.9513 16.1905 14.8602C16.238 14.8113 16.3012 14.7887 16.3725 14.7899ZM27.12 17.9986C26.6973 18.7854 26.4827 18.7113 26.2276 19.0189C26.2088 19.0403 26.1894 19.0667 26.1694 19.093C26.1513 19.1194 26.1313 19.147 26.1131 19.1791C26.0931 19.2105 26.0787 19.2387 26.0706 19.2663C26.0706 19.2676 26.0719 19.2688 26.0706 19.2701C26.0644 19.2965 26.06 19.326 26.0587 19.3492C26.0706 19.606 26.0287 19.7103 26.0956 19.795C26.1 19.8013 26.1025 19.8082 26.1038 19.8158C26.1075 19.8239 26.1075 19.8321 26.1088 19.8396C26.11 19.8572 26.1063 19.8742 26.1 19.8861C26.0525 19.856 25.9787 19.7988 25.9155 19.7423C25.8667 19.6983 25.8261 19.6575 25.8073 19.6217C25.8073 19.6205 25.8086 19.6192 25.8073 19.618C25.8023 19.606 25.7998 19.5941 25.7998 19.5847C25.7998 19.5583 25.7973 19.5414 25.7954 19.5263C25.7892 19.4673 25.7723 19.4761 25.7585 19.4114C25.7523 19.3787 25.7441 19.3272 25.7416 19.2375C25.7404 19.1935 25.7416 19.1382 25.7416 19.0717C25.7366 19.0296 25.7404 19.0083 25.751 18.9901C25.7548 18.9819 25.7604 18.9731 25.7667 18.9649C25.7735 18.9568 25.7798 18.9492 25.7879 18.9398C26.1694 18.5461 26.676 18.2855 27.12 17.9986ZM24.0768 18.094C24.4765 18.3665 24.9255 18.7307 25.3639 19.0968C25.3733 19.1075 25.3795 19.1181 25.3889 19.1301C25.4139 19.1684 25.4327 19.2136 25.4221 19.2701C25.3958 19.4365 25.3164 19.5966 25.2532 19.7655C25.2507 19.7737 25.2457 19.7775 25.2401 19.7831C25.2351 19.7869 25.2307 19.7925 25.2244 19.795C25.2113 19.8001 25.1957 19.7988 25.1875 19.7906C25.1087 19.6902 25.0231 19.5885 24.9518 19.4855C24.928 19.4541 24.903 19.4195 24.903 19.3775C24.9061 19.3442 24.9074 19.3109 24.9074 19.2833C24.9074 19.2544 24.9061 19.2293 24.903 19.2042C24.8967 19.1577 24.8823 19.1169 24.8623 19.0849C24.8611 19.0836 24.8623 19.0811 24.8623 19.0811C24.8204 19.0139 24.7479 18.9744 24.6322 18.9436C24.5371 18.916 24.4546 18.8739 24.3845 18.8249C24.3833 18.8237 24.382 18.8249 24.3808 18.8249C24.2782 18.7508 24.2044 18.6516 24.1544 18.5317C24.1544 18.5304 24.1506 18.5285 24.1506 18.5273C24.1006 18.4048 24.0781 18.2617 24.0768 18.094ZM29.3709 21.9595C29.4784 21.9544 29.5916 21.9676 29.7036 21.9927C29.8143 22.0179 29.925 22.0562 30.0194 22.1077C30.0488 22.1259 30.0563 22.1617 30.0238 22.1736C29.8656 22.2163 29.7048 22.2703 29.5429 22.335C29.4616 22.3664 29.3828 22.4022 29.2996 22.4379C28.8918 22.6188 28.4759 22.8448 28.0625 23.0539C28.0187 23.0721 27.99 23.0659 27.9712 23.0407C27.965 23.0313 27.96 23.0219 27.9556 23.0075C27.9462 22.9629 27.9481 22.9189 27.9518 22.8756C27.9543 22.8329 27.9625 22.7896 27.9637 22.7431C27.9675 22.6797 28.0069 22.6759 28.0294 22.6439C28.1069 22.6138 28.1726 22.5874 28.227 22.5623C28.389 22.4869 28.4547 22.4342 28.5097 22.3852C28.5478 22.3519 28.5822 22.3218 28.6298 22.2847C28.6785 22.2489 28.743 22.2081 28.848 22.1579C28.9112 22.129 28.9744 22.1026 29.0363 22.0744C29.0994 22.048 29.1614 22.0216 29.222 22.0003C29.2696 21.9752 29.3246 21.9607 29.3709 21.9595ZM21.3451 22.0455C21.3532 22.0455 21.3638 22.048 21.3701 22.0455C21.3963 22.0549 21.4176 22.0656 21.4364 22.0744C21.4545 22.0851 21.4676 22.0957 21.4808 22.1077C21.5295 22.1497 21.5496 22.1975 21.6746 22.2571C21.7047 22.2715 21.7441 22.2898 21.7891 22.3061C21.8347 22.3218 21.8892 22.3375 21.9536 22.3563C22.1087 22.4065 22.2194 22.4354 22.3232 22.475C22.3257 22.4762 22.3257 22.4788 22.3288 22.4788C22.4314 22.5202 22.5302 22.5704 22.6521 22.6571C22.6947 22.6866 22.7391 22.7211 22.7891 22.7607C22.8379 22.8002 22.8936 22.8448 22.9536 22.8963C22.9786 22.9164 23.0011 22.9296 23.0068 22.9666C23.008 22.9786 23.0068 22.9905 23.0024 23.0037V23.0075C22.9986 23.0206 22.993 23.0326 22.9867 23.0458C22.9711 23.0734 22.9498 23.0973 22.9286 23.1161C22.9211 23.1211 22.9142 23.1255 22.9079 23.128C22.9023 23.1293 22.8917 23.1293 22.8785 23.128C22.8391 23.1199 22.8079 23.1148 22.776 23.1029C22.7472 23.0922 22.7222 23.079 22.6984 23.0659C22.6734 23.0527 22.6521 23.0407 22.6328 23.025C22.6127 23.0087 22.5971 22.9918 22.579 22.9748C22.5421 22.9403 22.5039 22.9045 22.4551 22.8674C22.4326 22.8492 22.4076 22.8316 22.377 22.8134C22.3469 22.7959 22.3126 22.7776 22.2744 22.7607C22.235 22.7431 22.2037 22.7393 22.1718 22.7475C22.1612 22.7513 22.1493 22.7538 22.1393 22.7607C22.0968 22.7776 22.0574 22.7576 22.0155 22.7475C21.9836 22.7406 21.9479 22.7287 21.9129 22.7155C21.911 22.7142 21.9098 22.7155 21.9085 22.7155C21.6521 22.6138 21.3332 22.3626 21.3319 22.0624C21.3319 22.0574 21.335 22.0524 21.3363 22.0493C21.3388 22.048 21.3413 22.0455 21.3451 22.0455ZM21.8917 24.9201C21.9598 24.9201 22.0311 24.9239 22.1024 24.9276C22.1743 24.9345 22.2481 24.9408 22.3232 24.9527C22.3801 24.9622 22.4351 24.9741 22.4933 24.986C22.5114 24.991 22.5302 24.9942 22.5496 24.9992C22.584 25.0074 22.6184 25.0174 22.6521 25.0281C22.6972 25.04 22.7403 25.0532 22.7841 25.0695C22.8485 25.0915 22.9104 25.1154 22.9736 25.143C23.0286 25.1669 23.0843 25.1932 23.1381 25.2215C23.1919 25.2504 23.2463 25.2837 23.2988 25.3163C23.3432 25.3439 23.387 25.3735 23.4301 25.4036C23.4502 25.4168 23.4695 25.4262 23.4883 25.4406C23.5196 25.4645 23.5515 25.4896 23.5827 25.5147C23.5896 25.5198 23.5959 25.5254 23.6028 25.5317C23.6078 25.5361 23.6146 25.5398 23.6196 25.5436C23.629 25.5518 23.6397 25.5612 23.649 25.5687C23.6897 25.6045 23.7303 25.6453 23.771 25.6836C23.8242 25.7339 23.8742 25.7854 23.9242 25.8412C23.928 25.845 23.9317 25.8488 23.9374 25.8532C23.9818 25.9047 24.0237 25.9587 24.0687 26.0139C24.0937 26.0485 24.12 26.083 24.1462 26.1175C24.1675 26.1477 24.1869 26.174 24.2082 26.2048C24.2544 26.2733 24.2963 26.3448 24.3401 26.4202C24.357 26.4491 24.3701 26.4874 24.3689 26.5188C24.3676 26.5294 24.3651 26.5376 24.3595 26.5483C24.3188 26.6356 24.2938 26.7241 24.2738 26.8246C24.2713 26.839 24.2582 26.8509 24.2451 26.8534C24.24 26.8534 24.2319 26.8522 24.2282 26.8497C24.1569 26.8057 24.0912 26.7637 24.0268 26.7172C23.9649 26.6726 23.9067 26.6236 23.8504 26.5759C23.8492 26.5759 23.846 26.5772 23.846 26.5759C23.7885 26.5282 23.736 26.478 23.6816 26.4277C23.1987 25.98 22.8592 25.4934 22.2087 25.3628C22.2075 25.3615 22.2062 25.3628 22.205 25.3628C21.9142 25.3044 21.5652 25.3188 21.1111 25.4369C20.9598 25.4526 20.7922 25.4526 20.6215 25.4406C20.4501 25.4287 20.2762 25.4048 20.1105 25.3747C20.0304 25.3603 19.9473 25.3427 19.8722 25.3245C19.871 25.3245 19.8697 25.3257 19.8685 25.3245C19.7934 25.3069 19.7234 25.2862 19.659 25.2673C19.6565 25.2661 19.6552 25.2673 19.654 25.2673C19.5207 25.2278 19.4132 25.1857 19.3381 25.1474C19.6777 25.1537 20.0511 25.1499 20.3738 25.1355C20.6965 25.121 20.9648 25.0997 21.0936 25.0733C21.1374 25.052 21.1899 25.0337 21.2469 25.0149C21.2994 24.998 21.3601 24.9791 21.4232 24.9659C21.4282 24.9647 21.4351 24.9659 21.4401 24.9659C21.4964 24.954 21.5558 24.944 21.6202 24.937C21.6309 24.9358 21.639 24.9333 21.6496 24.9333C21.7272 24.9251 21.8072 24.9214 21.8917 24.9201ZM29.0613 25.4739C28.7742 25.4909 28.4597 25.6008 28.1032 25.9109C27.5634 26.4434 27.1094 27.1059 26.7617 27.7325C26.721 27.8091 26.7079 27.8788 26.7248 27.9598C27.12 29.7858 27.2895 30.695 27.3633 31.1773L27.6229 30.9619C27.4671 30.5224 27.3871 29.9905 27.4409 29.3513C27.6279 28.8622 27.7254 28.2845 27.8111 27.7325C28.095 27.1272 28.1244 26.8704 28.399 26.8867C28.6454 26.8999 28.9006 26.9118 29.1313 26.8616C29.2208 26.844 29.2946 26.8082 29.3746 26.758C29.763 26.5232 30.0945 26.2048 30.3778 25.845C30.4122 25.808 30.4328 25.7289 30.4147 25.6931C30.404 25.6654 30.3872 25.651 30.3528 25.651C29.9444 25.6761 29.5416 25.4457 29.0613 25.4739ZM28.93 25.5185C29.0063 25.5172 29.0851 25.5342 29.1601 25.565C29.3115 25.6246 29.4222 25.7408 29.4816 25.8783C29.5116 25.948 29.5285 26.0208 29.5316 26.0974C29.5328 26.174 29.5197 26.2532 29.4891 26.3285C29.4591 26.4039 29.4153 26.4685 29.3615 26.5232C29.2008 26.6858 28.9493 26.7448 28.7242 26.655C28.686 26.6393 28.6504 26.6236 28.6179 26.601C28.5847 26.5797 28.5585 26.5533 28.5309 26.5269C28.369 26.3656 28.3096 26.1175 28.399 25.8915C28.4109 25.8607 28.424 25.8343 28.4403 25.808C28.4428 25.8055 28.4465 25.8029 28.449 25.7998C28.4559 25.7885 28.4609 25.7778 28.469 25.7672C28.4847 25.7458 28.5022 25.7276 28.5191 25.7088L28.5347 25.6931C28.5597 25.6679 28.5847 25.6428 28.6141 25.6227C28.636 25.6058 28.6623 25.5938 28.6873 25.5807C28.6917 25.5794 28.6954 25.5794 28.6992 25.5769C28.7073 25.5744 28.7123 25.5675 28.7204 25.565C28.7523 25.5518 28.7849 25.5424 28.8193 25.5361C28.8549 25.5279 28.8931 25.5198 28.93 25.5185ZM22.3657 25.5279C22.442 25.5254 22.5152 25.5386 22.5921 25.5687C22.6284 25.5832 22.6653 25.6008 22.6984 25.6227C22.7316 25.6441 22.7578 25.6692 22.7841 25.6968C22.8129 25.7251 22.8366 25.7515 22.8592 25.7829C22.9011 25.8463 22.933 25.9166 22.9498 25.9907C22.9736 26.0999 22.9655 26.2193 22.9211 26.3329C22.9048 26.3712 22.8879 26.4026 22.8667 26.4359C22.8667 26.4371 22.8685 26.4384 22.8667 26.4397C22.7816 26.569 22.6471 26.6563 22.5008 26.6883C22.427 26.704 22.3507 26.7053 22.2744 26.6921C22.2363 26.6858 22.1969 26.6739 22.16 26.6594C22.1218 26.6431 22.0849 26.6261 22.0524 26.6048C21.988 26.5627 21.9348 26.5068 21.8917 26.4434C21.786 26.2877 21.7559 26.0843 21.831 25.8952C21.8454 25.8582 21.8666 25.8237 21.8879 25.7923C21.9073 25.7615 21.9261 25.7339 21.9492 25.7088C21.9548 25.7037 21.9611 25.7012 21.9667 25.6968C21.9917 25.6717 22.0155 25.6453 22.0443 25.6271C22.068 25.6095 22.093 25.5976 22.1181 25.5844C22.1193 25.5844 22.1206 25.5819 22.1218 25.5807C22.1456 25.57 22.1718 25.565 22.1969 25.5568C22.2206 25.5493 22.2456 25.5398 22.2706 25.5361H22.2788C22.3063 25.5304 22.3363 25.5279 22.3657 25.5279ZM20.4976 25.8161C20.512 25.8161 20.5276 25.8186 20.5427 25.8212C20.5452 25.8212 20.5489 25.8199 20.5514 25.8212C20.5777 25.8237 20.6039 25.8331 20.6333 25.845C20.6646 25.8582 20.6978 25.8739 20.7322 25.8952C20.7672 25.9166 20.8041 25.9405 20.8441 25.9693L20.8554 25.9775C20.8898 26.0039 20.9242 26.0303 20.9623 26.0604C21.003 26.0924 21.0411 26.12 21.0861 26.1558C21.1687 26.2205 21.26 26.2915 21.3569 26.3618C21.4057 26.3976 21.4557 26.4302 21.5095 26.4648C21.5508 26.4911 21.5927 26.5219 21.6377 26.5483C21.6559 26.559 21.6759 26.569 21.694 26.5797C21.7453 26.6092 21.7997 26.6368 21.8548 26.6632C21.9085 26.6896 21.9655 26.7134 22.023 26.7373C22.0418 26.7448 22.0586 26.7555 22.0774 26.7624C22.1349 26.7844 22.1956 26.802 22.2575 26.8202C22.3313 26.8415 22.4064 26.8629 22.4839 26.8786C22.5627 26.893 22.6434 26.9037 22.7272 26.91C22.8116 26.9181 22.8998 26.9231 22.9905 26.9231C23.008 26.9231 23.0211 26.9275 23.0318 26.9351C23.0418 26.942 23.0499 26.9514 23.0524 26.9684C23.0549 27.1109 22.9248 27.1611 22.7841 27.1705C22.7009 27.1718 22.6184 27.1693 22.5339 27.1668C22.2863 27.1599 22.0405 27.1404 21.7928 27.1002C21.7666 27.0977 21.7441 27.0914 21.719 27.0808C21.6953 27.0701 21.6746 27.0556 21.6496 27.0387C21.5733 26.9866 21.4926 26.9275 21.4113 26.8616C21.3294 26.7951 21.2519 26.7266 21.1768 26.6594C21.0993 26.5904 21.028 26.5269 20.9661 26.4685C20.9054 26.412 20.8572 26.363 20.8228 26.3285C20.7872 26.2971 20.7597 26.2707 20.7359 26.2456C20.7134 26.2218 20.694 26.1979 20.6777 26.1797C20.6477 26.1426 20.6346 26.1175 20.6177 26.0937C20.6083 26.0817 20.5989 26.0711 20.5883 26.0604C20.5558 26.0259 20.5026 25.9888 20.3832 25.9241C20.3688 25.9179 20.3594 25.9122 20.3582 25.9034C20.3569 25.8978 20.3569 25.894 20.3619 25.8871C20.3663 25.8808 20.37 25.8726 20.3775 25.8664C20.3907 25.8557 20.4069 25.8475 20.4201 25.8412C20.432 25.8343 20.4438 25.8281 20.457 25.8249C20.4701 25.8212 20.4832 25.8174 20.4976 25.8161Z" fill="#FDBE11"/>
</g>
<defs>
<clipPath id="clip0_1_3309">
<rect width="51.2" height="51.2" fill="white"/>
</clipPath>
</defs>
</svg>
