<svg width="21" height="39" viewBox="0 0 28 52" fill="none" xmlns="http://www.w3.org/2000/svg">
<path d="M19.7931 51.2C19.6273 51.1714 19.4615 51.1486 19.2985 51.1143C18.2063 50.8913 17.24 50.4281 16.5166 49.5589C15.9133 48.8327 15.5874 47.9893 15.5274 47.0286C15.4702 46.1566 15.5903 45.3246 15.9534 44.5412C16.4794 43.409 17.3543 42.6456 18.538 42.2568C19.5901 41.908 20.6652 41.8908 21.7487 42.1253C22.0747 42.1968 22.3978 42.2682 22.7237 42.3369C22.8095 42.354 22.8495 42.3912 22.8581 42.4855C22.9038 43.003 22.9553 43.5177 23.0125 44.0323C23.021 44.1181 23.0039 44.181 22.921 44.1953C22.8752 44.2038 22.8066 44.1724 22.7723 44.1352C22.3635 43.7064 21.9146 43.3347 21.3399 43.1546C20.6966 42.9544 20.0447 42.8372 19.3786 43.0402C18.2721 43.3776 17.5602 44.1381 17.2657 45.2274C16.8854 46.6341 17.117 47.955 18.0577 49.1072C18.5151 49.6676 19.1413 49.9363 19.8446 50.0107C20.5651 50.0879 21.2684 50.0135 21.926 49.679C22.272 49.5046 22.5807 49.2759 22.8438 48.9871C22.8695 48.9585 22.8867 48.9242 22.9038 48.9013C23.0325 48.9442 23.0582 49.0043 23.0439 49.1129C22.9925 49.5332 22.9467 49.9535 22.9153 50.3766C22.9038 50.5339 22.8581 50.6111 22.7008 50.6682C21.946 50.9513 21.1769 51.1343 20.3707 51.1657C20.3507 51.1657 20.3335 51.1829 20.3135 51.1943C20.1362 51.2 19.9647 51.2 19.7931 51.2Z" fill="#E51B24"/>
<path d="M6.38116 10.8411C6.50982 10.8468 6.64134 10.8468 6.77286 10.864C7.09594 10.9069 7.32466 11.1099 7.53052 11.3357C7.59628 11.4072 7.65632 11.4301 7.73923 11.39C7.94794 11.2843 8.15666 11.1756 8.3568 11.0727C8.43113 11.39 8.04515 11.9361 7.5248 12.1363C7.18457 12.2678 6.86721 12.1992 6.5813 11.9905C6.30683 11.7903 6.15815 11.4958 6.02092 11.187C5.92943 11.2557 5.84937 11.3214 5.7636 11.3815C5.60921 11.4901 5.48341 11.5902 5.53487 11.8303C5.58634 12.0705 5.43766 12.2764 5.2604 12.4422C5.18606 12.5137 5.10029 12.5766 5.02309 12.648C4.79151 12.8596 4.60853 13.0912 4.76578 13.4314C4.23399 13.5172 3.83085 13.0798 3.91949 12.5308C3.97095 12.2163 4.17109 12.0105 4.40839 11.8389C4.63426 11.6731 4.883 11.5444 5.1203 11.3929C5.28327 11.2871 5.44338 11.1756 5.60063 11.0612C5.64352 11.0298 5.67497 10.9812 5.72357 10.9269C5.50914 10.8354 5.32902 10.9269 5.16033 10.9898C4.97449 11.0584 4.8058 11.1699 4.62854 11.2614C4.1911 11.4844 3.75366 11.4901 3.32479 11.2471C3.16754 11.1585 3.10464 11.0098 3.14467 10.8411C3.45345 11.0155 3.70791 10.8354 3.97095 10.7096C4.12534 10.6352 4.27401 10.5466 4.43126 10.4809C4.94304 10.2693 5.42337 10.3036 5.85509 10.6838C5.86939 10.6953 5.88368 10.7039 5.92943 10.7353C6.11241 10.4608 6.29253 10.1892 6.48409 9.8976C6.3783 9.85471 6.29825 9.82898 6.22391 9.79181C6.141 9.74893 6.04951 9.70604 5.98947 9.64028C5.9523 9.5974 5.94372 9.50591 5.95802 9.44301C5.96374 9.41441 6.05523 9.39726 6.10955 9.39154C6.26108 9.37725 6.41261 9.37439 6.56414 9.36581C6.64992 9.36009 6.70424 9.32864 6.72139 9.23429C6.77286 8.97983 6.83004 8.72823 6.89008 8.44804C6.25822 8.4652 5.72071 8.64818 5.14889 8.88834C5.1832 8.76826 5.1975 8.67391 5.23181 8.58528C5.37762 8.21932 5.65781 7.98201 6.00662 7.82476C6.24964 7.71612 6.50124 7.6332 6.76428 7.53313C6.73569 7.25008 6.57558 7.0185 6.42119 6.78405C6.61275 6.74688 6.79573 6.70686 6.98157 6.68398C7.01874 6.67827 7.09022 6.71829 7.10451 6.75546C7.18743 6.95274 7.25319 7.15573 7.33324 7.35301C7.35039 7.39304 7.39614 7.45022 7.42473 7.45022C7.77068 7.44164 8.11663 7.42449 8.45686 7.40733C8.46544 7.38732 8.47688 7.37588 8.47402 7.37017C8.32534 7.03279 8.47974 6.78977 8.86857 6.59535C9.16878 6.44668 9.49471 6.45812 9.82065 6.46669C10.7098 6.49243 11.5332 6.79835 12.3624 7.06424C13.1143 7.30441 13.8605 7.55601 14.6468 7.66465C15.0728 7.72469 15.4731 7.66179 15.8133 7.37874C15.8591 7.34157 15.8848 7.28153 15.922 7.23579C15.942 7.2072 15.9706 7.15859 15.9877 7.16145C16.0249 7.16717 16.0706 7.19576 16.0849 7.22721C16.1078 7.27582 16.1192 7.33872 16.1164 7.39304C16.0992 7.62462 16.0163 7.82476 15.8476 7.99059C15.4845 8.35083 15.0271 8.49379 14.541 8.56526C14.1236 8.62531 13.7062 8.61101 13.2944 8.51952C13.203 8.49951 13.1057 8.50808 13.0114 8.51094C12.9885 8.51094 12.9542 8.53667 12.9514 8.55669C12.9485 8.5767 12.9742 8.60243 12.9885 8.62531C12.9942 8.63102 13.0057 8.63388 13.0143 8.6396C13.689 8.93695 14.0264 9.85185 13.8977 10.5809C13.8091 11.087 13.5947 11.533 13.2773 11.9247C12.7912 12.528 12.2909 13.1227 11.782 13.7059C11.1644 14.415 10.5669 15.1326 10.1466 15.9817C9.77204 16.7394 9.54904 17.5399 9.6005 18.3977C9.61765 18.6607 9.65482 18.9295 9.72058 19.1839C9.75489 19.324 9.84638 19.4613 9.94359 19.5699C10.0894 19.73 10.2495 19.7186 10.4039 19.5642C10.6326 19.3355 10.7499 19.041 10.8299 18.7379C11.0729 17.843 11.2759 16.9395 11.5447 16.0532C11.8249 15.1212 12.2852 14.2806 12.9285 13.5372C13.6175 12.7395 14.4352 12.0877 15.2158 11.3929C16.0392 10.6581 16.8883 9.94906 17.6631 9.16567C18.7868 8.03061 19.7731 6.77548 20.4793 5.32878C20.7653 4.74266 21.0226 4.14225 21.1141 3.49038C21.1884 2.96145 21.0826 2.45825 20.8081 1.99508C20.7795 1.94647 20.7481 1.85498 20.7681 1.83497C20.8081 1.7978 20.8825 1.78351 20.9454 1.78065C21.0054 1.78065 21.0683 1.7978 21.1226 1.82353C21.8546 2.17806 22.3063 2.72701 22.3349 3.5733C22.3692 4.58827 22.049 5.50032 21.5429 6.36091C20.9454 7.37874 20.1934 8.28222 19.3815 9.13422C18.3865 10.1778 17.2486 11.0584 16.1593 11.9933C15.4845 12.5737 14.8126 13.157 14.2151 13.8174C13.3173 14.8038 12.7226 15.9531 12.3367 17.2226C12.1794 17.7401 12.025 18.2604 11.8506 18.7722C11.6133 19.467 11.2159 20.0359 10.5326 20.3647C10.4811 20.3905 10.4611 20.4819 10.4268 20.542C10.4925 20.5677 10.5612 20.6192 10.6212 20.6135C11.0901 20.562 11.4703 20.3218 11.8106 20.0131C12.3881 19.4898 12.7169 18.8151 12.9714 18.0946C13.12 17.6772 13.2887 17.2655 13.4517 16.848C13.7347 16.1218 14.2122 15.5414 14.8298 15.084C15.6017 14.5122 16.3908 13.9632 17.1771 13.4114C18.4094 12.548 19.6302 11.6702 20.7281 10.6381C23.0468 8.45376 24.7308 5.86343 25.6857 2.80992C25.9345 2.01509 26.1461 1.21169 26.2032 0.376835C26.209 0.302498 26.1947 0.222444 26.2061 0.148107C26.2147 0.0966438 26.2347 0.0308848 26.2747 0.00515298C26.3005 -0.0120016 26.3834 0.0165893 26.412 0.0480393C26.5463 0.199571 26.6893 0.351102 26.7951 0.522647C27.2582 1.27745 27.3269 2.07513 27.0695 2.92142C26.8037 3.7963 26.4148 4.61114 25.9802 5.40883C24.6022 7.93055 22.7552 10.0577 20.5308 11.8675C19.31 12.8596 17.9919 13.7088 16.6768 14.5665C16.4423 14.7209 16.2107 14.8781 15.9791 15.0382C15.9391 15.0668 15.9191 15.1212 15.8905 15.1669C15.9505 15.1755 16.0134 15.2041 16.0649 15.1898C16.7997 14.9811 17.4859 14.658 18.1721 14.332C18.355 14.2463 18.4494 14.3006 18.4551 14.5065C18.4665 14.9439 18.255 15.287 17.9519 15.57C17.4344 16.0475 16.8111 16.3448 16.1621 16.5907C15.8819 16.6965 15.5989 16.788 15.3158 16.8909C15.2529 16.9138 15.1957 16.9538 15.1386 16.9881C15.1414 17.0053 15.1414 17.0196 15.1443 17.0367C15.2043 17.0482 15.2644 17.0796 15.3215 17.0711C16.2822 16.931 17.2028 16.6565 18.1006 16.2962C18.1663 16.2705 18.2778 16.2534 18.3179 16.2877C18.3636 16.3277 18.3808 16.4392 18.3608 16.5078C18.2864 16.7937 18.1235 17.031 17.9004 17.2283C17.5345 17.5514 17.0999 17.7544 16.6424 17.9059C16.1936 18.0574 15.7333 18.1718 15.2787 18.309C15.2215 18.3262 15.1729 18.3719 15.1328 18.4291C16.1507 18.5492 17.1142 18.2576 18.1006 18.1032C18.1606 18.3062 18.0577 18.4463 17.9548 18.5892C17.3772 19.3926 16.5109 19.6185 15.6046 19.7643C15.4788 19.7843 15.3473 19.7815 15.2215 19.8043C15.1757 19.8129 15.1357 19.8615 15.0928 19.893C15.1328 19.9187 15.1671 19.9587 15.2129 19.9702C15.8219 20.0988 16.4394 20.0988 17.0599 20.0645C17.1085 20.0617 17.1542 20.0531 17.2028 20.0559C17.2543 20.0617 17.3429 20.0674 17.3486 20.0931C17.3629 20.1446 17.3544 20.2275 17.32 20.2647C17.1542 20.4534 16.997 20.6564 16.8026 20.8107C16.3251 21.1824 15.759 21.3197 15.1672 21.3683C15.1328 21.3711 15.0985 21.3654 15.0671 21.374C15.0328 21.3854 15.0013 21.4112 14.967 21.4312C14.987 21.4655 14.9985 21.5141 15.0299 21.5312C15.2386 21.6456 15.4445 21.7657 15.6618 21.8572C17.0656 22.449 18.5294 22.7263 20.0533 22.692C20.1019 22.692 20.182 22.7149 20.1934 22.7492C20.2077 22.7892 20.1791 22.8636 20.1448 22.895C19.4729 23.5383 18.701 24.0101 17.7575 24.093C17.0913 24.153 16.4423 24.0072 15.8162 23.7756C14.9556 23.4583 14.2094 22.9579 13.5346 22.3461C13.3173 22.1488 13.12 21.9286 12.9056 21.7257C12.8656 21.6885 12.797 21.6799 12.7398 21.657C12.7255 21.7228 12.6797 21.8028 12.7055 21.8486C12.8627 22.1288 13.0171 22.4147 13.203 22.6749C13.7205 23.3896 14.3838 23.9643 15.0442 24.539C15.6446 25.0593 16.2479 25.574 16.8254 26.1229C17.7947 27.0407 18.3493 28.1872 18.5523 29.5024C18.6695 30.26 18.6295 31.012 18.3893 31.7439C18.3665 31.8154 18.3322 31.884 18.2864 31.944C18.2635 31.9755 18.1921 32.0069 18.1721 31.9926C18.1377 31.9698 18.112 31.9126 18.112 31.8697C18.1149 31.7182 18.1377 31.5666 18.1377 31.4151C18.1463 30.0084 17.686 28.7762 16.7225 27.7583C16.0992 27.0979 15.4302 26.4832 14.7726 25.8542C14.1407 25.2509 13.5232 24.6419 13.0371 23.91C12.6168 23.2781 12.3052 22.5891 12.0422 21.88C12.0221 21.8257 11.9707 21.7828 11.9335 21.7314C11.9021 21.7943 11.8334 21.8629 11.842 21.9201C11.8906 22.266 11.9249 22.6205 12.0193 22.9551C12.2509 23.7699 12.7055 24.4675 13.2373 25.1137C14.0321 26.0743 14.9298 26.9292 15.8962 27.7154C15.9591 27.7669 15.9877 27.8098 15.9734 27.9041C15.7618 29.308 16.0134 30.6088 16.8369 31.7839C17.0684 32.1156 17.3658 32.3815 17.6889 32.6188C17.7461 32.6617 17.7975 32.7103 17.8919 32.7875C17.7718 32.8389 17.6803 32.9018 17.5831 32.9133C17.1828 32.9619 16.8111 32.8418 16.4537 32.676C16.2908 32.6016 16.1421 32.4987 15.9591 32.3958C15.9734 32.5788 15.9791 32.7503 15.9963 32.919C16.1221 34.2027 16.3394 35.4721 16.6796 36.7187C16.814 37.2162 16.9827 37.708 17.1685 38.1911C17.423 38.8573 17.7861 39.026 18.5952 39.0146C18.9412 39.0088 19.29 39.006 19.6331 39.0403C19.7989 39.0574 19.9704 39.1404 20.1191 39.2261C20.365 39.3691 20.4307 39.6064 20.3192 39.8666C20.2249 40.0896 20.0533 40.2468 19.8532 40.3726C19.7617 40.4298 19.696 40.4212 19.6273 40.3069C19.4501 40.0238 19.1556 39.9238 18.8468 39.8637C17.7975 39.6636 16.7368 39.6464 15.6789 39.7351C15.2158 39.7722 14.7526 39.838 14.298 39.9238C14.0921 39.9609 13.8977 40.0696 13.709 40.1639C13.4917 40.2726 13.3373 40.4412 13.3316 40.7071C13.0857 40.71 12.8827 40.6357 12.7884 40.4069C12.614 39.9752 12.9285 39.7694 13.2344 39.5692C13.2001 39.5406 13.1858 39.5178 13.1715 39.5178C12.857 39.5092 12.5511 39.5378 12.2938 39.7436C12.2194 39.8037 12.1508 39.8894 12.1136 39.9752C12.0708 40.0781 12.0193 40.0753 11.9392 40.0381C11.7334 39.9438 11.659 39.5978 11.802 39.3719C12.0107 39.0432 12.3224 38.9316 12.6969 38.9602C12.7769 38.966 12.857 38.9602 12.9342 38.9602C12.9428 38.9459 12.9514 38.9374 12.9514 38.9316C12.8599 38.5314 13.1115 38.3684 13.446 38.3541C13.7205 38.3398 14.0064 38.3827 14.2751 38.4485C14.6439 38.5371 14.9985 38.6743 15.3644 38.7801C15.4874 38.8173 15.616 38.8316 15.7418 38.843C15.9019 38.8545 16.0249 38.7229 16.002 38.5657C15.9906 38.4885 15.9677 38.4056 15.9305 38.337C15.3816 37.3105 15.0013 36.2184 14.6868 35.1005C14.4266 34.1741 14.2379 33.2335 14.1093 32.2814C14.1036 32.2414 14.0893 32.2042 14.0978 32.2042C13.9234 32.3557 13.7548 32.513 13.5718 32.6531C13.3917 32.7875 13.1972 32.9018 12.9799 33.0448C12.9799 32.9704 12.9714 32.939 12.9799 32.9161C13.3145 32.0441 13.303 31.1578 13.0886 30.2657C13.0285 30.0113 12.9456 29.7626 12.8599 29.5167C12.8427 29.4681 12.7712 29.4137 12.7198 29.408C11.0472 29.1936 9.43467 28.7647 7.87361 28.1243C6.8186 27.684 5.83508 27.1379 4.97163 26.3888C3.73364 25.3195 2.99028 23.9815 2.81302 22.3518C2.67292 21.0623 2.90165 19.8329 3.45917 18.6521C4.09389 17.2998 5.05454 16.219 6.18103 15.2698C7.06163 14.5265 7.96796 13.8146 8.85142 13.0798C9.28886 12.7138 9.71772 12.3364 10.0551 11.8675C10.2552 11.5902 10.4153 11.2928 10.4496 10.9469C10.524 10.1921 10.0122 9.60026 9.24883 9.5345C8.82854 9.49733 8.42827 9.60311 8.02228 9.68317C7.72779 9.74035 7.43331 9.78896 7.13596 9.83184C7.04161 9.84614 6.99015 9.88616 6.93869 9.96622C6.76142 10.2578 6.56986 10.5466 6.38116 10.8411ZM11.0329 26.1887C11.0501 26.1658 11.0672 26.1401 11.0844 26.1172C11.0386 26.0943 10.99 26.0743 10.9471 26.0457C10.8413 25.9743 10.7356 25.8999 10.6298 25.8284C9.88355 25.3224 9.22024 24.7277 8.66844 24.0129C8.29104 23.524 8.01084 22.9808 7.78498 22.4061C7.37613 21.3625 7.18171 20.2847 7.3218 19.1668C7.46476 18.0374 7.87647 16.9996 8.47974 16.0361C8.51976 15.9703 8.53406 15.8845 8.55979 15.8102C8.48259 15.8416 8.39396 15.8588 8.33106 15.9074C7.74209 16.3934 7.27034 16.9767 6.88436 17.6372C6.18389 18.8265 5.9523 20.0931 6.21534 21.4512C6.49553 22.8922 7.26176 24.0186 8.39968 24.9193C9.13733 25.5025 9.97218 25.8885 10.8556 26.1858C10.91 26.2058 10.9729 26.1887 11.0329 26.1887ZM7.35039 9.28004C7.41329 9.27146 7.48477 9.26574 7.55053 9.25145C7.88219 9.18569 8.2167 9.12851 8.50261 8.93123C8.5941 8.86833 8.69131 8.77112 8.63984 8.65961C8.60268 8.57956 8.49403 8.49665 8.40826 8.48521C8.11377 8.44232 7.81643 8.42803 7.53338 8.4023C7.47048 8.71394 7.41329 8.99127 7.35039 9.28004ZM10.9185 7.9477C10.8671 7.91053 10.8471 7.8848 10.8242 7.88194C10.3753 7.79045 9.92358 7.69896 9.4747 7.61033C9.39179 7.59317 9.35462 7.64178 9.34032 7.71897C9.28028 8.01918 9.47184 8.22789 9.79778 8.17643C10.1609 8.11925 10.5183 8.03062 10.9185 7.9477Z" fill="#E51B24"/>
<path d="M9.18019 40.364C9.24309 40.1524 9.13444 40.0524 8.98577 39.9695C8.697 39.8036 8.37964 39.7464 8.05657 39.7179C6.95582 39.6149 5.85221 39.6378 4.75146 39.7236C4.43982 39.7464 4.13103 39.8151 3.82797 39.8951C3.66214 39.938 3.50775 40.0352 3.3648 40.1324C3.21327 40.2354 3.13893 40.3869 3.19611 40.5899C2.97596 40.627 2.79012 40.5784 2.63859 40.4241C2.48992 40.2725 2.4842 40.0981 2.56711 39.9094C2.66146 39.6921 2.82729 39.552 3.02743 39.4405C3.08461 39.4091 3.13607 39.3719 3.19611 39.3347C2.87303 39.106 2.07821 39.4177 1.74941 39.8865C1.56643 39.8208 1.46922 39.6864 1.44921 39.4977C1.42633 39.2861 1.49781 39.1117 1.67508 38.9945C1.88951 38.8544 2.12967 38.8087 2.38127 38.8029C2.52708 38.8001 2.67576 38.8029 2.79012 38.8029C2.83015 38.6714 2.83587 38.5228 2.9102 38.4341C3.05888 38.2597 3.2876 38.2254 3.50775 38.2025C3.83083 38.1711 4.12246 38.2855 4.4198 38.3884C4.63995 38.4656 4.8601 38.5371 5.08883 38.5828C5.43764 38.6514 5.74642 38.5656 5.95228 38.2569C6.15813 37.9481 6.34683 37.6307 6.54697 37.3162C7.53621 35.7637 8.37107 34.1369 9.00293 32.4072C9.09728 32.1527 9.16875 31.8925 9.24881 31.6324C9.25453 31.6152 9.25167 31.5952 9.25739 31.5466C8.74561 31.9497 8.2567 32.3557 7.5648 32.37C8.07372 31.2035 8.33962 29.9941 8.42539 28.7218C9.36317 29.165 10.3067 29.5509 11.3331 29.6767C11.416 30.8375 11.6104 31.944 12.2623 32.9189C12.2566 32.9332 12.2537 32.9475 12.248 32.9618C12.1279 32.939 12.0021 32.9304 11.8906 32.8875C11.5504 32.7531 11.2559 32.5473 10.9843 32.3042C10.9557 32.2785 10.93 32.2556 10.9042 32.2328C10.8442 32.5415 10.7956 32.8503 10.7184 33.1505C10.5583 33.7767 10.2238 34.3199 9.84922 34.8374C9.01722 35.9953 8.18237 37.1533 7.35037 38.3112C7.30177 38.3798 7.25602 38.457 7.22743 38.5342C7.17311 38.6972 7.23601 38.8087 7.40469 38.8401C7.50762 38.8601 7.61341 38.8601 7.71634 38.8601C8.21096 38.8601 8.70558 38.8001 9.19163 38.9345C9.25453 38.9516 9.32029 38.9716 9.38033 38.9974C9.68911 39.1232 9.83206 39.3176 9.82063 39.5921C9.80633 39.9266 9.58618 40.2525 9.31171 40.3383C9.28312 40.3526 9.24309 40.3526 9.18019 40.364Z" fill="#E51B24"/>
<path d="M10.5668 45.8649C11.3702 45.8992 12.1479 45.8363 12.7655 45.2045C12.8741 45.2445 12.9084 45.3246 12.9084 45.4446C12.9027 46.0651 12.9027 46.6826 12.9084 47.303C12.9084 47.4117 12.8627 47.4489 12.7798 47.4917C12.6854 47.5432 12.6711 47.4546 12.6225 47.426C12.4453 47.3173 12.2766 47.183 12.0879 47.1115C11.6104 46.9342 11.1129 46.8656 10.584 46.8885C10.584 46.9485 10.584 47.0028 10.584 47.0572C10.584 47.9235 10.5926 48.7898 10.5811 49.6561C10.5725 50.1135 10.7755 50.4566 11.0786 50.7654C11.1329 50.8197 11.1844 50.8569 11.1472 50.9541C11.1101 51.0485 11.0529 51.0542 10.9728 51.0542C10.1637 51.0513 9.35457 51.0542 8.54545 51.0513C8.49684 51.0513 8.43109 51.0199 8.40249 50.9798C8.35389 50.9169 8.37676 50.8598 8.4368 50.7969C8.8142 50.4166 8.97145 49.942 9.02578 49.4216C9.04865 49.2101 9.05151 48.9928 9.05151 48.7812C9.05437 47.1429 9.05723 45.5047 9.04865 43.8664C9.04579 43.409 8.95716 42.9658 8.6884 42.5827C8.60549 42.4655 8.49113 42.3654 8.38248 42.2453C8.41107 42.1738 8.44538 42.1052 8.57118 42.1052C10.1179 42.1081 11.6647 42.1081 13.2115 42.1081C13.2401 42.1081 13.2687 42.1109 13.2944 42.1138C13.3373 42.5198 13.383 42.9201 13.4259 43.3203C13.4374 43.429 13.4431 43.5405 13.4631 43.6463C13.4802 43.7435 13.4316 43.7949 13.3544 43.8121C13.3144 43.8207 13.2515 43.7921 13.2172 43.7606C12.9284 43.5005 12.5711 43.3832 12.2079 43.286C11.7019 43.1545 11.1844 43.1316 10.6669 43.1116C10.6011 43.1088 10.5582 43.1173 10.5582 43.2003C10.5582 44.0751 10.5525 44.9529 10.5497 45.8278C10.5468 45.8363 10.5554 45.8449 10.5668 45.8649Z" fill="#E51B24"/>
<path d="M2.28978 49.9478C3.46487 50.0107 4.48842 49.6762 5.37188 48.9156C5.49196 48.9785 5.51484 49.0529 5.46623 49.1872C5.25466 49.7562 5.05738 50.3309 4.8601 50.9084C4.8258 51.0114 4.77719 51.0457 4.66855 51.0457C3.17038 51.0428 1.66936 51.0428 0.171195 51.0428C0.108295 51.0428 0.0425357 51.0571 0.0110857 50.9685C-0.0203643 50.8827 0.0196629 50.8427 0.0739856 50.7855C0.431372 50.4167 0.608636 49.9563 0.682972 49.4589C0.72014 49.2158 0.72014 48.9671 0.72014 48.7212C0.722999 47.0544 0.722999 45.3875 0.72014 43.7207C0.72014 43.2003 0.56289 42.7286 0.231236 42.3226C0.205504 42.2911 0.182631 42.2196 0.199785 42.1911C0.225517 42.1482 0.288417 42.0996 0.334163 42.0996C1.17759 42.0938 2.01817 42.0938 2.8616 42.1024C2.92736 42.1024 2.99026 42.1911 3.07889 42.2568C2.80728 42.4369 2.61858 42.6342 2.50707 42.8944C2.37841 43.1889 2.29264 43.4919 2.29264 43.8179C2.29264 45.8049 2.29264 47.7892 2.29264 49.7762C2.28978 49.8305 2.28978 49.8849 2.28978 49.9478Z" fill="#E51B24"/>
<path d="M14.9384 23.7642C15.0042 23.7842 15.0728 23.8013 15.1386 23.8271C15.922 24.1301 16.7025 24.4418 17.4859 24.742C18.315 25.0593 19.1527 25.3595 19.8989 25.8542C21.4486 26.8806 22.3749 28.3015 22.6008 30.1628C22.7809 31.6552 22.4235 33.0305 21.7202 34.3314C21.5572 34.6316 21.3742 34.9203 21.1998 35.2148C21.1913 35.2262 21.1884 35.2434 21.177 35.2491C21.1055 35.292 21.034 35.3349 20.9625 35.3778C20.9654 35.3034 20.9511 35.2234 20.9711 35.1548C21.3943 33.7452 21.3628 32.3414 20.9339 30.9405C20.325 28.9505 19.1642 27.3352 17.5831 26.0114C16.8998 25.4424 16.185 24.9107 15.4874 24.3589C15.313 24.2216 15.1443 24.0701 14.9785 23.9214C14.9413 23.89 14.9298 23.8328 14.9041 23.787C14.9127 23.7842 14.9241 23.7756 14.9384 23.7642Z" fill="#E51B24"/>
<path d="M18.7324 15.4957C18.7496 15.4614 18.7639 15.4243 18.7839 15.3899C19.0269 14.9897 19.0784 14.5722 18.8782 14.1405C18.8296 14.0347 18.8411 13.9804 18.9497 13.9175C20.9225 12.7453 22.7752 11.4129 24.4592 9.85189C25.4313 8.95127 26.329 7.98204 27.1353 6.9299C27.1553 6.90417 27.1725 6.867 27.2011 6.85556C27.2497 6.83269 27.3126 6.80124 27.3526 6.81839C27.3898 6.83269 27.4326 6.90988 27.4241 6.94991C27.3697 7.19008 27.3326 7.43882 27.2354 7.66183C26.7579 8.77973 26.0746 9.76326 25.2454 10.6496C23.6929 12.3107 21.8946 13.6573 19.959 14.8324C19.6016 15.0469 19.2356 15.2527 18.8754 15.4643C18.8382 15.4872 18.7953 15.5043 18.7582 15.5215C18.7496 15.5129 18.741 15.5043 18.7324 15.4957Z" fill="#E51B24"/>
<path d="M23.5671 5.2001C23.5471 5.62038 23.3727 6.1436 23.1097 6.64108C22.4349 7.91337 21.56 9.03414 20.5336 10.0377C19.5844 10.964 18.5408 11.7703 17.4544 12.5308C16.5366 13.1741 15.6532 13.8689 14.7525 14.5379C14.7068 14.5722 14.6439 14.5979 14.5867 14.6036C14.4838 14.6151 14.4209 14.5322 14.4666 14.4378C14.5095 14.3463 14.5696 14.2548 14.6439 14.1834C15.2843 13.5887 15.9219 12.9883 16.5795 12.4107C17.5259 11.5787 18.5123 10.7896 19.4386 9.93761C20.6766 8.79969 21.7059 7.49023 22.4063 5.94632C22.6665 5.37736 22.8438 4.77981 22.9238 4.15939C22.9438 4.00214 22.9095 3.83631 22.9153 3.6762C22.9181 3.61902 22.961 3.5647 22.9867 3.51038C23.0353 3.53897 23.1011 3.55612 23.1354 3.59615C23.4642 4.02787 23.5986 4.51678 23.5671 5.2001Z" fill="#E51B24"/>
<path d="M18.4666 17.5085C18.8411 17.0654 18.984 16.5708 18.8325 16.0018C19.167 15.8274 19.5015 15.6587 19.8303 15.4814C21.786 14.4264 23.5557 13.1227 25.1082 11.5302C25.1969 11.4387 25.2798 11.3386 25.377 11.2557C25.417 11.2214 25.4913 11.2043 25.5399 11.2157C25.5685 11.2214 25.5943 11.3072 25.5886 11.3558C25.5542 11.7017 25.4284 12.0191 25.2626 12.3193C24.7766 13.1913 24.1133 13.9147 23.3813 14.578C22.0147 15.8131 20.4365 16.708 18.7668 17.4514C18.6838 17.4885 18.5952 17.5171 18.5066 17.5486C18.4951 17.5343 18.4808 17.5228 18.4666 17.5085Z" fill="#E51B24"/>
<path d="M17.889 19.507C17.929 19.4641 17.969 19.4212 18.0119 19.3812C18.3922 19.0295 18.578 18.5892 18.5752 18.0746C18.5752 17.9631 18.6037 17.9145 18.7153 17.8744C20.3335 17.2998 21.8431 16.525 23.2069 15.47C23.5042 15.2412 23.7844 14.9896 24.076 14.7552C24.1247 14.718 24.199 14.7152 24.2619 14.698C24.2705 14.7638 24.2933 14.8324 24.2819 14.8953C24.1933 15.3041 23.9588 15.6415 23.7158 15.9703C23.1383 16.748 22.4121 17.3627 21.623 17.9145C20.5822 18.6435 19.4529 19.1811 18.2178 19.4898C18.1177 19.5156 18.0176 19.5299 17.9176 19.5499C17.9061 19.5384 17.8976 19.5213 17.889 19.507Z" fill="#E51B24"/>
<path d="M16.7225 21.6857C17.0027 21.4455 17.2886 21.2311 17.5345 20.9823C17.7918 20.7193 17.8804 20.3791 17.8461 20.0417C18.4236 19.8816 18.9869 19.7472 19.5358 19.57C20.5108 19.2555 21.4228 18.798 22.2863 18.2462C22.4778 18.1233 22.6551 17.9774 22.8438 17.8488C22.8895 17.8173 22.961 17.8288 23.0211 17.8202C23.0239 17.8859 23.0525 17.9717 23.0239 18.0146C22.8581 18.2662 22.6951 18.5292 22.495 18.7523C21.54 19.813 20.385 20.5821 19.0612 21.1139C18.4093 21.374 17.7432 21.5685 17.0484 21.6685C16.9398 21.6828 16.8311 21.68 16.7225 21.6857Z" fill="#E51B24"/>
<path d="M27.973 4.13655C27.9415 4.80272 27.7557 5.40027 27.3754 5.94635C26.4491 7.27297 25.3369 8.42804 24.139 9.50592C23.7101 9.88904 23.2669 10.2579 22.8323 10.6324C22.8152 10.6467 22.798 10.6724 22.778 10.6753C22.7123 10.6839 22.6465 10.6839 22.5807 10.6867C22.595 10.6267 22.5865 10.5495 22.6236 10.5095C22.9296 10.1692 23.2355 9.83185 23.5557 9.50592C24.8909 8.12784 25.9831 6.57821 26.8465 4.86276C27.1267 4.30523 27.3783 3.73913 27.5927 3.15302C27.6099 3.10442 27.6585 3.07011 27.6928 3.02722C27.7328 3.07011 27.7986 3.10728 27.8072 3.15588C27.8701 3.48182 27.9187 3.81061 27.973 4.13655Z" fill="#E51B24"/>
<path d="M19.1127 22.2174C18.7181 22.1773 18.2521 22.1287 17.7832 22.083C17.7689 22.0801 17.7546 22.083 17.7403 22.0773C17.6917 22.0544 17.6431 22.0258 17.5945 22.0001C17.6431 21.9801 17.6888 21.9543 17.7403 21.9429C17.8833 21.9143 18.0319 21.8943 18.1749 21.8657C19.1956 21.6598 20.1362 21.2538 21.0454 20.7564C21.1026 20.7249 21.1798 20.7221 21.2455 20.7078C21.2312 20.7821 21.237 20.8765 21.1941 20.9308C20.9253 21.2996 20.6508 21.6627 20.3678 22.0172C20.3192 22.0773 20.2191 22.123 20.1391 22.1316C19.8246 22.1688 19.5072 22.1859 19.1127 22.2174Z" fill="#E51B24"/>
<path d="M7.21314 50.4224C7.21314 50.7826 6.9358 51.0685 6.57842 51.0714C6.21245 51.0742 5.92654 50.7855 5.9294 50.4224C5.93226 50.065 6.22103 49.7762 6.5727 49.7791C6.92723 49.7762 7.21028 50.0621 7.21314 50.4224Z" fill="#E51B24"/>
<path d="M12.3909 50.4166C12.3938 50.0592 12.6826 49.7733 13.0371 49.7761C13.3916 49.7819 13.6747 50.0678 13.6747 50.428C13.6747 50.7911 13.3802 51.0799 13.0171 51.0713C12.6597 51.0627 12.3909 50.7825 12.3909 50.4166Z" fill="#E51B24"/>
<path d="M25.2568 50.4309C25.254 50.7912 24.9709 51.0742 24.6135 51.0685C24.2533 51.0628 23.9702 50.7797 23.9731 50.4223C23.9731 50.0678 24.2619 49.7762 24.6135 49.7733C24.9709 49.7733 25.2597 50.0678 25.2568 50.4309Z" fill="#E51B24"/>
</svg>
