<svg width="39" height="39" viewBox="0 0 52 52" fill="none" xmlns="http://www.w3.org/2000/svg">
<g clip-path="url(#clip0_1_2126)">
<path d="M25.6625 0.0625C11.55 0.0625 0.0625 11.55 0.0625 25.6625C0.0625 39.775 11.55 51.2625 25.6625 51.2625C39.775 51.2625 51.2625 39.775 51.2625 25.6625C51.25 11.55 39.775 0.0625 25.6625 0.0625Z" fill="#00285E"/>
<path d="M48.5875 25.6625C48.5875 13 38.325 2.73755 25.65 2.73755C12.9875 2.73755 2.71252 13 2.71252 25.6625C2.71252 38.3251 12.9875 48.6 25.65 48.6C38.325 48.5875 48.5875 38.3251 48.5875 25.6625Z" fill="white"/>
<path d="M40.2625 25.6625C40.2625 17.6 33.725 11.0625 25.6625 11.0625C17.6 11.0625 11.0625 17.6 11.0625 25.6625C11.0625 33.725 17.6 40.2625 25.6625 40.2625C33.725 40.2625 40.2625 33.725 40.2625 25.6625Z" fill="#6CADDF"/>
<path d="M25.6625 41.4125C16.975 41.4125 9.91248 34.3375 9.91248 25.65C9.91248 16.9625 16.975 9.90002 25.6625 9.90002C34.35 9.90002 41.425 16.9625 41.425 25.65C41.4125 34.35 34.35 41.4125 25.6625 41.4125ZM25.6625 10.7875C17.4625 10.7875 10.7875 17.4625 10.7875 25.6625C10.7875 33.8625 17.4625 40.5375 25.6625 40.5375C33.8625 40.5375 40.5375 33.8625 40.5375 25.6625C40.5375 17.4625 33.8625 10.7875 25.6625 10.7875Z" fill="#00285E"/>
<path d="M25.6628 50.2128C12.1253 50.2128 1.11279 39.2003 1.11279 25.6628C1.11279 12.1253 12.1253 1.11279 25.6628 1.11279C39.2003 1.11279 50.2128 12.1253 50.2128 25.6628C50.2003 39.2003 39.2003 50.2128 25.6628 50.2128ZM25.6628 1.63779C12.4128 1.63779 1.65029 12.4128 1.65029 25.6628C1.65029 38.9003 12.4253 49.6753 25.6628 49.6753C38.9003 49.6753 49.6753 38.9003 49.6753 25.6628C49.6753 12.4128 38.9003 1.63779 25.6628 1.63779Z" fill="#6CADDF"/>
<path d="M5.17515 25.1002L4.76255 25.2002L4.65002 24.7751L5.33769 24.5751H5.68778V26.9757H5.17515V25.1002Z" fill="#6CADDF"/>
<path d="M6.28796 26.313C6.28796 26.0129 6.4255 25.8504 6.67556 25.7378C6.48801 25.6253 6.37549 25.4753 6.37549 25.2127V25.2002C6.37549 24.8376 6.71307 24.55 7.21319 24.55C7.71331 24.55 8.05089 24.8376 8.05089 25.2002V25.2127C8.05089 25.4628 7.93837 25.6253 7.75082 25.7378C7.98838 25.8629 8.13842 26.0129 8.13842 26.3005V26.313C8.13842 26.7506 7.75082 27.0132 7.22569 27.0132C6.70056 27.0132 6.28796 26.7256 6.28796 26.313ZM7.61329 26.2755C7.61329 26.0879 7.43824 25.9754 7.20069 25.9754C6.96313 25.9754 6.78809 26.0879 6.78809 26.263C6.78809 26.4255 6.93812 26.563 7.20069 26.563C7.46325 26.563 7.61329 26.438 7.61329 26.2755ZM7.55077 25.2752C7.55077 25.1252 7.42574 24.9877 7.21319 24.9877C7.00064 24.9877 6.87561 25.1127 6.87561 25.2627V25.2752C6.87561 25.4378 7.01314 25.5628 7.21319 25.5628C7.41324 25.5628 7.55077 25.4378 7.55077 25.2752Z" fill="#6CADDF"/>
<path d="M44.0253 25.9878C43.9003 26.0879 43.7503 26.1504 43.5377 26.1504C43.0251 26.1504 42.6875 25.8628 42.6875 25.3877V25.3752C42.6875 24.9001 43.0626 24.5375 43.6002 24.5375C43.9253 24.5375 44.1003 24.6125 44.2879 24.8C44.4629 24.9751 44.563 25.2251 44.563 25.7003V25.7128C44.563 26.488 44.2004 27.0131 43.5252 27.0131C43.1751 27.0131 42.9501 26.9006 42.7375 26.7255L43.0126 26.3254C43.1876 26.4629 43.3377 26.5255 43.5377 26.5255C43.9003 26.5255 44.0003 26.1879 44.0253 25.9878ZM44.0378 25.3627C44.0378 25.1501 43.8878 24.9876 43.6252 24.9876C43.3627 24.9876 43.2251 25.1376 43.2251 25.3502V25.3627C43.2251 25.5752 43.3877 25.7253 43.6377 25.7253C43.8878 25.7128 44.0378 25.5627 44.0378 25.3627Z" fill="#6CADDF"/>
<path d="M46.2379 26.4505H45.0751L44.9875 26.0754L46.2879 24.5625H46.7255V26.0254H47.0506V26.4505H46.7255V26.9631H46.2254V26.4505H46.2379ZM46.2379 26.0254V25.2877L45.6002 26.0254H46.2379Z" fill="#6CADDF"/>
<path d="M25.6625 40.5375C17.4625 40.5375 10.7875 33.8625 10.7875 25.6625C10.7875 17.4625 17.4625 10.7875 25.6625 10.7875C33.8625 10.7875 40.5375 17.4625 40.5375 25.6625C40.5375 33.8625 33.8625 40.5375 25.6625 40.5375ZM25.6625 11.3375C17.7625 11.3375 11.3375 17.7625 11.3375 25.6625C11.3375 33.5625 17.7625 39.9875 25.6625 39.9875C33.5625 39.9875 39.9875 33.5625 39.9875 25.6625C39.9875 17.7625 33.5625 11.3375 25.6625 11.3375Z" fill="white"/>
<path fill-rule="evenodd" clip-rule="evenodd" d="M25.3874 12.85C18.0499 12.85 13.8124 13.8125 13.8124 13.8125C13.8124 13.8125 12.1249 20.25 13.0874 28.4875C13.4874 31.95 16.2999 39.3875 25.6249 41.9375C34.9499 39.4 37.7624 31.95 38.1624 28.4875C39.1249 20.2375 37.4374 13.8125 37.4374 13.8125C37.4374 13.8125 33.1999 12.85 25.8624 12.85H25.3874Z" fill="#00285E"/>
<path fill-rule="evenodd" clip-rule="evenodd" d="M36.875 26.575C36.7875 29.075 36.4 36.5499 25.6125 40.6625C14.9125 36.6625 14.35 28.925 14.35 26.575H36.875Z" fill="#97C1E7"/>
<path fill-rule="evenodd" clip-rule="evenodd" d="M36.55 26.1625C36.8375 19.9625 35.7875 14.9375 35.7875 14.9375C35.7875 14.9375 31.7625 14.1625 25.625 14.1625C19.475 14.1625 15.3875 15.0125 15.3875 15.0125C15.3875 15.0125 14.275 20.0625 14.575 26.15H36.55V26.1625Z" fill="white"/>
<path d="M25.95 40.4376L14.5625 26.675C14.15 29.5125 16.45 37.8751 25.95 40.4376Z" fill="#6CADDF"/>
<path d="M17.9624 26.5875L28.4999 39.3C29.5624 38.7875 30.3499 38.2875 31.0999 37.6875L21.8999 26.5875H17.9624Z" fill="#6CADDF"/>
<path d="M25.2749 26.6L33.0624 35.9875C33.8249 35.125 34.4749 34.3375 34.9374 33.5125L29.2124 26.6H25.2749Z" fill="#6CADDF"/>
<path d="M36.6884 26.6L32.7999 26.5875L36.0632 30.526C36.6259 29.3132 36.6884 27.2752 36.6884 26.6Z" fill="#6CADDF"/>
<path d="M30.2125 31.75C30.1875 31.6625 30.1125 31.5874 30.025 31.5499L29.375 31.325C29.3125 31.3 29.2625 31.3125 29.2 31.325C29.15 31.1 29.025 30.9 28.8375 30.7625C28.8125 30.75 28.7875 30.725 28.7625 30.7125C28.725 30.6875 28.675 30.6625 28.625 30.6375C28.5375 30.6 28.45 30.5749 28.375 30.5499C28.1875 30.4874 28 30.425 27.7625 30.2625C27.5375 30.1 27.4375 29.95 27.3375 29.8125C27.3125 29.775 27.2875 29.75 27.2625 29.7125C27.2 29.6125 27.1125 29.525 27.025 29.45C26.8625 29.3375 26.6625 29.275 26.4625 29.275C26.4125 29.275 26.375 29.2875 26.325 29.2875C26.325 29.2875 26.325 29.2875 26.325 29.275C26.3375 29.2 26.3125 29.1124 26.275 29.0499L25.875 28.5125C25.8125 28.4375 25.725 28.3875 25.625 28.3875C25.525 28.3875 25.4375 28.425 25.3875 28.5L24.9625 29.0375C24.9125 29.1 24.8875 29.1875 24.9 29.275C24.8625 29.275 24.8375 29.2625 24.8 29.2625C24.6 29.2625 24.4 29.325 24.2375 29.4375C24.2125 29.45 24.1875 29.4749 24.175 29.4874C24.1375 29.5249 24.1 29.55 24.0625 29.6C24 29.675 23.95 29.7375 23.9 29.8125C23.775 29.975 23.675 30.1249 23.425 30.2999C23.2 30.4624 23.025 30.5125 22.8625 30.5625C22.825 30.575 22.7875 30.5875 22.75 30.6C22.6375 30.625 22.525 30.675 22.425 30.75C22.225 30.8875 22.1 31.1 22.05 31.3375C21.9875 31.3125 21.9125 31.3125 21.8375 31.325L21.2 31.5375C21.1125 31.5625 21.0375 31.6375 21 31.725C20.975 31.8125 20.9875 31.9124 21.0375 31.9874L21.425 32.5499C21.475 32.6124 21.5375 32.6499 21.6125 32.6749C21.5125 32.8874 21.4875 33.15 21.5625 33.375C21.575 33.4 21.5875 33.425 21.5875 33.45C21.6 33.5 21.625 33.5499 21.6625 33.5999C21.7125 33.6749 21.7625 33.75 21.8125 33.8125C21.9375 33.975 22.05 34.1249 22.1375 34.4124C22.225 34.6749 22.2125 34.85 22.2125 35.025C22.2125 35.0625 22.2125 35.1125 22.2125 35.15C22.2 35.275 22.2125 35.3875 22.2625 35.5C22.3375 35.725 22.5 35.9125 22.6875 36.025C22.6625 36.075 22.6375 36.1249 22.65 36.1749V36.8499C22.65 36.9499 22.7 37.0375 22.775 37.0875C22.85 37.1375 22.95 37.1625 23.0375 37.1375L23.7 36.95C23.7625 36.9375 23.8 36.8874 23.8375 36.8499C24.0375 37.0374 24.3125 37.1249 24.575 37.1124C24.625 37.1124 24.675 37.1 24.7375 37.0875C24.825 37.0625 24.9125 37.0375 24.9875 37.0125C25.175 36.95 25.3625 36.8875 25.6625 36.8875C25.9375 36.8875 26.1 36.95 26.275 37C26.3125 37.0125 26.35 37.0249 26.3875 37.0374C26.5 37.0874 26.625 37.0999 26.7375 37.0999C26.975 37.0999 27.2125 37 27.3875 36.8375C27.425 36.8875 27.4625 36.9125 27.525 36.9375L28.175 37.1375C28.2625 37.1625 28.3625 37.1499 28.45 37.0999C28.525 37.0499 28.575 36.9624 28.575 36.8624L28.5875 36.1875C28.5875 36.1375 28.575 36.0874 28.55 36.0374C28.75 35.9249 28.9125 35.7375 28.975 35.5125C28.9875 35.4875 28.9875 35.4624 29 35.4249C29.0125 35.3749 29.025 35.325 29.025 35.2625C29.0375 35.175 29.0375 35.0875 29.0375 35C29.0375 34.8 29.0375 34.6125 29.125 34.325C29.2125 34.0625 29.3125 33.9249 29.425 33.7874C29.45 33.7499 29.475 33.725 29.5 33.6875C29.575 33.6 29.6375 33.4875 29.675 33.375C29.75 33.1375 29.725 32.875 29.6125 32.65C29.675 32.625 29.725 32.5999 29.7625 32.5499L30.1625 32C30.225 31.9375 30.25 31.85 30.2125 31.75Z" fill="#00285E"/>
<path d="M25.2625 33.2126C25.2625 33.0001 25.4375 32.8375 25.65 32.8375C25.8626 32.8375 26.0376 33.0126 26.0376 33.2126C26.0376 33.4252 25.8626 33.5877 25.65 33.5877C25.4375 33.5877 25.2625 33.4127 25.2625 33.2126Z" fill="#FFC758"/>
<path d="M25.6385 29.9878C25.576 29.7503 25.4259 29.5502 25.2384 29.4377L25.6385 28.925L26.0136 29.4377C25.826 29.5627 25.701 29.7503 25.6385 29.9878ZM22.5752 32.2134C22.3752 32.0758 22.2377 31.9008 22.1626 31.6882L21.5625 31.8883L21.9251 32.4134C22.1001 32.2884 22.3377 32.2134 22.5752 32.2134ZM23.763 35.7517C23.5755 35.9018 23.3629 35.9768 23.1254 35.9768V36.6144L23.7505 36.4269C23.6755 36.2268 23.6755 35.9893 23.763 35.7517ZM27.514 35.7642C27.6015 35.9893 27.6015 36.2143 27.5265 36.4269L28.1391 36.6144L28.1516 35.9768C27.9391 35.9893 27.714 35.9143 27.514 35.7642ZM28.6767 32.2259C28.9268 32.2134 29.1394 32.2759 29.3144 32.4134L29.6895 31.9008L29.0768 31.6882C29.0268 31.8883 28.8768 32.0883 28.6767 32.2259ZM24.8633 35.7767C24.5757 35.7767 24.3507 35.5517 24.3507 35.2641C24.3507 35.2266 24.3132 35.2141 24.2882 35.2391C24.1006 35.4641 23.9631 35.6642 23.9506 35.9018C23.9381 36.2518 24.2382 36.5394 24.6007 36.5394C24.6257 36.5394 24.6508 36.5394 24.6633 36.5394C24.7008 36.5394 24.7258 36.5394 24.7758 36.5269C25.0258 36.4644 25.2509 36.3394 25.676 36.3394C26.0386 36.3394 26.2261 36.4394 26.4137 36.4894C26.4887 36.5144 26.5762 36.5394 26.6637 36.5394C27.0263 36.5394 27.3139 36.2518 27.3139 35.9018C27.3139 35.6517 27.1639 35.4641 26.9763 35.2391C26.9638 35.2141 26.9263 35.2391 26.9263 35.2641C26.9263 35.5392 26.6888 35.7767 26.4137 35.7767C26.2011 35.7767 25.9261 35.5892 25.651 35.5892C25.4134 35.5892 25.0759 35.7767 24.8633 35.7767ZM24.5257 35.0766C24.5257 35.3141 24.7133 35.5017 24.9508 35.5017C24.9758 35.5017 25.0008 35.5017 25.0383 35.4892C25.0509 35.4892 25.0634 35.4892 25.0759 35.4766H25.0884C25.2384 35.4266 25.3759 35.3641 25.6385 35.3641C25.9011 35.3641 26.0261 35.4391 26.1761 35.4766C26.2261 35.4892 26.2762 35.5017 26.3262 35.5017C26.5637 35.5017 26.7513 35.3141 26.7513 35.0766C26.7513 35.014 26.7388 34.9515 26.7138 34.9015C26.7013 34.8765 26.6888 34.8515 26.6762 34.839C26.6762 34.839 25.9511 33.8513 25.9261 33.8262C25.8886 33.7762 25.8385 33.8012 25.8135 33.8137C25.776 33.8262 25.6885 33.8513 25.626 33.8513C25.5635 33.8513 25.4885 33.8387 25.451 33.8137C25.4009 33.7887 25.3634 33.7762 25.3384 33.8262C25.3134 33.8638 24.7883 34.5764 24.6257 34.8015C24.5632 34.8765 24.5257 34.964 24.5257 35.0766ZM27.864 34.7515C27.7765 35.0265 27.4889 35.1641 27.2139 35.0766C27.1764 35.064 27.1514 35.0891 27.1764 35.1266C27.3389 35.3641 27.4764 35.5642 27.714 35.6517C28.0516 35.7642 28.4267 35.5767 28.5267 35.2391C28.5392 35.2141 28.5392 35.2016 28.5392 35.1766C28.5517 35.1516 28.5517 35.1141 28.5642 35.0766C28.5892 34.814 28.5267 34.5764 28.6642 34.1638C28.7768 33.8262 28.9268 33.6762 29.0393 33.5137C29.0893 33.4512 29.1394 33.3761 29.1644 33.3011C29.2769 32.9635 29.0893 32.5884 28.7518 32.4884C28.5142 32.4134 28.2766 32.5009 28.0016 32.6009C27.9766 32.6134 27.9766 32.6385 28.0141 32.651C28.2891 32.7385 28.4392 33.0261 28.3517 33.3011C28.2891 33.5012 28.0266 33.7012 27.9391 33.9638C27.864 34.1763 27.9391 34.5389 27.864 34.7515ZM27.0888 34.8515C27.3139 34.9265 27.564 34.8015 27.639 34.5764C27.6515 34.5514 27.6515 34.5264 27.6515 34.4889C27.6515 34.4764 27.6515 34.4639 27.6515 34.4514V34.4389C27.6515 34.2889 27.6265 34.1263 27.7015 33.8888C27.789 33.6387 27.889 33.5387 27.9766 33.4136C28.0016 33.3761 28.0266 33.3261 28.0516 33.2761C28.1266 33.0511 28.0016 32.8135 27.7765 32.7385C27.714 32.726 27.6515 32.7135 27.6015 32.726C27.5765 32.726 27.5515 32.726 27.5265 32.7385C27.5265 32.7385 26.3512 33.1136 26.3137 33.1261C26.2636 33.1511 26.2636 33.2011 26.2636 33.2261C26.2636 33.2636 26.2511 33.3511 26.2386 33.4136C26.2261 33.4637 26.1886 33.5387 26.1511 33.5762C26.1136 33.6137 26.0886 33.6512 26.1261 33.6887C26.1636 33.7262 26.6637 34.4389 26.8388 34.6639C26.9013 34.7515 26.9888 34.814 27.0888 34.8515ZM27.789 31.5757C28.0266 31.7382 28.0766 32.0633 27.9015 32.2884C27.8765 32.3134 27.9015 32.3509 27.9391 32.3384C28.2266 32.2634 28.4517 32.1883 28.6017 31.9883C28.8143 31.7007 28.7518 31.3006 28.4642 31.0881C28.4517 31.0756 28.4267 31.0631 28.4017 31.0506C28.3767 31.0256 28.3517 31.0131 28.3016 31.0006C28.0641 30.9005 27.814 30.8755 27.4639 30.6255C27.1764 30.4129 27.0763 30.2254 26.9513 30.0628C26.9138 30.0003 26.8513 29.9378 26.7763 29.8753C26.4887 29.6627 26.0761 29.7252 25.8761 30.0128C25.7385 30.2129 25.7385 30.4629 25.751 30.7505C25.751 30.7755 25.7885 30.788 25.801 30.7505C25.9636 30.5254 26.2887 30.4754 26.5262 30.638C26.7013 30.763 26.8138 31.0756 27.0388 31.2256C27.2389 31.4132 27.614 31.4507 27.789 31.5757ZM27.6515 32.3509C27.789 32.1633 27.7515 31.8883 27.5515 31.7507C27.539 31.7382 27.514 31.7132 27.4764 31.7007C27.4639 31.7007 27.4514 31.6882 27.4389 31.6882H27.4264C27.2764 31.6382 27.1264 31.6132 26.9138 31.4632C26.7013 31.3131 26.6387 31.1756 26.5512 31.0631C26.5262 31.0256 26.4887 30.9881 26.4512 30.9505C26.2636 30.813 25.9886 30.8505 25.851 31.0506C25.8135 31.1006 25.7885 31.1506 25.776 31.2131C25.776 31.2381 25.7635 31.2631 25.7635 31.2881C25.7635 31.2881 25.7635 32.5134 25.7635 32.5509C25.7635 32.6134 25.8135 32.6135 25.851 32.626C25.8886 32.6385 25.9761 32.676 26.0136 32.701C26.0636 32.7385 26.1136 32.7885 26.1386 32.826C26.1636 32.8635 26.1886 32.901 26.2386 32.876C26.2887 32.851 27.1264 32.5884 27.3889 32.5009C27.5015 32.4884 27.589 32.4259 27.6515 32.3509ZM24.7383 30.6755C24.9633 30.5129 25.2884 30.5629 25.4635 30.788C25.4885 30.813 25.526 30.813 25.526 30.7755C25.5385 30.4879 25.5385 30.2379 25.4009 30.0378C25.2009 29.7503 24.7883 29.6877 24.5007 29.9003C24.4757 29.9128 24.4632 29.9253 24.4507 29.9378C24.4257 29.9503 24.4007 29.9753 24.3757 30.0128C24.2006 30.2129 24.1006 30.4379 23.7505 30.688C23.463 30.9005 23.2504 30.938 23.0629 30.9881C22.9878 31.0131 22.9003 31.0381 22.8378 31.0881C22.5502 31.3006 22.4752 31.7007 22.7003 31.9883C22.8503 32.1883 23.0879 32.2634 23.3629 32.3384C23.3879 32.3509 23.4004 32.3134 23.3879 32.2884C23.2254 32.0633 23.2754 31.7382 23.5005 31.5757C23.6755 31.4507 24.0006 31.4382 24.2257 31.2756C24.4007 31.1506 24.5632 30.8005 24.7383 30.6755ZM25.4384 31.0506C25.3009 30.863 25.0258 30.813 24.8383 30.9505C24.8133 30.963 24.8008 30.9756 24.7758 31.0006C24.7633 31.0131 24.7633 31.0131 24.7508 31.0256L24.7383 31.0381C24.6508 31.1631 24.5757 31.3006 24.3632 31.4507C24.1506 31.6007 24.0006 31.6132 23.8631 31.6757C23.813 31.6882 23.763 31.7132 23.7255 31.7382C23.538 31.8758 23.488 32.1383 23.6255 32.3384C23.663 32.3884 23.713 32.4259 23.763 32.4509C23.788 32.4634 23.8005 32.4759 23.8256 32.4759C23.8256 32.4759 25.0008 32.851 25.0383 32.8635C25.1009 32.876 25.1259 32.8385 25.1384 32.8135C25.1634 32.7885 25.2134 32.7135 25.2634 32.676C25.3134 32.6385 25.3759 32.6134 25.4259 32.6009C25.476 32.5884 25.5135 32.5759 25.5135 32.5259C25.5135 32.4759 25.5135 31.6007 25.5135 31.3256C25.526 31.2381 25.501 31.1381 25.4384 31.0506ZM22.9378 33.2886C22.8503 33.0135 23.0004 32.726 23.2629 32.6385C23.3004 32.626 23.3004 32.5884 23.2754 32.5759C23.0004 32.4759 22.7628 32.3884 22.5377 32.4634C22.2002 32.5634 22.0126 32.9385 22.1251 33.2761C22.1251 33.3011 22.1376 33.3136 22.1501 33.3386C22.1626 33.3636 22.1752 33.4011 22.2002 33.4387C22.3377 33.6637 22.5252 33.8262 22.6628 34.2388C22.7753 34.5764 22.7378 34.789 22.7378 34.989C22.7253 35.064 22.7378 35.1516 22.7628 35.2391C22.8753 35.5767 23.2379 35.7642 23.5755 35.6517C23.8131 35.5767 23.9506 35.3766 24.1131 35.1266C24.1256 35.1016 24.1006 35.0766 24.0756 35.0891C23.8005 35.1766 23.513 35.0265 23.4255 34.764C23.3629 34.5639 23.4505 34.2513 23.3629 33.9888C23.2879 33.7512 23.0004 33.4887 22.9378 33.2886ZM23.5005 32.751C23.2754 32.826 23.1504 33.0636 23.2254 33.2886C23.2254 33.3136 23.2379 33.3386 23.2629 33.3636C23.2754 33.3761 23.2754 33.3886 23.2879 33.3886C23.2879 33.3886 23.2879 33.4011 23.3004 33.4011C23.3879 33.5262 23.5005 33.6387 23.588 33.8763C23.6755 34.1263 23.638 34.2639 23.6505 34.4139C23.6505 34.4639 23.6505 34.5139 23.6755 34.5639C23.7505 34.789 23.9881 34.914 24.2131 34.839C24.2757 34.8265 24.3257 34.789 24.3632 34.7515C24.3757 34.739 24.4007 34.714 24.4132 34.7015C24.4132 34.7015 25.1384 33.7137 25.1509 33.6762C25.1884 33.6262 25.1509 33.5887 25.1259 33.5637C25.1009 33.5387 25.0509 33.4637 25.0383 33.4011C25.0258 33.3511 25.0133 33.2761 25.0133 33.2261C25.0133 33.1761 25.0133 33.1386 24.9633 33.1261C24.9133 33.1136 24.0756 32.8385 23.813 32.751C23.713 32.726 23.613 32.7135 23.5005 32.751Z" fill="#EE3124"/>
<path d="M29.2376 19.9877L31.8757 19.075C31.8757 19.075 31.6507 20.1752 31.7132 21.0254C31.7882 22.1257 32.4258 22.9634 32.4258 22.9634L29.175 24.0887L29.2376 19.9877Z" fill="#FFC758"/>
<path d="M32.4262 22.9639C32.4262 22.9639 31.851 22.1387 31.751 21.1759C31.676 20.4508 31.751 19.8256 31.876 19.0754C31.7635 19.5756 31.3384 20.9884 30.1506 22.3012C29.6755 22.8263 29.463 23.289 29.3754 23.614L29.3254 17.4C29.3254 17.4 28.7003 17.6251 28.6377 17.6376C28.5627 17.6626 28.5252 17.7126 28.5252 17.7251C28.5252 17.7626 28.5002 17.7876 28.4502 17.8001C28.4002 17.8126 28.0376 17.9502 27.7875 18.0252C27.7375 18.0377 27.7625 18.0877 27.7875 18.0877C28.0876 18.0752 28.5127 18.0377 28.5502 18.0377C28.6127 18.0252 28.6377 18.0002 28.6377 17.9627C28.6377 17.9627 28.6377 17.9627 28.6377 17.9502C28.6503 17.9001 28.6878 17.8626 28.7378 17.8626C28.7753 17.8626 29.0003 17.8376 29.1379 17.8126L29.0754 24.5018H29.3754V24.0266L32.4262 22.9639Z" fill="#D4A11E"/>
<path d="M20.7376 24.2632C20.7376 24.2632 20.25 23.9007 20.1125 23.213C19.9749 22.5128 20.325 22.1127 20.325 22.1127L23.5258 21.0125C23.5258 21.0125 23.3257 21.6501 23.5133 22.3753C23.7509 23.288 24.2385 23.9007 24.2385 23.9007C24.2385 23.9007 23.0632 23.6756 21.9254 23.8256C20.8501 23.9632 20.7376 24.2632 20.7376 24.2632Z" fill="#FFC758"/>
<path d="M17.0625 23.4634C17.0625 23.4634 17.4626 22.3756 18.6254 21.1878C19.5131 20.2876 20.0882 20.025 20.0882 20.025C20.0882 20.025 19.5756 20.7627 19.3631 21.9755C19.2255 22.7257 19.3756 23.6759 19.3756 23.6759C19.3756 23.6759 18.7754 23.5509 18.0877 23.4759C17.5126 23.4134 17.0625 23.4634 17.0625 23.4634Z" fill="#FFC758"/>
<path d="M20.0879 20.025C20.0879 20.025 19.5877 20.7627 19.3752 21.9755C19.2377 22.7257 19.3877 23.6759 19.3877 23.6759C19.3877 23.6759 19.2377 23.6384 18.8876 23.5634C17.4622 23.2383 20.0879 20.025 20.0879 20.025Z" fill="#D4A11E"/>
<path d="M21.9628 20.9007L21.9378 18.025C21.8753 18.05 21.3127 18.2376 21.2502 18.2626C21.1752 18.2876 21.1376 18.3376 21.1376 18.3626C21.1376 18.4001 21.1126 18.4251 21.0626 18.4376C21.0126 18.4501 20.65 18.5752 20.4 18.6627C20.35 18.6752 20.375 18.7252 20.4 18.7252C20.6875 18.7127 21.1251 18.6752 21.1627 18.6752C21.2252 18.6627 21.2502 18.6377 21.2627 18.6002C21.2627 18.6002 21.2627 18.6002 21.2627 18.5877C21.2752 18.5376 21.3127 18.5001 21.3627 18.5001C21.4002 18.5001 21.6128 18.4751 21.7628 18.4626L21.7378 20.9132H21.9628V20.9007Z" fill="#D4A11E"/>
<path d="M25.6879 18.3006H25.9129V15.5375C25.9129 15.5375 25.2878 15.7625 25.2253 15.775C25.1503 15.8 25.1127 15.8501 25.1127 15.8626C25.1127 15.9001 25.0877 15.9251 25.0377 15.9376C24.9877 15.9501 24.6251 16.0751 24.3751 16.1626C24.3251 16.1751 24.3501 16.2251 24.3751 16.2251C24.6751 16.2126 25.1002 16.1751 25.1378 16.1751C25.2003 16.1626 25.2253 16.1376 25.2378 16.1001C25.2503 16.0501 25.2878 16.0126 25.3378 16.0126C25.3753 16.0126 25.5754 15.9876 25.7254 15.9751L25.6879 18.3006Z" fill="#D4A11E"/>
<path d="M25.1251 16.1876H25.1376C25.2001 16.1751 25.2251 16.1501 25.2251 16.1126C25.2251 16.0751 25.2501 16.0501 25.2876 16.0376L25.2126 15.8C25.1376 15.8251 25.1126 15.8751 25.1126 15.8876C25.1126 15.9251 25.0876 15.9376 25.05 15.9501L25.1251 16.1876Z" fill="#FFC758"/>
<path d="M21.15 18.6626H21.1625C21.225 18.6501 21.25 18.6251 21.25 18.5876C21.2625 18.5501 21.275 18.5251 21.3125 18.5126L21.2375 18.275C21.1625 18.3 21.1375 18.35 21.1375 18.3625C21.1375 18.4001 21.1125 18.4126 21.075 18.4251L21.15 18.6626Z" fill="#FFC758"/>
<path d="M28.525 18.0376H28.5375C28.6 18.0251 28.625 18.0001 28.625 17.9626C28.6375 17.9251 28.65 17.9001 28.6875 17.8876L28.6125 17.65C28.5375 17.675 28.5125 17.725 28.5125 17.7375C28.5125 17.7751 28.4875 17.7876 28.45 17.8001L28.525 18.0376Z" fill="#FFC758"/>
<path d="M24.2384 23.9007C24.2384 23.9007 23.7257 23.1505 23.5257 22.3503C23.3506 21.6626 23.5257 21.0125 23.5257 21.0125C23.5257 21.0125 23.1881 22.1877 22.3754 22.8254C21.8128 23.2755 20.4249 23.6881 20.75 24.2632C20.8 24.1882 20.9375 24.0382 21.5002 23.9007C21.5627 23.8882 21.6377 23.8756 21.7127 23.8631V24.8134H22.0128V23.8256C23.0506 23.7131 24.2384 23.9007 24.2384 23.9007Z" fill="#D4A11E"/>
<path d="M20.4001 21.9132C20.4001 21.9132 20.025 21.6881 20.075 20.9629C20.125 20.2127 20.5001 19.8877 20.5001 19.8627L22.9882 19.0125C22.9882 19.0125 22.8007 19.3875 22.9382 19.9502C23.0883 20.6253 23.5259 21.0129 23.5259 21.0129C23.5259 21.0129 22.2756 21.0254 21.1503 21.413C20.6002 21.6006 20.4001 21.9132 20.4001 21.9132Z" fill="#FFC758"/>
<path d="M21.8754 20.3503C22.5881 19.7626 22.9757 19.0125 22.9757 19.0125C22.9757 19.0125 22.8757 19.4876 22.9507 19.9127C23.0882 20.6378 23.5133 21.0129 23.5133 21.0129C23.5133 21.0129 22.5006 21.0254 21.4128 21.338C20.6876 21.5381 20.4626 21.8256 20.4 21.9257C20.1625 21.3755 21.1502 20.9504 21.8754 20.3503Z" fill="#D4A11E"/>
<path d="M24.7128 24.451C24.7128 24.451 24.0251 23.9383 23.8626 22.9756C23.725 22.2129 24.2376 21.6628 24.2376 21.6628L28.1261 20.325C28.1261 20.325 27.9135 21.1877 28.1136 22.0129C28.3386 22.9381 29.1889 24.0884 29.1889 24.0884C29.1889 24.0884 27.576 23.6258 26.1756 23.8008C24.8378 23.9758 24.7128 24.451 24.7128 24.451Z" fill="#FFC758"/>
<path d="M23.925 18.288C23.9 17.7003 24.3126 17.2252 24.3251 17.2002L27.1133 16.225C27.1133 16.225 26.9258 16.6626 26.9758 17.0377C27.0633 17.7503 27.4634 18.1254 27.4634 18.1254C27.4634 18.1254 26.3631 18.0629 25.0753 18.513C24.3627 18.7631 24.2876 19.1007 24.2876 19.1007C24.2876 19.1007 23.95 19.0132 23.925 18.288Z" fill="#FFC758"/>
<path d="M26.1255 17.5379C26.6256 17.1003 27.1132 16.2375 27.1132 16.2375C27.1132 16.2375 26.9257 16.6752 26.9757 17.0502C27.0632 17.7629 27.4633 18.138 27.4633 18.138C27.4633 18.138 26.2755 18.1255 25.1378 18.5256C24.6501 18.7007 24.3376 18.9632 24.3001 19.1133C24.1375 18.5631 25.4378 18.138 26.1255 17.5379Z" fill="#D4A11E"/>
<path d="M24.3252 21.5008C24.3252 21.5008 23.9251 21.0382 23.8501 20.313C23.775 19.5629 24.2127 19.2628 24.2502 19.2378L27.4759 18.125C27.4759 18.125 27.3884 18.3626 27.4634 19.0127C27.5385 19.5629 28.0761 20.313 28.0761 20.313C28.0761 20.313 26.3507 20.363 25.2879 20.7756C24.6127 21.0382 24.3252 21.5008 24.3252 21.5008Z" fill="#FFC758"/>
<path d="M26.463 19.6378C27.1632 19.0377 27.4758 18.1375 27.4758 18.1375C27.4758 18.1375 27.3883 18.6501 27.4758 19.0502C27.6383 19.7503 28.1385 20.338 28.1385 20.338C28.1385 20.338 26.6381 20.363 25.5503 20.7256C24.8376 20.9631 24.4 21.3882 24.3375 21.5133C24.175 20.9006 25.7629 20.238 26.463 19.6378Z" fill="#D4A11E"/>
<path d="M29.2511 24.151C29.2511 24.151 28.3759 23.0132 28.1133 22.0129C27.9508 21.3503 28.0758 20.6001 28.1258 20.3375C28.0258 20.6876 27.6757 21.8254 26.813 22.6256C25.9878 23.3883 24.3624 23.7509 24.7125 24.4635C24.775 24.351 24.9625 24.0759 25.6252 23.9134L25.6127 24.8261H25.9253V23.8509C27.3631 23.6258 29.2511 24.151 29.2511 24.151Z" fill="#D4A11E"/>
<path fill-rule="evenodd" clip-rule="evenodd" d="M30.7499 26.2875C30.9499 26.25 31.1499 26.2 31.4499 26.125C31.4374 26.1125 31.4124 26.1 31.3999 26.0875C31.0749 25.725 31.1249 25.3375 31.3249 25.15C32.0499 24.475 32.0374 23.975 32.0374 23.975C32.0374 23.975 30.2749 24.3375 27.9499 24.4625C27.7999 24.475 27.2624 24.7125 27.0999 24.7125C26.7749 24.725 26.4499 24.7375 26.1124 24.7375C21.7249 24.775 20.4999 24.4625 19.0624 24.2C17.5999 23.925 16.9624 23.6375 16.9624 23.6375L16.9124 23.7875C16.9124 23.7875 18.0624 24.2375 18.8874 24.6375C19.0624 24.725 19.7499 25.75 19.9749 26.1H14.7624C14.4749 20.125 15.6249 15.2375 15.6249 15.2375C15.6249 15.2375 19.6124 14.3875 25.6124 14.3875V13.75C19.2499 13.75 15.0124 14.65 15.0124 14.65C15.0124 14.65 13.1624 21.175 14.1374 28.95C14.5499 32.1875 17.2249 38.25 25.5874 41.0625L25.9499 40.55L25.5874 40.0375C17.7124 37.4 15.4124 32.0625 15.0124 29.025C14.9249 28.35 14.8624 27.675 14.8124 27.025H25.6249V26.1125H20.0749C20.1999 25.7125 20.5874 25.6125 21.0749 25.725C21.5749 25.85 22.0749 25.975 22.5499 25.95C23.7374 25.8875 23.5624 25.575 23.6749 25.575C24.8999 25.65 25.3624 25.95 26.4249 25.925C27.3999 25.9125 27.7374 25.65 27.8249 25.65C29.0124 25.6375 29.4624 26.1875 30.6499 26.2875C30.6874 26.2875 30.7249 26.2875 30.7499 26.2875Z" fill="#FFC758"/>
<path fill-rule="evenodd" clip-rule="evenodd" d="M36.2 14.65C36.2 14.65 31.975 13.75 25.6125 13.75V14.3875C31.6125 14.3875 35.5875 15.2375 35.5875 15.2375C35.5875 15.2375 36.75 20.125 36.45 26.1H31.225C30.8125 25.7 31.05 25.175 31.1875 25.05C31.8 24.5 31.8 24.125 31.8 24.125C31.8 24.125 30.3875 24.475 28.0625 24.575C27.9125 24.575 27.2625 24.875 27.1 24.875C26.775 24.8875 26.325 24.9 25.9875 24.9C22.9625 24.9 21.475 24.8375 18.85 24.275C18.9 24.3375 18.925 24.3625 18.975 24.4375C18.9875 24.4625 20.125 24.75 20.1375 24.775C20.3125 25.0125 20.5375 25.175 20.8125 25.325C21.2375 25.55 21.8625 25.7375 22.375 25.775C23.5625 25.85 23.3375 25.4 23.45 25.4C24.6625 25.375 25.45 25.8125 26.5125 25.8C27.4875 25.7875 27.5125 25.475 27.6125 25.475C28.575 25.425 29.55 25.8375 30.3875 26.1125H25.6125V27.025H36.3875C36.3375 27.6875 36.275 28.35 36.1875 29.025C35.7875 32.075 33.4875 37.4 25.6125 40.0375V41.0625C33.975 38.25 36.6625 32.2 37.0625 28.95C38.05 21.175 36.2 14.65 36.2 14.65Z" fill="#D4A11E"/>
<path d="M6.08752 17.4634L6.52513 16.6257L8.50061 16.4882L7.50037 14.7753L7.93798 13.9501L11.4513 15.8005L11.0512 16.5632L8.75067 15.3629L9.73842 17.1384L9.72591 17.1509L7.72542 17.3509L10.001 18.5512L9.60088 19.3139L6.08752 17.4634Z" fill="#00285E"/>
<path d="M10.1 11.2126L10.6501 10.625L14.7261 12.1254L14.101 12.788L13.2007 12.4379L12.0505 13.6632L12.4505 14.5385L11.8379 15.1886L10.1 11.2126ZM12.438 12.1504L11.1377 11.6502L11.7129 12.9131L12.438 12.1504Z" fill="#00285E"/>
<path d="M13.25 8.32545L13.9377 7.91284L16.8009 9.03812L15.5381 6.95011L16.2757 6.5L18.3262 9.88833L17.6886 10.2759L14.7379 9.11314L16.0507 11.2762L15.313 11.7263L13.25 8.32545Z" fill="#00285E"/>
<path d="M18.5875 7.63824C18.2749 6.53798 18.8251 5.4127 20.0004 5.07512C20.713 4.86257 21.2256 4.9876 21.6758 5.22515L21.3132 6.00034C20.9381 5.8128 20.6005 5.73778 20.2129 5.85031C19.5752 6.03785 19.2627 6.70052 19.4502 7.36318V7.37568C19.6378 8.02584 20.2504 8.43844 20.9006 8.25089C21.3382 8.12586 21.5507 7.8758 21.7758 7.51321L22.4635 7.90081C22.1884 8.43844 21.8258 8.82603 21.1006 9.03859C19.9878 9.36367 18.9001 8.73851 18.5875 7.63824Z" fill="#00285E"/>
<path d="M23.35 4.45007L24.2127 4.42506L24.2627 6.00045L25.8631 5.96294L25.8256 4.38755L26.7008 4.36255L26.8008 8.33852L25.9256 8.36353L25.8881 6.76313L24.2752 6.81315L24.3252 8.40103L23.45 8.42604L23.35 4.45007Z" fill="#00285E"/>
<path d="M31.8375 8.87573L32.5627 8.52565C32.7628 8.93825 33.0253 9.27583 33.4379 9.46338C33.763 9.61341 34.0131 9.57591 34.1131 9.36335V9.35085C34.2131 9.1508 34.1256 8.98826 33.6005 8.56316C32.9628 8.03803 32.5877 7.62543 32.9128 6.91276V6.90025C33.2129 6.25009 33.938 6.06255 34.6757 6.40013C35.2008 6.63769 35.5759 7.01278 35.801 7.47539L35.1133 7.88799C34.9008 7.5129 34.6382 7.23783 34.3381 7.1003C34.0381 6.96277 33.813 7.02528 33.7255 7.20033V7.21283C33.613 7.45039 33.738 7.60042 34.2881 8.05053C34.9258 8.57566 35.2259 9.03828 34.9258 9.66343V9.67593C34.6007 10.3886 33.863 10.5386 33.0878 10.1886C32.5627 9.91349 32.1001 9.46338 31.8375 8.87573Z" fill="#00285E"/>
<path d="M37.638 9.11288L36.6753 8.3752L37.1629 7.73755L39.776 9.72553L39.2884 10.3757L38.3257 9.63801L36.4127 12.1511L35.7125 11.626L37.638 9.11288Z" fill="#00285E"/>
<path d="M43.9134 14.75L44.7261 16.3754C44.9511 16.8255 45.0012 17.2381 44.8886 17.5882C44.7886 17.8883 44.5636 18.1258 44.226 18.3009H44.2135C43.6383 18.5884 43.1257 18.4634 42.7256 18.0883L41.8879 19.5887L41.4253 18.676L42.1755 17.3381L41.8629 16.7255L40.7251 17.3006L40.3375 16.5254L43.9134 14.75ZM42.9757 17.1881C43.1632 17.5632 43.4758 17.6882 43.7759 17.5382H43.7884C44.1259 17.3756 44.176 17.0506 43.9884 16.6755L43.6008 15.9003L42.5881 16.4129L42.9757 17.1881Z" fill="#00285E"/>
<path d="M29.1878 7.11311L30.6506 7.42568L31.0632 6.72551L29.3628 6.35042L29.5254 5.56273L31.6009 6.01284L31.7759 5.26266L28.8377 4.625L28 8.50095L30.9632 9.1511L31.1258 8.38842L29.0127 7.92581L29.1878 7.11311Z" fill="#00285E"/>
<path d="M40.9758 10.9126L37.925 13.4632L39.8755 15.7763L40.4632 15.2762L39.0878 13.6258L39.7255 13.0881L40.7007 14.2509L41.4884 13.9883L40.3256 12.588L40.9383 12.0754L42.3011 13.7008L42.9013 13.2007L40.9758 10.9126Z" fill="#00285E"/>
<path d="M18.925 44.7631C18.925 43.6003 19.7878 42.6626 21.0381 42.6626C21.8008 42.6626 22.2509 42.9127 22.6385 43.2878L22.0758 43.9379C21.7632 43.6503 21.4507 43.4878 21.0381 43.4878C20.3504 43.4878 19.8628 44.0504 19.8628 44.7506V44.7631C19.8628 45.4508 20.3379 46.0384 21.0381 46.0384C21.5007 46.0384 21.7882 45.8509 22.1008 45.5633L22.6635 46.1384C22.2509 46.5886 21.7882 46.8636 21.0006 46.8636C19.8128 46.8386 18.925 45.9134 18.925 44.7631Z" fill="#00285E"/>
<path d="M23.525 42.7251H24.4127V46.7636H23.525V42.7251Z" fill="#00285E"/>
<path d="M26.4753 43.5503H25.25V42.7251H28.6008V43.5503H27.3755V46.7761H26.4878V43.5503H26.4753Z" fill="#00285E"/>
<path d="M30.5255 45.1757L28.9751 42.7251H30.0129L30.9756 44.3505L31.9508 42.7251H32.9636L31.4132 45.1507V46.7636H30.5255V45.1757Z" fill="#00285E"/>
</g>
<defs>
<clipPath id="clip0_1_2126">
<rect width="51.2" height="51.2" fill="white" transform="translate(0.0625 0.0625)"/>
</clipPath>
</defs>
</svg>
