<svg width="39" height="39" viewBox="0 0 52 52" fill="none" xmlns="http://www.w3.org/2000/svg">
<g clip-path="url(#clip0_1_2655)">
<path d="M28.5746 48.6203C28.3745 49.2087 27.737 50.6514 26.1938 50.6514C24.4387 50.6514 23.83 48.7523 23.8005 48.6723L23.7485 48.4926C23.7485 48.4926 25.2601 48.6182 26.0927 48.6182C26.9233 48.6182 28.3464 48.5361 28.5767 48.4926L28.5746 48.6203Z" fill="black"/>
<path d="M33.1801 47.684L33.5403 47.7296C33.1106 48.8522 32.339 50.1103 30.8268 50.1103C29.3517 50.1103 28.6244 49.2566 28.3197 48.6858L28.062 48.5285C28.062 48.5285 30.6028 48.4464 33.1801 47.684Z" fill="black"/>
<path d="M19.261 47.684L18.9009 47.7296C19.3284 48.8522 20.1035 50.1103 21.6207 50.1103C23.0873 50.1103 23.8778 49.2117 24.2036 48.6858L24.3784 48.5285C24.3784 48.5285 21.8418 48.4464 19.261 47.684Z" fill="black"/>
<path d="M27.4254 48.7401C27.186 49.0827 27.0252 49.0651 26.7423 49.0651C26.5956 49.0651 26.3849 49.1831 26.387 49.4007C26.3934 49.572 26.5331 49.711 26.7627 49.711C27.285 49.711 27.6845 48.9872 27.7905 48.679C27.7905 48.679 28.0966 48.6664 28.1857 48.6572C28.1857 48.6572 27.6381 50.2944 26.2129 50.2944C24.7856 50.2944 24.2036 48.6769 24.2036 48.6769C24.2036 48.6769 25.407 48.7499 26.0929 48.7499C26.7809 48.7499 27.219 48.7436 27.4254 48.7401Z" fill="url(#paint0_radial_1_2655)"/>
<path d="M19.4546 48.0184C20.382 48.2642 21.0448 48.472 22.6069 48.6615C22.6069 48.6615 22.557 48.8195 22.2172 48.8068C22.0873 48.7984 22.0698 48.7661 22.0249 48.7584C21.9245 48.7402 21.7791 48.842 21.7939 49.0112C21.8093 49.1305 21.909 49.2786 22.2558 49.2786C22.6027 49.2786 23.0064 48.9964 23.2107 48.7324C23.2107 48.7324 23.4178 48.7809 23.6333 48.7914C23.6333 48.7914 22.9656 49.7238 21.6542 49.7238C20.2142 49.7238 19.6778 48.4312 19.4546 48.0184Z" fill="url(#paint1_radial_1_2655)"/>
<path d="M26.0752 40.3449C31.0487 40.3449 36.5585 37.2923 40.4269 32.8917C40.8482 32.4157 41.5538 31.5115 43.2338 31.5115C44.9167 31.5115 47.1535 33.0455 46.8916 35.8369C46.6964 37.8701 43.7906 42.4574 38.815 45.279C33.8408 48.1118 29.2584 48.7177 26.0752 48.7177C22.8893 48.7177 18.3111 48.1118 13.3341 45.279C8.35923 42.4574 5.45407 37.8701 5.2603 35.8369C4.99843 33.0455 7.23592 31.5115 8.91527 31.5115C10.5995 31.5115 11.3079 32.4157 11.7278 32.8917C15.5905 37.2923 21.1032 40.3449 26.0752 40.3449Z" fill="#FFE500" stroke="black" stroke-width="3.58054" stroke-miterlimit="3.863"/>
<path d="M26.0331 41.0216C21.0288 41.0216 15.3343 38.0687 11.1401 33.2919C10.7133 32.8068 10.1699 32.1826 8.87667 32.1826C8.12124 32.1826 7.26472 32.587 6.69675 33.2125C6.26919 33.6773 5.78967 34.4966 5.90481 35.7526C6.0712 37.4685 8.79032 41.909 13.6367 44.6668C17.543 46.8888 21.714 48.0114 26.0331 48.0114C30.3565 48.0114 34.5275 46.8888 38.4338 44.6668C43.2788 41.909 46.0021 37.4685 46.1622 35.7526C46.2822 34.4966 45.7992 33.6773 45.3772 33.2125C44.8065 32.587 43.9478 32.1826 43.1959 32.1826C41.8971 32.1826 41.3544 32.8068 40.9314 33.2919C36.7397 38.0687 31.0382 41.0216 26.0331 41.0216Z" fill="#DA020E"/>
<path d="M47.5605 16.1106L47.5781 14.9508C47.9354 15.2239 48.6073 15.2281 49.0005 14.809C49.1795 14.618 49.2813 14.3224 49.2666 14.0184C49.2497 13.6751 49.0938 13.3185 48.8376 13.0671C47.3857 11.6483 46.096 10.2315 46.096 10.2315C45.9626 10.0209 45.7541 9.86853 45.6333 9.81657C45.4557 9.73162 44.8239 9.44307 44.3422 10.1746C43.9077 10.8374 43.9723 11.7718 44.0558 12.113L45.4171 13.9686C45.8833 14.5597 47.1969 15.8171 47.5605 16.1106Z" fill="black"/>
<path d="M18.4633 4.08342C20.1771 3.50773 21.7441 3.03173 23.8559 2.84498L24.176 2.66525C22.9973 1.73501 21.8262 1.10034 20.6601 1.10034C19.9278 1.10034 18.438 1.59811 18.106 4.22664L18.4633 4.08342Z" fill="black"/>
<path d="M33.6905 4.08342C31.976 3.50773 30.4104 3.03173 28.3007 2.84498L27.9763 2.66525C29.16 1.73501 30.3282 1.10034 31.4958 1.10034C32.2288 1.10034 33.7122 1.59811 34.0513 4.22664L33.6905 4.08342Z" fill="black"/>
<path d="M24.1389 2.75776C25.0011 1.10018 25.7895 0.50061 26.2304 0.50061C26.7752 0.50061 27.4169 1.36696 27.921 2.48816L28.027 2.74231L27.584 2.70791C27.2933 2.65315 26.4656 2.64262 26.1496 2.64262C25.8253 2.64262 25.126 2.64262 24.7048 2.68193L24.1389 2.75776Z" fill="black"/>
<path d="M17.3408 40.1128L16.0926 42.3692C15.7155 43.0474 15.3273 43.4778 14.6905 43.1127C14.0636 42.7582 14.2089 42.2443 14.5936 41.5436L15.8454 39.2844L14.8359 38.7241L13.5132 41.1119C12.7851 42.4261 13.7013 43.2412 14.4188 43.6365C15.1848 44.0605 16.2997 44.3758 17.0214 43.0713L18.3532 40.6731L17.3408 40.1128ZM33.3929 44.7616L32.9724 43.467L34.2249 43.0626L34.0515 42.5241L32.7976 42.9306L32.4409 41.8242L33.7229 41.4036L33.5502 40.8708L31.2032 41.6339L32.5076 45.6441L35.0948 44.8051L34.9242 44.2702L33.3929 44.7616ZM36.0741 39.5719L34.6454 40.3955L36.7608 44.0638L38.1839 43.2409C39.6547 42.3928 39.7944 41.1081 39.2152 40.0774C38.518 38.8544 37.3674 38.8263 36.0741 39.5719ZM38.233 40.6882C38.7687 41.6269 38.6599 42.3114 37.8349 42.7839L37.4418 43.0128L35.8888 40.3295L36.3114 40.0844C37.3021 39.5151 37.8644 40.022 38.233 40.6882ZM26.804 42.4071L26.8806 42.9568L28.0614 42.7897L28.5718 46.4152L29.6699 46.2628L29.1609 42.6395L30.3242 42.478L30.2442 41.9206L26.804 42.4071ZM25.8043 42.4414L24.6985 42.381L24.4774 46.5934L25.5838 46.6524L25.8043 42.4414ZM22.447 41.9265L21.6768 44.8049L20.2355 41.3332L19.3389 41.0924L18.2465 45.1679L19.2231 45.427L19.9996 42.5246L21.4627 46.0258L22.3396 46.2624L23.4278 42.1855L22.447 41.9265Z" fill="#FFE500"/>
<path d="M16.6282 15.3305V35.0881L26.0752 41.1581L35.5216 35.0881L35.5356 15.3607C35.233 15.0939 34.6047 14.5091 34.1125 14.203H17.9944C17.5865 14.4894 16.7693 15.1789 16.6282 15.3305Z" fill="#FFE500"/>
<mask id="mask0_1_2655" style="mask-type:luminance" maskUnits="userSpaceOnUse" x="16" y="14" width="20" height="28">
<path d="M16.6282 15.3305V35.0881L26.0752 41.1581L35.5216 35.0881L35.5356 15.3607C35.233 15.0939 34.6047 14.5091 34.1125 14.203H17.9944C17.5865 14.4894 16.7693 15.1789 16.6282 15.3305Z" fill="white"/>
</mask>
<g mask="url(#mask0_1_2655)">
<g filter="url(#filter0_f_1_2655)">
<path d="M16.6282 7.3053L16.6282 15.3305V35.088L26.0752 41.1581L35.5216 35.088L35.5356 7.33549" stroke="#B54005" stroke-width="17.0667" stroke-miterlimit="3.863"/>
</g>
</g>
<path d="M29.8508 29.5061V28.7717C29.8508 28.7717 29.6557 28.4698 29.1719 28.4698C28.6896 28.4698 28.4011 28.6152 28.4011 28.7366C28.4011 28.9353 28.8328 29.5061 29.8508 29.5061ZM26.0414 23.0056L26.7716 21.7307L27.3437 23.0056H28.2915C27.7215 23.5406 27.4884 24.3501 27.4884 24.89V25.4783C27.4884 25.7283 27.3627 26.1418 27.3627 26.1418C27.3627 26.1418 28.1855 26.7687 28.3119 26.8775C28.3645 26.919 28.4221 26.9442 28.3842 27.0531C28.3189 27.2363 27.7601 27.4883 27.7032 27.5361C27.5768 27.6484 27.5438 27.7158 27.5768 27.8267C27.6168 27.9334 27.7215 27.9531 27.9356 27.8773C28.1518 27.8078 28.5997 27.5726 28.9753 27.4118C29.3496 27.2489 29.8508 27.2904 29.8508 27.2904V26.5707H28.4355V24.2841L28.1855 23.8811L28.8097 22.769L29.4373 23.8881L29.1902 24.2841V25.4783H29.9112V24.2841L29.6627 23.8881L30.2889 22.7775L30.9124 23.8881L30.6659 24.2841V25.4783H31.3919V24.2841L31.1349 23.8881L31.7633 22.7775L32.3895 23.8881L32.1396 24.2841L32.1515 26.5672H30.7249V27.6231C31.0486 27.9271 31.354 28.6152 31.354 29.0202C31.354 29.4352 31.0837 29.6107 31.0837 29.6107C31.1742 29.9364 31.1567 30.0719 31.1181 30.3668C31.0837 30.6666 30.7095 31.1342 30.7095 31.1342V36.5913C30.7095 36.962 29.8508 36.9255 29.8508 36.6089V31.257C29.365 30.7256 28.0423 30.3078 28.0423 30.3078C27.5572 30.793 27.2588 31.6354 27.2588 31.6354C27.4694 31.7829 27.7973 31.6354 27.9208 31.4922C28.0423 31.349 28.2915 31.3118 28.4354 31.4024C28.5766 31.4922 28.6117 31.5266 28.5632 31.7372C28.5078 31.9591 28.4193 32.3136 28.4193 32.5615C28.4193 32.8156 28.705 32.7588 28.9185 32.7777C29.3495 32.8156 29.4205 33.2972 29.3846 33.5661C29.3495 33.8364 29.2232 34.41 29.2232 34.7667C29.2232 35.1198 29.2421 35.4764 29.2772 35.6786C29.3144 35.8738 29.3846 36.0894 29.365 36.3414C29.3432 36.6805 29.1347 36.7346 28.9185 36.5169C28.705 36.3028 25.7163 33.1168 25.7163 33.1168C25.5176 33.7648 26.3447 34.8699 26.6115 35.2111C26.8804 35.5523 26.8628 35.8029 26.6276 36.0367C26.3973 36.2677 25.9487 36.3912 25.861 36.6089C25.7697 36.8195 26.0751 37.4682 26.7034 38.2728C27.3297 39.0759 25.9845 39.6151 25.1821 39.7759C24.374 39.9346 24.374 39.3799 24.4301 39.0759C24.4835 38.7748 24.4835 38.5915 24.4638 38.3268C24.4463 38.0572 24.1992 37.6837 23.8559 37.2365C23.5168 36.7872 23.5168 36.3786 23.6579 35.3374C23.8004 34.2991 23.7667 33.6363 23.7667 33.6363C23.7667 33.6363 23.4086 33.6511 22.8891 33.6363C22.3724 33.6167 21.9434 33.3169 21.9069 32.063C21.8711 30.8126 21.8416 27.8267 21.7567 27.5136C21.6738 27.204 21.3389 27.1471 21.1978 27.1057C21.0511 27.0692 21.0441 26.8579 21.1859 26.7821C21.5594 26.6002 22.0073 26.1418 21.8416 25.8567C21.6738 25.571 21.016 25.63 20.5758 25.8455C20.1342 26.0589 19.6687 26.5279 19.5487 26.6557C19.4328 26.7821 19.3324 26.7821 19.3451 26.6459C19.3598 26.4998 19.2636 25.8167 19.2068 25.5801C19.1436 25.3414 18.9301 24.89 18.8578 24.7706C18.7869 24.6506 18.8578 24.6043 18.9786 24.6506C19.0944 24.6983 19.3598 24.8086 19.609 24.8745C19.8604 24.9504 20.0998 24.8268 20.2142 24.5923C20.3336 24.3501 20.5667 23.8397 20.686 23.6115C20.8033 23.3862 20.9928 23.4367 21.1487 23.4711C21.3031 23.5076 21.4464 23.6031 21.5889 23.66C21.7307 23.7189 21.8493 23.7077 21.8999 23.6354C21.9483 23.5666 22.0073 23.5406 22.093 23.3623C22.1765 23.184 22.2804 23.2689 22.2938 23.3398C22.7206 25.9066 23.8327 26.0245 23.8327 26.0245C23.6656 26.4521 23.2738 27.1338 23.1812 27.3058C23.0808 27.4666 23.0436 27.6955 23.019 27.8731C23 28.05 23.0808 29.7455 23.1994 30.3668C23.3202 30.9888 23.7 30.7466 23.8236 30.5564C23.938 30.3668 24.3108 29.5777 24.3108 29.5777C24.3108 29.5777 24.4028 29.3629 24.4028 29.1845C24.4028 29.0048 24.0939 28.6152 24.023 28.4937C23.9492 28.3701 23.6888 28.1335 23.6888 27.5361C23.6888 26.9407 24.2251 26.5279 24.4182 26.3714C24.6092 26.2148 24.6092 25.9979 24.5832 25.8673C24.4997 25.4067 24.0103 24.4379 23.7751 24.0665C23.5343 23.6965 23.0695 22.9937 23.0695 22.9937H24.0356L24.6576 21.7019L25.3344 22.9993L26.0414 23.0056ZM25.8848 26.919C26.2001 26.398 26.3321 25.8567 26.3321 25.8567H25.4208C25.4208 25.8567 25.5668 26.4107 25.8848 26.919ZM24.9356 24.2925C24.9722 24.5593 25.1708 24.6611 25.3218 24.5832C25.472 24.5003 25.446 24.2841 25.3344 24.1114C25.2277 23.9422 25.0058 23.7533 24.9377 23.7814C24.8682 23.8102 24.9118 24.1353 24.9356 24.2925ZM26.7421 23.7814C26.6768 23.7533 26.443 23.9422 26.3321 24.1114C26.2253 24.2841 26.198 24.5003 26.3496 24.5832C26.4977 24.6611 26.6887 24.5572 26.7364 24.2925C26.7624 24.1353 26.8137 23.8102 26.7421 23.7814Z" fill="url(#paint2_linear_1_2655)"/>
<path d="M17.3694 20.256V21.4453H34.7988V20.256H33.5134V20.448H18.6547V20.256H17.3694Z" fill="#DA020E"/>
<path d="M17.3704 14.9114H34.7964V19.6503H17.3704V14.9114Z" fill="#DA020E"/>
<path d="M20.3646 18.2745L21.6992 18.6023L22.4196 16.5951V16.0868L20.3646 18.2745ZM31.3639 19.4577V18.8395H30.1044V18.32H31.1336V16.0284H30.1851L29.8608 15.3979L29.5442 16.0284H28.5929V18.32H29.6263V18.8395H27.1487V18.32H28.1793V16.0284H27.2294L26.9086 15.3979L26.5842 16.0284H25.6371V18.32H26.6727V18.8395H24.1438V18.32H25.1766V16.0284H24.2253L23.9072 15.3979L23.5808 16.0284H22.633V18.32H23.6692V18.8395L21.6683 18.8458L19.678 18.381L20.0768 19.4577L31.3639 19.4577Z" fill="#FFE500"/>
<path d="M18.5623 3.89656C20.2444 3.3335 21.5159 2.8947 23.5877 2.71076C22.6329 2.04801 21.7855 1.48706 20.811 1.48706C20.2985 1.48706 19.8604 1.68294 19.7593 2.04099C19.6652 2.36675 19.9222 2.50857 20.0134 2.48681C20.1089 2.46223 20.177 2.43415 20.1538 2.34569C20.1293 2.25232 20.2016 2.01501 20.5273 2.01501C20.8587 2.01501 20.9837 2.32182 20.9837 2.53244C20.9837 2.74306 20.6495 3.0948 20.0352 3.0948C19.4328 3.0948 19.1239 2.69321 19.1471 2.32182C18.8564 2.74727 18.6872 3.17764 18.5623 3.89656Z" fill="url(#paint3_radial_1_2655)"/>
<path d="M6.84072 13.9683L8.20694 12.1127C8.28557 11.7715 8.34806 10.8377 7.91137 10.175C7.43396 9.44274 6.80491 9.732 6.62027 9.81695C6.50372 9.8689 6.2917 10.0205 6.16111 10.2319C6.16111 10.2319 4.84754 11.6781 3.40198 13.1012C3.19768 13.3041 2.97302 13.6748 2.95406 14.0181C2.93651 14.3228 3.05937 14.6289 3.23629 14.8199C3.63155 15.2411 4.3224 15.2243 4.67554 14.9505L4.7001 16.1103C5.06378 15.8175 6.37525 14.5594 6.84072 13.9683Z" fill="black"/>
<path d="M26.0752 11.2679C33.8542 11.2679 38.28 18.5694 39.2461 19.8514C40.9619 22.1415 43.0625 24.0006 45.4966 23.3863C49.0722 22.4715 48.8862 17.1751 48.8862 17.1751C48.0233 16.5538 46.5532 15.7717 43.8727 11.9721C41.2477 8.24764 35.3075 2.7301 26.0752 2.7301C16.8409 2.7301 10.9021 8.24764 8.28341 11.9721C5.6001 15.7717 4.12505 16.5538 3.27063 17.1751C3.27063 17.1751 3.07756 22.4715 6.65601 23.3863C9.08868 24.0006 11.1879 22.1415 12.9065 19.8514C13.8691 18.5694 18.2977 11.2679 26.0752 11.2679Z" fill="#FFE500" stroke="black" stroke-width="3.58054" stroke-miterlimit="3.863"/>
<path d="M26.0752 10.5747C33.5747 10.5747 38.0349 16.9361 39.6479 19.2315C41.7826 22.0808 43.5897 23.1564 45.3259 22.7148C47.8351 22.0759 48.1468 18.6224 48.1805 17.5771V17.5356L48.1524 17.5139C47.2678 16.901 45.7879 15.8851 43.3082 12.3698C41.8289 10.2707 36.213 3.41638 26.0752 3.41638C15.9408 3.41638 10.32 10.2707 8.84147 12.3698C6.38213 15.8626 4.83547 16.9276 4.00703 17.4963L3.97192 17.5251L3.97614 17.5616C4.00984 18.6091 4.32226 22.0808 6.82514 22.7148C8.56346 23.1564 10.3741 22.0808 12.5031 19.2315C14.1147 16.9361 18.5792 10.5747 26.0752 10.5747Z" fill="#DA020E"/>
<path d="M22.0012 5.26056C20.6252 5.55192 19.7188 6.5664 20.0158 7.94175C20.1885 8.68454 20.8512 10.0515 22.9476 9.60565C23.5296 9.49472 23.8442 9.26304 24.1489 8.97168L23.7669 8.53289C23.623 8.69296 23.4082 8.92604 22.9258 9.02644C21.9114 9.24057 21.3083 8.41985 21.158 7.71147C20.9348 6.66188 21.5463 5.93875 22.2371 5.78921C22.7307 5.68039 23.0298 5.81449 23.2193 5.8882H23.2256L23.3541 5.35042C23.0213 5.21703 22.6218 5.12857 22.0012 5.26056ZM33.5095 11.3112C34.2966 11.7851 35.1552 11.7044 35.5568 11.0395C35.8488 10.5748 35.8516 10.1886 35.5006 9.49711C35.41 9.30123 35.2914 9.16082 35.2121 8.98249C35.0569 8.69324 34.9137 8.45664 35.0471 8.23268C35.1945 7.98977 35.5357 7.97011 35.8446 8.15897C36.1683 8.35484 36.3024 8.6785 36.3705 8.89965L36.8781 8.6806C36.7222 8.26357 36.4912 7.88937 35.9633 7.57695C35.0611 7.03356 34.3275 7.17677 34.0221 7.68577C33.7124 8.19758 33.8002 8.62373 34.0333 9.06042C34.0333 9.06042 34.1779 9.30825 34.2614 9.47745C34.4658 9.81865 34.7037 10.249 34.5367 10.5179C34.3345 10.857 33.9862 10.9307 33.6471 10.7201C33.2126 10.4463 33.1108 10.1276 33.0202 9.81655L32.462 10.0552C32.5849 10.4835 32.8735 10.9272 33.5095 11.3112ZM27.5012 5.03919L27.4696 6.75785L25.817 6.73399L25.8415 5.00901L24.7337 4.98865L24.66 9.20596L25.7699 9.22983L25.805 7.29634L27.4605 7.32653L27.4289 9.25651L28.5375 9.27336L28.6098 5.05604L27.5012 5.03919ZM43.3729 18.4309C43.3806 18.4414 44.023 18.7588 44.737 18.1178C45.3338 17.5814 45.1337 16.8463 44.5103 16.1562L43.361 14.8791L40.2276 17.7029L40.9683 18.5243L42.2159 17.4052L42.5761 17.8117L41.7862 19.5935L42.7319 20.3489L43.3729 18.4309ZM43.9325 16.3535C44.2259 16.6792 44.2308 17.0661 43.8896 17.3666C43.5576 17.6727 43.1335 17.6025 42.8113 17.2486L42.6238 17.0387L43.6846 16.0804L43.9325 16.3535ZM39.0425 15.2761L40.0921 14.4048L40.9339 15.4067L41.3692 15.0437L40.5225 14.0377L41.4106 13.2899L42.2777 14.3227L42.708 13.9639L41.1242 12.0761L37.8954 14.7875L39.6393 16.8691L40.0746 16.5075L39.0425 15.2761ZM37.8322 8.93889L37.4559 9.35171L38.3405 10.1514L35.8889 12.8712L36.7159 13.6147L39.164 10.8941L40.0374 11.6805L40.4123 11.2676L37.8322 8.93889ZM30.6128 9.20624L31.0593 7.92005L32.3013 8.34831L32.4859 7.81334L31.2419 7.38578L31.6203 6.28424L32.9001 6.72303L33.0799 6.19087L30.7483 5.3884L29.3779 9.38245L31.9474 10.2621L32.13 9.72998L30.6128 9.20624ZM17.2601 7.13999L18.844 9.66462L15.3175 8.34825L14.5326 8.8411L16.7687 12.4237L17.6203 11.8874L16.0259 9.33675L19.5889 10.6594L20.3584 10.1771L18.1181 6.59659L17.2601 7.13999ZM12.3274 10.9549L11.6064 11.7286L13.6276 15.748L14.1212 15.22L13.5722 14.1508L14.5481 13.1012L15.6545 13.5701L16.4675 12.6996L12.3274 10.9549ZM14.032 12.8688L13.2998 13.6551L12.5472 12.2088L14.032 12.8688ZM9.94529 13.5055L9.16037 14.4399L10.627 17.4729L7.48173 16.4429L6.80493 17.2447L10.0366 19.9582L10.5273 19.3755L8.24347 17.4532L11.3045 18.4501L11.6267 18.0682L10.1671 15.1434L12.4608 17.0664L13.1769 16.219L9.94529 13.5055Z" fill="#FFE500"/>
<path d="M5.00815 15.6545L5.00464 14.7243C6.59202 13.2668 7.34042 11.8023 7.34042 11.8023C7.34042 11.8023 6.75701 11.5825 6.49584 11.2504C6.36666 11.0658 6.31681 10.8138 6.33857 10.6446C6.38912 10.3272 6.63625 10.1664 6.72049 10.1299C6.90303 10.0513 7.24213 9.87298 7.61985 10.3925C8.02213 10.9549 7.91612 12.022 7.86066 12.2677C7.86066 12.2677 7.12068 13.556 5.00815 15.6545Z" fill="url(#paint4_radial_1_2655)"/>
<path d="M6.76469 11.9719C6.55055 12.3454 6.01066 13.2469 4.64513 14.5267C4.41837 14.7395 3.8525 14.9199 3.53166 14.5597C3.4116 14.42 3.33227 14.2241 3.3442 13.9967C3.35965 13.7334 3.51761 13.4273 3.67628 13.2925C3.95149 13.0601 5.12465 11.8757 5.95871 10.9441C5.98188 11.114 6.12791 11.3983 6.12791 11.3983C6.24305 11.557 6.38346 11.7852 6.76469 11.9719Z" fill="url(#paint5_linear_1_2655)"/>
<path d="M26.0331 41.0216C21.0288 41.0216 15.3343 38.0687 11.1401 33.2919C10.7133 32.8068 10.1699 32.1826 8.87667 32.1826C8.12124 32.1826 7.26472 32.587 6.69675 33.2125C6.26919 33.6773 5.78967 34.4966 5.90481 35.7526C6.0712 37.4685 8.79032 41.909 13.6367 44.6668C17.543 46.8888 21.714 48.0114 26.0331 48.0114" fill="url(#paint6_linear_1_2655)"/>
<path d="M26.0332 41.0216C31.0376 41.0216 36.732 38.0687 40.9262 33.2919C41.3531 32.8068 41.8965 32.1826 43.1897 32.1826C43.9451 32.1826 44.8016 32.587 45.3696 33.2125C45.7971 33.6773 46.2767 34.4966 46.1615 35.7526C45.9951 37.4685 43.276 41.909 38.4296 44.6668C34.5233 46.8888 30.3523 48.0114 26.0332 48.0114" fill="url(#paint7_linear_1_2655)"/>
<path d="M39.6479 19.2315C41.7826 22.0809 43.5897 23.1564 45.3259 22.7148C47.8351 22.0759 48.1469 18.6225 48.1806 17.5771V17.5357L48.1525 17.5139C47.2679 16.901 45.7879 15.8851 43.3082 12.3699" fill="url(#paint8_linear_1_2655)"/>
<path d="M12.5094 19.2315C10.3748 22.0809 8.56763 23.1564 6.83142 22.7148C4.32222 22.0759 4.0105 18.6225 3.97681 17.5771V17.5357L4.00488 17.5139C4.88949 16.901 6.36946 15.8851 8.84916 12.3699" fill="url(#paint9_linear_1_2655)"/>
<path d="M33.595 3.89656C31.9128 3.3335 30.6414 2.8947 28.5696 2.71076C29.5244 2.04801 30.3718 1.48706 31.3463 1.48706C31.8588 1.48706 32.2969 1.68294 32.398 2.04099C32.492 2.36675 32.2351 2.50857 32.1438 2.48681C32.0483 2.46223 31.9802 2.43415 32.0034 2.34569C32.028 2.25232 31.9557 2.01501 31.6299 2.01501C31.2985 2.01501 31.1736 2.32182 31.1736 2.53244C31.1736 2.74306 31.5077 3.0948 32.122 3.0948C32.7244 3.0948 33.0333 2.69321 33.0102 2.32182C33.3008 2.74727 33.47 3.17764 33.595 3.89656Z" fill="url(#paint10_radial_1_2655)"/>
<path d="M26.1541 1.68857C26.1015 2.01012 25.7315 2.31832 25.3573 2.31832C24.9824 2.31832 24.87 2.25795 24.87 2.25795C24.8132 2.34641 24.7633 2.41451 24.7043 2.50999C25.0441 2.49664 25.8326 2.47489 26.1485 2.47489C26.4637 2.47489 27.3378 2.52052 27.526 2.53386C27.222 1.82126 26.6357 0.834861 26.2306 0.834861C26.2166 0.834861 26.199 0.833496 26.1773 0.833496C26.0825 0.833496 25.7542 1.11815 25.5783 1.3681C25.3472 1.69647 26.1541 1.68857 26.1541 1.68857Z" fill="url(#paint11_radial_1_2655)"/>
<path d="M47.1492 15.6545L47.1527 14.7243C45.5653 13.2668 44.8169 11.8023 44.8169 11.8023C44.8169 11.8023 45.4003 11.5825 45.6615 11.2504C45.7907 11.0658 45.8405 10.8138 45.8188 10.6446C45.7682 10.3272 45.5211 10.1664 45.4368 10.1299C45.2543 10.0513 44.9152 9.87298 44.5375 10.3925C44.1352 10.9549 44.2412 12.022 44.2967 12.2677C44.2967 12.2677 45.0367 13.556 47.1492 15.6545Z" fill="url(#paint12_radial_1_2655)"/>
<path d="M45.3926 11.9719C45.6067 12.3454 46.1466 13.2469 47.5121 14.5267C47.7389 14.7395 48.3048 14.9199 48.6256 14.5597C48.7457 14.42 48.825 14.2241 48.8131 13.9967C48.7976 13.7334 48.6397 13.4273 48.481 13.2925C48.2058 13.0601 47.0326 11.8757 46.1986 10.9441C46.1754 11.114 46.0294 11.3983 46.0294 11.3983C45.9142 11.557 45.7738 11.7852 45.3926 11.9719Z" fill="url(#paint13_linear_1_2655)"/>
<path d="M16.6282 15.3305V35.0881L26.0752 41.1581L35.5216 35.0881L35.5356 15.3607C35.233 15.0939 34.6047 14.5091 34.1125 14.203H17.9944C17.5865 14.4894 16.7693 15.1789 16.6282 15.3305Z" stroke="black" stroke-width="3.58054" stroke-miterlimit="3.863"/>
<path d="M33.0015 48.0184C32.074 48.2642 31.4113 48.472 29.8492 48.6615C29.8492 48.6615 29.899 48.8195 30.2388 48.8068C30.3687 48.7984 30.3863 48.7661 30.4312 48.7584C30.5316 48.7402 30.6769 48.842 30.6622 49.0112C30.6467 49.1305 30.547 49.2786 30.2002 49.2786C29.8534 49.2786 29.4497 48.9964 29.2454 48.7324C29.2454 48.7324 29.0383 48.7809 28.8228 48.7914C28.8228 48.7914 29.4904 49.7238 30.8019 49.7238C32.2418 49.7238 32.7782 48.4312 33.0015 48.0184Z" fill="url(#paint14_radial_1_2655)"/>
<path d="M1.54492 27.7379C1.54492 25.3544 3.47912 23.416 5.86545 23.416C8.25249 23.416 10.1853 25.3544 10.1853 27.7379C10.1853 30.1257 8.25249 32.0599 5.86545 32.0599C3.47912 32.0599 1.54492 30.1257 1.54492 27.7379Z" fill="#FFE500" stroke="black" stroke-width="3.58054" stroke-miterlimit="3.863"/>
<path d="M2.53394 27.5772C2.53394 25.7701 4.02532 24.3004 5.86533 24.3004C7.70588 24.3004 9.19618 25.7701 9.19618 27.5772C9.19618 29.3875 7.70588 30.854 5.86533 30.854C4.02532 30.854 2.53394 29.3875 2.53394 27.5772Z" fill="url(#paint15_radial_1_2655)"/>
<path d="M6.78304 30.7083C6.59349 30.7687 6.51134 30.636 6.42499 30.5405C6.0887 30.1537 6.00234 29.1237 6.00234 28.9875C6.00234 28.8506 6.05289 28.7004 6.14908 28.6969C6.95997 28.6814 7.53918 28.4462 8.07064 28.0046C8.60141 27.5708 8.83168 27.073 8.87872 26.9845C8.92506 26.8863 9.03528 26.9038 9.05564 27.04C9.07811 27.1537 9.12094 27.358 9.12094 27.5792C9.12094 29.0634 8.12049 30.2758 6.78304 30.7083ZM5.92722 30.8424C5.90405 30.8424 5.87808 30.8452 5.85632 30.8452C5.25885 30.8452 4.60101 30.617 4.21137 30.3952C3.80768 30.1754 3.65603 29.1392 3.65603 28.6154C3.65603 26.9101 4.35529 25.8949 4.46902 25.6956C4.57995 25.4934 4.82989 25.4723 5.01313 25.5214C5.20269 25.5762 5.27009 25.6092 5.48843 25.6738C5.60217 25.711 5.83314 25.758 6.00656 25.7889C6.17997 25.8304 6.36672 25.8669 6.25439 26.1905C6.14346 26.5149 5.76575 27.2942 5.72784 28.2181C5.69133 29.0542 5.80226 29.8848 5.99111 30.3952C6.11538 30.7252 6.11538 30.8487 5.92722 30.8424ZM3.45875 26.9494C3.29938 26.8652 3.10771 26.4538 3.04312 26.3337C2.99959 26.2474 2.9996 26.0003 3.06208 25.8949C3.32887 25.4281 3.70728 24.9956 4.19452 24.7702C4.25419 24.7443 4.33774 24.7393 4.33774 24.8826C4.33774 24.9591 4.37916 25.0784 4.38057 25.1543C4.38057 25.2308 4.41286 25.3873 4.31598 25.5109C4.21418 25.6352 3.77819 26.4082 3.66656 26.8413C3.64831 26.9382 3.61882 27.04 3.45875 26.9494ZM3.36888 29.6861C2.91675 29.2396 2.5945 28.4308 2.5945 27.5792C2.5945 27.2485 2.64364 26.9319 2.7314 26.6314C2.7314 26.6314 2.81214 26.4966 2.88235 26.611C2.93641 26.6953 3.01083 26.7802 3.07121 26.8926C3.1386 27.0049 3.48824 27.271 3.45875 27.4879C3.33659 28.2848 3.44612 29.3435 3.48402 29.5218C3.51772 29.698 3.46928 29.7732 3.36888 29.6861ZM4.79619 24.4922C5.13107 24.3813 5.48843 24.3188 5.85632 24.3188C6.41586 24.3188 6.95926 24.4206 7.4128 24.7099C7.52934 24.7857 7.56234 24.8741 7.56234 25.0054C7.56234 25.433 6.89397 25.5762 6.45167 25.5762C6.00655 25.5762 5.45894 25.4 5.0714 25.2771C4.68526 25.1564 4.60101 24.9331 4.60101 24.8313C4.60101 24.7337 4.67613 24.5315 4.79619 24.4922ZM7.81368 24.9675C7.87336 25.016 8.03132 25.1437 8.03132 25.1437C8.34304 25.4281 8.62457 25.7524 8.78816 26.1414C8.99246 26.6314 8.35849 27.3735 8.17244 27.5448C7.33276 28.3332 6.80692 28.3185 6.50924 28.3613C6.21156 28.4048 6.01849 28.2181 6.02621 27.9941C6.04517 27.3384 6.51205 26.2081 6.64614 25.9953C6.73179 25.8584 6.88063 25.7735 6.88063 25.7735C7.19235 25.6871 7.49494 25.5572 7.65151 25.3789C7.80456 25.1978 7.81368 24.9675 7.81368 24.9675ZM5.88861 24.1061C3.88139 24.1061 2.2561 25.7321 2.2561 27.7379C2.2561 29.7451 3.88139 31.3704 5.88861 31.3704C7.89442 31.3704 9.52322 29.7451 9.52322 27.7379C9.52322 25.7321 7.89442 24.1061 5.88861 24.1061Z" fill="#DA020E"/>
<path d="M42.0557 27.7296C42.0557 25.3461 43.9899 23.4147 46.3762 23.4147C48.7639 23.4147 50.6967 25.3461 50.6967 27.7296C50.6967 30.1173 48.7639 32.0522 46.3762 32.0522C43.9899 32.0522 42.0557 30.1173 42.0557 27.7296Z" fill="#FFE500" stroke="black" stroke-width="3.58054" stroke-miterlimit="3.863"/>
<path d="M48.9064 29.6712C48.8116 29.7646 48.7583 29.6831 48.7983 29.5083C48.8313 29.3349 48.9415 28.2727 48.8186 27.4758C48.7884 27.2596 49.1402 26.9942 49.2048 26.8805C49.2694 26.7689 49.3431 26.6818 49.395 26.6004C49.4673 26.4824 49.5439 26.6144 49.5439 26.6144C49.6365 26.9184 49.6815 27.2364 49.6815 27.5657C49.6815 28.4201 49.355 29.2261 48.9064 29.6712ZM48.6136 26.8299C48.5013 26.3982 48.0625 25.6217 47.9635 25.4981C47.8638 25.3788 47.8954 25.2201 47.8968 25.1436C47.8968 25.0678 47.9403 24.9463 47.9403 24.8677C47.9403 24.7308 48.0232 24.7336 48.0822 24.7596C48.5722 24.9849 48.9485 25.4111 49.2181 25.8822C49.2778 25.9896 49.2792 26.2353 49.2349 26.3188C49.1718 26.4396 48.9815 26.851 48.8186 26.9381C48.6557 27.0272 48.6319 26.9233 48.6136 26.8299ZM48.0681 30.3831C47.6778 30.6014 47.0199 30.8317 46.4197 30.8317H46.3501C46.1655 30.8366 46.1613 30.7082 46.2877 30.3796C46.4709 29.8734 46.5853 29.0393 46.5474 28.2053C46.5095 27.2772 46.1367 26.5063 46.0209 26.1798C45.9086 25.8562 46.096 25.8169 46.2715 25.7804C46.4456 25.746 46.6759 25.6954 46.7903 25.6589C47.0052 25.5936 47.0747 25.5606 47.2642 25.5065C47.4489 25.4588 47.6974 25.4827 47.8105 25.68C47.9214 25.8822 48.622 26.9037 48.622 28.6048C48.622 29.1257 48.469 30.1605 48.0681 30.3831ZM45.4964 30.6948C44.1555 30.2602 43.1571 29.0485 43.1571 27.5657C43.1571 27.3474 43.2 27.1452 43.2175 27.0272C43.2435 26.891 43.346 26.8686 43.3972 26.969C43.4443 27.0602 43.6774 27.5573 44.2053 27.9926C44.7403 28.4307 45.3139 28.6701 46.1297 28.6869C46.2287 28.6918 46.275 28.8372 46.275 28.9769C46.275 29.1152 46.1915 30.143 45.8566 30.527C45.7674 30.6253 45.6818 30.7601 45.4964 30.6948ZM43.4927 26.13C43.6521 25.741 43.935 25.4111 44.2468 25.1331C44.2468 25.1331 44.4012 25.0025 44.4609 24.9568C44.4609 24.9568 44.4735 25.1892 44.6287 25.3633C44.7831 25.5388 45.0829 25.6765 45.3946 25.7586C45.3946 25.7586 45.5414 25.8478 45.6291 25.9847C45.7674 26.1911 46.2308 27.32 46.2512 27.9806C46.2568 28.2053 46.0658 28.392 45.7674 28.3492C45.4684 28.3092 44.9439 28.3183 44.1049 27.5341C43.9196 27.3621 43.2856 26.6214 43.4927 26.13ZM44.8632 24.6978C45.323 24.4071 45.8594 24.3053 46.4197 24.3053C46.7903 24.3053 47.1428 24.3685 47.4805 24.4794C47.6047 24.518 47.6778 24.7181 47.6778 24.8185C47.6778 24.9175 47.5956 25.1436 47.2067 25.265C46.8191 25.3844 46.2736 25.5627 45.8292 25.5627C45.382 25.5627 44.7157 25.4174 44.7157 24.9919C44.7157 24.8635 44.748 24.7701 44.8632 24.6978ZM46.3852 24.0968C44.3801 24.0968 42.7542 25.7235 42.7542 27.7244C42.7542 29.7365 44.3801 31.3569 46.3852 31.3569C48.3939 31.3569 50.0199 29.7365 50.0199 27.7244C50.0199 25.7235 48.3939 24.0968 46.3852 24.0968Z" fill="#DA020E"/>
<path d="M43.0942 27.5612C43.0942 25.7541 44.5856 24.2844 46.4256 24.2844C48.2662 24.2844 49.7565 25.7541 49.7565 27.5612C49.7565 29.3715 48.2662 30.838 46.4256 30.838C44.5856 30.838 43.0942 29.3715 43.0942 27.5612Z" fill="url(#paint16_radial_1_2655)"/>
</g>
<defs>
<filter id="filter0_f_1_2655" x="-2.45731" y="-3.24673" width="57.0782" height="65.1" filterUnits="userSpaceOnUse" color-interpolation-filters="sRGB">
<feFlood flood-opacity="0" result="BackgroundImageFix"/>
<feBlend mode="normal" in="SourceGraphic" in2="BackgroundImageFix" result="shape"/>
<feGaussianBlur stdDeviation="5.27602" result="effect1_foregroundBlur_1_2655"/>
</filter>
<radialGradient id="paint0_radial_1_2655" cx="0" cy="0" r="1" gradientUnits="userSpaceOnUse" gradientTransform="translate(26.1947 49.4545) scale(1.69294 1.25848)">
<stop stop-color="#FFE500"/>
<stop offset="0.5" stop-color="#FFE500"/>
<stop offset="1" stop-color="#E15007"/>
</radialGradient>
<radialGradient id="paint1_radial_1_2655" cx="0" cy="0" r="1" gradientUnits="userSpaceOnUse" gradientTransform="translate(21.5439 48.8711) scale(1.79014 1.60957)">
<stop stop-color="#FFE500"/>
<stop offset="0.5" stop-color="#FFE500"/>
<stop offset="1" stop-color="#E15007"/>
</radialGradient>
<linearGradient id="paint2_linear_1_2655" x1="25.5877" y1="21.6416" x2="25.5877" y2="31.0396" gradientUnits="userSpaceOnUse">
<stop stop-color="#8F0904"/>
<stop offset="0.249601" stop-color="#B40509"/>
<stop offset="1" stop-color="#DA020E"/>
</linearGradient>
<radialGradient id="paint3_radial_1_2655" cx="0" cy="0" r="1" gradientUnits="userSpaceOnUse" gradientTransform="translate(20.6978 2.7974) scale(2.04666 1.94871)">
<stop stop-color="#FFE500"/>
<stop offset="0.5" stop-color="#FFE500"/>
<stop offset="1" stop-color="#E15007"/>
</radialGradient>
<radialGradient id="paint4_radial_1_2655" cx="0" cy="0" r="1" gradientUnits="userSpaceOnUse" gradientTransform="translate(5.82026 13.1865) rotate(-60.2729) scale(3.19363 2.80937)">
<stop stop-color="#FFE500"/>
<stop offset="0.5" stop-color="#FFE500"/>
<stop offset="1" stop-color="#E15007"/>
</radialGradient>
<linearGradient id="paint5_linear_1_2655" x1="5.39103" y1="11.916" x2="6.16735" y2="12.7693" gradientUnits="userSpaceOnUse">
<stop stop-color="#FFE500"/>
<stop offset="0.5" stop-color="#FFE500"/>
<stop offset="1" stop-color="#E15007"/>
</linearGradient>
<linearGradient id="paint6_linear_1_2655" x1="7.1546" y1="33.0976" x2="12.5169" y2="39.2523" gradientUnits="userSpaceOnUse">
<stop stop-color="#740703"/>
<stop offset="1" stop-color="#DA020E" stop-opacity="0"/>
</linearGradient>
<linearGradient id="paint7_linear_1_2655" x1="44.9117" y1="33.0976" x2="39.5494" y2="39.2523" gradientUnits="userSpaceOnUse">
<stop stop-color="#740703"/>
<stop offset="1" stop-color="#DA020E" stop-opacity="0"/>
</linearGradient>
<linearGradient id="paint8_linear_1_2655" x1="46.9013" y1="21.7715" x2="43.9992" y2="19.0408" gradientUnits="userSpaceOnUse">
<stop stop-color="#740703"/>
<stop offset="1" stop-color="#DA020E" stop-opacity="0"/>
</linearGradient>
<linearGradient id="paint9_linear_1_2655" x1="5.25605" y1="21.7715" x2="8.32881" y2="18.5288" gradientUnits="userSpaceOnUse">
<stop stop-color="#740703"/>
<stop offset="1" stop-color="#DA020E" stop-opacity="0"/>
</linearGradient>
<radialGradient id="paint10_radial_1_2655" cx="0" cy="0" r="1" gradientUnits="userSpaceOnUse" gradientTransform="translate(31.4594 2.7974) rotate(180) scale(2.04666 1.94871)">
<stop stop-color="#FFE500"/>
<stop offset="0.5" stop-color="#FFE500"/>
<stop offset="1" stop-color="#E15007"/>
</radialGradient>
<radialGradient id="paint11_radial_1_2655" cx="0" cy="0" r="1" gradientUnits="userSpaceOnUse" gradientTransform="translate(26.0787 1.84961) scale(1.54623 1.47792)">
<stop stop-color="#FFE500"/>
<stop offset="0.5" stop-color="#FFE500"/>
<stop offset="1" stop-color="#E15007"/>
</radialGradient>
<radialGradient id="paint12_radial_1_2655" cx="0" cy="0" r="1" gradientUnits="userSpaceOnUse" gradientTransform="translate(46.3371 13.1865) rotate(-119.727) scale(3.19363 2.80937)">
<stop stop-color="#FFE500"/>
<stop offset="0.5" stop-color="#FFE500"/>
<stop offset="1" stop-color="#E15007"/>
</radialGradient>
<linearGradient id="paint13_linear_1_2655" x1="46.7662" y1="11.916" x2="45.9899" y2="12.7693" gradientUnits="userSpaceOnUse">
<stop stop-color="#FFE500"/>
<stop offset="0.5" stop-color="#FFE500"/>
<stop offset="1" stop-color="#E15007"/>
</linearGradient>
<radialGradient id="paint14_radial_1_2655" cx="0" cy="0" r="1" gradientUnits="userSpaceOnUse" gradientTransform="translate(30.9121 48.8711) rotate(180) scale(1.79014 1.60957)">
<stop stop-color="#FFE500"/>
<stop offset="0.5" stop-color="#FFE500"/>
<stop offset="1" stop-color="#E15007"/>
</radialGradient>
<radialGradient id="paint15_radial_1_2655" cx="0" cy="0" r="1" gradientUnits="userSpaceOnUse" gradientTransform="translate(5.86506 27.5772) scale(3.33112 3.27679)">
<stop stop-color="#DA030E" stop-opacity="0"/>
<stop offset="0.875" stop-color="#DA020E" stop-opacity="0"/>
<stop offset="1" stop-color="#DA020E"/>
</radialGradient>
<radialGradient id="paint16_radial_1_2655" cx="0" cy="0" r="1" gradientUnits="userSpaceOnUse" gradientTransform="translate(46.4254 27.5612) scale(3.33112 3.27679)">
<stop stop-color="#DA030E" stop-opacity="0"/>
<stop offset="0.875" stop-color="#DA020E" stop-opacity="0"/>
<stop offset="1" stop-color="#DA020E"/>
</radialGradient>
<clipPath id="clip0_1_2655">
<rect width="50.542" height="51.2" fill="white" transform="translate(0.820068)"/>
</clipPath>
</defs>
</svg>
