<svg width="39" height="39" viewBox="0 0 51 51" fill="none" xmlns="http://www.w3.org/2000/svg">
<path d="M39.7593 33.0424C39.7593 33.0424 39.7593 33.0612 39.7593 33.0759C39.7593 33.0679 39.7593 33.0571 39.7593 33.0424Z" fill="white" stroke="white" stroke-width="7.43253" stroke-miterlimit="3.864"/>
<path d="M39.7593 33.0773C39.7606 33.1162 39.7593 33.1001 39.7593 33.0773Z" fill="white" stroke="white" stroke-width="7.43253" stroke-miterlimit="3.864"/>
<path d="M39.7593 33.0773C39.7606 33.1162 39.7593 33.1001 39.7593 33.0773Z" fill="#231F20"/>
<path fill-rule="evenodd" clip-rule="evenodd" d="M48.7199 35.5914C48.2665 34.765 48.3483 33.461 47.1959 33.2168C45.9965 33.1819 44.7058 33.6474 43.6338 34.2995C43.2152 34.718 43.7854 35.0789 43.8082 35.4868C43.937 36.0677 44.2282 36.5802 44.2859 37.1853C44.0189 37.2778 43.7506 37.4066 43.4715 37.4764C43.2381 37.5582 43.0408 37.4415 42.8892 37.302C42.2023 36.9881 41.5155 37.3489 40.9453 37.6387C40.7011 38.0345 40.2356 37.6978 39.8867 37.8373C38.8859 37.895 37.6409 37.8722 36.8023 38.6409C36.2322 39.199 36.8372 39.8511 36.7782 40.4789C35.2085 40.8989 33.6589 41.3751 32.0074 41.5965C31.5539 41.6783 31.0763 41.736 30.6108 41.8058C29.1564 42.0271 27.6659 42.1895 26.2706 42.2244L26.2237 42.1787C26.2358 42.1197 26.2934 42.0741 26.2706 42.0043C27.2701 40.758 28.6909 39.8041 30.0755 39.1172C30.274 39.0125 30.4592 38.8502 30.6805 38.7804C30.8549 38.547 31.1232 38.5698 31.3097 38.3498C32.4971 37.6159 33.7998 36.7546 34.4048 35.4398C34.5913 35.1608 34.6369 34.8348 34.755 34.5195C34.8476 34.2404 34.8476 33.9963 34.9401 33.7172C35.2313 34.4269 35.2782 35.311 36.0349 35.731C36.9767 36.4407 38.2003 36.6258 39.3514 36.2193C40.8406 35.6371 41.6563 34.0311 41.7958 32.5071C41.8656 32.3085 42.0977 32.2736 42.1567 32.0764C41.9474 31.8899 41.8414 31.5988 41.9474 31.3425C42.0279 31.0756 42.413 31.1225 42.4479 30.8421C42.3768 30.7724 42.2841 30.7496 42.2023 30.6919C41.9232 30.4933 41.7717 30.1794 41.8414 29.8413C41.8656 29.5743 42.2144 29.4697 42.26 29.2134C42.0507 29.1436 41.8066 29.1088 41.6791 28.9223C41.6791 28.8284 41.7958 28.7828 41.8656 28.7599C42.5753 28.6311 43.7505 28.387 44.263 29.1893C45.0197 30.1217 44.0766 31.1681 44.1464 32.169C44.2282 32.3903 44.1584 32.7284 44.3905 32.8438C44.3905 32.0295 45.2062 31.8094 45.6476 31.2272L45.7643 31.4016C46.0434 30.983 45.7053 30.3538 46.0554 29.9459C46.1601 29.8762 46.2647 30.0157 46.3694 29.9459V29.8185C46.0783 29.5515 46.0903 29.1665 46.0313 28.8056C46.0662 28.6311 46.2754 28.7479 46.3465 28.6083C46.1373 28.4688 45.9736 28.2354 45.869 28.0033C45.7992 27.5726 45.3806 27.3043 45.0654 27.0843L45.2867 26.8159C45.3685 26.5825 45.5322 26.3732 45.6248 26.1411C45.3686 26.0714 45.0546 26.0016 44.8212 25.8258C45.229 25.198 45.1821 24.3366 45.2062 23.6967L45.0895 23.7665C45.0305 23.3358 45.0197 22.8595 44.8212 22.5094C44.7286 22.5335 44.7984 22.6838 44.6816 22.6489C44.4603 22.1834 44.2859 21.6722 43.878 21.2992C43.6808 21.2523 43.8552 21.4736 43.7398 21.5085C43.3789 21.2523 43.2032 20.8807 43.1576 20.4728C43.0529 20.4728 43.0287 20.5774 43.0059 20.6472C42.8436 21.8694 43.4138 23.0916 43.0757 24.279C42.912 24.605 42.912 25.0007 42.6451 25.2919C42.3767 26.0365 41.6912 26.5248 41.0512 26.9434C41.0043 26.9327 40.9452 26.9555 40.9224 26.9206C40.8406 26.5718 41.1558 26.2914 41.1438 25.9667C40.8875 25.9197 40.6554 25.7105 40.5146 25.5132C40.4569 25.198 40.5615 24.9068 40.8527 24.7096C40.9452 24.4882 40.6313 24.5929 40.5387 24.4882C40.2704 24.279 40.096 23.9301 40.096 23.5451C40.0731 23.266 40.3871 23.0916 40.3871 22.8475C40.0853 22.8475 39.8518 22.5563 39.7123 22.3121C39.5607 21.8815 39.5486 21.2872 39.7821 20.8578C40.0611 19.6464 41.7489 19.6584 41.7717 18.3437C41.8414 18.0874 42.2385 18.3544 42.4009 18.0995C42.5055 17.9828 42.3191 18.0176 42.2842 17.9828C41.934 17.7963 42.0038 17.3777 41.9702 17.0866C42.1326 17.0275 42.2251 17.2019 42.3767 17.1094C42.4478 17.0517 42.6102 17.0275 42.5525 16.9108C42.3312 16.935 42.2734 16.6908 42.1325 16.5741C42.2251 16.5043 42.319 16.609 42.425 16.5741C42.4935 16.5513 42.6209 16.5285 42.5753 16.3997C42.366 16.2601 42.2386 16.016 42.2386 15.7946H42.4009C42.7148 15.69 42.3311 15.5155 42.354 15.3411C42.3768 15.2942 42.425 15.2821 42.4706 15.2942C42.5163 15.2593 42.5525 15.2016 42.5284 15.1667C42.0749 15.05 42.2492 14.5026 41.8186 14.351C42.1446 14.0948 41.6321 14.0129 41.6563 13.7688C41.6093 13.6413 41.4819 13.6292 41.3879 13.5944C41.3759 13.5246 41.4 13.4669 41.4577 13.4199C41.5972 13.1986 41.3303 13.1758 41.1908 13.1288C41.1908 12.9893 41.2256 12.6633 40.9224 12.7679C41.074 12.3721 40.5857 12.513 40.4113 12.4768C40.422 12.3145 40.5039 12.1629 40.4462 12.0005C40.2597 11.9536 40.155 12.0824 40.0034 12.0703L39.9806 11.7563C39.8169 11.7094 39.7351 11.8368 39.5955 11.8261C39.189 12.2326 39.2468 11.476 38.9087 11.3955C38.8282 11.3485 38.6887 11.2667 38.5947 11.3713C38.6417 11.5819 38.8282 11.7791 38.7235 12.0233C38.6538 12.1172 38.537 12.2796 38.4082 12.2098C38.2566 12.0112 38.0943 11.814 37.8958 11.6275C37.8045 11.5229 37.7925 11.3136 37.606 11.2908C37.4892 11.5699 37.5241 11.9066 37.4892 12.2098C37.3148 12.1749 37.1404 11.9884 36.9768 12.0931C36.8493 12.513 37.0344 12.9074 37.3376 13.2107C37.1163 13.4092 36.9539 13.6292 36.7553 13.8385C36.4642 14.4087 35.8605 14.7468 35.4299 15.2472C34.9522 15.6202 34.9173 16.2253 34.8476 16.7485C35.022 17.0396 35.3239 16.947 35.5922 17.0866C35.6271 17.1791 35.5103 17.214 35.4755 17.2731C35.348 17.3187 35.3239 17.1215 35.2085 17.1563C35.0569 17.1791 35.0341 17.3428 34.9871 17.4475C35.0448 17.5508 35.022 17.6916 35.1615 17.7614C35.4298 17.913 35.7317 17.7614 35.9651 17.5628C36.1624 17.6098 36.4065 17.4823 36.6158 17.587V17.54C37.0344 17.4126 37.2101 16.9001 37.6287 16.7136C37.7924 16.7726 37.9427 16.609 38.0473 16.7954C37.7106 17.2731 37.0814 17.4126 36.6628 17.7842C35.9061 18.2269 35.2085 18.9715 34.8476 19.751C34.708 19.9496 34.7429 20.2514 34.5337 20.403C34.1258 19.751 33.9742 18.9836 33.4858 18.3893C33.1947 18.1451 32.752 18.133 32.4031 18.2739C31.7042 18.7743 30.8442 18.8548 30.168 19.3794L30.1224 19.3324C30.1104 19.1231 30.0178 18.9487 29.8769 18.7743C29.6569 18.6697 29.4355 18.5999 29.1793 18.5878C28.7956 18.553 28.4226 18.8548 28.0617 18.6106C27.9812 18.4483 27.9342 18.2846 27.9222 18.0995C27.8537 17.9358 27.9691 17.5508 27.7249 17.4931C27.5384 17.1912 27.5733 16.7954 27.5505 16.4225C27.5264 16.342 27.4217 16.4225 27.3869 16.3527C27.2245 15.7825 27.3171 15.0956 27.2701 14.5603C27.3412 14.3161 27.0957 14.0129 27.3869 13.8627C27.4338 13.7929 27.4687 13.6534 27.3641 13.6185C27.3292 13.5836 27.3292 13.5018 27.3869 13.479C27.8645 13.432 27.7706 12.7223 28.2831 12.7921C28.3528 12.733 28.3408 12.6284 28.3756 12.5586C28.3528 12.2916 28.4588 12.0354 28.3528 11.7563L27.6082 11.7792L27.5505 11.7322C27.4566 11.3485 27.5036 10.883 27.7947 10.616C28.0389 10.5449 28.2374 10.3946 28.4816 10.5221C28.656 10.6267 28.7486 10.8132 28.7727 10.9997C28.7137 11.1164 28.597 11.1862 28.4816 11.1513C28.2482 11.0574 28.2951 10.7314 28.0845 10.7314C28.0268 11.0815 28.1435 11.4303 28.4467 11.6275C28.597 11.7094 28.8425 11.7094 28.982 11.6275C29.2034 11.488 29.3308 11.2908 29.3778 11.0225C29.2034 10.5918 29.7736 10.8829 29.9239 10.6857C30.3438 10.5221 30.215 10.1142 30.2378 9.76539C30.2378 9.54537 30.5638 9.39376 30.5638 9.20728C30.4243 9.14825 30.274 9.12544 30.1224 9.13751C29.7736 9.13751 29.7843 9.5333 29.5871 9.71978L29.5643 9.31193C29.4825 9.16033 29.3309 8.99799 29.1793 8.91616C29.0625 8.92823 28.9351 8.81151 28.8425 8.91616C28.8184 9.06776 28.982 9.05568 29.0277 9.16033C28.982 9.56818 28.5165 9.48633 28.2375 9.60305C27.8645 9.66074 27.8296 10.1142 27.4807 10.1853C26.9454 10.51 26.9334 11.1969 27.0031 11.7563C26.712 11.8261 26.9562 12.128 26.7818 12.2917C26.5604 12.2326 26.5134 11.9656 26.445 11.7792C26.3162 11.4062 26.3739 10.9299 26.3981 10.5221C26.4786 9.95188 27.1078 9.61513 27.4338 9.16033C27.2352 8.76455 27.7705 8.67197 27.7947 8.33389C27.6901 8.25205 27.5733 8.41573 27.4807 8.28694C27.4807 8.24132 27.4807 8.18229 27.5036 8.14874C28.1556 8.03202 27.6901 7.4377 27.9691 7.054C27.9463 6.86751 27.8417 6.80982 27.7249 6.67029C27.5975 6.71591 27.4808 6.61126 27.4566 6.47173C27.3171 6.25036 27.0501 6.16987 26.8046 6.20475C26.6999 6.1578 26.5846 6.06522 26.4679 6.13499C26.2237 6.43685 25.8507 6.5415 25.6414 6.91446L25.5488 6.83263C25.4079 7.01911 25.2349 7.2284 25.2349 7.49672C25.3503 7.79858 24.9438 7.78786 24.815 7.973C24.6057 8.19436 24.6526 8.53245 24.4085 8.70686C24.1281 8.25205 23.6625 8.01996 23.4425 7.54234C23.4532 6.92654 22.6389 6.58845 22.9769 5.89081C24.5359 4.93558 26.3162 5.76202 28.0161 5.84386C30.4712 6.19268 33.5784 6.22756 35.1843 4.00451C35.1964 3.85425 35.3829 3.70265 35.301 3.57385C34.5216 4.05147 33.5087 4.05146 32.5896 4.12123C31.9604 4.09842 31.24 4.10915 30.7275 3.93474C29.4476 3.77241 28.2831 3.30687 27.1655 2.77157C26.1767 2.31676 25.0363 2.14235 23.896 2.32883C23.7792 2.34091 23.6397 2.4214 23.5579 2.35164C23.6169 2.11954 23.4881 1.8861 23.3607 1.67681C23.1983 1.58424 23.0346 1.38568 22.8602 1.38568C22.5101 1.32799 22.1733 1.46752 21.9412 1.72377C21.7306 1.98002 21.7078 2.4214 21.8594 2.70046C21.9868 2.92183 22.1961 3.07343 22.3705 3.20222C22.4296 4.63372 22.3705 5.85593 22.4175 7.15864C22.3705 7.36793 22.2082 7.62417 22.3705 7.83347C22.4054 8.72966 22.4054 9.88212 22.3705 10.836L22.3008 10.9299C22.2431 11.0225 22.29 11.1271 22.3477 11.1969L22.3705 18.5878C22.2203 18.7394 22.0338 18.8199 21.9412 19.0185C21.9063 19.1929 21.9412 19.4022 22.0338 19.5538C22.4993 20.1817 23.1742 19.9845 23.849 19.9147L23.896 19.9603C23.7792 20.2286 23.8034 20.6244 23.9778 20.8578C24.0462 21.0899 23.8141 21.2644 23.6518 21.3918C22.7905 21.8587 21.7548 21.9982 20.8237 21.7769C20.3233 21.7071 20.8465 21.2992 20.7526 21.0081C20.6613 20.6016 20.4386 20.1468 19.9731 20.0663C19.5666 19.9603 19.089 20.0891 18.8327 20.4258C18.822 20.0891 18.8676 19.6705 19.2285 19.5068C19.5665 19.5645 19.8926 19.6584 20.1716 19.8919C20.3809 20.1468 20.5325 20.3453 20.8693 20.3561C21.033 20.6472 20.9753 20.996 20.9163 21.322L20.9981 21.3918C21.4059 21.4736 21.8594 21.4388 22.278 21.5085C22.5221 21.1248 22.9421 21.6024 23.1742 21.1476C23.256 21.0658 23.4653 21.1825 23.4653 21.0081C23.0695 20.3802 22.3478 20.0891 21.8124 19.6464C21.1953 18.8199 20.0898 18.8199 19.2982 18.2497C17.8318 17.8889 17.903 19.6812 17.2617 20.4258L17.1691 20.2984C16.7613 18.9018 15.3995 17.8312 14.1666 17.2261C14.015 17.1214 13.7936 17.0168 13.7466 16.8183C14.4107 16.4815 14.667 17.5628 15.3298 17.587C15.8194 17.4126 16.0287 17.96 16.5627 17.8312C16.6687 17.7963 16.7384 17.7265 16.7733 17.6098C16.831 17.4703 16.7961 17.2731 16.6566 17.2019C16.505 17.0866 16.4473 17.3307 16.2957 17.2731C16.2488 17.2261 16.1683 17.1671 16.2031 17.1094C16.4594 17.0047 16.8431 17.0517 16.9705 16.7136C17.0296 15.8295 16.3306 15.1775 15.6906 14.6422C15.1097 14.2933 14.9809 13.6064 14.4336 13.2107C14.62 13.0362 14.7595 12.8498 14.8414 12.6284C14.8065 12.4084 14.9219 12.2098 14.7475 12.0461C14.5851 12.0931 14.4564 12.1629 14.3061 12.2326C14.2122 12.0824 14.2833 11.8489 14.2591 11.6624C14.2243 11.535 14.2471 11.2438 14.0606 11.3136C13.9452 11.7322 13.5374 11.8838 13.3401 12.2675H13.2704C12.8156 12.0931 13.1308 11.6168 13.1416 11.3485C12.7579 11.3257 12.5955 11.7215 12.4211 11.9764C12.2333 11.861 12.0361 11.7912 11.8147 11.7563C11.6403 11.8368 11.8388 11.9764 11.7463 12.0931C11.6054 12.0824 11.49 12.0005 11.3505 12.0005C11.1627 12.14 11.4082 12.3614 11.3022 12.5586C11.1868 12.5009 11.0003 12.5009 10.8729 12.5237C10.8729 12.7223 10.7911 12.8846 10.5818 12.8498C10.4999 12.9544 10.6167 13.0711 10.5818 13.1637C10.4771 13.1986 10.3362 13.1637 10.2665 13.2804C10.2785 13.4092 10.3255 13.5125 10.3604 13.6185C9.98742 13.5944 10.1981 14.0599 9.84791 14.1068C9.76741 14.2115 9.89483 14.2813 9.92971 14.3752C9.48832 14.5254 9.67348 15.0728 9.22001 15.1895C9.16098 15.3519 9.33539 15.317 9.39443 15.3868C9.38235 15.5384 9.20793 15.596 9.22001 15.7476C9.24282 15.9462 9.46419 15.7704 9.53396 15.8992C9.41724 16.0737 9.39441 16.3299 9.17305 16.4225C9.1489 16.7485 9.48835 16.5285 9.6158 16.621C9.51116 16.7954 9.37026 16.947 9.17305 16.9819C9.28977 17.2261 9.58089 17.1443 9.80226 17.1563C9.85995 17.3536 9.69631 17.4475 9.75534 17.6447C9.66142 17.8312 9.59164 18.0874 9.32466 18.0753C9.41723 18.3437 9.74326 18.239 9.97536 18.2967C9.96463 18.7394 10.139 19.1929 10.5576 19.484C11.3612 19.857 12.1058 20.6472 12.1998 21.5434C12.13 21.9741 12.1877 22.4517 11.7919 22.7535C11.6644 22.8475 11.5236 22.9051 11.3733 22.94C11.431 23.1386 11.6282 23.2553 11.6644 23.4525C11.7342 23.8483 11.6054 24.2441 11.3022 24.5231C11.1868 24.5929 11.0231 24.5808 10.9185 24.6855C11.1278 24.9189 11.3143 25.198 11.3022 25.5347C11.2096 25.6863 11.0822 25.8607 10.9426 25.9197C10.1283 26.0942 11.2096 26.6174 10.8259 27.0373C10.0692 26.6764 9.33538 25.9667 9.01071 25.198C8.52102 24.2562 8.54519 23.2553 8.66056 22.1954C8.82424 21.8238 8.75449 21.428 8.78937 21.0551C8.81218 20.8807 8.75448 20.6472 8.61495 20.5426C8.52104 20.9383 8.35868 21.3462 8.00986 21.5904C7.9629 21.5676 7.99782 21.5206 7.98574 21.4857C7.97501 21.4508 7.98574 21.3462 7.91598 21.369C7.41555 21.6829 7.29883 22.2773 7.04258 22.7535C6.99697 22.6959 6.98489 22.6033 6.89232 22.5791C6.81048 22.8005 6.78767 23.0447 6.72998 23.2781C6.65888 23.4525 6.76351 23.7195 6.63606 23.8362C6.60118 23.8013 6.55422 23.7906 6.50861 23.7906V23.8604C6.54349 24.605 6.60119 25.3268 6.92721 25.9426C6.79975 26.0472 6.63606 26.0365 6.50861 26.1411C6.40262 26.2458 6.12492 26.129 6.14638 26.3383C6.40263 26.6067 6.4147 26.9662 6.70583 27.2345C5.92635 27.4559 6.05379 28.3051 5.42591 28.713C5.43664 28.8874 5.65802 28.7599 5.73986 28.8995C5.70498 29.306 5.6352 29.6789 5.39103 29.9929C5.40176 30.2022 5.57753 30.0157 5.68217 30.0626C5.8217 30.1794 5.80963 30.3538 5.87939 30.5054C5.98404 30.8421 5.76267 31.2272 5.97197 31.517C6.10076 31.6109 6.04171 31.4137 6.12489 31.3667C6.48444 31.8202 7.13648 32.0885 7.35784 32.6587C7.41553 32.7512 7.33504 32.9136 7.42761 32.9726C7.55506 32.8908 7.60203 32.7512 7.57922 32.6345C7.95085 31.6914 6.98487 30.7724 7.28808 29.7715C7.43834 29.306 7.869 28.8404 8.39358 28.7599C9.01072 28.7251 9.60371 28.6902 10.1162 28.9692C10.0223 29.1893 9.77813 29.2604 9.55676 29.2832C9.48834 29.3878 9.59165 29.4697 9.66141 29.5273C9.89486 29.6548 9.98744 29.9231 9.97536 30.1794C9.91767 30.5161 9.63859 30.8072 9.34746 30.9588C9.35954 31.1681 9.58092 31.1561 9.70838 31.25C9.8479 31.4137 9.94179 31.576 9.90691 31.8094C9.87203 31.9369 9.7674 32.0415 9.66141 32.1462C9.67349 32.3327 9.85999 32.4373 9.97536 32.5527C10.1283 33.7293 10.5227 34.8106 11.4082 35.684C12.4319 36.65 14.0606 36.7318 15.3056 36.1616C16.3896 35.8128 16.6217 34.706 16.9249 33.799C17.0054 33.9265 16.9705 34.1479 17.0403 34.2995C17.3314 36.5104 19.6591 37.9071 21.3818 38.9079C22.9528 39.6874 24.501 40.6305 25.6883 42.0969V42.1787C24.2327 42.2955 22.7905 42.0043 21.3348 41.8527C19.5424 41.6314 17.8788 41.2933 16.1683 40.8398C15.7497 40.6654 15.2841 40.6077 14.8642 40.432C14.934 39.8041 15.3767 38.9669 14.7247 38.4652C13.6889 37.6857 12.2574 37.8373 11.0124 37.7903C10.3832 37.3489 9.59166 37.0229 8.81218 37.2322C8.62703 37.2778 8.52102 37.5341 8.27685 37.4536C7.95083 37.3369 7.60201 37.302 7.31088 37.1155C7.54432 36.3132 7.78849 35.4975 8.13731 34.7409C8.22989 34.4618 8.02062 34.2404 7.84621 34.0781H7.74156C6.93793 33.5897 6.0082 33.3805 5.09992 33.1349C4.56462 33.0424 3.90184 33.1698 3.57582 33.7172C3.29543 34.3464 3.06332 34.985 2.85269 35.637C2.57498 36.6969 1.89881 37.6629 2.02761 38.8261C2.57499 40.2576 4.08697 41.143 5.36687 41.8058C5.61239 41.9453 5.85657 42.05 6.12489 42.1197C6.34491 42.3304 6.64815 42.3183 6.86952 42.4927C6.64815 43.1098 6.42675 43.9363 6.97413 44.4716C7.65969 45.0176 8.47407 45.2631 9.22001 45.6589C11.1627 46.5658 13.2932 47.0072 15.3526 47.6244C15.7725 47.7183 16.2487 47.8337 16.6338 47.8927C19.8805 48.6131 23.3258 48.8117 26.6315 48.7298C30.0526 48.707 33.3463 48.3233 36.5112 47.5787C37.7455 47.136 39.0602 46.9026 40.2945 46.4612C40.5387 46.3565 40.8057 46.2868 41.0512 46.1701C42.2734 45.7515 43.4715 45.2041 44.5528 44.4944C45.1351 43.9819 44.8923 43.1447 44.6816 42.5383L44.7742 42.435C45.2062 42.3411 45.5671 42.062 45.9857 41.9332C47.3233 41.2007 48.9882 40.3166 49.5463 38.7804C49.5584 37.628 48.9882 36.65 48.7199 35.5914ZM37.9668 30.6677C37.9668 30.6677 39.2024 31.8899 39.3554 32.1609C39.507 32.4306 39.7566 32.9096 39.7592 33.0424C39.7592 33.0424 39.5741 33.8165 38.5773 33.8675C37.5805 33.9184 36.7192 33.1242 36.7527 32.1945C36.7863 31.2647 37.4396 30.9843 37.9668 30.6677ZM33.9648 27.0011C33.9755 26.6845 34.0212 26.3356 34.3136 26.2001C34.6061 26.066 34.6182 26.0995 34.6182 26.0995C34.6182 26.0995 35.1575 27.0118 35.3279 27.2479C35.4969 27.4854 36.318 28.5439 36.7702 29.2657C36.7702 29.2657 35.0005 30.7979 34.9214 32.6453C34.9214 32.6453 34.8986 32.1609 34.8315 31.9127C34.7631 31.6645 34.7416 31.2701 35.0904 31.0796L35.1132 30.9441C35.1132 30.9441 34.7751 30.8649 34.7751 30.6623C34.7751 30.4598 35.0569 30.4249 35.0569 30.2679C35.0569 30.1096 34.8543 30.0653 34.7979 30.0546C34.7416 30.0425 34.4371 30.0318 34.3015 29.5354C34.1674 29.039 33.7501 27.4854 33.7501 27.4854C33.7501 27.4854 33.9527 27.3164 33.9648 27.0011ZM27.9986 20.128C27.9986 20.128 28.1677 20.2125 28.4212 20.1615C28.6748 20.1119 28.9793 19.9764 28.9793 19.9764L29.2155 20.1119L28.4212 20.8887C28.4212 20.8887 28.2361 21.1584 28.4387 21.1584C28.6413 21.1584 28.6922 21.2268 28.7258 21.3113C28.7593 21.3958 29.0129 21.4294 29.1484 21.3958C29.2826 21.3623 29.5536 21.4629 29.5871 21.5649L30.871 21.3958L30.9555 21.2778C30.9555 21.2778 30.8214 20.6861 30.9059 20.4661C30.9904 20.2461 31.193 20.4151 31.3956 20.1615C31.5982 19.908 32.1227 19.4854 32.4769 19.5028C32.8325 19.5189 32.9331 19.8583 33.0002 20.3816C33.0002 20.3816 32.7144 19.9254 32.1898 19.9925C31.6653 20.0609 31.2266 20.128 31.0575 21.1087C31.0575 21.1087 31.075 21.4468 31.2266 21.6494C31.2266 21.6494 30.7194 21.852 30.1117 21.852C29.5026 21.852 28.5567 21.6655 28.2857 21.4965C28.0161 21.3288 27.8805 21.0403 27.8966 20.9558C27.9141 20.8713 28.1006 20.5506 27.9986 20.128ZM15.1044 32.3635C15.0869 32.5835 15.0708 33.7494 13.3294 33.9345C13.3294 33.9345 12.1877 33.9372 12.083 33.1591C12.028 32.7526 12.8907 31.6873 13.1094 31.5009C13.3294 31.3157 13.921 30.7375 13.921 30.7375C13.921 30.7375 14.8052 31.3023 15.0386 31.6806C15.0386 31.6806 15.1205 32.1435 15.1044 32.3635ZM17.4361 29.8869C17.3945 29.9473 16.8954 30.166 16.8619 30.1914C16.8283 30.2183 16.7599 30.2679 16.8873 30.4289C17.0135 30.5886 17.1664 30.7321 17.0725 30.8086C16.9799 30.8851 16.9464 30.9105 16.9464 30.9105C16.9464 30.9105 16.7103 30.9266 16.7693 31.0447C16.8283 31.1641 16.9544 31.3493 17.0229 31.4257C17.0899 31.5009 17.098 31.6203 17.0725 31.7128C17.047 31.8054 17.0054 31.8564 16.9974 31.9744C16.988 32.0925 16.9464 32.4896 16.9464 32.4896C16.9464 32.4896 16.7948 31.4002 15.8811 30.166C15.4961 29.6454 15.0708 29.3382 15.0708 29.3382C15.0708 29.3382 15.0963 29.1946 15.2814 28.9827C15.4679 28.772 16.7009 26.989 16.8619 26.7274C17.0229 26.4658 17.1745 26.1693 17.318 26.1693C17.42 26.1693 17.7581 26.3813 17.8426 26.5074C17.8426 26.5074 17.8761 27.2345 18.0961 27.5887C18.0961 27.5887 17.479 29.8292 17.4361 29.8869ZM23.0226 9.20728C23.0574 9.20728 23.0695 9.24216 23.1044 9.26497C23.0695 9.31192 23.0346 9.36962 23.0454 9.42865C23.1514 9.52122 23.256 9.59098 23.3955 9.60305C23.4881 9.75465 23.2788 9.97468 23.4881 10.0807C23.6169 10.0458 23.7913 9.96395 23.9188 10.0565C23.908 10.1504 23.7793 10.1732 23.7095 10.2309C23.57 10.4416 23.3714 10.5811 23.1286 10.5449C22.9649 10.4872 23.0226 10.3705 22.9769 10.2551L23.0226 9.20728ZM24.3494 16.2467L24.1536 16.3903L23.9926 17.4448C23.9926 17.4448 23.8141 17.426 23.7967 17.6407C23.7779 17.8553 23.7068 18.4094 23.6169 18.4443C23.5284 18.4805 23.3848 18.4805 23.2963 18.5167C23.2064 18.5516 23.1004 18.6053 22.9917 18.5342C22.9917 18.5342 22.8495 13.2281 22.9917 11.6732C22.9917 11.6732 23.8316 11.6906 24.0275 11.6195V11.7443C24.0275 11.7443 23.9215 11.7979 23.7779 11.7805C23.6357 11.7631 23.3499 11.7443 23.2251 11.8342V12.8699C23.2251 12.8699 23.5471 12.8887 23.6706 13.0671C23.7967 13.2455 24.0274 13.5125 24.2434 13.4951V13.7097C24.2434 13.7097 24.2783 13.8707 24.3494 13.8707C24.4219 13.8707 24.4755 13.9056 24.4755 14.0492C24.4755 14.1927 24.3494 16.2467 24.3494 16.2467Z" fill="#231F20"/>
<path d="M26.5376 2.86407L26.5605 3.35242C26.2237 3.31754 25.8279 3.27192 25.4778 3.17801C25.408 2.96872 25.3852 2.72454 25.5019 2.55013C25.8628 2.6199 26.2706 2.64271 26.5376 2.86407Z" fill="#00B6F1" stroke="#00B6F1" stroke-width="0.228074" stroke-miterlimit="3.864"/>
<path d="M24.2326 2.64276C24.2326 2.81717 24.3735 3.17807 24.1173 3.20221C23.7322 3.21295 23.4183 3.38736 23.0453 3.42224C22.9299 3.27198 23.0574 3.07342 23.0225 2.91108C23.1392 2.79436 23.3257 2.84132 23.4425 2.7246C23.6866 2.67764 23.9657 2.52738 24.2326 2.64276Z" fill="#00B6F1" stroke="#00B6F1" stroke-width="0.228074" stroke-miterlimit="3.864"/>
<path d="M26.5374 4.56393L26.5603 5.36621C26.1873 5.30852 25.8398 5.28438 25.4427 5.19181C25.3273 4.93556 25.4669 4.64443 25.4199 4.29561C25.5715 4.26073 25.758 4.26073 25.9096 4.29561C26.1417 4.33049 26.3402 4.43513 26.5374 4.56393Z" fill="#00B6F1" stroke="#00B6F1" stroke-width="0.228074" stroke-miterlimit="3.864"/>
<path d="M24.2099 4.29561C24.3266 4.60955 24.1978 4.85506 24.2327 5.19181C23.8262 5.29645 23.4063 5.36621 22.9998 5.50574V4.67931C23.3486 4.38952 23.7444 4.34257 24.2099 4.29561Z" fill="#00B6F1" stroke="#00B6F1" stroke-width="0.228074" stroke-miterlimit="3.864"/>
<path d="M25.1516 2.64284C25.2455 2.92189 25.0363 3.41158 25.42 3.46927C25.8157 3.57391 26.2357 3.5511 26.5603 3.80735L26.5375 4.17898C26.1189 4.08641 25.7111 3.94688 25.2576 3.93481C25.0832 4.1441 25.1878 4.51707 25.1516 4.74917L25.106 5.16909C24.8618 5.07517 24.3614 5.39046 24.4781 4.90077C24.454 4.62171 24.6995 4.16824 24.3373 3.95895C23.8959 4.02872 23.4303 4.08641 23.0225 4.24874V3.80735C23.4652 3.62087 23.9187 3.48134 24.4312 3.46927L24.501 3.3995V2.59722C24.6633 2.46842 24.9074 2.55027 25.106 2.52746L25.1516 2.64284Z" fill="#EF3E2E"/>
<path d="M34.3122 4.17896L34.8006 4.09847V4.14408C33.9165 5.26164 32.6245 5.49374 31.3553 5.72718C29.7615 5.98343 28.33 5.58766 26.8287 5.41326C26.7361 5.23885 26.7938 5.08724 26.7817 4.87795C26.7817 4.27288 26.7589 3.76038 26.8045 3.0386L26.8743 2.93395C29.1336 3.98175 31.7162 4.71561 34.3122 4.17896Z" fill="#EF3E2E"/>
<path d="M14.9339 14.1766C15.5631 14.9681 16.6914 15.5034 16.7263 16.574C16.5747 16.6787 16.3896 16.8759 16.144 16.7726C15.9227 16.621 15.7133 16.2252 15.3766 16.3768C15.2022 16.4815 15.0976 16.6907 15.1781 16.888C15.2478 16.9591 15.2478 17.0516 15.272 17.1321C15.0855 17.0972 15.0157 16.9 14.9929 16.7484C15.0385 16.621 14.9218 16.4224 14.7944 16.3298C14.6427 16.3057 14.4925 16.2829 14.3758 16.1903C14.2242 16.0159 14.6079 15.655 14.2363 15.702C13.9921 15.9569 13.9559 16.5163 13.4796 16.3768C13.3401 16.1434 13.061 16.4694 12.955 16.1434C12.7927 16.1903 12.6183 16.1554 12.4895 16.0629C12.2681 15.8294 12.2332 15.5262 12.0829 15.27H12.036C12.0481 15.8174 12.2922 16.3768 12.8275 16.6907L12.8503 16.7726C12.7457 16.9 12.4895 16.7135 12.4667 16.888C12.676 17.0047 12.9201 17.0744 13.1656 17.0047C13.1187 17.167 12.7229 17.0973 12.955 17.273C13.1656 17.2958 13.3508 17.1563 13.5614 17.2019V17.273C13.5144 17.273 13.4903 17.3307 13.4567 17.3535C13.4567 17.3884 13.5024 17.4125 13.5373 17.4461C13.701 17.4702 13.8405 17.2019 13.9921 17.4005C15.5162 18.0404 16.9369 19.5189 17.2388 21.1476C17.6922 21.6373 17.7499 22.3121 17.8439 22.9172C17.868 23.3706 17.8197 23.7906 17.7043 24.1743C17.6466 23.7664 17.7969 23.2432 17.7043 22.8474C17.6694 22.6837 17.6802 22.4516 17.5058 22.3819C17.3206 22.5335 17.4709 22.6609 17.4601 22.8474C17.4239 23.1962 17.5527 23.6497 17.2388 23.8362C17.0402 23.8362 17.0644 23.6269 16.9946 23.4994C17.0054 23.0567 17.1341 22.3121 16.7035 22.021C16.6216 22.1377 16.7491 22.2893 16.7732 22.4047C16.784 22.8246 16.7612 23.2204 16.7035 23.592C16.7142 23.7906 16.8537 23.918 16.9705 24.0575C17.6225 24.6975 18.4489 25.43 18.9601 26.2108C19.3921 27.0601 18.728 27.9107 19.054 28.8068C19.0661 29.1905 18.9601 29.5971 18.8568 29.97C18.8568 30.5751 19.1358 31.6108 18.4731 32.0066C18.6931 31.482 18.8219 30.8542 18.7629 30.284C18.7173 30.2719 18.681 30.1914 18.6461 30.2612C18.5308 30.4704 18.4838 30.7146 18.402 30.936C18.3791 30.6449 18.6931 30.4128 18.4731 30.1324C18.3671 30.1324 18.2745 30.1324 18.2047 30.2142C18.2168 30.2263 18.1927 30.1096 18.1337 30.0867C17.9592 30.1216 17.868 30.3537 17.7043 30.4007C17.5997 30.4007 17.5299 30.5053 17.436 30.5053C17.6922 30.2263 18.0531 30.017 18.2275 29.6789C18.3443 29.691 18.4959 29.6682 18.4731 29.5273C18.414 29.365 18.3912 29.1785 18.3094 29.0269C18.5187 28.3869 18.8447 27.6074 18.402 26.9675C18.5187 26.129 17.6467 25.8379 17.0993 25.5347C16.8081 25.5011 16.517 25.3495 16.2715 25.151L16.1682 25.2677C16.0515 25.21 15.9817 25.0356 15.8301 25.0235C15.7134 24.6975 15.5282 24.3017 15.1781 24.1743C14.7716 24.2668 14.4214 24.0575 14.0954 23.8831C14.0149 23.9301 14.0377 24.0334 14.0605 24.0817C14.2362 24.5928 14.8762 24.244 15.0613 24.7565C15.3417 25.2328 15.6906 25.5937 16.2259 25.7332C16.4352 25.8607 16.7035 25.8727 16.9249 25.9895C16.4593 26.3383 15.8073 26.396 15.2478 26.2806C14.7246 26.2806 14.1772 26.129 13.6768 25.9667C13.5493 25.8727 13.3629 25.8727 13.2461 25.756C12.955 25.5467 12.5364 25.3374 12.5136 24.9296C12.4559 24.6398 12.5954 24.4412 12.688 24.1743C13.1884 24.7565 13.9451 24.9658 14.7246 25.0235C14.7367 25.0007 14.7836 24.9886 14.7715 24.9537C14.4563 24.7444 14.0377 24.7793 13.7009 24.6398C13.328 24.4882 12.8745 24.2212 12.735 23.7906C12.7229 23.4525 12.8396 23.1613 12.8275 22.8246C13.4326 22.9521 14.0847 22.7776 14.4107 22.2423C14.5502 21.8814 14.4804 21.3689 14.1893 21.055C13.9921 20.9276 13.7935 20.8108 13.5614 20.7867C13.7586 20.7169 13.9921 20.7639 14.1893 20.8806C14.4563 20.9276 14.4683 21.5782 14.7004 21.1248C14.7367 20.8685 14.6549 20.6123 14.5032 20.403C14.7595 20.3211 14.5153 20.089 14.5274 19.9374C14.3758 19.751 14.1075 19.6356 14.1893 19.3793C13.98 18.9715 13.5265 18.6455 13.0959 18.6804C13.1884 18.6347 13.3159 18.6924 13.3857 18.5878C13.1656 18.0525 12.4667 18.5408 12.1997 18.0055C11.1747 17.0516 11.1988 15.7825 11.5235 14.5146C11.6872 14.1068 12.036 13.7459 12.4211 13.4548C12.688 13.3743 13.0838 13.4548 13.2703 13.106C13.7466 12.8967 14.1437 13.3381 14.5274 13.5715C14.6307 13.7808 14.899 13.9324 14.9339 14.1766Z" fill="#BBBDBF"/>
<path d="M21.0905 19.2399C21.5802 19.5189 21.7426 20.0193 22.2551 20.2045C22.569 20.3909 22.9071 20.6365 23.1513 20.9035C23.0346 20.9383 22.9769 21.0551 22.8601 21.0551C22.6508 20.717 22.3248 20.45 22.0109 20.2514C21.9639 20.4969 22.3128 20.6244 22.3946 20.8337L22.5462 21.0779C22.4644 21.102 22.2672 21.2885 22.2551 21.0551C22.1035 20.7411 21.964 20.4151 21.6728 20.1589C21.6151 20.1589 21.5333 20.1589 21.5212 20.2286L21.8124 21.1718L21.7654 21.2295C21.591 20.9034 21.6956 20.3574 21.3347 20.1347C21.2073 20.3105 21.3468 20.5077 21.4058 20.6713C21.4394 20.8458 21.4743 21.0322 21.5212 21.1946C21.4635 21.2992 21.3468 21.2053 21.2529 21.1946C21.2891 20.776 21.2073 20.3453 20.8933 20.0421C20.5445 20.1132 20.5083 19.6464 20.1943 19.5068C19.8227 19.2855 19.3331 18.9943 18.9145 19.2855C18.7521 19.5068 18.2624 19.4143 18.4489 19.8208L18.5656 20.1347C18.3912 20.9732 18.4369 21.8117 18.1578 22.6033C18.076 22.3229 18.0303 21.9982 17.9136 21.7071C17.8787 21.3569 17.5648 21.0322 17.7499 20.6713C17.9364 20.1347 18.041 19.5538 18.2047 18.9943C18.2503 18.6925 18.5536 18.459 18.8326 18.3893C19.6819 18.4483 20.299 19.0534 21.0905 19.2399Z" fill="#BBBDBF"/>
<path d="M33.3355 18.5704C33.3368 18.5932 33.3248 18.628 33.3596 18.6388C33.3717 18.628 33.3838 18.616 33.3824 18.5918C33.7286 19.0641 33.7165 19.7268 33.9942 20.246C34.0224 20.5372 34.2478 20.8243 34.1015 21.0939C33.8654 21.5514 33.8158 22.0773 33.7205 22.5791C33.4495 21.7808 33.3985 20.8498 33.2456 20.026C33.3355 19.8623 33.4482 19.6504 33.3288 19.4666C33.2805 19.4089 33.2107 19.3874 33.1289 19.3995C32.8579 19.2184 32.5412 19.0614 32.1817 19.1727C31.7202 19.3431 31.3646 19.6638 31.0802 20.0649C31.0453 20.018 30.9635 20.0435 30.9165 20.0435C30.62 20.34 30.5342 20.7612 30.5999 21.1556C30.5194 21.2267 30.4255 21.2509 30.3329 21.2415C30.3021 20.8457 30.5301 20.5627 30.5583 20.1897L30.4765 20.1213C30.1666 20.395 30.2216 20.8471 30.0874 21.2107C30.0646 21.2107 30.0525 21.2348 30.0418 21.2469C30.0472 20.9088 30.2511 20.5801 30.2913 20.2179C30.2565 20.1602 30.1975 20.1722 30.1398 20.1736C29.8647 20.458 29.6742 20.8216 29.528 21.1731C29.4703 21.2093 29.3643 21.1543 29.3066 21.1074C29.3737 20.9906 29.4529 20.8618 29.5213 20.7438C29.5642 20.5908 29.9117 20.4687 29.7802 20.2742C29.4824 20.5224 29.1376 20.7733 28.9457 21.1141C28.8625 21.0698 28.7914 21 28.6975 20.9786C28.7995 20.7679 29.0182 20.6472 29.1792 20.4822C29.3294 20.4674 29.3629 20.3265 29.4891 20.2554C29.8245 20.1105 30.1102 19.8597 30.3262 19.5417C30.4644 19.4464 30.6482 19.315 30.7743 19.1969C31.6679 19.0641 32.3816 17.9693 33.3113 18.5006L33.3355 18.5704Z" fill="#BBBDBF"/>
<path d="M25.6185 20.1817C25.6655 20.3681 25.7581 20.5318 25.7688 20.7411C25.793 20.9974 25.7232 21.2053 25.6414 21.4159C25.3744 22.2182 24.4889 22.7535 23.7564 23.0447C22.4872 23.4525 21.0101 23.5223 19.8107 22.9172C19.3331 22.5805 18.7871 22.1498 18.8568 21.4857C18.7871 21.2053 18.9843 21.0322 19.0312 20.7867C19.1238 20.6016 19.3452 20.4258 19.5665 20.403C19.8107 20.3333 19.973 20.5197 20.1474 20.5895C20.3111 20.729 20.3339 20.9276 20.393 21.102C20.4855 21.4159 19.7879 21.8225 20.393 21.9982C20.5083 22.021 20.6251 22.0438 20.7525 22.068C21.045 22.1833 21.3938 22.1498 21.7198 22.1954C22.6737 22.1256 23.7443 21.974 24.3145 21.102C24.4782 20.8337 24.1052 20.6472 24.1643 20.403C24.128 20.2165 24.2099 20.0891 24.2917 19.9147C24.454 19.6705 24.7452 19.6464 25.0135 19.6933C25.2349 19.81 25.5018 19.9375 25.6185 20.1817Z" fill="#F0B83D"/>
<path d="M27.655 20.0891C27.655 20.3333 27.6778 20.6473 27.4806 20.8337C27.4095 21.1946 27.7597 21.416 27.9918 21.6374C29.0047 22.2062 30.5636 22.4048 31.6463 21.8587C31.704 21.6253 31.5658 21.5435 31.4826 21.369C31.4719 21.0658 31.4021 20.8565 31.6235 20.6124C31.8449 20.4031 32.1709 20.3105 32.4728 20.4259C32.9262 20.7412 33.0309 21.3342 32.9262 21.8587C32.729 22.4973 32.1011 22.9173 31.4826 23.1158C31.3793 23.1158 31.2398 23.1856 31.111 23.2312C29.2958 23.5572 27.2941 23.1722 26.2463 21.6602C25.9673 21.1826 26.037 20.4259 26.3738 19.9845C26.6072 19.7511 26.9453 19.6357 27.27 19.7162C27.3988 19.8208 27.5852 19.9147 27.655 20.0891Z" fill="#F0B83D"/>
<path d="M26.1768 19.6007V19.6933C25.5717 19.8449 25.1062 19.3324 24.7922 18.9017C24.9666 18.7501 25.2001 18.8789 25.3973 18.8789C25.7233 18.9943 26.0252 19.2854 26.1768 19.6007Z" fill="#F0B83D"/>
<path d="M27.1655 19.2854C26.9683 19.3096 26.759 19.437 26.5376 19.4598L26.1526 18.9943C26.3163 18.9017 26.5725 18.785 26.7818 18.9017C26.9562 18.9715 27.0729 19.1352 27.1655 19.2854Z" fill="#F0B83D"/>
<path d="M24.6284 19.3096C24.3843 19.3096 24.2917 19.4948 24.0703 19.5297L23.5122 18.9487L23.535 18.879C23.9885 18.7971 24.3843 18.9595 24.6284 19.3096Z" fill="#F0B83D"/>
<path d="M29.7386 19.1701C29.8084 19.2734 29.8084 19.4719 29.7386 19.5766C29.6098 19.6705 29.4824 19.8208 29.3187 19.7161C29.0048 19.5538 28.9122 19.2626 28.7136 18.9943C28.9471 18.8789 29.1563 18.9017 29.4005 18.9017C29.5052 18.9836 29.6675 19.0185 29.7386 19.1701Z" fill="#F0B83D"/>
<path d="M28.5284 19.3324C28.5284 19.4599 28.7364 19.5068 28.6908 19.6463C28.4694 19.7979 28.1783 19.7751 27.9462 19.6705C27.6778 19.5417 27.5155 19.2278 27.3867 18.9715C27.6322 18.8199 27.7597 18.9594 28.0387 18.9487C28.2252 19.0292 28.3996 19.158 28.5284 19.3324Z" fill="#F0B83D"/>
<path d="M23.6048 19.5297V19.6008C23.1634 19.7054 22.6039 19.7631 22.3249 19.3566C22.2779 19.2399 22.3128 19.1004 22.3705 18.9944C22.8722 18.7502 23.3016 19.1232 23.6048 19.5297Z" fill="#F0B83D"/>
<path d="M24.454 12.14C24.5237 12.2675 24.4083 12.466 24.5479 12.5586C24.8377 12.5237 25.3273 12.7572 25.4427 12.3614V12.1628C25.6534 12.0931 25.9096 12.1172 26.1296 12.14C26.2235 12.2675 26.1068 12.5479 26.3161 12.5586C26.5603 12.454 27.003 12.6874 27.0956 12.3614V12.14C27.376 12.0233 27.7007 12.1628 27.9918 12.1172C28.0508 12.2098 28.0964 12.3265 28.0388 12.4312C27.9113 12.4768 27.7248 12.4312 27.6778 12.6056C27.6778 12.8028 27.5383 12.9772 27.3867 13.059C27.2593 13.1757 26.9681 13.0241 26.9802 13.2804C26.9561 13.3743 27.0151 13.4897 26.9212 13.5487C26.2115 13.6292 25.4199 13.5836 24.7451 13.5246C24.6525 13.4092 24.7572 13.1529 24.5237 13.0832C24.3265 13.0241 24.0582 13.059 23.9428 12.8497C23.9079 12.733 23.9307 12.6056 23.8032 12.5237C23.7321 12.466 23.6047 12.5586 23.5578 12.454C23.4303 11.8838 24.1749 12.14 24.454 12.14Z" fill="#BBBDBF"/>
<path d="M26.8985 14.025C26.8515 14.1766 27.038 14.5375 26.7361 14.4677L24.8726 14.4449C24.7572 14.304 24.8619 14.1296 24.8726 13.9794C25.4777 13.9445 26.1995 13.9445 26.8515 13.9794L26.8985 14.025Z" fill="#BBBDBF"/>
<path d="M26.9212 14.8059L26.9802 16.5043C26.3738 16.5272 25.5487 16.5043 24.7679 16.4815C24.792 15.9221 24.7102 15.2245 24.8377 14.712L24.9195 14.665L26.8514 14.6891L26.9212 14.8059Z" fill="#BBBDBF"/>
<path d="M27.1425 16.7485C27.2593 16.935 27.1774 17.2141 27.2351 17.4234L27.1425 17.4703L24.5009 17.4462C24.4539 17.2262 24.5009 16.982 24.5479 16.7727C25.4669 16.668 26.2584 16.7606 27.1425 16.7485Z" fill="#BBBDBF"/>
<path d="M27.5036 17.854C27.5734 17.9828 27.5734 18.2042 27.5036 18.3196C26.4451 18.2619 25.2685 18.3437 24.1872 18.2498C24.1281 18.1331 24.1872 17.96 24.2328 17.8312C25.3503 17.7964 26.4679 17.7964 27.5036 17.854Z" fill="#BBBDBF"/>
<path d="M24.3145 9.49837C24.1281 9.70766 24.5708 9.99879 24.2099 10.0095C24.1173 9.54532 23.4304 10.0565 23.6048 9.47422C23.5579 9.38164 23.3486 9.39373 23.3955 9.28908C23.5123 9.2542 23.6397 9.16028 23.7095 9.04356C23.582 8.79939 23.3365 9.14821 23.1983 8.99795C23.2332 8.99795 23.5123 9.02076 23.582 8.86915C23.5579 8.60217 23.209 8.79939 23.0453 8.70681L22.9997 8.77658C22.9179 8.40361 23.1393 8.11248 23.1044 7.78781C23.0105 7.67109 23.1513 7.58925 23.1742 7.49668C23.4063 8.20639 24.5359 8.62498 24.3145 9.49837Z" fill="#F0B83D"/>
<path d="M29.4004 9.3817C29.4246 9.48634 29.3656 9.62587 29.273 9.71978C29.0744 9.89419 28.7015 9.84723 28.6438 10.1263C28.8544 10.3007 29.0047 10.0458 29.2032 10.0337C29.3656 10.0458 29.5279 10.0216 29.6674 9.9398C29.8539 9.77746 29.913 9.56817 30.0055 9.35888C30.0632 9.31193 30.1451 9.33474 30.2148 9.33474C29.9237 9.67282 30.3195 10.3356 29.8083 10.5449C29.6446 10.616 29.4005 10.5811 29.2489 10.4523C29.1442 10.3477 29.0517 10.2202 28.9121 10.2309C28.7726 10.4764 29.214 10.6039 29.1791 10.8602C29.214 11.0923 29.1093 11.3029 28.9121 11.4183H28.574C28.6907 11.3485 28.888 11.3257 28.9577 11.1513C29.0624 10.9178 28.8772 10.7434 28.8424 10.5449C28.6666 10.3248 28.3755 10.2309 28.1662 10.2779C27.8415 10.3597 27.4337 10.5341 27.3639 10.9058C27.317 11.1741 27.3169 11.535 27.2941 11.7563C27.0956 11.4062 27.1197 10.8709 27.3639 10.5221C27.5155 10.243 27.8992 10.3248 27.969 9.98676C28.3527 9.62587 29.0745 9.84723 29.2489 9.23009C29.3415 9.23009 29.3414 9.33474 29.4004 9.3817Z" fill="#F0B83D"/>
<path d="M24.7921 10.1853C24.7572 10.3476 24.6525 10.5811 24.7921 10.7313C24.9665 10.7555 25.0363 10.5341 25.1879 10.4764L25.7111 10.3705C25.4776 10.5221 25.2576 10.7555 25.0134 10.8829C24.9316 10.9299 24.9074 10.8132 24.8377 10.8132C24.6995 10.895 24.7344 11.1164 24.5479 11.1741C24.6056 11.0694 24.6633 10.942 24.6284 10.836C24.5935 10.8132 24.5707 10.7662 24.5238 10.7904C24.3963 10.9057 24.3963 11.0694 24.2568 11.1741C24.2219 11.1043 24.2568 10.9648 24.1401 10.9057C23.9428 10.9299 24.0461 11.4424 23.8033 11.1271C23.6745 11.1164 23.6168 11.2787 23.5122 11.3136C23.5578 11.2787 23.5578 11.0815 23.4183 11.0573L23.1741 11.2438L23.1513 11.0225C22.9648 10.942 22.8481 11.1741 22.7086 11.2438C22.6388 11.1164 23.1285 11.0345 22.8601 10.8601C22.7085 10.836 22.6388 11.0225 22.4993 11.0225C22.569 10.8011 22.8373 10.8829 22.9071 10.6857C23.1151 10.8132 23.4304 10.7662 23.6276 10.6388C23.9308 10.29 24.3842 10.196 24.7921 10.1853Z" fill="#F0B83D"/>
<path d="M26.1069 10.6857C26.0372 10.942 26.0144 11.3485 26.1297 11.6047V11.7791C25.8158 11.8368 25.3851 11.7563 25.1517 11.8489C25.094 12.0126 25.1758 12.14 25.0833 12.2916L24.7921 12.2675C24.6996 12.1172 24.8968 11.8368 24.6285 11.7791C24.5708 11.8019 24.4782 11.8019 24.4313 11.7322C24.4084 11.5229 24.6056 11.4759 24.7452 11.3954C24.9665 11.1164 25.3154 11.0225 25.5488 10.7662C25.7339 10.7313 25.8976 10.5811 26.0023 10.3946C26.2357 10.3825 26.0372 10.5811 26.1069 10.6857Z" fill="#F0B83D"/>
<path d="M27.0258 6.60059C27.1076 6.55364 27.0956 6.42618 27.2123 6.4718C27.4457 6.6234 27.3169 7.14797 27.7248 7.0071C27.8643 7.25128 27.2243 7.20566 27.4806 7.49679C27.5611 7.47264 27.6778 7.44983 27.7006 7.56655C27.6899 7.68327 27.7248 7.84561 27.5852 7.88049H27.5262C27.5262 7.78792 27.655 7.67121 27.5034 7.61217C27.3988 7.58937 27.3639 7.6712 27.3169 7.56655C27.329 7.50752 27.4337 7.44983 27.3639 7.36799C27.2351 7.34518 27.1197 7.12382 26.9802 7.27542C26.8984 7.22846 26.9453 7.08894 26.8286 7.10101C26.736 7.07687 26.6314 7.14797 26.5603 7.22847C26.5254 6.92661 26.5026 6.68109 26.5844 6.35508C26.7588 6.3913 26.8514 6.58852 27.0258 6.60059Z" fill="#F0B83D"/>
<path d="M23.0453 7.05406C22.7662 7.1587 23.1043 7.47264 22.8601 7.61217C22.8722 7.81073 22.9299 7.97305 22.8132 8.1488C22.6388 8.03208 22.5569 7.8228 22.4751 7.63631C22.5462 7.40287 22.6039 7.13589 22.7542 6.96148L22.8132 6.78573C22.9299 6.82195 22.9648 6.97222 23.0453 7.05406Z" fill="#F0B83D"/>
<path d="M26.0493 7.15864C26.0493 7.19352 26.0493 7.2861 26.1298 7.32098H26.1995C26.2237 7.39208 26.1298 7.38001 26.1298 7.4377C26.119 7.55442 26.2116 7.65906 26.3163 7.68321C26.3981 7.69394 26.4558 7.68321 26.5135 7.63626C26.4209 7.67114 26.2935 7.77579 26.1767 7.72883C26.0023 7.64833 26.2237 7.34513 25.9795 7.32098C25.8158 7.46185 25.9097 7.72883 25.793 7.85763C25.7461 8.05484 25.5596 8.22925 25.6656 8.46269C25.6065 8.69479 25.3973 8.71894 25.2108 8.79943C25.0015 8.84639 24.7801 8.84639 24.6057 8.93896C24.6876 8.45062 25.3973 8.6599 25.5247 8.14875C25.3624 8.01995 25.2349 8.26413 25.0833 8.31109L24.8378 8.39292C24.815 8.2762 24.9196 8.17156 24.9894 8.07765C25.1289 8.03204 25.2926 7.86836 25.4429 7.973C25.5717 7.96227 25.5126 7.79859 25.5019 7.72883C25.3745 7.61211 25.4201 7.46185 25.4778 7.32098L25.5247 7.27536C25.5837 7.36793 25.6763 7.46185 25.793 7.47258C25.9325 7.33305 25.6991 7.08888 25.8856 6.93727C25.9795 7.00704 26.1526 6.97216 26.0493 7.15864Z" fill="#F0B83D"/>
<path d="M26.084 8.86922C25.8976 9.11474 25.7339 9.31195 25.7339 9.60308C25.7808 9.66077 25.8399 9.68492 25.9096 9.67285C25.746 10.0458 25.3153 9.98678 25.059 10.231C25.0711 9.89421 25.5943 9.74261 25.6185 9.35891C25.5836 9.31195 25.5488 9.29988 25.5018 9.31196C25.3046 9.5454 25.0483 9.77749 24.8725 10.0337C24.7344 9.73053 25.3971 9.49843 25.3046 9.04363C25.5944 9.07851 25.8157 8.42783 26.084 8.86922Z" fill="#F0B83D"/>
<path d="M25.0363 9.09061C25.1181 9.4287 24.6526 9.55615 24.5815 9.83521C24.4661 9.68494 24.4889 9.55615 24.548 9.35893C24.6177 9.1483 24.8377 9.10268 25.0363 9.09061Z" fill="#F0B83D"/>
<path d="M26.5133 8.26416C26.5026 8.32319 26.4449 8.34599 26.4207 8.39294H26.3161C26.2933 8.32318 26.363 8.28696 26.3738 8.24134C26.4207 8.25208 26.4784 8.22928 26.5133 8.26416Z" fill="#F0B83D"/>
<path d="M27.4097 8.50826C27.4459 8.57802 27.3641 8.57802 27.3413 8.60217C27.2125 8.60217 27.2018 8.46264 27.1655 8.36873C27.1655 8.32311 27.1776 8.24128 27.2353 8.26409C27.2353 8.36873 27.3171 8.47338 27.4097 8.50826Z" fill="#F0B83D"/>
<path d="M27.05 8.68405C27.1547 8.77662 27.2472 8.86919 27.2352 9.02079C27.2244 9.00872 27.2124 8.98591 27.1895 8.99799C27.1775 9.06775 27.2352 9.13751 27.1426 9.20728C27.0151 9.07848 27.1077 8.75247 26.8742 8.68405C26.724 8.78735 26.8635 8.95103 26.8514 9.09056C26.7468 8.97384 26.5133 8.91615 26.6073 8.72967C26.724 8.6599 26.7709 8.47342 26.9212 8.43853L27.05 8.68405Z" fill="#F0B83D"/>
<path d="M26.6651 9.47424C26.5497 9.3696 26.5846 9.20727 26.4451 9.11469C26.5604 9.17238 26.6772 9.32398 26.6651 9.47424Z" fill="#F0B83D"/>
<path d="M26.4449 9.83509L26.3738 9.98669C26.4328 9.74252 25.9673 9.5453 26.3403 9.35882C26.4087 9.50908 26.5133 9.67276 26.4449 9.83509Z" fill="#F0B83D"/>
<path d="M26.1406 8.15947L26.0333 8.07898C26.0333 8.07898 26.0051 8.17288 26.0587 8.2413C26.1138 8.30838 26.1406 8.15947 26.1406 8.15947Z" fill="#F0B83D"/>
<path fill-rule="evenodd" clip-rule="evenodd" d="M26.7575 8.06287C26.7575 8.06287 26.897 7.95822 27.007 7.95553C26.9681 7.95956 26.8528 7.96358 26.8528 7.96358C26.8528 7.96358 26.7977 7.87504 26.7977 7.706C26.7642 7.8898 26.7092 8.00384 26.7092 8.00384L26.7575 8.06287Z" fill="#F0B83D"/>
<path d="M39.1301 13.3744C39.6306 13.5246 40.0961 14.0492 40.2705 14.5375C40.6086 15.8416 40.4918 17.308 39.3515 18.168C39.0147 18.2498 38.5612 18.168 38.4083 18.5409C38.4432 18.6925 38.6069 18.5409 38.6766 18.6576C38.2809 18.6107 37.9428 18.8897 37.6758 19.1929C37.6517 19.3204 37.5363 19.4492 37.5819 19.5766C37.3498 19.7752 37.1633 19.9966 37.1982 20.2984C37.2223 20.3454 37.2679 20.3575 37.3149 20.3575C37.1405 20.6016 37.0237 20.9384 37.1753 21.1946C37.1982 21.2295 37.2223 21.2644 37.268 21.2523C37.4196 20.9853 37.6061 20.7989 37.8959 20.717H38.2567C37.9428 20.8109 37.5591 20.9384 37.4424 21.2993C37.2921 21.5783 37.2921 21.9392 37.4424 22.2183C37.7214 22.614 38.1883 22.8703 38.7236 22.8247L38.9664 22.7536C38.9906 23.2084 39.2469 23.7665 38.839 24.1046C38.3856 24.6278 37.7335 24.6976 37.1177 24.8371C37.0936 24.8599 37.0466 24.8841 37.0466 24.9297C37.2224 25.0705 37.4303 24.872 37.6517 24.9069C38.1883 24.7445 38.7236 24.5929 39.1301 24.1274C39.2576 24.4306 39.3985 24.8371 39.1999 25.151C38.9665 25.4194 38.6417 25.6863 38.3037 25.8031C37.4893 26.1881 36.5006 26.3853 35.5453 26.2337H35.4756C35.4299 26.176 35.3132 26.176 35.2314 26.1412C35.1495 26.0244 34.9054 26.1063 34.9174 25.9198C35.6969 25.7454 36.4885 25.3375 36.8615 24.5929C37.0815 24.232 37.7335 24.4534 37.7805 23.8832C37.6517 23.7907 37.5363 23.9651 37.4075 24.0107C37.1284 24.0818 36.907 24.1851 36.6159 24.1274C36.2671 24.2669 36.0927 24.652 36.0122 24.9766C35.8606 24.9887 35.7895 25.1631 35.6741 25.2208C35.4997 24.9659 35.324 25.3845 35.1388 25.4194C34.9631 25.4663 34.8584 25.4301 34.6961 25.5133C34.2534 25.7803 33.6134 25.9896 33.4631 26.5718C33.5088 27.0843 33.0902 27.5029 33.2525 27.9564C33.2994 28.446 33.7771 28.9451 33.392 29.4348C33.3464 29.5395 33.4631 29.62 33.5329 29.632C33.6832 29.5743 33.6953 29.7259 33.7543 29.7957C33.9515 30.0278 34.2305 30.2143 34.464 30.4236C34.1957 30.4464 33.9394 30.2264 33.7771 30.0399C33.7422 30.0748 33.659 30.0748 33.659 30.1324C33.8348 30.4357 33.9743 30.8422 34.3352 30.9589C34.3821 30.9938 34.3473 31.0635 34.4049 31.0756C34.4291 30.9481 34.5794 31.0286 34.6505 31.0286C34.6733 31.0635 34.7082 31.0756 34.6961 31.1105C34.1487 31.2621 33.9515 30.6678 33.6832 30.331C33.6952 30.2264 33.6483 30.1324 33.5678 30.0868C33.4631 30.0868 33.3464 30.0868 33.3223 30.1794C33.439 30.7617 33.6013 31.3788 34.1138 31.8095C33.4631 31.517 33.5208 30.7375 33.2176 30.2143C33.1478 30.1794 33.0901 30.2612 33.0781 30.3069C33.1022 30.9012 33.172 31.4821 33.439 31.9718C33.066 31.902 33.0432 31.4714 32.9614 31.1803C32.9037 30.5054 33.1143 29.8534 32.8339 29.2604C32.846 28.5507 32.9265 27.7122 32.7642 26.9904C32.8232 26.6765 32.8111 26.3276 32.9614 26.0472C33.2297 25.6984 33.498 25.3617 33.8227 25.0705L33.8589 25.0934L33.9515 24.9069L35.069 23.7907C35.1267 23.313 34.9631 22.7429 35.0918 22.2424C35.0918 22.1606 35.2314 22.068 35.1147 21.9983C34.9174 22.0788 34.8933 22.3122 34.8249 22.4866C34.7766 22.9401 34.9175 23.3828 34.6961 23.7665C34.5217 23.8483 34.4519 23.7544 34.4049 23.5921C34.4049 23.2312 34.3003 22.9052 34.4049 22.5805C34.417 22.4973 34.3929 22.4276 34.3352 22.3578C34.091 22.4168 34.2077 22.708 34.1487 22.8703V24.1502C33.8696 23.0796 33.9515 21.9392 34.6263 21.0081C34.8933 19.5887 36.035 18.2042 37.3846 17.6098C37.6409 17.5173 37.8958 17.1322 38.1883 17.4006C38.2339 17.4006 38.2808 17.3885 38.3037 17.3536C38.3265 17.2489 38.2111 17.2731 38.1883 17.202C38.3627 17.0397 38.5949 17.3308 38.8632 17.2261C38.9088 17.2141 38.8859 17.1671 38.8859 17.1322C38.8041 17.0625 38.6994 17.0745 38.6176 16.982C38.8739 17.0625 39.165 16.9699 39.3045 16.7955C39.1771 16.7136 39.0496 16.8532 38.945 16.7485C39.0147 16.5983 39.1999 16.4346 39.3515 16.3058C39.5031 15.969 39.8399 15.643 39.7124 15.2473C39.5259 15.3049 39.5608 15.5384 39.491 15.6779C39.3743 15.8295 39.3636 16.0737 39.1301 16.1086C38.9329 16.1086 38.7692 16.0965 38.6176 16.283C38.4325 16.1314 38.2917 16.4815 38.0944 16.3528C37.7215 16.2723 37.7684 15.8067 37.4665 15.6551C37.3029 15.8295 37.5819 16.2132 37.2224 16.2602C37.0466 16.2951 36.8494 16.3648 36.7783 16.5513C36.7904 16.7727 36.8024 17.0168 36.5703 17.1094L36.4885 17.0866C36.5703 16.935 36.6977 16.7727 36.6159 16.5741C36.5931 16.4467 36.4415 16.3876 36.349 16.3299C35.8606 16.2722 35.5695 17.1671 35.0918 16.5983C35.0113 15.2593 36.6629 14.8408 37.0708 13.746C37.4424 13.3972 37.873 13.0014 38.4083 13.0363C38.6297 13.1758 38.8162 13.42 39.1301 13.3744Z" fill="#BBBDBF"/>
<path d="M39.5954 26.2578C38.7811 27.1419 37.6514 27.5028 36.4883 27.421C36.1971 27.3633 35.9986 27.2814 35.7195 27.1768C35.4176 27.0252 35.313 26.6992 35.1614 26.4309C36.4185 26.6992 37.6984 26.4429 38.7234 25.8258C38.9555 25.6286 39.1997 25.4421 39.4438 25.2449C39.5606 25.5588 39.8275 25.9197 39.5954 26.2578Z" fill="#BBBDBF"/>
<path d="M40.0489 26.6764C40.1428 26.8387 40.1307 27.0722 40.0958 27.2587C39.7121 27.9684 38.8964 28.2582 38.1411 28.387C37.3147 28.3749 36.232 28.5735 35.8832 27.5726L35.8604 27.5485C36.0817 27.5257 36.3836 27.7001 36.6854 27.6652C37.8848 27.7591 39.0494 27.2587 39.8047 26.3625C39.9912 26.3853 39.9442 26.5838 40.0489 26.6764Z" fill="#BBBDBF"/>
<path d="M40.5387 27.8638C40.6313 28.2126 40.3402 28.4098 40.2006 28.6554C39.3514 29.2953 38.0474 29.726 37.0466 29.1209C36.9191 28.9344 36.7675 28.76 36.6628 28.5614C37.2102 28.6084 37.932 28.7949 38.525 28.5856C39.0603 28.4689 39.5138 28.1898 39.9565 27.8397C40.0733 27.7122 40.1899 27.5136 40.3402 27.468L40.5387 27.8638Z" fill="#BBBDBF"/>
<path d="M40.9225 28.8525C40.8299 29.4697 40.131 29.9701 39.5729 30.1324C39.0147 30.2961 38.2688 30.3887 37.8046 29.9701L37.5134 29.632C37.9776 29.6199 38.6296 29.6789 39.1073 29.4817C39.4789 29.3999 39.8519 29.1436 40.2007 28.9451C40.3992 28.7707 40.5039 28.5037 40.736 28.3642C40.8407 28.5037 40.8299 28.7009 40.9225 28.8525Z" fill="#BBBDBF"/>
<path d="M41.1679 29.5743C41.2605 29.8412 41.2135 30.1793 41.0149 30.3779C40.5507 31.0058 39.7592 31.1922 38.9905 31.0527C38.6765 30.9588 38.478 30.7844 38.2808 30.5282C39.3286 30.6449 40.5145 30.284 40.9922 29.2603C41.1089 29.3059 41.0968 29.4817 41.1679 29.5743Z" fill="#BBBDBF"/>
<path d="M41.3061 31.203C40.8647 31.7732 40.0489 31.8322 39.4211 31.7155C39.2467 31.6457 39.1299 31.4713 39.0374 31.3197C39.8973 31.4485 40.8526 31.1453 41.3423 30.3309C41.4697 30.5859 41.4926 30.9588 41.3061 31.203Z" fill="#BBBDBF"/>
<path d="M41.4818 32.1233C41.015 32.4493 40.3174 32.5419 39.7821 32.3205C39.6546 32.2736 39.6425 32.1233 39.5728 32.0294C40.2597 32.0536 41.0512 31.9717 41.5047 31.3197C41.6093 31.5531 41.6321 31.914 41.4818 32.1233Z" fill="#BBBDBF"/>
<path d="M41.4108 32.9954C41.0513 33.2168 40.4811 33.194 40.0732 33.0195C40.0035 32.9136 39.8867 32.7982 39.9337 32.6815C40.5039 32.7861 41.0848 32.6345 41.5517 32.3434C41.5047 32.507 41.6563 32.8679 41.4108 32.9954Z" fill="#BBBDBF"/>
<path d="M41.3638 33.6246C41.0392 33.8916 40.5267 33.8339 40.1779 33.6715C40.0384 33.5656 40.0853 33.473 40.0732 33.3093C40.469 33.426 41.0513 33.5199 41.435 33.2395C41.4457 33.3563 41.4229 33.5079 41.3638 33.6246Z" fill="#BBBDBF"/>
<path d="M41.2365 33.9614C41.1788 34.1949 41.0513 34.3921 40.9225 34.5907C40.6556 34.6376 40.3403 34.6483 40.1551 34.427C40.0854 34.2526 39.9914 34.1251 40.0961 33.9386C40.457 34.0553 40.8769 34.1358 41.2365 33.9614Z" fill="#BBBDBF"/>
<path d="M40.4691 34.8347C40.5616 34.765 40.6891 34.7878 40.783 34.8106C40.2826 35.4975 39.5957 36.0221 38.8162 36.1616C38.2688 36.1495 37.7335 36.3588 37.3619 35.9053C37.2921 35.7309 37.3726 35.5565 37.4893 35.417C38.1172 34.9514 38.8632 34.9514 39.5729 34.6603L39.5957 34.6952C39.4333 35.0212 39.0725 35.3003 38.7693 35.4867V35.5565C39.0953 35.6612 39.2925 35.3003 39.5957 35.2412C39.6305 35.4398 39.8519 35.4398 39.9807 35.4626C40.0035 35.4398 40.0491 35.417 40.0491 35.37C39.923 35.2775 39.7701 35.2305 39.7352 35.0561C39.7942 34.8817 39.817 34.6952 39.9807 34.5664C40.0853 34.7301 40.2826 34.7998 40.4691 34.8347Z" fill="#BBBDBF"/>
<path d="M38.0124 12.4084L37.8729 12.2675L37.8045 12.3614C37.8381 12.3842 37.8152 12.4312 37.8273 12.454C37.7454 12.2447 37.6757 12.0005 37.6985 11.7792C37.8621 11.9656 37.9896 12.1629 38.0124 12.4084Z" fill="#BBBDBF"/>
<path d="M37.4665 12.6284C37.4893 12.6754 37.3256 12.5359 37.2921 12.6754V12.7921C37.1874 12.6754 37.0814 12.5238 37.1525 12.3614C37.28 12.3843 37.4074 12.501 37.4665 12.6284Z" fill="#BBBDBF"/>
<path d="M33.3691 22.5804C33.4389 23.1036 33.6952 23.545 33.7998 24.0575C33.5677 24.2561 33.2645 23.9408 33.1022 24.2561C32.7184 24.7324 33.2887 25.5239 32.6943 25.9197C32.3562 26.6535 32.5897 27.5833 32.6125 28.2943C32.532 28.8296 32.5427 29.4454 32.7185 30.017C32.1818 27.8744 31.1461 25.5937 32.1121 23.3827C32.3683 22.9641 32.7761 22.5093 33.2994 22.5093L33.3691 22.5804Z" fill="#F0B83D"/>
<path d="M39.1299 12.1172C39.1996 12.3493 38.8964 12.5586 39.107 12.6981C39.3633 12.513 39.3512 12.0233 39.7591 12.0005C39.7591 12.2675 39.5954 12.5237 39.5485 12.792L39.5954 12.8497C39.8865 12.6753 39.8865 12.2916 40.2474 12.2326C40.2702 12.5358 40.0489 12.792 39.9563 13.059C40.1428 13.1409 40.2004 12.8967 40.3641 12.8149C40.4688 12.78 40.5506 12.6874 40.6781 12.7223C40.5855 12.9665 40.2595 13.1409 40.3172 13.3971C40.5506 13.3971 40.6553 13.0134 40.9223 13.0362C40.8055 13.2925 40.4339 13.432 40.5385 13.711C40.7934 13.6641 40.9222 13.3153 41.2134 13.3743C41.1436 13.6185 40.6432 13.7808 40.8056 14.084C40.9813 14.0371 41.0967 13.8157 41.306 13.8626C41.1316 14.0022 40.7827 14.1538 40.8525 14.4208C41.1087 14.351 41.318 14.0371 41.5971 14.1538C41.5635 14.2343 41.4106 14.2705 41.4348 14.398C41.4576 14.5254 41.5971 14.4905 41.679 14.5603C41.4817 14.4556 41.271 14.5496 41.1194 14.6649C41.1677 14.8514 41.3878 14.6891 41.4817 14.8058C41.4227 14.8286 41.3422 14.8058 41.306 14.8756C41.3637 15.05 41.5864 15.0956 41.7715 15.0956C41.9701 15.1895 42.0626 15.3867 42.1565 15.5611C41.8305 15.5611 41.691 15.27 41.3878 15.2472C41.318 15.2472 41.2831 15.3518 41.3422 15.3867C41.6091 15.6658 42.1216 15.8415 42.1324 16.2829C41.8412 16.1434 41.5864 15.9099 41.2362 15.8992C41.1436 16.1313 41.4576 16.1434 41.5743 16.2601C41.7366 16.4117 41.8761 16.574 41.9123 16.7726C41.7017 16.5633 41.4226 16.3057 41.1194 16.3299C41.0738 16.3648 41.0967 16.4345 41.0967 16.4815C41.1316 16.5861 41.2483 16.5271 41.306 16.574C41.8064 16.9001 41.7259 17.5172 41.9472 17.9827C41.4575 17.8204 41.4817 17.214 41.0148 17.0396C40.8525 17.2019 41.1906 17.3535 41.2362 17.5172C41.4696 17.9358 41.6212 18.518 41.3878 18.9715C40.7358 19.6235 39.747 19.9267 39.5485 20.8806C39.2573 21.5434 38.2457 21.428 38.2806 22.2652C38.1169 22.1256 38.2216 21.8922 38.2565 21.7299C38.5127 21.2415 39.2117 21.4387 39.3512 20.9034C39.3163 20.8457 39.2573 20.8565 39.1996 20.8565C38.769 21.2053 38.0016 21.2885 37.9197 21.974C37.8956 22.1498 38.0123 22.2772 38.0472 22.4396C37.8271 22.3349 37.6634 22.068 37.6286 21.8345C37.6514 21.5085 37.8043 21.2294 38.1169 21.0778C38.5704 20.9611 39.107 20.8685 39.4907 20.4969C39.5028 20.45 39.4908 20.403 39.4438 20.3802C39.1419 20.4849 38.7811 20.5895 38.455 20.4728C38.1062 20.3332 37.7104 20.5077 37.4072 20.6941C37.4072 20.5077 37.5816 20.3681 37.7212 20.2514C38.3155 20.0314 38.8964 20.4379 39.5485 20.3332C39.6196 20.2635 39.688 20.1696 39.6651 20.0421C39.7819 19.9965 39.9334 19.9375 39.9804 19.8208C39.8637 19.7631 39.6423 19.8207 39.4907 19.7751C39.0842 19.6235 39.1191 19.0533 38.6173 19.0413H38.188C38.3383 18.9017 38.5704 18.9017 38.769 18.9487C39.3043 19.1352 39.421 19.9844 40.1186 19.6705C40.2005 19.6115 40.3293 19.6463 40.387 19.5296L40.2944 19.437C40.0609 19.4022 39.7819 19.4947 39.5954 19.3566C39.374 19.0762 39.3512 18.6925 39.0145 18.4832C39.1889 18.459 39.374 18.5301 39.5485 18.6106C39.8745 18.9836 40.2353 19.4263 40.7827 19.2398C40.8525 19.1929 40.9571 19.1929 41.0148 19.0882L40.992 19.0185C40.6553 18.9715 40.1307 19.0882 39.9563 18.6576C39.8973 18.5757 39.9563 18.4952 39.9804 18.4121C40.2232 18.6696 40.5963 19.0064 41.0511 18.8789C41.1678 18.7743 41.4227 18.8092 41.4348 18.5878C41.2832 18.3893 41.1557 18.6455 40.992 18.6348C40.7935 18.6455 40.5962 18.6348 40.4688 18.4832C40.2233 17.8539 40.9812 17.4582 40.8994 16.7954C41.1436 15.5034 40.8404 13.9203 39.6195 13.106C39.3043 12.9316 38.9662 12.78 38.6173 12.6753C38.5248 12.4888 38.7811 12.3614 38.8629 12.2326C38.8965 12.1051 38.9903 11.9884 38.9662 11.8261C39.0493 11.8838 39.095 12.0126 39.1299 12.1172Z" fill="#F0B83D"/>
<path d="M39.1999 20.0422C38.7115 20.1817 38.3037 19.4022 37.7214 19.7162C37.9428 19.472 38.2809 19.4948 38.5707 19.5538C38.8283 19.6464 38.9088 20.0194 39.1999 20.0422Z" fill="#F0B83D"/>
<path d="M40.026 22.9869C39.9442 23.3358 39.7591 23.8483 40.0033 24.1971C40.1079 24.4305 40.3172 24.5929 40.4916 24.7565C40.3065 25.0705 40.1428 25.4542 40.387 25.7802C40.5386 26.0592 41.1088 26.0713 40.76 26.455C40.666 26.6643 40.6781 26.8387 40.6781 27.0842C40.0381 25.6755 39.4331 24.1501 39.5136 22.5335C39.6652 22.6958 39.8275 22.9172 40.026 22.9869Z" fill="#F0B83D"/>
<path d="M41.4349 27.9564C41.3879 28.2354 41.1195 28.4796 41.2832 28.7828C41.4107 29.0149 41.6213 29.2255 41.8414 29.3409C41.7367 29.5395 41.679 29.7716 41.5972 29.9943C41.2953 29.1558 41.1438 28.2475 40.8057 27.4211C40.9814 27.6424 41.2256 27.7819 41.4349 27.9564Z" fill="#F0B83D"/>
<path d="M42.04 30.936L41.7958 31.203C41.7368 30.9709 41.7261 30.7147 41.7019 30.4705C41.7851 30.6798 41.9702 30.7147 42.04 30.936Z" fill="#F0B83D"/>
<path fill-rule="evenodd" clip-rule="evenodd" d="M33.1156 22.174C33.0405 22.1968 33.2015 22.0573 33.2122 21.9714C33.2229 21.8842 33.2659 22.1646 33.2659 22.1646C33.2659 22.1646 33.1907 22.1539 33.1156 22.174Z" fill="#231F20"/>
<path d="M37.5361 20.1133L37.6287 20.0422H37.6984L37.5361 20.1133Z" fill="#BBBDBF"/>
<path d="M38.9085 21.9513C39.0011 22.1136 38.9447 22.3229 38.9662 22.5094C38.8964 22.614 38.7932 22.5094 38.7234 22.5094C38.5825 22.4168 38.502 22.2545 38.5704 22.0908C38.6295 22.009 38.6536 21.8815 38.7462 21.8346C38.8629 21.7876 38.8508 21.9392 38.9085 21.9513Z" fill="#F0B83D"/>
<path d="M38.1171 13.9097C38.2459 13.8627 38.3975 13.8976 38.5021 13.9794C38.5612 14.1069 38.4082 14.119 38.3626 14.1766C37.8729 14.2934 37.4893 14.8059 36.9312 14.5375C36.954 14.4087 37.0586 14.3041 37.1176 14.1766C37.2102 14.0492 37.3376 13.9325 37.4892 13.8855C37.6985 13.8976 37.932 14.1995 38.1171 13.9097Z" fill="#231F20"/>
<path d="M41.5517 28.5386C41.4578 28.2233 42.3084 27.7698 41.5517 27.7121C41.4108 27.6182 41.2364 27.5257 41.168 27.3512C41.6214 27.2466 42.0856 27.1768 42.5753 27.1299C42.6451 27.1768 42.7498 27.154 42.8075 27.2345C42.947 27.3043 42.9121 27.5136 42.8893 27.6424C42.7618 27.7698 42.621 27.9335 42.4935 28.0033C42.4935 28.0502 42.401 28.12 42.4935 28.1549C42.2118 28.3266 41.6443 28.5158 41.5517 28.5386Z" fill="#BBBDBF"/>
<path d="M43.2272 21.3234C43.4486 21.5435 43.5988 21.8346 43.902 21.9741C43.9718 21.9634 44.0067 21.8923 44.0295 21.8346C44.3447 22.1955 44.4722 22.6959 44.6587 23.1386C44.7056 23.1386 44.7633 23.1507 44.7982 23.0917C44.9257 23.4284 44.8452 23.7316 44.8667 24.1274C45.1001 24.5111 44.9498 25.0357 44.8211 25.4194C44.7392 25.7454 44.3448 25.8152 44.2629 26.1412C44.3796 26.2807 44.4723 26.1412 44.5997 26.117C44.8788 26.0714 45.0894 26.176 45.2866 26.3156C45.194 26.6067 45.0075 26.9206 44.7057 27.0602C44.6359 27.0843 44.6118 27.1541 44.6359 27.2346C44.8667 27.4103 45.2061 27.3392 45.4033 27.6183C45.6475 27.8745 45.7401 28.1898 45.8689 28.4917C45.6368 28.6084 45.8809 28.8177 45.846 28.9921C45.8098 29.2604 46.1707 29.5972 45.8689 29.8185C45.787 30.1217 45.6824 30.4129 45.6944 30.7375C45.4382 31.0407 45.3563 31.4137 44.9726 31.5881C44.7633 31.7156 44.5648 31.9369 44.4146 32.1234C44.2978 31.89 44.5192 31.6351 44.5071 31.3667C44.6815 30.8073 45.0303 30.2613 44.7982 29.6092C44.6466 29.0042 44.1342 28.5386 43.5412 28.387C42.9589 28.3173 42.3538 28.3173 41.8413 28.4689C41.7487 28.4917 41.6441 28.5158 41.5515 28.5386C42.005 28.3709 42.2049 28.2797 42.4934 28.1549C42.7496 27.9792 43.1225 27.8168 43.1802 27.468C43.1453 27.3271 43.1333 27.1648 43.0528 27.0374C42.7617 26.769 42.4357 26.9434 42.0855 26.8858L41.5744 26.9434C42.4934 26.3276 43.1923 25.3147 43.3668 24.1972C43.4821 23.2554 43.2728 22.2424 43.1802 21.3234H43.2272Z" fill="#F0B83D"/>
<path d="M43.6579 22.0438C44.0886 23.3237 43.9369 24.7914 43.4137 25.9667C43.3668 26.0592 43.2621 26.176 43.1575 26.0941C43.0757 25.9076 43.2501 25.7104 43.3426 25.5347C43.6928 24.5929 43.9249 23.5102 43.611 22.4865C43.5533 22.3229 43.5063 22.1498 43.564 21.974C43.5989 21.974 43.6337 22.021 43.6579 22.0438Z" fill="#231F20"/>
<path d="M44.4846 23.906V23.9878H44.4148V23.8603C44.4483 23.8603 44.4846 23.8711 44.4846 23.906Z" fill="#231F20"/>
<path d="M44.1932 25.6058C44.0188 25.8258 43.9371 26.188 43.611 26.2336C43.4715 25.9318 43.9142 25.803 43.9719 25.5132C44.2282 25.1161 44.2859 24.6398 44.3905 24.1743L44.4603 24.1273C44.4844 24.6398 44.3449 25.1402 44.1932 25.6058Z" fill="#231F20"/>
<path d="M45.2411 28.3172C45.4974 28.7371 45.6248 29.306 45.4974 29.7957C45.4034 29.6682 45.484 29.5515 45.4263 29.412C45.3216 28.8176 45.0426 28.2582 44.4845 27.8637C44.4724 27.7819 44.5194 27.6772 44.6361 27.7121C44.8668 27.8745 45.0654 28.0851 45.2411 28.3172Z" fill="#231F20"/>
<path d="M45.1352 30.1794C45.0306 30.7147 44.8924 31.2969 44.5999 31.7853C44.5651 31.7625 44.5529 31.7034 44.5529 31.635C44.5999 31.517 44.671 31.4016 44.6817 31.25C44.7985 30.8314 44.9501 30.4235 44.997 29.9701C44.9729 29.4455 44.7167 28.9692 44.345 28.5614C44.3209 28.5037 44.345 28.4339 44.4148 28.4219C44.9971 28.8069 45.2184 29.5515 45.1352 30.1794Z" fill="#231F20"/>
<path d="M46.9973 34.5195C47.0912 35.2883 46.3466 35.9752 45.7871 36.383L45.3565 36.65C45.1244 36.1268 44.9258 35.5325 44.7742 34.9515C45.2411 34.5558 45.8341 34.4511 46.4271 34.2995C46.6378 34.4042 46.8698 34.2646 46.9973 34.5195Z" fill="#00B6F1" stroke="white" stroke-width="0.228074" stroke-miterlimit="3.864"/>
<path d="M48.4059 35.5915C48.6621 36.6849 49.3839 37.6629 49.1853 38.9079C48.4179 40.5487 46.6135 41.3054 45.1122 42.0044C44.9378 42.05 44.7741 42.1198 44.5769 42.1198C44.1342 40.9217 43.7974 39.6874 43.4714 38.4424C43.623 38.3619 43.8779 38.3847 44.0536 38.268C45.6475 37.7327 47.4869 36.9062 48.1617 35.1487C48.2771 35.2306 48.3254 35.4399 48.4059 35.5915Z" fill="#00B6F1" stroke="white" stroke-width="0.228074" stroke-miterlimit="3.864"/>
<path d="M42.0171 38.2679C41.993 38.3726 41.8763 38.4652 41.7958 38.5121C41.6093 38.6288 41.4349 38.7456 41.2363 38.826C41.353 38.6409 41.7139 38.3619 42.0171 38.2679Z" fill="#00B6F1" stroke="#00B6F1" stroke-width="0.228074" stroke-miterlimit="3.864"/>
<path d="M12.4666 40.8639C14.4213 41.4341 16.3546 42.0271 18.3791 42.4108C19.985 42.8414 21.7653 42.9702 23.5121 43.1446C26.0599 43.4707 28.6438 43.0749 31.0641 42.8294C32.9504 42.5624 34.7763 42.1317 36.57 41.6206C38.6885 41.0262 40.8404 40.5258 42.6905 39.2929L43.1574 38.7562L43.25 38.8501C43.5988 40.2347 44.0536 41.5736 44.5299 42.9005C44.6466 43.3767 44.7634 44.006 44.3448 44.3548C41.1558 46.17 37.6756 47.0192 34.0679 47.8108C33.3341 47.8926 32.5425 48.0442 31.8208 48.1489C29.2033 48.4749 26.3054 48.5433 23.6047 48.4749C22.6736 48.4386 21.8244 48.3582 20.9161 48.2535C19.5785 48.1958 18.3214 47.9154 17.0402 47.6941C13.6767 46.9736 10.2905 46.1016 7.31073 44.4245C6.93776 44.1576 6.85729 43.7618 6.92706 43.3539C7.27588 42.074 7.77627 40.8639 8.13716 39.5827C8.219 39.2808 8.27671 38.9776 8.42831 38.7106C9.54588 39.9328 11.0351 40.3514 12.4666 40.8639Z" fill="#00B6F1" stroke="white" stroke-width="0.228074" stroke-miterlimit="3.864"/>
<path d="M39.3285 38.826C38.9086 39.0715 38.4672 39.1748 37.9896 39.1413C37.9427 39.0018 38.164 39.0474 38.2337 38.9548C38.6067 38.8502 38.9207 38.8502 39.3285 38.826Z" fill="#00B6F1" stroke="#00B6F1" stroke-width="0.228074" stroke-miterlimit="3.864"/>
<path d="M37.7213 40.1892C37.6059 40.2469 37.3496 40.3287 37.1175 40.3287C37.0585 40.259 37.0706 40.1181 37.0706 40.0376L37.7213 40.1892Z" fill="#00B6F1" stroke="#00B6F1" stroke-width="0.228074" stroke-miterlimit="3.864"/>
<path d="M47.7554 33.9144C48.1847 34.8817 47.5796 35.8007 46.9047 36.4527C46.0314 37.2201 44.9729 37.6628 43.9022 38.0117L43.3897 38.0814C43.4367 37.966 43.2972 37.907 43.3428 37.7903C44.8454 37.3019 46.4044 36.662 47.2657 35.1258C47.3703 34.8696 47.3945 34.5557 47.2657 34.2994C46.9974 33.9385 46.6136 34.0432 46.2299 34.0552C45.6249 34.2297 45.0198 34.3813 44.5073 34.765L44.4375 34.9273C44.671 35.5444 44.8454 36.1736 45.0426 36.8015C44.9259 36.8834 44.7636 36.9411 44.6361 37.0108C44.3799 36.6392 44.3329 36.1267 44.1236 35.7081C44.1008 35.2654 43.4715 34.6952 44.0538 34.3692C44.9259 33.9144 45.8811 33.5656 46.882 33.473C47.1959 33.4851 47.5447 33.6125 47.7554 33.9144Z" fill="#F0B83D"/>
<path d="M12.8275 39.3627C13.2461 39.4552 13.7814 39.5357 14.0953 39.199C14.1892 38.9548 13.8981 38.8381 13.7706 38.7334C13.1186 38.4195 12.2922 38.4544 11.5476 38.4195C11.4309 38.3256 11.3141 38.2558 11.2095 38.1284C12.1178 38.0237 13.0837 38.1861 13.945 38.3726C14.2241 38.5698 14.6776 38.6288 14.7487 39.0474C14.8064 39.3157 14.6669 39.5599 14.4562 39.6538C13.7814 39.9328 13.2005 39.7692 12.4894 39.6766C11.7918 39.5478 11.1988 39.152 10.6742 38.5939C10.2663 38.1981 9.82494 37.6977 9.26683 37.8842C9.16218 37.9888 9.14876 38.1633 9.19706 38.3028L9.32452 38.5121C10.2435 39.2339 11.2913 39.6296 12.3512 39.9905C12.7349 40.1073 13.1535 40.2924 13.5841 40.4091C16.1788 41.096 18.6353 41.8996 21.4058 42.1787C22.5569 42.3759 23.8958 42.4229 25.059 42.5383L25.106 42.4926C28.5284 42.5034 31.5887 42.1089 34.7764 41.3281C35.4633 41.143 36.0576 40.9565 36.7552 40.7928C38.2914 40.4091 39.8275 39.8738 41.2832 39.199C41.7138 38.873 42.5523 38.7334 42.4249 38.0117C42.331 37.8252 42.0854 37.8601 41.9124 37.8842C40.9692 38.3028 40.4219 39.5143 39.3741 39.6538C38.5369 39.7464 37.524 40.1649 36.9069 39.3855C36.8961 39.1869 36.8961 38.9776 37.0235 38.826C37.5817 38.2921 38.3624 38.28 39.107 38.1512H40.446C40.2233 38.7455 39.5377 38.3377 39.1527 38.4893C38.6415 38.5698 38.0472 38.5818 37.6286 38.9548C37.5816 39.0474 37.5012 39.1748 37.6058 39.2687C38.176 39.6994 38.9555 39.3157 39.5485 39.1171C40.5963 38.5818 41.3637 37.0927 42.7375 37.5703C42.9119 37.6387 43.0286 37.8372 43.0528 38.0117C43.0407 38.4544 42.7375 38.8381 42.3766 39.0715C41.5864 39.6873 40.6553 40.0254 39.7349 40.3863C36.5808 41.4462 33.2174 42.2364 29.8083 42.6791C28.8182 42.7261 27.8174 42.8763 26.8044 42.9233C24.4083 42.9461 22.0457 42.761 19.706 42.341C19.5195 42.388 19.345 42.2605 19.1478 42.2713C16.0983 41.5844 13.0609 40.9216 10.2207 39.6538C9.55662 39.2687 8.4404 38.8032 8.59066 37.8372C8.73019 37.5703 8.98643 37.4643 9.26683 37.4066C10.7091 37.4535 11.4537 39.1171 12.8275 39.3627Z" fill="#F0B83D"/>
<path d="M6.86938 34.9045L6.28709 36.5802C5.5653 36.2314 4.89047 35.6156 4.59934 34.8348C4.58727 34.6724 4.58727 34.4967 4.69191 34.3692C5.14672 34.1479 5.64716 34.3692 6.07648 34.4739C6.35688 34.5906 6.63594 34.7529 6.86938 34.9045Z" fill="#00B6F1" stroke="white" stroke-width="0.228074" stroke-miterlimit="3.864"/>
<path d="M4.03993 36.1616C5.08773 37.4536 6.64802 37.9071 8.11441 38.3968C8.07952 38.8261 7.88099 39.246 7.78842 39.6767C7.57913 40.3636 7.35773 41.037 7.13636 41.7132C6.99683 41.8179 7.13639 42.2364 6.82245 42.0741C5.43656 41.6206 4.12177 40.9565 3.02836 39.8511C2.55074 39.3158 2.10801 38.653 2.36426 37.9299C2.60978 37.0109 3.0391 36.1616 3.30742 35.2413L3.41203 35.0561C3.55156 35.4519 3.77295 35.8356 4.03993 36.1616Z" fill="#00B6F1" stroke="white" stroke-width="0.228074" stroke-miterlimit="3.864"/>
<path d="M10.4074 38.8032C10.1163 38.6878 9.74332 38.4893 9.63867 38.221C9.94188 38.3149 10.186 38.5819 10.4074 38.8032Z" fill="#00B6F1" stroke="#00B6F1" stroke-width="0.228074" stroke-miterlimit="3.864"/>
<path d="M13.654 39.0474C13.654 39.187 13.4797 39.0823 13.4099 39.1414C13.0839 39.0716 12.6532 39.0367 12.3728 38.8033C12.8276 38.8261 13.2824 38.8261 13.654 39.0474Z" fill="#00B6F1" stroke="#00B6F1" stroke-width="0.228074" stroke-miterlimit="3.864"/>
<path d="M14.5971 40.0135C14.5501 40.1181 14.5971 40.2818 14.4803 40.3287L13.9209 40.1651C14.1436 40.0953 14.3757 40.0725 14.5971 40.0135Z" fill="#00B6F1" stroke="#00B6F1" stroke-width="0.228074" stroke-miterlimit="3.864"/>
<path d="M6.77559 33.9386C7.13649 34.1251 7.54435 34.2177 7.84621 34.5437C7.76437 35.0562 7.50944 35.4868 7.38065 35.9752C7.21831 36.2891 7.20626 36.6621 7.01978 36.9653C6.86952 36.9412 6.7179 36.8365 6.61326 36.7667C6.64814 36.4756 6.78767 36.1389 6.84536 35.8477C6.97416 35.5566 7.11366 35.2655 7.18343 34.9515C7.25319 34.7074 6.97416 34.6135 6.82256 34.5195C6.19334 34.16 5.41384 33.9145 4.69205 33.9856C4.51764 34.0325 4.34322 34.1828 4.28553 34.3465C4.146 35.4171 5.15761 36.1617 5.92636 36.7198C6.65888 37.1625 7.4276 37.4765 8.22989 37.7448C8.28892 37.8253 8.22989 37.9661 8.18428 38.0587C7.24112 37.8722 6.35699 37.5113 5.54129 37.0109C4.51763 36.4407 3.55167 35.3929 3.72608 34.2069C3.79585 33.8219 4.16881 33.4959 4.55252 33.4261C5.332 33.4154 6.08869 33.6945 6.77559 33.9386Z" fill="#F0B83D"/>
<path d="M8.44848 43.5311C8.65241 43.5874 8.75167 43.6008 8.83887 43.3875L9.45871 41.8527C9.36748 41.5562 9.31917 41.5254 9.27758 41.5079L9.3098 41.4274L9.99264 41.7038L10.5575 43.5405L10.5642 43.5418L10.9613 42.5611C11.0391 42.3666 11.0432 42.2445 10.7896 42.1184L10.8218 42.0392L11.5181 42.3196L11.4859 42.4001C11.2404 42.3357 11.1907 42.4028 11.1277 42.5584L10.3576 44.4648L10.2663 44.4273L9.53519 42.0902L9.52847 42.0875L9.00522 43.3835C8.91131 43.6169 8.95424 43.7055 9.18365 43.8289L9.15147 43.9094L8.41626 43.6129L8.44848 43.5311Z" fill="#231F20"/>
<path d="M11.5451 42.3411L13.461 42.9636L13.245 43.6317L13.1618 43.6049C13.2383 43.1072 13.0303 42.9489 12.5822 42.8026C12.3984 42.7436 12.3354 42.7382 12.2884 42.8791L12.0375 43.6505C12.3555 43.7565 12.5541 43.7257 12.7379 43.3299L12.8237 43.3581L12.4588 44.481L12.3716 44.4528C12.4668 44.0248 12.33 43.8706 12.0013 43.7632L11.741 44.5669C11.6927 44.7131 11.7437 44.7735 11.9584 44.8432C12.2844 44.9492 12.6506 44.9734 13.0236 44.54L13.1162 44.5695L12.7593 45.2175L10.8167 44.587L10.8435 44.5038C11.0393 44.5454 11.1454 44.5682 11.2124 44.3616L11.7343 42.7557C11.8054 42.5356 11.6686 42.4833 11.5183 42.4243L11.5451 42.3411Z" fill="#231F20"/>
<path d="M16.7881 43.8585C16.6673 43.841 16.5734 43.9054 16.5023 44.0221L15.3499 45.9138L15.2586 45.891L15.0534 44.167L15.0306 44.163L14.0431 45.612L13.9479 45.5891L13.6997 43.3741C13.6795 43.1971 13.6527 43.1568 13.5159 43.1031L13.5347 43.0173L14.5355 43.248L14.5154 43.3339C14.3906 43.3151 14.294 43.3004 14.2645 43.4265C14.2565 43.4627 14.2578 43.5029 14.2632 43.5445L14.3839 44.866L14.3906 44.8674L15.0292 43.9215L14.9849 43.5673C14.9581 43.4828 14.9286 43.4359 14.7676 43.3916L14.7864 43.3071L15.849 43.5512L15.8288 43.6371C15.6799 43.613 15.5806 43.5942 15.5538 43.7096C15.5444 43.7498 15.5538 43.8383 15.5578 43.9081L15.6611 45.1236L15.6678 45.1263L16.3118 44.057C16.3306 44.0248 16.3534 43.9913 16.3695 43.9188C16.4017 43.7793 16.2837 43.7485 16.1683 43.7149L16.1884 43.6304L16.8082 43.7739L16.7881 43.8585Z" fill="#231F20"/>
<path d="M18.6421 46.0051C18.3456 46.2506 18.0424 46.425 17.601 46.3552C16.7974 46.2278 16.4526 45.5932 16.5545 44.9492C16.6659 44.2489 17.2468 43.7901 17.9713 43.9041C18.2812 43.9537 18.5213 44.1644 18.6099 44.1791C18.7025 44.1939 18.7454 44.1268 18.7937 44.045L18.8876 44.0597L18.7588 44.8674L18.6729 44.8526C18.5991 44.5347 18.3738 44.0852 17.9807 44.0222C17.4776 43.943 17.2589 44.4488 17.1663 45.0311C17.1341 45.239 17.1033 45.5731 17.1945 45.8132C17.3005 46.0856 17.5648 46.1795 17.6721 46.1969C17.9404 46.2399 18.2154 46.1768 18.5522 45.9018L18.6421 46.0051Z" fill="#231F20"/>
<path d="M20.8357 46.7443L19.7128 46.6047L19.7235 46.5189C19.9409 46.5283 20.0039 46.5323 20.0174 46.4183C20.0281 46.3257 19.9489 46.0547 19.9141 45.938L19.1346 45.8427C19.0071 46.0802 18.9347 46.2143 18.9266 46.2707C18.9105 46.4022 19.0755 46.433 19.1936 46.4531L19.1815 46.5403L18.4785 46.4545L18.4892 46.3673C18.6811 46.3632 18.7428 46.2519 18.8783 46.005L19.8818 44.1992L19.9785 44.2113L20.5272 46.1298C20.6372 46.5189 20.6788 46.6436 20.8451 46.6571L20.8357 46.7443ZM19.8792 45.7957L19.6323 44.9116L19.203 45.7139L19.8792 45.7957Z" fill="#231F20"/>
<path d="M22.5518 45.1839C22.5061 44.9357 22.325 44.5211 21.9145 44.4916C21.732 44.4796 21.5335 44.5708 21.5174 44.7962C21.504 44.9853 21.5656 45.0658 21.8487 45.2335L22.3425 45.5233C22.4565 45.5904 22.7073 45.8104 22.6805 46.1915C22.6591 46.496 22.4069 46.9025 21.7656 46.8582C21.4342 46.8341 21.2866 46.7053 21.1779 46.6972C21.1055 46.6919 21.0827 46.7536 21.0652 46.8086L20.9646 46.8019L21.025 45.9419L21.1256 45.9486C21.1712 46.3055 21.3456 46.712 21.787 46.7442C22.2056 46.7724 22.2472 46.4303 22.2499 46.3847C22.2673 46.1512 22.109 46.056 21.8903 45.9325L21.6649 45.8051C21.088 45.4764 21.1095 45.1772 21.1202 45.0175C21.1363 44.8056 21.2772 44.3387 21.9386 44.3856C22.2177 44.4044 22.3733 44.5305 22.4739 44.5372C22.5544 44.544 22.5746 44.493 22.5974 44.4272L22.702 44.4353L22.6497 45.1906L22.5518 45.1839Z" fill="#231F20"/>
<path d="M24.4662 46.9374L23.2211 46.8931L23.2238 46.8059C23.4801 46.7938 23.5632 46.7898 23.574 46.496L23.6384 44.658C23.3942 44.6633 23.0333 44.6687 22.9434 45.2241L22.8428 45.2201L22.8777 44.5198L24.9719 44.5936L24.9545 45.2952L24.8525 45.2912C24.8029 44.7304 24.4433 44.6996 24.2032 44.6781L24.1388 46.5175C24.128 46.8126 24.2126 46.8233 24.4702 46.8488L24.4662 46.9374Z" fill="#231F20"/>
<path d="M27.0888 46.9602H25.071V46.873C25.2669 46.8489 25.3716 46.8381 25.3716 46.6261V44.9357C25.3716 44.705 25.228 44.6983 25.071 44.6889V44.6003H26.2892V44.6889C26.045 44.6983 25.9377 44.7023 25.9377 45.0095V46.6557C25.9377 46.8234 26.0142 46.8515 26.2477 46.8515C26.7749 46.8515 26.9708 46.5617 27.1304 46.1687H27.2324L27.0888 46.9602Z" fill="#231F20"/>
<path d="M27.1614 44.5951L29.1725 44.4904L29.21 45.1907L29.1228 45.1961C29.0168 44.7037 28.7633 44.6299 28.2937 44.6541C28.1018 44.6648 28.0401 44.6823 28.0468 44.8325L28.0898 45.6402C28.4252 45.6268 28.5982 45.5275 28.6277 45.0915L28.7176 45.0874L28.7794 46.2654L28.6894 46.2694C28.6251 45.836 28.4413 45.7408 28.0965 45.7596L28.1407 46.6021C28.1488 46.7564 28.2172 46.7953 28.4426 46.7819C28.7847 46.7658 29.1362 46.6558 29.3281 46.1178L29.426 46.1124L29.3241 46.8449L27.2848 46.9509L27.2794 46.8651C27.478 46.8329 27.5853 46.8168 27.5746 46.6008L27.4847 44.9144C27.474 44.6836 27.3264 44.6849 27.1654 44.6823L27.1614 44.5951Z" fill="#231F20"/>
<path d="M32.4137 44.2824C32.2259 44.3294 32.1494 44.3764 32.1736 44.6058L32.2903 45.7139C32.3118 45.9179 32.2957 46.2331 32.1669 46.4035C32.0126 46.6101 31.7174 46.7081 31.5081 46.7282C31.3565 46.7443 31.0278 46.7577 30.781 46.5846C30.6187 46.4679 30.5154 46.3566 30.4751 45.9823L30.353 44.8218C30.3222 44.5293 30.2323 44.532 30.0351 44.532L30.0256 44.4461L31.1995 44.3227L31.209 44.4086C30.9809 44.4434 30.8735 44.4582 30.9057 44.7641L31.0278 45.9232C31.048 46.1218 31.0989 46.5994 31.598 46.5471C32.2098 46.484 32.1615 45.9514 32.1373 45.73L32.026 44.6702C32.0045 44.4582 31.9509 44.3455 31.6503 44.3616L31.641 44.2757L32.4043 44.1966L32.4137 44.2824Z" fill="#231F20"/>
<path d="M32.7641 46.4223C32.9667 46.3646 33.0593 46.3257 33.0244 46.0976L32.7641 44.4636C32.5333 44.2556 32.477 44.2543 32.4327 44.2623L32.418 44.1751L33.1465 44.0597L34.5766 45.3437L34.582 45.3423L34.417 44.2972C34.3848 44.0906 34.3244 43.9833 34.0427 44.0061L34.0292 43.9202L34.7698 43.8035L34.7832 43.8894C34.5404 43.9591 34.5323 44.0423 34.5592 44.2073L34.8798 46.2385L34.7832 46.2533L32.9533 44.6286L32.9465 44.6299L33.1652 46.0078C33.2041 46.2573 33.2873 46.311 33.5463 46.2975L33.5597 46.3848L32.7775 46.5082L32.7641 46.4223Z" fill="#231F20"/>
<path d="M36.4696 45.8226L35.2742 46.0775L35.2554 45.9916C35.4366 45.9353 35.5667 45.8924 35.5224 45.6817L35.1709 44.0289C35.1226 43.8035 34.9603 43.8303 34.8006 43.8531L34.7832 43.7686L35.9786 43.5137L35.996 43.5996C35.8377 43.6398 35.674 43.6787 35.7237 43.9108L36.0752 45.5637C36.1221 45.7824 36.2603 45.7636 36.4508 45.7367L36.4696 45.8226Z" fill="#231F20"/>
<path d="M38.2661 45.3543L37.0613 45.6776L37.0398 45.5931C37.28 45.5059 37.3591 45.4777 37.284 45.1946L36.8064 43.417C36.5743 43.4935 36.2308 43.6048 36.3086 44.1616L36.2107 44.1871L36.0403 43.5069L38.0635 42.9649L38.2512 43.641L38.1533 43.6679C37.9413 43.146 37.5899 43.2225 37.3538 43.2708L37.83 45.0484C37.9065 45.3355 37.9897 45.3194 38.2432 45.2698L38.2661 45.3543Z" fill="#231F20"/>
<path d="M38.2043 42.9233L40.1081 42.2686L40.3376 42.9327L40.2557 42.9595C40.0169 42.5182 39.7552 42.5155 39.3098 42.6684C39.1273 42.7315 39.0723 42.765 39.1206 42.9072L39.385 43.6733C39.7029 43.5673 39.8425 43.4237 39.7513 42.9971L39.8371 42.9676L40.2208 44.0838L40.135 44.1133C39.9525 43.7149 39.7512 43.6733 39.4239 43.786L39.6989 44.5842C39.7486 44.7305 39.825 44.7479 40.0397 44.6741C40.363 44.5628 40.6716 44.3602 40.7078 43.79L40.7991 43.7591L40.9037 44.4917L38.9718 45.1558L38.9449 45.0739C39.1247 44.9894 39.224 44.9438 39.1542 44.7385L38.6041 43.1407C38.529 42.9233 38.3868 42.9649 38.2325 43.0065L38.2043 42.9233Z" fill="#231F20"/>
<path d="M41.2028 44.2676C41.4041 44.1778 41.4255 44.057 41.3732 43.9403L40.6729 42.3666C40.5871 42.172 40.4435 42.2284 40.3134 42.2713L40.2771 42.1908L41.2511 41.7588C42.1446 41.3604 42.6813 41.7857 42.9 42.2767C43.1603 42.8643 43.0382 43.515 42.2466 43.8987L41.2377 44.3481L41.2028 44.2676ZM41.8871 43.7028C41.9447 43.8303 41.9984 43.8746 42.1514 43.8075C42.5083 43.6478 42.6987 43.3191 42.3593 42.5571C42.2292 42.266 41.8549 41.6193 41.3062 41.8635C41.1009 41.9547 41.1398 42.0325 41.1746 42.1023L41.8871 43.7028Z" fill="#231F20"/>
<path d="M13.9922 14.0251C14.1197 13.8976 14.3062 13.8976 14.4564 13.9794C14.6308 14.119 14.7596 14.3631 14.8643 14.5603C14.608 14.5496 14.2471 14.712 14.015 14.5147C13.8057 14.3041 13.5495 14.2343 13.2932 14.1297C13.2825 14.0948 13.2463 14.0371 13.2932 14.0022C13.363 13.9097 13.4797 13.9097 13.6072 13.9097C13.7359 13.9553 13.8406 14.1297 13.9922 14.0251Z" fill="#231F20"/>
<path d="M16.1682 15.7946C16.1561 15.8295 16.1091 15.8415 16.1212 15.8764C16.2258 15.8644 16.3653 15.8872 16.4593 15.9462C16.5867 16.0736 16.4941 16.2252 16.4941 16.3768C16.4244 16.4573 16.2956 16.4345 16.2258 16.3997C16.1091 16.342 16.1212 16.2132 16.0286 16.1434C15.9817 16.1904 16.0165 16.3299 15.9119 16.3057C15.8072 16.1434 15.7026 15.9811 15.6436 15.7946C15.7026 15.8067 15.8193 15.8872 15.9119 15.8174C15.9696 15.7476 16.0514 15.6899 16.144 15.6779C16.191 15.702 16.1682 15.7597 16.1682 15.7946Z" fill="#231F20"/>
<path d="M14.5569 14.4556L14.3168 14.4851C14.251 14.4932 14.1732 14.4731 14.1075 14.4047C14.0874 14.3872 14.0713 14.3564 14.0444 14.3403C14.0753 14.3362 14.0954 14.3309 14.1196 14.3027C14.1196 14.3027 14.145 14.4355 14.2899 14.4355C14.3919 14.4355 14.4402 14.3282 14.4402 14.3282L14.5569 14.4556Z" fill="white"/>
<path d="M36.0818 15.7718H36.1502C36.1046 15.9221 35.953 16.0857 35.906 16.2601C35.7893 16.295 35.7894 16.1555 35.7665 16.0857C35.686 16.1904 35.6619 16.342 35.5224 16.3997C35.4298 16.4225 35.3479 16.3997 35.2782 16.3299C35.3238 16.1783 35.1735 15.9221 35.4056 15.8764C35.4633 15.8644 35.5224 15.8416 35.5921 15.8523L35.6498 15.8992C35.686 15.8416 35.6042 15.7597 35.6149 15.6779C35.8242 15.5853 35.8953 15.969 36.0818 15.7718Z" fill="#231F20"/>
<path d="M37.1577 14.4422C37.1577 14.4422 37.261 14.4972 37.3388 14.4945C37.414 14.4919 37.5402 14.4731 37.6086 14.4073C37.63 14.3912 37.6474 14.3617 37.6743 14.3443C37.6434 14.3389 37.6233 14.3335 37.6005 14.3054C37.6005 14.3054 37.571 14.4368 37.4247 14.4328C37.3241 14.4288 37.2785 14.3188 37.2785 14.3188L37.1577 14.4422Z" fill="white"/>
<path d="M14.3758 20.2515C14.2712 20.1468 14.1195 20.0891 14.0149 20.0073C14.1544 20.0663 14.294 20.1468 14.3758 20.2515Z" fill="#BBBDBF"/>
<path d="M13.1659 12.5586V12.6754C12.2817 12.9195 11.3023 13.6185 11.0353 14.5603C10.6396 15.6779 10.6865 17.1792 11.3735 18.1679C11.4083 18.3893 11.3386 18.5302 11.187 18.6348C10.9656 18.7153 10.6624 18.6925 10.4773 18.565C10.4196 18.553 10.3364 18.565 10.3364 18.6348C10.3726 18.9018 10.6865 18.8897 10.8958 18.9487C11.2688 18.9487 11.6055 18.7274 11.792 18.4121C11.8739 18.5302 11.8027 18.6348 11.792 18.7502C11.5935 19.1701 11.0474 18.9595 10.7442 19.1111C10.8838 19.4143 11.2447 19.2734 11.4781 19.2855C11.9893 19.158 12.1529 18.3893 12.758 18.5409C12.2576 18.7623 12.5017 19.5417 11.839 19.5297C11.6753 19.5297 11.5009 19.4143 11.3735 19.5538C11.5479 19.7282 11.8269 19.8208 12.106 19.751C12.6077 19.5887 12.758 18.7502 13.4328 18.9943C13.4905 19.0185 13.5375 19.0655 13.6072 19.0655C13.3402 19.0655 13.0491 19.0655 12.8049 19.2399C12.5836 19.4371 12.5366 19.8798 12.1529 19.8449C12.0255 19.9026 11.8269 19.7161 11.792 19.9147C11.8846 20.0891 12.2576 20.0073 12.1301 20.2756C12.4092 20.5077 12.8398 20.3682 13.1417 20.2984L13.1659 20.3333C13.3282 20.2863 13.4798 20.2166 13.6542 20.2045C13.9212 20.2635 14.2472 20.3105 14.376 20.6123L14.4109 20.7411C14.05 20.5077 13.5026 20.3682 13.1189 20.5667C12.805 20.5775 12.6077 20.5077 12.3273 20.4259C12.2576 20.45 12.2576 20.5318 12.3045 20.5667C12.8506 21.2644 14.3639 20.7867 14.1439 22.068C14.0607 22.2303 13.9453 22.4168 13.7709 22.4866C13.8756 22.3001 13.8984 22.068 13.8528 21.8587C13.6421 21.2523 12.9794 21.2644 12.5594 20.9035C12.5138 20.9035 12.479 20.9155 12.4441 20.9612C12.3971 21.1476 12.6292 21.2174 12.7352 21.2992C13.0263 21.4508 13.4449 21.4508 13.5844 21.8587C13.5965 21.9861 13.6542 22.1834 13.5375 22.2894C13.5268 21.9982 13.2705 21.6601 12.9552 21.4857C12.5138 21.3569 12.1757 20.9853 12.0832 20.5198C11.7343 19.7403 10.8033 19.6584 10.3364 18.9715C10.0452 18.3195 10.4075 17.7144 10.8032 17.2261C10.8032 17.1671 10.7912 17.0866 10.7214 17.0866C10.2787 17.2731 10.2907 17.9009 9.80239 18.0284C10.0345 17.5293 9.96476 16.7378 10.6275 16.5741C10.6517 16.5271 10.6866 16.4922 10.6745 16.4225C10.4773 16.2722 10.2559 16.5043 10.0694 16.5982C9.97547 16.668 9.90704 16.7955 9.80239 16.8183C9.91777 16.5513 10.1633 16.2253 10.4544 16.1434C10.5121 16.1085 10.5349 16.0388 10.5577 15.9918C10.4424 15.8872 10.3136 15.9918 10.1861 15.9918L9.63874 16.3299C9.60386 15.8644 10.1982 15.7128 10.4303 15.3411C10.2438 15.2593 10.0453 15.4686 9.84804 15.5384L9.58105 15.6081C9.59179 15.4914 9.74336 15.3639 9.8252 15.2472C10.0117 15.1318 10.2331 15.0849 10.4303 15.0031C10.4544 14.9333 10.3954 14.8984 10.3605 14.8515H10.2438C10.3484 14.7696 10.5698 14.8287 10.6275 14.7119C10.4773 14.5952 10.2908 14.5254 10.0935 14.5845C10.0935 14.5724 10.3605 14.5496 10.3136 14.3738C10.2559 14.3282 10.2089 14.2464 10.1391 14.2236V14.1766C10.4303 14.1069 10.6624 14.3631 10.8958 14.4677C10.9307 14.4449 10.9428 14.398 10.9428 14.351C10.8489 14.1297 10.6168 14.0371 10.4303 13.9096C10.6047 13.8385 10.7684 14.0371 10.9428 14.1069C11.0944 13.7808 10.6396 13.7232 10.5349 13.4548C10.8033 13.3032 10.9777 13.699 11.2098 13.7688C11.3023 13.7339 11.2447 13.6292 11.2339 13.5716C11.1279 13.3743 10.9428 13.2804 10.826 13.0832C11.0702 13.0242 11.187 13.3623 11.4311 13.4548C11.4781 13.3851 11.4311 13.2455 11.3735 13.1637C11.2339 13.0591 11.1628 12.8846 11.0595 12.7451C11.3614 12.7223 11.5237 13.0363 11.7692 13.1288C11.7813 12.8377 11.4432 12.6177 11.5009 12.2675C11.8739 12.2796 11.8967 12.733 12.1757 12.8739C12.2227 12.5828 12.0134 12.3373 11.9785 12.0461C12.0939 11.9764 12.2227 12.1401 12.3515 12.187C12.4897 12.3493 12.432 12.78 12.7352 12.6525C12.6413 12.3963 12.5836 12.0582 12.7808 11.8261C12.8398 12.0824 12.9324 12.3842 13.1659 12.5586Z" fill="#F0B83D"/>
<path d="M14.0377 19.751C14.0498 19.7752 13.98 19.7403 13.8982 19.751C13.6768 19.6933 13.4206 19.7859 13.2006 19.8919C13.0141 19.9845 12.8397 20.1468 12.6411 20.0891C12.9913 19.8919 13.2462 19.3566 13.8284 19.6008L14.0377 19.751Z" fill="#F0B83D"/>
<path d="M13.2234 22.0908C13.2583 22.2545 13.2583 22.4624 13.096 22.5335C13.0262 22.5912 12.9551 22.614 12.8504 22.6033C12.8048 22.347 12.8276 22.0438 13.0262 21.8815C13.1309 21.8922 13.1765 22.0089 13.2234 22.0908Z" fill="#F0B83D"/>
<path d="M13.0488 25.8258C13.6418 26.2108 14.3059 26.5248 15.0384 26.5248C15.563 26.6871 16.1788 26.5369 16.6806 26.4778C16.5276 26.9554 16.109 27.3043 15.6435 27.421C14.6547 27.5726 13.6418 27.4331 12.8274 26.8857C12.4894 26.5838 11.9889 26.2927 12.1526 25.756C12.2573 25.6286 12.2452 25.2918 12.4666 25.3616C12.641 25.5588 12.8275 25.7332 13.0488 25.8258Z" fill="#BBBDBF"/>
<path d="M15.6436 27.688L15.9575 27.5727C15.9575 27.782 15.6905 27.9336 15.5966 28.1321C15.0036 28.5038 14.2362 28.5614 13.5144 28.4219C12.8155 28.2703 12.0481 28.0141 11.722 27.3272C11.6053 27.0025 11.7918 26.6872 11.9783 26.431C12.9322 27.5136 14.2939 27.8866 15.6436 27.688Z" fill="#BBBDBF"/>
<path d="M14.5972 28.713C14.7247 28.666 14.8991 28.6902 15.0158 28.6781C15.0507 28.666 15.0265 28.6191 15.0856 28.6312H15.1553C14.946 29.1316 14.4805 29.4576 13.9452 29.4817C13.0611 29.5166 12.2333 29.2604 11.5705 28.6781C11.4538 28.4567 11.1747 28.2582 11.2794 27.9563C11.384 27.8289 11.3505 27.6424 11.5008 27.5257C12.2816 28.4219 13.3978 28.9451 14.5972 28.713Z" fill="#BBBDBF"/>
<path d="M11.1399 28.4688C11.9087 29.4696 13.0839 29.8305 14.3062 29.6789C14.0499 30.1673 13.5616 30.3886 13.0262 30.3537C12.2575 30.343 11.3841 29.9942 10.9883 29.2603C10.7562 28.9813 11.0353 28.7599 11.0822 28.4688H11.1399Z" fill="#BBBDBF"/>
<path d="M13.5374 30.5979C13.3053 30.9937 12.9444 31.1332 12.5365 31.203C11.757 31.2392 10.9883 30.9132 10.6274 30.2142C10.5348 29.9231 10.6864 29.6199 10.7682 29.3408C11.3143 30.3658 12.4211 30.7146 13.5374 30.5979Z" fill="#BBBDBF"/>
<path d="M12.7806 31.4244C12.5364 31.9718 11.9086 31.855 11.3733 31.8322C10.9305 31.7383 10.465 31.4136 10.3604 30.9588C10.4073 30.7965 10.3604 30.5859 10.4771 30.4463C10.9882 31.25 11.9314 31.529 12.7806 31.4244Z" fill="#BBBDBF"/>
<path d="M12.2453 32.1233C12.1997 32.2629 12.0937 32.4252 11.9313 32.4601C11.5356 32.6117 11.0231 32.5647 10.6273 32.4373C10.4891 32.3434 10.3013 32.2387 10.2436 32.0764C10.1859 31.855 10.2329 31.6229 10.2906 31.4244C10.744 32.0643 11.5128 32.1582 12.2453 32.1233Z" fill="#BBBDBF"/>
<path d="M11.9087 32.7754C11.9087 32.9257 11.839 33.0424 11.7222 33.135C11.4083 33.2396 10.9535 33.3684 10.6047 33.2168C10.4424 33.1819 10.3605 33.0424 10.2666 32.9257V32.4602C10.7214 32.7862 11.3506 32.8559 11.9087 32.7754Z" fill="#BBBDBF"/>
<path d="M11.769 33.4032C11.7811 33.5655 11.757 33.7292 11.5933 33.799C11.2338 33.9613 10.8031 34.0204 10.4771 33.7413C10.3604 33.6474 10.4073 33.4851 10.3604 33.3563C10.7789 33.5535 11.3263 33.6125 11.769 33.4032Z" fill="#BBBDBF"/>
<path d="M11.7918 34.1357C11.8495 34.2994 11.6751 34.3692 11.6871 34.5194C11.5355 34.6254 11.384 34.765 11.1867 34.7422C11.1049 34.718 10.9774 34.7073 10.8728 34.6952C10.7789 34.4859 10.6394 34.3102 10.6045 34.0781C10.9654 34.2645 11.3732 34.1706 11.7462 34.0552L11.7918 34.1357Z" fill="#BBBDBF"/>
<path d="M12.1058 35.1018C12.1755 35.417 11.6872 35.3003 11.8388 35.5566C12.0253 35.6156 12.1299 35.4868 12.2453 35.3929V35.3473C12.5364 35.405 12.7457 35.7189 13.0489 35.684C13.0959 35.6612 13.0717 35.6035 13.0717 35.5566C12.8396 35.4278 12.5834 35.2775 12.4211 35.032C12.3728 34.9394 12.2681 34.8697 12.2681 34.765C12.9671 35.1259 13.8861 34.9971 14.4563 35.6156C14.4925 35.731 14.5851 35.9054 14.4804 36.0221C13.9451 36.4984 13.2354 36.2421 12.6183 36.1388C12.0011 35.8946 11.4189 35.4626 11.0352 34.9045C11.3021 34.9864 11.6523 34.9045 11.8388 34.6952C12.0011 34.7529 12.0132 34.9636 12.1058 35.1018Z" fill="#BBBDBF"/>
<path d="M9.32463 28.2474L9.34743 28.2233C9.21998 27.9214 8.70747 27.8047 8.90603 27.3982C9.14886 27.1191 9.4521 27.3391 9.77811 27.3043C10.0451 27.3861 10.3604 27.3512 10.6274 27.421C10.512 27.7349 10.1282 27.7698 9.92968 27.9791C9.95249 28.2353 10.3362 28.3292 10.2436 28.6311C10.0706 28.556 9.51648 28.3091 9.32463 28.2474Z" fill="#BBBDBF"/>
<path d="M14.0955 11.8261C14.0848 12.0582 14.0378 12.2326 13.968 12.4084C13.9452 12.454 14.015 12.2917 13.9211 12.3145C13.8527 12.2796 13.7936 12.3614 13.7708 12.4084C13.7118 12.2098 13.956 12.0233 14.0378 11.8261H14.0955Z" fill="#BBBDBF"/>
<path d="M14.6201 12.3842C14.6778 12.5478 14.5852 12.6981 14.4805 12.8148V12.6525H14.3062C14.3866 12.5586 14.4805 12.3962 14.6201 12.3842Z" fill="#BBBDBF"/>
<path d="M8.37081 23.0447C8.31178 24.2092 8.46338 25.3147 9.26701 26.1881C9.5568 26.49 9.84793 26.769 10.186 27.0132C9.73121 27.0481 9.18519 26.8281 8.74245 27.1071C8.60292 27.2587 8.60292 27.5029 8.6378 27.688C8.81221 27.9684 9.0443 28.1321 9.3247 28.2475C9.4535 28.2569 10.021 28.4863 10.2437 28.6312C9.46423 28.4098 8.39363 28.3052 7.67184 28.7372C7.03188 29.1209 6.89236 29.8534 6.95005 30.5054C7.0547 31.1105 7.40485 31.623 7.40485 32.2629C7.04261 31.7263 6.21753 31.5291 6.07666 30.8194C6.08873 30.4236 5.98408 30.0748 5.78687 29.7716C5.85663 29.4576 5.9264 29.1316 5.99617 28.8069C6.00824 28.7251 5.98409 28.6553 5.9264 28.6084H5.90224V28.5386C6.08873 28.0141 6.46171 27.4331 7.08959 27.3983C7.29888 27.142 6.83467 27.1299 6.75283 26.9434C6.6133 26.7932 6.5784 26.6067 6.48449 26.4309C6.69513 26.2579 6.99698 26.1532 7.26396 26.2579C7.31092 26.2807 7.35789 26.3276 7.42765 26.3156C7.54437 26.2579 7.47461 26.164 7.45046 26.0942C6.88027 25.7333 6.71795 25.0008 6.77564 24.3716C7.01981 24.0697 6.77565 23.5921 6.92725 23.2084C6.95006 23.1614 7.00775 23.2782 7.08959 23.2312C7.25326 22.7885 7.43839 22.3471 7.67184 21.9272L7.7416 21.9044C7.7416 21.9634 7.76442 22.009 7.82345 22.0439H7.91602L8.54523 21.3919C8.64988 21.9272 8.35874 22.4625 8.37081 23.0447Z" fill="#F0B83D"/>
<path d="M11.2566 26.8388L11.1398 27.1299C11.2566 26.722 10.5697 26.2109 11.2338 26.0244C11.3961 25.9197 11.4779 25.7453 11.5477 25.5817C11.698 25.198 10.9775 24.8371 11.5477 24.6157C11.8965 24.2897 12.0012 23.7436 11.8388 23.3358C11.7691 23.2781 11.7919 23.1721 11.7221 23.1158C11.9435 22.9642 12.1179 22.7656 12.3044 22.5563C12.3272 24.1394 11.8616 25.524 11.2566 26.8388Z" fill="#F0B83D"/>
<path d="M8.20707 22.068C8.17219 22.8475 7.84618 23.6391 8.1145 24.4655C8.17219 25.0464 8.40565 25.5468 8.66056 26.0472C8.68471 26.1291 8.63775 26.1988 8.56799 26.2109C8.3815 26.2337 8.35868 26.0244 8.27684 25.9198C7.75361 24.7445 7.70665 23.313 8.13731 22.068H8.20707Z" fill="#231F20"/>
<path d="M7.35775 24.0106V24.0817C7.32287 24.0817 7.2759 24.1045 7.26383 24.0576C7.2531 24.0106 7.26383 23.965 7.31079 23.9409C7.32286 23.9758 7.36983 23.9529 7.35775 24.0106Z" fill="#231F20"/>
<path d="M7.38064 24.279C7.50944 24.9766 7.69458 25.6528 8.22988 26.1881C8.25403 26.2579 8.18427 26.3156 8.13731 26.3384C7.91594 26.3156 7.81132 26.0714 7.69459 25.9198C7.40481 25.4301 7.31087 24.8492 7.26392 24.2562C7.31087 24.2092 7.33503 24.2562 7.38064 24.279Z" fill="#231F20"/>
<path d="M7.31078 27.8865C7.31078 28.073 7.12432 28.0502 7.04249 28.2005C6.53133 28.6432 6.3797 29.2831 6.28713 29.9231H6.24017C6.11271 29.039 6.47361 28.2702 7.15917 27.8168C7.22894 27.794 7.26383 27.8516 7.31078 27.8865Z" fill="#231F20"/>
<path d="M7.13649 29.0739C6.46165 29.9701 7.04258 30.983 7.21833 31.902C7.08954 31.8792 7.06676 31.7155 7.0198 31.6108C6.70586 30.7844 6.29935 29.5864 7.0198 28.8069C7.13652 28.713 7.21834 28.5614 7.35787 28.5158C7.60204 28.7478 7.18344 28.8753 7.13649 29.0739Z" fill="#231F20"/>
<path d="M22.1036 21.2523C22.0687 21.2174 21.9868 21.1369 22.011 21.0551C22.0459 21.1128 22.0915 21.1826 22.1036 21.2523Z" fill="#BBBDBF"/>
<path d="M29.7615 21.2523C29.7038 21.2174 29.7494 21.1249 29.8084 21.0779C29.7963 21.1369 29.7843 21.2054 29.7615 21.2523Z" fill="#BBBDBF"/>
<path d="M15.0615 29.9231C15.1433 30.296 15.2949 30.7146 15.2023 31.1104C15.2372 31.1332 15.26 31.1681 15.3056 31.1573C15.5512 30.8421 15.4344 30.3779 15.3996 30.0398C15.8302 30.563 15.8772 31.2969 15.912 31.9717C15.9348 32.0294 15.9818 32.0294 16.0288 32.0066C16.2716 31.7262 16.0516 31.3318 16.1213 30.9829C16.4702 31.4941 16.4594 32.2387 16.4124 32.8209C16.4473 32.8451 16.4701 32.8907 16.5171 32.8679C16.5989 32.7861 16.6459 32.6814 16.6566 32.554C16.7733 33.147 16.6808 33.8218 16.4594 34.4041C16.5627 32.7753 15.4586 31.3894 14.1438 30.5053C14.1666 30.343 14.3289 30.1444 14.5034 30.0626C14.5382 30.2491 14.4107 30.5053 14.5731 30.622C14.8535 30.3537 14.4926 29.7487 14.887 29.5742L15.0615 29.9231Z" fill="#BBBDBF"/>
<path d="M37.3147 30.5524C37.4422 30.3779 37.2678 30.1794 37.3617 29.9942C37.5134 30.0975 37.6636 30.2263 37.7213 30.4008C36.4065 31.3318 35.301 32.6815 35.4057 34.3464C35.1843 33.8447 35.0917 33.1242 35.2084 32.4373C35.2312 32.5768 35.2541 32.7284 35.3829 32.7982C35.5801 32.6815 35.301 32.3904 35.4298 32.169C35.4298 31.7263 35.4634 31.2393 35.7666 30.8891C35.7666 31.2621 35.6391 31.6806 35.8605 31.949C35.9181 31.9718 35.9651 31.9248 35.9879 31.8792C35.9061 31.2272 36.0577 30.5403 36.4414 30.0171C36.4642 30.3887 36.2669 30.8314 36.6158 31.0756L36.6628 31.0286C36.6279 30.4933 36.6628 29.9111 37.0009 29.5046C37.3618 29.7595 36.9887 30.3068 37.3147 30.5524Z" fill="#BBBDBF"/>
<path d="M17.3087 31.1802L17.1692 31.1574C17.3087 31.0406 17.5408 31.0876 17.7045 30.9588C17.903 30.7844 17.9715 30.5523 18.158 30.3537C17.9594 30.6918 17.7501 31.1453 17.3087 31.1802Z" fill="white"/>
<path d="M17.8199 31.4244C17.6803 31.2742 17.9594 31.2031 18.0184 31.0528C18.0305 31.2151 17.8561 31.2849 17.8199 31.4244Z" fill="white"/>
<path d="M17.7969 31.8323C18.0303 31.6109 18.2275 31.297 18.3563 30.983C18.3671 31.3198 18.0531 31.623 17.7969 31.8323Z" fill="white"/>
<path d="M34.0681 31.4244C33.9742 31.2742 33.8588 31.1333 33.7998 30.9589C33.8588 31.1454 34.2184 31.1803 34.0681 31.4244Z" fill="white"/>
<path d="M34.4047 31.4714V31.5639C34.3698 31.576 34.3591 31.5411 34.335 31.517V31.4244C34.3698 31.4137 34.3819 31.4486 34.4047 31.4714Z" fill="white"/>
<path d="M17.483 31.635C17.424 31.6109 17.483 31.5411 17.5058 31.4941H17.5527L17.483 31.635Z" fill="white"/>
<path fill-rule="evenodd" clip-rule="evenodd" d="M18.7722 22.2129C18.8433 22.2464 18.7091 22.0814 18.7131 21.9942C18.7172 21.9083 18.626 22.1753 18.626 22.1753C18.626 22.1753 18.7024 22.178 18.7722 22.2129Z" fill="#231F20"/>
<path fill-rule="evenodd" clip-rule="evenodd" d="M22.7542 8.39292C22.7663 9.03286 22.7435 9.76539 22.7314 10.3705C22.7086 10.4174 22.6616 10.3946 22.616 10.3946C22.5811 9.66075 22.5811 8.99799 22.616 8.31108C22.6737 8.31108 22.7542 8.32315 22.7542 8.39292Z" fill="white"/>
<path fill-rule="evenodd" clip-rule="evenodd" d="M15.4692 16.9108C15.4692 16.9108 15.7577 16.9403 15.8583 17.0744C15.9603 17.21 16.2326 17.6272 16.5868 17.4461C16.5868 17.4461 16.6928 17.6272 16.3654 17.6272C16.0502 17.6272 15.8704 17.3897 15.7805 17.2328C15.6906 17.0745 15.5779 17.0248 15.4934 17.0047L15.4692 16.9108Z" fill="white"/>
<path fill-rule="evenodd" clip-rule="evenodd" d="M36.3246 16.888C36.3246 16.888 36.224 17.0879 36.063 17.1549C35.902 17.222 35.9221 17.328 35.906 17.3535C35.906 17.3535 35.6431 17.6151 35.4177 17.6151C35.191 17.6151 35.2218 17.5829 35.203 17.5038C35.1843 17.4233 35.2822 17.4018 35.3386 17.4353C35.3949 17.4689 35.5304 17.548 35.7222 17.2891C35.9127 17.0302 36.2186 16.8598 36.3246 16.888Z" fill="white"/>
<path d="M19.9273 23.906C20.4975 26.0365 19.6711 28.0382 19.1706 29.9943C19.2511 29.5623 19.3222 29.0511 19.2981 28.5856C19.0418 27.8396 19.5785 27.142 19.2511 26.4551C19.2753 26.1532 19.113 25.8608 18.8916 25.6287C18.8675 25.1054 18.96 24.5232 18.6233 24.1274C18.4368 24.1502 18.1926 24.2092 18.041 24.0818C18.1698 23.5451 18.3563 23.0447 18.5186 22.5336C19.2283 22.6141 19.7409 23.2782 19.9273 23.906Z" fill="#F0B83D"/>
<path fill-rule="evenodd" clip-rule="evenodd" d="M23.2438 2.01483C23.3257 2.11948 23.3015 2.29389 23.268 2.41061C23.209 2.48037 23.1513 2.51526 23.0801 2.52733C23.115 2.37573 23.221 2.2362 23.1513 2.07252C23.0225 1.92226 22.8722 1.72371 22.6616 1.72371C22.4644 1.74652 22.2899 1.8753 22.1853 2.03764C21.9988 2.32877 22.3007 2.56221 22.3248 2.79431C22.1853 2.72455 22.0806 2.6199 22.0109 2.48037C21.9519 2.27108 21.9867 2.04972 22.1035 1.87531C22.3597 1.73578 22.6736 1.51441 22.9768 1.70089C23.0922 1.80554 23.1741 1.89811 23.2438 2.01483Z" fill="white"/>
<path fill-rule="evenodd" clip-rule="evenodd" d="M22.7903 2.28184L22.7313 2.59712C22.7542 3.89983 22.8011 5.15693 22.7903 6.49451C22.7313 6.55354 22.7206 6.68099 22.616 6.67026C22.6039 5.05228 22.522 3.65566 22.5918 2.18928C22.6736 2.18928 22.7903 2.1772 22.7903 2.28184Z" fill="white"/>
<path d="M10.2207 30.0626C10.1282 29.8533 10.104 29.632 9.95239 29.4576C10.2435 29.318 10.5575 29.0148 10.5575 28.6553C10.5816 28.4339 10.43 28.2702 10.3603 28.073C10.5468 27.8745 10.8258 27.747 10.9881 27.4908C10.6514 28.3172 10.477 29.2362 10.2207 30.0626Z" fill="#F0B83D"/>
<path d="M10.0223 31.2742C9.95255 31.2742 9.84794 31.0756 9.75537 31.0058C9.87209 30.9012 10.0223 30.7268 10.1162 30.5752C10.0934 30.8073 10.0934 31.0635 10.0223 31.2742Z" fill="#F0B83D"/>
<path d="M34.429 32.0295C34.5336 32.1811 34.5336 32.4601 34.5336 32.6587C34.6852 34.6134 33.8588 36.3361 32.2059 37.302C30.1331 38.8154 27.7128 39.7344 25.9795 41.8058L25.9097 41.8286C24.9317 40.5729 23.5002 39.7692 22.2323 38.9321C21.7655 38.7335 21.3697 38.4196 20.9162 38.1982C20.6372 37.9889 20.3111 37.8601 20.0441 37.6159C18.3792 36.6741 17.2965 35.1836 17.3314 33.2638C17.424 32.9257 17.2509 32.4494 17.3904 32.1462C17.53 32.0644 17.7393 32.2052 17.9137 32.1234L18.0183 32.0764C18.0411 32.1583 17.9365 32.3085 18.0881 32.3904C18.2746 32.4024 18.4262 32.3434 18.6006 32.2857C18.3913 34.2646 19.368 35.9644 21.0678 36.8714C22.7435 37.8024 24.5131 38.6168 25.9325 40.0953C26.1525 40.1073 26.1525 39.8511 26.2934 39.7464C27.9114 38.1754 30.0057 37.5234 31.7404 36.1965C32.9036 35.1836 33.4388 33.7642 33.2524 32.2388C33.463 32.2388 33.7179 32.4601 33.8816 32.2388L33.7998 31.9718C33.9742 32.1234 34.2425 32.1341 34.429 32.0295Z" fill="#F0B83D"/>
<path d="M22.2324 23.7664C22.2324 23.7664 23.8517 23.4941 24.3844 23.2083V38.2451C24.3844 38.2451 24.3535 38.335 24.1281 38.1552C23.9041 37.9741 22.2083 37.0578 22.2083 37.0578L22.2324 23.7664Z" fill="white"/>
<path d="M27.4404 23.2084C27.4404 23.2084 28.2736 23.5304 28.7257 23.5988C29.1752 23.6659 29.5468 23.7142 29.587 23.8363V37.0927C29.587 37.0927 27.6752 38.1593 27.4566 38.3257L27.4404 23.2084Z" fill="white"/>
<path d="M22.7072 11.5833L22.7246 17.9976L22.6521 18.5691C22.6521 18.5691 22.5811 17.6058 22.5811 17.0866C22.5811 16.5687 22.5811 11.7443 22.5811 11.7443C22.5811 11.7443 22.581 11.5833 22.7072 11.5833Z" fill="white"/>
</svg>
