<svg width="22.5" height="39" viewBox="0 0 30 52" fill="none" xmlns="http://www.w3.org/2000/svg">
<path d="M16.0438 51.1616C15.0752 51.0362 14.1233 50.5995 13.5579 50.0214C13.1441 49.5982 12.942 49.2555 12.7986 48.7344C12.722 48.4559 12.7126 48.2889 12.6915 46.8312C12.6688 45.2616 12.6668 45.2307 12.5781 45.0882C12.4908 44.9478 12.3888 44.8865 12.159 44.8363L12.0492 44.8123V46.9303V49.0483H11.1704H10.2915V44.5143V39.9803L11.3401 39.9816C11.9169 39.9824 12.5685 39.9994 12.7882 40.0194C13.718 40.1042 14.2022 40.4126 14.3881 41.0385C14.4679 41.3068 14.5054 42.3072 14.4529 42.7637C14.4297 42.9654 14.3726 43.2188 14.3261 43.3269C14.1641 43.7036 13.7628 43.9908 13.3263 44.0425C12.9878 44.0826 13.0267 44.1412 13.4273 44.1946C13.8211 44.2471 14.1373 44.4459 14.2857 44.7342C14.4309 45.0164 14.4478 45.1927 14.4588 46.5395C14.4695 47.8515 14.4711 47.8741 14.5733 48.1792C14.7049 48.5716 14.8702 48.8289 15.1686 49.1051C15.6174 49.5206 16.147 49.6962 16.9724 49.7031L17.4816 49.7074L17.4817 50.4307L17.4819 51.1541L17.2364 51.1797C16.9203 51.2128 16.3745 51.2045 16.0438 51.1616ZM12.4641 43.5772C12.6741 43.4974 12.6934 43.3844 12.6803 42.3118L12.6684 41.3314L12.5563 41.2351C12.4705 41.1614 12.3978 41.1387 12.2467 41.1387H12.0492V42.3771V43.6155H12.2064C12.2928 43.6155 12.4088 43.5982 12.4641 43.5772ZM7.32482 49.2057C6.41766 49.0802 5.94968 48.6238 5.79216 47.7109C5.74428 47.4335 5.73669 46.8555 5.74799 44.3472C5.76046 41.5818 5.76783 41.2979 5.83283 41.081C6.10533 40.1718 6.67042 39.8092 7.81487 39.8095C9.01998 39.8098 9.57811 40.1759 9.84112 41.1387C9.90624 41.3771 9.91205 41.6538 9.91205 44.5143C9.91205 47.3748 9.90624 47.6514 9.84112 47.8898C9.64403 48.6113 9.29431 48.9744 8.62971 49.1475C8.33803 49.2235 7.6689 49.2533 7.32482 49.2057ZM8.05078 47.8136C8.10519 47.7592 8.13447 47.6538 8.15338 47.4441C8.16794 47.2828 8.17413 45.8235 8.16713 44.2012L8.15441 41.2516L8.04233 41.1552C7.8992 41.0321 7.75747 41.0327 7.63329 41.1569L7.53524 41.255V44.4925C7.53524 47.6767 7.53656 47.7313 7.61513 47.8099C7.71916 47.9139 7.94854 47.9159 8.05078 47.8136ZM16.4103 49.2077C15.5671 49.0894 15.1051 48.6798 14.8961 47.8655C14.8315 47.6139 14.8255 47.3255 14.8255 44.5143C14.8255 41.6299 14.8301 41.4209 14.9005 41.1587C15.1619 40.1854 15.723 39.8108 16.9226 39.8088C18.1323 39.8068 18.7301 40.2278 18.9363 41.2269C18.988 41.4773 18.9999 41.8226 18.9999 43.0745V44.6141H17.8001H16.6004L16.6117 46.1756L16.623 47.7371L16.7173 47.8134C16.8378 47.9109 17.0075 47.9109 17.1279 47.8135C17.2222 47.7372 17.2222 47.7365 17.2341 46.675L17.2459 45.6128H18.1229H18.9999V46.5532C18.9999 47.2542 18.9838 47.5721 18.9367 47.8016C18.7797 48.5668 18.3948 48.9888 17.7089 49.1479C17.3832 49.2234 16.7349 49.2533 16.4103 49.2077ZM17.2341 42.2786C17.2207 41.0821 17.2203 41.0806 16.9226 41.0806C16.625 41.0806 16.6246 41.0821 16.6112 42.2786L16.5993 43.3358H16.9226H17.2459L17.2341 42.2786ZM20.9972 49.2106C20.1094 49.0817 19.6194 48.6778 19.421 47.9114C19.3732 47.7267 19.3594 47.442 19.3594 46.643V45.6128H20.2382H21.117L21.1173 46.5615C21.1175 47.5456 21.1464 47.78 21.2759 47.8494C21.4033 47.9176 21.5552 47.8946 21.6581 47.7917C21.7551 47.6948 21.7562 47.6854 21.7562 46.9655C21.7562 46.3147 21.7475 46.2194 21.6749 46.0693C21.6302 45.9769 21.1543 45.4038 20.6175 44.7957C19.8776 43.9575 19.6097 43.6256 19.5104 43.424L19.3794 43.1581L19.3661 42.2519C19.3554 41.5153 19.365 41.2984 19.4176 41.0934C19.6316 40.2578 20.3436 39.8095 21.4566 39.8095C22.6509 39.8095 23.3553 40.3185 23.517 41.2985C23.537 41.4194 23.5534 41.8822 23.5535 42.3272L23.5537 43.1361H22.6549H21.7561V42.1955V41.2549L21.6581 41.1569C21.5501 41.0489 21.4529 41.0349 21.2988 41.1051C21.1564 41.17 21.1175 41.3491 21.1172 41.9404C21.1169 42.7416 21.0794 42.6737 22.2058 43.9145C23.2604 45.0763 23.3627 45.2064 23.4599 45.5096C23.542 45.7654 23.5842 47.3348 23.5201 47.7465C23.4072 48.4713 22.9589 48.9528 22.2168 49.1461C21.9376 49.2188 21.2897 49.2531 20.9972 49.2106ZM2.18243 44.5143V39.9803H3.86018H5.53792V40.5994V41.2186H4.75897H3.98002V42.2772V43.3358H4.739H5.49798V43.975V44.6141H4.739H3.98002V46.8312V49.0483H3.08122H2.18243V44.5143ZM24.9119 45.1534V41.2586H24.3327H23.7535V40.6194V39.9803H25.8107H27.8679V40.6194V41.2586H27.2688H26.6696V45.1534V49.0483H25.7907H24.9119V45.1534ZM14.2194 38.4214C13.3969 38.3418 12.4975 38.1261 11.7096 37.8196C11.468 37.7256 10.7944 37.4068 10.2129 37.1112C8.76879 36.3771 7.98367 36.0714 6.95602 35.8428C6.56043 35.7548 5.56091 35.722 5.20376 35.7852C4.36682 35.9335 3.49551 36.4389 2.55193 37.3236L2.18243 37.67V36.2722V34.8745L2.38564 34.6917C3.00462 34.1352 4.03374 33.6555 4.97868 33.4829C5.54943 33.3787 6.50405 33.3882 7.09287 33.5041C7.98761 33.6801 8.81531 34.0186 9.79221 34.6082C11.1555 35.431 12.2865 35.8787 13.5871 36.1103C14.2661 36.2312 15.6679 36.2426 16.3035 36.1322C17.6697 35.8951 18.88 35.4251 20.2382 34.6043C21.203 34.0212 21.8721 33.7366 22.7779 33.524C23.2117 33.4223 23.3236 33.4121 24.0331 33.4106C24.9012 33.4088 25.1807 33.4505 25.897 33.6888C26.5825 33.9168 27.2439 34.2884 27.6531 34.6755L27.8679 34.8786V36.28V37.6813L27.5783 37.3982C26.7099 36.5494 25.9173 36.0562 25.0766 35.8415C24.7681 35.7628 24.6023 35.7459 24.1378 35.746C22.8819 35.7464 21.7292 36.0736 20.4179 36.8018C19.0807 37.5446 18.1794 37.9159 17.0625 38.1841C16.1389 38.4059 15.0222 38.4991 14.2194 38.4214ZM14.0665 35.0799C13.2546 34.9791 12.4309 34.7717 11.7042 34.485C11.4435 34.3822 10.709 34.035 10.0718 33.7135C8.63816 32.9901 7.82135 32.6833 6.79623 32.4832C6.32225 32.3907 5.30584 32.3904 4.7935 32.4828C3.8521 32.6524 3.00789 33.0564 2.41212 33.6224L2.18243 33.8406V32.5491V31.2577L2.31225 31.1429C2.90135 30.6223 3.83544 30.208 4.77144 30.0524C5.33167 29.9592 6.46564 29.9881 7.01066 30.1094C7.93536 30.3152 8.75517 30.66 9.79501 31.2803C11.7374 32.4391 13.1915 32.8869 15.0052 32.8851C15.8492 32.8842 16.3733 32.8182 17.1809 32.611C18.1371 32.3656 19.1492 31.9292 20.1207 31.3433C21.3901 30.5778 22.2311 30.2369 23.3141 30.0486C23.8326 29.9585 24.7689 29.96 25.2914 30.0518C26.2223 30.2153 27.1509 30.6333 27.7143 31.1423L27.8679 31.2811V32.5566V33.8322L27.5804 33.5847C26.3367 32.5142 24.7109 32.1641 22.7872 32.5524C21.9324 32.725 21.4896 32.9104 19.7486 33.8246C18.4839 34.4888 17.2873 34.8818 16.0318 35.0453C15.6048 35.1009 14.4061 35.122 14.0665 35.0799ZM13.8268 31.7469C12.6728 31.4637 11.4924 30.9885 10.2017 30.2875C8.91214 29.5871 7.78555 29.184 6.65129 29.0173C6.15233 28.944 5.87478 28.9396 5.3466 28.997C4.12071 29.1303 2.8829 29.5912 2.31225 30.127L2.18243 30.2489V28.9674V27.6859L2.34449 27.5395C2.69463 27.2231 3.17063 26.9743 3.82862 26.7636C5.18622 26.3288 6.63677 26.4022 8.41406 26.9955C9.32764 27.3005 10.0627 27.6169 11.2003 28.1951L12.1291 28.6671V25.8916V23.1161L11.9993 23.196C11.6979 23.3813 11.1956 23.6066 10.8788 23.6984C9.16686 24.1945 7.30671 23.5082 6.31028 22.0129C6.18263 21.8213 6.07797 21.6617 6.0777 21.6582C6.0773 21.6547 5.94242 21.6958 5.77768 21.7496C4.87444 22.0445 3.9018 22.0228 2.98249 21.6873C1.63174 21.1943 0.641297 20.0329 0.339958 18.5886C0.275556 18.28 0.275556 17.4592 0.339958 17.1505C0.466967 16.5418 0.726339 15.9481 1.06472 15.4917C1.28279 15.1975 1.77103 14.7158 2.01415 14.5549L2.16859 14.4527L2.11642 14.2037C1.88263 13.0881 2.46223 11.9073 3.54527 11.2929C3.73167 11.1871 3.77863 11.1415 3.76549 11.0786C3.75631 11.0347 3.71094 10.8565 3.66467 10.6827C3.57041 10.3287 3.55293 9.79869 3.62409 9.45272C3.69683 9.09913 3.95597 8.61053 4.22108 8.32712C4.63902 7.88033 5.14654 7.60559 5.78602 7.47994L6.12236 7.41386L6.02227 7.08908C5.9327 6.79846 5.92193 6.69292 5.9198 6.08521C5.91724 5.35761 5.94212 5.2143 6.16595 4.66709C6.51277 3.81924 7.16112 3.13181 7.99463 2.72821C8.59132 2.43929 8.88329 2.37706 9.66239 2.37276L10.3315 2.36907L10.4774 2.14989C10.6865 1.83575 11.4184 1.11877 11.7699 0.883628C12.325 0.512261 12.8604 0.278247 13.5433 0.108482C14.0115 -0.0079031 14.9746 -0.0362104 15.5044 0.0508406C16.29 0.179899 17.0728 0.507339 17.734 0.983401C18.1155 1.25811 18.7212 1.88036 18.9399 2.22225C19.0721 2.42883 19.1147 2.46843 19.1864 2.4511C20.4227 2.15224 21.923 2.60018 22.7819 3.52463C23.3859 4.17465 23.6283 4.79811 23.6628 5.79039C23.6816 6.32887 23.6374 6.80769 23.5323 7.20373C23.5141 7.27229 23.554 7.29963 23.8139 7.39644C24.6821 7.71997 25.6013 8.63922 25.9634 9.54605C26.1215 9.94195 26.1623 10.1905 26.1413 10.6279L26.1224 11.0207L26.406 11.1677C26.9799 11.4653 27.4705 12.0834 27.6512 12.7364C27.743 13.068 27.7647 13.8476 27.6935 14.2544C27.6253 14.6446 27.5795 14.5627 28.0995 14.9816C28.674 15.4444 29.1666 16.199 29.333 16.8709C29.4396 17.3012 29.4289 18.1623 29.3113 18.6286C29.0208 19.7799 28.2136 20.7712 27.1289 21.3089C26.4705 21.6353 26.043 21.7342 25.2714 21.7385C24.8142 21.741 24.5652 21.7231 24.3194 21.67C24.1363 21.6304 23.9822 21.604 23.9769 21.6113C23.4736 22.3104 22.9574 22.7605 22.2555 23.1122C21.5025 23.4895 20.8171 23.6534 19.9785 23.6567C19.3321 23.6593 19.0091 23.5907 18.3907 23.3196C18.1875 23.2305 17.9987 23.1478 17.9712 23.1358C17.9316 23.1185 17.9213 23.6852 17.9213 25.8947C17.9213 27.424 17.9276 28.6753 17.9353 28.6753C17.943 28.6753 18.1182 28.5834 18.3248 28.471C20.4316 27.3252 22.2908 26.6653 23.8334 26.516C25.2915 26.3748 26.8528 26.7498 27.627 27.427L27.828 27.6029V28.8827V30.1626L27.6736 30.0231C26.8618 29.2897 24.8628 28.8084 23.4738 29.0121C22.3053 29.1834 21.1927 29.5792 19.8886 30.2875C18.8506 30.8513 17.8928 31.2659 16.9826 31.5454C16.5369 31.6823 15.9411 31.8304 15.8341 31.8308C15.7678 31.8311 15.7642 31.5143 15.7642 25.7351V19.6392L15.9899 19.8455C16.5948 20.3983 17.5976 20.785 18.6937 20.8881C20.6487 21.0719 22.4814 20.138 22.9148 18.7371L22.9808 18.5238L23.1274 18.7027C23.208 18.801 23.3816 18.9534 23.5131 19.0412C24.3277 19.5852 25.3876 19.489 26.0727 18.809C26.9995 17.8893 26.7279 16.3066 25.5415 15.7131C25.3922 15.6384 25.191 15.5655 25.0944 15.551L24.9188 15.5246L25.0368 15.3389C25.2363 15.0252 25.3232 14.667 25.3044 14.2365C25.2899 13.9049 25.2719 13.8312 25.1399 13.5641C24.8705 13.019 24.3953 12.6719 23.7484 12.5478C23.5644 12.5124 23.408 12.4791 23.4008 12.4736C23.3935 12.4682 23.4157 12.4207 23.4501 12.3682C23.5521 12.2126 23.6705 11.8267 23.6969 11.5636C23.7917 10.6209 23.1147 9.67631 22.0891 9.32039C21.7735 9.21089 21.3872 9.1419 21.0871 9.14146C20.9717 9.1413 20.8773 9.13374 20.8773 9.12468C20.8773 9.11561 20.9406 9.01225 21.0179 8.89498C21.3186 8.43878 21.4515 7.90899 21.4269 7.26365C21.413 6.90055 21.3865 6.73728 21.3005 6.48468C20.9203 5.36861 19.9161 4.63061 18.7737 4.62784C18.4263 4.627 17.9692 4.71095 17.7083 4.8235C17.6021 4.8693 17.5095 4.90678 17.5025 4.90678C17.4956 4.90678 17.4682 4.8124 17.4418 4.69706C17.3632 4.35402 17.134 3.93235 16.8686 3.6425C16.3645 3.09203 15.7278 2.79732 14.9614 2.75969C14.4195 2.73308 14.0392 2.81195 13.5307 3.05635C12.8787 3.36975 12.3677 3.97836 12.1933 4.64901C12.1356 4.87117 12.1521 4.86754 11.7496 4.74654C11.3983 4.64094 10.7478 4.63035 10.3914 4.72444C9.02241 5.08592 8.16538 6.43528 8.42763 7.81637C8.49709 8.18221 8.68635 8.63246 8.8752 8.88116C8.94208 8.96923 9.00787 9.05942 9.02139 9.08158C9.03705 9.10722 8.92027 9.12489 8.70007 9.13019C7.94225 9.14845 7.30637 9.41157 6.79192 9.91976C6.28618 10.4193 6.10891 10.8692 6.14725 11.556C6.16925 11.9502 6.25935 12.2305 6.45926 12.5267C6.52376 12.6223 6.57653 12.7085 6.57653 12.7184C6.57653 12.7283 6.40664 12.7364 6.199 12.7364C5.99136 12.7364 5.72622 12.7562 5.6098 12.7804C5.10285 12.8858 4.63089 13.2381 4.45054 13.6459C4.20165 14.2085 4.39963 14.9951 4.93855 15.5848L5.13731 15.8023L4.98809 15.8264C4.72423 15.8691 4.26744 16.1188 4.01796 16.3568C3.56788 16.7861 3.37713 17.2051 3.37469 17.7697C3.37238 18.3099 3.59015 18.7751 3.99661 19.0982C4.76197 19.7066 5.9251 19.6643 6.74171 18.9985L6.96682 18.8149L7.03871 18.9814C7.15963 19.2614 7.43996 19.6611 7.66295 19.8713C8.4392 20.6032 9.57624 21.0051 10.8708 21.0051C12.1785 21.0051 13.3088 20.6015 14.0964 19.8533L14.3261 19.6351V25.7331V31.8311L14.2362 31.8282C14.1868 31.8266 14.0026 31.79 13.8268 31.7469Z" fill="#E53233"/>
</svg>
