<svg width="40.5" height="39" viewBox="0 0 55 53" fill="none" xmlns="http://www.w3.org/2000/svg">
<path fill-rule="evenodd" clip-rule="evenodd" d="M43.5465 36.6021C39.7284 41.1401 34.0081 44.0262 27.6102 44.0262C21.2755 44.0262 15.6108 41.2007 11.7895 36.7388L7.26581 42.1789C12.3464 47.6344 19.595 51.0515 27.6395 51.0515C35.732 51.0515 43.013 47.5977 48.0934 42.0837L43.5465 36.6021Z" fill="#211E1F"/>
<path d="M43.5465 36.6021C39.7284 41.1401 34.0081 44.0262 27.6102 44.0262C21.2755 44.0262 15.6108 41.2007 11.7895 36.7388L7.26581 42.1789C12.3464 47.6344 19.595 51.0515 27.6395 51.0515C35.732 51.0515 43.013 47.5977 48.0934 42.0837L43.5465 36.6021Z" stroke="white" stroke-width="2.97411"/>
<path fill-rule="evenodd" clip-rule="evenodd" d="M39.9666 15.7644V39.9237C39.9666 40.6217 39.5245 41.2267 38.9042 41.4588L27.6861 45.8085L16.4643 41.4588C15.8475 41.2267 15.4019 40.6217 15.4019 39.9237L15.4035 15.7644H39.9666Z" fill="#211E1F"/>
<path d="M39.9666 15.7644V39.9237C39.9666 40.6217 39.5245 41.2267 38.9042 41.4588L27.6861 45.8085L16.4643 41.4588C15.8475 41.2267 15.4019 40.6217 15.4019 39.9237L15.4035 15.7644H39.9666Z" stroke="white" stroke-width="2.97411"/>
<path fill-rule="evenodd" clip-rule="evenodd" d="M15.9858 34.4142V19.5251H39.3768L39.3812 34.4142H15.9858Z" fill="white"/>
<path fill-rule="evenodd" clip-rule="evenodd" d="M39.3813 33.018C39.1751 33.3475 38.67 33.5793 38.0847 33.5793C37.4906 33.5793 36.9829 33.3475 36.7816 33.0136C36.5754 33.3476 36.0703 33.5793 35.4786 33.5793C34.8866 33.5793 34.3877 33.3475 34.1795 33.018C33.9714 33.3475 33.4685 33.5793 32.8807 33.5793C32.2865 33.5793 31.7859 33.3475 31.5798 33.0136H31.5734C31.3696 33.3476 30.8663 33.5793 30.2766 33.5793C29.6848 33.5793 29.1838 33.3475 28.9801 33.018C28.7718 33.3475 28.2621 33.5793 27.6776 33.5793C27.0844 33.5793 26.5825 33.3475 26.3759 33.0136H26.3807C26.1714 33.3476 25.6695 33.5793 25.0814 33.5793C24.4888 33.5793 23.9838 33.3475 23.7774 33.018C23.5719 33.3475 23.0645 33.5793 22.4757 33.5793C21.8885 33.5793 21.3834 33.3475 21.1779 33.0136H21.1726C20.9699 33.3476 20.4637 33.5793 19.8783 33.5793C19.2837 33.5793 18.7825 33.3475 18.5739 33.018V33.0265C18.3674 33.3581 17.8642 33.5793 17.2805 33.5793C16.6832 33.5793 16.1812 33.3475 15.9786 33.0136V32.9854L15.9858 39.5661C15.9858 40.2338 16.4078 40.8021 16.9985 41.023L27.6861 45.1734L38.3664 41.023C38.9584 40.8021 39.3813 40.2338 39.3813 39.5661V32.9895V33.018Z" fill="#D61F26"/>
<path fill-rule="evenodd" clip-rule="evenodd" d="M39.3813 32.3307C39.1751 32.6579 38.67 32.8921 38.0847 32.8921C37.4906 32.8921 36.9829 32.6557 36.7816 32.3307C36.5754 32.6557 36.0703 32.8921 35.4786 32.8921C34.8866 32.8921 34.3877 32.6579 34.1795 32.3307C33.9714 32.6579 33.4685 32.8921 32.8807 32.8921C32.2865 32.8921 31.7859 32.6557 31.5798 32.3307H31.5734C31.3696 32.6557 30.8663 32.8921 30.2766 32.8921C29.6848 32.8921 29.1838 32.6579 28.9801 32.3307C28.7718 32.6579 28.2621 32.8921 27.6776 32.8921C27.0844 32.8921 26.5825 32.6557 26.3759 32.3307H26.3807C26.1714 32.6557 25.6695 32.8921 25.0814 32.8921C24.4888 32.8921 23.9838 32.6579 23.7774 32.3307C23.5719 32.6579 23.0645 32.8921 22.4757 32.8921C21.8885 32.8921 21.3834 32.6557 21.1779 32.3307H21.1726C20.9699 32.6557 20.4637 32.8921 19.8783 32.8921C19.2837 32.8921 18.7825 32.6579 18.5739 32.3307V32.3413C18.3674 32.6707 17.8642 32.8921 17.2805 32.8921C16.6832 32.8921 16.1812 32.6557 15.9786 32.3307V31.5154C16.1812 31.8446 16.6832 32.081 17.2805 32.081C17.8642 32.081 18.3674 31.849 18.5739 31.5193C18.7825 31.849 19.2837 32.081 19.8783 32.081C20.4637 32.081 20.9699 31.8446 21.1726 31.5154H21.1779C21.3834 31.8446 21.8885 32.081 22.4757 32.081C23.0645 32.081 23.5719 31.849 23.7774 31.5193C23.9838 31.849 24.4888 32.081 25.0814 32.081C25.6695 32.081 26.1714 31.8446 26.3807 31.5154H26.3759C26.5825 31.8446 27.0844 32.081 27.6776 32.081C28.2623 32.081 28.7718 31.849 28.9801 31.5193C29.1837 31.849 29.6847 32.081 30.2766 32.081C30.8664 32.081 31.3696 31.8446 31.5734 31.5154H31.5798C31.7859 31.8446 32.2865 32.081 32.8807 32.081C33.4685 32.081 33.9714 31.849 34.1795 31.5193C34.3877 31.849 34.8866 32.081 35.4786 32.081C36.0703 32.081 36.5754 31.8446 36.7816 31.5154C36.983 31.8446 37.4906 32.081 38.0847 32.081C38.67 32.081 39.1751 31.849 39.3813 31.5193V32.3307Z" fill="#2EABE2"/>
<path fill-rule="evenodd" clip-rule="evenodd" d="M39.3813 30.8625C39.1751 31.1899 38.67 31.4199 38.0847 31.4199C37.4906 31.4199 36.9829 31.1876 36.7816 30.8625C36.5754 31.1876 36.0703 31.4199 35.4786 31.4199C34.8866 31.4199 34.3877 31.1899 34.1795 30.8625C33.9714 31.1899 33.4685 31.4199 32.8807 31.4199C32.2865 31.4199 31.7859 31.1876 31.5798 30.8625H31.5734C31.3696 31.1876 30.8663 31.4199 30.2766 31.4199C29.6848 31.4199 29.1838 31.1899 28.9801 30.8625C28.7718 31.1899 28.2621 31.4199 27.6776 31.4199C27.0844 31.4199 26.5825 31.1876 26.3759 30.8625H26.3807C26.1714 31.1876 25.6695 31.4199 25.0814 31.4199C24.4888 31.4199 23.9838 31.1899 23.7774 30.8625C23.5719 31.1899 23.0645 31.4199 22.4757 31.4199C21.8885 31.4199 21.3834 31.1876 21.1779 30.8625H21.1726C20.9699 31.1876 20.4637 31.4199 19.8783 31.4199C19.2837 31.4199 18.7825 31.1899 18.5739 30.8625V30.8709C18.3674 31.2008 17.8642 31.4199 17.2805 31.4199C16.6832 31.4199 16.1812 31.1876 15.9786 30.8625V30.0474C16.1812 30.3748 16.6832 30.6113 17.2805 30.6113C17.8642 30.6113 18.3674 30.3811 18.5739 30.0493C18.7825 30.3811 19.2837 30.6113 19.8783 30.6113C20.4637 30.6113 20.9699 30.3748 21.1726 30.0474H21.1779C21.3834 30.3748 21.8885 30.6113 22.4757 30.6113C23.0645 30.6113 23.5719 30.3811 23.7774 30.0493C23.9838 30.3811 24.4888 30.6113 25.0814 30.6113C25.6695 30.6113 26.1714 30.3748 26.3807 30.0474H26.3759C26.5825 30.3748 27.0844 30.6113 27.6776 30.6113C28.2623 30.6113 28.7718 30.3811 28.9801 30.0493C29.1837 30.3811 29.6847 30.6113 30.2766 30.6113C30.8664 30.6113 31.3696 30.3748 31.5734 30.0474H31.5798C31.7859 30.3748 32.2865 30.6113 32.8807 30.6113C33.4685 30.6113 33.9714 30.3811 34.1795 30.0493C34.3877 30.3811 34.8866 30.6113 35.4786 30.6113C36.0703 30.6113 36.5754 30.3748 36.7816 30.0474C36.983 30.3748 37.4906 30.6113 38.0847 30.6113C38.67 30.6113 39.1751 30.3811 39.3813 30.0493V30.8625Z" fill="#2EABE2"/>
<path fill-rule="evenodd" clip-rule="evenodd" d="M29.3986 40.5137C29.3986 40.5137 30.5457 42.3066 29.9428 41.8016C29.5026 41.422 28.8998 40.548 28.4641 39.8283L26.1099 40.7433C26.1099 40.7433 24.7589 42.387 25.0582 41.6606C25.274 41.1357 25.9405 40.2839 26.4904 39.6395L24.8781 37.6927C24.8781 37.6927 22.8953 36.9209 23.6814 36.9793C24.1957 37.0183 25.2687 37.4042 26.0419 37.7168L27.3844 35.5786C27.3844 35.5786 27.5106 33.4517 27.6981 34.2169C27.828 34.7418 27.7868 35.8779 27.7242 36.7189L30.1858 37.3176C30.1858 37.3176 32.2453 36.7776 31.5735 37.1919C31.1028 37.4866 30.075 37.7947 29.2556 37.9918L29.3986 40.5137Z" fill="#211E1F"/>
<path d="M29.3986 40.5137C29.3986 40.5137 30.5457 42.3066 29.9428 41.8016C29.5026 41.422 28.8998 40.548 28.4641 39.8283L26.1099 40.7433C26.1099 40.7433 24.7589 42.387 25.0582 41.6606C25.274 41.1357 25.9405 40.2839 26.4904 39.6395L24.8781 37.6927C24.8781 37.6927 22.8953 36.9209 23.6814 36.9793C24.1957 37.0183 25.2687 37.4042 26.0419 37.7168L27.3844 35.5786C27.3844 35.5786 27.5106 33.4517 27.6981 34.2169C27.828 34.7418 27.7868 35.8779 27.7242 36.7189L30.1858 37.3176C30.1858 37.3176 32.2453 36.7776 31.5735 37.1919C31.1028 37.4866 30.075 37.7947 29.2556 37.9918L29.3986 40.5137Z" stroke="#211E1F" stroke-width="1.81905"/>
<path fill-rule="evenodd" clip-rule="evenodd" d="M27.523 40.0386C27.5375 40.0732 27.5637 40.097 27.5931 40.097C27.6207 40.097 27.6419 40.0733 27.6604 40.0386C27.6861 39.9779 27.7101 39.8351 27.7013 39.5378C27.7013 39.5378 27.7163 38.5336 28.4664 39.6115C30.5672 42.6405 27.575 42.6577 27.575 42.6577H27.6037C27.6037 42.6577 24.611 42.6405 26.7147 39.6115C27.465 38.5336 27.4738 39.5378 27.4738 39.5378C27.4715 39.835 27.4898 39.9777 27.5232 40.043L27.523 40.0386Z" fill="white"/>
<path d="M27.523 40.0386L27.5931 40.097L27.6604 40.0386C27.6861 39.9779 27.7013 39.8351 27.7013 39.5378C27.7013 39.5378 27.7163 38.5336 28.4664 39.6115C30.5672 42.6405 27.575 42.6577 27.575 42.6577H27.6037C27.6037 42.6577 24.611 42.6405 26.7147 39.6115C27.465 38.5336 27.4738 39.5378 27.4738 39.5378C27.4738 39.835 27.4898 39.9777 27.5232 40.043L27.523 40.0386Z" stroke="#211E1F" stroke-width="1.81905"/>
<path fill-rule="evenodd" clip-rule="evenodd" d="M25.984 38.8248C25.9566 38.8503 25.9439 38.8789 25.9562 38.9026C25.9629 38.9309 25.9895 38.9526 26.0283 38.9526H26.0264C26.0963 38.957 26.2338 38.9436 26.5174 38.8443C26.5174 38.8443 27.4783 38.5494 26.6853 39.5881C24.451 42.5238 23.5164 39.6899 23.5164 39.6899V39.7094C23.5164 39.7094 22.6145 36.858 26.1429 37.9226C27.4031 38.2978 26.4459 38.6253 26.4459 38.6253C26.1565 38.7095 26.0328 38.7747 25.984 38.8248Z" fill="white"/>
<path d="M25.984 38.8248C25.9566 38.8503 25.9562 38.9026 25.9562 38.9026L26.0283 38.9526H26.0264C26.0264 38.9526 26.2338 38.9436 26.5174 38.8443C26.5174 38.8443 27.4783 38.5494 26.6853 39.5881C24.451 42.5238 23.5164 39.6899 23.5164 39.6899V39.7094C23.5164 39.7094 22.6145 36.858 26.1429 37.9226C27.4031 38.2978 26.4459 38.6253 26.4459 38.6253C26.1565 38.7095 26.0328 38.7747 25.984 38.8248Z" stroke="#211E1F" stroke-width="1.81905"/>
<path fill-rule="evenodd" clip-rule="evenodd" d="M26.6559 36.9769C26.626 36.9576 26.5923 36.9576 26.5697 36.9769C26.5457 36.992 26.5391 37.0226 26.5457 37.0575V37.0551C26.5602 37.1269 26.6184 37.2568 26.8081 37.4909C26.8081 37.4909 27.3827 38.3106 26.143 37.8789C22.6647 36.6649 25.0716 34.8952 25.0716 34.8952L25.0538 34.904C25.0538 34.904 27.4784 33.1629 27.5638 36.8513C27.5931 38.1652 26.9869 37.3541 26.9869 37.3541C26.8199 37.1114 26.717 37.0118 26.6559 36.9769Z" fill="white"/>
<path d="M26.6559 36.9769H26.5697L26.5457 37.0575V37.0551C26.5457 37.0551 26.6184 37.2568 26.8081 37.4909C26.8081 37.4909 27.3827 38.3106 26.143 37.8789C22.6647 36.6649 25.0716 34.8952 25.0716 34.8952L25.0538 34.904C25.0538 34.904 27.4784 33.1629 27.5638 36.8513C27.5931 38.1652 26.9869 37.3541 26.9869 37.3541C26.8199 37.1114 26.717 37.0118 26.6559 36.9769Z" stroke="#211E1F" stroke-width="1.81905"/>
<path fill-rule="evenodd" clip-rule="evenodd" d="M28.629 37.0509C28.6353 37.0182 28.629 36.9837 28.6073 36.9663C28.5856 36.9552 28.551 36.9576 28.5182 36.9769C28.4597 37.0054 28.3556 37.1007 28.1843 37.3523C28.1843 37.3523 27.5831 38.1564 27.6103 36.8471C27.695 33.1609 30.1206 34.9021 30.1206 34.9021L30.1033 34.889C30.1033 34.889 32.5123 36.6584 29.0255 37.8751C27.7913 38.3063 28.3708 37.4866 28.3708 37.4866C28.5531 37.2482 28.618 37.1225 28.629 37.0509Z" fill="white"/>
<path d="M28.629 37.0509L28.6073 36.9663L28.5182 36.9769C28.4597 37.0054 28.3556 37.1007 28.1843 37.3523C28.1843 37.3523 27.5831 38.1564 27.6103 36.8471C27.695 33.1609 30.1206 34.9021 30.1206 34.9021L30.1033 34.889C30.1033 34.889 32.5123 36.6584 29.0255 37.8751C27.7913 38.3063 28.3708 37.4866 28.3708 37.4866C28.5531 37.2482 28.629 37.0509 28.629 37.0509Z" stroke="#211E1F" stroke-width="1.81905"/>
<path fill-rule="evenodd" clip-rule="evenodd" d="M29.1664 38.9525C29.2009 38.9501 29.2316 38.9308 29.2381 38.9025C29.2511 38.8788 29.2338 38.8502 29.2076 38.8247C29.1556 38.7747 29.0318 38.7054 28.7437 38.625C28.7437 38.625 27.7911 38.2974 29.0449 37.9224C32.5818 36.8577 31.675 39.7091 31.675 39.7091L31.6795 39.6897C31.6795 39.6897 30.7406 42.5236 28.5097 39.5878C27.71 38.5492 28.672 38.844 28.672 38.844C28.9562 38.9435 29.0995 38.9569 29.1664 38.9525Z" fill="white"/>
<path d="M29.1664 38.9525L29.2381 38.9025C29.2381 38.9025 29.2338 38.8502 29.2076 38.8247C29.1556 38.7747 29.0318 38.7054 28.7437 38.625C28.7437 38.625 27.7911 38.2974 29.0449 37.9224C32.5818 36.8577 31.675 39.7091 31.675 39.7091L31.6795 39.6897C31.6795 39.6897 30.7406 42.5236 28.5097 39.5878C27.71 38.5492 28.672 38.844 28.672 38.844C28.9562 38.9435 29.1664 38.9525 29.1664 38.9525Z" stroke="#211E1F" stroke-width="1.81905"/>
<path fill-rule="evenodd" clip-rule="evenodd" d="M25.5401 35.5546C25.5401 35.5546 25.3155 35.7105 25.1204 35.7733C24.9258 35.8298 24.8419 35.9772 24.8173 36.0122C24.8173 36.0122 24.7062 36.2679 24.6351 36.1638C24.5592 36.0615 24.7106 35.8689 24.7106 35.8689C24.7329 35.8298 24.823 35.6888 25.0114 35.6219C25.2057 35.5657 25.43 35.4118 25.43 35.4118C25.43 35.4113 25.6499 35.2402 25.7667 35.0774C25.8864 34.9108 26.0474 34.8738 26.0928 34.8671C26.0928 34.8671 26.3206 34.7848 26.4003 34.8846C26.4742 34.9911 26.1997 35.0104 26.1997 35.0104C26.1532 35.0278 25.9895 35.0624 25.8722 35.2231C25.7586 35.3878 25.5401 35.5546 25.5401 35.5546Z" fill="#211E1F"/>
<path fill-rule="evenodd" clip-rule="evenodd" d="M29.6305 35.5524C29.6305 35.5524 29.4161 35.3859 29.303 35.2186C29.1838 35.0561 29.0191 35.0192 28.98 35.0038C28.98 35.0038 28.7002 34.9843 28.7739 34.8803C28.8519 34.7786 29.0819 34.8629 29.0819 34.8629C29.1271 34.8694 29.2921 34.9064 29.4048 35.0732C29.5241 35.2357 29.7409 35.4119 29.7409 35.4119C29.7409 35.4114 29.9709 35.5613 30.1616 35.6197C30.3502 35.6828 30.4371 35.8237 30.4588 35.8606C30.4588 35.8606 30.6105 36.0578 30.5391 36.1618C30.4655 36.266 30.359 36.01 30.359 36.01C30.3306 35.9711 30.2463 35.828 30.0513 35.7698C29.8626 35.7063 29.6305 35.5524 29.6305 35.5524Z" fill="#211E1F"/>
<path fill-rule="evenodd" clip-rule="evenodd" d="M30.9032 39.4446C30.9032 39.4446 30.9989 39.1888 31.1156 39.0242C31.2438 38.8683 31.2198 38.6945 31.2177 38.6533C31.2177 38.6533 31.1572 38.3823 31.2765 38.4234C31.3954 38.4647 31.3914 38.7056 31.3914 38.7056C31.3914 38.7508 31.4108 38.9201 31.2917 39.0825C31.1657 39.2432 31.0727 39.503 31.0727 39.503C31.0727 39.503 31.001 39.768 31.0052 39.965C31.0052 40.1688 30.8905 40.2926 30.8665 40.3315C30.8665 40.3315 30.7232 40.5331 30.6065 40.4964C30.4806 40.4572 30.6952 40.2749 30.6952 40.2749C30.7191 40.2382 30.8341 40.1084 30.8274 39.9133C30.8274 39.7114 30.9032 39.4446 30.9032 39.4446Z" fill="#211E1F"/>
<path fill-rule="evenodd" clip-rule="evenodd" d="M27.5931 41.845C27.5931 41.845 27.8693 41.8556 28.0581 41.9208C28.2495 41.9837 28.4012 41.9164 28.4447 41.9011C28.4447 41.9011 28.6787 41.7561 28.6766 41.8863C28.6766 42.0052 28.4447 42.0836 28.4447 42.0836C28.4012 42.0966 28.2495 42.1679 28.0581 42.1009C27.8694 42.0358 27.5931 42.0228 27.5931 42.0228C27.5931 42.0228 27.3123 42.036 27.1245 42.1009C26.9337 42.1679 26.7837 42.0966 26.7358 42.0836C26.7358 42.0836 26.5001 42.0052 26.5001 41.8863C26.4991 41.7561 26.7358 41.9011 26.7358 41.9011C26.7837 41.9164 26.9337 41.9837 27.1245 41.9208C27.3123 41.8556 27.5931 41.845 27.5931 41.845Z" fill="#211E1F"/>
<path fill-rule="evenodd" clip-rule="evenodd" d="M24.288 39.4446C24.288 39.4446 24.3655 39.7114 24.3619 39.9133C24.3619 40.1166 24.4711 40.2382 24.5007 40.2749C24.5007 40.2749 24.7106 40.4572 24.5908 40.4964C24.4711 40.5331 24.3273 40.3315 24.3273 40.3315C24.2993 40.2925 24.1899 40.1688 24.1899 39.965C24.1908 39.7679 24.1193 39.503 24.1193 39.503C24.1193 39.503 24.0249 39.2432 23.9013 39.0825C23.7839 38.9201 23.8006 38.7508 23.8006 38.7056C23.8006 38.7056 23.8006 38.4647 23.918 38.4234C24.0337 38.3823 23.9711 38.6533 23.9711 38.6533C23.9669 38.6945 23.9513 38.8683 24.0759 39.0242C24.1957 39.1887 24.288 39.4446 24.288 39.4446Z" fill="#211E1F"/>
<path fill-rule="evenodd" clip-rule="evenodd" d="M27.5751 37.6882C27.2064 37.6882 26.9044 37.9917 26.9044 38.3627C26.9044 38.7422 27.2065 39.0371 27.5751 39.0371C27.9517 39.0371 28.2538 38.7422 28.2538 38.3627C28.2538 37.9917 27.9517 37.6882 27.5751 37.6882Z" fill="#FFC213"/>
<path d="M27.5751 37.6882C27.2064 37.6882 26.9044 37.9917 26.9044 38.3627C26.9044 38.7422 27.2065 39.0371 27.5751 39.0371C27.9517 39.0371 28.2538 38.7422 28.2538 38.3627C28.2538 37.9917 27.9517 37.6882 27.5751 37.6882Z" stroke="#FFCB04" stroke-width="0.720805"/>
<path fill-rule="evenodd" clip-rule="evenodd" d="M28.852 25.4663L28.9411 27.287L30.4804 26.2873L30.9638 27.0769L29.149 28.126V28.5058C29.149 28.5058 31.2608 29.6917 28.687 29.646L28.6874 29.6593C27.7867 30.4116 26.9336 29.6677 26.9336 29.6677C24.36 29.7131 26.4692 28.5316 26.4692 28.5316V28.15L24.8642 26.9031L25.2447 26.0789L26.68 27.3067L26.7634 25.4889L28.852 25.4663Z" fill="#211E1F"/>
<path fill-rule="evenodd" clip-rule="evenodd" d="M30.7689 27.0269C32.2607 28.7336 33.3555 26.9368 33.3555 26.9368C35.2399 26.4792 34.1212 25.1454 34.1212 25.1454C36.0856 23.8574 33.7785 22.8469 33.7785 22.8469C33.7633 21.1354 32.3061 21.263 32.3061 21.263C30.7838 19.9329 29.329 21.4094 29.329 21.4094C27.0476 19.5102 25.3155 21.7018 25.3155 21.7018C25.3155 21.7018 23.8577 20.6913 23.2032 22.2748C23.2032 22.2748 20.8821 22.2103 21.7487 24.5535C21.7487 24.5535 19.955 26.3488 22.2963 27.2331C22.2963 27.2331 23.5411 29.5379 25.2523 27.3435C25.2523 27.3435 26.3039 27.4064 26.1384 25.9243C26.1384 25.9243 27.4714 26.4792 28.7327 25.8638C28.7327 25.8635 29.136 26.7711 30.0034 26.2632C30.0034 26.2632 29.8691 26.8469 30.7079 26.9663L30.7689 27.0269Z" fill="#0CB14B"/>
<path d="M30.7689 27.0269C32.2607 28.7336 33.3555 26.9368 33.3555 26.9368C35.2399 26.4792 34.1212 25.1454 34.1212 25.1454C36.0856 23.8574 33.7785 22.8469 33.7785 22.8469C33.7785 21.1354 32.3061 21.263 32.3061 21.263C30.7838 19.9329 29.329 21.4094 29.329 21.4094C27.0476 19.5102 25.3155 21.7018 25.3155 21.7018C25.3155 21.7018 23.8577 20.6913 23.2032 22.2748C23.2032 22.2748 20.8821 22.2103 21.7487 24.5535C21.7487 24.5535 19.955 26.3488 22.2963 27.2331C22.2963 27.2331 23.5411 29.5379 25.2523 27.3435C25.2523 27.3435 26.3039 27.4064 26.1384 25.9243C26.1384 25.9243 27.4714 26.4792 28.7327 25.8638C28.7327 25.8638 29.136 26.7711 30.0034 26.2632C30.0034 26.2632 29.8691 26.8469 30.7079 26.9663L30.7689 27.0269Z" stroke="#211E1F" stroke-width="7.44916"/>
<path fill-rule="evenodd" clip-rule="evenodd" d="M10.8051 41.7235L10.9162 41.8166C10.5338 42.5106 10.4797 43.0005 10.7463 43.2285C10.9381 43.3974 11.1919 43.3279 11.424 43.0658C11.5232 42.9529 11.5886 42.8229 11.5886 42.7231C11.5886 42.578 11.4808 42.4153 11.3612 42.1703C11.1312 41.7018 11.1409 41.3246 11.5496 40.852C11.9594 40.3838 12.4946 40.2276 12.8346 40.5204C12.9818 40.6526 13.0589 40.837 13.073 41.0753L13.3374 40.9952L13.4297 41.0753L12.6133 42.0682L12.5158 41.9729C12.8355 41.3118 12.9038 40.9149 12.663 40.7109C12.4799 40.546 12.2404 40.6028 12.0283 40.8476C11.7611 41.1535 11.915 41.3313 12.1177 41.7104C12.224 41.921 12.3081 42.0837 12.2646 42.3331C12.2246 42.5566 12.0907 42.8145 11.876 43.0659C11.431 43.5711 10.9225 43.7251 10.5631 43.4128C10.3852 43.2523 10.3028 43.0635 10.3138 42.7755L9.99125 42.8835L9.89758 42.8013L10.8051 41.7235Z" fill="#FFC213"/>
<path fill-rule="evenodd" clip-rule="evenodd" d="M13.8677 42.064C14.2397 41.8885 14.5485 41.8948 14.825 42.0836C15.1036 42.2787 15.2203 42.5585 15.1801 42.9876C15.1479 43.3651 14.9714 43.7943 14.6755 44.2213C14.3785 44.6462 14.0899 44.9218 13.7223 45.0927C13.3296 45.2772 12.9916 45.2794 12.7311 45.0927C12.4616 44.9088 12.3487 44.618 12.3868 44.178C12.4214 43.7616 12.5765 43.3931 12.8766 42.9658C13.1761 42.5347 13.5206 42.2243 13.8677 42.064ZM12.8789 44.8741C13.1685 45.0735 13.6005 44.7442 14.1995 43.8854C14.8001 43.0202 14.9593 42.5087 14.6696 42.3025C14.3825 42.1054 13.9555 42.4326 13.3538 43.2956C12.7543 44.1562 12.5877 44.6725 12.8789 44.8741Z" fill="#FFC213"/>
<path fill-rule="evenodd" clip-rule="evenodd" d="M16.8784 43.74L16.7501 43.6704C16.6367 43.612 16.5911 43.6574 16.5002 43.8287L15.6675 45.3855C15.3675 45.9451 15.354 46.2767 15.6773 46.4461C15.823 46.5195 15.9752 46.513 16.1097 46.4461C16.3224 46.3268 16.4643 46.0839 16.6714 45.6977L17.2739 44.5745C17.4461 44.2472 17.4811 44.0608 17.2617 43.9458C17.2595 43.9416 17.2482 43.9392 17.2459 43.9376L17.3631 43.712L18.0698 44.0914L17.9502 44.3102C17.7294 44.2324 17.6135 44.345 17.4417 44.6658L16.8209 45.8235C16.6421 46.1618 16.5024 46.4133 16.295 46.5912C15.9859 46.8516 15.6832 46.8859 15.354 46.7017C14.8483 46.435 14.7838 45.9495 15.1416 45.2644L16.0414 43.5861C16.1325 43.4125 16.1389 43.347 16.0306 43.289L15.9026 43.2195L16.0188 42.9961L16.9965 43.5166L16.8784 43.74Z" fill="#FFC213"/>
<path fill-rule="evenodd" clip-rule="evenodd" d="M19.5951 44.9521C19.4958 44.9151 19.4457 44.9562 19.3751 45.1298L18.4503 47.4694C18.3767 47.6472 18.3767 47.7125 18.4914 47.76L18.6303 47.8163L18.5349 48.0528L17.5081 47.6452L17.6025 47.4044L17.7381 47.4607C17.8546 47.5064 17.8919 47.4607 17.9669 47.2766L18.898 44.9412C18.9647 44.7657 18.9647 44.705 18.8688 44.6659C18.6573 44.5768 18.3398 44.8716 18.0329 45.5009L17.8919 45.4508L18.4223 44.2407L20.2034 44.9478L19.7585 46.188L19.6278 46.1402C19.8334 45.4704 19.8071 45.0344 19.5951 44.9521Z" fill="#FFC213"/>
<path fill-rule="evenodd" clip-rule="evenodd" d="M21.1269 48.595C21.2453 48.6317 21.2805 48.5777 21.3303 48.391L21.6279 47.2871L20.884 47.0877L20.591 48.1872C20.5388 48.3737 20.5444 48.4345 20.664 48.469L20.8073 48.5101L20.7376 48.7554L19.6711 48.4688L19.7373 48.2217L19.8801 48.2542C20.0007 48.291 20.0346 48.2412 20.0847 48.0526L20.7298 45.6591C20.7845 45.4702 20.7811 45.4031 20.6574 45.3681L20.5155 45.3314L20.5845 45.0884L21.6503 45.3792L21.5836 45.6221L21.4435 45.5827C21.3236 45.5481 21.2881 45.6046 21.2327 45.7933L20.9686 46.7883L21.7135 46.988L21.9785 45.9925C22.0324 45.8083 22.0273 45.737 21.9064 45.704L21.7668 45.6673L21.8297 45.4227L22.898 45.7175L22.8357 45.9579L22.6893 45.9188C22.5702 45.8862 22.5358 45.9427 22.4827 46.1312L21.8387 48.5253C21.7869 48.7139 21.7922 48.7747 21.914 48.8049L22.0531 48.8482L21.9898 49.0913L20.9139 48.8049L20.9859 48.5556L21.1269 48.595Z" fill="#FFC213"/>
<path fill-rule="evenodd" clip-rule="evenodd" d="M23.9513 49.1648L24.0976 49.1737C24.1606 49.178 24.1842 49.1454 24.1955 49.0737C24.1989 49.0392 24.1989 48.9957 24.1955 48.9375L24.1457 48.3779L23.4088 48.2716L23.3039 48.5165C23.271 48.5948 23.2441 48.6898 23.2379 48.7553C23.2032 48.9721 23.2822 49.0543 23.4937 49.0998L23.4584 49.3473L22.6406 49.228L22.6781 48.9785C22.8627 48.9571 22.9842 48.7593 23.1412 48.3909L24.2034 45.8669L24.4173 45.8996L24.7609 49.0765C24.7761 49.228 24.8155 49.2865 24.9214 49.3059L24.8847 49.5596L23.9182 49.4163L23.9513 49.1648ZM23.5304 47.9811L24.1193 48.0723L24.0033 46.8622L23.5304 47.9811Z" fill="#FFC213"/>
<path fill-rule="evenodd" clip-rule="evenodd" d="M26.1015 48.7704C26.0859 49.2193 26.143 49.3864 26.4152 49.3992L26.4091 49.6573L25.5733 49.6334V49.3752C25.8345 49.3646 25.8865 49.1997 25.8984 48.7617L25.951 46.6606C25.9567 46.4741 25.9375 46.4006 25.8123 46.3916L25.6589 46.3897L25.6696 46.1357L26.6079 46.1617L27.0147 48.2631L27.4898 46.1813L28.4144 46.203L28.4055 46.459L28.2602 46.4484C28.1384 46.4484 28.1123 46.5089 28.109 46.7018L28.0507 49.1846C28.0441 49.3796 28.0646 49.4403 28.1889 49.4403L28.3384 49.4425L28.33 49.6985L27.2459 49.6745L27.2543 49.4209H27.3807C27.5033 49.4253 27.5308 49.3646 27.5378 49.1737L27.6038 46.5543L26.8904 49.6682L26.7486 49.6657L26.1535 46.5372L26.1015 48.7704Z" fill="#FFC213"/>
<path fill-rule="evenodd" clip-rule="evenodd" d="M30.0447 49.3059L30.2287 49.2906L30.2527 49.5424L29.1078 49.6574L29.082 49.3992L29.238 49.3863C29.3637 49.3708 29.3769 49.3146 29.3616 49.1193L29.121 46.6541C29.1078 46.4612 29.0775 46.4006 28.9539 46.4089L28.8 46.4269L28.7716 46.1729L30.0446 46.0514C30.5735 45.9993 30.875 46.3159 30.9379 46.9624C31.0071 47.6517 30.7189 47.9962 30.0726 48.0591C29.986 48.0722 29.8908 48.0745 29.78 48.0808L29.8797 49.0721C29.8993 49.2715 29.9277 49.3146 30.0447 49.3059ZM29.7605 47.8079C29.7934 47.8163 29.8387 47.8163 29.9038 47.8079C30.2963 47.7733 30.4394 47.5976 30.3831 47.0206C30.3309 46.4592 30.1814 46.2923 29.8387 46.3226C29.6522 46.342 29.6241 46.379 29.6435 46.648L29.7605 47.8079Z" fill="#FFC213"/>
<path fill-rule="evenodd" clip-rule="evenodd" d="M32.6271 45.8602C32.523 45.8775 32.5124 45.9384 32.5512 46.1229L33.0563 48.5925C33.0976 48.7814 33.1303 48.831 33.2536 48.8049L33.3945 48.7787L33.4445 49.0307L32.3667 49.2519L32.3125 49.0046L32.4557 48.972C32.5791 48.948 32.5857 48.883 32.5511 48.6944L32.0394 46.2313C32.0004 46.0491 31.9658 45.9925 31.8638 46.0144C31.6381 46.0621 31.5362 46.485 31.623 47.1788L31.482 47.2047L31.2609 45.9103L33.1342 45.5181L33.4508 46.8015L33.3102 46.8297C33.113 46.1617 32.855 45.8084 32.6271 45.8602Z" fill="#FFC213"/>
<path fill-rule="evenodd" clip-rule="evenodd" d="M33.9931 45.7372C34.08 45.3399 34.2707 45.0907 34.5917 44.9911C34.9146 44.8828 35.2117 44.963 35.5283 45.249C35.8101 45.5049 36.042 45.9039 36.2049 46.394C36.3697 46.8883 36.4065 47.2871 36.3285 47.6842C36.2395 48.109 36.0359 48.3757 35.7256 48.4756C35.4134 48.5778 35.1208 48.4906 34.7932 48.1957C34.4833 47.9204 34.2814 47.5756 34.1214 47.0771C33.9585 46.5784 33.9152 46.1164 33.9931 45.7372ZM35.6453 48.2218C35.9774 48.1157 35.9774 47.5715 35.652 46.5761C35.3265 45.5766 35.0144 45.1367 34.672 45.2474C34.3445 45.3554 34.3445 45.8953 34.6676 46.8951C34.9971 47.8922 35.3114 48.3347 35.6453 48.2218Z" fill="#FFC213"/>
<path fill-rule="evenodd" clip-rule="evenodd" d="M37.4016 47.534C37.6251 47.3892 37.5967 47.2241 37.4167 46.8406L36.5323 44.9299L36.4411 44.8654C36.3479 44.7958 36.2806 44.7504 36.1743 44.8023L36.144 44.8173L36.0337 44.5917L36.7014 44.2818L38.6244 45.7912L38.0718 44.6051C37.8742 44.1779 37.7593 44.0696 37.4969 44.1909L37.393 43.9569L38.1628 43.5991L38.271 43.8287C38.0542 43.9503 38.0715 44.1085 38.2604 44.5184L39.3901 46.9422L39.2229 47.0204L36.8445 45.145L37.5882 46.7627C37.7745 47.1681 37.9048 47.287 38.1561 47.1831L38.2688 47.4109L37.5101 47.7641L37.4016 47.534Z" fill="#FFC213"/>
<path fill-rule="evenodd" clip-rule="evenodd" d="M41.7882 42.7834L41.671 42.8661C41.1593 42.3131 40.8494 42.2156 40.4827 42.4669C40.3418 42.5623 40.316 42.6018 40.4548 42.8074L41.0357 43.6597C41.0511 43.653 41.0641 43.6467 41.0747 43.638C41.2893 43.4903 41.268 43.2717 41.0335 42.8464L41.1507 42.764L42.0595 44.0912L41.9379 44.1758C41.6277 43.7963 41.4347 43.7095 41.2224 43.8504C41.2113 43.8592 41.1985 43.8698 41.1918 43.8742L41.8468 44.8393C41.9576 44.9996 42.0028 45.0342 42.1092 44.965L42.2804 44.8459L42.4235 45.0583L41.4631 45.7176L41.32 45.5048L41.4391 45.4205C41.5474 45.3532 41.5279 45.2879 41.4218 45.1296L40.0211 43.0807C39.9126 42.9182 39.8584 42.8812 39.7564 42.9528L39.6309 43.035L39.4899 42.8294L41.0574 41.7559L41.7882 42.7834Z" fill="#FFC213"/>
<path fill-rule="evenodd" clip-rule="evenodd" d="M44.6045 43.497C44.4138 43.6597 44.1707 43.7117 43.887 43.6575C43.4555 43.5707 43.0065 43.2693 42.5967 42.7879C42.2762 42.415 42.0698 42.0226 41.9852 41.6454C41.8876 41.2201 41.9764 40.9146 42.2348 40.691C42.3951 40.5523 42.5817 40.5047 42.8246 40.5478L42.7811 40.2529L42.8743 40.1731L43.8263 41.2138L43.7241 41.3287C43.1061 40.8016 42.6684 40.6455 42.4233 40.8516C42.1307 41.1052 42.3257 41.5801 43.0196 42.3866C43.7158 43.2041 44.1406 43.4623 44.4678 43.1847C44.7129 42.97 44.661 42.556 44.2967 41.9596L44.4745 41.9251C44.9409 42.6229 44.9819 43.176 44.6045 43.497Z" fill="#FFC213"/>
<path fill-rule="evenodd" clip-rule="evenodd" d="M7.26592 14.0692L7.81972 15.2146L6.26361 15.6395L6.74911 16.6078L8.30939 16.1817L8.79653 17.1509L7.235 17.5738L7.71621 18.5375L9.28077 18.1158L9.77246 19.085L8.19982 19.5036L8.68885 20.4669L10.2576 20.0521L10.9557 21.3942C11.2502 21.3108 11.5423 21.2111 11.8198 21.094L8.17066 13.8118C7.90594 13.9235 7.60575 14.0113 7.26592 14.0692Z" fill="white"/>
<path fill-rule="evenodd" clip-rule="evenodd" d="M11.5476 14.4719C11.4393 13.9558 12.6134 13.3397 13.5563 12.5802L12.3082 10.0823C11.8154 10.3523 11.2669 10.7739 10.7205 11.3892C10.5742 11.5402 10.4452 11.6988 10.3209 11.8565L11.5476 14.4719Z" fill="white"/>
<path fill-rule="evenodd" clip-rule="evenodd" d="M14.345 10.0303C14.0423 9.61813 13.2637 9.56309 12.308 10.0823L13.556 12.5802C14.4216 11.8732 15.0889 11.0387 14.345 10.0303Z" fill="#D61F26"/>
<path fill-rule="evenodd" clip-rule="evenodd" d="M8.17053 13.8116L11.8196 21.0939C12.842 20.67 13.6854 20.0705 13.9698 19.6274L12.3989 16.2857L11.6194 14.6263C11.5789 14.5738 11.5583 14.5259 11.5475 14.4718L10.3207 11.8564C9.70682 12.6202 9.17562 13.3817 8.17053 13.8116Z" fill="#D61F26"/>
<path fill-rule="evenodd" clip-rule="evenodd" d="M7.26595 14.0691C6.77439 14.1532 6.20216 14.1755 5.50269 14.1178L6.26364 15.6395L7.81975 15.2146L7.26595 14.0691Z" fill="#D61F26"/>
<path fill-rule="evenodd" clip-rule="evenodd" d="M8.3093 16.1816L6.74902 16.6077L7.23503 17.5738L8.79657 17.1509L8.3093 16.1816Z" fill="#D61F26"/>
<path fill-rule="evenodd" clip-rule="evenodd" d="M9.28076 18.1157L7.71606 18.5375L8.1998 19.5036L9.77232 19.085L9.28076 18.1157Z" fill="#D61F26"/>
<path fill-rule="evenodd" clip-rule="evenodd" d="M8.68884 20.4668L9.25842 21.6157C9.80818 21.6456 10.3897 21.5546 10.9555 21.3941L10.2576 20.052L8.68884 20.4668Z" fill="#D61F26"/>
<path fill-rule="evenodd" clip-rule="evenodd" d="M13.5338 12.5996L14.2265 13.9826C14.7193 13.5684 15.2446 13.0756 15.8051 12.606L14.5071 10.2881C14.9745 11.189 14.3372 11.9475 13.5338 12.5996Z" fill="white"/>
<path fill-rule="evenodd" clip-rule="evenodd" d="M11.6194 14.6264C11.6547 14.6796 11.7076 14.7253 11.7784 14.7728C12.4767 15.2656 13.2961 14.763 14.2263 13.9826L13.5338 12.5996C12.503 13.4306 11.1948 14.0828 11.6194 14.6264Z" fill="#D61F26"/>
<path d="M11.6195 14.6264C10.8359 13.6188 15.9751 12.2438 14.345 10.0303C13.8856 9.40188 12.3345 9.59287 10.7204 11.3892C9.47054 12.7676 8.91939 14.4064 5.50244 14.1178L9.25834 21.6157C11.1525 21.7151 13.467 20.4183 13.97 19.6233L11.6195 14.6264Z" stroke="#211E1F" stroke-width="5.93812"/>
<path d="M15.805 12.606C14.1973 13.957 12.8476 15.5245 11.7785 14.7727C11.7077 14.7253 11.6548 14.6796 11.6196 14.6264C10.8678 13.6584 15.5784 12.3503 14.5072 10.2881L15.805 12.606Z" stroke="#211E1F" stroke-width="5.93812"/>
<path fill-rule="evenodd" clip-rule="evenodd" d="M47.6122 14.0692L47.0571 15.2146L48.6075 15.6395L48.1261 16.6078L46.5649 16.1817L46.0793 17.1509L47.6405 17.5738L47.159 18.5375L45.5957 18.1158L45.1056 19.085L46.6735 19.5036L46.1875 20.4669L44.6179 20.0521L43.9195 21.3942C43.6269 21.3108 43.3342 21.2111 43.0567 21.094L46.7057 13.8118C46.9723 13.9235 47.2653 14.0113 47.6122 14.0692Z" fill="white"/>
<path fill-rule="evenodd" clip-rule="evenodd" d="M43.3275 14.4719C43.4339 13.9558 42.2608 13.3397 41.3198 12.5802L42.5689 10.0823C43.0588 10.3523 43.6052 10.7739 44.1625 11.3892C44.2991 11.5402 44.429 11.6988 44.5571 11.8565L43.3275 14.4719Z" fill="white"/>
<path fill-rule="evenodd" clip-rule="evenodd" d="M40.5262 10.0303C40.832 9.61813 41.6103 9.56309 42.5689 10.0823L41.3198 12.5802C40.4526 11.8732 39.7844 11.0387 40.5262 10.0303Z" fill="#D61F26"/>
<path fill-rule="evenodd" clip-rule="evenodd" d="M46.7057 13.8116L43.0567 21.0939C42.0373 20.67 41.1918 20.0705 40.9058 19.6274L43.2561 14.6263C43.2973 14.5738 43.3167 14.5259 43.3275 14.4718L44.557 11.8564C45.1728 12.6202 45.6976 13.3817 46.7057 13.8116Z" fill="#D61F26"/>
<path fill-rule="evenodd" clip-rule="evenodd" d="M47.6122 14.0691C48.1002 14.1532 48.6767 14.1755 49.3751 14.1178L48.6076 15.6395L47.0571 15.2146L47.6122 14.0691Z" fill="#D61F26"/>
<path fill-rule="evenodd" clip-rule="evenodd" d="M46.5648 16.1816L48.126 16.6077L47.6403 17.5738L46.0792 17.1509L46.5648 16.1816Z" fill="#D61F26"/>
<path fill-rule="evenodd" clip-rule="evenodd" d="M45.5956 18.1157L47.1589 18.5375L46.6734 19.5036L45.1055 19.085L45.5956 18.1157Z" fill="#D61F26"/>
<path fill-rule="evenodd" clip-rule="evenodd" d="M46.1874 20.4668L45.615 21.6157C45.0688 21.6456 44.4835 21.5546 43.9194 21.3941L44.6178 20.052L46.1874 20.4668Z" fill="#D61F26"/>
<path fill-rule="evenodd" clip-rule="evenodd" d="M41.3393 12.5996L40.6476 13.9826C40.1556 13.5684 39.6265 13.0756 39.0736 12.606L40.3679 10.2881C39.8997 11.189 40.5391 11.9475 41.3393 12.5996Z" fill="white"/>
<path fill-rule="evenodd" clip-rule="evenodd" d="M43.2562 14.6264C43.2172 14.6796 43.1628 14.7253 43.0979 14.7728C42.3953 15.2656 41.5823 14.763 40.6476 13.9826L41.3393 12.5996C42.3715 13.4306 43.6769 14.0828 43.2562 14.6264Z" fill="#D61F26"/>
<path d="M43.2561 14.6264C44.0365 13.6188 38.902 12.2438 40.5262 10.0303C40.9922 9.40188 42.5428 9.59287 44.1625 11.3892C45.4049 12.7676 45.9556 14.4064 49.3751 14.1178L45.6151 21.6157C43.7244 21.7151 41.4087 20.4183 40.9036 19.6233L43.2561 14.6264Z" stroke="#211E1F" stroke-width="5.93812"/>
<path d="M39.0736 12.606C40.6802 13.957 42.0266 15.5245 43.0979 14.7727C43.1628 14.7253 43.2172 14.6796 43.2562 14.6264C44.0087 13.6584 39.2968 12.3503 40.3679 10.2881L39.0736 12.606Z" stroke="#211E1F" stroke-width="5.93812"/>
<path fill-rule="evenodd" clip-rule="evenodd" d="M32.1305 12.3556C31.7944 12.6258 31.2113 13.0178 30.5607 13.4127V18.5998C31.2938 18.1548 32.0395 17.6775 32.7441 17.2973V11.9211C32.5015 12.0818 32.2865 12.2312 32.1305 12.3556Z" fill="white"/>
<path fill-rule="evenodd" clip-rule="evenodd" d="M35.628 10.9475C35.5978 10.9475 35.5673 10.9551 35.537 10.9551L34.7953 16.5591C34.8236 16.558 34.8559 16.5502 34.8866 16.5502C35.4937 16.5502 36.0572 16.7548 36.5884 17.0544L38.2475 11.9623C37.4344 11.3811 36.5605 10.9475 35.628 10.9475Z" fill="white"/>
<path fill-rule="evenodd" clip-rule="evenodd" d="M43.0979 14.7727C42.4039 15.259 41.5909 14.7727 40.6715 14.0024L38.5118 18.5132C39.3902 19.2725 40.1706 19.8998 40.9035 19.6233L43.2562 14.6264C43.2172 14.6796 43.1626 14.7253 43.0979 14.7727Z" fill="white"/>
<path fill-rule="evenodd" clip-rule="evenodd" d="M11.7784 14.7727C11.7076 14.7253 11.6547 14.6796 11.6194 14.6264L13.9698 19.6231C14.7094 19.8998 15.4874 19.2725 16.3654 18.5132L14.2022 14.0024C13.2794 14.7727 12.4723 15.259 11.7784 14.7727Z" fill="white"/>
<path fill-rule="evenodd" clip-rule="evenodd" d="M27.4384 14.7602C27.2222 14.7602 26.9336 14.6866 26.6078 14.5696V19.7878C26.9087 19.8928 27.1872 19.9561 27.4384 19.9561C27.6861 19.9561 27.9668 19.8928 28.2645 19.7878V14.5696C27.9441 14.6866 27.6524 14.7602 27.4384 14.7602Z" fill="white"/>
<path fill-rule="evenodd" clip-rule="evenodd" d="M19.2455 10.9475C18.3159 10.9475 17.4427 11.3811 16.6301 11.9623L18.2911 17.0544C18.8169 16.7548 19.3812 16.5502 19.9904 16.5502C20.018 16.5502 20.0496 16.558 20.0783 16.5591L19.3386 10.9551C19.3077 10.9551 19.2784 10.9475 19.2455 10.9475Z" fill="white"/>
<path fill-rule="evenodd" clip-rule="evenodd" d="M22.7436 12.3556C22.5876 12.2312 22.3805 12.0818 22.1331 11.9211V17.2973C22.839 17.6775 23.5848 18.1548 24.3133 18.5998V13.4127C23.6607 13.0175 23.0776 12.6258 22.7436 12.3556Z" fill="white"/>
<path fill-rule="evenodd" clip-rule="evenodd" d="M24.3134 13.4126V18.5996C25.1302 19.0979 25.9289 19.5553 26.6079 19.7876V14.5694C25.9288 14.3254 25.0715 13.8715 24.3134 13.4126Z" fill="#D61F26"/>
<path fill-rule="evenodd" clip-rule="evenodd" d="M19.3385 10.9551L20.0781 16.5591C20.6574 16.587 21.3667 16.8841 22.133 17.2973V11.9212C21.4307 11.4755 20.4169 10.9849 19.3385 10.9551Z" fill="#D61F26"/>
<path fill-rule="evenodd" clip-rule="evenodd" d="M14.2022 14.0024L16.3654 18.5132C16.9542 18.0033 17.5866 17.4451 18.291 17.0542L16.63 11.9622C15.7509 12.5882 14.9406 13.3852 14.2022 14.0024Z" fill="#D61F26"/>
<path fill-rule="evenodd" clip-rule="evenodd" d="M28.2645 14.5694V19.7876C28.9473 19.5553 29.7433 19.0981 30.5608 18.5996V13.4126C29.8062 13.8715 28.9496 14.3254 28.2645 14.5694Z" fill="#D61F26"/>
<path fill-rule="evenodd" clip-rule="evenodd" d="M32.7441 11.9212V17.2973C33.5095 16.8841 34.2166 16.587 34.7953 16.5591L35.537 10.9551C34.4592 10.9849 33.4469 11.4755 32.7441 11.9212Z" fill="#D61F26"/>
<path fill-rule="evenodd" clip-rule="evenodd" d="M38.2475 11.9622L36.5884 17.0542C37.2867 17.4451 37.9198 18.0033 38.5117 18.5132L40.6714 14.0024C39.9365 13.385 39.1277 12.5882 38.2475 11.9622Z" fill="#D61F26"/>
<path d="M27.4384 19.9561C29.3162 19.9561 32.9134 16.5502 34.8866 16.5502C37.5102 16.5502 39.3032 20.2262 40.9035 19.6234L43.2562 14.6265C43.2172 14.6797 43.1628 14.7254 43.0979 14.7728C41.335 16.0165 38.8242 10.9475 35.628 10.9475C34.1385 10.9475 32.7507 11.8755 32.1305 12.3557C31.2047 13.0943 28.4942 14.7602 27.4384 14.7602C26.3873 14.7602 23.6671 13.0943 22.7436 12.3557C22.1247 11.8755 20.7356 10.9475 19.2455 10.9475C16.0561 10.9475 13.5426 16.0165 11.7785 14.7728C11.7077 14.7254 11.6548 14.6797 11.6196 14.6265L13.9701 19.6232C15.5721 20.2262 17.3675 16.5502 19.9904 16.5502C21.9619 16.5502 25.5643 19.9561 27.4384 19.9561Z" stroke="#211E1F" stroke-width="5.93812"/>
<path fill-rule="evenodd" clip-rule="evenodd" d="M27.5193 9.66053C32.3691 9.66053 36.3003 7.52917 36.3003 4.90549C36.3003 2.27916 32.3691 0.148682 27.5193 0.148682C22.6715 0.148682 18.7374 2.27916 18.7374 4.90549C18.7374 7.52917 22.6714 9.66053 27.5193 9.66053Z" fill="#211E1F"/>
<path d="M27.5193 9.66053C32.3691 9.66053 36.3003 7.52917 36.3003 4.90549C36.3003 2.27916 32.3691 0.148682 27.5193 0.148682C22.6715 0.148682 18.7374 2.27916 18.7374 4.90549C18.7374 7.52917 22.6714 9.66053 27.5193 9.66053Z" stroke="white" stroke-width="2.97411"/>
<path fill-rule="evenodd" clip-rule="evenodd" d="M27.5284 8.88804C31.8355 8.88804 35.3354 7.10534 35.3354 4.90556C35.3354 2.70376 31.8355 0.923584 27.5284 0.923584C23.2109 0.923584 19.723 2.70376 19.723 4.90556C19.723 7.10534 23.2109 8.88804 27.5284 8.88804Z" fill="#FFC213"/>
<path d="M27.5284 8.88804C31.8355 8.88804 35.3354 7.10534 35.3354 4.90556C35.3354 2.70376 31.8355 0.923584 27.5284 0.923584C23.2109 0.923584 19.723 2.70376 19.723 4.90556C19.723 7.10534 23.2109 8.88804 27.5284 8.88804Z" stroke="#211E1F" stroke-width="0.00252471"/>
<path fill-rule="evenodd" clip-rule="evenodd" d="M27.5354 7.93434C31.042 7.93434 33.8935 6.79493 33.8935 5.39006C33.8935 3.98884 31.042 2.85083 27.5354 2.85083C24.025 2.85083 21.178 3.98884 21.178 5.39006C21.178 6.79493 24.0249 7.93434 27.5354 7.93434Z" fill="white"/>
<path d="M27.5354 7.93434C31.042 7.93434 33.8935 6.79493 33.8935 5.39006C33.8935 3.98884 31.042 2.85083 27.5354 2.85083C24.025 2.85083 21.178 3.98884 21.178 5.39006C21.178 6.79493 24.0249 7.93434 27.5354 7.93434Z" stroke="#211E1F" stroke-width="11.9116"/>
<path fill-rule="evenodd" clip-rule="evenodd" d="M27.5137 3.58179C24.1324 3.58179 21.3993 6.32463 21.3993 9.69967C21.3993 13.081 24.1324 15.8177 27.5137 15.8177H27.4384C30.8123 15.8177 33.5551 13.081 33.5551 9.69967C33.5551 6.32463 30.8122 3.58179 27.4384 3.58179H27.5137Z" fill="white"/>
<path d="M27.5137 3.58179C24.1324 3.58179 21.3993 6.32463 21.3993 9.69967C21.3993 13.081 24.1324 15.8177 27.5137 15.8177H27.4384C30.8123 15.8177 33.5551 13.081 33.5551 9.69967C33.5551 6.32463 30.8122 3.58179 27.4384 3.58179H27.5137Z" stroke="#211E1F" stroke-width="5.93812"/>
<path fill-rule="evenodd" clip-rule="evenodd" d="M26.4968 14.7576L25.2381 12.6203L22.9332 12.2439L22.3542 12.9768C22.3804 13.0133 22.3948 13.0523 22.4225 13.0864L22.5223 13.2295C23.2942 14.3193 24.4066 15.1457 25.7129 15.5491L25.9483 15.5928L26.4968 14.7576Z" fill="#211E1F"/>
<path fill-rule="evenodd" clip-rule="evenodd" d="M24.9215 8.85343L25.9108 11.904H29.0387L30.0274 8.85343L27.4715 7.00269L24.9215 8.85343Z" fill="#211E1F"/>
<path fill-rule="evenodd" clip-rule="evenodd" d="M27.4715 5.76634V5.76193L29.3748 4.51863V3.90336C28.7784 3.70227 28.1407 3.58929 27.4737 3.58398C26.8134 3.58929 26.1758 3.70227 25.5751 3.90336V4.51863L27.4715 5.76634Z" fill="#211E1F"/>
<path fill-rule="evenodd" clip-rule="evenodd" d="M23.9469 7.88323L24.0137 5.45723L23.5208 5.07373C23.2596 5.29464 23.0198 5.53537 22.8046 5.79845L22.7793 5.82395C22.0834 6.67553 21.6182 7.71685 21.4599 8.86042L22.0051 9.10027L23.9469 7.88323Z" fill="#211E1F"/>
<path fill-rule="evenodd" clip-rule="evenodd" d="M29.7175 12.6203L28.4597 14.7576L29.0041 15.5928L29.2317 15.5501C30.5564 15.1438 31.6948 14.2932 32.4689 13.1785L32.5167 13.1043C32.5469 13.0609 32.571 13.0133 32.5992 12.9768L32.0158 12.2439L29.7175 12.6203Z" fill="#211E1F"/>
<path fill-rule="evenodd" clip-rule="evenodd" d="M31.0072 7.88323L32.9436 9.10027L33.4899 8.86042C33.3316 7.71231 32.8633 6.66569 32.161 5.81069L32.1566 5.80981C31.9397 5.54194 31.6903 5.29906 31.4325 5.07373L30.9382 5.45723L31.0072 7.88323Z" fill="#211E1F"/>
</svg>
