<svg width="20.25" height="39" viewBox="0 0 27 52" fill="none" xmlns="http://www.w3.org/2000/svg">
<path d="M7.61293 34.2535C7.47458 34.2188 7.35508 34.133 7.26285 34.0043C6.79506 34.7259 6.59781 35.3711 6.76981 35.9502C7.48947 38.38 9.63323 40.1745 12.2007 40.4135C9.7469 39.6681 7.93089 37.1113 7.61293 34.2535ZM7.11051 32.8175C6.9559 32.7074 6.82353 32.6041 6.72936 32.5142C6.56528 33.1187 6.48955 33.7582 6.51642 34.4172C6.52167 34.5503 6.53122 34.6821 6.54441 34.8128C6.63939 34.4234 6.82637 34.0166 7.09441 33.6017C7.04255 33.3589 7.05072 33.0828 7.11051 32.8175ZM7.23146 32.4466C7.29627 32.2994 7.3775 32.1634 7.47418 32.0489C7.55193 31.9572 7.63478 31.8844 7.72272 31.8303C7.95621 30.7421 8.44391 29.7727 9.15677 29.04C8.09238 29.7968 7.27661 30.8757 6.84772 32.1278C6.90468 32.2057 7.05606 32.3235 7.23146 32.4466ZM16.4393 38.0332C15.908 37.9742 15.1971 37.8338 14.8868 37.7263C14.5404 37.6066 14.2322 37.3171 14.0628 36.9515C13.9927 36.8003 13.9292 36.5993 13.9191 36.3556C13.9134 36.2099 13.9273 36.0493 13.9699 35.8753C12.0219 35.2812 9.95847 34.4561 8.52199 33.689C8.47142 33.7816 8.41365 33.8676 8.34877 33.9443C8.24076 34.0721 8.1194 34.1648 7.99448 34.2177C8.12935 35.413 8.5444 36.5842 9.20532 37.6046C10.082 38.9582 11.276 39.8859 12.5658 40.1779C13.0231 40.2809 13.6208 40.4096 14.1555 40.2911C16.1381 39.852 17.7542 38.4807 18.5442 36.6767C18.4515 36.6932 18.3476 36.7026 18.2358 36.7065C17.7836 38.03 16.8322 38.0766 16.4393 38.0332ZM19.0627 33.9065C19.0345 33.2095 18.8939 32.5439 18.6587 31.9262C18.3696 31.1688 17.4031 30.6317 16.13 30.3434C13.7765 29.8113 10.685 30.6902 8.71778 32.3453C8.79334 32.6471 8.77093 33.0072 8.66948 33.3356C10.0869 34.0977 12.1484 34.9227 14.0933 35.5147C14.5511 34.4636 15.4275 34.2631 16.1109 34.434C16.6006 34.5562 16.9153 34.6202 17.1451 34.6664L17.3979 34.7198C17.7228 34.7958 18.0079 35.0117 18.1787 35.3125C18.2998 35.5249 18.4111 35.8609 18.3353 36.3238C18.5742 36.3098 18.6899 36.2698 18.7167 36.2381C18.9719 35.5104 19.0962 34.7233 19.0627 33.9065ZM17.9474 36.3237C18.0257 35.9359 17.9409 35.666 17.8468 35.5011C17.7287 35.2927 17.5329 35.1435 17.3115 35.0916L17.0694 35.0406C16.849 34.9961 16.5166 34.9285 16.0185 34.8042C15.3514 34.6375 14.7791 34.9431 14.4629 35.6244C14.7879 35.7189 15.108 35.8062 15.4198 35.8852C15.4701 35.6426 15.4808 35.4743 15.4808 35.4713C15.4873 35.3662 15.5776 35.2859 15.6829 35.292C15.788 35.2981 15.8684 35.3881 15.8621 35.4937C15.8614 35.5074 15.8491 35.7004 15.7912 35.9758C15.8529 35.9903 15.9148 36.0049 15.9755 36.0185C16.038 36.0328 16.0997 36.0465 16.1601 36.0592C16.2144 35.7908 16.2495 35.5625 16.2504 35.558C16.2662 35.4538 16.3636 35.3823 16.4676 35.3981C16.5722 35.4136 16.6437 35.511 16.6282 35.6154C16.6254 35.6337 16.59 35.8622 16.534 36.1361C16.662 36.1611 16.7833 36.1829 16.8985 36.2025C16.9408 35.971 16.9511 35.7868 16.9511 35.7833C16.9562 35.6782 17.0461 35.5969 17.1513 35.6022C17.2568 35.6072 17.3381 35.6967 17.3327 35.8017C17.3319 35.8174 17.3216 36.0108 17.2763 36.2596C17.5409 36.2956 17.763 36.3152 17.9474 36.3237ZM14.4093 36.7905C14.5584 37.1126 14.8182 37.2988 15.0118 37.3654C15.2631 37.4526 15.9284 37.5923 16.481 37.6529C17.0872 37.72 17.561 37.3828 17.8312 36.7013C17.6283 36.6897 17.4112 36.6659 17.1864 36.6346C17.1443 36.7718 17.0906 36.9086 17.0215 37.03C16.9694 37.1217 16.853 37.1532 16.7613 37.1015C16.6697 37.0494 16.6377 36.9327 16.6899 36.8407C16.7357 36.7602 16.7736 36.6688 16.805 36.5746C16.6865 36.5544 16.5673 36.532 16.4492 36.5092C16.4087 36.6675 16.3623 36.8179 16.3136 36.9304C16.2715 37.027 16.1587 37.071 16.062 37.0291C15.9652 36.987 15.9214 36.8744 15.9634 36.7778C16.0028 36.6874 16.0405 36.5647 16.0753 36.4318C16.0133 36.4182 15.952 36.4046 15.8914 36.391C15.8272 36.3765 15.7615 36.361 15.696 36.3452C15.6616 36.4559 15.6211 36.571 15.5719 36.6875C15.5311 36.7846 15.4185 36.83 15.3215 36.7891C15.2245 36.7482 15.1787 36.636 15.2198 36.5391C15.2609 36.443 15.295 36.3472 15.3241 36.2549C15.0023 36.1733 14.6717 36.0826 14.3365 35.9848C14.2556 36.3364 14.3258 36.6113 14.4093 36.7905ZM8.119 32.0326C8.03437 32.0171 7.86641 32.0184 7.69861 32.2008C7.43283 32.4889 7.30808 32.8793 7.32725 33.3602C7.33259 33.4828 7.34974 33.5515 7.38445 33.6504C7.44643 33.8252 7.59529 33.9407 7.70403 33.9604C7.83332 33.9841 7.97927 33.9085 8.11552 33.7473C8.41317 33.3941 8.54157 32.7465 8.39553 32.3333C8.33485 32.1611 8.23688 32.0542 8.119 32.0326Z" fill="#001C58"/>
<path d="M10.0693 0.653809C7.60948 0.653809 7.02648 1.91498 7.02648 1.91498C7.02648 1.91498 9.86457 1.70988 9.86457 4.51288C9.86457 5.77437 9.17808 6.62939 8.45147 7.53425C7.6073 8.58514 6.65099 9.77633 6.65099 11.7746C6.65099 15.0823 8.77606 16.6341 10.6508 18.0031C12.2842 19.1961 13.8268 20.3226 13.8268 22.4438C13.8268 24.5767 12.8913 26.2303 12.4643 26.657C11.7481 27.3732 11.1028 27.5035 10.5848 27.6083C10.0526 27.7156 9.54976 27.8189 9.44418 28.5833C7.47486 29.7661 6.28174 31.8728 6.28174 34.1583C6.28174 34.2474 6.2836 34.3369 6.28716 34.4265C6.35795 36.1636 7.10091 37.769 8.37906 38.947C9.65712 40.1252 11.3176 40.7348 13.0544 40.664C14.7912 40.5933 16.3965 39.8501 17.5747 38.5724C18.7529 37.2942 19.3627 35.6336 19.2915 33.8971C19.184 31.2456 17.5014 28.9474 15.0052 28.0427L15.0149 28.0462C15.0132 28.0455 14.9807 28.0325 14.9807 28.0325C14.9804 28.0321 14.9219 28.0118 14.9219 28.0118C14.6062 27.9028 14.248 27.7791 14.248 26.9671C14.248 26.1803 14.6052 26.1151 15.316 25.9845C15.7386 25.9069 16.2556 25.8121 16.7626 25.5024C17.6649 24.9515 17.8343 24.2871 17.67 24.1231C17.4464 23.8991 17.1999 24.3694 16.2916 24.643C15.9642 24.7419 15.6347 24.7994 15.4121 24.7994C15.2269 24.7994 15.0887 24.7838 14.9874 24.7654C15.4644 23.8717 15.9988 23.14 16.0047 23.1324L16.1211 22.9739L15.9818 22.8348C15.7973 22.6503 15.6911 22.2665 15.6911 21.7519C15.6911 21.1168 15.8526 20.283 16.2274 19.3777C16.6708 18.3078 18.4306 14.8164 22.4671 14.8164H22.6963V14.5873C22.6963 13.1442 22.5644 11.817 22.3046 10.6425L22.2541 10.4144C22.2541 10.4144 21.8622 10.5256 21.5357 10.5984C21.4969 10.607 21.1915 10.682 21.1776 10.6176C21.1654 10.5606 21.4012 10.4423 21.4826 10.4013C21.7892 10.2489 22.1713 10.0884 22.1713 10.0884L22.1185 9.90473C21.8306 8.89987 21.5409 8.41969 21.5285 8.39955L21.435 8.24647L21.2645 8.30043C17.9031 9.35934 17.1843 11.5899 16.7549 12.9224C16.5459 13.5699 16.4166 13.9362 16.1829 13.9362C15.4891 13.9362 14.9152 13.3624 14.7265 13.1738C12.6309 11.078 12.7913 9.56694 13.0347 7.27948C13.1209 6.47227 13.2183 5.55755 13.2183 4.51288C13.218 1.88003 12.2175 0.653809 10.0693 0.653809Z" fill="white"/>
<path d="M14.0559 22.4435C14.0559 24.5678 13.1499 26.2953 12.6264 26.8187C11.0042 28.4411 9.66616 27.2596 9.65159 28.8873C8.91543 29.5539 8.38582 30.5675 8.12595 31.7252C8.14214 31.7268 8.15815 31.7291 8.17401 31.7321C8.32636 31.7598 8.45718 31.8469 8.55702 31.9843C10.6174 30.3051 13.7898 29.4221 16.2145 29.9704C16.9854 30.1447 17.6393 30.4293 18.1345 30.8648C17.3899 29.6604 16.2516 28.731 14.906 28.2486C14.5867 28.1341 14.0189 28.003 14.0189 26.9666C14.0189 25.0326 16.1349 26.5364 17.529 24.4298C17.5973 24.3258 17.499 24.235 17.4171 24.3168C16.9955 24.7381 15.9598 25.0281 15.4121 25.0281C14.8637 25.0281 14.6575 24.9032 14.6575 24.9032C15.1751 23.8731 15.8198 22.9963 15.8198 22.9963C14.5257 21.7021 16.7038 14.5867 22.4672 14.5867C22.4672 12.9362 22.2929 11.6488 22.081 10.6914C21.9439 10.7248 20.8583 10.9808 20.8086 10.7525C20.7646 10.5502 21.6082 10.1117 21.8987 9.96747C21.6154 8.98089 21.3333 8.51851 21.3333 8.51851C16.3935 10.0749 17.3863 14.1648 16.1829 14.1648C15.3995 14.1648 14.7843 13.5551 14.5646 13.3354C11.614 10.3853 12.9892 8.43275 12.9892 4.51235C12.9892 1.8714 11.9636 0.882324 10.0695 0.882324C8.17547 0.882324 7.49877 1.70247 7.49877 1.70247C7.49877 1.70247 10.0939 1.78653 10.0939 4.51235C10.0939 7.36608 6.88025 8.15379 6.88025 11.7739C6.88009 17.8006 14.0559 17.6874 14.0559 22.4435ZM10.635 4.51268C10.635 4.16284 10.5974 3.8469 10.5291 3.56178C10.5291 3.56178 11.0939 3.53225 11.0939 2.84487C11.0939 2.2782 10.7159 1.89187 10.6145 1.89187C10.5327 1.89187 10.5124 1.97869 10.3354 1.97869C9.90402 1.97869 9.87247 1.42747 9.87247 1.42747C9.9363 1.42529 10.0019 1.42432 10.0692 1.42432C11.3043 1.42432 12.4475 1.79835 12.4475 4.51284C12.4475 5.51664 12.3524 6.40993 12.2686 7.19796C12.1856 7.97628 12.1088 8.70023 12.1309 9.40719C12.1309 9.40719 9.98007 9.15371 9.98007 7.53558C9.98007 6.48477 10.635 6.22911 10.635 4.51268ZM7.61293 34.2533C7.47458 34.2186 7.35508 34.1328 7.26285 34.0041C6.79506 34.7257 6.59781 35.3709 6.76981 35.95C7.48947 38.3798 9.63323 40.1743 12.2007 40.4133C9.7469 39.668 7.93089 37.1111 7.61293 34.2533ZM7.11051 32.8173C6.9559 32.7072 6.82353 32.6039 6.72936 32.5141C6.56528 33.1185 6.48955 33.758 6.51642 34.417C6.52167 34.5501 6.53122 34.6819 6.54441 34.8126C6.63939 34.4232 6.82637 34.0164 7.09441 33.6015C7.04255 33.3587 7.05072 33.0826 7.11051 32.8173ZM7.23146 32.4464C7.29627 32.2992 7.3775 32.1632 7.47418 32.0487C7.55193 31.957 7.63478 31.8842 7.72272 31.8302C7.95621 30.7419 8.44391 29.7725 9.15677 29.0399C8.09238 29.7967 7.27661 30.8755 6.84772 32.1276C6.90468 32.2056 7.05606 32.3234 7.23146 32.4464ZM16.4393 38.033C15.908 37.974 15.1971 37.8336 14.8868 37.7261C14.5404 37.6064 14.2322 37.3169 14.0628 36.9513C13.9927 36.8002 13.9292 36.5991 13.9191 36.3554C13.9134 36.2097 13.9273 36.0491 13.9699 35.8752C12.0219 35.281 9.95847 34.4559 8.52199 33.6888C8.47142 33.7814 8.41365 33.8674 8.34877 33.9441C8.24076 34.0719 8.1194 34.1646 7.99448 34.2175C8.12935 35.4128 8.5444 36.584 9.20532 37.6044C10.082 38.958 11.276 39.8857 12.5658 40.1778C13.0231 40.2807 13.6208 40.4094 14.1555 40.2909C16.1381 39.8519 17.7542 38.4805 18.5442 36.6765C18.4515 36.693 18.3476 36.7024 18.2358 36.7063C17.7836 38.0299 16.8322 38.0765 16.4393 38.033ZM18.6587 31.926C18.3696 31.1687 17.4031 30.6315 16.13 30.3432C13.7765 29.8111 10.685 30.69 8.71778 32.3451C8.79334 32.6469 8.77093 33.007 8.66948 33.3354C10.0869 34.0976 12.1484 34.9225 14.0933 35.5146C14.5511 34.4634 15.4275 34.2629 16.1109 34.4338C16.6006 34.556 16.9153 34.6201 17.1451 34.6662L17.3979 34.7196C17.7228 34.7956 18.0079 35.0115 18.1787 35.3123C18.2998 35.5247 18.4111 35.8608 18.3353 36.3236C18.5742 36.3096 18.6899 36.2696 18.7167 36.2379C18.9717 35.5103 19.096 34.7231 19.0625 33.9064C19.0346 33.2093 18.8939 32.5437 18.6587 31.926ZM14.4093 36.7904C14.5584 37.1124 14.8182 37.2986 15.0118 37.3652C15.2631 37.4524 15.9284 37.5921 16.481 37.6527C17.0872 37.7198 17.561 37.3826 17.8312 36.7011C17.6283 36.6895 17.4112 36.6657 17.1864 36.6345C17.1443 36.7716 17.0906 36.9084 17.0215 37.0298C16.9694 37.1215 16.853 37.1531 16.7613 37.1013C16.6697 37.0492 16.6377 36.9325 16.6899 36.8405C16.7357 36.76 16.7736 36.6686 16.805 36.5744C16.6865 36.5542 16.5673 36.5318 16.4492 36.509C16.4087 36.6673 16.3623 36.8177 16.3136 36.9303C16.2715 37.0269 16.1587 37.0708 16.062 37.0289C15.9652 36.9868 15.9214 36.8743 15.9634 36.7777C16.0028 36.6872 16.0405 36.5646 16.0753 36.4316C16.0133 36.418 15.952 36.4044 15.8914 36.3908C15.8272 36.3764 15.7615 36.3608 15.696 36.3451C15.6616 36.4557 15.6211 36.5708 15.5719 36.6873C15.5311 36.7844 15.4185 36.8298 15.3215 36.7889C15.2245 36.7481 15.1787 36.6358 15.2198 36.5389C15.2609 36.4428 15.295 36.347 15.3241 36.2548C15.0023 36.1731 14.6717 36.0824 14.3365 35.9846C14.2556 36.3362 14.3258 36.6112 14.4093 36.7904ZM17.9474 36.3235C18.0257 35.9358 17.9409 35.6658 17.8468 35.5009C17.7287 35.2925 17.5329 35.1433 17.3115 35.0914L17.0694 35.0404C16.849 34.9959 16.5166 34.9283 16.0185 34.804C15.3514 34.6374 14.7791 34.9429 14.4629 35.6242C14.7879 35.7187 15.108 35.806 15.4198 35.885C15.4701 35.6424 15.4808 35.4741 15.4808 35.4711C15.4873 35.366 15.5776 35.2857 15.6829 35.2918C15.788 35.298 15.8684 35.3879 15.8621 35.4935C15.8614 35.5072 15.8491 35.7002 15.7912 35.9756C15.8529 35.9901 15.9148 36.0047 15.9755 36.0183C16.038 36.0326 16.0997 36.0463 16.1601 36.059C16.2144 35.7906 16.2495 35.5624 16.2504 35.5578C16.2662 35.4536 16.3636 35.3821 16.4676 35.3979C16.5722 35.4134 16.6437 35.5108 16.6282 35.6152C16.6254 35.6336 16.59 35.862 16.534 36.1359C16.662 36.1609 16.7833 36.1827 16.8985 36.2023C16.9408 35.9708 16.9511 35.7866 16.9511 35.7832C16.9562 35.678 17.0461 35.5968 17.1513 35.602C17.2568 35.607 17.3381 35.6965 17.3327 35.8015C17.3319 35.8172 17.3216 36.0106 17.2763 36.2595C17.5409 36.2954 17.763 36.315 17.9474 36.3235ZM8.119 32.0324C8.03437 32.017 7.86641 32.0182 7.69861 32.2006C7.43283 32.4887 7.30808 32.8791 7.32725 33.36C7.33259 33.4827 7.34974 33.5514 7.38445 33.6502C7.44643 33.825 7.59529 33.9405 7.70403 33.9603C7.83332 33.984 7.97927 33.9083 8.11552 33.7471C8.41317 33.3939 8.54157 32.7463 8.39553 32.3331C8.33485 32.1609 8.23688 32.054 8.119 32.0324Z" fill="#001C58"/>
<path d="M3.18056 39.6551C3.66219 39.9728 4.17222 40.2585 4.17222 40.2585L3.99366 40.7212C3.92699 40.4408 3.64892 40.2887 3.2901 40.0666L2.11535 41.7653C1.97191 41.9701 1.69222 42.4186 1.66964 42.5933C1.66964 42.5933 1.47684 42.4709 1.30087 42.3399C1.11698 42.2026 0.942139 42.0755 0.942139 42.0755C1.11722 42.033 1.41956 41.5869 1.60192 41.3397L2.7448 39.709C2.31673 39.378 2.14966 39.3132 1.84715 39.2974L2.25394 38.9924C2.25419 38.9927 2.64512 39.3021 3.18056 39.6551Z" fill="white"/>
<path d="M21.7959 45.4094L21.8313 45.4483C21.7981 45.4466 21.7705 45.4637 21.7349 45.4838L21.838 45.6819C21.8582 45.7186 21.8866 45.7743 21.9052 45.7784C21.9052 45.7784 21.8832 45.7909 21.8569 45.8042C21.8338 45.8156 21.812 45.8245 21.812 45.8245C21.8123 45.7998 21.8043 45.7802 21.7768 45.7239L21.6689 45.516C21.6327 45.5343 21.593 45.5522 21.5825 45.5817L21.5734 45.5242C21.5734 45.5242 21.6266 45.4983 21.6842 45.4686C21.751 45.4341 21.7959 45.4094 21.7959 45.4094Z" fill="white"/>
<path d="M3.94087 43.8688C3.12486 43.4794 3.01644 42.5802 3.41822 41.7386C3.82178 40.8935 4.59103 40.4178 5.40332 40.806C6.21529 41.1937 6.32969 42.0907 5.92581 42.9361C5.52395 43.7777 4.75681 44.2584 3.94087 43.8688ZM5.2865 41.0499C4.76473 40.8009 4.35446 41.3902 4.04508 42.0382C3.73569 42.6861 3.53335 43.3801 4.05519 43.6292C4.57703 43.878 4.98941 43.2846 5.29887 42.6367C5.60826 41.9888 5.80834 41.2989 5.2865 41.0499Z" fill="white"/>
<path d="M7.59234 41.6751C8.1442 41.8309 8.59331 41.9352 8.59331 41.9352L8.54549 42.4291C8.3976 42.2154 8.32972 42.1633 7.85868 42.0432L7.28757 43.9634C7.24178 44.1392 7.01387 44.8041 7.08692 44.9292C7.08692 44.9292 6.92835 44.8954 6.67228 44.8244C6.38442 44.7446 6.24915 44.6906 6.24915 44.6906C6.3968 44.5935 6.58256 44.0251 6.64332 43.794L7.21726 41.861C6.72924 41.6982 6.61581 41.6869 6.38264 41.7952L6.66549 41.374C6.66541 41.3742 6.98401 41.5027 7.59234 41.6751Z" fill="white"/>
<path d="M9.86882 42.1852C10.4128 42.2674 10.9251 42.3138 10.9251 42.3138L10.9457 42.8095C10.7424 42.6287 10.6659 42.5702 10.1289 42.5025L9.81793 44.4744C9.79609 44.6551 9.68047 45.341 9.76987 45.4548C9.76987 45.4548 9.58153 45.4338 9.32141 45.3975C9.0613 45.3605 8.90151 45.324 8.90151 45.324C9.02853 45.2247 9.13412 44.5753 9.1562 44.3944L9.47481 42.398C9.00952 42.3051 8.91389 42.3408 8.69043 42.4704L8.89302 42.0015C8.89302 42.0015 9.32756 42.1035 9.86882 42.1852Z" fill="white"/>
<path d="M11.8856 44.06L11.8447 45.3852C12.5395 45.3944 13.0152 45.3504 13.227 45.049L13.1207 45.6511C13.1207 45.6511 12.7359 45.6588 12.1723 45.6511C11.5529 45.6422 11.0668 45.6018 11.0668 45.6018C11.1698 45.4997 11.1954 44.8539 11.1966 44.6724L11.2533 43.3718C11.2558 43.0255 11.2873 42.4658 11.1711 42.3481C11.6745 42.3829 11.6104 42.3823 12.0727 42.4003C12.678 42.4244 13.0208 42.4063 13.0208 42.4063L13.0969 42.9035C12.8606 42.7062 12.5063 42.6831 11.9279 42.6797L11.8961 43.7919L12.7844 43.797C12.8644 43.7979 12.8694 43.8425 12.8692 43.9316C12.8682 44.0194 12.867 44.0662 12.7826 44.0653L11.8856 44.06Z" fill="white"/>
<path d="M15.7657 44.4588C15.8169 44.941 15.8678 45.2874 15.9778 45.3507C15.9503 45.4005 15.8631 45.466 15.7474 45.4783C15.6081 45.4932 15.5028 45.4245 15.406 45.3127L13.8309 43.5058L13.8901 44.6554C13.9092 44.836 13.93 45.5209 14.0424 45.6123L13.5176 45.6362C13.6089 45.5233 13.5847 44.8708 13.5652 44.6897L13.4911 43.3924C13.4719 43.2116 13.4381 42.4941 13.3252 42.4034L13.8065 42.386L15.4208 44.3034L15.2865 43.2002C15.2673 43.0188 15.169 42.3614 15.0604 42.27C15.0604 42.27 15.1184 42.2644 15.3143 42.2378C15.5099 42.2113 15.5811 42.197 15.5811 42.197C15.4904 42.3101 15.5957 42.9846 15.6152 43.1655L15.7657 44.4588Z" fill="white"/>
<path d="M18.7252 43.7752C18.7811 43.9995 18.8921 44.5757 19.0567 44.6884C19.0567 44.6884 18.8076 44.7606 18.6553 44.8074C18.5197 44.849 18.2211 44.9265 18.2211 44.9265C18.2915 44.802 18.1346 44.1105 18.0912 43.9379L17.9414 43.3362L16.9405 43.5816L17.0543 44.1935C17.0871 44.3914 17.1914 45.057 17.3264 45.1383C17.3264 45.1383 17.1864 45.1672 16.8947 45.2271C16.6503 45.2774 16.4802 45.3042 16.4802 45.3042C16.5552 45.1797 16.4547 44.5624 16.4236 44.3655L16.1811 43.0718C16.1368 42.8308 16.0255 42.2207 15.8916 42.1494C15.8916 42.1494 16.0215 42.1248 16.3073 42.0692C16.5932 42.0135 16.7333 41.9756 16.7333 41.9756C16.663 42.1204 16.7871 42.7057 16.8208 42.9108L16.8978 43.3214L17.8828 43.0812L17.7765 42.6618C17.7187 42.4396 17.5964 41.9064 17.4596 41.8074C17.4596 41.8074 17.5947 41.7684 17.8688 41.6905C18.1429 41.6131 18.2611 41.5688 18.2611 41.5688C18.2067 41.7167 18.3591 42.236 18.4223 42.5037L18.7252 43.7752Z" fill="white"/>
<path d="M20.5538 43.0084L19.5771 43.3909L19.611 43.9272C19.6328 44.1103 19.6335 44.2785 19.6735 44.3733C19.6932 44.4204 19.727 44.4516 19.7593 44.4684C19.7593 44.4684 19.6573 44.5054 19.4896 44.5598C19.3217 44.6141 19.2295 44.6408 19.2295 44.6408C19.2881 44.5398 19.3021 44.4008 19.2971 44.2273L19.211 41.6847C19.2029 41.5923 19.1919 41.5057 19.1612 41.4331C19.134 41.3683 19.0882 41.3319 19.0563 41.3047C19.1675 41.2327 19.3067 41.1537 19.4482 41.0943C19.6725 40.9997 19.7672 41.0035 19.9309 41.1944L21.3637 42.9715C21.6243 43.3107 21.8546 43.5389 22.0045 43.5844C22.0045 43.5844 21.858 43.6519 21.5826 43.7746C21.3072 43.8969 21.125 43.9664 21.125 43.9664C21.1412 43.9089 21.1432 43.8479 21.1072 43.7563C21.0689 43.6573 20.9279 43.4899 20.837 43.3628L20.5538 43.0084ZM20.3765 42.7979L19.5086 41.5953L19.5698 43.1057L20.3765 42.7979Z" fill="white"/>
<path d="M24.6459 42.0865C24.4494 42.2189 24.3023 42.3203 24.3023 42.3203C24.2879 42.1269 23.9147 41.649 23.8051 41.5039L22.9633 40.406L23.6404 42.5706C23.6141 42.6136 23.5662 42.6737 23.5214 42.7074C23.3879 42.809 23.2579 42.789 23.1392 42.6955L21.5363 41.3668L22.0973 42.4001C22.2345 42.6617 22.499 43.2063 22.6771 43.26C22.6771 43.26 22.5664 43.3191 22.4263 43.387C22.2872 43.4543 22.2022 43.4938 22.2022 43.4938C22.2332 43.3418 21.9728 42.8899 21.8212 42.6006L21.1969 41.4264C21.0075 41.0732 20.7986 40.7135 20.6193 40.6418C20.758 40.5745 20.7999 40.5539 20.9985 40.4559C21.164 40.3743 21.31 40.2944 21.31 40.2944L23.1145 41.8295L22.4047 39.6561C22.4047 39.6561 22.4998 39.5916 22.6803 39.4712C22.8602 39.3507 23.0225 39.231 23.0225 39.231C23.0362 39.4253 23.412 39.9209 23.5489 40.0983L24.326 41.0982C24.4908 41.3039 24.799 41.762 25.0184 41.8145C25.0183 41.8143 24.8426 41.9534 24.6459 42.0865Z" fill="white"/>
<path d="M22.1971 45.3122L22.2857 45.4257C22.3116 45.4574 22.3379 45.4964 22.3657 45.5082C22.3657 45.5082 22.3426 45.5247 22.3201 45.5399C22.2977 45.5547 22.2811 45.5664 22.2811 45.5664C22.275 45.5358 22.2373 45.4884 22.225 45.4718L22.1309 45.3474L22.208 45.593C22.2048 45.5981 22.1995 45.6048 22.1942 45.6084C22.1741 45.6239 22.1592 45.6151 22.1457 45.6043L21.96 45.4561L22.0325 45.5735C22.0497 45.604 22.0809 45.6599 22.1055 45.6713C22.1055 45.6713 22.0918 45.6795 22.0751 45.6892C22.0606 45.6978 22.0463 45.7051 22.0463 45.7051C22.0497 45.6754 22.0123 45.6169 22.001 45.5967L21.9215 45.4634C21.9032 45.4331 21.8745 45.3888 21.8488 45.3812C21.8488 45.3812 21.8738 45.3682 21.8982 45.3546C21.9135 45.3462 21.9289 45.3362 21.9382 45.3311L22.1436 45.502L22.0645 45.2584C22.0721 45.2549 22.084 45.2476 22.1025 45.2362C22.1262 45.2218 22.1458 45.2085 22.1458 45.2085C22.1457 45.2383 22.1801 45.2893 22.1971 45.3122Z" fill="white"/>
<path d="M6.17807 46.0385C6.3453 46.0999 6.56108 46.1747 6.56108 46.1747C6.37937 46.3065 6.21246 46.8304 6.10412 47.115L5.68503 48.2777C5.5729 48.5934 5.38164 49.0509 5.44571 49.2141C5.44571 49.2141 5.21513 49.1345 5.02856 49.0682C4.86894 49.0112 4.77832 48.9809 4.60923 48.9086C4.81465 48.8541 5.00834 48.1709 5.07128 47.999L5.26311 47.4563L4.25867 47.0375L3.96821 47.6582C3.87364 47.8739 3.64742 48.3621 3.70123 48.515C3.70123 48.515 3.5238 48.4426 3.26409 48.3232C2.95819 48.1824 2.8916 48.1451 2.8916 48.1451C3.10713 48.0391 3.2348 47.6912 3.39888 47.3396L3.92412 46.1764C4.10163 45.7781 4.2619 45.433 4.24985 45.2061C4.24985 45.2061 4.34362 45.262 4.60195 45.3781C4.80777 45.4706 4.91287 45.5169 5.0284 45.5632C4.86489 45.6282 4.63738 46.2152 4.51732 46.4785L4.36344 46.8072L5.34466 47.2114L5.49515 46.8388C5.56562 46.6485 5.80898 46.0797 5.75647 45.8849C5.75647 45.8849 5.95785 45.9581 6.17807 46.0385Z" fill="white"/>
<path d="M7.31267 49.8123C6.43791 49.5822 6.15976 48.7352 6.39172 47.8528C6.62489 46.9656 7.28734 46.3711 8.15781 46.6004C9.02787 46.8291 9.31193 47.6727 9.07908 48.5598C8.8468 49.4425 8.18758 50.0423 7.31267 49.8123ZM8.09057 46.856C7.53144 46.709 7.2426 47.3499 7.0638 48.0296C6.88451 48.7087 6.82003 49.4138 7.37885 49.5611C7.93799 49.7078 8.22836 49.0623 8.407 48.383C8.58612 47.7036 8.64955 47.0033 8.09057 46.856Z" fill="white"/>
<path d="M9.68209 50.1245C9.68209 50.1245 9.73775 50.0643 9.7757 49.9417C9.82918 49.7695 9.86356 49.4383 9.90474 49.1801L10.1496 47.2863C9.62788 47.2208 9.49536 47.2584 9.26624 47.3941L9.4812 46.9092C9.64366 46.9452 10.0037 46.9841 10.4416 47.0394C10.7347 47.076 11.6076 47.1548 11.6076 47.1548L11.6373 47.6398C11.4448 47.4171 11.245 47.3969 10.8102 47.3627L10.5662 49.2628C10.5444 49.4398 10.4473 50.0535 10.5436 50.2352C10.4386 50.2233 10.2649 50.2036 10.1191 50.1891C9.96785 50.1737 9.76898 50.1393 9.68209 50.1245Z" fill="white"/>
<path d="M13.8401 49.4668C13.8461 50.037 13.3824 50.4497 12.6691 50.4392C12.1144 50.4312 11.8244 50.2029 11.7134 50.11L11.8288 49.5689C12.001 49.9138 12.2864 50.1643 12.6078 50.1694C12.9435 50.1741 13.2076 49.9765 13.213 49.6439C13.2165 49.402 13.0834 49.256 12.5235 48.9646C11.9868 48.6875 11.7871 48.4109 11.7871 47.9987C11.7871 47.4374 12.2753 47.1523 12.849 47.1521C13.2708 47.1517 13.5651 47.281 13.7499 47.3798L13.6308 47.8756C13.3749 47.5337 13.1431 47.4072 12.8637 47.4033C12.5885 47.3988 12.3935 47.5489 12.3953 47.8318C12.3972 48.1401 12.7364 48.3068 13.1937 48.5622C13.7196 48.8565 13.8369 49.1515 13.8401 49.4668Z" fill="white"/>
<path d="M16.4373 47.7204C16.4577 47.7873 16.4699 47.8686 16.4762 47.9324C16.4816 47.9913 16.4845 48.0692 16.4775 48.143C16.4624 48.3278 16.3747 48.5425 16.2297 48.6935C16.0083 48.9248 15.7195 49.0398 15.3368 49.0577C15.1892 49.0668 15.1539 49.0217 15.144 48.9152L15.1431 48.892C15.1431 48.892 15.14 48.8508 15.1722 48.8487L15.2092 48.845C15.3223 48.8309 15.4901 48.7956 15.6247 48.6319C15.7538 48.4635 15.7979 48.2397 15.7754 47.9988C15.7515 47.7486 15.6763 47.5684 15.5081 47.4389C15.3621 47.3266 15.1905 47.2902 15.0138 47.3042C15.0138 47.3042 14.943 47.3101 14.8643 47.3226C14.8643 47.3226 14.8183 47.3267 14.8222 47.3718L15.0118 49.336C15.0282 49.5089 15.0753 50.1175 15.2172 50.2431C15.2172 50.2431 15.0557 50.2602 14.7516 50.2852C14.5197 50.3041 14.3389 50.3088 14.3389 50.3088C14.3999 50.1581 14.3898 49.9352 14.3746 49.6757L14.2277 48.1268C14.2109 47.9495 14.181 47.3419 14.0365 47.1919C14.0365 47.1919 14.4253 47.1343 15.1445 47.0664C15.5206 47.0308 15.8287 47.0787 16.0945 47.2585C16.2685 47.3756 16.388 47.5462 16.4373 47.7204Z" fill="white"/>
<path d="M19.3803 48.3537C19.5342 49.0344 19.2147 49.614 18.5063 49.7912C18.0086 49.9156 17.2918 49.733 17.0918 48.8598L16.8481 47.8288C16.7839 47.5402 16.679 47.0292 16.5116 46.8961C16.5116 46.8961 16.6987 46.8696 16.9918 46.8149C17.2847 46.7602 17.4208 46.7276 17.4208 46.7276C17.3439 46.8489 17.4247 47.3266 17.5012 47.6775L17.8122 48.988C17.8677 49.2282 17.9461 49.3926 18.0808 49.4895C18.1806 49.5617 18.3139 49.5814 18.4528 49.556C18.5792 49.5325 18.7108 49.4611 18.7796 49.3331C18.8526 49.1988 18.8523 49.0045 18.796 48.7646L18.4469 47.4541C18.3514 47.0933 18.2414 46.6418 18.1232 46.5662C18.1232 46.5662 18.2655 46.5276 18.535 46.4505C18.7392 46.3924 18.8605 46.357 18.9487 46.3259C18.8681 46.5232 19.06 47.1282 19.1006 47.3013L19.3803 48.3537Z" fill="white"/>
<path d="M22.561 48.0852C22.6296 48.1115 22.7036 48.1295 22.7656 48.1031C22.7585 48.1459 22.7184 48.2312 22.6512 48.3001C22.3647 48.5937 22.096 48.5432 22.0049 48.5072C21.511 48.3188 20.685 47.5869 20.6511 47.5069C20.6511 47.5069 20.6426 47.4861 20.664 47.4772L20.6939 47.464C20.8229 47.4103 20.9693 47.2645 21.027 47.1265C21.1193 46.9242 21.1037 46.7425 21.01 46.52C20.9129 46.2887 20.743 46.1429 20.6099 46.1037C20.413 46.0455 20.2661 46.0917 20.1766 46.1274C20.1766 46.1274 20.0584 46.1738 20.0232 46.2093C20.0232 46.2093 19.9995 46.2289 20.0271 46.3094L20.6511 48.0916C20.7459 48.3537 20.9105 48.8651 21.0597 48.9513C21.0597 48.9513 20.8911 49.0175 20.6355 49.1099C20.3799 49.2023 20.2244 49.2452 20.2244 49.2452C20.2765 49.0462 20.0795 48.5051 20.03 48.3533L19.6265 47.1499C19.5256 46.8598 19.3415 46.3399 19.1915 46.2567C19.1915 46.2567 19.4861 46.1742 20.1482 45.8961C20.5004 45.7482 20.8415 45.6849 21.1494 45.7751C21.3362 45.83 21.4624 45.9238 21.5657 46.0734C21.6052 46.1314 21.6342 46.1882 21.6593 46.2471C21.6822 46.3019 21.6981 46.3648 21.7085 46.4232C21.7411 46.6051 21.7138 46.7984 21.6086 46.9808C21.6086 46.9808 21.5138 47.1645 21.3113 47.3086C21.311 47.3083 21.9614 47.8593 22.561 48.0852Z" fill="white"/>
</svg>
