<svg width="35.25" height="39" viewBox="0 0 47 52" fill="none" xmlns="http://www.w3.org/2000/svg">
<mask id="mask0_1_2702" style="mask-type:luminance" maskUnits="userSpaceOnUse" x="-39" y="-38" width="125" height="125">
<path d="M-38.8977 86.8135H85.5409V-37.624H-38.8977V86.8135Z" fill="white"/>
</mask>
<g mask="url(#mask0_1_2702)">
<path d="M46.2145 1.923V1.9199C39.2988 0.868399 31.586 0.281309 23.4523 0.281309C15.3187 0.281309 7.60571 0.868399 0.690186 1.9199V1.95729L0.690776 20.9148C0.695211 36.9694 10.0043 45.9985 23.0822 50.7987L23.4539 50.918L23.4551 50.9185L23.8262 50.7987C36.9043 45.9985 46.2124 36.9694 46.2173 20.9148V1.96129V1.923H46.2145ZM23.4539 24.7208L23.4492 24.7161L23.4786 24.7455L23.4539 24.7208Z" fill="#2DAFE5"/>
<path d="M44.6424 3.49478V3.49183C38.2046 2.51305 31.0242 1.96646 23.4524 1.96646C15.8805 1.96646 8.70026 2.51305 2.26245 3.49183V3.52671L2.26304 21.4922C2.26703 36.4381 10.9333 44.8437 23.1078 49.3124L23.4539 49.4234L23.455 49.4238L23.8005 49.3124C35.9754 44.8437 44.6405 36.4381 44.6451 21.4922V3.53055V3.49478H44.6424Z" fill="#7C2C3B"/>
<path d="M33.9122 41.1774C34.2476 41.5134 34.7846 41.1578 35.3352 40.6075C35.8855 40.0571 36.241 39.5201 35.9053 39.1841L14.8919 18.6996C14.5562 18.3635 13.9561 18.4197 13.5517 18.8241C13.1473 19.2285 13.0915 19.8284 13.427 20.1641L33.9122 41.1774Z" fill="#D6A93A"/>
<path d="M15.5438 18.3867L17.2625 16.3651C17.2625 16.3651 17.4248 16.1489 17.1723 15.8417C16.5094 15.0348 15.1802 13.8577 15.1802 13.8577C14.9883 13.7137 14.8577 13.7488 14.6448 13.9532C13.5926 14.962 10.915 17.5496 10.7539 17.7174C10.5514 17.926 10.4586 18.0665 10.5233 18.4241C10.5884 18.7846 10.7804 19.3839 10.4488 19.9656L8.6395 22.8131C8.41291 23.1606 8.34684 23.4678 8.51785 23.6347C8.60935 23.7243 8.83919 23.8281 9.30641 23.5038C9.53005 23.3489 11.9902 21.6927 12.7741 21.0478C13.2334 20.67 13.5838 20.3264 13.5838 20.3264L15.0686 18.8703C15.0686 18.8703 15.3811 18.5635 15.5438 18.3867Z" fill="#F8D742"/>
<path d="M9.31808 23.3212C8.8043 23.6692 8.80578 23.7202 8.87746 23.7106C8.99083 23.6856 9.13199 23.6247 9.30641 23.5035C9.52974 23.3486 11.99 21.6926 12.774 21.0476C13.0978 20.7814 13.3669 20.5323 13.4977 20.4083C13.0931 20.4942 12.5774 20.6911 12.2645 20.9524C11.8446 21.3033 10.0533 22.8227 9.31808 23.3212Z" fill="#D6A93A"/>
<path d="M15.5435 18.3867L17.2623 16.3651C17.2623 16.3651 17.3621 16.2306 17.2817 16.0237C17.2817 16.0237 17.1401 15.8638 16.6446 16.4418C16.228 16.9277 16.0311 17.1173 15.68 17.5371C15.4093 17.8609 15.2087 18.4013 15.1277 18.8118C15.2261 18.7144 15.4246 18.516 15.5435 18.3867Z" fill="#D6A93A"/>
<path d="M13.0413 41.1774C12.7061 41.5134 12.1689 41.1578 11.6182 40.6075C11.068 40.0571 10.7126 39.5201 11.0482 39.1841L32.0696 18.6917C32.4051 18.3557 33.0052 18.4117 33.4098 18.8161C33.8142 19.2207 33.87 19.8206 33.5344 20.1561L13.0413 41.1774Z" fill="#D6A93A"/>
<path d="M12.8369 40.9755L32.4504 20.8338C32.7861 20.4982 32.7302 19.8982 32.3258 19.494C32.1143 19.2823 31.8496 19.1672 31.5968 19.1524L11.0482 39.1843C10.728 39.5047 11.0369 40.0081 11.5438 40.5317C12.0479 41.0076 12.5282 41.285 12.8369 40.9755Z" fill="#F8D742"/>
<path d="M31.4177 18.3786L29.6991 16.3571C29.6991 16.3571 29.5368 16.1408 29.789 15.8337C30.452 15.0268 31.7811 13.8497 31.7811 13.8497C31.9733 13.7057 32.1041 13.7407 32.3167 13.9451C33.3689 14.9539 36.0463 17.5416 36.2076 17.7093C36.4101 17.9179 36.503 18.0585 36.438 18.416C36.3731 18.7765 36.181 19.3759 36.5126 19.9575L38.322 22.805C38.5484 23.1525 38.6146 23.4598 38.4438 23.6267C38.3521 23.7162 38.1226 23.82 37.6551 23.4957C37.4316 23.3408 34.9714 21.6846 34.1873 21.0397C33.7281 20.6619 33.3776 20.3183 33.3776 20.3183L31.893 18.8622C31.893 18.8622 31.5804 18.5554 31.4177 18.3786Z" fill="#F8D742"/>
<path d="M37.6435 23.3133C38.1571 23.6614 38.1558 23.7124 38.0839 23.7028C37.9706 23.6778 37.8294 23.6169 37.6551 23.4957C37.4318 23.3408 34.9715 21.6847 34.1875 21.0398C33.8637 20.7736 33.5945 20.5245 33.4639 20.4005C33.8684 20.4864 34.384 20.6833 34.697 20.9446C35.1168 21.2955 36.9081 22.8149 37.6435 23.3133Z" fill="#D6A93A"/>
<path d="M31.4178 18.3786L29.6992 16.3571C29.6992 16.3571 29.5993 16.2226 29.6797 16.0156C29.6797 16.0156 29.8213 15.8557 30.3168 16.4338C30.7333 16.9196 30.9305 17.1092 31.2812 17.529C31.5522 17.8529 31.7527 18.3933 31.8339 18.8037C31.7353 18.7063 31.5368 18.5079 31.4178 18.3786Z" fill="#D6A93A"/>
<path d="M34.7282 18.9646C34.5662 19.1264 34.3037 19.1264 34.1417 18.9646L33.2614 18.0838C33.0994 17.9222 33.0994 17.6596 33.2615 17.4979C33.4235 17.3356 33.6859 17.3356 33.8479 17.4976L34.7282 18.3781C34.8904 18.5398 34.8904 18.8024 34.7282 18.9646Z" fill="#D6A93A"/>
<path d="M33.3796 18.0839C33.2178 17.9222 33.2178 17.6597 33.3798 17.4978C33.4455 17.4318 33.5283 17.3932 33.6137 17.3809C33.489 17.363 33.3574 17.4016 33.2615 17.4978C33.0994 17.6597 33.0994 17.9222 33.2614 18.0839L34.1417 18.9647C34.2379 19.0608 34.3692 19.0993 34.4941 19.0814C34.4085 19.069 34.3259 19.0305 34.26 18.9647L33.3796 18.0839Z" fill="#CDA938"/>
<path d="M33.7669 18.407C33.7493 18.4241 33.7211 18.4244 33.7035 18.407C33.6861 18.3892 33.6861 18.361 33.7035 18.3434L34.1072 17.9397C34.1249 17.9221 34.1531 17.922 34.1706 17.9394C34.188 17.9572 34.188 17.9853 34.1706 18.003L33.7669 18.407Z" fill="#D6A93A"/>
<path d="M33.9003 18.5411C33.8833 18.5585 33.8554 18.5587 33.8378 18.5411C33.8205 18.5241 33.8208 18.4958 33.8378 18.4787C33.8551 18.4617 33.8832 18.4614 33.9005 18.4787C33.9178 18.496 33.9178 18.5241 33.9003 18.5411Z" fill="#D6A93A"/>
<path d="M33.623 18.2641C33.6061 18.281 33.5777 18.2812 33.5607 18.2641C33.5436 18.2468 33.5436 18.2187 33.5605 18.2017C33.5777 18.1844 33.606 18.1844 33.623 18.2017C33.6404 18.2187 33.6403 18.2468 33.623 18.2641Z" fill="#D6A93A"/>
<path d="M33.9486 17.7175L33.8102 17.579C33.7926 17.5616 33.7641 17.5617 33.7466 17.5793C33.7291 17.5971 33.7291 17.6252 33.7466 17.6427L33.7687 17.6649C33.7767 17.6732 33.7769 17.6859 33.7696 17.6946L33.412 18.052C33.3946 18.0698 33.3946 18.0983 33.412 18.1154C33.4296 18.133 33.4581 18.133 33.4756 18.1157L33.8343 17.7569C33.8429 17.7508 33.8547 17.7514 33.8625 17.7588L33.8848 17.7811C33.9026 17.7987 33.9311 17.7984 33.9486 17.7811C33.966 17.7635 33.9663 17.7354 33.9486 17.7175Z" fill="#D6A93A"/>
<path d="M34.6877 18.4625C34.6733 18.4424 34.6451 18.4379 34.6249 18.4526L34.3907 18.6221C34.3813 18.6296 34.3674 18.6289 34.3587 18.6199C34.351 18.6123 34.3495 18.6008 34.3541 18.5916L34.402 18.4956C34.4099 18.4798 34.4073 18.4611 34.3969 18.4478C34.3966 18.4477 34.3965 18.4474 34.3965 18.4474C34.3958 18.4466 34.3953 18.4455 34.3944 18.445C34.394 18.4446 34.3935 18.444 34.3932 18.4435C34.3927 18.4431 34.3922 18.4427 34.3919 18.4422C34.3912 18.4419 34.3906 18.441 34.3895 18.4404C34.3895 18.4404 34.3891 18.4403 34.389 18.44C34.3757 18.4298 34.3573 18.4271 34.3412 18.4351L34.2454 18.4827C34.2361 18.4876 34.2244 18.486 34.2169 18.4783C34.2082 18.4693 34.2074 18.4557 34.2145 18.4462L34.3844 18.2119C34.399 18.1917 34.3944 18.1639 34.3745 18.1491C34.3542 18.1345 34.3263 18.1391 34.3119 18.1592L33.9767 18.6215C33.9639 18.6392 33.9661 18.6633 33.9806 18.6786C33.9812 18.6791 33.9819 18.6799 33.9825 18.6808C33.9825 18.6808 33.9829 18.6809 33.9834 18.6811C33.9965 18.6933 34.0162 18.6969 34.0335 18.6882L34.1978 18.6064C34.207 18.6023 34.2179 18.6039 34.2253 18.6114C34.2333 18.6194 34.2345 18.6313 34.2293 18.6406L34.1486 18.8035C34.1399 18.8204 34.1436 18.8403 34.1556 18.8537C34.1557 18.854 34.1563 18.8544 34.1563 18.8544C34.1569 18.855 34.1576 18.8555 34.1581 18.8562C34.1735 18.871 34.1977 18.8731 34.2156 18.8599L34.6778 18.525C34.6977 18.5106 34.7023 18.4824 34.6877 18.4625Z" fill="#D6A93A"/>
<path d="M15.4836 19.2764C15.2286 19.2709 14.9528 19.3794 14.7367 19.5953C14.3609 19.9714 14.3088 20.5292 14.6208 20.8412L23.018 29.4458L24.4469 28.0169L15.4836 19.2764Z" fill="#F8D742"/>
<path d="M35.9053 39.1843L25.3123 28.8606C25.146 28.9348 24.9902 29.0397 24.8536 29.1761C24.3023 29.7275 24.2593 30.5944 24.724 31.1953L34.1987 40.91C34.5104 41.2224 35.0095 40.8916 35.5215 40.3802C35.608 40.2936 35.6892 40.2076 35.7629 40.1226C36.0359 39.7541 36.1404 39.4199 35.9053 39.1843Z" fill="#F8D742"/>
<path d="M33.7476 18.3877C33.7302 18.4048 33.702 18.4051 33.6842 18.3877C33.6668 18.3699 33.6668 18.3415 33.6842 18.3241L34.0879 17.9204C34.1056 17.9029 34.1339 17.9027 34.1514 17.9201C34.1689 17.9377 34.1689 17.966 34.1514 17.9837L33.7476 18.3877Z" fill="#F8D742"/>
<path d="M33.8809 18.5216C33.8639 18.5388 33.836 18.5392 33.8185 18.5216C33.8012 18.5045 33.8015 18.4764 33.8185 18.4591C33.8358 18.4421 33.8638 18.442 33.881 18.4591C33.8983 18.4766 33.8983 18.5045 33.8809 18.5216Z" fill="#F8D742"/>
<path d="M33.6036 18.2446C33.5866 18.2614 33.5585 18.2617 33.5414 18.2446C33.5242 18.2273 33.5244 18.1992 33.5412 18.1821C33.5585 18.1649 33.5866 18.1649 33.6036 18.1821C33.6211 18.1992 33.6209 18.2273 33.6036 18.2446Z" fill="#F8D742"/>
<path d="M33.9292 17.698L33.791 17.5595C33.7734 17.5422 33.7447 17.5423 33.7272 17.5598C33.7097 17.5775 33.7097 17.6056 33.7272 17.6232L33.7493 17.6454C33.7573 17.6538 33.7575 17.6664 33.7502 17.6751L33.3926 18.0326C33.3753 18.0502 33.3753 18.0787 33.3926 18.096C33.4102 18.1135 33.4387 18.1135 33.4563 18.0962L33.8149 17.7373C33.8236 17.7312 33.8354 17.7318 33.8433 17.7392L33.8656 17.7615C33.8832 17.7791 33.9117 17.7788 33.9292 17.7615C33.9467 17.7441 33.9469 17.7159 33.9292 17.698Z" fill="#F8D742"/>
<path d="M34.6681 18.4431C34.6538 18.4231 34.6257 18.4185 34.6054 18.4332L34.3713 18.6027C34.3617 18.6102 34.3478 18.6095 34.3392 18.6005C34.3314 18.5931 34.3299 18.5814 34.3346 18.5723L34.3824 18.4762C34.3904 18.4604 34.3877 18.4417 34.3775 18.4286C34.3772 18.4284 34.3769 18.428 34.3769 18.428C34.3762 18.4271 34.3757 18.4262 34.3748 18.4256C34.3745 18.425 34.3741 18.4246 34.3737 18.4242C34.3731 18.4239 34.3728 18.4236 34.3723 18.423C34.3716 18.4225 34.371 18.4216 34.37 18.421C34.37 18.421 34.3695 18.4209 34.3694 18.4206C34.3561 18.4104 34.3377 18.4077 34.3216 18.4157L34.2258 18.4635C34.2165 18.4683 34.205 18.4666 34.1975 18.4589C34.1887 18.45 34.188 18.4363 34.195 18.427L34.3648 18.1925C34.3794 18.1726 34.3748 18.1444 34.355 18.1297C34.3348 18.1152 34.3067 18.1197 34.2925 18.1398L33.9571 18.6023C33.9444 18.6199 33.9465 18.6439 33.961 18.6592C33.9616 18.6598 33.9623 18.6605 33.963 18.6614C33.963 18.6614 33.9633 18.6615 33.9638 18.6618C33.9769 18.6741 33.9967 18.6775 34.0139 18.6688L34.1784 18.587C34.1874 18.583 34.1985 18.5847 34.2059 18.5922C34.2137 18.6 34.2151 18.6119 34.2099 18.6213L34.129 18.7842C34.1205 18.8011 34.124 18.8209 34.1361 18.8343C34.1363 18.8348 34.1367 18.8349 34.1367 18.8352C34.1373 18.8358 34.138 18.8361 34.1386 18.8368C34.154 18.8518 34.1782 18.8537 34.196 18.8408L34.6583 18.5057C34.6783 18.4913 34.6827 18.463 34.6681 18.4431Z" fill="#F8D742"/>
<path d="M13.7 17.5057C13.8619 17.6677 13.8619 17.9302 13.7 18.0922L12.8194 18.9725C12.6577 19.1345 12.395 19.1345 12.2333 18.9724C12.071 18.8104 12.071 18.548 12.233 18.386L13.1135 17.5057C13.2752 17.3435 13.5379 17.3435 13.7 17.5057Z" fill="#D6A93A"/>
<path d="M12.3068 18.4599L13.1873 17.5795C13.3368 17.4301 13.5715 17.4188 13.7344 17.5452C13.7237 17.5315 13.7126 17.5182 13.7001 17.5055C13.5379 17.3436 13.2754 17.3436 13.1134 17.5055L12.2329 18.3859C12.0711 18.5479 12.0711 18.8105 12.2332 18.9724C12.2456 18.9849 12.2589 18.9959 12.2725 19.0066C12.1462 18.844 12.1574 18.6093 12.3068 18.4599Z" fill="#CDA938"/>
<path d="M13.123 18.5307C13.1404 18.5481 13.1404 18.5765 13.123 18.5941C13.1056 18.6116 13.077 18.6116 13.0594 18.594L12.6558 18.1903C12.6382 18.1727 12.6382 18.1443 12.6558 18.1269C12.6732 18.1093 12.7016 18.1093 12.7192 18.1269L13.123 18.5307Z" fill="#D6A93A"/>
<path d="M13.2572 18.3972C13.2742 18.4142 13.2746 18.4423 13.2572 18.4597C13.2399 18.4767 13.2117 18.4766 13.1949 18.4597C13.1777 18.4424 13.1775 18.4143 13.1947 18.3972C13.2121 18.3798 13.24 18.3799 13.2572 18.3972Z" fill="#D6A93A"/>
<path d="M12.98 18.6746C12.997 18.6916 12.9973 18.7197 12.98 18.7368C12.9629 18.7541 12.9347 18.7539 12.9177 18.7371C12.9005 18.7197 12.9005 18.6916 12.9175 18.6746C12.9348 18.657 12.9629 18.6574 12.98 18.6746Z" fill="#D6A93A"/>
<path d="M12.4335 18.3491L12.2952 18.4872C12.2776 18.505 12.2776 18.5334 12.2953 18.5509C12.3129 18.5683 12.3411 18.5685 12.3587 18.5509L12.3809 18.5287C12.3892 18.5209 12.402 18.5206 12.4109 18.528L12.7681 18.8854C12.7857 18.9028 12.8141 18.9028 12.8316 18.8854C12.8491 18.8679 12.8493 18.8394 12.8317 18.8218L12.473 18.4632C12.4668 18.4546 12.4672 18.4427 12.4747 18.4348L12.4971 18.4127C12.5147 18.3949 12.5145 18.3664 12.4971 18.3491C12.4796 18.3314 12.4512 18.3314 12.4335 18.3491Z" fill="#D6A93A"/>
<path d="M13.1785 17.6099C13.1584 17.6242 13.1539 17.6526 13.1685 17.6726L13.3383 17.9065C13.3454 17.9163 13.3448 17.9303 13.3361 17.9389C13.3284 17.9466 13.3167 17.9479 13.3077 17.9433L13.2117 17.8957C13.1955 17.8876 13.1772 17.8903 13.1641 17.9005C13.1638 17.9006 13.1635 17.9011 13.1632 17.9012C13.1626 17.9017 13.1617 17.9022 13.1611 17.9031C13.1605 17.9036 13.1601 17.9039 13.1598 17.9043C13.1593 17.9048 13.1587 17.9052 13.1584 17.9056C13.1577 17.9064 13.1571 17.9071 13.1564 17.908C13.1564 17.908 13.1561 17.9085 13.1559 17.9088C13.1457 17.9218 13.1432 17.9401 13.1512 17.9562L13.1988 18.0521C13.2034 18.0613 13.2019 18.073 13.1942 18.0805C13.1855 18.0895 13.1717 18.09 13.1621 18.083L12.9279 17.9132C12.9078 17.8984 12.8797 17.9031 12.8653 17.9228C12.8506 17.943 12.8553 17.9711 12.8752 17.9856L13.3374 18.3208C13.3553 18.3337 13.3793 18.3316 13.3948 18.317C13.3952 18.3163 13.3961 18.3157 13.3964 18.3149C13.3964 18.3149 13.397 18.3145 13.3974 18.314C13.4093 18.301 13.4128 18.2812 13.4042 18.2641L13.3225 18.0996C13.3185 18.0906 13.32 18.0796 13.3275 18.0724C13.3354 18.0642 13.3475 18.0629 13.3567 18.0681L13.5195 18.1486C13.5365 18.1574 13.5563 18.154 13.5698 18.142C13.5699 18.1417 13.5701 18.1414 13.5704 18.1413C13.5711 18.1405 13.5716 18.1401 13.5723 18.1392C13.5871 18.124 13.5892 18.0997 13.5763 18.0821L13.2409 17.6196C13.2267 17.5998 13.1985 17.5954 13.1785 17.6099Z" fill="#D6A93A"/>
<path d="M13.123 18.4863C13.1404 18.5037 13.1404 18.5319 13.123 18.5498C13.1056 18.5671 13.077 18.5671 13.0594 18.5495L12.6558 18.146C12.6382 18.1283 12.6382 18.0997 12.6558 18.0824C12.6732 18.065 12.7016 18.065 12.7192 18.0824L13.123 18.4863Z" fill="#F8D742"/>
<path d="M13.2572 18.3529C13.2742 18.37 13.2746 18.3981 13.2572 18.4154C13.2399 18.4326 13.2117 18.4324 13.1949 18.4154C13.1777 18.3981 13.1775 18.3702 13.1947 18.3527C13.2121 18.3355 13.24 18.3358 13.2572 18.3529Z" fill="#F8D742"/>
<path d="M12.98 18.6301C12.997 18.6469 12.9973 18.6753 12.98 18.6924C12.9629 18.7097 12.9347 18.7094 12.9177 18.6926C12.9005 18.6753 12.9005 18.6472 12.9175 18.6301C12.9348 18.6126 12.9629 18.6129 12.98 18.6301Z" fill="#F8D742"/>
<path d="M12.4335 18.3045L12.2952 18.4427C12.2776 18.4605 12.2776 18.4888 12.2953 18.5063C12.3129 18.5237 12.3411 18.5239 12.3587 18.5063L12.3809 18.4843C12.3892 18.4763 12.402 18.4761 12.4109 18.4834L12.7681 18.8409C12.7857 18.8584 12.8141 18.8584 12.8316 18.8409C12.8491 18.8233 12.8493 18.795 12.8317 18.7775L12.473 18.4186C12.4668 18.4102 12.4672 18.3982 12.4747 18.3904L12.4971 18.3682C12.5147 18.3504 12.5145 18.322 12.4971 18.3045C12.4796 18.2868 12.4512 18.2868 12.4335 18.3045Z" fill="#F8D742"/>
<path d="M13.1785 17.5656C13.1584 17.5801 13.1539 17.6085 13.1685 17.6283L13.3383 17.8624C13.3454 17.8722 13.3448 17.8861 13.3361 17.8948C13.3284 17.9023 13.3167 17.9038 13.3077 17.8991L13.2117 17.8515C13.1955 17.8434 13.1772 17.8462 13.1641 17.8564C13.1638 17.8565 13.1635 17.8568 13.1632 17.857C13.1626 17.8574 13.1617 17.858 13.1611 17.8589C13.1605 17.8593 13.1601 17.8596 13.1598 17.8601C13.1593 17.8605 13.1587 17.8609 13.1584 17.8615C13.1577 17.8621 13.1571 17.863 13.1564 17.8637C13.1564 17.8637 13.1561 17.8643 13.1559 17.8646C13.1457 17.8778 13.1432 17.896 13.1512 17.9119L13.1988 18.0079C13.2034 18.0173 13.2019 18.0287 13.1942 18.0364C13.1855 18.0453 13.1717 18.0457 13.1621 18.039L12.9279 17.8689C12.9078 17.8543 12.8797 17.8589 12.8653 17.8787C12.8506 17.8989 12.8553 17.927 12.8752 17.9413L13.3374 18.2766C13.3553 18.2896 13.3793 18.2874 13.3948 18.2729C13.3952 18.2721 13.3961 18.2714 13.3964 18.2708C13.3967 18.2707 13.397 18.2704 13.3974 18.2699C13.4093 18.2569 13.4128 18.237 13.4042 18.22L13.3225 18.0555C13.3185 18.0463 13.32 18.0354 13.3275 18.0281C13.3354 18.0201 13.3475 18.0187 13.3567 18.0238L13.5195 18.1045C13.5365 18.1132 13.5563 18.1097 13.5698 18.0977C13.5699 18.0974 13.5701 18.0971 13.5704 18.0971C13.5711 18.0964 13.5716 18.0957 13.5723 18.0949C13.5871 18.0797 13.5892 18.0556 13.5763 18.0379L13.2409 17.5755C13.2267 17.5556 13.1985 17.5511 13.1785 17.5656Z" fill="#F8D742"/>
<path d="M15.1907 12.4649C14.3965 12.5401 13.6407 12.0074 13.6186 11.1727C13.5945 10.4041 13.5702 9.63569 13.5461 8.86724C13.9066 8.83901 14.0871 8.82556 14.4479 8.79999C14.4698 9.56858 14.4918 10.3372 14.5137 11.1058C14.5246 11.4883 14.7806 11.6742 15.1639 11.649C15.2171 11.6454 15.2437 11.6436 15.2969 11.6402C15.6802 11.6154 15.9257 11.3968 15.9165 11.0141C15.8979 10.2454 15.8794 9.47679 15.861 8.7082C16.2221 8.68677 16.4027 8.67671 16.7639 8.65794C16.7802 9.42654 16.7966 10.1953 16.8129 10.964C16.826 11.8028 16.1328 12.4183 15.3234 12.4561C15.2703 12.4597 15.2437 12.4613 15.1907 12.4649Z" fill="white"/>
<path d="M17.4539 8.63039C17.873 8.61043 18.0828 8.60142 18.5023 8.58501C18.9735 9.34326 19.4414 10.1036 19.9062 10.8658C19.9103 10.8658 19.9124 10.8657 19.9163 10.8655C19.9088 10.09 19.9011 9.31429 19.8936 8.5386C20.2551 8.52855 20.436 8.52411 20.7977 8.51672C20.8081 9.73303 20.8183 10.9492 20.8286 12.1655C20.4158 12.1739 20.2095 12.1791 19.7968 12.1911C19.3321 11.431 18.864 10.6729 18.3926 9.9169C18.3885 9.91705 18.3864 9.9172 18.3824 9.91734C18.3936 10.6913 18.405 11.4652 18.4164 12.2391C18.0591 12.2536 17.8804 12.2614 17.5233 12.2786C17.5001 11.0626 17.4771 9.8464 17.4539 8.63039Z" fill="white"/>
<path d="M21.4624 8.5065C21.8241 8.50074 22.005 8.49852 22.3668 8.49542C22.3711 9.71172 22.3753 10.928 22.3796 12.1443C22.022 12.1473 21.8432 12.1495 21.4856 12.1553C21.4779 10.939 21.4701 9.72281 21.4624 8.5065Z" fill="white"/>
<path d="M24.1862 9.25825C23.7208 9.25574 23.4881 9.25559 23.0227 9.25737C23.0222 8.95126 23.0219 8.79813 23.0215 8.49187C24.1009 8.49113 25.1795 8.50089 26.2586 8.52128C26.256 8.82739 26.2547 8.98052 26.2518 9.28678C25.7865 9.27643 25.5539 9.27244 25.0884 9.26638C25.0836 10.2276 25.0785 11.1886 25.0737 12.1497C24.7161 12.1451 24.5373 12.1435 24.1797 12.1415C24.1818 11.1805 24.184 10.2193 24.1862 9.25825Z" fill="white"/>
<path d="M26.9135 8.53497C27.7299 8.55951 28.5458 8.58922 29.3618 8.62454C29.3561 8.93065 29.3533 9.08378 29.3475 9.38989C28.7316 9.36122 28.4234 9.3488 27.807 9.32781C27.8033 9.59313 27.8016 9.72586 27.7979 9.99117C28.2998 10.0083 28.5508 10.0181 29.0525 10.0404C29.047 10.3465 29.0443 10.4996 29.0389 10.8057C28.5384 10.7836 28.2882 10.7737 27.7874 10.7567C27.7835 11.0322 27.7818 11.1699 27.7779 11.4454C28.4188 11.4673 28.7391 11.4805 29.3797 11.5108C29.374 11.8169 29.371 11.97 29.3652 12.2761C28.5349 12.2396 27.7046 12.2087 26.8738 12.1836C26.8871 10.9674 26.9002 9.75113 26.9135 8.53497Z" fill="white"/>
<path d="M30.0484 8.65117C30.6266 8.68058 30.9156 8.69699 31.4932 8.7332C32.5422 8.77237 33.367 9.63024 33.3382 10.6829C33.3099 11.7158 32.4259 12.4797 31.4005 12.3808C30.8296 12.3449 30.544 12.3285 29.9724 12.2992C29.9978 11.0832 30.0231 9.86718 30.0484 8.65117ZM31.3843 11.6134C32.0027 11.6521 32.391 11.3126 32.4108 10.6138C32.4306 9.91995 32.0448 9.53417 31.4378 9.49618C31.236 9.48362 31.1351 9.47756 30.9333 9.46573C30.9166 10.1715 30.8999 10.8773 30.8832 11.5831C31.0836 11.5947 31.1839 11.6008 31.3843 11.6134Z" fill="white"/>
<path d="M5.98218 4.38283C6.45221 4.32341 6.68737 4.29474 7.15785 4.23961C7.36892 5.27544 7.57984 6.31127 7.79091 7.34726C7.79594 7.34666 7.7986 7.34637 7.80362 7.34578C8.04514 6.2591 8.28666 5.17242 8.52848 4.08574C8.93377 4.04228 9.13656 4.02144 9.542 3.98109C9.77761 5.01855 10.0131 6.05586 10.2484 7.09332C10.2536 7.09273 10.2561 7.09258 10.2612 7.09199C10.4895 6.01093 10.718 4.92987 10.9466 3.84895C11.4105 3.80771 11.6425 3.78806 12.1066 3.75096C11.7195 5.3118 11.3329 6.87294 10.9466 8.43408C10.4024 8.48242 10.1304 8.50799 9.58664 8.56179C9.40173 7.685 9.21697 6.8082 9.03206 5.93126C9.02689 5.93185 9.02438 5.93215 9.0192 5.93259C8.83429 6.84767 8.64953 7.76259 8.46492 8.67767C7.91625 8.73679 7.64207 8.76768 7.09399 8.83228C6.72359 7.34903 6.35288 5.86593 5.98218 4.38283Z" fill="white"/>
<path d="M35.515 3.81575C36.0199 3.85921 36.2723 3.88212 36.7769 3.9303C37.1104 4.9144 37.4434 5.89865 37.7761 6.8832C37.7813 6.88364 37.7838 6.88393 37.789 6.88438C38.1216 5.96871 38.4544 5.05305 38.7876 4.13753C39.2864 4.19266 39.5358 4.22148 40.0344 4.28134C40.3091 5.84352 40.5836 7.40569 40.8581 8.96802C40.3956 8.90949 40.1643 8.88125 39.7015 8.82686C39.566 7.8067 39.4304 6.78653 39.2949 5.76622C39.2897 5.76562 39.2872 5.76533 39.282 5.76474C38.954 6.73288 38.6263 7.70116 38.2988 8.66945C37.8935 8.62614 37.6909 8.6053 37.2853 8.56495C36.9511 7.52837 36.6166 6.49195 36.2816 5.45552C36.2766 5.45508 36.274 5.45493 36.2689 5.45434C36.1501 6.4482 36.0314 7.44191 35.9127 8.43576C35.4412 8.39379 35.2054 8.37383 34.7336 8.33599C34.9939 6.82925 35.2544 5.3225 35.515 3.81575Z" fill="white"/>
<path d="M12.5547 3.72468C13.5864 3.64723 14.6184 3.57895 15.6514 3.52012C15.6291 3.90604 15.6179 4.09908 15.5956 4.48501C14.9558 4.52181 14.3163 4.56157 13.6769 4.60414C13.6769 4.93774 13.6769 5.10447 13.6769 5.43792C14.303 5.39446 14.6162 5.37466 15.2426 5.33859V6.30052C14.6162 6.33659 14.303 6.35639 13.6769 6.39985C13.6769 6.74601 13.6769 6.91924 13.6769 7.26556C14.3461 7.21914 15.0157 7.17776 15.6854 7.14155C15.6854 7.52629 15.6854 7.71859 15.6856 8.10333C14.6412 8.16275 13.5978 8.23148 12.5547 8.30981C12.5547 6.78149 12.5547 5.25301 12.5547 3.72468Z" fill="white"/>
<path d="M20.9303 4.3016C20.3503 4.31151 20.0603 4.31786 19.4805 4.33397C19.4805 3.94923 19.4805 3.75679 19.4805 3.37204C20.822 3.33805 22.163 3.3209 23.5049 3.32046C23.5049 3.70535 23.5049 3.89765 23.5049 4.28254C22.9249 4.28121 22.6347 4.28224 22.0547 4.28727C22.0547 5.495 22.0547 6.70273 22.0547 7.91047C21.6049 7.91431 21.3801 7.91712 20.9303 7.9248C20.9303 6.71707 20.9303 5.50934 20.9303 4.3016Z" fill="white"/>
<path d="M25.3723 3.33004C25.8221 3.33551 26.0469 3.3392 26.4967 3.34837V5.18236C27.1465 5.19744 27.7959 5.21532 28.4456 5.23646V3.40247C28.8952 3.41813 29.12 3.42685 29.5695 3.44636V8.03149C29.12 8.01213 28.8952 8.00326 28.4456 7.9876V6.19203C27.7959 6.1709 27.1465 6.15286 26.4967 6.13793V7.9335C26.0469 7.92433 25.8221 7.92064 25.3723 7.91517C25.3723 6.38684 25.3723 4.85837 25.3723 3.33004Z" fill="white"/>
<path d="M32.9335 7.25373C32.3168 7.21175 32.0083 7.19268 31.3912 7.1578C31.2808 7.53634 31.2257 7.72568 31.1153 8.10436C30.6531 8.07923 30.4221 8.0677 29.9597 8.04657C30.4235 6.54159 30.8878 5.03692 31.3525 3.53238C31.9585 3.56638 32.2615 3.58515 32.8673 3.62595C33.3689 5.19078 33.8698 6.75577 34.3699 8.32104C33.9083 8.28468 33.6775 8.26754 33.2158 8.23517C33.1029 7.84244 33.0464 7.64616 32.9335 7.25373ZM32.1593 4.62542C31.9909 5.17526 31.8225 5.72511 31.6543 6.2751C32.061 6.29889 32.2641 6.31146 32.6705 6.33836C32.5044 5.76753 32.3384 5.19684 32.1721 4.62616C32.1669 4.62586 32.1644 4.62571 32.1593 4.62542Z" fill="white"/>
<path d="M17.777 3.34621C16.9398 3.37592 15.9909 3.89147 15.9847 4.83271C15.975 6.26954 18.1328 5.88391 18.2659 6.66907C18.3029 6.88634 18.0581 7.06874 17.7483 7.06829C17.1713 7.0677 16.7162 6.95522 16.2446 6.71326C16.2217 7.10924 16.2028 7.3175 16.1874 7.67696C16.674 8.00317 17.1769 8.07338 17.7204 8.08757C18.5274 8.10841 19.4981 7.54881 19.5062 6.60507C19.5185 5.17932 17.3794 5.50198 17.2243 4.76058C17.1846 4.57065 17.4165 4.38367 17.7628 4.36386C18.2918 4.33371 18.6723 4.46482 18.962 4.58395C18.985 4.12796 18.992 4.06278 19.0177 3.61891C18.7629 3.47273 18.3616 3.32537 17.777 3.34621Z" fill="white"/>
</g>
<path d="M16.8156 41.2273L17.3618 41.4658L16.5915 43.2292L17.5029 43.6274L17.2984 44.0955L15.8408 43.4589L16.8156 41.2273Z" fill="white"/>
<mask id="mask1_1_2702" style="mask-type:luminance" maskUnits="userSpaceOnUse" x="-39" y="-38" width="125" height="125">
<path d="M-38.8977 86.8135H85.5409V-37.624H-38.8977V86.8135Z" fill="white"/>
</mask>
<g mask="url(#mask1_1_2702)">
<path d="M19.5122 42.1894C20.2215 42.3842 20.596 43.0522 20.4111 43.7254C20.2216 44.4151 19.5549 44.8111 18.8455 44.6161C18.1362 44.4213 17.7652 43.7402 17.9547 43.0507C18.1396 42.3774 18.8028 41.9946 19.5122 42.1894ZM18.9898 44.0908C19.3413 44.1873 19.7067 43.9628 19.8166 43.5621C19.9222 43.1779 19.7192 42.8114 19.3679 42.7149C19.0164 42.6183 18.6547 42.8297 18.549 43.2139C18.4391 43.6146 18.6385 43.9943 18.9898 44.0908Z" fill="white"/>
<path d="M20.9818 42.5915L21.5816 42.6526L22.1374 43.8526C22.216 44.0216 22.2985 44.2867 22.2985 44.2867L22.3053 44.2875C22.3053 44.2875 22.3047 44.0238 22.3202 43.8713L22.4355 42.7395L23.0285 42.7999L22.7818 45.2227L22.1854 45.1619L21.626 43.965C21.5473 43.796 21.4648 43.5309 21.4648 43.5309L21.458 43.5301C21.458 43.5301 21.4585 43.7938 21.443 43.9463L21.3281 45.0747L20.7351 45.0142L20.9818 42.5915Z" fill="white"/>
<path d="M23.4485 42.8063L24.3124 42.7598C25.0776 42.7185 25.5914 43.1377 25.6327 43.903C25.6737 44.6682 25.2086 45.1504 24.4432 45.1916L23.5794 45.238L23.4485 42.8063ZM24.3921 44.6827C24.8036 44.6606 25.042 44.4022 25.017 43.9362C24.9921 43.4737 24.7174 43.2496 24.316 43.2713L24.0712 43.2845L24.1472 44.6959L24.3921 44.6827Z" fill="white"/>
<path d="M26.9051 42.3767C27.6236 42.2187 28.2663 42.6353 28.4163 43.3172C28.5699 44.0157 28.1643 44.6769 27.4458 44.835C26.7273 44.993 26.0816 44.563 25.9281 43.8645C25.778 43.1825 26.1866 42.5347 26.9051 42.3767ZM27.3287 44.3028C27.6846 44.2244 27.9034 43.8555 27.8141 43.4496C27.7285 43.0604 27.3781 42.8306 27.0221 42.9089C26.6662 42.9871 26.4445 43.3429 26.5301 43.7321C26.6194 44.1378 26.9728 44.3809 27.3287 44.3028Z" fill="white"/>
<path d="M28.3911 42.0495L28.9501 41.8239L30.0009 42.6264C30.1493 42.7391 30.3459 42.9351 30.3459 42.9351L30.3521 42.9326C30.3521 42.9326 30.2288 42.6997 30.1715 42.5575L29.7459 41.5029L30.2984 41.2798L31.2095 43.5377L30.6538 43.762L29.6011 42.964C29.4527 42.8513 29.2561 42.6552 29.2561 42.6552L29.2497 42.6577C29.2497 42.6577 29.3732 42.8906 29.4305 43.0328L29.8549 44.0843L29.3022 44.3074L28.3911 42.0495Z" fill="white"/>
</g>
</svg>
