<svg width="39" height="33.75" viewBox="0 0 52 45" fill="none" xmlns="http://www.w3.org/2000/svg">
<g clip-path="url(#clip0_1_3218)">
<path d="M12.9338 0.253174L0.133545 22.4331L12.9338 44.6112H38.5343L51.3335 22.4331L38.5343 0.253174H12.9338Z" fill="white"/>
<path d="M38.2586 0.729736C38.394 0.964156 50.6486 22.1995 50.7841 22.4332C50.6487 22.6668 38.3942 43.9012 38.2586 44.1356H13.2085C13.0738 43.901 0.818364 22.6667 0.683838 22.433C0.818364 22.1995 13.0738 0.964156 13.2085 0.729736H38.2586Z" fill="black"/>
<path d="M15.3211 4.39209L4.90991 22.433L15.3211 40.472H36.1444L46.5574 22.433L36.1444 4.39209H15.3211Z" fill="white"/>
<path d="M35.778 5.02759C35.9564 5.33683 45.6454 22.1248 45.823 22.433C45.6454 22.7424 35.9564 39.5274 35.778 39.8368H15.6872C15.5096 39.5274 5.82067 22.7424 5.64233 22.433C5.8208 22.1247 15.5096 5.33683 15.6872 5.02759H35.778Z" fill="#F6A800"/>
<path d="M22.8067 14.1815H28.6388L31.7576 6.3584L40.2001 23.5051L31.0707 28.8999L28.1445 38.5058H23.3225L20.4056 28.885L11.2668 23.5051L19.6955 6.3584L22.8067 14.1815Z" fill="black"/>
<path d="M31.7645 20.52V25.1346H27.4517L31.7645 20.52Z" fill="white"/>
<path d="M19.7024 25.1346V20.52L24.0079 25.1346H19.7024Z" fill="white"/>
</g>
<defs>
<clipPath id="clip0_1_3218">
<rect width="51.2" height="44.358" fill="white" transform="translate(0.133545 0.253174)"/>
</clipPath>
</defs>
</svg>
