<svg width="24" height="24" viewBox="0 0 24 24" fill="none" xmlns="http://www.w3.org/2000/svg">
<path d="M6.00001 17H18M17 21C17.2652 21 17.5196 20.8947 17.7071 20.7071C17.8946 20.5196 18 20.2652 18 20V14.65C18 14.193 18.316 13.806 18.727 13.609C19.578 13.2031 20.2582 12.5096 20.6476 11.6509C21.0371 10.7923 21.1107 9.82363 20.8554 8.91599C20.6002 8.00835 20.0326 7.22003 19.2527 6.69017C18.4728 6.16032 17.5308 5.92297 16.593 6.02003C16.2068 5.12224 15.5659 4.35732 14.7496 3.81987C13.9333 3.28241 12.9774 2.99597 12 2.99597C11.0227 2.99597 10.0667 3.28241 9.25043 3.81987C8.43413 4.35732 7.79324 5.12224 7.40701 6.02003C6.46959 5.92365 5.52824 6.16133 4.74894 6.69117C3.96964 7.221 3.40242 8.00896 3.14729 8.91613C2.89217 9.8233 2.96552 10.7914 3.35441 11.6498C3.7433 12.5082 4.42277 13.2017 5.27301 13.608C5.68401 13.806 6.00001 14.193 6.00001 14.649V20C6.00001 20.2652 6.10536 20.5196 6.2929 20.7071C6.48044 20.8947 6.73479 21 7.00001 21H17Z" stroke="black" stroke-width="2.5" stroke-linecap="round" stroke-linejoin="round"/>
</svg>
