<svg xmlns="http://www.w3.org/2000/svg" version="1.1" viewBox="1.2915675640106201 1.319503903388977 491.236328125 492.1629333496094" width="494.00" height="495.00">
<g stroke-width="2.00" fill="none" stroke-linecap="butt">
<path stroke="#807a7d" d="&#10;  M 376.60 37.61&#10;  L 357.75 79.30"/>
<path stroke="#f1f1f1" d="&#10;  M 357.75 79.30&#10;  Q 338.66 65.21 320.59 55.75&#10;  C 274.00 31.34 215.09 32.95 168.39 55.39&#10;  Q 149.54 64.45 135.55 78.72&#10;  Q 135.20 79.07 135.33 79.55&#10;  Q 136.88 85.09 138.47 90.24&#10;  Q 139.52 93.63 147.66 110.00&#10;  Q 148.40 111.49 149.04 113.03&#10;  Q 149.29 113.63 149.23 115.85&#10;  Q 149.12 119.94 148.85 123.98"/>
<path stroke="#8f7cd0" d="&#10;  M 148.85 123.98&#10;  L 124.45 68.04"/>
<path stroke="#8c7ac6" d="&#10;  M 124.45 68.04&#10;  Q 121.24 59.89 117.80 51.92&#10;  Q 115.13 45.72 113.71 39.48"/>
<path stroke="#2f673f" d="&#10;  M 389.33 46.68&#10;  L 338.92 167.73"/>
<path stroke="#317649" d="&#10;  M 338.92 167.73&#10;  C 333.82 178.72 328.89 190.97 324.15 200.96&#10;  Q 313.18 224.10 287.96 275.93&#10;  Q 275.26 302.02 270.45 311.47"/>
<path stroke="#2a1169" d="&#10;  M 270.45 311.47&#10;  Q 265.98 311.08 261.48 310.87&#10;  Q 257.08 310.66 252.59 311.56&#10;  Q 244.08 313.27 241.08 314.31&#10;  Q 238.84 315.10 237.57 313.08"/>
<path stroke="#8c8689" d="&#10;  M 357.75 79.30&#10;  Q 353.09 89.80 348.58 100.49&#10;  Q 345.47 107.85 340.67 118.84&#10;  Q 333.54 135.18 327.62 149.16&#10;  Q 314.81 179.39 293.51 223.90&#10;  C 292.07 226.90 289.96 230.39 288.46 233.56&#10;  Q 285.55 239.76 284.93 240.93&#10;  Q 268.84 271.50 266.23 275.98&#10;  Q 251.03 302.05 250.05 303.63&#10;  Q 248.59 306.01 245.94 306.98&#10;  Q 242.88 308.10 240.95 308.95&#10;  Q 238.73 309.94 237.57 313.08"/>
<path stroke="#9b88dd" d="&#10;  M 237.57 313.08&#10;  Q 236.26 310.85 235.20 308.43&#10;  Q 233.78 305.18 233.02 303.70&#10;  C 229.57 297.00 226.73 290.23 223.35 284.11&#10;  Q 221.78 281.27 217.68 272.94&#10;  Q 214.26 266.01 212.08 261.77&#10;  Q 205.97 249.93 199.08 235.40&#10;  C 197.58 232.24 194.81 227.40 193.13 223.49&#10;  Q 189.63 215.36 184.83 205.61&#10;  Q 180.80 197.42 176.56 187.73&#10;  Q 162.62 155.90 148.85 123.98"/>
<path stroke="#3611b2" d="&#10;  M 124.45 68.04&#10;  Q 122.96 72.32 124.56 76.05&#10;  Q 128.59 85.40 141.85 114.13&#10;  Q 141.98 114.41 142.23 114.66&#10;  Q 142.57 114.99 142.63 115.16&#10;  Q 145.35 122.75 146.54 125.35&#10;  A 0.30 0.28 -29.3 0 1 146.43 125.71&#10;  Q 146.23 125.84 146.21 125.89&#10;  Q 143.22 133.95 140.22 140.76&#10;  Q 138.11 145.54 128.52 162.91&#10;  Q 123.49 172.02 120.07 182.22&#10;  C 113.54 201.67 114.51 222.13 122.15 241.24&#10;  Q 127.36 254.31 137.76 268.77&#10;  Q 155.85 293.95 183.09 303.57&#10;  C 187.18 305.02 194.83 307.77 200.12 309.16&#10;  Q 216.75 313.53 229.95 318.02&#10;  Q 244.40 322.94 257.32 333.49&#10;  Q 257.72 333.82 257.49 334.28&#10;  Q 252.94 343.40 250.88 353.40&#10;  Q 250.60 354.75 251.14 355.49&#10;  Q 251.83 356.44 253.28 356.55"/>
<path stroke="#3c7693" d="&#10;  M 253.28 356.55&#10;  Q 249.46 370.22 247.39 379.88&#10;  Q 245.97 386.54 246.21 394.46"/>
<path stroke="#270f5f" d="&#10;  M 246.21 394.46&#10;  Q 245.74 393.90 245.22 394.12&#10;  A 1.57 1.47 59.9 0 1 243.44 393.58&#10;  C 242.12 391.80 240.57 389.74 239.25 388.38&#10;  Q 225.24 373.94 211.28 359.29"/>
<path stroke="#2f0e9f" d="&#10;  M 211.28 359.29&#10;  Q 203.75 350.38 195.92 341.66&#10;  Q 190.89 336.07 185.79 331.29&#10;  Q 179.54 325.44 174.83 320.59&#10;  Q 173.60 319.33 173.21 318.58&#10;  Q 172.75 317.66 172.01 317.24&#10;  A 1.70 1.65 -89.2 0 1 171.34 316.53&#10;  Q 170.84 315.56 170.43 315.11&#10;  Q 162.75 306.63 160.27 304.23&#10;  Q 144.89 289.32 129.52 274.40&#10;  C 124.86 269.87 116.87 261.37 109.87 255.42"/>
<path stroke="#270f5f" d="&#10;  M 109.87 255.42&#10;  L 91.75 238.78"/>
<path stroke="#292a5d" d="&#10;  M 91.75 238.78&#10;  Q 89.28 236.51 86.77 234.32&#10;  Q 85.43 233.16 84.73 232.18&#10;  C 83.23 230.08 81.65 229.32 80.14 227.25&#10;  Q 79.37 226.19 77.44 224.31&#10;  Q 77.04 223.93 76.96 223.39&#10;  Q 76.78 222.16 75.67 221.91&#10;  Q 75.16 221.79 74.82 221.38&#10;  L 72.22 218.13"/>
<path stroke="#2f0e9f" d="&#10;  M 72.22 218.13&#10;  L 75.52 220.48"/>
<path stroke="#2f0e9f" d="&#10;  M 75.52 220.48&#10;  Q 83.30 229.77 92.76 237.29&#10;  Q 92.79 237.32 92.82 237.29&#10;  L 93.03 237.07&#10;  Q 93.20 236.90 93.03 236.73&#10;  Q 85.22 228.53 78.96 223.03&#10;  Q 78.31 222.46 75.52 220.48"/>
<path stroke="#2f0e9f" d="&#10;  M 75.52 220.48&#10;  L 70.68 216.55"/>
<path stroke="#292a5d" d="&#10;  M 70.68 216.55&#10;  L 61.35 206.73"/>
<path stroke="#1b0957" d="&#10;  M 61.35 206.73&#10;  Q 61.03 206.46 61.03 206.08"/>
<path stroke="#2f0e9f" d="&#10;  M 61.03 206.08&#10;  C 56.75 190.66 58.77 177.93 65.15 162.97&#10;  Q 73.85 142.55 86.36 124.31&#10;  C 92.18 115.82 99.95 106.65 106.87 97.96&#10;  Q 112.10 91.38 114.88 85.66&#10;  C 121.67 71.66 116.27 59.29 108.59 47.07&#10;  Q 108.31 46.64 107.84 46.83&#10;  Q 105.85 47.65 104.29 48.81&#10;  Q 98.16 53.38 91.60 58.63&#10;  Q 89.70 60.15 89.00 60.98&#10;  Q 87.94 62.22 86.49 63.47&#10;  Q 85.42 64.40 82.81 67.26&#10;  Q 61.00 91.27 57.61 95.37&#10;  Q 53.01 100.94 49.89 105.87&#10;  Q 43.36 116.19 38.86 125.85&#10;  Q 37.30 129.20 31.83 139.56&#10;  Q 27.37 147.98 23.41 158.34&#10;  Q 22.07 161.82 18.05 162.99&#10;  Q 17.53 163.14 17.34 162.64&#10;  L 16.92 161.53"/>
<path stroke="#40789d" d="&#10;  M 270.45 311.47&#10;  L 253.28 356.55"/>
<path stroke="#246137" d="&#10;  M 489.25 209.15&#10;  L 414.87 267.34"/>
<path stroke="#45cd73" d="&#10;  M 414.87 267.34&#10;  Q 419.75 255.27 422.41 246.93&#10;  Q 430.27 222.31 425.85 196.57&#10;  C 421.65 172.06 410.80 144.81 392.02 128.05&#10;  Q 382.00 119.10 367.56 115.58&#10;  Q 367.06 115.46 366.84 115.92&#10;  Q 362.66 124.82 361.91 126.35&#10;  Q 359.24 131.76 356.81 137.18&#10;  Q 352.47 146.86 347.56 156.26&#10;  C 345.06 161.05 343.54 164.54 338.92 167.73"/>
<path stroke="#257041" d="&#10;  M 414.87 267.34&#10;  Q 395.01 283.04 375.33 299.15&#10;  C 370.51 303.10 365.04 307.03 359.75 311.25&#10;  Q 309.26 351.61 253.12 395.12&#10;  Q 250.88 396.86 248.14 398.93&#10;  Q 246.74 399.98 246.56 401.76&#10;  Q 246.35 403.81 245.97 405.84&#10;  Q 243.92 416.64 242.41 427.05"/>
<path stroke="#45cd73" d="&#10;  M 242.41 427.05&#10;  Q 225.34 442.01 201.15 446.86&#10;  Q 186.31 449.84 174.94 440.49&#10;  Q 169.61 436.11 163.71 429.52"/>
<path stroke="#3c7693" d="&#10;  M 163.71 429.52&#10;  L 155.08 411.96"/>
<path stroke="#40789d" d="&#10;  M 155.08 411.96&#10;  L 154.62 410.76"/>
<path stroke="#45cd73" d="&#10;  M 154.62 410.76&#10;  Q 152.00 402.51 146.68 395.61"/>
<path stroke="#40789d" d="&#10;  M 146.68 395.61&#10;  L 74.71 259.31"/>
<path stroke="#45cd73" d="&#10;  M 74.71 259.31&#10;  L 70.38 242.69&#10;  A 1.39 1.28 -12.9 0 1 71.48 241.08&#10;  Q 71.58 241.06 72.21 241.75"/>
<path stroke="#49e487" d="&#10;  M 72.21 241.75&#10;  Q 81.11 259.30 91.01 276.44&#10;  Q 93.71 281.11 100.35 295.87&#10;  Q 103.06 301.88 111.75 316.77&#10;  C 119.54 330.14 125.67 342.15 132.23 354.48&#10;  Q 140.50 370.04 151.08 383.08&#10;  Q 163.19 398.00 181.50 398.88&#10;  C 191.88 399.38 202.60 397.25 211.93 392.37&#10;  Q 220.72 387.78 220.47 378.29&#10;  Q 220.46 377.79 220.14 377.40&#10;  L 209.97 365.01"/>
<path stroke="#339148" d="&#10;  M 209.97 365.01&#10;  Q 211.54 366.34 213.00 367.75&#10;  Q 216.19 370.81 219.43 373.81&#10;  Q 219.50 373.88 223.86 378.31&#10;  Q 226.23 380.71 229.05 382.59"/>
<path stroke="#317649" d="&#10;  M 229.05 382.59&#10;  L 245.50 398.30&#10;  A 0.74 0.74 0.0 0 0 246.75 397.64&#10;  L 246.21 394.46"/>
<path stroke="#252954" d="&#10;  M 70.68 216.55&#10;  Q 70.94 217.65 72.22 218.13"/>
<path stroke="#1d2a14" d="&#10;  M 91.75 238.78&#10;  Q 97.59 246.92 104.15 254.47&#10;  Q 104.71 255.12 106.99 256.92&#10;  C 110.30 259.54 112.84 263.00 116.37 267.13&#10;  Q 122.72 274.57 136.58 284.67"/>
<path stroke="#252954" d="&#10;  M 136.58 284.67&#10;  L 139.07 287.32"/>
<path stroke="#1d2a14" d="&#10;  M 139.07 287.32&#10;  L 145.82 293.82"/>
<path stroke="#252954" d="&#10;  M 145.82 293.82&#10;  L 151.70 300.82&#10;  A 0.72 0.07 63.7 0 1 151.89 301.13&#10;  Q 151.99 301.32 152.14 301.42&#10;  Q 152.35 301.58 152.30 301.36&#10;  L 152.07 300.42&#10;  Q 151.95 299.96 151.47 299.80&#10;  Q 150.72 299.54 150.30 298.82&#10;  Q 149.87 298.07 150.56 298.59&#10;  Q 152.55 300.07 152.78 300.48&#10;  Q 154.03 302.72 155.47 303.89&#10;  Q 161.21 308.54 166.98 313.17&#10;  Q 168.13 314.09 168.96 315.57&#10;  Q 169.06 315.75 168.85 315.74&#10;  Q 168.66 315.73 168.58 315.89&#10;  Q 168.44 316.17 168.18 315.99&#10;  Q 167.40 315.47 166.97 315.28&#10;  Q 165.74 314.75 166.55 315.84&#10;  L 170.33 320.94"/>
<path stroke="#1d2a14" d="&#10;  M 170.33 320.94&#10;  L 165.74 320.22"/>
<path stroke="#369852" d="&#10;  M 165.74 320.22&#10;  L 162.96 317.51"/>
<path stroke="#339148" d="&#10;  M 162.96 317.51&#10;  L 117.49 270.84"/>
<path stroke="#369852" d="&#10;  M 117.49 270.84&#10;  L 75.93 229.41"/>
<path stroke="#12240c" d="&#10;  M 61.35 206.73&#10;  Q 62.51 209.41 64.75 210.94&#10;  Q 65.13 211.20 66.00 212.53&#10;  A 0.27 0.27 0.0 0 1 65.75 212.95&#10;  Q 65.31 212.92 64.86 212.43&#10;  Q 62.67 210.15 53.74 200.18&#10;  Q 50.23 196.25 47.08 193.13&#10;  Q 45.53 191.59 45.53 193.77&#10;  L 45.53 195.80&#10;  Q 45.53 197.06 46.39 197.98&#10;  Q 54.01 206.10 59.23 210.79&#10;  C 60.27 211.71 61.62 213.36 62.84 214.50&#10;  Q 70.69 221.80 73.79 225.25&#10;  Q 75.04 226.64 75.93 229.41"/>
<path stroke="#28774b" d="&#10;  M 75.93 229.41&#10;  Q 75.57 228.82 75.05 228.48"/>
<path stroke="#246137" d="&#10;  M 75.05 228.48&#10;  Q 63.09 215.64 50.49 203.50&#10;  Q 44.53 197.76 38.25 191.74&#10;  Q 36.75 190.30 35.67 188.89&#10;  Q 34.49 187.33 33.04 185.93&#10;  Q 32.80 185.70 32.66 186.00&#10;  L 32.50 186.35&#10;  A 0.28 0.27 -53.7 0 0 32.54 186.64&#10;  Q 36.53 191.16 38.84 196.59"/>
<path stroke="#18084e" d="&#10;  M 61.03 206.08&#10;  Q 58.98 204.49 57.45 202.54&#10;  Q 54.50 198.80 54.34 198.62&#10;  Q 52.16 196.25 49.31 193.32&#10;  C 48.59 192.58 48.57 191.84 47.79 191.31&#10;  Q 47.36 191.03 47.14 190.56&#10;  Q 46.17 188.47 44.59 188.20&#10;  Q 44.11 188.11 43.85 187.69&#10;  Q 43.06 186.37 41.66 184.75&#10;  Q 31.76 173.20 24.59 165.08&#10;  C 22.74 162.99 16.24 163.29 18.95 168.09&#10;  Q 22.78 174.89 28.43 182.46&#10;  Q 30.02 184.59 33.43 189.65&#10;  Q 35.84 193.22 38.84 196.59"/>
<path stroke="#376680" d="&#10;  M 38.84 196.59&#10;  L 48.01 211.49"/>
<path stroke="#2f0e9f" d="&#10;  M 48.01 211.49&#10;  C 41.95 207.35 39.12 201.50 35.11 194.19&#10;  Q 34.80 193.62 34.37 193.27&#10;  Q 33.51 192.56 33.20 192.51&#10;  Q 31.34 192.18 32.03 193.99&#10;  Q 33.78 198.59 35.87 202.15&#10;  Q 37.19 204.39 43.04 214.09&#10;  Q 43.79 215.33 47.28 220.47&#10;  Q 49.45 223.65 51.18 227.10&#10;  C 52.32 229.39 53.60 231.26 54.93 233.32"/>
<path stroke="#3210a9" d="&#10;  M 54.93 233.32&#10;  L 85.22 289.22"/>
<path stroke="#2f0e9f" d="&#10;  M 85.22 289.22&#10;  Q 90.42 306.33 92.34 310.89&#10;  Q 101.76 333.19 109.81 346.33&#10;  Q 127.74 375.59 132.49 383.81&#10;  Q 146.95 408.82 158.05 426.64&#10;  Q 165.83 439.11 171.89 446.22"/>
<path stroke="#376680" d="&#10;  M 171.89 446.22&#10;  Q 173.08 448.18 174.12 450.29&#10;  Q 175.43 452.93 176.33 454.41&#10;  C 178.28 457.63 179.27 461.21 181.18 464.70&#10;  Q 183.91 469.69 187.47 477.49&#10;  Q 187.94 478.51 190.13 482.51&#10;  Q 191.50 484.99 192.37 487.77"/>
<path stroke="#3210a9" d="&#10;  M 142.72 470.07&#10;  Q 143.80 469.98 144.41 469.43&#10;  Q 144.79 469.08 144.54 468.62&#10;  Q 143.43 466.57 141.84 465.52&#10;  Q 137.59 462.71 131.46 460.31&#10;  Q 126.95 458.55 124.18 456.78&#10;  Q 123.13 456.11 112.58 449.21&#10;  Q 107.09 445.62 101.53 441.07&#10;  Q 95.55 436.17 85.64 428.25&#10;  Q 82.50 425.74 71.82 414.92&#10;  Q 65.76 408.80 59.25 400.61&#10;  Q 51.77 391.20 46.97 385.07&#10;  C 45.57 383.28 44.64 381.01 43.84 379.51&#10;  Q 37.32 367.33 34.36 360.34&#10;  C 33.17 357.55 31.05 355.18 29.78 352.62&#10;  Q 27.35 347.70 22.23 336.35&#10;  C 20.40 332.27 19.56 327.62 18.30 324.13&#10;  Q 17.13 320.90 15.99 317.80&#10;  Q 14.69 314.27 13.95 311.38&#10;  Q 9.31 293.29 7.62 275.48&#10;  Q 7.58 274.97 7.08 274.88&#10;  Q 5.08 274.48 2.93 275.87"/>
<path stroke="#230e56" d="&#10;  M 211.28 359.29&#10;  L 206.38 357.54"/>
<path stroke="#252954" d="&#10;  M 206.38 357.54&#10;  L 190.79 341.99"/>
<path stroke="#230e56" d="&#10;  M 190.79 341.99&#10;  Q 183.99 334.15 176.85 326.67&#10;  Q 174.52 324.23 172.55 322.87&#10;  Q 172.34 322.72 172.52 322.91&#10;  Q 172.53 322.92 172.59 323.17&#10;  Q 172.67 323.47 172.49 323.21&#10;  Q 171.47 321.72 170.33 320.94"/>
<path stroke="#230e56" d="&#10;  M 145.82 293.82&#10;  Q 146.06 292.33 144.97 291.76&#10;  Q 141.26 289.81 139.42 286.76&#10;  Q 138.89 285.88 138.72 286.34&#10;  Q 138.63 286.56 139.07 287.32"/>
<path stroke="#230e56" d="&#10;  M 109.87 255.42&#10;  L 137.12 283.90&#10;  Q 137.46 284.25 136.99 284.39&#10;  Q 136.75 284.46 136.30 284.15&#10;  Q 136.05 283.99 136.17 284.26&#10;  Q 136.25 284.47 136.58 284.67"/>
<path stroke="#246137" d="&#10;  M 233.01 493.20&#10;  Q 233.14 491.29 233.20 489.40&#10;  Q 233.26 487.20 233.52 485.62&#10;  Q 235.06 475.91 236.14 466.13&#10;  Q 236.16 465.89 238.76 448.71&#10;  Q 240.36 438.11 242.41 427.05"/>
<path stroke="#48d57d" d="&#10;  M 75.05 228.48&#10;  Q 72.72 234.83 72.21 241.75"/>
<path stroke="#3e6993" d="&#10;  M 74.71 259.31&#10;  L 56.12 225.76"/>
<path stroke="#3b6789" d="&#10;  M 56.12 225.76&#10;  L 48.01 211.49"/>
<path stroke="#49e487" d="&#10;  M 117.49 270.84&#10;  Q 117.33 272.21 116.65 273.04&#10;  Q 116.32 273.44 115.80 273.44&#10;  Q 114.70 273.43 113.62 272.77&#10;  Q 110.77 271.05 108.98 270.27&#10;  A 0.47 0.47 0.0 0 0 108.34 270.84&#10;  Q 108.80 272.33 109.75 273.51&#10;  Q 120.09 286.41 133.09 297.10&#10;  C 135.98 299.48 139.32 301.33 142.61 303.25&#10;  C 149.76 307.43 156.33 312.59 162.96 317.51"/>
<path stroke="#347d53" d="&#10;  M 165.74 320.22&#10;  L 167.42 322.10"/>
<path stroke="#369852" d="&#10;  M 167.42 322.10&#10;  L 209.97 365.01"/>
<path stroke="#3b6789" d="&#10;  M 163.71 429.52&#10;  L 171.89 446.22"/>
<path stroke="#1d2a14" d="&#10;  M 206.38 357.54&#10;  Q 213.31 364.68 220.51 371.57&#10;  C 222.70 373.66 224.70 376.43 227.04 378.70&#10;  Q 228.76 380.37 229.05 382.59"/>
<path stroke="#3e6993" d="&#10;  M 146.68 395.61&#10;  L 154.62 410.76"/>
<path stroke="#3611b2" d="&#10;  M 155.08 411.96&#10;  Q 150.75 408.06 147.45 403.37&#10;  C 139.54 392.11 134.05 379.97 127.87 368.30&#10;  Q 125.58 363.98 117.73 351.07&#10;  Q 105.76 331.38 95.91 310.76&#10;  Q 95.87 310.69 91.91 301.50&#10;  Q 89.14 295.06 85.22 289.22"/>
<path stroke="#1d2a14" d="&#10;  M 190.79 341.99&#10;  L 178.20 329.69&#10;  Q 178.12 329.61 178.05 329.66&#10;  Q 178.01 329.69 177.97 329.74&#10;  Q 177.82 329.88 177.77 329.72&#10;  Q 177.55 329.07 174.94 326.19&#10;  Q 171.76 322.65 167.42 322.10"/>
<path stroke="#3611b2" d="&#10;  M 56.12 225.76&#10;  Q 54.71 224.87 54.27 225.00&#10;  A 1.69 1.63 -16.5 0 0 53.11 227.04&#10;  L 54.93 233.32"/>
<path stroke="#a5f4c7" d="&#10;  M 251.17 233.02&#10;  L 272.02 186.96&#10;  A 0.45 0.45 0.0 0 0 271.61 186.32&#10;  L 229.84 186.73"/>
<path stroke="#8c8689" d="&#10;  M 229.84 186.73&#10;  Q 229.19 186.26 228.73 186.25&#10;  Q 224.20 186.11 219.46 186.14&#10;  A 0.54 0.54 0.0 0 0 218.98 186.92&#10;  Q 222.39 193.83 225.34 201.02&#10;  Q 227.74 206.87 231.86 215.04&#10;  Q 238.46 228.14 241.36 234.18&#10;  Q 243.44 238.51 245.70 242.45&#10;  Q 247.61 245.77 248.30 242.00&#10;  Q 248.94 238.49 251.17 233.02"/>
<path stroke="#347d53" d="&#10;  M 229.84 186.73&#10;  Q 230.05 187.97 230.56 189.10&#10;  Q 240.45 211.09 251.17 233.02"/>
<path stroke="#49e487" d="&#10;  M 311.73 238.45&#10;  Q 307.85 245.55 304.56 252.62&#10;  Q 303.39 255.13 295.59 269.85&#10;  C 293.63 273.55 291.09 277.19 289.50 280.65&#10;  Q 288.10 283.72 283.10 294.16&#10;  C 281.15 298.24 279.97 302.63 277.80 306.65&#10;  A 1.15 1.12 -44.1 0 0 277.77 307.65&#10;  Q 282.53 317.95 293.73 318.59&#10;  C 313.97 319.75 335.62 306.12 349.25 291.88&#10;  C 370.81 269.33 377.02 234.89 365.24 205.81&#10;  C 361.13 195.64 349.69 178.27 337.95 191.90&#10;  Q 333.89 196.63 331.46 201.34&#10;  Q 322.63 218.51 311.73 238.45"/>
<path stroke="#1d2a14" d="&#10;  M 158.27 306.90&#10;  Q 158.44 307.30 158.74 307.47&#10;  Q 159.59 307.96 159.09 307.04&#10;  Q 158.89 306.67 158.41 306.68&#10;  Q 158.17 306.68 158.27 306.90"/>
<path stroke="#1d2a14" d="&#10;  M 161.50 310.53&#10;  A 0.03 0.03 0.0 0 0 161.47 310.50&#10;  A 0.03 0.03 0.0 0 0 161.44 310.53&#10;  A 0.03 0.03 0.0 0 0 161.47 310.56&#10;  A 0.03 0.03 0.0 0 0 161.50 310.53"/>
<path stroke="#230e56" d="&#10;  M 148.98 296.54&#10;  Q 147.63 295.64 146.77 294.29&#10;  Q 146.69 294.16 146.60 294.24&#10;  L 146.59 294.24&#10;  Q 146.50 294.33 146.54 294.42&#10;  Q 147.38 296.17 149.01 297.28&#10;  Q 149.12 297.35 149.12 297.22&#10;  L 149.12 296.81&#10;  Q 149.12 296.64 148.98 296.54"/>
</g>
<path fill="#e5e4e4" d="&#10;  M 376.60 37.61&#10;  L 357.75 79.30&#10;  Q 338.66 65.21 320.59 55.75&#10;  C 274.00 31.34 215.09 32.95 168.39 55.39&#10;  Q 149.54 64.45 135.55 78.72&#10;  Q 135.20 79.07 135.33 79.55&#10;  Q 136.88 85.09 138.47 90.24&#10;  Q 139.52 93.63 147.66 110.00&#10;  Q 148.40 111.49 149.04 113.03&#10;  Q 149.29 113.63 149.23 115.85&#10;  Q 149.12 119.94 148.85 123.98&#10;  L 124.45 68.04&#10;  Q 121.24 59.89 117.80 51.92&#10;  Q 115.13 45.72 113.71 39.48&#10;  Q 115.70 38.37 117.46 37.24&#10;  Q 119.73 35.79 121.20 34.98&#10;  Q 142.14 23.48 163.01 15.49&#10;  Q 172.93 11.70 184.48 8.74&#10;  Q 195.44 5.94 214.11 3.14&#10;  Q 222.32 1.91 234.04 1.49&#10;  Q 294.13 -0.64 349.39 23.84&#10;  Q 357.63 27.49 376.60 37.61&#10;  Z"/>
<path fill="#fdfdfd" d="&#10;  M 357.75 79.30&#10;  Q 353.09 89.80 348.58 100.49&#10;  Q 345.47 107.85 340.67 118.84&#10;  Q 333.54 135.18 327.62 149.16&#10;  Q 314.81 179.39 293.51 223.90&#10;  C 292.07 226.90 289.96 230.39 288.46 233.56&#10;  Q 285.55 239.76 284.93 240.93&#10;  Q 268.84 271.50 266.23 275.98&#10;  Q 251.03 302.05 250.05 303.63&#10;  Q 248.59 306.01 245.94 306.98&#10;  Q 242.88 308.10 240.95 308.95&#10;  Q 238.73 309.94 237.57 313.08&#10;  Q 236.26 310.85 235.20 308.43&#10;  Q 233.78 305.18 233.02 303.70&#10;  C 229.57 297.00 226.73 290.23 223.35 284.11&#10;  Q 221.78 281.27 217.68 272.94&#10;  Q 214.26 266.01 212.08 261.77&#10;  Q 205.97 249.93 199.08 235.40&#10;  C 197.58 232.24 194.81 227.40 193.13 223.49&#10;  Q 189.63 215.36 184.83 205.61&#10;  Q 180.80 197.42 176.56 187.73&#10;  Q 162.62 155.90 148.85 123.98&#10;  Q 149.12 119.94 149.23 115.85&#10;  Q 149.29 113.63 149.04 113.03&#10;  Q 148.40 111.49 147.66 110.00&#10;  Q 139.52 93.63 138.47 90.24&#10;  Q 136.88 85.09 135.33 79.55&#10;  Q 135.20 79.07 135.55 78.72&#10;  Q 149.54 64.45 168.39 55.39&#10;  C 215.09 32.95 274.00 31.34 320.59 55.75&#10;  Q 338.66 65.21 357.75 79.30&#10;  Z&#10;  M 251.17 233.02&#10;  L 272.02 186.96&#10;  A 0.45 0.45 0.0 0 0 271.61 186.32&#10;  L 229.84 186.73&#10;  Q 229.19 186.26 228.73 186.25&#10;  Q 224.20 186.11 219.46 186.14&#10;  A 0.54 0.54 0.0 0 0 218.98 186.92&#10;  Q 222.39 193.83 225.34 201.02&#10;  Q 227.74 206.87 231.86 215.04&#10;  Q 238.46 228.14 241.36 234.18&#10;  Q 243.44 238.51 245.70 242.45&#10;  Q 247.61 245.77 248.30 242.00&#10;  Q 248.94 238.49 251.17 233.02&#10;  Z"/>
<path fill="#1b0f15" d="&#10;  M 389.33 46.68&#10;  L 338.92 167.73&#10;  C 333.82 178.72 328.89 190.97 324.15 200.96&#10;  Q 313.18 224.10 287.96 275.93&#10;  Q 275.26 302.02 270.45 311.47&#10;  Q 265.98 311.08 261.48 310.87&#10;  Q 257.08 310.66 252.59 311.56&#10;  Q 244.08 313.27 241.08 314.31&#10;  Q 238.84 315.10 237.57 313.08&#10;  Q 238.73 309.94 240.95 308.95&#10;  Q 242.88 308.10 245.94 306.98&#10;  Q 248.59 306.01 250.05 303.63&#10;  Q 251.03 302.05 266.23 275.98&#10;  Q 268.84 271.50 284.93 240.93&#10;  Q 285.55 239.76 288.46 233.56&#10;  C 289.96 230.39 292.07 226.90 293.51 223.90&#10;  Q 314.81 179.39 327.62 149.16&#10;  Q 333.54 135.18 340.67 118.84&#10;  Q 345.47 107.85 348.58 100.49&#10;  Q 353.09 89.80 357.75 79.30&#10;  L 376.60 37.61&#10;  L 389.33 46.68&#10;  Z"/>
<path fill="#320fa8" d="&#10;  M 113.71 39.48&#10;  Q 115.13 45.72 117.80 51.92&#10;  Q 121.24 59.89 124.45 68.04&#10;  Q 122.96 72.32 124.56 76.05&#10;  Q 128.59 85.40 141.85 114.13&#10;  Q 141.98 114.41 142.23 114.66&#10;  Q 142.57 114.99 142.63 115.16&#10;  Q 145.35 122.75 146.54 125.35&#10;  A 0.30 0.28 -29.3 0 1 146.43 125.71&#10;  Q 146.23 125.84 146.21 125.89&#10;  Q 143.22 133.95 140.22 140.76&#10;  Q 138.11 145.54 128.52 162.91&#10;  Q 123.49 172.02 120.07 182.22&#10;  C 113.54 201.67 114.51 222.13 122.15 241.24&#10;  Q 127.36 254.31 137.76 268.77&#10;  Q 155.85 293.95 183.09 303.57&#10;  C 187.18 305.02 194.83 307.77 200.12 309.16&#10;  Q 216.75 313.53 229.95 318.02&#10;  Q 244.40 322.94 257.32 333.49&#10;  Q 257.72 333.82 257.49 334.28&#10;  Q 252.94 343.40 250.88 353.40&#10;  Q 250.60 354.75 251.14 355.49&#10;  Q 251.83 356.44 253.28 356.55&#10;  Q 249.46 370.22 247.39 379.88&#10;  Q 245.97 386.54 246.21 394.46&#10;  Q 245.74 393.90 245.22 394.12&#10;  A 1.57 1.47 59.9 0 1 243.44 393.58&#10;  C 242.12 391.80 240.57 389.74 239.25 388.38&#10;  Q 225.24 373.94 211.28 359.29&#10;  Q 203.75 350.38 195.92 341.66&#10;  Q 190.89 336.07 185.79 331.29&#10;  Q 179.54 325.44 174.83 320.59&#10;  Q 173.60 319.33 173.21 318.58&#10;  Q 172.75 317.66 172.01 317.24&#10;  A 1.70 1.65 -89.2 0 1 171.34 316.53&#10;  Q 170.84 315.56 170.43 315.11&#10;  Q 162.75 306.63 160.27 304.23&#10;  Q 144.89 289.32 129.52 274.40&#10;  C 124.86 269.87 116.87 261.37 109.87 255.42&#10;  L 91.75 238.78&#10;  Q 89.28 236.51 86.77 234.32&#10;  Q 85.43 233.16 84.73 232.18&#10;  C 83.23 230.08 81.65 229.32 80.14 227.25&#10;  Q 79.37 226.19 77.44 224.31&#10;  Q 77.04 223.93 76.96 223.39&#10;  Q 76.78 222.16 75.67 221.91&#10;  Q 75.16 221.79 74.82 221.38&#10;  L 72.22 218.13&#10;  L 75.52 220.48&#10;  Q 83.30 229.77 92.76 237.29&#10;  Q 92.79 237.32 92.82 237.29&#10;  L 93.03 237.07&#10;  Q 93.20 236.90 93.03 236.73&#10;  Q 85.22 228.53 78.96 223.03&#10;  Q 78.31 222.46 75.52 220.48&#10;  L 70.68 216.55&#10;  L 61.35 206.73&#10;  Q 61.03 206.46 61.03 206.08&#10;  C 56.75 190.66 58.77 177.93 65.15 162.97&#10;  Q 73.85 142.55 86.36 124.31&#10;  C 92.18 115.82 99.95 106.65 106.87 97.96&#10;  Q 112.10 91.38 114.88 85.66&#10;  C 121.67 71.66 116.27 59.29 108.59 47.07&#10;  Q 108.31 46.64 107.84 46.83&#10;  Q 105.85 47.65 104.29 48.81&#10;  Q 98.16 53.38 91.60 58.63&#10;  Q 89.70 60.15 89.00 60.98&#10;  Q 87.94 62.22 86.49 63.47&#10;  Q 85.42 64.40 82.81 67.26&#10;  Q 61.00 91.27 57.61 95.37&#10;  Q 53.01 100.94 49.89 105.87&#10;  Q 43.36 116.19 38.86 125.85&#10;  Q 37.30 129.20 31.83 139.56&#10;  Q 27.37 147.98 23.41 158.34&#10;  Q 22.07 161.82 18.05 162.99&#10;  Q 17.53 163.14 17.34 162.64&#10;  L 16.92 161.53&#10;  Q 18.47 156.76 20.41 152.15&#10;  Q 39.47 106.85 72.62 73.12&#10;  Q 90.30 55.14 113.71 39.48&#10;  Z"/>
<path fill="#2b0d96" d="&#10;  M 61.03 206.08&#10;  Q 58.98 204.49 57.45 202.54&#10;  Q 54.50 198.80 54.34 198.62&#10;  Q 52.16 196.25 49.31 193.32&#10;  C 48.59 192.58 48.57 191.84 47.79 191.31&#10;  Q 47.36 191.03 47.14 190.56&#10;  Q 46.17 188.47 44.59 188.20&#10;  Q 44.11 188.11 43.85 187.69&#10;  Q 43.06 186.37 41.66 184.75&#10;  Q 31.76 173.20 24.59 165.08&#10;  C 22.74 162.99 16.24 163.29 18.95 168.09&#10;  Q 22.78 174.89 28.43 182.46&#10;  Q 30.02 184.59 33.43 189.65&#10;  Q 35.84 193.22 38.84 196.59&#10;  L 48.01 211.49&#10;  C 41.95 207.35 39.12 201.50 35.11 194.19&#10;  Q 34.80 193.62 34.37 193.27&#10;  Q 33.51 192.56 33.20 192.51&#10;  Q 31.34 192.18 32.03 193.99&#10;  Q 33.78 198.59 35.87 202.15&#10;  Q 37.19 204.39 43.04 214.09&#10;  Q 43.79 215.33 47.28 220.47&#10;  Q 49.45 223.65 51.18 227.10&#10;  C 52.32 229.39 53.60 231.26 54.93 233.32&#10;  L 85.22 289.22&#10;  Q 90.42 306.33 92.34 310.89&#10;  Q 101.76 333.19 109.81 346.33&#10;  Q 127.74 375.59 132.49 383.81&#10;  Q 146.95 408.82 158.05 426.64&#10;  Q 165.83 439.11 171.89 446.22&#10;  Q 173.08 448.18 174.12 450.29&#10;  Q 175.43 452.93 176.33 454.41&#10;  C 178.28 457.63 179.27 461.21 181.18 464.70&#10;  Q 183.91 469.69 187.47 477.49&#10;  Q 187.94 478.51 190.13 482.51&#10;  Q 191.50 484.99 192.37 487.77&#10;  Q 171.76 482.29 152.68 474.83&#10;  Q 149.26 473.50 142.72 470.07&#10;  Q 143.80 469.98 144.41 469.43&#10;  Q 144.79 469.08 144.54 468.62&#10;  Q 143.43 466.57 141.84 465.52&#10;  Q 137.59 462.71 131.46 460.31&#10;  Q 126.95 458.55 124.18 456.78&#10;  Q 123.13 456.11 112.58 449.21&#10;  Q 107.09 445.62 101.53 441.07&#10;  Q 95.55 436.17 85.64 428.25&#10;  Q 82.50 425.74 71.82 414.92&#10;  Q 65.76 408.80 59.25 400.61&#10;  Q 51.77 391.20 46.97 385.07&#10;  C 45.57 383.28 44.64 381.01 43.84 379.51&#10;  Q 37.32 367.33 34.36 360.34&#10;  C 33.17 357.55 31.05 355.18 29.78 352.62&#10;  Q 27.35 347.70 22.23 336.35&#10;  C 20.40 332.27 19.56 327.62 18.30 324.13&#10;  Q 17.13 320.90 15.99 317.80&#10;  Q 14.69 314.27 13.95 311.38&#10;  Q 9.31 293.29 7.62 275.48&#10;  Q 7.58 274.97 7.08 274.88&#10;  Q 5.08 274.48 2.93 275.87&#10;  Q -0.67 244.25 3.64 213.91&#10;  Q 7.39 187.56 16.92 161.53&#10;  L 17.34 162.64&#10;  Q 17.53 163.14 18.05 162.99&#10;  Q 22.07 161.82 23.41 158.34&#10;  Q 27.37 147.98 31.83 139.56&#10;  Q 37.30 129.20 38.86 125.85&#10;  Q 43.36 116.19 49.89 105.87&#10;  Q 53.01 100.94 57.61 95.37&#10;  Q 61.00 91.27 82.81 67.26&#10;  Q 85.42 64.40 86.49 63.47&#10;  Q 87.94 62.22 89.00 60.98&#10;  Q 89.70 60.15 91.60 58.63&#10;  Q 98.16 53.38 104.29 48.81&#10;  Q 105.85 47.65 107.84 46.83&#10;  Q 108.31 46.64 108.59 47.07&#10;  C 116.27 59.29 121.67 71.66 114.88 85.66&#10;  Q 112.10 91.38 106.87 97.96&#10;  C 99.95 106.65 92.18 115.82 86.36 124.31&#10;  Q 73.85 142.55 65.15 162.97&#10;  C 58.77 177.93 56.75 190.66 61.03 206.08&#10;  Z"/>
<path fill="#43be69" d="&#10;  M 389.33 46.68&#10;  Q 409.47 60.10 425.20 77.04&#10;  C 434.70 87.28 443.70 98.14 451.33 109.63&#10;  Q 477.07 148.42 486.82 194.30&#10;  Q 487.38 196.96 488.01 201.73&#10;  Q 488.53 205.64 489.25 209.15&#10;  L 414.87 267.34&#10;  Q 419.75 255.27 422.41 246.93&#10;  Q 430.27 222.31 425.85 196.57&#10;  C 421.65 172.06 410.80 144.81 392.02 128.05&#10;  Q 382.00 119.10 367.56 115.58&#10;  Q 367.06 115.46 366.84 115.92&#10;  Q 362.66 124.82 361.91 126.35&#10;  Q 359.24 131.76 356.81 137.18&#10;  Q 352.47 146.86 347.56 156.26&#10;  C 345.06 161.05 343.54 164.54 338.92 167.73&#10;  L 389.33 46.68&#10;  Z"/>
<path fill="#3913bc" d="&#10;  M 124.45 68.04&#10;  L 148.85 123.98&#10;  Q 162.62 155.90 176.56 187.73&#10;  Q 180.80 197.42 184.83 205.61&#10;  Q 189.63 215.36 193.13 223.49&#10;  C 194.81 227.40 197.58 232.24 199.08 235.40&#10;  Q 205.97 249.93 212.08 261.77&#10;  Q 214.26 266.01 217.68 272.94&#10;  Q 221.78 281.27 223.35 284.11&#10;  C 226.73 290.23 229.57 297.00 233.02 303.70&#10;  Q 233.78 305.18 235.20 308.43&#10;  Q 236.26 310.85 237.57 313.08&#10;  Q 238.84 315.10 241.08 314.31&#10;  Q 244.08 313.27 252.59 311.56&#10;  Q 257.08 310.66 261.48 310.87&#10;  Q 265.98 311.08 270.45 311.47&#10;  L 253.28 356.55&#10;  Q 251.83 356.44 251.14 355.49&#10;  Q 250.60 354.75 250.88 353.40&#10;  Q 252.94 343.40 257.49 334.28&#10;  Q 257.72 333.82 257.32 333.49&#10;  Q 244.40 322.94 229.95 318.02&#10;  Q 216.75 313.53 200.12 309.16&#10;  C 194.83 307.77 187.18 305.02 183.09 303.57&#10;  Q 155.85 293.95 137.76 268.77&#10;  Q 127.36 254.31 122.15 241.24&#10;  C 114.51 222.13 113.54 201.67 120.07 182.22&#10;  Q 123.49 172.02 128.52 162.91&#10;  Q 138.11 145.54 140.22 140.76&#10;  Q 143.22 133.95 146.21 125.89&#10;  Q 146.23 125.84 146.43 125.71&#10;  A 0.30 0.28 -29.3 0 0 146.54 125.35&#10;  Q 145.35 122.75 142.63 115.16&#10;  Q 142.57 114.99 142.23 114.66&#10;  Q 141.98 114.41 141.85 114.13&#10;  Q 128.59 85.40 124.56 76.05&#10;  Q 122.96 72.32 124.45 68.04&#10;  Z"/>
<path fill="#46dc7d" d="&#10;  M 414.87 267.34&#10;  Q 395.01 283.04 375.33 299.15&#10;  C 370.51 303.10 365.04 307.03 359.75 311.25&#10;  Q 309.26 351.61 253.12 395.12&#10;  Q 250.88 396.86 248.14 398.93&#10;  Q 246.74 399.98 246.56 401.76&#10;  Q 246.35 403.81 245.97 405.84&#10;  Q 243.92 416.64 242.41 427.05&#10;  Q 225.34 442.01 201.15 446.86&#10;  Q 186.31 449.84 174.94 440.49&#10;  Q 169.61 436.11 163.71 429.52&#10;  L 155.08 411.96&#10;  L 154.62 410.76&#10;  Q 152.00 402.51 146.68 395.61&#10;  L 74.71 259.31&#10;  L 70.38 242.69&#10;  A 1.39 1.28 -12.9 0 1 71.48 241.08&#10;  Q 71.58 241.06 72.21 241.75&#10;  Q 81.11 259.30 91.01 276.44&#10;  Q 93.71 281.11 100.35 295.87&#10;  Q 103.06 301.88 111.75 316.77&#10;  C 119.54 330.14 125.67 342.15 132.23 354.48&#10;  Q 140.50 370.04 151.08 383.08&#10;  Q 163.19 398.00 181.50 398.88&#10;  C 191.88 399.38 202.60 397.25 211.93 392.37&#10;  Q 220.72 387.78 220.47 378.29&#10;  Q 220.46 377.79 220.14 377.40&#10;  L 209.97 365.01&#10;  Q 211.54 366.34 213.00 367.75&#10;  Q 216.19 370.81 219.43 373.81&#10;  Q 219.50 373.88 223.86 378.31&#10;  Q 226.23 380.71 229.05 382.59&#10;  L 245.50 398.30&#10;  A 0.74 0.74 0.0 0 0 246.75 397.64&#10;  L 246.21 394.46&#10;  Q 245.97 386.54 247.39 379.88&#10;  Q 249.46 370.22 253.28 356.55&#10;  L 270.45 311.47&#10;  Q 275.26 302.02 287.96 275.93&#10;  Q 313.18 224.10 324.15 200.96&#10;  C 328.89 190.97 333.82 178.72 338.92 167.73&#10;  C 343.54 164.54 345.06 161.05 347.56 156.26&#10;  Q 352.47 146.86 356.81 137.18&#10;  Q 359.24 131.76 361.91 126.35&#10;  Q 362.66 124.82 366.84 115.92&#10;  Q 367.06 115.46 367.56 115.58&#10;  Q 382.00 119.10 392.02 128.05&#10;  C 410.80 144.81 421.65 172.06 425.85 196.57&#10;  Q 430.27 222.31 422.41 246.93&#10;  Q 419.75 255.27 414.87 267.34&#10;  Z&#10;  M 311.73 238.45&#10;  Q 307.85 245.55 304.56 252.62&#10;  Q 303.39 255.13 295.59 269.85&#10;  C 293.63 273.55 291.09 277.19 289.50 280.65&#10;  Q 288.10 283.72 283.10 294.16&#10;  C 281.15 298.24 279.97 302.63 277.80 306.65&#10;  A 1.15 1.12 -44.1 0 0 277.77 307.65&#10;  Q 282.53 317.95 293.73 318.59&#10;  C 313.97 319.75 335.62 306.12 349.25 291.88&#10;  C 370.81 269.33 377.02 234.89 365.24 205.81&#10;  C 361.13 195.64 349.69 178.27 337.95 191.90&#10;  Q 333.89 196.63 331.46 201.34&#10;  Q 322.63 218.51 311.73 238.45&#10;  Z"/>
<path fill="#040305" d="&#10;  M 61.03 206.08&#10;  Q 61.03 206.46 61.35 206.73&#10;  Q 62.51 209.41 64.75 210.94&#10;  Q 65.13 211.20 66.00 212.53&#10;  A 0.27 0.27 0.0 0 1 65.75 212.95&#10;  Q 65.31 212.92 64.86 212.43&#10;  Q 62.67 210.15 53.74 200.18&#10;  Q 50.23 196.25 47.08 193.13&#10;  Q 45.53 191.59 45.53 193.77&#10;  L 45.53 195.80&#10;  Q 45.53 197.06 46.39 197.98&#10;  Q 54.01 206.10 59.23 210.79&#10;  C 60.27 211.71 61.62 213.36 62.84 214.50&#10;  Q 70.69 221.80 73.79 225.25&#10;  Q 75.04 226.64 75.93 229.41&#10;  Q 75.57 228.82 75.05 228.48&#10;  Q 63.09 215.64 50.49 203.50&#10;  Q 44.53 197.76 38.25 191.74&#10;  Q 36.75 190.30 35.67 188.89&#10;  Q 34.49 187.33 33.04 185.93&#10;  Q 32.80 185.70 32.66 186.00&#10;  L 32.50 186.35&#10;  A 0.28 0.27 -53.7 0 0 32.54 186.64&#10;  Q 36.53 191.16 38.84 196.59&#10;  Q 35.84 193.22 33.43 189.65&#10;  Q 30.02 184.59 28.43 182.46&#10;  Q 22.78 174.89 18.95 168.09&#10;  C 16.24 163.29 22.74 162.99 24.59 165.08&#10;  Q 31.76 173.20 41.66 184.75&#10;  Q 43.06 186.37 43.85 187.69&#10;  Q 44.11 188.11 44.59 188.20&#10;  Q 46.17 188.47 47.14 190.56&#10;  Q 47.36 191.03 47.79 191.31&#10;  C 48.57 191.84 48.59 192.58 49.31 193.32&#10;  Q 52.16 196.25 54.34 198.62&#10;  Q 54.50 198.80 57.45 202.54&#10;  Q 58.98 204.49 61.03 206.08&#10;  Z"/>
<path fill="#4ceb91" d="&#10;  M 311.73 238.45&#10;  Q 322.63 218.51 331.46 201.34&#10;  Q 333.89 196.63 337.95 191.90&#10;  C 349.69 178.27 361.13 195.64 365.24 205.81&#10;  C 377.02 234.89 370.81 269.33 349.25 291.88&#10;  C 335.62 306.12 313.97 319.75 293.73 318.59&#10;  Q 282.53 317.95 277.77 307.65&#10;  A 1.15 1.12 -44.1 0 1 277.80 306.65&#10;  C 279.97 302.63 281.15 298.24 283.10 294.16&#10;  Q 288.10 283.72 289.50 280.65&#10;  C 291.09 277.19 293.63 273.55 295.59 269.85&#10;  Q 303.39 255.13 304.56 252.62&#10;  Q 307.85 245.55 311.73 238.45&#10;  Z"/>
<path fill="#43be69" d="&#10;  M 75.05 228.48&#10;  Q 72.72 234.83 72.21 241.75&#10;  Q 71.58 241.06 71.48 241.08&#10;  A 1.39 1.28 -12.9 0 0 70.38 242.69&#10;  L 74.71 259.31&#10;  L 56.12 225.76&#10;  L 48.01 211.49&#10;  L 38.84 196.59&#10;  Q 36.53 191.16 32.54 186.64&#10;  A 0.28 0.27 -53.7 0 1 32.50 186.35&#10;  L 32.66 186.00&#10;  Q 32.80 185.70 33.04 185.93&#10;  Q 34.49 187.33 35.67 188.89&#10;  Q 36.75 190.30 38.25 191.74&#10;  Q 44.53 197.76 50.49 203.50&#10;  Q 63.09 215.64 75.05 228.48&#10;  Z"/>
<path fill="#1b0f15" d="&#10;  M 229.84 186.73&#10;  Q 230.05 187.97 230.56 189.10&#10;  Q 240.45 211.09 251.17 233.02&#10;  Q 248.94 238.49 248.30 242.00&#10;  Q 247.61 245.77 245.70 242.45&#10;  Q 243.44 238.51 241.36 234.18&#10;  Q 238.46 228.14 231.86 215.04&#10;  Q 227.74 206.87 225.34 201.02&#10;  Q 222.39 193.83 218.98 186.92&#10;  A 0.54 0.54 0.0 0 1 219.46 186.14&#10;  Q 224.20 186.11 228.73 186.25&#10;  Q 229.19 186.26 229.84 186.73&#10;  Z"/>
<path fill="#4ceb91" d="&#10;  M 251.17 233.02&#10;  Q 240.45 211.09 230.56 189.10&#10;  Q 230.05 187.97 229.84 186.73&#10;  L 271.61 186.32&#10;  A 0.45 0.45 0.0 0 1 272.02 186.96&#10;  L 251.17 233.02&#10;  Z"/>
<path fill="#320fa8" d="&#10;  M 48.01 211.49&#10;  L 56.12 225.76&#10;  Q 54.71 224.87 54.27 225.00&#10;  A 1.69 1.63 -16.5 0 0 53.11 227.04&#10;  L 54.93 233.32&#10;  C 53.60 231.26 52.32 229.39 51.18 227.10&#10;  Q 49.45 223.65 47.28 220.47&#10;  Q 43.79 215.33 43.04 214.09&#10;  Q 37.19 204.39 35.87 202.15&#10;  Q 33.78 198.59 32.03 193.99&#10;  Q 31.34 192.18 33.20 192.51&#10;  Q 33.51 192.56 34.37 193.27&#10;  Q 34.80 193.62 35.11 194.19&#10;  C 39.12 201.50 41.95 207.35 48.01 211.49&#10;  Z"/>
<path fill="#1f4512" d="&#10;  M 61.35 206.73&#10;  L 70.68 216.55&#10;  Q 70.94 217.65 72.22 218.13&#10;  L 74.82 221.38&#10;  Q 75.16 221.79 75.67 221.91&#10;  Q 76.78 222.16 76.96 223.39&#10;  Q 77.04 223.93 77.44 224.31&#10;  Q 79.37 226.19 80.14 227.25&#10;  C 81.65 229.32 83.23 230.08 84.73 232.18&#10;  Q 85.43 233.16 86.77 234.32&#10;  Q 89.28 236.51 91.75 238.78&#10;  Q 97.59 246.92 104.15 254.47&#10;  Q 104.71 255.12 106.99 256.92&#10;  C 110.30 259.54 112.84 263.00 116.37 267.13&#10;  Q 122.72 274.57 136.58 284.67&#10;  L 139.07 287.32&#10;  L 145.82 293.82&#10;  L 151.70 300.82&#10;  A 0.72 0.07 63.7 0 1 151.89 301.13&#10;  Q 151.99 301.32 152.14 301.42&#10;  Q 152.35 301.58 152.30 301.36&#10;  L 152.07 300.42&#10;  Q 151.95 299.96 151.47 299.80&#10;  Q 150.72 299.54 150.30 298.82&#10;  Q 149.87 298.07 150.56 298.59&#10;  Q 152.55 300.07 152.78 300.48&#10;  Q 154.03 302.72 155.47 303.89&#10;  Q 161.21 308.54 166.98 313.17&#10;  Q 168.13 314.09 168.96 315.57&#10;  Q 169.06 315.75 168.85 315.74&#10;  Q 168.66 315.73 168.58 315.89&#10;  Q 168.44 316.17 168.18 315.99&#10;  Q 167.40 315.47 166.97 315.28&#10;  Q 165.74 314.75 166.55 315.84&#10;  L 170.33 320.94&#10;  L 165.74 320.22&#10;  L 162.96 317.51&#10;  L 117.49 270.84&#10;  L 75.93 229.41&#10;  Q 75.04 226.64 73.79 225.25&#10;  Q 70.69 221.80 62.84 214.50&#10;  C 61.62 213.36 60.27 211.71 59.23 210.79&#10;  Q 54.01 206.10 46.39 197.98&#10;  Q 45.53 197.06 45.53 195.80&#10;  L 45.53 193.77&#10;  Q 45.53 191.59 47.08 193.13&#10;  Q 50.23 196.25 53.74 200.18&#10;  Q 62.67 210.15 64.86 212.43&#10;  Q 65.31 212.92 65.75 212.95&#10;  A 0.27 0.27 0.0 0 0 66.00 212.53&#10;  Q 65.13 211.20 64.75 210.94&#10;  Q 62.51 209.41 61.35 206.73&#10;  Z&#10;  M 158.27 306.90&#10;  Q 158.44 307.30 158.74 307.47&#10;  Q 159.59 307.96 159.09 307.04&#10;  Q 158.89 306.67 158.41 306.68&#10;  Q 158.17 306.68 158.27 306.90&#10;  Z&#10;  M 161.50 310.53&#10;  A 0.03 0.03 0.0 0 0 161.47 310.50&#10;  A 0.03 0.03 0.0 0 0 161.44 310.53&#10;  A 0.03 0.03 0.0 0 0 161.47 310.56&#10;  A 0.03 0.03 0.0 0 0 161.50 310.53&#10;  Z"/>
<path fill="#040305" d="&#10;  M 489.25 209.15&#10;  Q 490.16 213.73 490.51 218.38&#10;  Q 491.04 225.35 491.30 227.62&#10;  Q 493.20 244.38 492.16 261.24&#10;  Q 491.38 273.83 489.05 289.22&#10;  Q 486.87 303.57 482.15 319.08&#10;  Q 469.32 361.26 443.12 395.87&#10;  Q 408.40 441.71 357.29 467.28&#10;  Q 335.17 478.35 309.01 485.53&#10;  Q 303.41 487.06 298.33 487.92&#10;  Q 294.63 488.55 291.14 489.34&#10;  Q 288.36 489.97 283.91 490.63&#10;  Q 258.63 494.38 233.01 493.20&#10;  Q 233.14 491.29 233.20 489.40&#10;  Q 233.26 487.20 233.52 485.62&#10;  Q 235.06 475.91 236.14 466.13&#10;  Q 236.16 465.89 238.76 448.71&#10;  Q 240.36 438.11 242.41 427.05&#10;  Q 243.92 416.64 245.97 405.84&#10;  Q 246.35 403.81 246.56 401.76&#10;  Q 246.74 399.98 248.14 398.93&#10;  Q 250.88 396.86 253.12 395.12&#10;  Q 309.26 351.61 359.75 311.25&#10;  C 365.04 307.03 370.51 303.10 375.33 299.15&#10;  Q 395.01 283.04 414.87 267.34&#10;  L 489.25 209.15&#10;  Z"/>
<path fill="#2b0d96" d="&#10;  M 75.52 220.48&#10;  L 72.22 218.13&#10;  Q 70.94 217.65 70.68 216.55&#10;  L 75.52 220.48&#10;  Z"/>
<path fill="#2b0d96" d="&#10;  M 75.52 220.48&#10;  Q 78.31 222.46 78.96 223.03&#10;  Q 85.22 228.53 93.03 236.73&#10;  Q 93.20 236.90 93.03 237.07&#10;  L 92.82 237.29&#10;  Q 92.79 237.32 92.76 237.29&#10;  Q 83.30 229.77 75.52 220.48&#10;  Z"/>
<path fill="#3913bc" d="&#10;  M 56.12 225.76&#10;  L 74.71 259.31&#10;  L 146.68 395.61&#10;  L 154.62 410.76&#10;  L 155.08 411.96&#10;  Q 150.75 408.06 147.45 403.37&#10;  C 139.54 392.11 134.05 379.97 127.87 368.30&#10;  Q 125.58 363.98 117.73 351.07&#10;  Q 105.76 331.38 95.91 310.76&#10;  Q 95.87 310.69 91.91 301.50&#10;  Q 89.14 295.06 85.22 289.22&#10;  L 54.93 233.32&#10;  L 53.11 227.04&#10;  A 1.69 1.63 -16.5 0 1 54.27 225.00&#10;  Q 54.71 224.87 56.12 225.76&#10;  Z"/>
<path fill="#4ceb91" d="&#10;  M 75.05 228.48&#10;  Q 75.57 228.82 75.93 229.41&#10;  L 117.49 270.84&#10;  Q 117.33 272.21 116.65 273.04&#10;  Q 116.32 273.44 115.80 273.44&#10;  Q 114.70 273.43 113.62 272.77&#10;  Q 110.77 271.05 108.98 270.27&#10;  A 0.47 0.47 0.0 0 0 108.34 270.84&#10;  Q 108.80 272.33 109.75 273.51&#10;  Q 120.09 286.41 133.09 297.10&#10;  C 135.98 299.48 139.32 301.33 142.61 303.25&#10;  C 149.76 307.43 156.33 312.59 162.96 317.51&#10;  L 165.74 320.22&#10;  L 167.42 322.10&#10;  L 209.97 365.01&#10;  L 220.14 377.40&#10;  Q 220.46 377.79 220.47 378.29&#10;  Q 220.72 387.78 211.93 392.37&#10;  C 202.60 397.25 191.88 399.38 181.50 398.88&#10;  Q 163.19 398.00 151.08 383.08&#10;  Q 140.50 370.04 132.23 354.48&#10;  C 125.67 342.15 119.54 330.14 111.75 316.77&#10;  Q 103.06 301.88 100.35 295.87&#10;  Q 93.71 281.11 91.01 276.44&#10;  Q 81.11 259.30 72.21 241.75&#10;  Q 72.72 234.83 75.05 228.48&#10;  Z"/>
<path fill="#1b0f15" d="&#10;  M 109.87 255.42&#10;  L 137.12 283.90&#10;  Q 137.46 284.25 136.99 284.39&#10;  Q 136.75 284.46 136.30 284.15&#10;  Q 136.05 283.99 136.17 284.26&#10;  Q 136.25 284.47 136.58 284.67&#10;  Q 122.72 274.57 116.37 267.13&#10;  C 112.84 263.00 110.30 259.54 106.99 256.92&#10;  Q 104.71 255.12 104.15 254.47&#10;  Q 97.59 246.92 91.75 238.78&#10;  L 109.87 255.42&#10;  Z"/>
<path fill="#2b0d96" d="&#10;  M 109.87 255.42&#10;  C 116.87 261.37 124.86 269.87 129.52 274.40&#10;  Q 144.89 289.32 160.27 304.23&#10;  Q 162.75 306.63 170.43 315.11&#10;  Q 170.84 315.56 171.34 316.53&#10;  A 1.70 1.65 -89.2 0 0 172.01 317.24&#10;  Q 172.75 317.66 173.21 318.58&#10;  Q 173.60 319.33 174.83 320.59&#10;  Q 179.54 325.44 185.79 331.29&#10;  Q 190.89 336.07 195.92 341.66&#10;  Q 203.75 350.38 211.28 359.29&#10;  L 206.38 357.54&#10;  L 190.79 341.99&#10;  Q 183.99 334.15 176.85 326.67&#10;  Q 174.52 324.23 172.55 322.87&#10;  Q 172.34 322.72 172.52 322.91&#10;  Q 172.53 322.92 172.59 323.17&#10;  Q 172.67 323.47 172.49 323.21&#10;  Q 171.47 321.72 170.33 320.94&#10;  L 166.55 315.84&#10;  Q 165.74 314.75 166.97 315.28&#10;  Q 167.40 315.47 168.18 315.99&#10;  Q 168.44 316.17 168.58 315.89&#10;  Q 168.66 315.73 168.85 315.74&#10;  Q 169.06 315.75 168.96 315.57&#10;  Q 168.13 314.09 166.98 313.17&#10;  Q 161.21 308.54 155.47 303.89&#10;  Q 154.03 302.72 152.78 300.48&#10;  Q 152.55 300.07 150.56 298.59&#10;  Q 149.87 298.07 150.30 298.82&#10;  Q 150.72 299.54 151.47 299.80&#10;  Q 151.95 299.96 152.07 300.42&#10;  L 152.30 301.36&#10;  Q 152.35 301.58 152.14 301.42&#10;  Q 151.99 301.32 151.89 301.13&#10;  A 0.72 0.07 63.7 0 0 151.70 300.82&#10;  L 145.82 293.82&#10;  Q 146.06 292.33 144.97 291.76&#10;  Q 141.26 289.81 139.42 286.76&#10;  Q 138.89 285.88 138.72 286.34&#10;  Q 138.63 286.56 139.07 287.32&#10;  L 136.58 284.67&#10;  Q 136.25 284.47 136.17 284.26&#10;  Q 136.05 283.99 136.30 284.15&#10;  Q 136.75 284.46 136.99 284.39&#10;  Q 137.46 284.25 137.12 283.90&#10;  L 109.87 255.42&#10;  Z&#10;  M 148.98 296.54&#10;  Q 147.63 295.64 146.77 294.29&#10;  Q 146.69 294.16 146.60 294.24&#10;  L 146.59 294.24&#10;  Q 146.50 294.33 146.54 294.42&#10;  Q 147.38 296.17 149.01 297.28&#10;  Q 149.12 297.35 149.12 297.22&#10;  L 149.12 296.81&#10;  Q 149.12 296.64 148.98 296.54&#10;  Z"/>
<path fill="#46dc7d" d="&#10;  M 117.49 270.84&#10;  L 162.96 317.51&#10;  C 156.33 312.59 149.76 307.43 142.61 303.25&#10;  C 139.32 301.33 135.98 299.48 133.09 297.10&#10;  Q 120.09 286.41 109.75 273.51&#10;  Q 108.80 272.33 108.34 270.84&#10;  A 0.47 0.47 0.0 0 1 108.98 270.27&#10;  Q 110.77 271.05 113.62 272.77&#10;  Q 114.70 273.43 115.80 273.44&#10;  Q 116.32 273.44 116.65 273.04&#10;  Q 117.33 272.21 117.49 270.84&#10;  Z"/>
<path fill="#3913bc" d="&#10;  M 142.72 470.07&#10;  Q 134.76 466.75 127.22 462.52&#10;  Q 76.97 434.34 44.47 386.80&#10;  Q 15.58 344.54 5.53 294.25&#10;  Q 4.00 286.62 2.93 275.87&#10;  Q 5.08 274.48 7.08 274.88&#10;  Q 7.58 274.97 7.62 275.48&#10;  Q 9.31 293.29 13.95 311.38&#10;  Q 14.69 314.27 15.99 317.80&#10;  Q 17.13 320.90 18.30 324.13&#10;  C 19.56 327.62 20.40 332.27 22.23 336.35&#10;  Q 27.35 347.70 29.78 352.62&#10;  C 31.05 355.18 33.17 357.55 34.36 360.34&#10;  Q 37.32 367.33 43.84 379.51&#10;  C 44.64 381.01 45.57 383.28 46.97 385.07&#10;  Q 51.77 391.20 59.25 400.61&#10;  Q 65.76 408.80 71.82 414.92&#10;  Q 82.50 425.74 85.64 428.25&#10;  Q 95.55 436.17 101.53 441.07&#10;  Q 107.09 445.62 112.58 449.21&#10;  Q 123.13 456.11 124.18 456.78&#10;  Q 126.95 458.55 131.46 460.31&#10;  Q 137.59 462.71 141.84 465.52&#10;  Q 143.43 466.57 144.54 468.62&#10;  Q 144.79 469.08 144.41 469.43&#10;  Q 143.80 469.98 142.72 470.07&#10;  Z"/>
<path fill="#1b0f15" d="&#10;  M 145.82 293.82&#10;  L 139.07 287.32&#10;  Q 138.63 286.56 138.72 286.34&#10;  Q 138.89 285.88 139.42 286.76&#10;  Q 141.26 289.81 144.97 291.76&#10;  Q 146.06 292.33 145.82 293.82&#10;  Z"/>
<path fill="#320fa8" d="&#10;  M 155.08 411.96&#10;  L 163.71 429.52&#10;  L 171.89 446.22&#10;  Q 165.83 439.11 158.05 426.64&#10;  Q 146.95 408.82 132.49 383.81&#10;  Q 127.74 375.59 109.81 346.33&#10;  Q 101.76 333.19 92.34 310.89&#10;  Q 90.42 306.33 85.22 289.22&#10;  Q 89.14 295.06 91.91 301.50&#10;  Q 95.87 310.69 95.91 310.76&#10;  Q 105.76 331.38 117.73 351.07&#10;  Q 125.58 363.98 127.87 368.30&#10;  C 134.05 379.97 139.54 392.11 147.45 403.37&#10;  Q 150.75 408.06 155.08 411.96&#10;  Z"/>
<path fill="#1b0f15" d="&#10;  M 148.98 296.54&#10;  Q 149.12 296.64 149.12 296.81&#10;  L 149.12 297.22&#10;  Q 149.12 297.35 149.01 297.28&#10;  Q 147.38 296.17 146.54 294.42&#10;  Q 146.50 294.33 146.59 294.24&#10;  L 146.60 294.24&#10;  Q 146.69 294.16 146.77 294.29&#10;  Q 147.63 295.64 148.98 296.54&#10;  Z"/>
<path fill="#1b0f15" d="&#10;  M 158.27 306.90&#10;  Q 158.17 306.68 158.41 306.68&#10;  Q 158.89 306.67 159.09 307.04&#10;  Q 159.59 307.96 158.74 307.47&#10;  Q 158.44 307.30 158.27 306.90&#10;  Z"/>
<circle fill="#1b0f15" cx="161.47" cy="310.53" r="0.03"/>
<path fill="#1b0f15" d="&#10;  M 170.33 320.94&#10;  Q 171.47 321.72 172.49 323.21&#10;  Q 172.67 323.47 172.59 323.17&#10;  Q 172.53 322.92 172.52 322.91&#10;  Q 172.34 322.72 172.55 322.87&#10;  Q 174.52 324.23 176.85 326.67&#10;  Q 183.99 334.15 190.79 341.99&#10;  L 178.20 329.69&#10;  Q 178.12 329.61 178.05 329.66&#10;  Q 178.01 329.69 177.97 329.74&#10;  Q 177.82 329.88 177.77 329.72&#10;  Q 177.55 329.07 174.94 326.19&#10;  Q 171.76 322.65 167.42 322.10&#10;  L 165.74 320.22&#10;  L 170.33 320.94&#10;  Z"/>
<path fill="#1f4512" d="&#10;  M 190.79 341.99&#10;  L 206.38 357.54&#10;  Q 213.31 364.68 220.51 371.57&#10;  C 222.70 373.66 224.70 376.43 227.04 378.70&#10;  Q 228.76 380.37 229.05 382.59&#10;  Q 226.23 380.71 223.86 378.31&#10;  Q 219.50 373.88 219.43 373.81&#10;  Q 216.19 370.81 213.00 367.75&#10;  Q 211.54 366.34 209.97 365.01&#10;  L 167.42 322.10&#10;  Q 171.76 322.65 174.94 326.19&#10;  Q 177.55 329.07 177.77 329.72&#10;  Q 177.82 329.88 177.97 329.74&#10;  Q 178.01 329.69 178.05 329.66&#10;  Q 178.12 329.61 178.20 329.69&#10;  L 190.79 341.99&#10;  Z"/>
<path fill="#1b0f15" d="&#10;  M 211.28 359.29&#10;  Q 225.24 373.94 239.25 388.38&#10;  C 240.57 389.74 242.12 391.80 243.44 393.58&#10;  A 1.57 1.47 59.9 0 0 245.22 394.12&#10;  Q 245.74 393.90 246.21 394.46&#10;  L 246.75 397.64&#10;  A 0.74 0.74 0.0 0 1 245.50 398.30&#10;  L 229.05 382.59&#10;  Q 228.76 380.37 227.04 378.70&#10;  C 224.70 376.43 222.70 373.66 220.51 371.57&#10;  Q 213.31 364.68 206.38 357.54&#10;  L 211.28 359.29&#10;  Z"/>
<path fill="#43be69" d="&#10;  M 154.62 410.76&#10;  L 146.68 395.61&#10;  Q 152.00 402.51 154.62 410.76&#10;  Z"/>
<path fill="#43be69" d="&#10;  M 242.41 427.05&#10;  Q 240.36 438.11 238.76 448.71&#10;  Q 236.16 465.89 236.14 466.13&#10;  Q 235.06 475.91 233.52 485.62&#10;  Q 233.26 487.20 233.20 489.40&#10;  Q 233.14 491.29 233.01 493.20&#10;  Q 211.96 492.92 192.37 487.77&#10;  Q 191.50 484.99 190.13 482.51&#10;  Q 187.94 478.51 187.47 477.49&#10;  Q 183.91 469.69 181.18 464.70&#10;  C 179.27 461.21 178.28 457.63 176.33 454.41&#10;  Q 175.43 452.93 174.12 450.29&#10;  Q 173.08 448.18 171.89 446.22&#10;  L 163.71 429.52&#10;  Q 169.61 436.11 174.94 440.49&#10;  Q 186.31 449.84 201.15 446.86&#10;  Q 225.34 442.01 242.41 427.05&#10;  Z"/>
</svg>